<?xml version="1.0" encoding="utf-8"?>
<!-- Generator: Adobe Illustrator 12.0.0, SVG Export Plug-In . SVG Version: 6.00 Build 51448)  -->
<!DOCTYPE svg PUBLIC "-//W3C//DTD SVG 1.1//EN" "http://www.w3.org/Graphics/SVG/1.1/DTD/svg11.dtd" [
	<!ENTITY ns_svg "http://www.w3.org/2000/svg">
	<!ENTITY ns_xlink "http://www.w3.org/1999/xlink">
]>
<svg  version="1.1" id="レイヤー_1" xmlns="&ns_svg;" xmlns:xlink="&ns_xlink;" width="259.049" height="288.5"
	 viewBox="0 0 259.049 288.5" overflow="visible" enable-background="new 0 0 259.049 288.5" xml:space="preserve">
<g>
	<polyline fill="none" stroke="#00A0E9" stroke-width="0.5" points="164.256,119.805 142.482,119.805 142.482,135.955 	"/>
	<polyline fill="none" stroke="#00A0E9" stroke-width="0.5" points="157.369,115.826 164.256,119.805 157.369,123.781 	"/>
</g>
<rect x="165.584" y="0.25" fill="none" stroke="#00A0E9" stroke-width="0.5" width="35.998" height="288"/>
<line fill="none" stroke="#00A0E9" stroke-width="0.5" x1="165.584" y1="36.25" x2="201.582" y2="36.25"/>
<line fill="none" stroke="#00A0E9" stroke-width="0.5" x1="165.584" y1="72.25" x2="201.582" y2="72.25"/>
<line fill="none" stroke="#00A0E9" stroke-width="0.5" x1="165.584" y1="108.25" x2="201.582" y2="108.25"/>
<line fill="none" stroke="#00A0E9" stroke-width="0.5" x1="165.584" y1="144.25" x2="201.582" y2="144.25"/>
<line fill="none" stroke="#00A0E9" stroke-width="0.5" x1="165.584" y1="216.25" x2="201.582" y2="216.25"/>
<line fill="none" stroke="#00A0E9" stroke-width="0.5" x1="165.584" y1="252.25" x2="201.582" y2="252.25"/>
<line fill="none" stroke="#00A0E9" stroke-width="0.5" x1="165.584" y1="180.25" x2="201.582" y2="180.25"/>
<g>
	<path d="M238.529,3.681c0.863,0,1.836,0.144,2.88,0.432c1.224,0.324,1.8,0.828,1.8,1.548c0,0.288,0,0.288-0.288,1.008
		c-0.396,1.116-0.72,3.348-0.72,5.184c0,0.144,0,0.396,0,0.684c0.359,0.324,0.54,0.396,0.972,0.396c1.368,0,4.141-1.08,5.473-2.124
		c0.396-0.288,0.575-0.396,0.792-0.396c0.323,0,1.044,0.216,1.548,0.468c0.576,0.324,0.756,0.54,0.756,0.864
		c0,0.54-0.468,0.828-2.124,1.44c-1.944,0.72-3.672,1.116-5.004,1.116c-1.044,0-1.62-0.216-2.412-0.9c0,0.684,0,1.26,0,1.584
		c0,2.844,0.18,7.056,0.396,9.396c2.809,0.468,5.473,1.404,7.597,2.628c1.548,0.864,2.231,1.836,2.231,3.096
		c0,0.864-0.252,1.368-0.72,1.368c-0.252,0-0.468-0.144-0.864-0.468c-3.06-2.592-4.752-3.564-8.1-4.572
		c0.072,1.692,0.072,1.692,0.072,2.34c0,1.764-0.828,2.916-2.557,3.564c-0.864,0.324-2.376,0.54-3.672,0.54
		c-3.78,0-6.156-1.512-6.156-3.924c0-1.728,1.225-3.096,3.492-3.96c1.404-0.54,3.348-0.864,5.22-0.864c0.288,0,0.757,0,1.368,0.036
		c-0.216-14.472-0.216-14.472-0.504-16.884c-0.252-2.088-0.792-2.664-3.132-3.06C237.449,3.789,237.737,3.681,238.529,3.681z
		 M237.737,25.821c-3.708,0-6.372,1.26-6.372,3.06c0,1.44,1.476,2.268,4.031,2.268c2.089,0,3.816-0.576,4.501-1.476
		c0.468-0.576,0.575-1.332,0.575-3.78C239.321,25.821,238.889,25.821,237.737,25.821z"/>
	<path d="M244.541,42.705c-1.404,0.432-4.788,1.764-7.272,2.844c-0.72,0.324-1.188,0.468-1.476,0.468
		c-0.648,0-1.368-0.504-2.052-1.512c-0.648-0.972-1.008-1.908-1.008-2.664c0-0.324,0.071-0.576,0.323-0.936
		c0.54,1.692,1.513,2.628,2.7,2.628c0.937,0,4.356-0.792,6.804-1.548c1.404-0.468,1.477-0.468,2.232-1.116
		c0.144-0.108,0.324-0.18,0.504-0.18c0.468,0,1.044,0.36,1.944,1.26c0.828,0.792,1.08,1.188,1.08,1.62
		c0,0.252-0.181,0.468-0.612,0.684c-1.044,0.54-1.404,0.828-2.988,2.412c-2.268,2.268-3.6,3.6-5.292,5.4
		c-3.456,3.708-3.456,3.708-4.212,4.464l0.072,0.072c3.852-2.412,6.768-3.42,9.792-3.42c4.608,0,7.704,2.7,7.704,6.732
		c0,5.148-4.788,8.964-11.304,8.964c-3.528,0-5.797-1.404-5.797-3.6c0-1.764,1.656-3.06,3.889-3.06c1.764,0,3.384,0.648,4.571,1.764
		c0.648,0.612,1.045,1.188,1.585,2.232c2.735-1.188,4.355-3.672,4.355-6.732c0-1.98-0.792-3.6-2.232-4.464
		c-0.756-0.432-2.159-0.72-3.563-0.72c-3.528,0-8.46,2.88-11.448,6.696c-0.612,0.756-0.864,0.972-1.224,0.972
		c-0.54,0-1.188-1.26-1.188-2.34c0-0.432,0.252-0.828,0.756-1.26c1.368-1.044,1.944-1.62,5.004-5.004
		c4.393-4.932,5.761-6.516,8.604-10.188c0.288-0.396,0.288-0.396,0.36-0.576c0,0-0.072-0.072-0.108-0.072c0,0-0.036,0-0.036,0.036
		c-0.036,0-0.036,0-0.107,0c0,0-0.072,0.036-0.181,0.072L244.541,42.705z M238.997,63.37c-1.368,0-2.269,0.72-2.269,1.836
		c0,1.332,1.584,2.196,4.104,2.196c0.972,0,1.44-0.072,2.556-0.324C242.669,64.773,241.013,63.37,238.997,63.37z"/>
	<path d="M258.509,105.742c-6.336-4.716-10.368-6.192-16.92-6.192c-6.588,0-10.62,1.476-16.956,6.192l-0.54-0.54
		c4.248-5.256,10.656-8.316,17.424-8.316c6.805,0,13.213,3.06,17.532,8.316L258.509,105.742z"/>
	<path d="M252.893,142.821v-7.632h-21.276v-4.896h26.316v12.528H252.893z M257.104,141.994v-10.872h-24.66v3.24h21.276v7.632
		H257.104z"/>
	<path d="M239.645,154.017c-0.324,0.216-0.756,0.324-1.62,0.36c-1.188,2.52-3.023,5.22-5.22,7.668v0.108
		c4.932,0.972,6.48,3.132,6.48,4.536c0,0.756-0.469,1.296-1.116,1.296c-0.288,0-0.576-0.108-0.9-0.324
		c-0.684-1.692-2.664-3.78-4.464-4.968v15.192c0,0-0.252,0.9-2.304,0.9v-14.4c-1.836,1.728-3.816,3.24-5.868,4.356l-0.396-0.432
		c4.5-3.096,9.181-9.36,11.269-14.544h-10.656l-0.252-0.864h5.868v-7.344l4.067,0.36c-0.071,0.576-0.468,0.828-1.728,0.972v6.012
		h2.592l1.584-1.512L239.645,154.017z M255.053,173.817l3.168,2.304c-0.288,0.54-0.72,0.792-1.728,0.792h-19.729l-0.216-0.864h9.72
		v-16.92h-7.2l-0.216-0.864h7.416v-12.744l4.104,0.36c-0.072,0.576-0.504,0.864-1.656,1.008v11.376h3.744l1.656-2.196l3.096,2.268
		c-0.288,0.54-0.684,0.792-1.656,0.792h-6.84v16.92h4.645L255.053,173.817z"/>
	<path d="M224.453,196.101c6.191-3.636,12.636-9.828,15.12-14.76l4.031,1.08c-0.107,0.432-0.504,0.576-1.476,0.72
		c3.6,4.104,9.252,7.92,15.768,10.188l-0.071,0.576c-1.08,0.288-1.765,1.152-2.053,2.088c-6.048-3.06-11.304-7.488-14.256-12.492
		c-3.384,4.572-9.864,10.08-16.848,13.176L224.453,196.101z M251.705,200.673l1.836-2.304l3.384,2.412
		c-0.288,0.504-0.684,0.756-1.728,0.756h-17.209l1.692,0.576c-0.18,0.396-0.576,0.54-1.404,0.468
		c-1.332,2.52-3.491,5.868-5.651,8.532c4.644-0.144,10.728-0.432,17.172-0.72c-1.584-1.872-3.6-3.6-5.364-4.788l0.288-0.396
		c7.632,2.52,9.937,6.12,9.937,8.136c0,0.9-0.504,1.512-1.188,1.512c-0.324,0-0.684-0.144-1.044-0.396
		c-0.396-1.044-1.116-2.16-1.98-3.276c-4.752,0.684-11.483,1.476-20.844,2.448c-0.216,0.432-0.54,0.648-0.9,0.756l-1.907-3.132
		c1.224,0,2.88-0.036,4.788-0.108c1.476-2.88,3.06-6.624,4.067-9.612h-9.864l-0.252-0.864H251.705z M246.772,191.997l3.313,2.304
		c-0.288,0.54-0.72,0.756-1.692,0.756h-16.704l-0.252-0.864h13.572L246.772,191.997z"/>
	<path d="M230.068,231.957c0.433,1.692,0.612,3.24,0.612,4.608c0,5.292-2.772,8.604-4.896,8.604c-0.792,0-1.079-0.648-1.079-1.044
		c0-0.468,0.287-1.008,0.756-1.44c2.195-1.656,4.176-5.832,3.96-10.692L230.068,231.957z M233.957,218.637
		c9.647,0.432,12.672,3.744,12.672,5.508c0,0.684-0.432,1.116-1.08,1.116c-0.18,0-0.396-0.036-0.612-0.108
		c-1.548-2.016-5.472-4.644-11.052-5.94L233.957,218.637z M234.604,227.817l3.744,0.36c-0.072,0.468-0.288,0.684-1.404,0.864v17.28
		c0,1.224,0.145,1.332,1.62,1.332h7.813c0.647,0,1.044-0.036,1.332-0.576c0.324-0.54,0.828-2.844,1.368-5.364h0.359l-0.036,5.652
		c1.08,0.36,1.297,0.504,1.297,0.864c0,1.044-1.044,1.512-4.32,1.512h-7.813c-3.204,0-3.96-0.576-3.96-3.456V227.817z
		 M250.265,230.337c5.977,3.708,7.776,8.352,7.776,11.376c0,1.908-0.72,3.168-1.584,3.168c-0.324,0-0.685-0.18-1.044-0.612
		c-0.036-3.6-1.332-9.648-5.508-13.536L250.265,230.337z"/>
	<path d="M231.545,277.461c1.728-0.468,3.6-1.044,5.472-1.584l0.145,0.54c-2.412,1.188-5.868,2.916-10.477,4.968
		c-0.144,0.468-0.432,0.756-0.756,0.9l-1.512-2.916c1.044-0.216,2.735-0.684,4.823-1.26v-9.72h-4.104l-0.252-0.864h4.355v-9.252
		h-4.392l-0.216-0.864h8.1l1.584-2.16l3.061,2.268c-0.288,0.54-0.72,0.756-1.656,0.756h-4.176v9.252h1.188l1.44-2.016l2.664,2.124
		c-0.288,0.54-0.685,0.756-1.656,0.756h-3.636V277.461z M255.377,282.321l3.204,2.376c-0.288,0.54-0.685,0.756-1.692,0.756h-22.392
		l-0.252-0.864h11.735v-6.696h-8.027l-0.252-0.864h8.279v-6.264h-5.256v1.62c0,0.036-0.288,0.864-2.304,0.864v-18.324l2.483,1.152
		h12.421l1.115-1.44l3.097,2.232c-0.252,0.288-0.828,0.576-1.548,0.72v14.472c0,0.108-0.721,0.864-2.305,0.864v-2.16h-5.399v6.264
		h4.104l1.62-2.124l3.096,2.232c-0.288,0.54-0.72,0.756-1.728,0.756h-7.092v6.696h5.399L255.377,282.321z M245.98,256.941h-5.256
		v6.012h5.256V256.941z M240.725,269.901h5.256v-6.084h-5.256V269.901z M253.685,256.941h-5.399v6.012h5.399V256.941z
		 M248.285,269.901h5.399v-6.084h-5.399V269.901z"/>
	<path d="M180.529,3.681c0.863,0,1.836,0.144,2.88,0.432c1.224,0.324,1.8,0.828,1.8,1.548c0,0.288,0,0.288-0.288,1.008
		c-0.396,1.116-0.72,3.348-0.72,5.184c0,0.144,0,0.396,0,0.684c0.359,0.324,0.54,0.396,0.972,0.396c1.368,0,4.141-1.08,5.473-2.124
		c0.396-0.288,0.575-0.396,0.792-0.396c0.323,0,1.044,0.216,1.548,0.468c0.576,0.324,0.756,0.54,0.756,0.864
		c0,0.54-0.468,0.828-2.124,1.44c-1.944,0.72-3.672,1.116-5.004,1.116c-1.044,0-1.62-0.216-2.412-0.9c0,0.684,0,1.26,0,1.584
		c0,2.844,0.18,7.056,0.396,9.396c2.809,0.468,5.473,1.404,7.597,2.628c1.548,0.864,2.231,1.836,2.231,3.096
		c0,0.864-0.252,1.368-0.72,1.368c-0.252,0-0.468-0.144-0.864-0.468c-3.06-2.592-4.752-3.564-8.1-4.572
		c0.072,1.692,0.072,1.692,0.072,2.34c0,1.764-0.828,2.916-2.557,3.564c-0.864,0.324-2.376,0.54-3.672,0.54
		c-3.78,0-6.156-1.512-6.156-3.924c0-1.728,1.225-3.096,3.492-3.96c1.404-0.54,3.348-0.864,5.22-0.864c0.288,0,0.757,0,1.368,0.036
		c-0.216-14.472-0.216-14.472-0.504-16.884c-0.252-2.088-0.792-2.664-3.132-3.06C179.449,3.789,179.737,3.681,180.529,3.681z
		 M179.737,25.821c-3.708,0-6.372,1.26-6.372,3.06c0,1.44,1.476,2.268,4.031,2.268c2.089,0,3.816-0.576,4.501-1.476
		c0.468-0.576,0.575-1.332,0.575-3.78C181.321,25.821,180.889,25.821,179.737,25.821z"/>
	<path d="M186.541,42.705c-1.404,0.432-4.788,1.764-7.272,2.844c-0.72,0.324-1.188,0.468-1.476,0.468
		c-0.648,0-1.368-0.504-2.052-1.512c-0.648-0.972-1.008-1.908-1.008-2.664c0-0.324,0.071-0.576,0.323-0.936
		c0.54,1.692,1.513,2.628,2.7,2.628c0.937,0,4.356-0.792,6.804-1.548c1.404-0.468,1.477-0.468,2.232-1.116
		c0.144-0.108,0.324-0.18,0.504-0.18c0.468,0,1.044,0.36,1.944,1.26c0.828,0.792,1.08,1.188,1.08,1.62
		c0,0.252-0.181,0.468-0.612,0.684c-1.044,0.54-1.404,0.828-2.988,2.412c-2.268,2.268-3.6,3.6-5.292,5.4
		c-3.456,3.708-3.456,3.708-4.212,4.464l0.072,0.072c3.852-2.412,6.768-3.42,9.792-3.42c4.608,0,7.704,2.7,7.704,6.732
		c0,5.148-4.788,8.964-11.304,8.964c-3.528,0-5.797-1.404-5.797-3.6c0-1.764,1.656-3.06,3.889-3.06c1.764,0,3.384,0.648,4.571,1.764
		c0.648,0.612,1.045,1.188,1.585,2.232c2.735-1.188,4.355-3.672,4.355-6.732c0-1.98-0.792-3.6-2.232-4.464
		c-0.756-0.432-2.159-0.72-3.563-0.72c-3.528,0-8.46,2.88-11.448,6.696c-0.612,0.756-0.864,0.972-1.224,0.972
		c-0.54,0-1.188-1.26-1.188-2.34c0-0.432,0.252-0.828,0.756-1.26c1.368-1.044,1.944-1.62,5.004-5.004
		c4.393-4.932,5.761-6.516,8.604-10.188c0.288-0.396,0.288-0.396,0.36-0.576c0,0-0.072-0.072-0.108-0.072c0,0-0.036,0-0.036,0.036
		c-0.036,0-0.036,0-0.107,0c0,0-0.072,0.036-0.181,0.072L186.541,42.705z M180.997,63.37c-1.368,0-2.269,0.72-2.269,1.836
		c0,1.332,1.584,2.196,4.104,2.196c0.972,0,1.44-0.072,2.556-0.324C184.669,64.773,183.013,63.37,180.997,63.37z"/>
	<path d="M200.509,105.742c-6.336-4.716-10.368-6.192-16.92-6.192c-6.588,0-10.62,1.476-16.956,6.192l-0.54-0.54
		c4.248-5.256,10.656-8.316,17.424-8.316c6.805,0,13.213,3.06,17.532,8.316L200.509,105.742z"/>
	<path d="M194.893,142.821v-7.632h-21.276v-4.896h26.316v12.528H194.893z M199.104,141.994v-10.872h-24.66v3.24h21.276v7.632
		H199.104z"/>
	<path d="M181.645,154.017c-0.324,0.216-0.756,0.324-1.62,0.36c-1.188,2.52-3.023,5.22-5.22,7.668v0.108
		c4.932,0.972,6.48,3.132,6.48,4.536c0,0.756-0.469,1.296-1.116,1.296c-0.288,0-0.576-0.108-0.9-0.324
		c-0.684-1.692-2.664-3.78-4.464-4.968v15.192c0,0-0.252,0.9-2.304,0.9v-14.4c-1.836,1.728-3.816,3.24-5.868,4.356l-0.396-0.432
		c4.5-3.096,9.181-9.36,11.269-14.544h-10.656l-0.252-0.864h5.868v-7.344l4.067,0.36c-0.071,0.576-0.468,0.828-1.728,0.972v6.012
		h2.592l1.584-1.512L181.645,154.017z M197.053,173.817l3.168,2.304c-0.288,0.54-0.72,0.792-1.728,0.792h-19.729l-0.216-0.864h9.72
		v-16.92h-7.2l-0.216-0.864h7.416v-12.744l4.104,0.36c-0.072,0.576-0.504,0.864-1.656,1.008v11.376h3.744l1.656-2.196l3.096,2.268
		c-0.288,0.54-0.684,0.792-1.656,0.792h-6.84v16.92h4.645L197.053,173.817z"/>
	<path d="M166.453,196.101c6.191-3.636,12.636-9.828,15.12-14.76l4.031,1.08c-0.107,0.432-0.504,0.576-1.476,0.72
		c3.6,4.104,9.252,7.92,15.768,10.188l-0.071,0.576c-1.08,0.288-1.765,1.152-2.053,2.088c-6.048-3.06-11.304-7.488-14.256-12.492
		c-3.384,4.572-9.864,10.08-16.848,13.176L166.453,196.101z M193.705,200.673l1.836-2.304l3.384,2.412
		c-0.288,0.504-0.684,0.756-1.728,0.756h-17.209l1.692,0.576c-0.18,0.396-0.576,0.54-1.404,0.468
		c-1.332,2.52-3.491,5.868-5.651,8.532c4.644-0.144,10.728-0.432,17.172-0.72c-1.584-1.872-3.6-3.6-5.364-4.788l0.288-0.396
		c7.632,2.52,9.937,6.12,9.937,8.136c0,0.9-0.504,1.512-1.188,1.512c-0.324,0-0.684-0.144-1.044-0.396
		c-0.396-1.044-1.116-2.16-1.98-3.276c-4.752,0.684-11.483,1.476-20.844,2.448c-0.216,0.432-0.54,0.648-0.9,0.756l-1.907-3.132
		c1.224,0,2.88-0.036,4.788-0.108c1.476-2.88,3.06-6.624,4.067-9.612h-9.864l-0.252-0.864H193.705z M188.772,191.997l3.313,2.304
		c-0.288,0.54-0.72,0.756-1.692,0.756h-16.704l-0.252-0.864h13.572L188.772,191.997z"/>
	<path d="M172.068,231.957c0.433,1.692,0.612,3.24,0.612,4.608c0,5.292-2.772,8.604-4.896,8.604c-0.792,0-1.079-0.648-1.079-1.044
		c0-0.468,0.287-1.008,0.756-1.44c2.195-1.656,4.176-5.832,3.96-10.692L172.068,231.957z M175.957,218.637
		c9.647,0.432,12.672,3.744,12.672,5.508c0,0.684-0.432,1.116-1.08,1.116c-0.18,0-0.396-0.036-0.612-0.108
		c-1.548-2.016-5.472-4.644-11.052-5.94L175.957,218.637z M176.604,227.817l3.744,0.36c-0.072,0.468-0.288,0.684-1.404,0.864v17.28
		c0,1.224,0.145,1.332,1.62,1.332h7.813c0.647,0,1.044-0.036,1.332-0.576c0.324-0.54,0.828-2.844,1.368-5.364h0.359l-0.036,5.652
		c1.08,0.36,1.297,0.504,1.297,0.864c0,1.044-1.044,1.512-4.32,1.512h-7.813c-3.204,0-3.96-0.576-3.96-3.456V227.817z
		 M192.265,230.337c5.977,3.708,7.776,8.352,7.776,11.376c0,1.908-0.72,3.168-1.584,3.168c-0.324,0-0.685-0.18-1.044-0.612
		c-0.036-3.6-1.332-9.648-5.508-13.536L192.265,230.337z"/>
	<path d="M173.545,277.461c1.728-0.468,3.6-1.044,5.472-1.584l0.145,0.54c-2.412,1.188-5.868,2.916-10.477,4.968
		c-0.144,0.468-0.432,0.756-0.756,0.9l-1.512-2.916c1.044-0.216,2.735-0.684,4.823-1.26v-9.72h-4.104l-0.252-0.864h4.355v-9.252
		h-4.392l-0.216-0.864h8.1l1.584-2.16l3.061,2.268c-0.288,0.54-0.72,0.756-1.656,0.756h-4.176v9.252h1.188l1.44-2.016l2.664,2.124
		c-0.288,0.54-0.685,0.756-1.656,0.756h-3.636V277.461z M197.377,282.321l3.204,2.376c-0.288,0.54-0.685,0.756-1.692,0.756h-22.392
		l-0.252-0.864h11.735v-6.696h-8.027l-0.252-0.864h8.279v-6.264h-5.256v1.62c0,0.036-0.288,0.864-2.304,0.864v-18.324l2.483,1.152
		h12.421l1.115-1.44l3.097,2.232c-0.252,0.288-0.828,0.576-1.548,0.72v14.472c0,0.108-0.721,0.864-2.305,0.864v-2.16h-5.399v6.264
		h4.104l1.62-2.124l3.096,2.232c-0.288,0.54-0.72,0.756-1.728,0.756h-7.092v6.696h5.399L197.377,282.321z M187.98,256.941h-5.256
		v6.012h5.256V256.941z M182.725,269.901h5.256v-6.084h-5.256V269.901z M195.685,256.941h-5.399v6.012h5.399V256.941z
		 M190.285,269.901h5.399v-6.084h-5.399V269.901z"/>
</g>
<rect x="0.25" y="0.25" fill="none" stroke="#00A0E9" stroke-width="0.5" width="35.998" height="270"/>
<line fill="none" stroke="#00A0E9" stroke-width="0.5" x1="0.25" y1="36.25" x2="36.248" y2="36.25"/>
<line fill="none" stroke="#00A0E9" stroke-width="0.5" x1="0.25" y1="72.25" x2="36.248" y2="72.25"/>
<line fill="none" stroke="#00A0E9" stroke-width="0.5" x1="0.25" y1="108.25" x2="36.248" y2="108.25"/>
<line fill="none" stroke="#00A0E9" stroke-width="0.5" x1="0.25" y1="54.25" x2="36.248" y2="54.25"/>
<line fill="none" stroke="#00A0E9" stroke-width="0.5" x1="0.25" y1="126.25" x2="36.248" y2="126.25"/>
<line fill="none" stroke="#00A0E9" stroke-width="0.5" x1="0.25" y1="162.25" x2="36.248" y2="162.25"/>
<line fill="none" stroke="#00A0E9" stroke-width="0.5" x1="0.25" y1="198.25" x2="36.248" y2="198.25"/>
<line fill="none" stroke="#00A0E9" stroke-width="0.5" x1="0.25" y1="234.25" x2="36.248" y2="234.25"/>
<g>
	<path d="M73.195,3.681c0.863,0,1.836,0.144,2.88,0.432c1.224,0.324,1.8,0.828,1.8,1.548c0,0.288,0,0.288-0.288,1.008
		c-0.396,1.116-0.72,3.348-0.72,5.184c0,0.144,0,0.396,0,0.684c0.359,0.324,0.54,0.396,0.972,0.396c1.368,0,4.141-1.08,5.473-2.124
		c0.396-0.288,0.575-0.396,0.792-0.396c0.323,0,1.044,0.216,1.548,0.468c0.576,0.324,0.756,0.54,0.756,0.864
		c0,0.54-0.468,0.828-2.124,1.44c-1.944,0.72-3.672,1.116-5.004,1.116c-1.044,0-1.62-0.216-2.412-0.9c0,0.684,0,1.26,0,1.584
		c0,2.844,0.18,7.056,0.396,9.396c2.809,0.468,5.473,1.404,7.597,2.628c1.548,0.864,2.231,1.836,2.231,3.096
		c0,0.864-0.252,1.368-0.72,1.368c-0.252,0-0.468-0.144-0.864-0.468c-3.06-2.592-4.752-3.564-8.1-4.572
		c0.072,1.692,0.072,1.692,0.072,2.34c0,1.764-0.828,2.916-2.557,3.564c-0.864,0.324-2.376,0.54-3.672,0.54
		c-3.78,0-6.156-1.512-6.156-3.924c0-1.728,1.225-3.096,3.492-3.96c1.404-0.54,3.348-0.864,5.22-0.864c0.288,0,0.757,0,1.368,0.036
		C74.959,9.693,74.959,9.693,74.671,7.281c-0.252-2.088-0.792-2.664-3.132-3.06C72.115,3.789,72.403,3.681,73.195,3.681z
		 M72.403,25.821c-3.708,0-6.372,1.26-6.372,3.06c0,1.44,1.476,2.268,4.031,2.268c2.089,0,3.816-0.576,4.501-1.476
		c0.468-0.576,0.575-1.332,0.575-3.78C73.987,25.821,73.555,25.821,72.403,25.821z"/>
	<path d="M79.207,42.705c-1.404,0.432-4.788,1.764-7.272,2.844c-0.72,0.324-1.188,0.468-1.476,0.468
		c-0.648,0-1.368-0.504-2.052-1.512c-0.648-0.972-1.008-1.908-1.008-2.664c0-0.324,0.071-0.576,0.323-0.936
		c0.54,1.692,1.513,2.628,2.7,2.628c0.937,0,4.356-0.792,6.804-1.548c1.404-0.468,1.477-0.468,2.232-1.116
		c0.144-0.108,0.324-0.18,0.504-0.18c0.468,0,1.044,0.36,1.944,1.26c0.828,0.792,1.08,1.188,1.08,1.62
		c0,0.252-0.181,0.468-0.612,0.684c-1.044,0.54-1.404,0.828-2.988,2.412c-2.268,2.268-3.6,3.6-5.292,5.4
		c-3.456,3.708-3.456,3.708-4.212,4.464l0.072,0.072c3.852-2.412,6.768-3.42,9.792-3.42c4.608,0,7.704,2.7,7.704,6.732
		c0,5.148-4.788,8.964-11.304,8.964c-3.528,0-5.797-1.404-5.797-3.6c0-1.764,1.656-3.06,3.889-3.06c1.764,0,3.384,0.648,4.571,1.764
		c0.648,0.612,1.045,1.188,1.585,2.232c2.735-1.188,4.355-3.672,4.355-6.732c0-1.98-0.792-3.6-2.232-4.464
		c-0.756-0.432-2.159-0.72-3.563-0.72c-3.528,0-8.46,2.88-11.448,6.696c-0.612,0.756-0.864,0.972-1.224,0.972
		c-0.54,0-1.188-1.26-1.188-2.34c0-0.432,0.252-0.828,0.756-1.26c1.368-1.044,1.944-1.62,5.004-5.004
		c4.393-4.932,5.761-6.516,8.604-10.188c0.288-0.396,0.288-0.396,0.36-0.576c0,0-0.072-0.072-0.108-0.072c0,0-0.036,0-0.036,0.036
		c-0.036,0-0.036,0-0.107,0c0,0-0.072,0.036-0.181,0.072L79.207,42.705z M73.663,63.37c-1.368,0-2.269,0.72-2.269,1.836
		c0,1.332,1.584,2.196,4.104,2.196c0.972,0,1.44-0.072,2.556-0.324C77.335,64.773,75.679,63.37,73.663,63.37z"/>
	<path d="M93.175,105.742c-6.336-4.716-10.368-6.192-16.92-6.192c-6.588,0-10.62,1.476-16.956,6.192l-0.54-0.54
		c4.248-5.256,10.656-8.316,17.424-8.316c6.805,0,13.213,3.06,17.532,8.316L93.175,105.742z"/>
	<path d="M87.559,124.821v-7.632H66.282v-4.896h26.316v12.528H87.559z M91.771,123.994v-10.872H67.11v3.24h21.276v7.632H91.771z"/>
	<path d="M74.311,136.017c-0.324,0.216-0.756,0.324-1.62,0.36c-1.188,2.52-3.023,5.22-5.22,7.668v0.108
		c4.932,0.972,6.48,3.132,6.48,4.536c0,0.756-0.469,1.296-1.116,1.296c-0.288,0-0.576-0.108-0.9-0.324
		c-0.684-1.692-2.664-3.78-4.464-4.968v15.192c0,0-0.252,0.9-2.304,0.9v-14.4c-1.836,1.728-3.816,3.24-5.868,4.356l-0.396-0.432
		c4.5-3.096,9.181-9.36,11.269-14.544H59.515l-0.252-0.864h5.868v-7.344l4.067,0.36c-0.071,0.576-0.468,0.828-1.728,0.972v6.012
		h2.592l1.584-1.512L74.311,136.017z M89.719,155.817l3.168,2.304c-0.288,0.54-0.72,0.792-1.728,0.792H71.431l-0.216-0.864h9.72
		v-16.92h-7.2l-0.216-0.864h7.416v-12.744l4.104,0.36c-0.072,0.576-0.504,0.864-1.656,1.008v11.376h3.744l1.656-2.196l3.096,2.268
		c-0.288,0.54-0.684,0.792-1.656,0.792h-6.84v16.92h4.645L89.719,155.817z"/>
	<path d="M59.119,178.101c6.191-3.636,12.636-9.828,15.12-14.76l4.031,1.08c-0.107,0.432-0.504,0.576-1.476,0.72
		c3.6,4.104,9.252,7.92,15.768,10.188l-0.071,0.576c-1.08,0.288-1.765,1.152-2.053,2.088c-6.048-3.06-11.304-7.488-14.256-12.492
		c-3.384,4.572-9.864,10.08-16.848,13.176L59.119,178.101z M86.371,182.673l1.836-2.304l3.384,2.412
		c-0.288,0.504-0.684,0.756-1.728,0.756H72.654l1.692,0.576c-0.18,0.396-0.576,0.54-1.404,0.468
		c-1.332,2.52-3.491,5.868-5.651,8.532c4.644-0.144,10.728-0.432,17.172-0.72c-1.584-1.872-3.6-3.6-5.364-4.788l0.288-0.396
		c7.632,2.52,9.937,6.12,9.937,8.136c0,0.9-0.504,1.512-1.188,1.512c-0.324,0-0.684-0.144-1.044-0.396
		c-0.396-1.044-1.116-2.16-1.98-3.276c-4.752,0.684-11.483,1.476-20.844,2.448c-0.216,0.432-0.54,0.648-0.9,0.756l-1.907-3.132
		c1.224,0,2.88-0.036,4.788-0.108c1.476-2.88,3.06-6.624,4.067-9.612H60.45l-0.252-0.864H86.371z M81.438,173.997l3.313,2.304
		c-0.288,0.54-0.72,0.756-1.692,0.756H66.354l-0.252-0.864h13.572L81.438,173.997z"/>
	<path d="M64.734,213.957c0.433,1.692,0.612,3.24,0.612,4.608c0,5.292-2.772,8.604-4.896,8.604c-0.792,0-1.079-0.648-1.079-1.044
		c0-0.468,0.287-1.008,0.756-1.44c2.195-1.656,4.176-5.832,3.96-10.692L64.734,213.957z M68.623,200.637
		c9.647,0.432,12.672,3.744,12.672,5.508c0,0.684-0.432,1.116-1.08,1.116c-0.18,0-0.396-0.036-0.612-0.108
		c-1.548-2.016-5.472-4.644-11.052-5.94L68.623,200.637z M69.271,209.817l3.744,0.36c-0.072,0.468-0.288,0.684-1.404,0.864v17.28
		c0,1.224,0.145,1.332,1.62,1.332h7.813c0.647,0,1.044-0.036,1.332-0.576c0.324-0.54,0.828-2.844,1.368-5.364h0.359l-0.036,5.652
		c1.08,0.36,1.297,0.504,1.297,0.864c0,1.044-1.044,1.512-4.32,1.512H73.23c-3.204,0-3.96-0.576-3.96-3.456V209.817z
		 M84.931,212.337c5.977,3.708,7.776,8.352,7.776,11.376c0,1.908-0.72,3.168-1.584,3.168c-0.324,0-0.685-0.18-1.044-0.612
		c-0.036-3.6-1.332-9.648-5.508-13.536L84.931,212.337z"/>
	<path d="M66.211,259.461c1.728-0.468,3.6-1.044,5.472-1.584l0.145,0.54c-2.412,1.188-5.868,2.916-10.477,4.968
		c-0.144,0.468-0.432,0.756-0.756,0.9l-1.512-2.916c1.044-0.216,2.735-0.684,4.823-1.26v-9.72h-4.104l-0.252-0.864h4.355v-9.252
		h-4.392l-0.216-0.864h8.1l1.584-2.16l3.061,2.268c-0.288,0.54-0.72,0.756-1.656,0.756h-4.176v9.252h1.188l1.44-2.016l2.664,2.124
		c-0.288,0.54-0.685,0.756-1.656,0.756h-3.636V259.461z M90.043,264.321l3.204,2.376c-0.288,0.54-0.685,0.756-1.692,0.756H69.163
		l-0.252-0.864h11.735v-6.696h-8.027l-0.252-0.864h8.279v-6.264h-5.256v1.62c0,0.036-0.288,0.864-2.304,0.864v-18.324l2.483,1.152
		h12.421l1.115-1.44l3.097,2.232c-0.252,0.288-0.828,0.576-1.548,0.72v14.472c0,0.108-0.721,0.864-2.305,0.864v-2.16h-5.399v6.264
		h4.104l1.62-2.124l3.096,2.232c-0.288,0.54-0.72,0.756-1.728,0.756h-7.092v6.696h5.399L90.043,264.321z M80.646,238.941h-5.256
		v6.012h5.256V238.941z M75.391,251.901h5.256v-6.084h-5.256V251.901z M88.351,238.941h-5.399v6.012h5.399V238.941z M82.951,251.901
		h5.399v-6.084h-5.399V251.901z"/>
	<path d="M15.195,3.681c0.863,0,1.836,0.144,2.88,0.432c1.224,0.324,1.8,0.828,1.8,1.548c0,0.288,0,0.288-0.288,1.008
		c-0.396,1.116-0.72,3.348-0.72,5.184c0,0.144,0,0.396,0,0.684c0.359,0.324,0.54,0.396,0.972,0.396c1.368,0,4.141-1.08,5.473-2.124
		c0.396-0.288,0.575-0.396,0.792-0.396c0.323,0,1.044,0.216,1.548,0.468c0.576,0.324,0.756,0.54,0.756,0.864
		c0,0.54-0.468,0.828-2.124,1.44c-1.944,0.72-3.672,1.116-5.004,1.116c-1.044,0-1.62-0.216-2.412-0.9c0,0.684,0,1.26,0,1.584
		c0,2.844,0.18,7.056,0.396,9.396c2.809,0.468,5.473,1.404,7.597,2.628c1.548,0.864,2.231,1.836,2.231,3.096
		c0,0.864-0.252,1.368-0.72,1.368c-0.252,0-0.468-0.144-0.864-0.468c-3.06-2.592-4.752-3.564-8.1-4.572
		c0.072,1.692,0.072,1.692,0.072,2.34c0,1.764-0.828,2.916-2.557,3.564c-0.864,0.324-2.376,0.54-3.672,0.54
		c-3.78,0-6.156-1.512-6.156-3.924c0-1.728,1.225-3.096,3.492-3.96c1.404-0.54,3.348-0.864,5.22-0.864c0.288,0,0.757,0,1.368,0.036
		C16.959,9.693,16.959,9.693,16.671,7.281c-0.252-2.088-0.792-2.664-3.132-3.06C14.115,3.789,14.403,3.681,15.195,3.681z
		 M14.403,25.821c-3.708,0-6.372,1.26-6.372,3.06c0,1.44,1.476,2.268,4.031,2.268c2.089,0,3.816-0.576,4.501-1.476
		c0.468-0.576,0.575-1.332,0.575-3.78C15.987,25.821,15.555,25.821,14.403,25.821z"/>
	<path d="M21.207,42.705c-1.404,0.432-4.788,1.764-7.272,2.844c-0.72,0.324-1.188,0.468-1.476,0.468
		c-0.648,0-1.368-0.504-2.052-1.512c-0.648-0.972-1.008-1.908-1.008-2.664c0-0.324,0.071-0.576,0.323-0.936
		c0.54,1.692,1.513,2.628,2.7,2.628c0.937,0,4.356-0.792,6.804-1.548c1.404-0.468,1.477-0.468,2.232-1.116
		c0.144-0.108,0.324-0.18,0.504-0.18c0.468,0,1.044,0.36,1.944,1.26c0.828,0.792,1.08,1.188,1.08,1.62
		c0,0.252-0.181,0.468-0.612,0.684c-1.044,0.54-1.404,0.828-2.988,2.412c-2.268,2.268-3.6,3.6-5.292,5.4
		c-3.456,3.708-3.456,3.708-4.212,4.464l0.072,0.072c3.852-2.412,6.768-3.42,9.792-3.42c4.608,0,7.704,2.7,7.704,6.732
		c0,5.148-4.788,8.964-11.304,8.964c-3.528,0-5.797-1.404-5.797-3.6c0-1.764,1.656-3.06,3.889-3.06c1.764,0,3.384,0.648,4.571,1.764
		c0.648,0.612,1.045,1.188,1.585,2.232c2.735-1.188,4.355-3.672,4.355-6.732c0-1.98-0.792-3.6-2.232-4.464
		c-0.756-0.432-2.159-0.72-3.563-0.72c-3.528,0-8.46,2.88-11.448,6.696c-0.612,0.756-0.864,0.972-1.224,0.972
		c-0.54,0-1.188-1.26-1.188-2.34c0-0.432,0.252-0.828,0.756-1.26c1.368-1.044,1.944-1.62,5.004-5.004
		c4.393-4.932,5.761-6.516,8.604-10.188c0.288-0.396,0.288-0.396,0.36-0.576c0,0-0.072-0.072-0.108-0.072c0,0-0.036,0-0.036,0.036
		c-0.036,0-0.036,0-0.107,0c0,0-0.072,0.036-0.181,0.072L21.207,42.705z M15.663,63.37c-1.368,0-2.269,0.72-2.269,1.836
		c0,1.332,1.584,2.196,4.104,2.196c0.972,0,1.44-0.072,2.556-0.324C19.335,64.773,17.679,63.37,15.663,63.37z"/>
	<path d="M35.175,105.742c-6.336-4.716-10.368-6.192-16.92-6.192c-6.588,0-10.62,1.476-16.956,6.192l-0.54-0.54
		c4.248-5.256,10.656-8.316,17.424-8.316c6.805,0,13.213,3.06,17.532,8.316L35.175,105.742z"/>
	<path d="M29.559,124.821v-7.632H8.282v-4.896h26.316v12.528H29.559z M33.771,123.994v-10.872H9.11v3.24h21.276v7.632H33.771z"/>
	<path d="M16.311,136.017c-0.324,0.216-0.756,0.324-1.62,0.36c-1.188,2.52-3.023,5.22-5.22,7.668v0.108
		c4.932,0.972,6.48,3.132,6.48,4.536c0,0.756-0.469,1.296-1.116,1.296c-0.288,0-0.576-0.108-0.9-0.324
		c-0.684-1.692-2.664-3.78-4.464-4.968v15.192c0,0-0.252,0.9-2.304,0.9v-14.4c-1.836,1.728-3.816,3.24-5.868,4.356l-0.396-0.432
		c4.5-3.096,9.181-9.36,11.269-14.544H1.515l-0.252-0.864h5.868v-7.344l4.067,0.36c-0.071,0.576-0.468,0.828-1.728,0.972v6.012
		h2.592l1.584-1.512L16.311,136.017z M31.719,155.817l3.168,2.304c-0.288,0.54-0.72,0.792-1.728,0.792H13.431l-0.216-0.864h9.72
		v-16.92h-7.2l-0.216-0.864h7.416v-12.744l4.104,0.36c-0.072,0.576-0.504,0.864-1.656,1.008v11.376h3.744l1.656-2.196l3.096,2.268
		c-0.288,0.54-0.684,0.792-1.656,0.792h-6.84v16.92h4.645L31.719,155.817z"/>
	<path d="M1.119,178.101c6.191-3.636,12.636-9.828,15.12-14.76l4.031,1.08c-0.107,0.432-0.504,0.576-1.476,0.72
		c3.6,4.104,9.252,7.92,15.768,10.188l-0.071,0.576c-1.08,0.288-1.765,1.152-2.053,2.088c-6.048-3.06-11.304-7.488-14.256-12.492
		c-3.384,4.572-9.864,10.08-16.848,13.176L1.119,178.101z M28.371,182.673l1.836-2.304l3.384,2.412
		c-0.288,0.504-0.684,0.756-1.728,0.756H14.654l1.692,0.576c-0.18,0.396-0.576,0.54-1.404,0.468
		c-1.332,2.52-3.491,5.868-5.651,8.532c4.644-0.144,10.728-0.432,17.172-0.72c-1.584-1.872-3.6-3.6-5.364-4.788l0.288-0.396
		c7.632,2.52,9.937,6.12,9.937,8.136c0,0.9-0.504,1.512-1.188,1.512c-0.324,0-0.684-0.144-1.044-0.396
		c-0.396-1.044-1.116-2.16-1.98-3.276c-4.752,0.684-11.483,1.476-20.844,2.448c-0.216,0.432-0.54,0.648-0.9,0.756l-1.907-3.132
		c1.224,0,2.88-0.036,4.788-0.108c1.476-2.88,3.06-6.624,4.067-9.612H2.45l-0.252-0.864H28.371z M23.438,173.997l3.313,2.304
		c-0.288,0.54-0.72,0.756-1.692,0.756H8.354l-0.252-0.864h13.572L23.438,173.997z"/>
	<path d="M6.734,213.957c0.433,1.692,0.612,3.24,0.612,4.608c0,5.292-2.772,8.604-4.896,8.604c-0.792,0-1.079-0.648-1.079-1.044
		c0-0.468,0.287-1.008,0.756-1.44c2.195-1.656,4.176-5.832,3.96-10.692L6.734,213.957z M10.623,200.637
		c9.647,0.432,12.672,3.744,12.672,5.508c0,0.684-0.432,1.116-1.08,1.116c-0.18,0-0.396-0.036-0.612-0.108
		c-1.548-2.016-5.472-4.644-11.052-5.94L10.623,200.637z M11.271,209.817l3.744,0.36c-0.072,0.468-0.288,0.684-1.404,0.864v17.28
		c0,1.224,0.145,1.332,1.62,1.332h7.813c0.647,0,1.044-0.036,1.332-0.576c0.324-0.54,0.828-2.844,1.368-5.364h0.359l-0.036,5.652
		c1.08,0.36,1.297,0.504,1.297,0.864c0,1.044-1.044,1.512-4.32,1.512H15.23c-3.204,0-3.96-0.576-3.96-3.456V209.817z
		 M26.931,212.337c5.977,3.708,7.776,8.352,7.776,11.376c0,1.908-0.72,3.168-1.584,3.168c-0.324,0-0.685-0.18-1.044-0.612
		c-0.036-3.6-1.332-9.648-5.508-13.536L26.931,212.337z"/>
	<path d="M8.211,259.461c1.728-0.468,3.6-1.044,5.472-1.584l0.145,0.54c-2.412,1.188-5.868,2.916-10.477,4.968
		c-0.144,0.468-0.432,0.756-0.756,0.9l-1.512-2.916c1.044-0.216,2.735-0.684,4.823-1.26v-9.72H1.803l-0.252-0.864h4.355v-9.252
		H1.515l-0.216-0.864h8.1l1.584-2.16l3.061,2.268c-0.288,0.54-0.72,0.756-1.656,0.756H8.211v9.252h1.188l1.44-2.016l2.664,2.124
		c-0.288,0.54-0.685,0.756-1.656,0.756H8.211V259.461z M32.043,264.321l3.204,2.376c-0.288,0.54-0.685,0.756-1.692,0.756H11.163
		l-0.252-0.864h11.735v-6.696h-8.027l-0.252-0.864h8.279v-6.264h-5.256v1.62c0,0.036-0.288,0.864-2.304,0.864v-18.324l2.483,1.152
		h12.421l1.115-1.44l3.097,2.232c-0.252,0.288-0.828,0.576-1.548,0.72v14.472c0,0.108-0.721,0.864-2.305,0.864v-2.16h-5.399v6.264
		h4.104l1.62-2.124l3.096,2.232c-0.288,0.54-0.72,0.756-1.728,0.756h-7.092v6.696h5.399L32.043,264.321z M22.646,238.941h-5.256
		v6.012h5.256V238.941z M17.391,251.901h5.256v-6.084h-5.256V251.901z M30.351,238.941h-5.399v6.012h5.399V238.941z M24.951,251.901
		h5.399v-6.084h-5.399V251.901z"/>
</g>
<g>
	<path fill="#00A0E9" d="M139.838,146.959c-1.04,0.864-1.521,1.6-1.521,2.352c0,0.736,0.464,1.264,1.36,1.568
		c0.608,0.208,1.664,0.32,2.928,0.32c2,0,3.904-0.24,4.8-0.608l0.145,1.312c-0.208,0.016-0.272,0.032-0.544,0.08
		c-1.393,0.24-2.912,0.368-4.32,0.368c-1.536,0-2.896-0.192-3.68-0.496c-1.2-0.496-1.824-1.312-1.824-2.416
		c0-1.04,0.608-2.048,1.84-3.088L139.838,146.959z M138.157,141.12c1.168,0.272,2.433,0.384,4.257,0.384
		c1.871,0,3.168-0.112,4.048-0.336l0.08,1.056c-0.992,0.416-2.465,1.296-4.032,2.432L141.693,144
		c1.024-0.688,1.408-0.928,2.128-1.328c0.177-0.096,0.208-0.112,0.4-0.208c0.112-0.064,0.144-0.064,0.304-0.16
		c-0.96,0.16-1.504,0.208-2.416,0.208c-1.12,0-2.479-0.08-3.52-0.208c-0.288-0.032-0.32-0.048-0.528-0.048L138.157,141.12z"/>
	<path fill="#00A0E9" d="M139.838,162.959c-1.04,0.864-1.521,1.6-1.521,2.352c0,0.736,0.464,1.264,1.36,1.568
		c0.608,0.208,1.664,0.32,2.928,0.32c2,0,3.904-0.24,4.8-0.608l0.145,1.312c-0.208,0.016-0.272,0.032-0.544,0.08
		c-1.393,0.24-2.912,0.368-4.32,0.368c-1.536,0-2.896-0.192-3.68-0.496c-1.2-0.496-1.824-1.312-1.824-2.416
		c0-1.04,0.608-2.048,1.84-3.088L139.838,162.959z M138.157,157.12c1.168,0.272,2.433,0.384,4.257,0.384
		c1.871,0,3.168-0.112,4.048-0.336l0.08,1.056c-0.992,0.416-2.465,1.296-4.032,2.432L141.693,160
		c1.024-0.688,1.408-0.928,2.128-1.328c0.177-0.096,0.208-0.112,0.4-0.208c0.112-0.064,0.144-0.064,0.304-0.16
		c-0.96,0.16-1.504,0.208-2.416,0.208c-1.12,0-2.479-0.08-3.52-0.208c-0.288-0.032-0.32-0.048-0.528-0.048L138.157,157.12z"/>
	<path fill="#00A0E9" d="M140.109,173.855c0.528-1.12,0.721-1.68,0.769-2.192l1.279,0.224c-0.144,0.208-0.144,0.208-0.416,0.864
		c-0.208,0.512-0.416,0.944-0.495,1.088c0.191-0.016,0.191-0.016,0.336-0.016c2.56-0.128,4.159-0.32,5.04-0.608l0.096,1.088
		c-0.256,0.016-0.353,0.032-0.641,0.08c-1.663,0.224-3.344,0.352-5.279,0.416c-0.48,0.944-0.88,1.584-1.44,2.272
		c-0.16,0.192-0.479,0.56-0.544,0.608c-0.111,0.08-0.191,0.144-0.208,0.16c0,0.016-0.016,0.016-0.016,0.016c0,0.016,0,0.016,0,0.016
		c0.016,0.032,0.016,0.032,0.032,0.048c0.575-0.448,0.575-0.448,0.735-0.56c0.736-0.512,1.584-0.784,2.416-0.784
		c1.185,0,1.904,0.592,2.112,1.776c1.168-0.464,2.08-0.8,2.784-1.056c0.783-0.272,0.832-0.288,1.088-0.464l0.512,1.12
		c-0.832,0.144-2.271,0.624-4.271,1.408c0.031,0.416,0.031,0.576,0.031,0.976c0,0.208,0,0.56-0.016,0.88
		c-0.016,0.352-0.016,0.576-0.016,0.72c0,0.224,0,0.352,0.031,0.576l-1.088,0.016c0.048-0.352,0.097-1.328,0.097-2.304
		c0-0.256,0-0.288-0.017-0.48c-2.176,1.024-3.008,1.776-3.008,2.736c0,1.056,0.992,1.52,3.248,1.52c1.584,0,3.36-0.256,4.271-0.624
		l0.145,1.232c-0.24,0.016-0.32,0.032-0.641,0.08c-1.264,0.208-2.655,0.32-3.888,0.32c-2.863,0-4.256-0.816-4.256-2.464
		c0-0.88,0.544-1.712,1.632-2.528c0.544-0.4,1.313-0.816,2.384-1.28c-0.128-0.88-0.512-1.264-1.264-1.264
		c-1.008,0-2.271,0.592-3.567,1.696c-0.624,0.528-0.977,0.896-1.232,1.328l-0.896-0.896c1.104-0.848,2.432-2.528,3.583-4.576
		c0.049-0.08,0.049-0.08,0.145-0.24c-0.064,0.016-0.224,0.032-0.304,0.032c-0.256,0-1.761-0.032-2.353-0.048
		c-0.08,0-0.208,0-0.256,0c-0.144,0-0.176,0-0.352,0.016l0.016-1.104c0.576,0.112,1.792,0.176,3.424,0.176H140.109z"/>
	<path fill="#00A0E9" d="M149.166,199.888c-0.561-0.08-1.152-0.112-2.129-0.112h-9.487c-0.96,0-1.552,0.032-2.128,0.112v-1.312
		c0.576,0.08,1.04,0.112,2.112,0.112h9.503c1.072,0,1.521-0.016,2.129-0.112V199.888z M136.861,189.2
		c0.561,0.08,1.185,0.112,2.064,0.112h6.576c1.071,0,1.535-0.016,2.096-0.096v1.28c-0.624-0.08-1.072-0.096-2.096-0.096h-6.576
		c-0.928,0-1.536,0.032-2.064,0.096V189.2z"/>
	<path fill="#00A0E9" d="M141.117,203.808c-0.144,0.192-0.208,0.32-0.447,0.816c-1.232,2.48-2.784,4.336-5.04,6
		c-0.208-0.32-0.416-0.56-0.784-0.864c1.936-1.296,3.312-2.768,4.384-4.688c0.4-0.704,0.608-1.2,0.688-1.68L141.117,203.808z
		 M139.565,210.032c-0.607,0-1.151,0.032-1.647,0.096v-1.136c0.464,0.064,1.008,0.096,1.664,0.096h5.264
		c0.736,0,1.216-0.016,1.68-0.08c-0.048,0.288-0.048,0.416-0.063,1.136c0,3.104-0.305,5.808-0.721,6.56
		c-0.271,0.48-0.655,0.64-1.584,0.64c-0.527,0-1.088-0.032-2.096-0.128c-0.048-0.432-0.096-0.672-0.256-1.136
		c0.88,0.176,1.68,0.272,2.256,0.272c0.512,0,0.688-0.096,0.8-0.4c0.336-0.976,0.528-3.152,0.528-5.92h-3.728
		c-0.145,1.76-0.513,2.96-1.248,4.208c-0.832,1.392-2.08,2.48-4.032,3.488c-0.208-0.368-0.368-0.576-0.704-0.896
		c2.048-0.992,3.264-2.048,4.032-3.504c0.527-1.008,0.752-1.888,0.863-3.296H139.565z M144.542,203.424
		c0.128,0.416,0.271,0.736,0.607,1.344c1.168,2.096,2.528,3.536,4.72,4.976c-0.304,0.288-0.512,0.56-0.752,0.976
		c-2.527-1.872-3.888-3.488-5.392-6.432c-0.08-0.144-0.176-0.32-0.256-0.448L144.542,203.424z"/>
	<path fill="#00A0E9" d="M135.102,222c0.368,0.064,0.672,0.08,1.28,0.08h2.896c0.656,0,0.929-0.016,1.28-0.08v1.04
		c-0.336-0.048-0.592-0.064-1.168-0.064h-3.008c-0.561,0-0.848,0.016-1.28,0.064V222z M135.646,219.776
		c0.384,0.064,0.656,0.08,1.216,0.08h2.257c0.544,0,0.831-0.016,1.216-0.08v1.008c-0.4-0.048-0.721-0.064-1.216-0.064h-2.257
		c-0.495,0-0.832,0.016-1.216,0.064V219.776z M135.773,224.288c0.336,0.048,0.608,0.064,1.152,0.064h2.288
		c0.544,0,0.8-0.016,1.136-0.064v0.976c-0.368-0.048-0.592-0.064-1.136-0.064h-2.288c-0.544,0-0.784,0.016-1.152,0.064V224.288z
		 M135.773,226.479c0.336,0.048,0.593,0.064,1.152,0.064h2.288c0.56,0,0.815-0.016,1.136-0.064v0.976
		c-0.432-0.048-0.624-0.064-1.136-0.064h-2.288c-0.528,0-0.784,0.016-1.152,0.064V226.479z M135.79,233.775
		c0.063-0.448,0.096-0.912,0.096-1.552v-2.16c0-0.56-0.016-0.928-0.08-1.344c0.416,0.048,0.816,0.064,1.28,0.064h2.096
		c0.688,0,0.864,0,1.152-0.048c-0.032,0.336-0.048,0.688-0.048,1.264v2.256c0,0.496,0.016,0.848,0.079,1.312h-0.976v-0.656h-2.576
		v0.864H135.79z M136.813,232.08h2.576v-2.464h-2.576V232.08z M144.59,220.608c0-0.512-0.032-0.88-0.097-1.296h1.152
		c-0.063,0.4-0.096,0.784-0.096,1.328v1.184h2.512c0.72,0,1.152-0.032,1.6-0.096v1.104c-0.447-0.064-0.96-0.096-1.584-0.096h-2.527
		v2.464h2.224c0.688,0,1.152-0.032,1.601-0.096v1.088c-0.448-0.064-0.929-0.096-1.584-0.096h-5.057
		c-0.655,0-1.088,0.032-1.584,0.096v-1.088c0.433,0.064,0.88,0.096,1.584,0.096h1.856v-2.464h-2.032
		c-0.704,0-1.168,0.032-1.616,0.096v-1.104c0.433,0.064,0.88,0.096,1.616,0.096h2.032V220.608z M142.83,233.695h-1.089
		c0.064-0.4,0.08-0.816,0.08-1.536v-2.992c0-0.656-0.016-1.04-0.063-1.456c0.399,0.048,0.735,0.064,1.216,0.064h4.32
		c0.592,0,0.912-0.016,1.279-0.064c-0.048,0.32-0.063,0.752-0.063,1.488v2.928c0,0.608,0.032,1.248,0.08,1.568h-1.088v-0.8h-4.672
		V233.695z M142.83,232h4.672v-3.328h-4.672V232z"/>
	<path fill="#00A0E9" d="M139.038,236.576c0.016,0.512,0.224,1.856,0.432,2.784c1.12-0.544,2.224-0.8,3.424-0.8
		c0.112,0,0.304,0,0.528,0.016c0.271-1.056,0.464-2.112,0.496-2.576l1.199,0.256c-0.096,0.256-0.096,0.256-0.432,1.68
		c-0.08,0.272-0.112,0.448-0.192,0.752c2.656,0.496,4.24,2.24,4.24,4.656c0,1.488-0.656,2.944-1.744,3.84
		c-0.815,0.688-1.968,1.248-3.231,1.584c-0.24,0.064-0.32,0.08-1.008,0.24c-0.128-0.416-0.208-0.544-0.624-1.072
		c0.912-0.08,1.536-0.24,2.384-0.592c1.12-0.464,1.92-1.04,2.399-1.744c0.465-0.672,0.704-1.44,0.704-2.272
		c0-1.952-1.168-3.232-3.376-3.696c-0.72,2.48-1.855,4.768-3.104,6.272c-1.024,1.248-1.92,1.824-2.848,1.824
		c-1.393,0-2.305-1.248-2.305-3.136c0-1.04,0.336-2.144,0.929-3.056c0.416-0.624,0.863-1.088,1.6-1.632
		c-0.112-0.512-0.304-1.456-0.448-2.256c-0.096-0.528-0.111-0.592-0.208-0.848L139.038,236.576z M137.662,242.304
		c-0.4,0.688-0.641,1.552-0.641,2.24c0,1.264,0.513,2.096,1.296,2.096c0.561,0,1.248-0.48,1.969-1.36
		c-0.641-1.344-1.152-2.832-1.505-4.304C138.254,241.439,137.95,241.792,137.662,242.304z M141.021,244.399
		c0.08-0.16,0.08-0.176,0.192-0.352c0.752-1.184,1.456-2.816,1.952-4.528c-0.177,0-0.32-0.016-0.4-0.016
		c-1.136,0-2.16,0.272-3.088,0.816c0.304,1.296,0.64,2.352,1.2,3.712c0.08,0.208,0.096,0.24,0.128,0.368H141.021z"/>
	<path fill="#00A0E9" d="M138.094,252.704c0.448,0.08,0.736,0.096,1.504,0.096c1.328,0,3.456-0.096,4.896-0.208
		c0.416-0.032,0.561-0.064,0.769-0.176l0.672,0.88c-0.224,0.112-0.304,0.176-0.816,0.672c-2.208,2.16-4.144,3.824-5.264,4.544
		l0.032,0.048c1.216-0.656,2.512-0.992,3.92-0.992c2.672,0,4.384,1.312,4.384,3.36c0,2.496-2.32,4.144-5.872,4.144
		c-2.256,0-3.552-0.832-3.552-2.304c0-1.072,0.992-1.872,2.32-1.872c1.071,0,2,0.464,2.64,1.312
		c0.336,0.448,0.512,0.832,0.736,1.536c1.68-0.464,2.56-1.44,2.56-2.8c0-1.536-1.28-2.448-3.439-2.448
		c-2.353,0-4.88,1.024-6.736,2.736l-0.72-1.024c0.576-0.336,1.151-0.752,2.239-1.632c1.713-1.36,4.24-3.584,5.345-4.672
		c0.096-0.096,0.096-0.096,0.224-0.224c0,0,0.032-0.032,0.064-0.064l0.063-0.064l-0.032-0.032c-0.048,0-0.048,0-0.144,0.016
		c-0.512,0.096-2.432,0.208-4.864,0.288c-0.352,0.016-0.512,0.032-0.864,0.08L138.094,252.704z M141.102,261.808
		c-0.8,0-1.296,0.384-1.296,0.992c0,0.416,0.208,0.72,0.64,0.976c0.416,0.224,1.104,0.368,1.792,0.368
		c0.4,0,0.593-0.016,1.168-0.112C143.054,262.576,142.254,261.808,141.102,261.808z"/>
</g>
<g>
	<line stroke="#898989" stroke-width="6" x1="149.012" y1="89.19" x2="123.84" y2="89.19"/>
	<polygon fill="#898989" stroke="#898989" stroke-width="2" points="132.266,78.081 127.549,89.19 132.266,100.302 105.934,89.19 	
		"/>
</g>
</svg>
