<?xml version="1.0" encoding="utf-8"?>
<!-- Generator: Adobe Illustrator 12.0.0, SVG Export Plug-In . SVG Version: 6.00 Build 51448)  -->
<!DOCTYPE svg PUBLIC "-//W3C//DTD SVG 1.1//EN" "http://www.w3.org/Graphics/SVG/1.1/DTD/svg11.dtd" [
	<!ENTITY ns_svg "http://www.w3.org/2000/svg">
	<!ENTITY ns_xlink "http://www.w3.org/1999/xlink">
]>
<svg  version="1.1" id="レイヤー_1" xmlns="&ns_svg;" xmlns:xlink="&ns_xlink;" width="795.392" height="292.226"
	 viewBox="0 0 795.392 292.226" overflow="visible" enable-background="new 0 0 795.392 292.226" xml:space="preserve">
<g>
	<polyline fill="none" stroke="#00A0E9" stroke-width="0.5" points="520.005,24.198 531.618,24.198 531.618,52.348 	"/>
	<polyline fill="none" stroke="#00A0E9" stroke-width="0.5" points="526.892,20.219 520.005,24.198 526.892,28.174 	"/>
</g>
<g>
	<line fill="none" stroke="#00A0E9" stroke-width="0.5" x1="762.081" y1="4.193" x2="777.679" y2="4.193"/>
	<polyline fill="none" stroke="#00A0E9" stroke-width="0.5" points="768.968,8.171 762.081,4.193 768.968,0.216 	"/>
</g>
<rect x="541.774" y="3.976" fill="none" stroke="#00A0E9" stroke-width="0.5" width="35.998" height="144"/>
<line fill="none" stroke="#00A0E9" stroke-width="0.5" stroke-dasharray="4 4" x1="0" y1="3.976" x2="760.431" y2="3.976"/>
<line fill="none" stroke="#00A0E9" stroke-width="0.5" x1="541.774" y1="39.976" x2="577.772" y2="39.976"/>
<line fill="none" stroke="#00A0E9" stroke-width="0.5" x1="541.774" y1="75.976" x2="577.772" y2="75.976"/>
<line fill="none" stroke="#00A0E9" stroke-width="0.5" x1="541.774" y1="111.976" x2="577.772" y2="111.976"/>
<rect x="300.44" y="3.976" fill="none" stroke="#00A0E9" stroke-width="0.5" width="35.998" height="144"/>
<line fill="none" stroke="#00A0E9" stroke-width="0.5" x1="300.44" y1="39.976" x2="336.438" y2="39.976"/>
<line fill="none" stroke="#00A0E9" stroke-width="0.5" x1="300.44" y1="75.976" x2="336.438" y2="75.976"/>
<line fill="none" stroke="#00A0E9" stroke-width="0.5" x1="300.44" y1="111.976" x2="336.438" y2="111.976"/>
<rect x="482.44" y="3.976" fill="none" stroke="#00A0E9" stroke-width="0.5" width="35.998" height="288"/>
<line fill="none" stroke="#00A0E9" stroke-width="0.5" x1="482.44" y1="39.976" x2="518.438" y2="39.976"/>
<line fill="none" stroke="#00A0E9" stroke-width="0.5" x1="482.44" y1="75.976" x2="518.438" y2="75.976"/>
<line fill="none" stroke="#00A0E9" stroke-width="0.5" x1="482.44" y1="111.976" x2="518.438" y2="111.976"/>
<line fill="none" stroke="#00A0E9" stroke-width="0.5" x1="482.44" y1="147.976" x2="518.438" y2="147.976"/>
<line fill="none" stroke="#00A0E9" stroke-width="0.5" x1="482.44" y1="219.976" x2="518.438" y2="219.976"/>
<line fill="none" stroke="#00A0E9" stroke-width="0.5" x1="482.44" y1="255.976" x2="518.438" y2="255.976"/>
<line fill="none" stroke="#00A0E9" stroke-width="0.5" x1="482.44" y1="183.976" x2="518.438" y2="183.976"/>
<rect x="425.106" y="3.976" fill="none" stroke="#00A0E9" stroke-width="0.5" width="35.998" height="288"/>
<line fill="none" stroke="#00A0E9" stroke-width="0.5" x1="425.106" y1="39.976" x2="461.104" y2="39.976"/>
<line fill="none" stroke="#00A0E9" stroke-width="0.5" x1="425.106" y1="75.976" x2="461.104" y2="75.976"/>
<line fill="none" stroke="#00A0E9" stroke-width="0.5" x1="425.106" y1="111.976" x2="461.104" y2="111.976"/>
<line fill="none" stroke="#00A0E9" stroke-width="0.5" x1="425.106" y1="147.976" x2="461.104" y2="147.976"/>
<line fill="none" stroke="#00A0E9" stroke-width="0.5" x1="425.106" y1="219.976" x2="461.104" y2="219.976"/>
<line fill="none" stroke="#00A0E9" stroke-width="0.5" x1="425.106" y1="255.976" x2="461.104" y2="255.976"/>
<line fill="none" stroke="#00A0E9" stroke-width="0.5" x1="425.106" y1="183.976" x2="461.104" y2="183.976"/>
<rect x="69.647" y="3.976" fill="none" stroke="#00A0E9" stroke-width="0.5" width="35.998" height="288"/>
<line fill="none" stroke="#00A0E9" stroke-width="0.5" x1="69.647" y1="39.976" x2="105.646" y2="39.976"/>
<line fill="none" stroke="#00A0E9" stroke-width="0.5" x1="69.647" y1="75.976" x2="105.646" y2="75.976"/>
<line fill="none" stroke="#00A0E9" stroke-width="0.5" x1="69.647" y1="111.976" x2="105.646" y2="111.976"/>
<line fill="none" stroke="#00A0E9" stroke-width="0.5" x1="69.647" y1="147.976" x2="105.646" y2="147.976"/>
<line fill="none" stroke="#00A0E9" stroke-width="0.5" x1="69.647" y1="219.976" x2="105.646" y2="219.976"/>
<line fill="none" stroke="#00A0E9" stroke-width="0.5" x1="69.647" y1="255.976" x2="105.646" y2="255.976"/>
<line fill="none" stroke="#00A0E9" stroke-width="0.5" x1="69.647" y1="183.976" x2="105.646" y2="183.976"/>
<rect x="9.972" y="3.976" fill="none" stroke="#00A0E9" stroke-width="0.5" width="35.998" height="288"/>
<line fill="none" stroke="#00A0E9" stroke-width="0.5" x1="9.972" y1="39.976" x2="45.97" y2="39.976"/>
<line fill="none" stroke="#00A0E9" stroke-width="0.5" x1="9.972" y1="75.976" x2="45.97" y2="75.976"/>
<line fill="none" stroke="#00A0E9" stroke-width="0.5" x1="9.972" y1="111.976" x2="45.97" y2="111.976"/>
<line fill="none" stroke="#00A0E9" stroke-width="0.5" x1="9.972" y1="147.976" x2="45.97" y2="147.976"/>
<line fill="none" stroke="#00A0E9" stroke-width="0.5" x1="9.972" y1="219.976" x2="45.97" y2="219.976"/>
<line fill="none" stroke="#00A0E9" stroke-width="0.5" x1="9.972" y1="255.976" x2="45.97" y2="255.976"/>
<line fill="none" stroke="#00A0E9" stroke-width="0.5" x1="9.972" y1="183.976" x2="45.97" y2="183.976"/>
<g>
	<path d="M719.919,10.684c0.181,1.152,1.188,1.908,2.484,1.908c0.612,0,1.944-0.144,2.844-0.36
		c2.845-0.576,11.521-2.124,16.416-2.664c1.08-0.144,2.053-0.504,2.448-0.864c2.988,0.576,4.141,1.224,4.141,2.34
		c0,0.576-0.648,0.72-1.584,0.72c-0.792,0-1.765-0.108-2.664-0.108c-3.853,0-8.713,3.744-10.62,6.876
		c-1.188,1.8-2.124,4.896-2.124,7.956c0,5.112,3.132,6.516,7.199,7.092c1.009,0.144,2.269,0,2.736,0.216
		c1.225,0.504,1.692,1.188,1.692,1.944c0,0.612-0.576,0.864-1.62,0.864c-0.324,0-0.685-0.036-1.08-0.072
		c-8.784-1.008-11.052-3.96-11.052-9.972c0-6.912,5.147-12.348,10.332-15.3l-0.036-0.108c-4.212,0.432-13.429,2.34-15.192,3.744
		c-0.504,0.324-0.936,0.648-1.656,0.648c-1.548,0-3.491-1.944-3.491-3.348c0-0.684,0.216-1.296,0.611-1.548L719.919,10.684z
		 M740.331,17.704c4.248,1.476,5.364,3.312,5.364,4.356c0,0.612-0.432,1.08-0.864,1.08c-0.611,0-0.899-0.36-1.151-0.972
		c-0.504-1.152-1.836-2.844-3.744-3.924L740.331,17.704z M744.039,14.607c4.248,1.476,5.328,3.348,5.328,4.392
		c0,0.612-0.396,1.044-0.828,1.044c-0.647,0-0.899-0.36-1.188-0.972c-0.468-1.152-1.836-2.808-3.744-3.888L744.039,14.607z"/>
	<path d="M740.043,45.424c1.656,0.144,3.853,0.468,3.853,1.44c0,1.044-2.736,1.548-5.58,2.16c-2.304,0.468-5.508,0.936-7.992,1.224
		c-0.144,1.512-0.288,3.42-0.324,5.544c3.24-1.044,5.4-1.044,7.236-1.044c0.036-0.648-0.18-1.152-0.432-1.548l0.468-0.36
		c0.9,0.648,1.296,1.332,1.44,2.016c5.976,0.612,9.72,3.888,9.72,8.856c0,5.256-4.645,9-15.336,9.972l-0.252-0.828
		c8.928-1.224,12.888-4.608,12.924-9.324c0-3.996-2.521-6.768-7.056-7.524v0.216c0,1.188-2.124,6.012-6.517,10.116
		c0.612,0.936,1.116,1.476,1.116,2.196c0,0.468-0.18,1.332-0.937,1.332c-0.396,0-1.26-0.54-2.052-1.908
		c-2.268,1.728-4.824,2.916-7.416,2.916c-1.8,0-3.815-1.008-3.815-3.744c0-3.996,3.132-8.28,9.071-10.728
		c0-2.088,0.108-4.176,0.145-6.012c-1.008,0.036-2.053,0.072-2.916,0.072c-2.916,0-4.177-1.044-5.004-2.556l0.54-0.504
		c0.972,1.008,2.447,1.404,4.392,1.404c0.864,0,2.088-0.072,3.024-0.108c0.035-0.936,0.107-2.412,0.107-3.348
		c0-1.152-0.252-1.98-1.943-1.98c-0.181,0-0.433,0-0.685,0.036l-0.072-0.144c0.396-0.756,1.116-1.26,2.196-1.26
		c1.944,0,3.853,0.756,3.853,1.908c0,0.54-0.648,0.936-0.828,1.836c-0.145,0.684-0.288,1.62-0.433,2.7
		c2.16-0.252,8.929-1.116,9.324-2.844L740.043,45.424z M723.556,68.824c1.764,0,3.815-1.008,5.76-2.52
		c-1.188-2.952-1.188-6.372-1.188-8.496c-4.535,2.34-6.876,5.292-6.876,8.856C721.251,68.14,721.827,68.824,723.556,68.824z
		 M729.964,57.016c0,1.836,0,5.004,1.151,7.776c2.916-2.556,5.328-6.372,5.94-8.964C735.508,55.828,732.915,55.828,729.964,57.016z"
		/>
	<path d="M727.84,94.42c2.808-1.584,6.191-2.7,8.855-2.7c7.092,0,9.36,3.924,9.36,8.208c0,4.932-4.284,8.82-11.772,8.82
		c-4.355,0-7.271-2.088-7.271-4.572c0-2.268,2.016-4.212,5.292-4.212c3.384,0,6.731,2.7,6.731,5.472c0,0.288-0.071,0.54-0.18,0.684
		c2.7-0.9,4.644-3.6,4.644-6.264c0-4.068-1.943-6.984-7.056-6.984c-2.448,0-9.252,1.548-12.996,7.272
		c-0.468,0.72-0.972,1.62-1.764,1.62c-0.685,0-1.225-0.9-1.225-1.512c0-1.152,1.225-2.16,1.836-2.772
		c2.988-2.952,10.477-10.476,14.725-14.724c0.288-0.252,0.396-0.432,0.396-0.54c0-0.144-0.144-0.18-0.359-0.18
		c-0.648,0-6.588,1.152-8.496,1.98c-0.864,0.396-0.937,0.792-1.656,0.792c-1.62,0-3.168-1.764-3.168-3.276
		c0-0.504,0.18-1.188,0.936-1.656l0.181,0.108C724.743,81.136,725.535,82,726.76,82c2.231,0,8.388-0.936,9.828-1.404
		c0.611-0.216,1.079-1.008,1.476-1.008c1.44,0,3.276,1.692,3.276,2.484c0,0.9-1.08,0.756-2.376,1.764
		c-4.032,3.132-8.641,7.632-11.305,10.44L727.84,94.42z M734.392,106.876c0.864,0,1.836-0.072,2.7-0.252
		c-0.145-0.18-0.288-0.36-0.324-0.684c-0.216-2.484-2.448-4.716-4.968-4.716c-1.801,0-3.24,1.044-3.24,2.664
		C728.56,106.3,731.728,106.876,734.392,106.876z"/>
	<path d="M745.155,113.751c2.88,0,5.221,2.304,5.221,5.22c0,2.88-2.341,5.22-5.221,5.22c-2.916,0-5.22-2.34-5.22-5.22
		C739.936,115.983,742.312,113.751,745.155,113.751z M749.224,118.971c0-2.268-1.836-4.104-4.068-4.104
		c-2.268,0-4.104,1.836-4.104,4.104c0,2.232,1.836,4.068,4.104,4.068C747.46,123.04,749.224,121.131,749.224,118.971z"/>
	<path d="M665.411,62.668h27.036v11.88h-1.368V64.036h-25.668V62.668z"/>
	<path d="M688.596,78.436l3.132,2.34c-0.252,0.288-0.864,0.576-1.584,0.72v27.792c0,0.108-0.684,0.936-2.34,0.936v-2.412H663.72
		v1.764c0,0.072-0.145,0.972-2.305,0.972V78.76l2.557,1.224h23.472L688.596,78.436z M663.72,106.948h24.084V80.848H663.72V106.948z
		 M666.023,91.936c4.14,1.044,7.452,2.232,10.08,3.456c2.844-3.42,5.4-7.452,7.344-11.916l3.384,1.584
		c-0.18,0.288-0.432,0.504-0.936,0.504c-0.144,0-0.36-0.036-0.576-0.072c-2.088,4.176-4.572,7.74-7.38,10.764
		c5.256,2.772,6.984,5.508,6.984,6.984c0,0.648-0.36,1.044-0.937,1.044c-0.216,0-0.504-0.072-0.792-0.216
		c-1.224-1.836-3.528-4.068-6.768-6.264c-3.42,3.312-7.2,5.832-11.16,7.596l-0.433-0.54c3.42-1.836,6.876-4.572,10.009-8.064
		c-2.557-1.548-5.58-3.024-9.072-4.248L666.023,91.936z M666.131,83.908c3.78,1.728,4.969,3.888,4.969,5.328
		c0,1.044-0.576,1.728-1.26,1.728c-0.324,0-0.685-0.144-1.009-0.468c-0.18-2.052-1.655-4.716-3.06-6.3L666.131,83.908z
		 M672.827,82.504c3.492,1.872,4.608,4.068,4.608,5.616c0,1.152-0.612,1.944-1.368,1.944c-0.324,0-0.684-0.18-1.008-0.54
		c0-2.16-1.296-5.076-2.628-6.732L672.827,82.504z"/>
	<path d="M686.688,125.631c-0.036,0.252-1.188,0.792-1.944,0.792h-0.359v-1.26h-7.524v2.988h8.64l1.513-1.944l2.988,2.052
		c-0.288,0.504-0.721,0.756-1.692,0.756h-11.448v3.06h10.62l1.584-1.98l3.06,2.088c-0.252,0.54-0.647,0.756-1.691,0.756h-30.78
		l-0.252-0.864h15.156v-3.06h-12.349l-0.252-0.864h12.601v-2.988H663.72l-0.252-0.864h11.088v-3.132h-15.192l-0.252-0.864h15.444
		v-3.024h-10.62l-0.252-0.864h10.872v-3.204l3.996,0.324c-0.036,0.612-0.469,0.828-1.692,1.008v1.872h7.164l1.08-1.44l3.096,2.196
		c-0.252,0.288-0.828,0.576-1.512,0.72v2.412h1.404l1.512-1.944l2.916,2.052c-0.324,0.504-0.684,0.756-1.728,0.756h-4.104V125.631z
		 M684.203,135.675l1.08-1.44l3.168,2.232c-0.252,0.288-0.828,0.612-1.548,0.756v8.388c0,0.036-0.756,0.72-2.34,0.72v-1.764h-17.604
		v1.188c0,0.072-0.359,0.828-2.304,0.828V134.56l2.556,1.116H684.203z M684.563,136.54h-17.604v3.06h17.604V136.54z
		 M666.959,143.704h17.604v-3.24h-17.604V143.704z M676.859,117.279v3.024h7.524v-3.024H676.859z M676.859,124.299h7.524v-3.132
		h-7.524V124.299z"/>
	<path d="M671.999,171.027c-0.071,0.108-1.008,0.504-1.8,0.504h-0.432v-1.656h-6.156v7.488c1.62-0.36,3.456-0.756,5.328-1.224
		c-0.756-1.26-1.692-2.484-2.592-3.348l0.359-0.288c4.5,2.016,5.904,4.464,5.904,6.048c0,0.972-0.54,1.584-1.188,1.584
		c-0.324,0-0.685-0.144-1.009-0.468c-0.144-0.864-0.54-1.872-1.08-2.844c-1.943,0.936-4.571,2.232-7.92,3.708
		c-0.144,0.468-0.432,0.756-0.792,0.9l-1.512-3.132l2.304-0.432v-18.216c-0.647,0.72-1.332,1.404-2.016,1.98l-0.504-0.324
		c2.556-2.988,4.932-8.28,5.904-11.988l3.852,0.396c-0.072,0.396-0.432,0.612-1.296,0.72c4.86,1.62,6.336,3.744,6.336,5.148
		c0,0.864-0.576,1.44-1.26,1.44c-0.288,0-0.612-0.108-0.9-0.36c-0.54-1.728-2.088-3.996-4.392-5.796
		c-1.116,2.484-2.88,5.436-4.969,7.92l1.62,0.792h1.765v-4.068l3.456,0.288c-0.072,0.396-0.36,0.612-1.261,0.756v3.024h2.16
		l0.864-1.296l2.556,2.124c-0.252,0.252-0.756,0.504-1.332,0.612V171.027z M669.768,160.443h-6.156v3.852h6.156V160.443z
		 M663.611,169.012h6.156v-3.852h-6.156V169.012z M690.107,152.847l2.736,2.664c-0.288,0.252-0.685,0.324-1.368,0.36
		c-0.756,0.864-2.124,2.304-2.952,3.06l-0.504-0.252c0.216-0.792,0.576-2.304,0.828-3.42h-12.132c0,1.764-0.792,3.852-2.628,3.852
		c-0.54,0-1.116-0.252-1.116-0.936c0-0.504,0.396-1.044,0.936-1.404c0.9-0.612,1.872-2.304,1.872-3.852l0.648,0.036
		c0.144,0.504,0.216,0.972,0.252,1.44h4.752v-5.184l3.78,0.324c-0.036,0.54-0.36,0.756-1.44,0.9v3.96h4.86L690.107,152.847z
		 M687.479,171.208l1.008-1.368l2.916,2.088c-0.18,0.252-0.756,0.54-1.368,0.648v8.46c0,0.108-0.684,0.828-2.231,0.828v-2.268
		h-9.612v2.088c0,0.036-0.216,0.864-2.232,0.864v-24.012l2.412,1.152h8.137l1.044-1.332l2.952,2.088
		c-0.217,0.252-0.757,0.54-1.44,0.648v7.02c0,0.072-0.648,0.72-2.232,0.72v-1.8h-8.64v4.176H687.479z M686.831,160.551h-8.64v5.616
		h8.64V160.551z M678.191,178.731h9.612v-6.66h-9.612V178.731z"/>
	<path d="M686.147,197.091h-27.036v-11.88h1.368v10.512h25.668V197.091z"/>
	<path d="M669.335,238.924c-1.836,3.996-3.636,8.352-3.672,9.611c0,0.505,0.396,1.297,0.396,2.269c0,0.936-0.433,1.332-0.864,1.332
		c-1.62,0-3.42-3.024-3.42-9.396c0-5.364,1.404-9.936,1.979-13.212c0.108-0.576,0.181-1.116,0.181-1.656
		c0-0.216-0.036-0.468-0.036-0.684c0-1.224-1.08-2.376-1.872-2.484l-0.036-0.252c0.324-0.36,0.864-0.432,1.332-0.432
		c2.196,0,3.708,2.231,3.708,3.528c0,1.008-0.504,1.548-0.72,2.052c-1.296,3.204-2.664,7.632-2.664,12.312
		c0,2.196,0.216,3.528,0.468,4.141l0.324-0.108c0.612-0.936,2.916-5.04,4.14-7.38L669.335,238.924z M676.428,238.06
		c-1.62,1.764-2.845,3.708-2.845,5.616c0,2.987,2.196,4.032,7.164,4.032c3.097,0,5.364-0.396,6.156-0.648
		c1.944,0.288,2.7,1.008,2.7,1.728c0,0.937-1.332,1.188-7.956,1.188c-6.516,0-9.72-1.656-9.72-5.94c0-2.447,1.8-4.68,3.779-6.552
		L676.428,238.06z M672.684,228.951c0.899,0.252,2.412,0.324,3.563,0.324c1.836,0,5.473-0.612,7.272-1.368
		c0.612-0.252,1.368-0.792,1.62-0.792c1.368,0,2.988,0.54,2.988,1.477c0,0.756-1.261,1.008-2.664,1.332
		c-2.664,0.54-6.265,0.972-7.992,0.972c-1.584,0-3.528-0.145-4.969-1.332L672.684,228.951z"/>
	<path d="M668.147,285.544c6.228-0.433,11.88-1.908,14.868-3.564c3.492-1.908,5.364-5.22,5.364-8.676
		c0-5.256-2.952-8.389-8.173-8.389c-4.319,0-9.611,2.017-13.319,4.248c-1.549,0.864-2.053,1.801-3.276,1.801
		c-1.404,0-3.996-1.62-3.996-3.673c0-0.684,0.108-1.332,0.792-1.872l0.216,0.036c0.216,1.152,0.9,2.305,2.521,2.305
		c2.808,0,9.828-4.212,17.28-4.212c6.407,0,10.8,3.42,10.8,9.899c0,4.32-2.269,7.992-6.588,10.152
		c-3.528,1.764-9.504,2.7-16.309,2.88L668.147,285.544z"/>
	<path d="M616.592,34.876c9.936-1.368,13.607-6.696,13.607-12.456c0-6.552-3.06-12.096-11.195-12.096
		c-0.685,0-2.16,0.144-3.061,0.36c0.864,0.612,1.368,2.052,1.368,3.6c0,6.624-4.716,17.712-10.08,17.712
		c-2.556,0-4.356-3.024-4.356-7.524c0-8.316,6.805-15.192,16.309-15.192c8.855,0,13.644,5.508,13.644,13.32
		c0,6.732-4.464,12.132-15.983,13.14L616.592,34.876z M614.972,10.9c-5.473,1.332-9.937,6.552-9.937,13.5
		c0,2.808,0.864,5.076,2.34,5.076c4.104,0,8.173-10.296,8.173-16.2C615.548,12.304,615.26,11.224,614.972,10.9z"/>
	<path d="M619.688,43.372c0-0.504,0.72-1.188,1.368-1.188c1.728,0,4.392,1.296,4.392,2.556c0,0.396-0.216,0.612-0.396,0.9
		c-0.145,0.216-0.252,0.576-0.252,1.368v4.212c3.708-0.18,3.96-0.396,4.859-1.188c2.484,0.54,3.889,1.224,3.889,2.376
		c0,0.54-0.576,0.684-1.296,0.684c-0.685,0-1.513-0.144-2.232-0.216c-0.612-0.108-1.908-0.144-3.276-0.144
		c-0.647,0-1.332,0-1.943,0.036c-0.036,1.224-0.036,2.664-0.036,3.96c0,6.948-2.844,13.14-12.204,16.848l-0.504-0.684
		c7.848-3.996,10.476-10.08,10.476-16.272v-3.78c-2.916,0.144-7.271,0.54-10.26,0.972l0.18,4.86
		c0.072,1.188,0.216,2.448,0.216,3.672c0,0.792-0.396,1.368-1.08,1.368c-0.936,0-1.548-1.692-1.836-3.276
		c0.433-0.684,0.54-1.584,0.54-3.096c0-0.828,0-1.98-0.036-3.204c-2.052,0.324-3.239,0.54-3.708,0.936
		c-0.323,0.252-0.611,0.432-1.188,0.432c-1.44,0-3.42-1.908-3.42-3.384c0-0.504,0.359-1.26,0.864-1.26
		c0.611,1.512,1.584,1.944,3.312,1.944c0.937,0,3.564-0.216,4.104-0.288l-0.181-4.32c-0.144-2.124-0.18-2.844-2.412-2.844
		l-0.071-0.18c0.216-0.54,0.899-0.936,1.62-0.936c1.26,0,3.527,0.864,3.527,2.232c0,0.432-0.18,0.828-0.288,1.188
		c-0.107,0.288-0.18,1.08-0.216,1.728c0,0.864,0,1.872,0.036,2.952c3.6-0.324,7.992-0.792,10.296-0.936
		c0-4.968-0.072-7.056-0.936-7.56c-0.504-0.288-1.261-0.432-1.872-0.432L619.688,43.372z"/>
	<path d="M618.751,105.292c0,2.16-0.18,3.672-1.188,3.672h-0.036c-1.08,0-1.296-2.376-1.548-3.924
		c0.324-0.828,0.432-7.164,0.432-11.232c0-3.024,0-7.308-0.071-9.936c-0.072-2.484-0.324-3.42-0.973-3.744
		c-0.576-0.324-1.26-0.468-1.872-0.396l-0.036-0.144c0.36-0.756,1.188-1.044,2.053-1.044c1.548,0,4.428,1.404,4.428,2.916
		c0,0.504-0.324,0.756-0.576,1.152c-0.288,0.468-0.432,1.26-0.504,3.06c-0.108,2.844-0.144,5.796-0.144,8.496L618.751,105.292z"/>
	<path d="M621.92,121.564c0.18-0.288,0.792-0.504,1.331-0.504c1.656,0,3.744,1.836,3.744,2.88c0,0.72-0.792,0.288-1.872,0.936
		c-4.355,2.484-9.792,4.752-14.832,6.012c-0.216,8.172,0.54,9.468,6.049,9.468c1.691,0,9.071-0.036,10.476-1.152
		c1.548,0.18,3.384,0.54,3.384,1.656c0,0.864-2.304,1.26-3.6,1.368c-2.809,0.216-6.517,0.288-9.072,0.288
		c-7.2,0-9.324-1.188-9.324-10.872c0-1.512,0-3.312,0.036-4.896c0.036-2.088,0.18-4.356,0.18-5.76c0-1.476,0-2.952-2.664-2.952
		L605.72,118c0.035-0.684,1.188-1.188,2.052-1.188c1.584,0,3.78,1.044,3.78,2.34c0,0.468-0.217,0.612-0.396,0.936
		c-0.18,0.252-0.288,0.684-0.36,1.44c-0.216,2.448-0.432,5.724-0.468,8.424c6.444-2.304,12.853-5.868,12.853-7.308
		c0-0.396-0.504-0.9-1.225-1.008L621.92,121.564z M622.64,114.4c2.592,0.972,5.004,2.988,5.004,4.752c0,0.9-0.576,1.296-1.044,1.296
		c-0.504,0-0.792-0.216-1.116-1.044c-0.396-1.188-1.512-3.132-3.384-4.356L622.64,114.4z M627.392,113.176
		c2.88,1.08,5.04,3.348,5.04,4.824c0,0.936-0.576,1.296-1.044,1.296c-0.504,0-0.792-0.18-1.116-1.044
		c-0.396-1.188-1.476-3.204-3.42-4.5L627.392,113.176z"/>
	<path d="M602.839,179.2c8.677-5.076,17.496-15.516,20.341-23.4c0.036-0.144,0.071-0.216,0.071-0.288
		c0-0.144-0.107-0.216-0.359-0.216c-0.468,0-7.092,0.684-10.296,1.332c-0.9,0.18-1.225,0.36-1.584,0.576
		c-0.324,0.216-0.504,0.468-1.08,0.468c-1.261,0-3.24-1.944-3.24-3.312c0-1.044,0.756-1.404,0.864-1.404
		c0.18,1.908,2.195,1.908,3.636,1.908c1.044,0,8.676-0.54,11.268-0.828c0.576-0.108,0.792-0.252,1.045-0.504
		c0.287-0.288,0.72-0.648,1.008-0.648c0.72,0,3.096,1.836,3.096,2.412c0,0.54-0.468,0.684-1.008,0.864
		c-0.504,0.216-0.828,0.648-1.008,1.008c-1.188,2.304-3.96,6.948-6.192,9.684c3.348,1.8,7.488,4.536,9.576,6.552
		c1.584,1.584,2.988,3.348,2.988,4.5c0,0.936-0.576,1.8-1.477,1.8c-0.828,0-1.512-1.224-2.771-3.204
		c-1.513-2.34-5.868-6.732-9.108-8.712c-3.276,3.96-9,9.216-15.264,12.168L602.839,179.2z"/>
	<path d="M616.592,214.876c9.936-1.368,13.607-6.696,13.607-12.456c0-6.552-3.06-12.096-11.195-12.096
		c-0.685,0-2.16,0.144-3.061,0.36c0.864,0.612,1.368,2.052,1.368,3.6c0,6.624-4.716,17.712-10.08,17.712
		c-2.556,0-4.356-3.024-4.356-7.524c0-8.316,6.805-15.192,16.309-15.192c8.855,0,13.644,5.508,13.644,13.32
		c0,6.732-4.464,12.131-15.983,13.14L616.592,214.876z M614.972,190.9c-5.473,1.332-9.937,6.552-9.937,13.5
		c0,2.808,0.864,5.076,2.34,5.076c4.104,0,8.173-10.296,8.173-16.2C615.548,192.304,615.26,191.224,614.972,190.9z"/>
	<path d="M608.924,221.355l3.852,0.36c-0.072,0.504-0.432,0.756-1.548,0.863v30.961c0,0.107-0.324,0.936-2.304,0.936v-11.808
		c-1.513,1.044-3.456,2.411-5.832,3.924c-0.108,0.432-0.36,0.792-0.721,0.936l-1.476-3.023c1.439-0.396,4.644-1.513,8.028-2.736
		V221.355z M602.191,226.396c3.852,1.8,5.076,4.068,5.076,5.616c0,1.08-0.612,1.836-1.332,1.836c-0.324,0-0.721-0.181-1.044-0.54
		c-0.036-2.16-1.513-5.004-3.024-6.624L602.191,226.396z M634.628,233.344c-0.288,0.54-0.685,0.756-1.692,0.756h-8.928
		c0.972,6.012,3.6,13.14,10.728,18.036l-0.107,0.396c-1.152,0.145-1.908,0.612-2.232,1.944c-6.372-5.22-8.353-13.968-9.108-20.376
		h-0.107c-0.756,8.748-2.952,15.264-10.513,20.448l-0.575-0.576c6.155-5.292,8.136-11.521,8.783-19.872h-8.243l-0.253-0.864h8.568
		c0.252-3.563,0.252-7.488,0.288-11.88l3.888,0.252c-0.035,0.468-0.287,0.756-1.548,0.899c-0.071,3.925-0.107,7.488-0.324,10.729
		h6.625l1.619-2.124L634.628,233.344z M626.888,223.048c4.752,0.467,6.3,2.483,6.3,3.888c0,0.828-0.504,1.439-1.188,1.439
		c-0.288,0-0.576-0.107-0.9-0.323c-0.576-1.765-2.556-3.672-4.393-4.608L626.888,223.048z"/>
	<path d="M601.291,267.003c4.429,0.469,5.832,2.269,5.832,3.564c0,0.792-0.504,1.404-1.224,1.404c-0.288,0-0.576-0.108-0.9-0.324
		c-0.576-1.548-2.304-3.348-3.888-4.248L601.291,267.003z M603.271,280.539c0.468,0,0.576,0,0.899-0.756
		c0.217-0.288,0.685-1.296,7.309-16.2l0.647,0.145c-1.619,4.644-4.823,13.32-5.363,15.084c-0.324,1.152-0.576,2.268-0.576,3.168
		c0.036,1.548,0.936,3.096,0.936,5.796c0,0.576,0,2.916-2.016,2.916c-0.648,0-1.044-0.647-1.152-1.8
		c0.181-1.368,0.288-2.628,0.288-3.708c0-3.313-0.72-3.672-2.592-3.853v-0.792c1.224,0,1.62-0.035,1.62-0.035V280.539z
		 M602.839,257.644c4.536,0.611,5.977,2.556,5.977,3.924c0,0.828-0.54,1.476-1.26,1.476c-0.288,0-0.612-0.107-0.937-0.359
		c-0.576-1.656-2.376-3.636-3.996-4.681L602.839,257.644z M621.451,274.924c-0.107,0.54-0.54,0.72-1.512,0.756
		c-0.9,6.012-3.528,11.916-10.872,14.939l-0.396-0.611c6.301-3.204,8.425-9.36,8.929-15.624L621.451,274.924z M633.655,282.483
		l-0.036,5.112c0.973,0.36,1.116,0.468,1.116,0.828c0,1.008-0.936,1.368-3.168,1.368h-4.392c-2.593,0-2.988-0.36-2.988-3.313
		v-13.644h-8.208v2.052c0,0.18-0.756,0.756-1.908,0.756h-0.36v-16.776l2.664,1.116h12.564l1.116-1.404l2.88,2.196
		c-0.216,0.288-0.612,0.504-1.368,0.612v13.284c0,0.144-0.864,0.684-1.944,0.684h-0.359v-2.52h-2.844v13.68
		c0,1.188,0,1.26,0.899,1.26h4.032c0.252,0,0.576,0,0.828-0.432c0.288-0.504,0.828-2.844,1.188-4.86H633.655z M615.979,271.972
		h13.284v-11.124h-13.284V271.972z"/>
	<path d="M545.919,10.684c0.181,1.152,1.188,1.908,2.484,1.908c0.612,0,1.944-0.144,2.844-0.36
		c2.845-0.576,11.521-2.124,16.416-2.664c1.08-0.144,2.053-0.504,2.448-0.864c2.988,0.576,4.141,1.224,4.141,2.34
		c0,0.576-0.648,0.72-1.584,0.72c-0.792,0-1.765-0.108-2.664-0.108c-3.853,0-8.713,3.744-10.62,6.876
		c-1.188,1.8-2.124,4.896-2.124,7.956c0,5.112,3.132,6.516,7.199,7.092c1.009,0.144,2.269,0,2.736,0.216
		c1.225,0.504,1.692,1.188,1.692,1.944c0,0.612-0.576,0.864-1.62,0.864c-0.324,0-0.685-0.036-1.08-0.072
		c-8.784-1.008-11.052-3.96-11.052-9.972c0-6.912,5.147-12.348,10.332-15.3l-0.036-0.108c-4.212,0.432-13.429,2.34-15.192,3.744
		c-0.504,0.324-0.936,0.648-1.656,0.648c-1.548,0-3.491-1.944-3.491-3.348c0-0.684,0.216-1.296,0.611-1.548L545.919,10.684z
		 M566.331,17.704c4.248,1.476,5.364,3.312,5.364,4.356c0,0.612-0.432,1.08-0.864,1.08c-0.611,0-0.899-0.36-1.151-0.972
		c-0.504-1.152-1.836-2.844-3.744-3.924L566.331,17.704z M570.039,14.607c4.248,1.476,5.328,3.348,5.328,4.392
		c0,0.612-0.396,1.044-0.828,1.044c-0.647,0-0.899-0.36-1.188-0.972c-0.468-1.152-1.836-2.808-3.744-3.888L570.039,14.607z"/>
	<path d="M566.043,45.424c1.656,0.144,3.853,0.468,3.853,1.44c0,1.044-2.736,1.548-5.58,2.16c-2.304,0.468-5.508,0.936-7.992,1.224
		c-0.144,1.512-0.288,3.42-0.324,5.544c3.24-1.044,5.4-1.044,7.236-1.044c0.036-0.648-0.18-1.152-0.432-1.548l0.468-0.36
		c0.9,0.648,1.296,1.332,1.44,2.016c5.976,0.612,9.72,3.888,9.72,8.856c0,5.256-4.645,9-15.336,9.972l-0.252-0.828
		c8.928-1.224,12.888-4.608,12.924-9.324c0-3.996-2.521-6.768-7.056-7.524v0.216c0,1.188-2.124,6.012-6.517,10.116
		c0.612,0.936,1.116,1.476,1.116,2.196c0,0.468-0.18,1.332-0.937,1.332c-0.396,0-1.26-0.54-2.052-1.908
		c-2.268,1.728-4.824,2.916-7.416,2.916c-1.8,0-3.815-1.008-3.815-3.744c0-3.996,3.132-8.28,9.071-10.728
		c0-2.088,0.108-4.176,0.145-6.012c-1.008,0.036-2.053,0.072-2.916,0.072c-2.916,0-4.177-1.044-5.004-2.556l0.54-0.504
		c0.972,1.008,2.447,1.404,4.392,1.404c0.864,0,2.088-0.072,3.024-0.108c0.035-0.936,0.107-2.412,0.107-3.348
		c0-1.152-0.252-1.98-1.943-1.98c-0.181,0-0.433,0-0.685,0.036l-0.072-0.144c0.396-0.756,1.116-1.26,2.196-1.26
		c1.944,0,3.853,0.756,3.853,1.908c0,0.54-0.648,0.936-0.828,1.836c-0.145,0.684-0.288,1.62-0.433,2.7
		c2.16-0.252,8.929-1.116,9.324-2.844L566.043,45.424z M549.556,68.824c1.764,0,3.815-1.008,5.76-2.52
		c-1.188-2.952-1.188-6.372-1.188-8.496c-4.535,2.34-6.876,5.292-6.876,8.856C547.251,68.14,547.827,68.824,549.556,68.824z
		 M555.964,57.016c0,1.836,0,5.004,1.151,7.776c2.916-2.556,5.328-6.372,5.94-8.964C561.508,55.828,558.915,55.828,555.964,57.016z"
		/>
	<path d="M553.84,94.42c2.808-1.584,6.191-2.7,8.855-2.7c7.092,0,9.36,3.924,9.36,8.208c0,4.932-4.284,8.82-11.772,8.82
		c-4.355,0-7.271-2.088-7.271-4.572c0-2.268,2.016-4.212,5.292-4.212c3.384,0,6.731,2.7,6.731,5.472c0,0.288-0.071,0.54-0.18,0.684
		c2.7-0.9,4.644-3.6,4.644-6.264c0-4.068-1.943-6.984-7.056-6.984c-2.448,0-9.252,1.548-12.996,7.272
		c-0.468,0.72-0.972,1.62-1.764,1.62c-0.685,0-1.225-0.9-1.225-1.512c0-1.152,1.225-2.16,1.836-2.772
		c2.988-2.952,10.477-10.476,14.725-14.724c0.288-0.252,0.396-0.432,0.396-0.54c0-0.144-0.144-0.18-0.359-0.18
		c-0.648,0-6.588,1.152-8.496,1.98c-0.864,0.396-0.937,0.792-1.656,0.792c-1.62,0-3.168-1.764-3.168-3.276
		c0-0.504,0.18-1.188,0.936-1.656l0.181,0.108C550.743,81.136,551.535,82,552.76,82c2.231,0,8.388-0.936,9.828-1.404
		c0.611-0.216,1.079-1.008,1.476-1.008c1.44,0,3.276,1.692,3.276,2.484c0,0.9-1.08,0.756-2.376,1.764
		c-4.032,3.132-8.641,7.632-11.305,10.44L553.84,94.42z M560.392,106.876c0.864,0,1.836-0.072,2.7-0.252
		c-0.145-0.18-0.288-0.36-0.324-0.684c-0.216-2.484-2.448-4.716-4.968-4.716c-1.801,0-3.24,1.044-3.24,2.664
		C554.56,106.3,557.728,106.876,560.392,106.876z"/>
	<path d="M571.155,113.751c2.88,0,5.221,2.304,5.221,5.22c0,2.88-2.341,5.22-5.221,5.22c-2.916,0-5.22-2.34-5.22-5.22
		C565.936,115.983,568.312,113.751,571.155,113.751z M575.224,118.971c0-2.268-1.836-4.104-4.068-4.104
		c-2.268,0-4.104,1.836-4.104,4.104c0,2.232,1.836,4.068,4.104,4.068C573.46,123.04,575.224,121.131,575.224,118.971z"/>
	<path d="M491.411,62.668h27.036v11.88h-1.368V64.036h-25.668V62.668z"/>
	<path d="M514.596,78.436l3.132,2.34c-0.252,0.288-0.864,0.576-1.584,0.72v27.792c0,0.108-0.684,0.936-2.34,0.936v-2.412H489.72
		v1.764c0,0.072-0.145,0.972-2.305,0.972V78.76l2.557,1.224h23.472L514.596,78.436z M489.72,106.948h24.084V80.848H489.72V106.948z
		 M492.023,91.936c4.14,1.044,7.452,2.232,10.08,3.456c2.844-3.42,5.4-7.452,7.344-11.916l3.384,1.584
		c-0.18,0.288-0.432,0.504-0.936,0.504c-0.144,0-0.36-0.036-0.576-0.072c-2.088,4.176-4.572,7.74-7.38,10.764
		c5.256,2.772,6.984,5.508,6.984,6.984c0,0.648-0.36,1.044-0.937,1.044c-0.216,0-0.504-0.072-0.792-0.216
		c-1.224-1.836-3.528-4.068-6.768-6.264c-3.42,3.312-7.2,5.832-11.16,7.596l-0.433-0.54c3.42-1.836,6.876-4.572,10.009-8.064
		c-2.557-1.548-5.58-3.024-9.072-4.248L492.023,91.936z M492.131,83.908c3.78,1.728,4.969,3.888,4.969,5.328
		c0,1.044-0.576,1.728-1.26,1.728c-0.324,0-0.685-0.144-1.009-0.468c-0.18-2.052-1.655-4.716-3.06-6.3L492.131,83.908z
		 M498.827,82.504c3.492,1.872,4.608,4.068,4.608,5.616c0,1.152-0.612,1.944-1.368,1.944c-0.324,0-0.684-0.18-1.008-0.54
		c0-2.16-1.296-5.076-2.628-6.732L498.827,82.504z"/>
	<path d="M512.688,125.631c-0.036,0.252-1.188,0.792-1.944,0.792h-0.359v-1.26h-7.524v2.988h8.64l1.513-1.944l2.988,2.052
		c-0.288,0.504-0.721,0.756-1.692,0.756h-11.448v3.06h10.62l1.584-1.98l3.06,2.088c-0.252,0.54-0.647,0.756-1.691,0.756h-30.78
		l-0.252-0.864h15.156v-3.06h-12.349l-0.252-0.864h12.601v-2.988H489.72l-0.252-0.864h11.088v-3.132h-15.192l-0.252-0.864h15.444
		v-3.024h-10.62l-0.252-0.864h10.872v-3.204l3.996,0.324c-0.036,0.612-0.469,0.828-1.692,1.008v1.872h7.164l1.08-1.44l3.096,2.196
		c-0.252,0.288-0.828,0.576-1.512,0.72v2.412h1.404l1.512-1.944l2.916,2.052c-0.324,0.504-0.684,0.756-1.728,0.756h-4.104V125.631z
		 M510.203,135.675l1.08-1.44l3.168,2.232c-0.252,0.288-0.828,0.612-1.548,0.756v8.388c0,0.036-0.756,0.72-2.34,0.72v-1.764h-17.604
		v1.188c0,0.072-0.359,0.828-2.304,0.828V134.56l2.556,1.116H510.203z M510.563,136.54h-17.604v3.06h17.604V136.54z
		 M492.959,143.704h17.604v-3.24h-17.604V143.704z M502.859,117.279v3.024h7.524v-3.024H502.859z M502.859,124.299h7.524v-3.132
		h-7.524V124.299z"/>
	<path d="M497.999,171.027c-0.071,0.108-1.008,0.504-1.8,0.504h-0.432v-1.656h-6.156v7.488c1.62-0.36,3.456-0.756,5.328-1.224
		c-0.756-1.26-1.692-2.484-2.592-3.348l0.359-0.288c4.5,2.016,5.904,4.464,5.904,6.048c0,0.972-0.54,1.584-1.188,1.584
		c-0.324,0-0.685-0.144-1.009-0.468c-0.144-0.864-0.54-1.872-1.08-2.844c-1.943,0.936-4.571,2.232-7.92,3.708
		c-0.144,0.468-0.432,0.756-0.792,0.9l-1.512-3.132l2.304-0.432v-18.216c-0.647,0.72-1.332,1.404-2.016,1.98l-0.504-0.324
		c2.556-2.988,4.932-8.28,5.904-11.988l3.852,0.396c-0.072,0.396-0.432,0.612-1.296,0.72c4.86,1.62,6.336,3.744,6.336,5.148
		c0,0.864-0.576,1.44-1.26,1.44c-0.288,0-0.612-0.108-0.9-0.36c-0.54-1.728-2.088-3.996-4.392-5.796
		c-1.116,2.484-2.88,5.436-4.969,7.92l1.62,0.792h1.765v-4.068l3.456,0.288c-0.072,0.396-0.36,0.612-1.261,0.756v3.024h2.16
		l0.864-1.296l2.556,2.124c-0.252,0.252-0.756,0.504-1.332,0.612V171.027z M495.768,160.443h-6.156v3.852h6.156V160.443z
		 M489.611,169.012h6.156v-3.852h-6.156V169.012z M516.107,152.847l2.736,2.664c-0.288,0.252-0.685,0.324-1.368,0.36
		c-0.756,0.864-2.124,2.304-2.952,3.06l-0.504-0.252c0.216-0.792,0.576-2.304,0.828-3.42h-12.132c0,1.764-0.792,3.852-2.628,3.852
		c-0.54,0-1.116-0.252-1.116-0.936c0-0.504,0.396-1.044,0.936-1.404c0.9-0.612,1.872-2.304,1.872-3.852l0.648,0.036
		c0.144,0.504,0.216,0.972,0.252,1.44h4.752v-5.184l3.78,0.324c-0.036,0.54-0.36,0.756-1.44,0.9v3.96h4.86L516.107,152.847z
		 M513.479,171.208l1.008-1.368l2.916,2.088c-0.18,0.252-0.756,0.54-1.368,0.648v8.46c0,0.108-0.684,0.828-2.231,0.828v-2.268
		h-9.612v2.088c0,0.036-0.216,0.864-2.232,0.864v-24.012l2.412,1.152h8.137l1.044-1.332l2.952,2.088
		c-0.217,0.252-0.757,0.54-1.44,0.648v7.02c0,0.072-0.648,0.72-2.232,0.72v-1.8h-8.64v4.176H513.479z M512.831,160.551h-8.64v5.616
		h8.64V160.551z M504.191,178.731h9.612v-6.66h-9.612V178.731z"/>
	<path d="M512.147,197.091h-27.036v-11.88h1.368v10.512h25.668V197.091z"/>
	<path d="M495.335,238.924c-1.836,3.996-3.636,8.352-3.672,9.611c0,0.505,0.396,1.297,0.396,2.269c0,0.936-0.433,1.332-0.864,1.332
		c-1.62,0-3.42-3.024-3.42-9.396c0-5.364,1.404-9.936,1.979-13.212c0.108-0.576,0.181-1.116,0.181-1.656
		c0-0.216-0.036-0.468-0.036-0.684c0-1.224-1.08-2.376-1.872-2.484l-0.036-0.252c0.324-0.36,0.864-0.432,1.332-0.432
		c2.196,0,3.708,2.231,3.708,3.528c0,1.008-0.504,1.548-0.72,2.052c-1.296,3.204-2.664,7.632-2.664,12.312
		c0,2.196,0.216,3.528,0.468,4.141l0.324-0.108c0.612-0.936,2.916-5.04,4.14-7.38L495.335,238.924z M502.428,238.06
		c-1.62,1.764-2.845,3.708-2.845,5.616c0,2.987,2.196,4.032,7.164,4.032c3.097,0,5.364-0.396,6.156-0.648
		c1.944,0.288,2.7,1.008,2.7,1.728c0,0.937-1.332,1.188-7.956,1.188c-6.516,0-9.72-1.656-9.72-5.94c0-2.447,1.8-4.68,3.779-6.552
		L502.428,238.06z M498.684,228.951c0.899,0.252,2.412,0.324,3.563,0.324c1.836,0,5.473-0.612,7.272-1.368
		c0.612-0.252,1.368-0.792,1.62-0.792c1.368,0,2.988,0.54,2.988,1.477c0,0.756-1.261,1.008-2.664,1.332
		c-2.664,0.54-6.265,0.972-7.992,0.972c-1.584,0-3.528-0.145-4.969-1.332L498.684,228.951z"/>
	<path d="M494.147,285.544c6.228-0.433,11.88-1.908,14.868-3.564c3.492-1.908,5.364-5.22,5.364-8.676
		c0-5.256-2.952-8.389-8.173-8.389c-4.319,0-9.611,2.017-13.319,4.248c-1.549,0.864-2.053,1.801-3.276,1.801
		c-1.404,0-3.996-1.62-3.996-3.673c0-0.684,0.108-1.332,0.792-1.872l0.216,0.036c0.216,1.152,0.9,2.305,2.521,2.305
		c2.808,0,9.828-4.212,17.28-4.212c6.407,0,10.8,3.42,10.8,9.899c0,4.32-2.269,7.992-6.588,10.152
		c-3.528,1.764-9.504,2.7-16.309,2.88L494.147,285.544z"/>
	<path d="M442.592,34.876c9.936-1.368,13.607-6.696,13.607-12.456c0-6.552-3.06-12.096-11.195-12.096
		c-0.685,0-2.16,0.144-3.061,0.36c0.864,0.612,1.368,2.052,1.368,3.6c0,6.624-4.716,17.712-10.08,17.712
		c-2.556,0-4.356-3.024-4.356-7.524c0-8.316,6.805-15.192,16.309-15.192c8.855,0,13.645,5.508,13.645,13.32
		c0,6.732-4.465,12.132-15.984,13.14L442.592,34.876z M440.971,10.9c-5.471,1.332-9.936,6.552-9.936,13.5
		c0,2.808,0.864,5.076,2.34,5.076c4.104,0,8.172-10.296,8.172-16.2C441.547,12.304,441.26,11.224,440.971,10.9z"/>
	<path d="M445.688,43.372c0-0.504,0.72-1.188,1.368-1.188c1.728,0,4.392,1.296,4.392,2.556c0,0.396-0.216,0.612-0.396,0.9
		c-0.144,0.216-0.252,0.576-0.252,1.368v4.212c3.709-0.18,3.961-0.396,4.861-1.188c2.483,0.54,3.887,1.224,3.887,2.376
		c0,0.54-0.575,0.684-1.295,0.684c-0.685,0-1.513-0.144-2.232-0.216c-0.611-0.108-1.908-0.144-3.275-0.144
		c-0.648,0-1.332,0-1.945,0.036c-0.035,1.224-0.035,2.664-0.035,3.96c0,6.948-2.844,13.14-12.204,16.848l-0.505-0.684
		c7.849-3.996,10.477-10.08,10.477-16.272v-3.78c-2.916,0.144-7.271,0.54-10.26,0.972l0.18,4.86
		c0.072,1.188,0.217,2.448,0.217,3.672c0,0.792-0.396,1.368-1.08,1.368c-0.937,0-1.549-1.692-1.836-3.276
		c0.432-0.684,0.539-1.584,0.539-3.096c0-0.828,0-1.98-0.035-3.204c-2.053,0.324-3.24,0.54-3.709,0.936
		c-0.324,0.252-0.611,0.432-1.188,0.432c-1.439,0-3.42-1.908-3.42-3.384c0-0.504,0.359-1.26,0.863-1.26
		c0.613,1.512,1.584,1.944,3.313,1.944c0.936,0,3.564-0.216,4.104-0.288l-0.18-4.32c-0.144-2.124-0.18-2.844-2.412-2.844
		l-0.072-0.18c0.217-0.54,0.9-0.936,1.621-0.936c1.26,0,3.527,0.864,3.527,2.232c0,0.432-0.18,0.828-0.287,1.188
		c-0.108,0.288-0.181,1.08-0.217,1.728c0,0.864,0,1.872,0.036,2.952c3.601-0.324,7.992-0.792,10.296-0.936
		c0-4.968-0.072-7.056-0.936-7.56c-0.504-0.288-1.26-0.432-1.872-0.432L445.688,43.372z"/>
	<path d="M444.752,105.292c0,2.16-0.181,3.672-1.188,3.672h-0.036c-1.08,0-1.296-2.376-1.548-3.924
		c0.323-0.828,0.433-7.164,0.433-11.232c0-3.024,0-7.308-0.072-9.936c-0.072-2.484-0.324-3.42-0.973-3.744
		c-0.576-0.324-1.26-0.468-1.871-0.396l-0.037-0.144c0.36-0.756,1.188-1.044,2.053-1.044c1.548,0,4.428,1.404,4.428,2.916
		c0,0.504-0.324,0.756-0.576,1.152c-0.288,0.468-0.432,1.26-0.504,3.06c-0.107,2.844-0.145,5.796-0.145,8.496L444.752,105.292z"/>
	<path d="M447.92,121.564c0.18-0.288,0.791-0.504,1.332-0.504c1.655,0,3.744,1.836,3.744,2.88c0,0.72-0.793,0.288-1.873,0.936
		c-4.355,2.484-9.791,4.752-14.832,6.012c-0.216,8.172,0.541,9.468,6.049,9.468c1.691,0,9.072-0.036,10.476-1.152
		c1.548,0.18,3.384,0.54,3.384,1.656c0,0.864-2.304,1.26-3.6,1.368c-2.809,0.216-6.516,0.288-9.072,0.288
		c-7.2,0-9.324-1.188-9.324-10.872c0-1.512,0-3.312,0.036-4.896c0.036-2.088,0.181-4.356,0.181-5.76c0-1.476,0-2.952-2.664-2.952
		L431.719,118c0.037-0.684,1.188-1.188,2.053-1.188c1.584,0,3.779,1.044,3.779,2.34c0,0.468-0.215,0.612-0.396,0.936
		c-0.18,0.252-0.288,0.684-0.36,1.44c-0.215,2.448-0.432,5.724-0.468,8.424c6.444-2.304,12.853-5.868,12.853-7.308
		c0-0.396-0.504-0.9-1.225-1.008L447.92,121.564z M448.64,114.4c2.592,0.972,5.004,2.988,5.004,4.752c0,0.9-0.576,1.296-1.044,1.296
		c-0.504,0-0.792-0.216-1.116-1.044c-0.396-1.188-1.512-3.132-3.384-4.356L448.64,114.4z M453.392,113.176
		c2.88,1.08,5.04,3.348,5.04,4.824c0,0.936-0.576,1.296-1.044,1.296c-0.505,0-0.792-0.18-1.116-1.044
		c-0.396-1.188-1.477-3.204-3.42-4.5L453.392,113.176z"/>
	<path d="M428.84,179.2c8.676-5.076,17.496-15.516,20.34-23.4c0.035-0.144,0.072-0.216,0.072-0.288c0-0.144-0.108-0.216-0.36-0.216
		c-0.468,0-7.093,0.684-10.296,1.332c-0.9,0.18-1.225,0.36-1.584,0.576c-0.324,0.216-0.504,0.468-1.08,0.468
		c-1.26,0-3.24-1.944-3.24-3.312c0-1.044,0.756-1.404,0.863-1.404c0.181,1.908,2.197,1.908,3.637,1.908
		c1.044,0,8.676-0.54,11.268-0.828c0.576-0.108,0.793-0.252,1.045-0.504c0.287-0.288,0.72-0.648,1.008-0.648
		c0.72,0,3.096,1.836,3.096,2.412c0,0.54-0.468,0.684-1.008,0.864c-0.504,0.216-0.828,0.648-1.008,1.008
		c-1.188,2.304-3.961,6.948-6.192,9.684c3.349,1.8,7.488,4.536,9.576,6.552c1.584,1.584,2.987,3.348,2.987,4.5
		c0,0.936-0.575,1.8-1.476,1.8c-0.827,0-1.512-1.224-2.772-3.204c-1.512-2.34-5.867-6.732-9.107-8.712
		c-3.275,3.96-9,9.216-15.264,12.168L428.84,179.2z"/>
	<path d="M442.592,214.876c9.936-1.368,13.607-6.696,13.607-12.456c0-6.552-3.06-12.096-11.195-12.096
		c-0.685,0-2.16,0.144-3.061,0.36c0.864,0.612,1.368,2.052,1.368,3.6c0,6.624-4.716,17.712-10.08,17.712
		c-2.556,0-4.356-3.024-4.356-7.524c0-8.316,6.805-15.192,16.309-15.192c8.855,0,13.645,5.508,13.645,13.32
		c0,6.732-4.465,12.131-15.984,13.14L442.592,214.876z M440.971,190.9c-5.471,1.332-9.936,6.552-9.936,13.5
		c0,2.808,0.864,5.076,2.34,5.076c4.104,0,8.172-10.296,8.172-16.2C441.547,192.304,441.26,191.224,440.971,190.9z"/>
	<path d="M434.924,221.355l3.852,0.36c-0.072,0.504-0.432,0.756-1.548,0.863v30.961c0,0.107-0.324,0.936-2.304,0.936v-11.808
		c-1.513,1.044-3.457,2.411-5.832,3.924c-0.108,0.432-0.36,0.792-0.721,0.936l-1.476-3.023c1.44-0.396,4.644-1.513,8.028-2.736
		V221.355z M428.191,226.396c3.852,1.8,5.076,4.068,5.076,5.616c0,1.08-0.612,1.836-1.332,1.836c-0.324,0-0.721-0.181-1.045-0.54
		c-0.035-2.16-1.512-5.004-3.023-6.624L428.191,226.396z M460.627,233.344c-0.287,0.54-0.684,0.756-1.691,0.756h-8.928
		c0.972,6.012,3.6,13.14,10.728,18.036l-0.108,0.396c-1.151,0.145-1.907,0.612-2.231,1.944c-6.372-5.22-8.353-13.968-9.108-20.376
		h-0.107c-0.756,8.748-2.952,15.264-10.512,20.448l-0.576-0.576c6.156-5.292,8.136-11.521,8.783-19.872h-8.244l-0.252-0.864h8.568
		c0.252-3.563,0.252-7.488,0.288-11.88l3.888,0.252c-0.035,0.468-0.287,0.756-1.547,0.899c-0.072,3.925-0.109,7.488-0.324,10.729
		h6.623l1.621-2.124L460.627,233.344z M452.888,223.048c4.752,0.467,6.3,2.483,6.3,3.888c0,0.828-0.504,1.439-1.188,1.439
		c-0.289,0-0.576-0.107-0.9-0.323c-0.576-1.765-2.557-3.672-4.393-4.608L452.888,223.048z"/>
	<path d="M427.291,267.003c4.428,0.469,5.832,2.269,5.832,3.564c0,0.792-0.504,1.404-1.224,1.404c-0.288,0-0.576-0.108-0.899-0.324
		c-0.576-1.548-2.305-3.348-3.889-4.248L427.291,267.003z M429.271,280.539c0.468,0,0.576,0,0.9-0.756
		c0.215-0.288,0.684-1.296,7.308-16.2l0.647,0.145c-1.619,4.644-4.824,13.32-5.363,15.084c-0.324,1.152-0.576,2.268-0.576,3.168
		c0.035,1.548,0.936,3.096,0.936,5.796c0,0.576,0,2.916-2.016,2.916c-0.648,0-1.044-0.647-1.152-1.8
		c0.18-1.368,0.288-2.628,0.288-3.708c0-3.313-0.72-3.672-2.592-3.853v-0.792c1.224,0,1.62-0.035,1.62-0.035V280.539z
		 M428.84,257.644c4.535,0.611,5.976,2.556,5.976,3.924c0,0.828-0.54,1.476-1.261,1.476c-0.287,0-0.611-0.107-0.936-0.359
		c-0.576-1.656-2.376-3.636-3.996-4.681L428.84,257.644z M447.451,274.924c-0.107,0.54-0.539,0.72-1.512,0.756
		c-0.9,6.012-3.527,11.916-10.872,14.939l-0.396-0.611c6.299-3.204,8.424-9.36,8.928-15.624L447.451,274.924z M459.656,282.483
		l-0.037,5.112c0.973,0.36,1.116,0.468,1.116,0.828c0,1.008-0.937,1.368-3.168,1.368h-4.392c-2.592,0-2.988-0.36-2.988-3.313
		v-13.644h-8.208v2.052c0,0.18-0.756,0.756-1.908,0.756h-0.36v-16.776l2.664,1.116h12.564l1.116-1.404l2.88,2.196
		c-0.216,0.288-0.611,0.504-1.368,0.612v13.284c0,0.144-0.864,0.684-1.944,0.684h-0.359v-2.52h-2.844v13.68
		c0,1.188,0,1.26,0.899,1.26h4.032c0.252,0,0.576,0,0.828-0.432c0.287-0.504,0.828-2.844,1.188-4.86H459.656z M441.979,271.972
		h13.284v-11.124h-13.284V271.972z"/>
</g>
<g>
	<path d="M305.125,10.684c0.18,1.152,1.188,1.908,2.484,1.908c0.612,0,1.944-0.144,2.844-0.36c2.844-0.576,11.52-2.124,16.416-2.664
		c1.08-0.144,2.052-0.504,2.448-0.864c2.988,0.576,4.14,1.224,4.14,2.34c0,0.576-0.648,0.72-1.584,0.72
		c-0.792,0-1.764-0.108-2.664-0.108c-3.852,0-8.712,3.744-10.62,6.876c-1.188,1.8-2.124,4.896-2.124,7.956
		c0,5.112,3.132,6.516,7.2,7.092c1.008,0.144,2.268,0,2.736,0.216c1.224,0.504,1.692,1.188,1.692,1.944
		c0,0.612-0.576,0.864-1.62,0.864c-0.324,0-0.684-0.036-1.08-0.072c-8.784-1.008-11.052-3.96-11.052-9.972
		c0-6.912,5.148-12.348,10.332-15.3l-0.036-0.108c-4.212,0.432-13.428,2.34-15.192,3.744c-0.504,0.324-0.936,0.648-1.656,0.648
		c-1.548,0-3.492-1.944-3.492-3.348c0-0.684,0.216-1.296,0.612-1.548L305.125,10.684z M325.537,17.704
		c4.248,1.476,5.364,3.312,5.364,4.356c0,0.612-0.432,1.08-0.864,1.08c-0.612,0-0.9-0.36-1.152-0.972
		c-0.504-1.152-1.836-2.844-3.744-3.924L325.537,17.704z M329.245,14.607c4.248,1.476,5.328,3.348,5.328,4.392
		c0,0.612-0.396,1.044-0.828,1.044c-0.648,0-0.9-0.36-1.188-0.972c-0.468-1.152-1.836-2.808-3.744-3.888L329.245,14.607z"/>
	<path d="M325.249,45.424c1.656,0.144,3.852,0.468,3.852,1.44c0,1.044-2.736,1.548-5.58,2.16c-2.304,0.468-5.508,0.936-7.992,1.224
		c-0.144,1.512-0.288,3.42-0.324,5.544c3.24-1.044,5.4-1.044,7.236-1.044c0.036-0.648-0.18-1.152-0.432-1.548l0.468-0.36
		c0.9,0.648,1.296,1.332,1.44,2.016c5.976,0.612,9.72,3.888,9.72,8.856c0,5.256-4.644,9-15.336,9.972l-0.252-0.828
		c8.928-1.224,12.888-4.608,12.924-9.324c0-3.996-2.52-6.768-7.056-7.524v0.216c0,1.188-2.124,6.012-6.516,10.116
		c0.612,0.936,1.116,1.476,1.116,2.196c0,0.468-0.18,1.332-0.936,1.332c-0.396,0-1.26-0.54-2.052-1.908
		c-2.268,1.728-4.824,2.916-7.416,2.916c-1.8,0-3.816-1.008-3.816-3.744c0-3.996,3.132-8.28,9.072-10.728
		c0-2.088,0.108-4.176,0.144-6.012c-1.008,0.036-2.052,0.072-2.916,0.072c-2.916,0-4.176-1.044-5.004-2.556l0.54-0.504
		c0.972,1.008,2.448,1.404,4.392,1.404c0.864,0,2.088-0.072,3.024-0.108c0.036-0.936,0.108-2.412,0.108-3.348
		c0-1.152-0.252-1.98-1.944-1.98c-0.18,0-0.432,0-0.684,0.036l-0.072-0.144c0.396-0.756,1.116-1.26,2.196-1.26
		c1.944,0,3.852,0.756,3.852,1.908c0,0.54-0.648,0.936-0.828,1.836c-0.144,0.684-0.288,1.62-0.432,2.7
		c2.16-0.252,8.928-1.116,9.324-2.844L325.249,45.424z M308.76,68.824c1.764,0,3.816-1.008,5.76-2.52
		c-1.188-2.952-1.188-6.372-1.188-8.496c-4.536,2.34-6.876,5.292-6.876,8.856C306.457,68.14,307.032,68.824,308.76,68.824z
		 M315.168,57.016c0,1.836,0,5.004,1.152,7.776c2.916-2.556,5.328-6.372,5.94-8.964C320.712,55.828,318.121,55.828,315.168,57.016z"
		/>
	<path d="M313.044,94.42c2.808-1.584,6.192-2.7,8.856-2.7c7.092,0,9.36,3.924,9.36,8.208c0,4.932-4.284,8.82-11.772,8.82
		c-4.356,0-7.272-2.088-7.272-4.572c0-2.268,2.016-4.212,5.292-4.212c3.384,0,6.732,2.7,6.732,5.472c0,0.288-0.072,0.54-0.18,0.684
		c2.7-0.9,4.644-3.6,4.644-6.264c0-4.068-1.944-6.984-7.056-6.984c-2.448,0-9.252,1.548-12.996,7.272
		c-0.468,0.72-0.972,1.62-1.764,1.62c-0.684,0-1.224-0.9-1.224-1.512c0-1.152,1.224-2.16,1.836-2.772
		c2.988-2.952,10.476-10.476,14.724-14.724c0.288-0.252,0.396-0.432,0.396-0.54c0-0.144-0.144-0.18-0.36-0.18
		c-0.648,0-6.588,1.152-8.496,1.98c-0.864,0.396-0.936,0.792-1.656,0.792c-1.62,0-3.168-1.764-3.168-3.276
		c0-0.504,0.18-1.188,0.936-1.656l0.18,0.108C309.948,81.136,310.74,82,311.964,82c2.232,0,8.388-0.936,9.828-1.404
		c0.612-0.216,1.08-1.008,1.476-1.008c1.44,0,3.276,1.692,3.276,2.484c0,0.9-1.08,0.756-2.376,1.764
		c-4.032,3.132-8.64,7.632-11.304,10.44L313.044,94.42z M319.597,106.876c0.864,0,1.836-0.072,2.7-0.252
		c-0.144-0.18-0.288-0.36-0.324-0.684c-0.216-2.484-2.448-4.716-4.968-4.716c-1.8,0-3.24,1.044-3.24,2.664
		C313.765,106.3,316.933,106.876,319.597,106.876z"/>
	<path d="M330.36,113.751c2.88,0,5.22,2.304,5.22,5.22c0,2.88-2.34,5.22-5.22,5.22c-2.916,0-5.22-2.34-5.22-5.22
		C325.141,115.983,327.517,113.751,330.36,113.751z M334.429,118.971c0-2.268-1.836-4.104-4.068-4.104
		c-2.268,0-4.104,1.836-4.104,4.104c0,2.232,1.836,4.068,4.104,4.068C332.665,123.04,334.429,121.131,334.429,118.971z"/>
	<path d="M250.616,26.668h27.037v11.88h-1.368V28.036h-25.668V26.668z"/>
	<path d="M273.801,42.436l3.132,2.34c-0.252,0.288-0.864,0.576-1.584,0.72v27.792c0,0.108-0.684,0.936-2.34,0.936v-2.412h-24.084
		v1.764c0,0.072-0.144,0.972-2.304,0.972V42.76l2.556,1.224h23.472L273.801,42.436z M248.924,70.948h24.084V44.848h-24.084V70.948z
		 M251.229,55.936c4.14,1.044,7.452,2.232,10.08,3.456c2.844-3.42,5.4-7.452,7.344-11.916l3.384,1.584
		c-0.18,0.288-0.432,0.504-0.936,0.504c-0.144,0-0.36-0.036-0.576-0.072c-2.088,4.176-4.572,7.74-7.38,10.764
		c5.256,2.772,6.984,5.508,6.984,6.984c0,0.648-0.36,1.044-0.936,1.044c-0.216,0-0.504-0.072-0.792-0.216
		c-1.224-1.836-3.528-4.068-6.768-6.264c-3.42,3.312-7.2,5.832-11.16,7.596l-0.432-0.54c3.42-1.836,6.876-4.572,10.008-8.064
		c-2.556-1.548-5.58-3.024-9.072-4.248L251.229,55.936z M251.336,47.908c3.78,1.728,4.968,3.888,4.968,5.328
		c0,1.044-0.576,1.728-1.26,1.728c-0.324,0-0.684-0.144-1.008-0.468c-0.18-2.052-1.656-4.716-3.06-6.3L251.336,47.908z
		 M258.032,46.504c3.492,1.872,4.608,4.068,4.608,5.616c0,1.152-0.612,1.944-1.368,1.944c-0.324,0-0.684-0.18-1.008-0.54
		c0-2.16-1.296-5.076-2.628-6.732L258.032,46.504z"/>
	<path d="M271.893,89.631c-0.036,0.252-1.188,0.792-1.944,0.792h-0.36v-1.26h-7.524v2.988h8.64l1.512-1.944l2.988,2.052
		c-0.288,0.504-0.72,0.756-1.692,0.756h-11.448v3.06h10.62l1.584-1.98l3.06,2.088c-0.252,0.54-0.648,0.756-1.692,0.756h-30.78
		l-0.252-0.864h15.156v-3.06h-12.348l-0.252-0.864h12.6v-2.988h-10.836l-0.252-0.864h11.088v-3.132h-15.192l-0.252-0.864h15.444
		v-3.024h-10.62l-0.252-0.864h10.872v-3.204l3.996,0.324c-0.036,0.612-0.468,0.828-1.692,1.008v1.872h7.164l1.08-1.44l3.096,2.196
		c-0.252,0.288-0.828,0.576-1.512,0.72v2.412h1.404l1.512-1.944l2.916,2.052c-0.324,0.504-0.684,0.756-1.728,0.756h-4.104V89.631z
		 M269.409,99.675l1.08-1.44l3.168,2.232c-0.252,0.288-0.828,0.612-1.548,0.756v8.388c0,0.036-0.756,0.72-2.34,0.72v-1.764h-17.604
		v1.188c0,0.072-0.36,0.828-2.304,0.828V98.56l2.556,1.116H269.409z M269.769,100.54h-17.604v3.06h17.604V100.54z M252.165,107.704
		h17.604v-3.24h-17.604V107.704z M262.064,81.279v3.024h7.524v-3.024H262.064z M262.064,88.299h7.524v-3.132h-7.524V88.299z"/>
	<path d="M257.205,135.027c-0.072,0.108-1.008,0.504-1.8,0.504h-0.432v-1.656h-6.156v7.488c1.62-0.36,3.456-0.756,5.328-1.224
		c-0.756-1.26-1.692-2.484-2.592-3.348l0.36-0.288c4.5,2.016,5.904,4.464,5.904,6.048c0,0.972-0.54,1.584-1.188,1.584
		c-0.324,0-0.684-0.144-1.008-0.468c-0.144-0.864-0.54-1.872-1.08-2.844c-1.944,0.936-4.572,2.232-7.92,3.708
		c-0.144,0.468-0.432,0.756-0.792,0.9l-1.512-3.132l2.304-0.432v-18.216c-0.648,0.72-1.332,1.404-2.016,1.98l-0.504-0.324
		c2.556-2.988,4.932-8.28,5.904-11.988l3.852,0.396c-0.072,0.396-0.432,0.612-1.296,0.72c4.86,1.62,6.336,3.744,6.336,5.148
		c0,0.864-0.576,1.44-1.26,1.44c-0.288,0-0.612-0.108-0.9-0.36c-0.54-1.728-2.088-3.996-4.392-5.796
		c-1.116,2.484-2.88,5.436-4.968,7.92l1.62,0.792h1.764v-4.068l3.456,0.288c-0.072,0.396-0.36,0.612-1.26,0.756v3.024h2.16
		l0.864-1.296l2.556,2.124c-0.252,0.252-0.756,0.504-1.332,0.612V135.027z M254.973,124.443h-6.156v3.852h6.156V124.443z
		 M248.816,133.012h6.156v-3.852h-6.156V133.012z M275.313,116.847l2.736,2.664c-0.288,0.252-0.684,0.324-1.368,0.36
		c-0.756,0.864-2.124,2.304-2.952,3.06l-0.504-0.252c0.216-0.792,0.576-2.304,0.828-3.42H261.92c0,1.764-0.792,3.852-2.628,3.852
		c-0.54,0-1.116-0.252-1.116-0.936c0-0.504,0.396-1.044,0.936-1.404c0.9-0.612,1.872-2.304,1.872-3.852l0.648,0.036
		c0.144,0.504,0.216,0.972,0.252,1.44h4.752v-5.184l3.78,0.324c-0.036,0.54-0.36,0.756-1.44,0.9v3.96h4.86L275.313,116.847z
		 M272.685,135.208l1.008-1.368l2.916,2.088c-0.18,0.252-0.756,0.54-1.368,0.648v8.46c0,0.108-0.684,0.828-2.232,0.828v-2.268
		h-9.612v2.088c0,0.036-0.216,0.864-2.232,0.864v-24.012l2.412,1.152h8.136l1.044-1.332l2.952,2.088
		c-0.216,0.252-0.756,0.54-1.44,0.648v7.02c0,0.072-0.648,0.72-2.232,0.72v-1.8h-8.64v4.176H272.685z M272.037,124.551h-8.64v5.616
		h8.64V124.551z M263.396,142.731h9.612v-6.66h-9.612V142.731z"/>
	<path d="M271.353,161.091h-27.036v-11.88h1.368v10.512h25.668V161.091z"/>
	<path d="M254.541,202.924c-1.836,3.996-3.636,8.353-3.672,9.612c0,0.504,0.396,1.296,0.396,2.268c0,0.937-0.432,1.332-0.864,1.332
		c-1.62,0-3.42-3.023-3.42-9.396c0-5.364,1.404-9.937,1.98-13.212c0.108-0.576,0.18-1.116,0.18-1.656
		c0-0.216-0.036-0.468-0.036-0.684c0-1.224-1.08-2.376-1.872-2.484l-0.036-0.252c0.324-0.36,0.864-0.432,1.332-0.432
		c2.196,0,3.708,2.232,3.708,3.528c0,1.008-0.504,1.548-0.72,2.052c-1.296,3.204-2.664,7.632-2.664,12.312
		c0,2.196,0.216,3.528,0.468,4.14l0.324-0.108c0.612-0.936,2.916-5.04,4.14-7.38L254.541,202.924z M261.632,202.06
		c-1.62,1.764-2.844,3.708-2.844,5.616c0,2.988,2.196,4.032,7.164,4.032c3.096,0,5.364-0.396,6.156-0.648
		c1.944,0.289,2.7,1.008,2.7,1.729c0,0.936-1.332,1.188-7.956,1.188c-6.516,0-9.72-1.656-9.72-5.939c0-2.448,1.8-4.68,3.78-6.552
		L261.632,202.06z M257.889,192.952c0.9,0.252,2.412,0.324,3.564,0.324c1.836,0,5.472-0.612,7.272-1.368
		c0.612-0.252,1.368-0.792,1.62-0.792c1.368,0,2.988,0.54,2.988,1.476c0,0.756-1.26,1.008-2.664,1.332
		c-2.664,0.54-6.264,0.972-7.992,0.972c-1.584,0-3.528-0.144-4.968-1.332L257.889,192.952z"/>
	<path d="M253.353,249.544c6.228-0.433,11.88-1.908,14.868-3.564c3.492-1.908,5.364-5.22,5.364-8.676
		c0-5.256-2.952-8.389-8.172-8.389c-4.32,0-9.612,2.017-13.32,4.248c-1.548,0.864-2.052,1.801-3.276,1.801
		c-1.404,0-3.996-1.62-3.996-3.673c0-0.684,0.108-1.332,0.792-1.872l0.216,0.036c0.216,1.152,0.9,2.305,2.52,2.305
		c2.808,0,9.828-4.212,17.28-4.212c6.408,0,10.8,3.42,10.8,9.899c0,4.32-2.268,7.992-6.588,10.152
		c-3.528,1.764-9.504,2.7-16.308,2.88L253.353,249.544z"/>
	<path d="M245.396,262.899c0.288-0.432,0.792-0.612,1.26-0.612c2.016,0,4.068,1.765,4.068,3.528c0,0.504-0.324,0.972-0.54,1.44
		c-1.08,3.06-1.08,7.128-1.08,8.279c0,4.752,2.592,7.668,3.492,7.668c0.504,0,0.792-0.396,1.728-1.655
		c0.9-1.225,3.06-4.752,4.824-7.813l0.756,0.288c-1.512,3.096-3.96,7.776-4.644,9.72c-0.072,0.217-0.108,0.396-0.108,0.576
		c0,0.252,0.072,0.468,0.18,0.576c0.396,0.396,0.684,1.008,0.684,1.368c0,0.612-0.648,0.792-1.476,0.792
		c-0.684,0-2.376-0.685-3.456-1.836c-2.772-2.809-3.78-6.696-3.78-10.188c0-2.664,0.252-6.443,0.396-8.567v-0.36
		c0-1.548-0.504-2.952-2.268-3.061L245.396,262.899z M266.637,264.808c6.516,1.439,9.684,7.02,9.684,11.268
		c0,1.404-0.396,2.736-1.476,2.736c-0.612,0-1.152-0.504-1.152-1.584c-0.18-5.184-2.664-10.08-7.416-11.736L266.637,264.808z"/>
	<path d="M204.893,7.372c0-0.504,0.72-1.188,1.368-1.188c1.728,0,4.392,1.296,4.392,2.556c0,0.396-0.216,0.612-0.396,0.9
		c-0.144,0.216-0.252,0.576-0.252,1.368v4.212c3.708-0.18,3.96-0.396,4.86-1.188c2.484,0.54,3.888,1.224,3.888,2.376
		c0,0.54-0.576,0.684-1.296,0.684c-0.684,0-1.512-0.144-2.232-0.216c-0.612-0.108-1.908-0.144-3.276-0.144
		c-0.648,0-1.332,0-1.944,0.036c-0.036,1.224-0.036,2.664-0.036,3.96c0,6.948-2.844,13.14-12.204,16.848l-0.504-0.684
		c7.848-3.996,10.476-10.08,10.476-16.272v-3.78c-2.916,0.144-7.272,0.54-10.26,0.972l0.18,4.86
		c0.072,1.188,0.216,2.448,0.216,3.672c0,0.792-0.396,1.368-1.08,1.368c-0.936,0-1.548-1.692-1.836-3.276
		c0.432-0.684,0.54-1.584,0.54-3.096c0-0.828,0-1.98-0.036-3.204c-2.052,0.324-3.24,0.54-3.708,0.936
		c-0.324,0.252-0.612,0.432-1.188,0.432c-1.44,0-3.42-1.908-3.42-3.384c0-0.504,0.36-1.26,0.864-1.26
		c0.612,1.512,1.584,1.944,3.312,1.944c0.936,0,3.564-0.216,4.104-0.288l-0.18-4.32c-0.144-2.124-0.18-2.844-2.412-2.844
		l-0.072-0.18c0.216-0.54,0.9-0.936,1.62-0.936c1.26,0,3.528,0.864,3.528,2.232c0,0.432-0.18,0.828-0.288,1.188
		c-0.108,0.288-0.18,1.08-0.216,1.728c0,0.864,0,1.872,0.036,2.952c3.6-0.324,7.992-0.792,10.296-0.936
		c0-4.968-0.072-7.056-0.936-7.56c-0.504-0.288-1.26-0.432-1.872-0.432L204.893,7.372z"/>
	<path d="M203.957,69.292c0,2.16-0.18,3.672-1.188,3.672h-0.036c-1.08,0-1.296-2.376-1.548-3.924
		c0.324-0.828,0.432-7.164,0.432-11.232c0-3.024,0-7.308-0.072-9.936c-0.072-2.484-0.324-3.42-0.972-3.744
		c-0.576-0.324-1.26-0.468-1.872-0.396l-0.036-0.144c0.36-0.756,1.188-1.044,2.052-1.044c1.548,0,4.428,1.404,4.428,2.916
		c0,0.504-0.324,0.756-0.576,1.152c-0.288,0.468-0.432,1.26-0.504,3.06c-0.108,2.844-0.144,5.796-0.144,8.496L203.957,69.292z"/>
	<path d="M207.125,85.564c0.18-0.288,0.792-0.504,1.332-0.504c1.656,0,3.744,1.836,3.744,2.88c0,0.72-0.792,0.288-1.872,0.936
		c-4.356,2.484-9.792,4.752-14.832,6.012c-0.216,8.172,0.54,9.468,6.048,9.468c1.692,0,9.072-0.036,10.476-1.152
		c1.548,0.18,3.384,0.54,3.384,1.656c0,0.864-2.304,1.26-3.6,1.368c-2.808,0.216-6.516,0.288-9.072,0.288
		c-7.2,0-9.324-1.188-9.324-10.872c0-1.512,0-3.312,0.036-4.896c0.036-2.088,0.18-4.356,0.18-5.76c0-1.476,0-2.952-2.664-2.952
		L190.924,82c0.036-0.684,1.188-1.188,2.052-1.188c1.584,0,3.78,1.044,3.78,2.34c0,0.468-0.216,0.612-0.396,0.936
		c-0.18,0.252-0.288,0.684-0.36,1.44c-0.216,2.448-0.432,5.724-0.468,8.424c6.444-2.304,12.853-5.868,12.853-7.308
		c0-0.396-0.504-0.9-1.224-1.008L207.125,85.564z M207.845,78.4c2.592,0.972,5.004,2.988,5.004,4.752c0,0.9-0.576,1.296-1.044,1.296
		c-0.504,0-0.792-0.216-1.116-1.044c-0.396-1.188-1.512-3.132-3.384-4.356L207.845,78.4z M212.597,77.176
		c2.88,1.08,5.04,3.348,5.04,4.824c0,0.936-0.576,1.296-1.044,1.296c-0.504,0-0.792-0.18-1.116-1.044
		c-0.396-1.188-1.476-3.204-3.42-4.5L212.597,77.176z"/>
	<path d="M188.044,143.2c8.676-5.076,17.496-15.516,20.34-23.4c0.036-0.144,0.072-0.216,0.072-0.288c0-0.144-0.108-0.216-0.36-0.216
		c-0.468,0-7.092,0.684-10.296,1.332c-0.9,0.18-1.224,0.36-1.584,0.576c-0.324,0.216-0.504,0.468-1.08,0.468
		c-1.26,0-3.24-1.944-3.24-3.312c0-1.044,0.756-1.404,0.864-1.404c0.18,1.908,2.196,1.908,3.636,1.908
		c1.044,0,8.676-0.54,11.268-0.828c0.576-0.108,0.792-0.252,1.044-0.504c0.288-0.288,0.72-0.648,1.008-0.648
		c0.72,0,3.096,1.836,3.096,2.412c0,0.54-0.468,0.684-1.008,0.864c-0.504,0.216-0.828,0.648-1.008,1.008
		c-1.188,2.304-3.96,6.948-6.192,9.684c3.348,1.8,7.488,4.536,9.576,6.552c1.584,1.584,2.988,3.348,2.988,4.5
		c0,0.936-0.576,1.8-1.476,1.8c-0.828,0-1.512-1.224-2.772-3.204c-1.512-2.34-5.868-6.732-9.108-8.712
		c-3.276,3.96-9,9.216-15.264,12.168L188.044,143.2z"/>
	<path d="M201.796,178.876c9.936-1.368,13.608-6.696,13.608-12.456c0-6.552-3.06-12.096-11.196-12.096
		c-0.684,0-2.16,0.144-3.06,0.36c0.864,0.612,1.368,2.052,1.368,3.6c0,6.624-4.716,17.712-10.08,17.712
		c-2.556,0-4.356-3.024-4.356-7.524c0-8.316,6.804-15.192,16.308-15.192c8.856,0,13.644,5.508,13.644,13.32
		c0,6.732-4.464,12.132-15.984,13.14L201.796,178.876z M200.176,154.9c-5.472,1.332-9.936,6.552-9.936,13.5
		c0,2.808,0.864,5.076,2.34,5.076c4.104,0,8.172-10.296,8.172-16.2C200.752,156.304,200.464,155.224,200.176,154.9z"/>
	<path d="M194.128,185.355l3.852,0.36c-0.072,0.504-0.432,0.756-1.548,0.864v30.96c0,0.107-0.324,0.936-2.304,0.936v-11.808
		c-1.512,1.044-3.456,2.412-5.832,3.924c-0.108,0.432-0.36,0.792-0.72,0.936l-1.476-3.024c1.44-0.396,4.644-1.512,8.028-2.736
		V185.355z M187.396,190.396c3.852,1.8,5.076,4.068,5.076,5.616c0,1.08-0.612,1.836-1.332,1.836c-0.324,0-0.72-0.18-1.044-0.54
		c-0.036-2.16-1.512-5.004-3.024-6.624L187.396,190.396z M219.833,197.343c-0.288,0.54-0.684,0.756-1.692,0.756h-8.928
		c0.972,6.012,3.6,13.14,10.728,18.036l-0.108,0.396c-1.152,0.144-1.908,0.611-2.232,1.943c-6.372-5.221-8.352-13.968-9.108-20.376
		h-0.108c-0.756,8.748-2.952,15.265-10.512,20.448l-0.576-0.576c6.156-5.292,8.136-11.52,8.784-19.872h-8.244l-0.252-0.864h8.568
		c0.252-3.564,0.252-7.488,0.288-11.88l3.888,0.252c-0.036,0.468-0.288,0.756-1.548,0.9c-0.072,3.924-0.108,7.488-0.324,10.728
		h6.624l1.62-2.124L219.833,197.343z M212.093,187.047c4.752,0.468,6.3,2.484,6.3,3.888c0,0.828-0.504,1.44-1.188,1.44
		c-0.288,0-0.576-0.108-0.9-0.324c-0.576-1.764-2.556-3.672-4.392-4.608L212.093,187.047z"/>
	<path d="M186.497,231.003c4.428,0.469,5.832,2.269,5.832,3.564c0,0.792-0.504,1.404-1.224,1.404c-0.288,0-0.576-0.108-0.9-0.324
		c-0.576-1.548-2.304-3.348-3.888-4.248L186.497,231.003z M188.477,244.539c0.468,0,0.576,0,0.9-0.756
		c0.216-0.288,0.684-1.296,7.308-16.2l0.648,0.145c-1.62,4.644-4.824,13.32-5.364,15.084c-0.324,1.152-0.576,2.268-0.576,3.168
		c0.036,1.548,0.936,3.096,0.936,5.796c0,0.576,0,2.916-2.016,2.916c-0.648,0-1.044-0.647-1.152-1.8
		c0.18-1.368,0.288-2.628,0.288-3.708c0-3.313-0.72-3.672-2.592-3.853v-0.792c1.224,0,1.62-0.035,1.62-0.035V244.539z
		 M188.044,221.644c4.536,0.611,5.976,2.556,5.976,3.924c0,0.828-0.54,1.476-1.26,1.476c-0.288,0-0.612-0.107-0.936-0.359
		c-0.576-1.656-2.376-3.636-3.996-4.681L188.044,221.644z M206.657,238.924c-0.108,0.54-0.54,0.72-1.512,0.756
		c-0.9,6.012-3.528,11.916-10.872,14.939l-0.396-0.611c6.3-3.204,8.424-9.36,8.928-15.624L206.657,238.924z M218.861,246.483
		l-0.036,5.112c0.972,0.36,1.116,0.468,1.116,0.828c0,1.008-0.936,1.368-3.168,1.368h-4.392c-2.592,0-2.988-0.36-2.988-3.313
		v-13.644h-8.208v2.052c0,0.18-0.756,0.756-1.908,0.756h-0.36v-16.776l2.664,1.116h12.564l1.116-1.404l2.88,2.196
		c-0.216,0.288-0.612,0.504-1.368,0.612v13.284c0,0.144-0.864,0.684-1.944,0.684h-0.36v-2.52h-2.844v13.68c0,1.188,0,1.26,0.9,1.26
		h4.032c0.252,0,0.576,0,0.828-0.432c0.288-0.504,0.828-2.844,1.188-4.86H218.861z M201.185,235.972h13.284v-11.125h-13.284V235.972
		z"/>
	<path d="M196.541,274.924c-1.836,3.996-3.636,8.352-3.672,9.611c0,0.505,0.396,1.297,0.396,2.269c0,0.936-0.432,1.332-0.864,1.332
		c-1.62,0-3.42-3.024-3.42-9.396c0-5.364,1.404-9.936,1.98-13.212c0.108-0.576,0.18-1.116,0.18-1.656
		c0-0.216-0.036-0.468-0.036-0.684c0-1.224-1.08-2.376-1.872-2.484l-0.036-0.252c0.324-0.359,0.864-0.432,1.332-0.432
		c2.196,0,3.708,2.231,3.708,3.528c0,1.008-0.504,1.548-0.72,2.052c-1.296,3.204-2.664,7.632-2.664,12.312
		c0,2.196,0.216,3.528,0.468,4.141l0.324-0.108c0.612-0.936,2.916-5.04,4.14-7.38L196.541,274.924z M203.632,274.06
		c-1.62,1.764-2.844,3.708-2.844,5.616c0,2.987,2.196,4.032,7.164,4.032c3.096,0,5.364-0.396,6.156-0.648
		c1.944,0.288,2.7,1.008,2.7,1.728c0,0.937-1.332,1.188-7.956,1.188c-6.516,0-9.72-1.656-9.72-5.94c0-2.447,1.8-4.68,3.78-6.552
		L203.632,274.06z M199.889,264.951c0.9,0.252,2.412,0.324,3.564,0.324c1.836,0,5.472-0.612,7.272-1.368
		c0.612-0.252,1.368-0.792,1.62-0.792c1.368,0,2.988,0.54,2.988,1.477c0,0.756-1.26,1.008-2.664,1.332
		c-2.664,0.54-6.264,0.972-7.992,0.972c-1.584,0-3.528-0.145-4.968-1.332L199.889,264.951z"/>
	<path d="M131.125,10.684c0.18,1.152,1.188,1.908,2.484,1.908c0.612,0,1.944-0.144,2.844-0.36c2.844-0.576,11.52-2.124,16.416-2.664
		c1.08-0.144,2.052-0.504,2.448-0.864c2.988,0.576,4.14,1.224,4.14,2.34c0,0.576-0.648,0.72-1.584,0.72
		c-0.792,0-1.764-0.108-2.664-0.108c-3.852,0-8.712,3.744-10.62,6.876c-1.188,1.8-2.124,4.896-2.124,7.956
		c0,5.112,3.132,6.516,7.2,7.092c1.008,0.144,2.268,0,2.736,0.216c1.224,0.504,1.692,1.188,1.692,1.944
		c0,0.612-0.576,0.864-1.62,0.864c-0.324,0-0.684-0.036-1.08-0.072c-8.784-1.008-11.052-3.96-11.052-9.972
		c0-6.912,5.148-12.348,10.332-15.3l-0.036-0.108c-4.212,0.432-13.428,2.34-15.192,3.744c-0.504,0.324-0.936,0.648-1.656,0.648
		c-1.548,0-3.492-1.944-3.492-3.348c0-0.684,0.216-1.296,0.612-1.548L131.125,10.684z M151.537,17.704
		c4.248,1.476,5.364,3.312,5.364,4.356c0,0.612-0.432,1.08-0.864,1.08c-0.612,0-0.9-0.36-1.152-0.972
		c-0.504-1.152-1.836-2.844-3.744-3.924L151.537,17.704z M155.245,14.607c4.248,1.476,5.328,3.348,5.328,4.392
		c0,0.612-0.396,1.044-0.828,1.044c-0.648,0-0.9-0.36-1.188-0.972c-0.468-1.152-1.836-2.808-3.744-3.888L155.245,14.607z"/>
	<path d="M151.249,45.424c1.656,0.144,3.852,0.468,3.852,1.44c0,1.044-2.736,1.548-5.58,2.16c-2.304,0.468-5.508,0.936-7.992,1.224
		c-0.144,1.512-0.288,3.42-0.324,5.544c3.24-1.044,5.4-1.044,7.236-1.044c0.036-0.648-0.18-1.152-0.432-1.548l0.468-0.36
		c0.9,0.648,1.296,1.332,1.44,2.016c5.976,0.612,9.72,3.888,9.72,8.856c0,5.256-4.644,9-15.336,9.972l-0.252-0.828
		c8.928-1.224,12.888-4.608,12.924-9.324c0-3.996-2.52-6.768-7.056-7.524v0.216c0,1.188-2.124,6.012-6.516,10.116
		c0.612,0.936,1.116,1.476,1.116,2.196c0,0.468-0.18,1.332-0.936,1.332c-0.396,0-1.26-0.54-2.052-1.908
		c-2.268,1.728-4.824,2.916-7.416,2.916c-1.8,0-3.816-1.008-3.816-3.744c0-3.996,3.132-8.28,9.072-10.728
		c0-2.088,0.108-4.176,0.144-6.012c-1.008,0.036-2.052,0.072-2.916,0.072c-2.916,0-4.176-1.044-5.004-2.556l0.54-0.504
		c0.972,1.008,2.448,1.404,4.392,1.404c0.864,0,2.088-0.072,3.024-0.108c0.036-0.936,0.108-2.412,0.108-3.348
		c0-1.152-0.252-1.98-1.944-1.98c-0.18,0-0.432,0-0.684,0.036l-0.072-0.144c0.396-0.756,1.116-1.26,2.196-1.26
		c1.944,0,3.852,0.756,3.852,1.908c0,0.54-0.648,0.936-0.828,1.836c-0.144,0.684-0.288,1.62-0.432,2.7
		c2.16-0.252,8.928-1.116,9.324-2.844L151.249,45.424z M134.76,68.824c1.764,0,3.816-1.008,5.76-2.52
		c-1.188-2.952-1.188-6.372-1.188-8.496c-4.536,2.34-6.876,5.292-6.876,8.856C132.457,68.14,133.032,68.824,134.76,68.824z
		 M141.168,57.016c0,1.836,0,5.004,1.152,7.776c2.916-2.556,5.328-6.372,5.94-8.964C146.712,55.828,144.121,55.828,141.168,57.016z"
		/>
	<path d="M139.044,94.42c2.808-1.584,6.192-2.7,8.856-2.7c7.092,0,9.36,3.924,9.36,8.208c0,4.932-4.284,8.82-11.772,8.82
		c-4.356,0-7.272-2.088-7.272-4.572c0-2.268,2.016-4.212,5.292-4.212c3.384,0,6.732,2.7,6.732,5.472c0,0.288-0.072,0.54-0.18,0.684
		c2.7-0.9,4.644-3.6,4.644-6.264c0-4.068-1.944-6.984-7.056-6.984c-2.448,0-9.252,1.548-12.996,7.272
		c-0.468,0.72-0.972,1.62-1.764,1.62c-0.684,0-1.224-0.9-1.224-1.512c0-1.152,1.224-2.16,1.836-2.772
		c2.988-2.952,10.476-10.476,14.724-14.724c0.288-0.252,0.396-0.432,0.396-0.54c0-0.144-0.144-0.18-0.36-0.18
		c-0.648,0-6.588,1.152-8.496,1.98c-0.864,0.396-0.936,0.792-1.656,0.792c-1.62,0-3.168-1.764-3.168-3.276
		c0-0.504,0.18-1.188,0.936-1.656l0.18,0.108C135.948,81.136,136.74,82,137.964,82c2.232,0,8.388-0.936,9.828-1.404
		c0.612-0.216,1.08-1.008,1.476-1.008c1.44,0,3.276,1.692,3.276,2.484c0,0.9-1.08,0.756-2.376,1.764
		c-4.032,3.132-8.64,7.632-11.304,10.44L139.044,94.42z M145.597,106.876c0.864,0,1.836-0.072,2.7-0.252
		c-0.144-0.18-0.288-0.36-0.324-0.684c-0.216-2.484-2.448-4.716-4.968-4.716c-1.8,0-3.24,1.044-3.24,2.664
		C139.765,106.3,142.933,106.876,145.597,106.876z"/>
	<path d="M156.36,113.751c2.88,0,5.22,2.304,5.22,5.22c0,2.88-2.34,5.22-5.22,5.22c-2.916,0-5.22-2.34-5.22-5.22
		C151.141,115.983,153.517,113.751,156.36,113.751z M160.429,118.971c0-2.268-1.836-4.104-4.068-4.104
		c-2.268,0-4.104,1.836-4.104,4.104c0,2.232,1.836,4.068,4.104,4.068C158.665,123.04,160.429,121.131,160.429,118.971z"/>
	<path d="M76.616,26.668h27.037v11.88h-1.368V28.036H76.616V26.668z"/>
	<path d="M99.801,42.436l3.132,2.34c-0.252,0.288-0.864,0.576-1.584,0.72v27.792c0,0.108-0.684,0.936-2.34,0.936v-2.412H74.924
		v1.764c0,0.072-0.144,0.972-2.304,0.972V42.76l2.556,1.224h23.472L99.801,42.436z M74.924,70.948h24.084V44.848H74.924V70.948z
		 M77.229,55.936c4.14,1.044,7.452,2.232,10.08,3.456c2.844-3.42,5.4-7.452,7.344-11.916l3.384,1.584
		c-0.18,0.288-0.432,0.504-0.936,0.504c-0.144,0-0.36-0.036-0.576-0.072c-2.088,4.176-4.572,7.74-7.38,10.764
		c5.256,2.772,6.984,5.508,6.984,6.984c0,0.648-0.36,1.044-0.936,1.044c-0.216,0-0.504-0.072-0.792-0.216
		c-1.224-1.836-3.528-4.068-6.768-6.264c-3.42,3.312-7.2,5.832-11.16,7.596l-0.432-0.54c3.42-1.836,6.876-4.572,10.008-8.064
		c-2.556-1.548-5.58-3.024-9.072-4.248L77.229,55.936z M77.336,47.908c3.78,1.728,4.968,3.888,4.968,5.328
		c0,1.044-0.576,1.728-1.26,1.728c-0.324,0-0.684-0.144-1.008-0.468c-0.18-2.052-1.656-4.716-3.06-6.3L77.336,47.908z
		 M84.032,46.504c3.492,1.872,4.608,4.068,4.608,5.616c0,1.152-0.612,1.944-1.368,1.944c-0.324,0-0.684-0.18-1.008-0.54
		c0-2.16-1.296-5.076-2.628-6.732L84.032,46.504z"/>
	<path d="M97.893,89.631c-0.036,0.252-1.188,0.792-1.944,0.792h-0.36v-1.26h-7.524v2.988h8.64l1.512-1.944l2.988,2.052
		c-0.288,0.504-0.72,0.756-1.692,0.756H88.064v3.06h10.62l1.584-1.98l3.06,2.088c-0.252,0.54-0.648,0.756-1.692,0.756h-30.78
		l-0.252-0.864H85.76v-3.06H73.413l-0.252-0.864h12.6v-2.988H74.924l-0.252-0.864H85.76v-3.132H70.568l-0.252-0.864H85.76v-3.024
		h-10.62l-0.252-0.864H85.76v-3.204l3.996,0.324c-0.036,0.612-0.468,0.828-1.692,1.008v1.872h7.164l1.08-1.44l3.096,2.196
		c-0.252,0.288-0.828,0.576-1.512,0.72v2.412h1.404l1.512-1.944l2.916,2.052c-0.324,0.504-0.684,0.756-1.728,0.756h-4.104V89.631z
		 M95.409,99.675l1.08-1.44l3.168,2.232c-0.252,0.288-0.828,0.612-1.548,0.756v8.388c0,0.036-0.756,0.72-2.34,0.72v-1.764H78.165
		v1.188c0,0.072-0.36,0.828-2.304,0.828V98.56l2.556,1.116H95.409z M95.769,100.54H78.165v3.06h17.604V100.54z M78.165,107.704
		h17.604v-3.24H78.165V107.704z M88.064,81.279v3.024h7.524v-3.024H88.064z M88.064,88.299h7.524v-3.132h-7.524V88.299z"/>
	<path d="M83.205,135.027c-0.072,0.108-1.008,0.504-1.8,0.504h-0.432v-1.656h-6.156v7.488c1.62-0.36,3.456-0.756,5.328-1.224
		c-0.756-1.26-1.692-2.484-2.592-3.348l0.36-0.288c4.5,2.016,5.904,4.464,5.904,6.048c0,0.972-0.54,1.584-1.188,1.584
		c-0.324,0-0.684-0.144-1.008-0.468c-0.144-0.864-0.54-1.872-1.08-2.844c-1.944,0.936-4.572,2.232-7.92,3.708
		c-0.144,0.468-0.432,0.756-0.792,0.9l-1.512-3.132l2.304-0.432v-18.216c-0.648,0.72-1.332,1.404-2.016,1.98l-0.504-0.324
		c2.556-2.988,4.932-8.28,5.904-11.988l3.852,0.396c-0.072,0.396-0.432,0.612-1.296,0.72c4.86,1.62,6.336,3.744,6.336,5.148
		c0,0.864-0.576,1.44-1.26,1.44c-0.288,0-0.612-0.108-0.9-0.36c-0.54-1.728-2.088-3.996-4.392-5.796
		c-1.116,2.484-2.88,5.436-4.968,7.92l1.62,0.792h1.764v-4.068l3.456,0.288c-0.072,0.396-0.36,0.612-1.26,0.756v3.024h2.16
		l0.864-1.296l2.556,2.124c-0.252,0.252-0.756,0.504-1.332,0.612V135.027z M80.973,124.443h-6.156v3.852h6.156V124.443z
		 M74.816,133.012h6.156v-3.852h-6.156V133.012z M101.313,116.847l2.736,2.664c-0.288,0.252-0.684,0.324-1.368,0.36
		c-0.756,0.864-2.124,2.304-2.952,3.06l-0.504-0.252c0.216-0.792,0.576-2.304,0.828-3.42H87.92c0,1.764-0.792,3.852-2.628,3.852
		c-0.54,0-1.116-0.252-1.116-0.936c0-0.504,0.396-1.044,0.936-1.404c0.9-0.612,1.872-2.304,1.872-3.852l0.648,0.036
		c0.144,0.504,0.216,0.972,0.252,1.44h4.752v-5.184l3.78,0.324c-0.036,0.54-0.36,0.756-1.44,0.9v3.96h4.86L101.313,116.847z
		 M98.685,135.208l1.008-1.368l2.916,2.088c-0.18,0.252-0.756,0.54-1.368,0.648v8.46c0,0.108-0.684,0.828-2.232,0.828v-2.268h-9.612
		v2.088c0,0.036-0.216,0.864-2.232,0.864v-24.012l2.412,1.152h8.136l1.044-1.332l2.952,2.088c-0.216,0.252-0.756,0.54-1.44,0.648
		v7.02c0,0.072-0.648,0.72-2.232,0.72v-1.8h-8.64v4.176H98.685z M98.037,124.551h-8.64v5.616h8.64V124.551z M89.396,142.731h9.612
		v-6.66h-9.612V142.731z"/>
	<path d="M97.353,161.091H70.316v-11.88h1.368v10.512h25.668V161.091z"/>
	<path d="M80.541,202.924c-1.836,3.996-3.636,8.353-3.672,9.612c0,0.504,0.396,1.296,0.396,2.268c0,0.937-0.432,1.332-0.864,1.332
		c-1.62,0-3.42-3.023-3.42-9.396c0-5.364,1.404-9.937,1.98-13.212c0.108-0.576,0.18-1.116,0.18-1.656
		c0-0.216-0.036-0.468-0.036-0.684c0-1.224-1.08-2.376-1.872-2.484l-0.036-0.252c0.324-0.36,0.864-0.432,1.332-0.432
		c2.196,0,3.708,2.232,3.708,3.528c0,1.008-0.504,1.548-0.72,2.052c-1.296,3.204-2.664,7.632-2.664,12.312
		c0,2.196,0.216,3.528,0.468,4.14l0.324-0.108c0.612-0.936,2.916-5.04,4.14-7.38L80.541,202.924z M87.632,202.06
		c-1.62,1.764-2.844,3.708-2.844,5.616c0,2.988,2.196,4.032,7.164,4.032c3.096,0,5.364-0.396,6.156-0.648
		c1.944,0.289,2.7,1.008,2.7,1.729c0,0.936-1.332,1.188-7.956,1.188c-6.516,0-9.72-1.656-9.72-5.939c0-2.448,1.8-4.68,3.78-6.552
		L87.632,202.06z M83.889,192.952c0.9,0.252,2.412,0.324,3.564,0.324c1.836,0,5.472-0.612,7.272-1.368
		c0.612-0.252,1.368-0.792,1.62-0.792c1.368,0,2.988,0.54,2.988,1.476c0,0.756-1.26,1.008-2.664,1.332
		c-2.664,0.54-6.264,0.972-7.992,0.972c-1.584,0-3.528-0.144-4.968-1.332L83.889,192.952z"/>
	<path d="M79.353,249.544c6.228-0.433,11.88-1.908,14.868-3.564c3.492-1.908,5.364-5.22,5.364-8.676
		c0-5.256-2.952-8.389-8.172-8.389c-4.32,0-9.612,2.017-13.32,4.248c-1.548,0.864-2.052,1.801-3.276,1.801
		c-1.404,0-3.996-1.62-3.996-3.673c0-0.684,0.108-1.332,0.792-1.872l0.216,0.036c0.216,1.152,0.9,2.305,2.52,2.305
		c2.808,0,9.828-4.212,17.28-4.212c6.408,0,10.8,3.42,10.8,9.899c0,4.32-2.268,7.992-6.588,10.152
		c-3.528,1.764-9.504,2.7-16.308,2.88L79.353,249.544z"/>
	<path d="M71.396,262.899c0.288-0.432,0.792-0.612,1.26-0.612c2.016,0,4.068,1.765,4.068,3.528c0,0.504-0.324,0.972-0.54,1.44
		c-1.08,3.06-1.08,7.128-1.08,8.279c0,4.752,2.592,7.668,3.492,7.668c0.504,0,0.792-0.396,1.728-1.655
		c0.9-1.225,3.06-4.752,4.824-7.813l0.756,0.288c-1.512,3.096-3.96,7.776-4.644,9.72c-0.072,0.217-0.108,0.396-0.108,0.576
		c0,0.252,0.072,0.468,0.18,0.576c0.396,0.396,0.684,1.008,0.684,1.368c0,0.612-0.648,0.792-1.476,0.792
		c-0.684,0-2.376-0.685-3.456-1.836c-2.772-2.809-3.78-6.696-3.78-10.188c0-2.664,0.252-6.443,0.396-8.567v-0.36
		c0-1.548-0.504-2.952-2.268-3.061L71.396,262.899z M92.637,264.808c6.516,1.439,9.684,7.02,9.684,11.268
		c0,1.404-0.396,2.736-1.476,2.736c-0.612,0-1.152-0.504-1.152-1.584c-0.18-5.184-2.664-10.08-7.416-11.736L92.637,264.808z"/>
	<path d="M30.893,7.372c0-0.504,0.72-1.188,1.368-1.188c1.728,0,4.392,1.296,4.392,2.556c0,0.396-0.216,0.612-0.396,0.9
		c-0.144,0.216-0.252,0.576-0.252,1.368v4.212c3.708-0.18,3.96-0.396,4.86-1.188c2.484,0.54,3.888,1.224,3.888,2.376
		c0,0.54-0.576,0.684-1.296,0.684c-0.684,0-1.512-0.144-2.232-0.216c-0.612-0.108-1.908-0.144-3.276-0.144
		c-0.648,0-1.332,0-1.944,0.036c-0.036,1.224-0.036,2.664-0.036,3.96c0,6.948-2.844,13.14-12.204,16.848l-0.504-0.684
		c7.848-3.996,10.476-10.08,10.476-16.272v-3.78c-2.916,0.144-7.272,0.54-10.26,0.972l0.18,4.86
		c0.072,1.188,0.216,2.448,0.216,3.672c0,0.792-0.396,1.368-1.08,1.368c-0.936,0-1.548-1.692-1.836-3.276
		c0.432-0.684,0.54-1.584,0.54-3.096c0-0.828,0-1.98-0.036-3.204c-2.052,0.324-3.24,0.54-3.708,0.936
		c-0.324,0.252-0.612,0.432-1.188,0.432c-1.44,0-3.42-1.908-3.42-3.384c0-0.504,0.36-1.26,0.864-1.26
		c0.612,1.512,1.584,1.944,3.312,1.944c0.936,0,3.564-0.216,4.104-0.288l-0.18-4.32c-0.144-2.124-0.18-2.844-2.412-2.844
		l-0.072-0.18c0.216-0.54,0.9-0.936,1.62-0.936c1.26,0,3.528,0.864,3.528,2.232c0,0.432-0.18,0.828-0.288,1.188
		c-0.108,0.288-0.18,1.08-0.216,1.728c0,0.864,0,1.872,0.036,2.952c3.6-0.324,7.992-0.792,10.296-0.936
		c0-4.968-0.072-7.056-0.936-7.56c-0.504-0.288-1.26-0.432-1.872-0.432L30.893,7.372z"/>
	<path d="M29.957,69.292c0,2.16-0.18,3.672-1.188,3.672h-0.036c-1.08,0-1.296-2.376-1.548-3.924
		c0.324-0.828,0.432-7.164,0.432-11.232c0-3.024,0-7.308-0.072-9.936c-0.072-2.484-0.324-3.42-0.972-3.744
		c-0.576-0.324-1.26-0.468-1.872-0.396l-0.036-0.144c0.36-0.756,1.188-1.044,2.052-1.044c1.548,0,4.428,1.404,4.428,2.916
		c0,0.504-0.324,0.756-0.576,1.152c-0.288,0.468-0.432,1.26-0.504,3.06c-0.108,2.844-0.144,5.796-0.144,8.496L29.957,69.292z"/>
	<path d="M33.125,85.564c0.18-0.288,0.792-0.504,1.332-0.504c1.656,0,3.744,1.836,3.744,2.88c0,0.72-0.792,0.288-1.872,0.936
		c-4.356,2.484-9.792,4.752-14.832,6.012c-0.216,8.172,0.54,9.468,6.048,9.468c1.692,0,9.072-0.036,10.476-1.152
		c1.548,0.18,3.384,0.54,3.384,1.656c0,0.864-2.304,1.26-3.6,1.368c-2.808,0.216-6.516,0.288-9.072,0.288
		c-7.2,0-9.324-1.188-9.324-10.872c0-1.512,0-3.312,0.036-4.896c0.036-2.088,0.18-4.356,0.18-5.76c0-1.476,0-2.952-2.664-2.952
		L16.924,82c0.036-0.684,1.188-1.188,2.052-1.188c1.584,0,3.78,1.044,3.78,2.34c0,0.468-0.216,0.612-0.396,0.936
		c-0.18,0.252-0.288,0.684-0.36,1.44c-0.216,2.448-0.432,5.724-0.468,8.424c6.444-2.304,12.853-5.868,12.853-7.308
		c0-0.396-0.504-0.9-1.224-1.008L33.125,85.564z M33.845,78.4c2.592,0.972,5.004,2.988,5.004,4.752c0,0.9-0.576,1.296-1.044,1.296
		c-0.504,0-0.792-0.216-1.116-1.044c-0.396-1.188-1.512-3.132-3.384-4.356L33.845,78.4z M38.597,77.176
		c2.88,1.08,5.04,3.348,5.04,4.824c0,0.936-0.576,1.296-1.044,1.296c-0.504,0-0.792-0.18-1.116-1.044
		c-0.396-1.188-1.476-3.204-3.42-4.5L38.597,77.176z"/>
	<path d="M14.044,143.2c8.676-5.076,17.496-15.516,20.34-23.4c0.036-0.144,0.072-0.216,0.072-0.288c0-0.144-0.108-0.216-0.36-0.216
		c-0.468,0-7.092,0.684-10.296,1.332c-0.9,0.18-1.224,0.36-1.584,0.576c-0.324,0.216-0.504,0.468-1.08,0.468
		c-1.26,0-3.24-1.944-3.24-3.312c0-1.044,0.756-1.404,0.864-1.404c0.18,1.908,2.196,1.908,3.636,1.908
		c1.044,0,8.676-0.54,11.268-0.828c0.576-0.108,0.792-0.252,1.044-0.504c0.288-0.288,0.72-0.648,1.008-0.648
		c0.72,0,3.096,1.836,3.096,2.412c0,0.54-0.468,0.684-1.008,0.864c-0.504,0.216-0.828,0.648-1.008,1.008
		c-1.188,2.304-3.96,6.948-6.192,9.684c3.348,1.8,7.488,4.536,9.576,6.552c1.584,1.584,2.988,3.348,2.988,4.5
		c0,0.936-0.576,1.8-1.476,1.8c-0.828,0-1.512-1.224-2.772-3.204c-1.512-2.34-5.868-6.732-9.108-8.712
		c-3.276,3.96-9,9.216-15.264,12.168L14.044,143.2z"/>
	<path d="M27.796,178.876c9.936-1.368,13.608-6.696,13.608-12.456c0-6.552-3.06-12.096-11.196-12.096c-0.684,0-2.16,0.144-3.06,0.36
		c0.864,0.612,1.368,2.052,1.368,3.6c0,6.624-4.716,17.712-10.08,17.712c-2.556,0-4.356-3.024-4.356-7.524
		c0-8.316,6.804-15.192,16.308-15.192c8.856,0,13.644,5.508,13.644,13.32c0,6.732-4.464,12.132-15.984,13.14L27.796,178.876z
		 M26.176,154.9c-5.472,1.332-9.936,6.552-9.936,13.5c0,2.808,0.864,5.076,2.34,5.076c4.104,0,8.172-10.296,8.172-16.2
		C26.752,156.304,26.464,155.224,26.176,154.9z"/>
	<path d="M20.128,185.355l3.852,0.36c-0.072,0.504-0.432,0.756-1.548,0.864v30.96c0,0.107-0.324,0.936-2.304,0.936v-11.808
		c-1.512,1.044-3.456,2.412-5.832,3.924c-0.108,0.432-0.36,0.792-0.72,0.936l-1.476-3.024c1.44-0.396,4.644-1.512,8.028-2.736
		V185.355z M13.396,190.396c3.852,1.8,5.076,4.068,5.076,5.616c0,1.08-0.612,1.836-1.332,1.836c-0.324,0-0.72-0.18-1.044-0.54
		c-0.036-2.16-1.512-5.004-3.024-6.624L13.396,190.396z M45.833,197.343c-0.288,0.54-0.684,0.756-1.692,0.756h-8.928
		c0.972,6.012,3.6,13.14,10.728,18.036l-0.108,0.396c-1.152,0.144-1.908,0.611-2.232,1.943c-6.372-5.221-8.352-13.968-9.108-20.376
		h-0.108c-0.756,8.748-2.952,15.265-10.512,20.448l-0.576-0.576c6.156-5.292,8.136-11.52,8.784-19.872h-8.244l-0.252-0.864h8.568
		c0.252-3.564,0.252-7.488,0.288-11.88l3.888,0.252c-0.036,0.468-0.288,0.756-1.548,0.9c-0.072,3.924-0.108,7.488-0.324,10.728
		h6.624l1.62-2.124L45.833,197.343z M38.093,187.047c4.752,0.468,6.3,2.484,6.3,3.888c0,0.828-0.504,1.44-1.188,1.44
		c-0.288,0-0.576-0.108-0.9-0.324c-0.576-1.764-2.556-3.672-4.392-4.608L38.093,187.047z"/>
	<path d="M12.497,231.003c4.428,0.469,5.832,2.269,5.832,3.564c0,0.792-0.504,1.404-1.224,1.404c-0.288,0-0.576-0.108-0.9-0.324
		c-0.576-1.548-2.304-3.348-3.888-4.248L12.497,231.003z M14.477,244.539c0.468,0,0.576,0,0.9-0.756
		c0.216-0.288,0.684-1.296,7.308-16.2l0.648,0.145c-1.62,4.644-4.824,13.32-5.364,15.084c-0.324,1.152-0.576,2.268-0.576,3.168
		c0.036,1.548,0.936,3.096,0.936,5.796c0,0.576,0,2.916-2.016,2.916c-0.648,0-1.044-0.647-1.152-1.8
		c0.18-1.368,0.288-2.628,0.288-3.708c0-3.313-0.72-3.672-2.592-3.853v-0.792c1.224,0,1.62-0.035,1.62-0.035V244.539z
		 M14.044,221.644c4.536,0.611,5.976,2.556,5.976,3.924c0,0.828-0.54,1.476-1.26,1.476c-0.288,0-0.612-0.107-0.936-0.359
		c-0.576-1.656-2.376-3.636-3.996-4.681L14.044,221.644z M32.657,238.924c-0.108,0.54-0.54,0.72-1.512,0.756
		c-0.9,6.012-3.528,11.916-10.872,14.939l-0.396-0.611c6.3-3.204,8.424-9.36,8.928-15.624L32.657,238.924z M44.861,246.483
		l-0.036,5.112c0.972,0.36,1.116,0.468,1.116,0.828c0,1.008-0.936,1.368-3.168,1.368H38.38c-2.592,0-2.988-0.36-2.988-3.313v-13.644
		h-8.208v2.052c0,0.18-0.756,0.756-1.908,0.756h-0.36v-16.776l2.664,1.116h12.564l1.116-1.404l2.88,2.196
		c-0.216,0.288-0.612,0.504-1.368,0.612v13.284c0,0.144-0.864,0.684-1.944,0.684h-0.36v-2.52h-2.844v13.68c0,1.188,0,1.26,0.9,1.26
		h4.032c0.252,0,0.576,0,0.828-0.432c0.288-0.504,0.828-2.844,1.188-4.86H44.861z M27.185,235.972h13.284v-11.125H27.185V235.972z"
		/>
	<path d="M22.541,274.924c-1.836,3.996-3.636,8.352-3.672,9.611c0,0.505,0.396,1.297,0.396,2.269c0,0.936-0.432,1.332-0.864,1.332
		c-1.62,0-3.42-3.024-3.42-9.396c0-5.364,1.404-9.936,1.98-13.212c0.108-0.576,0.18-1.116,0.18-1.656
		c0-0.216-0.036-0.468-0.036-0.684c0-1.224-1.08-2.376-1.872-2.484l-0.036-0.252c0.324-0.359,0.864-0.432,1.332-0.432
		c2.196,0,3.708,2.231,3.708,3.528c0,1.008-0.504,1.548-0.72,2.052c-1.296,3.204-2.664,7.632-2.664,12.312
		c0,2.196,0.216,3.528,0.468,4.141l0.324-0.108c0.612-0.936,2.916-5.04,4.14-7.38L22.541,274.924z M29.632,274.06
		c-1.62,1.764-2.844,3.708-2.844,5.616c0,2.987,2.196,4.032,7.164,4.032c3.096,0,5.364-0.396,6.156-0.648
		c1.944,0.288,2.7,1.008,2.7,1.728c0,0.937-1.332,1.188-7.956,1.188c-6.516,0-9.72-1.656-9.72-5.94c0-2.447,1.8-4.68,3.78-6.552
		L29.632,274.06z M25.889,264.951c0.9,0.252,2.412,0.324,3.564,0.324c1.836,0,5.472-0.612,7.272-1.368
		c0.612-0.252,1.368-0.792,1.62-0.792c1.368,0,2.988,0.54,2.988,1.477c0,0.756-1.26,1.008-2.664,1.332
		c-2.664,0.54-6.264,0.972-7.992,0.972c-1.584,0-3.528-0.145-4.968-1.332L25.889,264.951z"/>
</g>
<g>
	<path fill="#00A0E9" d="M528.574,65.354c-1.04,0.864-1.521,1.6-1.521,2.352c0,0.736,0.464,1.264,1.36,1.568
		c0.608,0.208,1.664,0.32,2.928,0.32c2,0,3.904-0.24,4.8-0.608l0.145,1.312c-0.208,0.016-0.272,0.032-0.544,0.08
		c-1.393,0.24-2.912,0.368-4.32,0.368c-1.536,0-2.896-0.192-3.68-0.496c-1.2-0.496-1.824-1.312-1.824-2.416
		c0-1.04,0.608-2.048,1.84-3.088L528.574,65.354z M526.894,59.514c1.169,0.272,2.433,0.384,4.257,0.384
		c1.871,0,3.168-0.112,4.048-0.336l0.08,1.056c-0.992,0.416-2.465,1.296-4.032,2.432l-0.816-0.656
		c1.024-0.688,1.408-0.928,2.128-1.328c0.177-0.096,0.208-0.112,0.4-0.208c0.112-0.064,0.144-0.064,0.304-0.16
		c-0.96,0.16-1.504,0.208-2.416,0.208c-1.12,0-2.479-0.08-3.52-0.208c-0.288-0.032-0.32-0.048-0.528-0.048L526.894,59.514z"/>
	<path fill="#00A0E9" d="M528.574,81.354c-1.04,0.864-1.521,1.6-1.521,2.352c0,0.736,0.464,1.264,1.36,1.568
		c0.608,0.208,1.664,0.32,2.928,0.32c2,0,3.904-0.24,4.8-0.608l0.145,1.312c-0.208,0.016-0.272,0.032-0.544,0.08
		c-1.393,0.24-2.912,0.368-4.32,0.368c-1.536,0-2.896-0.192-3.68-0.496c-1.2-0.496-1.824-1.312-1.824-2.416
		c0-1.04,0.608-2.048,1.84-3.088L528.574,81.354z M526.894,75.514c1.169,0.272,2.433,0.384,4.257,0.384
		c1.871,0,3.168-0.112,4.048-0.336l0.08,1.056c-0.992,0.416-2.465,1.296-4.032,2.432l-0.816-0.656
		c1.024-0.688,1.408-0.928,2.128-1.328c0.177-0.096,0.208-0.112,0.4-0.208c0.112-0.064,0.144-0.064,0.304-0.16
		c-0.96,0.16-1.504,0.208-2.416,0.208c-1.12,0-2.479-0.08-3.52-0.208c-0.288-0.032-0.32-0.048-0.528-0.048L526.894,75.514z"/>
	<path fill="#00A0E9" d="M528.846,92.25c0.528-1.12,0.721-1.68,0.769-2.192l1.279,0.224c-0.144,0.208-0.144,0.208-0.416,0.864
		c-0.208,0.512-0.416,0.944-0.495,1.088c0.191-0.016,0.191-0.016,0.336-0.016c2.56-0.128,4.159-0.32,5.04-0.608l0.096,1.088
		c-0.256,0.016-0.353,0.032-0.641,0.08c-1.663,0.224-3.344,0.352-5.279,0.416c-0.48,0.944-0.88,1.584-1.44,2.272
		c-0.16,0.192-0.479,0.56-0.544,0.608c-0.111,0.08-0.191,0.144-0.208,0.16c0,0.016-0.016,0.016-0.016,0.016c0,0.016,0,0.016,0,0.016
		c0.016,0.032,0.016,0.032,0.032,0.048c0.575-0.448,0.575-0.448,0.735-0.56c0.736-0.512,1.584-0.784,2.416-0.784
		c1.185,0,1.904,0.592,2.112,1.776c1.168-0.464,2.08-0.8,2.784-1.056c0.783-0.272,0.832-0.288,1.088-0.464l0.512,1.12
		c-0.832,0.144-2.271,0.624-4.271,1.408c0.031,0.416,0.031,0.576,0.031,0.976c0,0.208,0,0.56-0.016,0.88
		c-0.016,0.352-0.016,0.576-0.016,0.72c0,0.224,0,0.352,0.031,0.576l-1.088,0.016c0.048-0.352,0.097-1.328,0.097-2.304
		c0-0.256,0-0.288-0.017-0.48c-2.176,1.024-3.008,1.776-3.008,2.736c0,1.056,0.992,1.52,3.248,1.52c1.584,0,3.36-0.256,4.271-0.624
		l0.145,1.232c-0.24,0.016-0.32,0.032-0.641,0.08c-1.264,0.208-2.655,0.32-3.888,0.32c-2.863,0-4.256-0.816-4.256-2.464
		c0-0.88,0.544-1.712,1.632-2.528c0.544-0.4,1.313-0.816,2.384-1.28c-0.128-0.88-0.512-1.264-1.264-1.264
		c-1.008,0-2.271,0.592-3.567,1.696c-0.624,0.528-0.977,0.896-1.232,1.328l-0.896-0.896c1.104-0.848,2.432-2.528,3.583-4.576
		c0.049-0.08,0.049-0.08,0.145-0.24c-0.064,0.016-0.224,0.032-0.304,0.032c-0.256,0-1.761-0.032-2.353-0.048
		c-0.08,0-0.208,0-0.256,0c-0.144,0-0.176,0-0.352,0.016l0.016-1.104c0.576,0.112,1.792,0.176,3.424,0.176H528.846z"/>
	<path fill="#00A0E9" d="M531.566,105.93c0.863,1.296,1.76,2.224,3.119,3.248c1.28,0.96,2.641,1.744,3.952,2.24
		c-0.304,0.352-0.479,0.624-0.688,1.056c-1.456-0.72-2.816-1.584-4.064-2.576c-1.264-1.008-2.016-1.808-2.928-3.072
		c-0.784,1.168-1.44,1.904-2.56,2.88c-1.248,1.072-2.561,1.936-4.112,2.72c-0.192-0.4-0.336-0.576-0.704-0.96
		c1.376-0.592,2.88-1.504,4.016-2.448c1.137-0.96,2-1.936,2.704-3.088H531.566z M527.95,112.362c-0.672,0-1.057,0.016-1.488,0.08
		v-1.088c0.448,0.064,0.769,0.08,1.44,0.08h6.144c0.672,0,1.008-0.016,1.44-0.08v1.088c-0.416-0.064-0.816-0.08-1.473-0.08h-2.592
		v2.432h2.976c0.688,0,1.057-0.016,1.473-0.08v1.088c-0.416-0.064-0.8-0.08-1.473-0.08h-2.976v2.864h4.832
		c0.736,0,1.296-0.032,1.76-0.096v1.168c-0.527-0.08-1.12-0.112-1.744-0.112h-10.447c-0.641,0-1.248,0.032-1.776,0.112v-1.168
		c0.464,0.064,1.024,0.096,1.792,0.096h4.544v-2.864h-2.672c-0.672,0-1.072,0.016-1.488,0.08v-1.088
		c0.4,0.064,0.801,0.08,1.488,0.08h2.672v-2.432H527.95z"/>
	<path fill="#00A0E9" d="M535.55,125.674c0.592,0,0.977-0.016,1.296-0.064c-0.048,0.432-0.063,0.784-0.063,1.392v7.664
		c0,0.992-0.433,1.248-2.064,1.248c-0.336,0-0.864-0.016-1.552-0.048c-0.048-0.384-0.096-0.608-0.272-1.008
		c0.704,0.08,1.584,0.144,2.097,0.144c0.144,0,0.447-0.032,0.512-0.048c0.16-0.048,0.24-0.192,0.24-0.448v-2.432h-8.864
		c-0.304,1.568-0.928,2.768-2.032,4.016c-0.239-0.24-0.464-0.384-0.96-0.64c1.072-1.104,1.536-1.888,1.856-3.088
		c0.271-1.024,0.416-2.752,0.416-4.928c0-0.544,0-0.784-0.032-1.184c-0.624,0.512-0.944,0.736-1.584,1.136
		c-0.208-0.352-0.271-0.432-0.656-0.784c1.584-0.912,3.008-2.144,4.032-3.52c0.56-0.72,0.832-1.2,0.928-1.6l1.168,0.32
		c-0.144,0.208-0.191,0.256-0.336,0.496c-0.176,0.256-0.208,0.304-0.416,0.592h2.896c0.672,0,1.088-0.016,1.487-0.08l0.561,0.544
		c-0.192,0.192-0.192,0.208-0.624,0.784c-0.416,0.56-0.88,1.12-1.313,1.536H535.55z M531.102,125.674
		c0.528-0.528,1.137-1.28,1.536-1.904h-4.063c-0.641,0.8-1.057,1.248-1.76,1.888c0.352,0.016,0.495,0.016,0.832,0.016H531.102z
		 M530.83,131.162v-1.936h-3.68c-0.032,0.784-0.064,1.2-0.145,1.936H530.83z M527.182,126.554v1.296c0,0.144,0,0.176,0,0.48h3.648
		v-1.776H527.182z M535.742,126.554h-3.937v1.776h3.937V126.554z M535.742,129.226h-3.937v1.936h3.937V129.226z"/>
	<path fill="#00A0E9" d="M523.838,140.394c0.368,0.064,0.672,0.08,1.28,0.08h2.896c0.656,0,0.929-0.016,1.28-0.08v1.04
		c-0.336-0.048-0.592-0.064-1.168-0.064h-3.008c-0.561,0-0.848,0.016-1.28,0.064V140.394z M524.382,138.17
		c0.384,0.064,0.656,0.08,1.216,0.08h2.257c0.544,0,0.831-0.016,1.216-0.08v1.008c-0.4-0.048-0.721-0.064-1.216-0.064h-2.257
		c-0.496,0-0.832,0.016-1.216,0.064V138.17z M524.51,142.682c0.336,0.048,0.608,0.064,1.152,0.064h2.288
		c0.544,0,0.8-0.016,1.136-0.064v0.976c-0.368-0.048-0.592-0.064-1.136-0.064h-2.288c-0.544,0-0.784,0.016-1.152,0.064V142.682z
		 M524.51,144.874c0.336,0.048,0.592,0.064,1.152,0.064h2.288c0.56,0,0.815-0.016,1.136-0.064v0.976
		c-0.432-0.048-0.624-0.064-1.136-0.064h-2.288c-0.528,0-0.784,0.016-1.152,0.064V144.874z M524.526,152.169
		c0.063-0.448,0.096-0.912,0.096-1.552v-2.16c0-0.56-0.016-0.928-0.08-1.344c0.416,0.048,0.816,0.064,1.28,0.064h2.096
		c0.688,0,0.864,0,1.152-0.048c-0.032,0.336-0.048,0.688-0.048,1.264v2.256c0,0.496,0.016,0.848,0.079,1.312h-0.976v-0.656h-2.576
		v0.864H524.526z M525.55,150.474h2.576v-2.464h-2.576V150.474z M533.326,139.002c0-0.512-0.032-0.88-0.097-1.296h1.152
		c-0.063,0.4-0.096,0.784-0.096,1.328v1.184h2.512c0.72,0,1.152-0.032,1.6-0.096v1.104c-0.447-0.064-0.96-0.096-1.584-0.096h-2.527
		v2.464h2.224c0.688,0,1.152-0.032,1.601-0.096v1.088c-0.448-0.064-0.929-0.096-1.584-0.096h-5.057
		c-0.655,0-1.088,0.032-1.584,0.096v-1.088c0.433,0.064,0.88,0.096,1.584,0.096h1.856v-2.464h-2.032
		c-0.704,0-1.168,0.032-1.616,0.096v-1.104c0.433,0.064,0.88,0.096,1.616,0.096h2.032V139.002z M531.566,152.089h-1.089
		c0.064-0.4,0.08-0.816,0.08-1.536v-2.992c0-0.656-0.016-1.04-0.063-1.456c0.399,0.048,0.736,0.064,1.216,0.064h4.32
		c0.592,0,0.911-0.016,1.279-0.064c-0.048,0.32-0.063,0.752-0.063,1.488v2.928c0,0.608,0.032,1.248,0.08,1.568h-1.088v-0.8h-4.672
		V152.089z M531.566,150.394h4.672v-3.328h-4.672V150.394z"/>
	<path fill="#00A0E9" d="M527.774,154.97c0.016,0.512,0.224,1.856,0.432,2.784c1.12-0.544,2.224-0.8,3.424-0.8
		c0.112,0,0.304,0,0.528,0.016c0.271-1.056,0.464-2.112,0.496-2.576l1.199,0.256c-0.096,0.256-0.096,0.256-0.432,1.68
		c-0.08,0.272-0.112,0.448-0.192,0.752c2.656,0.496,4.24,2.24,4.24,4.656c0,1.488-0.656,2.944-1.744,3.84
		c-0.815,0.688-1.968,1.248-3.231,1.584c-0.24,0.064-0.32,0.08-1.008,0.24c-0.128-0.416-0.208-0.544-0.624-1.072
		c0.912-0.08,1.536-0.24,2.384-0.592c1.12-0.464,1.92-1.04,2.399-1.744c0.465-0.672,0.704-1.44,0.704-2.272
		c0-1.952-1.168-3.232-3.376-3.696c-0.72,2.48-1.855,4.768-3.104,6.272c-1.024,1.248-1.92,1.824-2.848,1.824
		c-1.393,0-2.305-1.248-2.305-3.136c0-1.04,0.336-2.144,0.929-3.056c0.416-0.624,0.863-1.088,1.6-1.632
		c-0.112-0.512-0.304-1.456-0.448-2.256c-0.096-0.528-0.112-0.592-0.208-0.848L527.774,154.97z M526.398,160.698
		c-0.4,0.688-0.641,1.552-0.641,2.24c0,1.264,0.513,2.096,1.296,2.096c0.561,0,1.248-0.48,1.969-1.36
		c-0.641-1.344-1.152-2.832-1.505-4.304C526.99,159.833,526.686,160.186,526.398,160.698z M529.758,162.793
		c0.08-0.16,0.08-0.176,0.192-0.352c0.752-1.184,1.456-2.816,1.952-4.528c-0.177,0-0.32-0.016-0.4-0.016
		c-1.136,0-2.16,0.272-3.088,0.816c0.304,1.296,0.64,2.352,1.2,3.712c0.08,0.208,0.096,0.24,0.128,0.368H529.758z"/>
	<path fill="#00A0E9" d="M526.83,171.098c0.448,0.08,0.736,0.096,1.504,0.096c1.328,0,3.456-0.096,4.896-0.208
		c0.416-0.032,0.561-0.064,0.769-0.176l0.672,0.88c-0.224,0.112-0.304,0.176-0.816,0.672c-2.208,2.16-4.144,3.824-5.264,4.544
		l0.032,0.048c1.216-0.656,2.512-0.992,3.92-0.992c2.672,0,4.384,1.312,4.384,3.36c0,2.496-2.32,4.144-5.872,4.144
		c-2.256,0-3.552-0.832-3.552-2.304c0-1.072,0.992-1.872,2.32-1.872c1.071,0,2,0.464,2.64,1.312
		c0.336,0.448,0.512,0.832,0.736,1.536c1.68-0.464,2.56-1.44,2.56-2.8c0-1.536-1.28-2.448-3.439-2.448
		c-2.353,0-4.88,1.024-6.736,2.736l-0.72-1.024c0.576-0.336,1.151-0.752,2.239-1.632c1.713-1.36,4.24-3.584,5.345-4.672
		c0.096-0.096,0.096-0.096,0.224-0.224c0,0,0.032-0.032,0.064-0.064l0.063-0.064l-0.032-0.032c-0.048,0-0.048,0-0.144,0.016
		c-0.512,0.096-2.432,0.208-4.864,0.288c-0.352,0.016-0.512,0.032-0.864,0.08L526.83,171.098z M529.838,180.202
		c-0.8,0-1.296,0.384-1.296,0.992c0,0.416,0.208,0.72,0.64,0.976c0.416,0.224,1.104,0.368,1.792,0.368
		c0.4,0,0.593-0.016,1.168-0.112C531.79,180.97,530.99,180.202,529.838,180.202z"/>
</g>
<g>
	<path fill="#00A0E9" d="M783.023,10.251c0-0.688,0.017-1.152,0.048-1.92c-0.575,0.736-1.04,1.184-1.823,1.792
		c-0.192-0.4-0.368-0.656-0.624-0.912c1.248-0.848,2.271-1.856,3.231-3.152c0.368-0.496,0.608-0.944,0.769-1.376l0.991,0.56
		c-0.191,0.24-0.239,0.32-0.479,0.688c-0.336,0.544-0.624,0.912-1.072,1.44v6.464c0,0.864,0.032,1.504,0.112,1.952h-1.264
		c0.08-0.448,0.111-1.104,0.111-1.952V10.251z M785.231,1.916c-0.111,0.112-0.144,0.16-0.288,0.352
		c-0.96,1.312-2.111,2.432-3.552,3.472c-0.24-0.352-0.416-0.544-0.72-0.784c0.896-0.576,1.472-1.04,2.112-1.696
		c0.8-0.8,1.199-1.36,1.455-1.952L785.231,1.916z M787.552,7.227c-0.752,0-1.392,0.032-1.776,0.096v-1.12
		c0.385,0.064,1.008,0.096,1.776,0.096h5.616c0.815,0,1.392-0.032,1.76-0.096v1.12c-0.416-0.064-1.008-0.096-1.744-0.096h-0.912
		v7.008c0,1.024-0.384,1.296-1.792,1.296c-0.512,0-1.264-0.032-1.952-0.08c-0.048-0.448-0.111-0.736-0.256-1.104
		c0.912,0.128,1.601,0.192,2.256,0.192c0.544,0,0.672-0.064,0.672-0.384V7.227H787.552z M786.432,2.188
		c0.432,0.064,0.944,0.096,1.664,0.096h4.479c0.721,0,1.2-0.032,1.648-0.096v1.12c-0.48-0.064-1.008-0.096-1.648-0.096h-4.479
		c-0.64,0-1.184,0.032-1.664,0.096V2.188z"/>
	<path fill="#00A0E9" d="M780.527,30.139c0.784-0.048,1.92-0.272,3.504-0.688c0.656-1.504,1.072-2.736,1.232-3.728l1.008,0.288
		c-0.448,1.456-0.8,2.352-1.2,3.136c0.704-0.208,0.992-0.288,1.889-0.592l0.016,0.912c-1.904,0.64-3.712,1.168-5.536,1.6
		c-0.208,0.048-0.416,0.112-0.624,0.192L780.527,30.139z M780.72,17.947c0.448,0.08,0.848,0.096,1.632,0.096h2.816
		c0.768,0,1.151-0.016,1.6-0.096v1.072c-0.496-0.048-0.896-0.064-1.568-0.064h-2.88c-0.8,0-1.119,0.016-1.6,0.096V17.947z
		 M781.408,21.963c0-0.624-0.017-0.992-0.064-1.44c0.432,0.064,0.768,0.08,1.472,0.08h2.145c0.735,0,0.992-0.016,1.456-0.08
		c-0.049,0.496-0.064,0.752-0.064,1.408v1.872c0,0.72,0.016,1.024,0.064,1.424c-0.416-0.048-0.864-0.064-1.408-0.064H782.8
		c-0.592,0-1.024,0.016-1.456,0.064c0.048-0.528,0.064-0.864,0.064-1.504V21.963z M782.576,29.147
		c-0.305-1.216-0.561-1.92-1.089-3.04l0.896-0.32c0.512,1.072,0.752,1.696,1.136,3.008L782.576,29.147z M782.368,24.315h3.023
		v-2.864h-3.023V24.315z M790,29.547c-1.2,1.152-1.937,1.664-3.376,2.384c-0.257-0.336-0.385-0.464-0.784-0.8
		c0.88-0.352,1.28-0.56,1.936-0.992c0.576-0.4,0.864-0.64,1.393-1.184L790,29.547z M788.976,18.971c-0.72,0-1.12,0.016-1.568,0.096
		v-1.088c0.433,0.064,0.849,0.096,1.648,0.096h4.128c0.784,0,1.216-0.032,1.616-0.096v1.088c-0.48-0.08-0.832-0.096-1.552-0.096
		h-1.841c-0.191,0.608-0.447,1.264-0.672,1.744h1.937c0.735,0,1.12-0.016,1.456-0.064c-0.032,0.416-0.049,0.816-0.049,1.44v5.12
		c0,0.592,0.017,1.024,0.049,1.504c-0.433-0.032-0.896-0.048-1.376-0.048h-3.729c-0.464,0-0.832,0.016-1.376,0.048
		c0.032-0.48,0.048-0.992,0.048-1.488v-5.072c0-0.624-0.016-1.056-0.063-1.488c0.399,0.032,0.752,0.048,1.408,0.048h0.72
		c0.288-0.672,0.496-1.232,0.624-1.744H788.976z M788.64,23.067h4.496v-1.504h-4.496V23.067z M788.64,25.387h4.496v-1.504h-4.496
		V25.387z M788.64,27.803h4.496v-1.6h-4.496V27.803z M792.208,28.923c1.008,1.024,1.712,1.52,3.184,2.256
		c-0.256,0.224-0.464,0.448-0.768,0.848c-1.456-0.88-2.225-1.488-3.217-2.528L792.208,28.923z"/>
</g>
<g>
	<line stroke="#898989" stroke-width="6" x1="407.868" y1="92.917" x2="382.696" y2="92.917"/>
	<polygon fill="#898989" stroke="#898989" stroke-width="2" points="391.122,81.807 386.405,92.917 391.122,104.028 364.79,92.917 	
		"/>
</g>
</svg>
