<?xml version="1.0" encoding="utf-8"?>
<!-- Generator: Adobe Illustrator 12.0.0, SVG Export Plug-In . SVG Version: 6.00 Build 51448)  -->
<!DOCTYPE svg PUBLIC "-//W3C//DTD SVG 1.1//EN" "http://www.w3.org/Graphics/SVG/1.1/DTD/svg11.dtd" [
	<!ENTITY ns_svg "http://www.w3.org/2000/svg">
	<!ENTITY ns_xlink "http://www.w3.org/1999/xlink">
]>
<svg  version="1.1" id="レイヤー_1" xmlns="&ns_svg;" xmlns:xlink="&ns_xlink;" width="304.483" height="292.809"
	 viewBox="0 0 304.483 292.809" overflow="visible" enable-background="new 0 0 304.483 292.809" xml:space="preserve">
<g>
	<polyline fill="none" stroke="#00A0E9" stroke-width="0.5" points="175.961,276.644 154.188,276.644 154.188,235.486 	"/>
	<polyline fill="none" stroke="#00A0E9" stroke-width="0.5" points="169.074,280.622 175.961,276.644 169.074,272.667 	"/>
</g>
<g>
	<line fill="none" stroke="#00A0E9" stroke-width="0.5" x1="271.52" y1="288.467" x2="287.117" y2="288.467"/>
	<polyline fill="none" stroke="#00A0E9" stroke-width="0.5" points="278.406,292.445 271.52,288.467 278.406,284.49 	"/>
</g>
<rect x="177.289" y="0.25" fill="none" stroke="#00A0E9" stroke-width="0.5" width="35.998" height="288"/>
<line fill="none" stroke="#00A0E9" stroke-width="0.5" stroke-dasharray="4 4" x1="0" y1="288.25" x2="272.09" y2="288.25"/>
<line fill="none" stroke="#00A0E9" stroke-width="0.5" x1="177.289" y1="36.25" x2="213.287" y2="36.25"/>
<line fill="none" stroke="#00A0E9" stroke-width="0.5" x1="177.289" y1="72.25" x2="213.287" y2="72.25"/>
<line fill="none" stroke="#00A0E9" stroke-width="0.5" x1="177.289" y1="108.25" x2="213.287" y2="108.25"/>
<line fill="none" stroke="#00A0E9" stroke-width="0.5" x1="177.289" y1="144.25" x2="213.287" y2="144.25"/>
<line fill="none" stroke="#00A0E9" stroke-width="0.5" x1="177.289" y1="216.25" x2="213.287" y2="216.25"/>
<line fill="none" stroke="#00A0E9" stroke-width="0.5" x1="177.289" y1="252.25" x2="213.287" y2="252.25"/>
<line fill="none" stroke="#00A0E9" stroke-width="0.5" x1="177.289" y1="180.25" x2="213.287" y2="180.25"/>
<g>
	<path d="M239.434,6.957c0.181,1.152,1.188,1.908,2.484,1.908c0.612,0,1.944-0.144,2.844-0.36
		c2.845-0.576,11.521-2.124,16.416-2.664c1.08-0.144,2.053-0.504,2.448-0.864c2.988,0.576,4.141,1.224,4.141,2.34
		c0,0.576-0.648,0.72-1.584,0.72c-0.792,0-1.765-0.108-2.664-0.108c-3.853,0-8.713,3.744-10.62,6.876
		c-1.188,1.8-2.124,4.896-2.124,7.956c0,5.112,3.132,6.516,7.199,7.092c1.009,0.144,2.269,0,2.736,0.216
		c1.225,0.504,1.692,1.188,1.692,1.944c0,0.612-0.576,0.864-1.62,0.864c-0.324,0-0.685-0.036-1.08-0.072
		c-8.784-1.008-11.052-3.96-11.052-9.972c0-6.912,5.147-12.348,10.332-15.3l-0.036-0.108c-4.212,0.432-13.429,2.34-15.192,3.744
		c-0.504,0.324-0.936,0.648-1.656,0.648c-1.548,0-3.491-1.944-3.491-3.348c0-0.684,0.216-1.296,0.611-1.548L239.434,6.957z
		 M259.846,13.977c4.248,1.476,5.364,3.312,5.364,4.356c0,0.612-0.432,1.08-0.864,1.08c-0.611,0-0.899-0.36-1.151-0.972
		c-0.504-1.152-1.836-2.844-3.744-3.924L259.846,13.977z M263.554,10.881c4.248,1.476,5.328,3.348,5.328,4.392
		c0,0.612-0.396,1.044-0.828,1.044c-0.647,0-0.899-0.36-1.188-0.972c-0.468-1.152-1.836-2.808-3.744-3.888L263.554,10.881z"/>
	<path d="M259.558,41.697c1.656,0.144,3.853,0.468,3.853,1.44c0,1.044-2.736,1.548-5.58,2.16c-2.304,0.468-5.508,0.936-7.992,1.224
		c-0.144,1.512-0.288,3.42-0.324,5.544c3.24-1.044,5.4-1.044,7.236-1.044c0.036-0.648-0.18-1.152-0.432-1.548l0.468-0.36
		c0.9,0.648,1.296,1.332,1.44,2.016c5.976,0.612,9.72,3.888,9.72,8.856c0,5.256-4.645,9-15.336,9.972l-0.252-0.828
		c8.928-1.224,12.888-4.608,12.924-9.324c0-3.996-2.521-6.768-7.056-7.524v0.216c0,1.188-2.124,6.012-6.517,10.116
		c0.612,0.936,1.116,1.476,1.116,2.196c0,0.468-0.18,1.332-0.937,1.332c-0.396,0-1.26-0.54-2.052-1.908
		c-2.268,1.728-4.824,2.916-7.416,2.916c-1.8,0-3.815-1.008-3.815-3.744c0-3.996,3.132-8.28,9.071-10.728
		c0-2.088,0.108-4.176,0.145-6.012c-1.008,0.036-2.053,0.072-2.916,0.072c-2.916,0-4.177-1.044-5.004-2.556l0.54-0.504
		c0.972,1.008,2.447,1.404,4.392,1.404c0.864,0,2.088-0.072,3.024-0.108c0.035-0.936,0.107-2.412,0.107-3.348
		c0-1.152-0.252-1.98-1.943-1.98c-0.181,0-0.433,0-0.685,0.036l-0.072-0.144c0.396-0.756,1.116-1.26,2.196-1.26
		c1.944,0,3.853,0.756,3.853,1.908c0,0.54-0.648,0.936-0.828,1.836c-0.145,0.684-0.288,1.62-0.433,2.7
		c2.16-0.252,8.929-1.116,9.324-2.844L259.558,41.697z M243.07,65.098c1.764,0,3.815-1.008,5.76-2.52
		c-1.188-2.952-1.188-6.372-1.188-8.496c-4.535,2.34-6.876,5.292-6.876,8.856C240.766,64.414,241.342,65.098,243.07,65.098z
		 M249.479,53.29c0,1.836,0,5.004,1.151,7.776c2.916-2.556,5.328-6.372,5.94-8.964C255.022,52.102,252.43,52.102,249.479,53.29z"/>
	<path d="M247.354,90.693c2.808-1.584,6.191-2.7,8.855-2.7c7.092,0,9.36,3.924,9.36,8.208c0,4.932-4.284,8.82-11.772,8.82
		c-4.355,0-7.271-2.088-7.271-4.572c0-2.268,2.016-4.212,5.292-4.212c3.384,0,6.731,2.7,6.731,5.472c0,0.288-0.071,0.54-0.18,0.684
		c2.7-0.9,4.644-3.6,4.644-6.264c0-4.068-1.943-6.984-7.056-6.984c-2.448,0-9.252,1.548-12.996,7.272
		c-0.468,0.72-0.972,1.62-1.764,1.62c-0.685,0-1.225-0.9-1.225-1.512c0-1.152,1.225-2.16,1.836-2.772
		c2.988-2.952,10.477-10.476,14.725-14.724c0.288-0.252,0.396-0.432,0.396-0.54c0-0.144-0.144-0.18-0.359-0.18
		c-0.648,0-6.588,1.152-8.496,1.98c-0.864,0.396-0.937,0.792-1.656,0.792c-1.62,0-3.168-1.764-3.168-3.276
		c0-0.504,0.18-1.188,0.936-1.656l0.181,0.108c-0.108,1.152,0.684,2.016,1.908,2.016c2.231,0,8.388-0.936,9.828-1.404
		c0.611-0.216,1.079-1.008,1.476-1.008c1.44,0,3.276,1.692,3.276,2.484c0,0.9-1.08,0.756-2.376,1.764
		c-4.032,3.132-8.641,7.632-11.305,10.44L247.354,90.693z M253.906,103.149c0.864,0,1.836-0.072,2.7-0.252
		c-0.145-0.18-0.288-0.36-0.324-0.684c-0.216-2.484-2.448-4.716-4.968-4.716c-1.801,0-3.24,1.044-3.24,2.664
		C248.074,102.574,251.242,103.149,253.906,103.149z"/>
	<path d="M242.926,130.941h27.036v11.88h-1.368V132.31h-25.668V130.941z"/>
	<path d="M266.11,146.709l3.132,2.34c-0.252,0.288-0.864,0.576-1.584,0.72v27.792c0,0.108-0.684,0.936-2.34,0.936v-2.412h-24.084
		v1.764c0,0.072-0.145,0.972-2.305,0.972v-31.788l2.557,1.224h23.472L266.11,146.709z M241.234,175.222h24.084v-26.101h-24.084
		V175.222z M243.538,160.209c4.14,1.044,7.452,2.232,10.08,3.456c2.844-3.42,5.4-7.452,7.344-11.916l3.384,1.584
		c-0.18,0.288-0.432,0.504-0.936,0.504c-0.144,0-0.36-0.036-0.576-0.072c-2.088,4.176-4.572,7.74-7.38,10.764
		c5.256,2.772,6.984,5.508,6.984,6.984c0,0.648-0.36,1.044-0.937,1.044c-0.216,0-0.504-0.072-0.792-0.216
		c-1.224-1.836-3.528-4.068-6.768-6.264c-3.42,3.312-7.2,5.832-11.16,7.596l-0.433-0.54c3.42-1.836,6.876-4.572,10.009-8.064
		c-2.557-1.548-5.58-3.024-9.072-4.248L243.538,160.209z M243.646,152.181c3.78,1.728,4.969,3.888,4.969,5.328
		c0,1.044-0.576,1.728-1.26,1.728c-0.324,0-0.685-0.144-1.009-0.468c-0.18-2.052-1.655-4.716-3.06-6.3L243.646,152.181z
		 M250.342,150.777c3.492,1.872,4.608,4.068,4.608,5.616c0,1.152-0.612,1.944-1.368,1.944c-0.324,0-0.684-0.18-1.008-0.54
		c0-2.16-1.296-5.076-2.628-6.732L250.342,150.777z"/>
	<path d="M264.202,193.905c-0.036,0.252-1.188,0.792-1.944,0.792h-0.359v-1.26h-7.524v2.988h8.64l1.513-1.944l2.988,2.052
		c-0.288,0.504-0.721,0.756-1.692,0.756h-11.448v3.06h10.62l1.584-1.98l3.06,2.088c-0.252,0.54-0.647,0.756-1.691,0.756h-30.78
		l-0.252-0.864h15.156v-3.06h-12.349l-0.252-0.864h12.601v-2.988h-10.836l-0.252-0.864h11.088v-3.132h-15.192l-0.252-0.864h15.444
		v-3.024h-10.62l-0.252-0.864h10.872v-3.204l3.996,0.324c-0.036,0.612-0.469,0.828-1.692,1.008v1.872h7.164l1.08-1.44l3.096,2.196
		c-0.252,0.288-0.828,0.576-1.512,0.72v2.412h1.404l1.512-1.944l2.916,2.052c-0.324,0.504-0.684,0.756-1.728,0.756h-4.104V193.905z
		 M261.718,203.949l1.08-1.44l3.168,2.232c-0.252,0.288-0.828,0.612-1.548,0.756v8.388c0,0.036-0.756,0.72-2.34,0.72v-1.764h-17.604
		v1.188c0,0.072-0.359,0.828-2.304,0.828v-12.024l2.556,1.116H261.718z M262.078,204.813h-17.604v3.06h17.604V204.813z
		 M244.474,211.977h17.604v-3.24h-17.604V211.977z M254.374,185.553v3.024h7.524v-3.024H254.374z M254.374,192.573h7.524v-3.132
		h-7.524V192.573z"/>
	<path d="M249.514,239.301c-0.071,0.108-1.008,0.504-1.8,0.504h-0.432v-1.656h-6.156v7.488c1.62-0.36,3.456-0.756,5.328-1.224
		c-0.756-1.26-1.692-2.484-2.592-3.348l0.359-0.288c4.5,2.016,5.904,4.464,5.904,6.048c0,0.972-0.54,1.584-1.188,1.584
		c-0.324,0-0.685-0.144-1.009-0.468c-0.144-0.864-0.54-1.872-1.08-2.844c-1.943,0.936-4.571,2.232-7.92,3.708
		c-0.144,0.468-0.432,0.756-0.792,0.9l-1.512-3.132l2.304-0.432v-18.216c-0.647,0.72-1.332,1.404-2.016,1.98l-0.504-0.324
		c2.556-2.988,4.932-8.28,5.904-11.988l3.852,0.396c-0.072,0.396-0.432,0.612-1.296,0.72c4.86,1.62,6.336,3.744,6.336,5.148
		c0,0.864-0.576,1.44-1.26,1.44c-0.288,0-0.612-0.108-0.9-0.36c-0.54-1.728-2.088-3.996-4.392-5.796
		c-1.116,2.484-2.88,5.436-4.969,7.92l1.62,0.792h1.765v-4.068l3.456,0.288c-0.072,0.396-0.36,0.612-1.261,0.756v3.024h2.16
		l0.864-1.296l2.556,2.124c-0.252,0.252-0.756,0.504-1.332,0.612V239.301z M247.282,228.717h-6.156v3.852h6.156V228.717z
		 M241.126,237.285h6.156v-3.852h-6.156V237.285z M267.622,221.121l2.736,2.664c-0.288,0.252-0.685,0.324-1.368,0.36
		c-0.756,0.864-2.124,2.304-2.952,3.06l-0.504-0.252c0.216-0.792,0.576-2.304,0.828-3.42H254.23c0,1.764-0.792,3.852-2.628,3.852
		c-0.54,0-1.116-0.252-1.116-0.936c0-0.504,0.396-1.044,0.936-1.404c0.9-0.612,1.872-2.304,1.872-3.852l0.648,0.036
		c0.144,0.504,0.216,0.972,0.252,1.44h4.752v-5.184l3.78,0.324c-0.036,0.54-0.36,0.756-1.44,0.9v3.96h4.86L267.622,221.121z
		 M264.994,239.481l1.008-1.368l2.916,2.088c-0.18,0.252-0.756,0.54-1.368,0.648v8.46c0,0.108-0.684,0.828-2.231,0.828v-2.268
		h-9.612v2.088c0,0.036-0.216,0.864-2.232,0.864v-24.012l2.412,1.152h8.137l1.044-1.332l2.952,2.088
		c-0.217,0.252-0.757,0.54-1.44,0.648v7.02c0,0.072-0.648,0.72-2.232,0.72v-1.8h-8.64v4.176H264.994z M264.346,228.825h-8.64v5.616
		h8.64V228.825z M255.706,247.005h9.612v-6.66h-9.612V247.005z"/>
	<path d="M263.662,265.365h-27.036v-11.88h1.368v10.512h25.668V265.365z"/>
	<path d="M181.434,6.957c0.18,1.152,1.188,1.908,2.484,1.908c0.612,0,1.944-0.144,2.844-0.36c2.844-0.576,11.52-2.124,16.416-2.664
		c1.08-0.144,2.053-0.504,2.448-0.864c2.988,0.576,4.141,1.224,4.141,2.34c0,0.576-0.648,0.72-1.584,0.72
		c-0.792,0-1.765-0.108-2.664-0.108c-3.853,0-8.712,3.744-10.621,6.876c-1.188,1.8-2.124,4.896-2.124,7.956
		c0,5.112,3.132,6.516,7.2,7.092c1.009,0.144,2.269,0,2.736,0.216c1.225,0.504,1.692,1.188,1.692,1.944
		c0,0.612-0.576,0.864-1.62,0.864c-0.324,0-0.685-0.036-1.08-0.072c-8.784-1.008-11.052-3.96-11.052-9.972
		c0-6.912,5.148-12.348,10.333-15.3l-0.036-0.108c-4.212,0.432-13.428,2.34-15.192,3.744c-0.504,0.324-0.936,0.648-1.656,0.648
		c-1.548,0-3.492-1.944-3.492-3.348c0-0.684,0.216-1.296,0.612-1.548L181.434,6.957z M201.846,13.977
		c4.248,1.476,5.364,3.312,5.364,4.356c0,0.612-0.432,1.08-0.864,1.08c-0.611,0-0.899-0.36-1.151-0.972
		c-0.504-1.152-1.836-2.844-3.744-3.924L201.846,13.977z M205.554,10.881c4.248,1.476,5.328,3.348,5.328,4.392
		c0,0.612-0.396,1.044-0.828,1.044c-0.647,0-0.899-0.36-1.188-0.972c-0.468-1.152-1.836-2.808-3.744-3.888L205.554,10.881z"/>
	<path d="M201.558,41.697c1.656,0.144,3.853,0.468,3.853,1.44c0,1.044-2.736,1.548-5.58,2.16c-2.304,0.468-5.508,0.936-7.992,1.224
		c-0.144,1.512-0.288,3.42-0.324,5.544c3.24-1.044,5.4-1.044,7.236-1.044c0.036-0.648-0.18-1.152-0.432-1.548l0.468-0.36
		c0.9,0.648,1.296,1.332,1.44,2.016c5.976,0.612,9.72,3.888,9.72,8.856c0,5.256-4.645,9-15.336,9.972l-0.252-0.828
		c8.928-1.224,12.888-4.608,12.924-9.324c0-3.996-2.521-6.768-7.056-7.524v0.216c0,1.188-2.125,6.012-6.517,10.116
		c0.612,0.936,1.116,1.476,1.116,2.196c0,0.468-0.18,1.332-0.936,1.332c-0.396,0-1.26-0.54-2.052-1.908
		c-2.268,1.728-4.824,2.916-7.416,2.916c-1.8,0-3.816-1.008-3.816-3.744c0-3.996,3.132-8.28,9.072-10.728
		c0-2.088,0.108-4.176,0.144-6.012c-1.008,0.036-2.052,0.072-2.916,0.072c-2.916,0-4.176-1.044-5.004-2.556l0.54-0.504
		c0.972,1.008,2.448,1.404,4.392,1.404c0.864,0,2.088-0.072,3.024-0.108c0.036-0.936,0.108-2.412,0.108-3.348
		c0-1.152-0.252-1.98-1.944-1.98c-0.18,0-0.432,0-0.684,0.036l-0.072-0.144c0.396-0.756,1.116-1.26,2.196-1.26
		c1.944,0,3.852,0.756,3.852,1.908c0,0.54-0.648,0.936-0.828,1.836c-0.144,0.684-0.288,1.62-0.432,2.7
		c2.16-0.252,8.928-1.116,9.324-2.844L201.558,41.697z M185.07,65.098c1.764,0,3.816-1.008,5.76-2.52
		c-1.188-2.952-1.188-6.372-1.188-8.496c-4.536,2.34-6.876,5.292-6.876,8.856C182.766,64.414,183.342,65.098,185.07,65.098z
		 M191.478,53.29c0,1.836,0,5.004,1.152,7.776c2.916-2.556,5.328-6.372,5.94-8.964C197.022,52.102,194.43,52.102,191.478,53.29z"/>
	<path d="M189.354,90.693c2.808-1.584,6.192-2.7,8.856-2.7c7.092,0,9.36,3.924,9.36,8.208c0,4.932-4.284,8.82-11.772,8.82
		c-4.356,0-7.272-2.088-7.272-4.572c0-2.268,2.016-4.212,5.292-4.212c3.384,0,6.732,2.7,6.732,5.472c0,0.288-0.071,0.54-0.18,0.684
		c2.7-0.9,4.644-3.6,4.644-6.264c0-4.068-1.943-6.984-7.056-6.984c-2.448,0-9.252,1.548-12.996,7.272
		c-0.468,0.72-0.972,1.62-1.764,1.62c-0.684,0-1.224-0.9-1.224-1.512c0-1.152,1.224-2.16,1.836-2.772
		c2.988-2.952,10.476-10.476,14.724-14.724c0.288-0.252,0.396-0.432,0.396-0.54c0-0.144-0.144-0.18-0.359-0.18
		c-0.648,0-6.588,1.152-8.496,1.98c-0.864,0.396-0.936,0.792-1.656,0.792c-1.62,0-3.168-1.764-3.168-3.276
		c0-0.504,0.18-1.188,0.936-1.656l0.18,0.108c-0.108,1.152,0.684,2.016,1.908,2.016c2.232,0,8.388-0.936,9.828-1.404
		c0.612-0.216,1.08-1.008,1.476-1.008c1.44,0,3.276,1.692,3.276,2.484c0,0.9-1.08,0.756-2.376,1.764
		c-4.032,3.132-8.641,7.632-11.305,10.44L189.354,90.693z M195.906,103.149c0.864,0,1.836-0.072,2.7-0.252
		c-0.145-0.18-0.288-0.36-0.324-0.684c-0.216-2.484-2.448-4.716-4.968-4.716c-1.8,0-3.24,1.044-3.24,2.664
		C190.074,102.574,193.242,103.149,195.906,103.149z"/>
	<path d="M184.926,130.941h27.036v11.88h-1.368V132.31h-25.668V130.941z"/>
	<path d="M208.11,146.709l3.132,2.34c-0.252,0.288-0.864,0.576-1.584,0.72v27.792c0,0.108-0.684,0.936-2.34,0.936v-2.412h-24.084
		v1.764c0,0.072-0.144,0.972-2.304,0.972v-31.788l2.556,1.224h23.472L208.11,146.709z M183.234,175.222h24.084v-26.101h-24.084
		V175.222z M185.538,160.209c4.14,1.044,7.452,2.232,10.08,3.456c2.844-3.42,5.4-7.452,7.344-11.916l3.384,1.584
		c-0.18,0.288-0.432,0.504-0.936,0.504c-0.144,0-0.36-0.036-0.576-0.072c-2.088,4.176-4.572,7.74-7.38,10.764
		c5.256,2.772,6.984,5.508,6.984,6.984c0,0.648-0.36,1.044-0.937,1.044c-0.216,0-0.504-0.072-0.792-0.216
		c-1.224-1.836-3.528-4.068-6.768-6.264c-3.42,3.312-7.2,5.832-11.16,7.596l-0.432-0.54c3.42-1.836,6.876-4.572,10.008-8.064
		c-2.556-1.548-5.58-3.024-9.072-4.248L185.538,160.209z M185.646,152.181c3.78,1.728,4.968,3.888,4.968,5.328
		c0,1.044-0.576,1.728-1.26,1.728c-0.324,0-0.684-0.144-1.008-0.468c-0.18-2.052-1.656-4.716-3.06-6.3L185.646,152.181z
		 M192.342,150.777c3.492,1.872,4.608,4.068,4.608,5.616c0,1.152-0.612,1.944-1.368,1.944c-0.324,0-0.684-0.18-1.008-0.54
		c0-2.16-1.296-5.076-2.628-6.732L192.342,150.777z"/>
	<path d="M206.202,193.905c-0.036,0.252-1.188,0.792-1.944,0.792h-0.359v-1.26h-7.524v2.988h8.64l1.513-1.944l2.988,2.052
		c-0.288,0.504-0.721,0.756-1.692,0.756h-11.448v3.06h10.62l1.584-1.98l3.06,2.088c-0.252,0.54-0.647,0.756-1.691,0.756h-30.78
		l-0.252-0.864h15.156v-3.06h-12.348l-0.252-0.864h12.6v-2.988h-10.836l-0.252-0.864h11.088v-3.132h-15.192l-0.252-0.864h15.444
		v-3.024h-10.62l-0.252-0.864h10.872v-3.204l3.996,0.324c-0.036,0.612-0.468,0.828-1.692,1.008v1.872h7.164l1.08-1.44l3.096,2.196
		c-0.252,0.288-0.828,0.576-1.512,0.72v2.412h1.404l1.512-1.944l2.916,2.052c-0.324,0.504-0.684,0.756-1.728,0.756h-4.104V193.905z
		 M203.718,203.949l1.08-1.44l3.168,2.232c-0.252,0.288-0.828,0.612-1.548,0.756v8.388c0,0.036-0.756,0.72-2.34,0.72v-1.764h-17.604
		v1.188c0,0.072-0.36,0.828-2.304,0.828v-12.024l2.556,1.116H203.718z M204.078,204.813h-17.604v3.06h17.604V204.813z
		 M186.474,211.977h17.604v-3.24h-17.604V211.977z M196.374,185.553v3.024h7.524v-3.024H196.374z M196.374,192.573h7.524v-3.132
		h-7.524V192.573z"/>
	<path d="M191.514,239.301c-0.072,0.108-1.008,0.504-1.8,0.504h-0.432v-1.656h-6.156v7.488c1.62-0.36,3.456-0.756,5.328-1.224
		c-0.756-1.26-1.692-2.484-2.592-3.348l0.36-0.288c4.5,2.016,5.904,4.464,5.904,6.048c0,0.972-0.54,1.584-1.188,1.584
		c-0.324,0-0.684-0.144-1.008-0.468c-0.144-0.864-0.54-1.872-1.08-2.844c-1.944,0.936-4.572,2.232-7.92,3.708
		c-0.144,0.468-0.432,0.756-0.792,0.9l-1.512-3.132l2.304-0.432v-18.216c-0.648,0.72-1.332,1.404-2.016,1.98l-0.504-0.324
		c2.556-2.988,4.932-8.28,5.904-11.988l3.852,0.396c-0.072,0.396-0.432,0.612-1.296,0.72c4.86,1.62,6.336,3.744,6.336,5.148
		c0,0.864-0.576,1.44-1.26,1.44c-0.288,0-0.612-0.108-0.9-0.36c-0.54-1.728-2.088-3.996-4.392-5.796
		c-1.116,2.484-2.88,5.436-4.968,7.92l1.62,0.792h1.764v-4.068l3.456,0.288c-0.072,0.396-0.36,0.612-1.26,0.756v3.024h2.16
		l0.864-1.296l2.556,2.124c-0.252,0.252-0.756,0.504-1.332,0.612V239.301z M189.282,228.717h-6.156v3.852h6.156V228.717z
		 M183.126,237.285h6.156v-3.852h-6.156V237.285z M209.622,221.121l2.736,2.664c-0.288,0.252-0.685,0.324-1.368,0.36
		c-0.756,0.864-2.124,2.304-2.952,3.06l-0.504-0.252c0.216-0.792,0.576-2.304,0.828-3.42H196.23c0,1.764-0.792,3.852-2.628,3.852
		c-0.54,0-1.116-0.252-1.116-0.936c0-0.504,0.396-1.044,0.936-1.404c0.9-0.612,1.872-2.304,1.872-3.852l0.648,0.036
		c0.144,0.504,0.216,0.972,0.252,1.44h4.752v-5.184l3.78,0.324c-0.036,0.54-0.36,0.756-1.44,0.9v3.96h4.86L209.622,221.121z
		 M206.994,239.481l1.008-1.368l2.916,2.088c-0.18,0.252-0.756,0.54-1.368,0.648v8.46c0,0.108-0.684,0.828-2.231,0.828v-2.268
		h-9.612v2.088c0,0.036-0.216,0.864-2.232,0.864v-24.012l2.412,1.152h8.136l1.044-1.332l2.952,2.088
		c-0.217,0.252-0.757,0.54-1.44,0.648v7.02c0,0.072-0.648,0.72-2.232,0.72v-1.8h-8.64v4.176H206.994z M206.346,228.825h-8.64v5.616
		h8.64V228.825z M197.706,247.005h9.612v-6.66h-9.612V247.005z"/>
	<path d="M205.662,265.365h-27.036v-11.88h1.368v10.512h25.668V265.365z"/>
</g>
<rect x="11.955" y="18.25" fill="none" stroke="#00A0E9" stroke-width="0.5" width="35.998" height="270"/>
<line fill="none" stroke="#00A0E9" stroke-width="0.5" x1="11.955" y1="18.25" x2="47.953" y2="18.25"/>
<line fill="none" stroke="#00A0E9" stroke-width="0.5" x1="11.955" y1="90.25" x2="47.953" y2="90.25"/>
<line fill="none" stroke="#00A0E9" stroke-width="0.5" x1="11.955" y1="54.25" x2="47.953" y2="54.25"/>
<line fill="none" stroke="#00A0E9" stroke-width="0.5" x1="11.955" y1="126.25" x2="47.953" y2="126.25"/>
<line fill="none" stroke="#00A0E9" stroke-width="0.5" x1="11.955" y1="162.25" x2="47.953" y2="162.25"/>
<line fill="none" stroke="#00A0E9" stroke-width="0.5" x1="11.955" y1="198.25" x2="47.953" y2="198.25"/>
<line fill="none" stroke="#00A0E9" stroke-width="0.5" x1="11.955" y1="234.25" x2="47.953" y2="234.25"/>
<line fill="none" stroke="#00A0E9" stroke-width="0.5" x1="11.955" y1="270.25" x2="47.953" y2="270.25"/>
<g>
	<path d="M74.1,24.957c0.18,1.152,1.188,1.908,2.484,1.908c0.612,0,1.944-0.144,2.844-0.36c2.844-0.576,11.52-2.124,16.416-2.664
		c1.08-0.144,2.052-0.504,2.448-0.864c2.988,0.576,4.14,1.224,4.14,2.34c0,0.576-0.648,0.72-1.584,0.72
		c-0.792,0-1.764-0.108-2.664-0.108c-3.852,0-8.712,3.744-10.62,6.876c-1.188,1.8-2.124,4.896-2.124,7.956
		c0,5.112,3.132,6.516,7.2,7.092c1.008,0.144,2.268,0,2.736,0.216c1.224,0.504,1.692,1.188,1.692,1.944
		c0,0.612-0.576,0.864-1.62,0.864c-0.324,0-0.684-0.036-1.08-0.072c-8.784-1.008-11.052-3.96-11.052-9.972
		c0-6.912,5.148-12.348,10.332-15.3l-0.036-0.108c-4.212,0.432-13.428,2.34-15.192,3.744c-0.504,0.324-0.936,0.648-1.656,0.648
		c-1.548,0-3.492-1.944-3.492-3.348c0-0.684,0.216-1.296,0.612-1.548L74.1,24.957z M94.512,31.977
		c4.248,1.476,5.364,3.312,5.364,4.356c0,0.612-0.432,1.08-0.864,1.08c-0.612,0-0.9-0.36-1.152-0.972
		c-0.504-1.152-1.836-2.844-3.744-3.924L94.512,31.977z M98.22,28.881c4.248,1.476,5.328,3.348,5.328,4.392
		c0,0.612-0.396,1.044-0.828,1.044c-0.648,0-0.9-0.36-1.188-0.972c-0.468-1.152-1.836-2.808-3.744-3.888L98.22,28.881z"/>
	<path d="M94.224,59.697c1.656,0.144,3.852,0.468,3.852,1.44c0,1.044-2.736,1.548-5.58,2.16c-2.304,0.468-5.508,0.936-7.992,1.224
		c-0.144,1.512-0.288,3.42-0.324,5.544c3.24-1.044,5.4-1.044,7.236-1.044c0.036-0.648-0.18-1.152-0.432-1.548l0.468-0.36
		c0.9,0.648,1.296,1.332,1.44,2.016c5.976,0.612,9.72,3.888,9.72,8.856c0,5.256-4.644,9-15.336,9.972l-0.252-0.828
		c8.928-1.224,12.888-4.608,12.924-9.324c0-3.996-2.52-6.768-7.056-7.524v0.216c0,1.188-2.124,6.012-6.516,10.116
		c0.612,0.936,1.116,1.476,1.116,2.196c0,0.468-0.18,1.332-0.936,1.332c-0.396,0-1.26-0.54-2.052-1.908
		c-2.268,1.728-4.824,2.916-7.416,2.916c-1.8,0-3.816-1.008-3.816-3.744c0-3.996,3.132-8.28,9.072-10.728
		c0-2.088,0.108-4.176,0.144-6.012c-1.008,0.036-2.052,0.072-2.916,0.072c-2.916,0-4.176-1.044-5.004-2.556l0.54-0.504
		c0.972,1.008,2.448,1.404,4.392,1.404c0.864,0,2.088-0.072,3.024-0.108c0.036-0.936,0.108-2.412,0.108-3.348
		c0-1.152-0.252-1.98-1.944-1.98c-0.18,0-0.432,0-0.684,0.036l-0.072-0.144c0.396-0.756,1.116-1.26,2.196-1.26
		c1.944,0,3.852,0.756,3.852,1.908c0,0.54-0.648,0.936-0.828,1.836c-0.144,0.684-0.288,1.62-0.432,2.7
		c2.16-0.252,8.928-1.116,9.324-2.844L94.224,59.697z M77.736,83.098c1.764,0,3.816-1.008,5.76-2.52
		c-1.188-2.952-1.188-6.372-1.188-8.496c-4.536,2.34-6.876,5.292-6.876,8.856C75.432,82.414,76.008,83.098,77.736,83.098z
		 M84.144,71.29c0,1.836,0,5.004,1.152,7.776c2.916-2.556,5.328-6.372,5.94-8.964C89.688,70.102,87.096,70.102,84.144,71.29z"/>
	<path d="M82.02,108.693c2.808-1.584,6.192-2.7,8.856-2.7c7.092,0,9.36,3.924,9.36,8.208c0,4.932-4.284,8.82-11.772,8.82
		c-4.356,0-7.272-2.088-7.272-4.572c0-2.268,2.016-4.212,5.292-4.212c3.384,0,6.732,2.7,6.732,5.472c0,0.288-0.072,0.54-0.18,0.684
		c2.7-0.9,4.644-3.6,4.644-6.264c0-4.068-1.944-6.984-7.056-6.984c-2.448,0-9.252,1.548-12.996,7.272
		c-0.468,0.72-0.972,1.62-1.764,1.62c-0.684,0-1.224-0.9-1.224-1.512c0-1.152,1.224-2.16,1.836-2.772
		c2.988-2.952,10.476-10.476,14.724-14.724c0.288-0.252,0.396-0.432,0.396-0.54c0-0.144-0.144-0.18-0.36-0.18
		c-0.648,0-6.588,1.152-8.496,1.98c-0.864,0.396-0.936,0.792-1.656,0.792c-1.62,0-3.168-1.764-3.168-3.276
		c0-0.504,0.18-1.188,0.936-1.656l0.18,0.108c-0.108,1.152,0.684,2.016,1.908,2.016c2.232,0,8.388-0.936,9.828-1.404
		c0.612-0.216,1.08-1.008,1.476-1.008c1.44,0,3.276,1.692,3.276,2.484c0,0.9-1.08,0.756-2.376,1.764
		c-4.032,3.132-8.64,7.632-11.304,10.44L82.02,108.693z M88.572,121.149c0.864,0,1.836-0.072,2.7-0.252
		c-0.144-0.18-0.288-0.36-0.324-0.684c-0.216-2.484-2.448-4.716-4.968-4.716c-1.8,0-3.24,1.044-3.24,2.664
		C82.74,120.574,85.908,121.149,88.572,121.149z"/>
	<path d="M77.592,148.941h27.037v11.88h-1.368V150.31H77.592V148.941z"/>
	<path d="M100.776,164.709l3.132,2.34c-0.252,0.288-0.864,0.576-1.584,0.72v27.792c0,0.108-0.684,0.936-2.34,0.936v-2.412H75.9
		v1.764c0,0.072-0.144,0.972-2.304,0.972v-31.788l2.556,1.224h23.472L100.776,164.709z M75.9,193.222h24.084v-26.101H75.9V193.222z
		 M78.204,178.209c4.14,1.044,7.452,2.232,10.08,3.456c2.844-3.42,5.4-7.452,7.344-11.916l3.384,1.584
		c-0.18,0.288-0.432,0.504-0.936,0.504c-0.144,0-0.36-0.036-0.576-0.072c-2.088,4.176-4.572,7.74-7.38,10.764
		c5.256,2.772,6.984,5.508,6.984,6.984c0,0.648-0.36,1.044-0.936,1.044c-0.216,0-0.504-0.072-0.792-0.216
		c-1.224-1.836-3.528-4.068-6.768-6.264c-3.42,3.312-7.2,5.832-11.16,7.596l-0.432-0.54c3.42-1.836,6.876-4.572,10.008-8.064
		c-2.556-1.548-5.58-3.024-9.072-4.248L78.204,178.209z M78.312,170.181c3.78,1.728,4.968,3.888,4.968,5.328
		c0,1.044-0.576,1.728-1.26,1.728c-0.324,0-0.684-0.144-1.008-0.468c-0.18-2.052-1.656-4.716-3.06-6.3L78.312,170.181z
		 M85.008,168.777c3.492,1.872,4.608,4.068,4.608,5.616c0,1.152-0.612,1.944-1.368,1.944c-0.324,0-0.684-0.18-1.008-0.54
		c0-2.16-1.296-5.076-2.628-6.732L85.008,168.777z"/>
	<path d="M98.868,211.905c-0.036,0.252-1.188,0.792-1.944,0.792h-0.36v-1.26H89.04v2.988h8.64l1.512-1.944l2.988,2.052
		c-0.288,0.504-0.72,0.756-1.692,0.756H89.04v3.06h10.62l1.584-1.98l3.06,2.088c-0.252,0.54-0.648,0.756-1.692,0.756h-30.78
		l-0.252-0.864h15.156v-3.06H74.388l-0.252-0.864h12.6v-2.988H75.9l-0.252-0.864h11.088v-3.132H71.544l-0.252-0.864h15.444v-3.024
		h-10.62l-0.252-0.864h10.872v-3.204l3.996,0.324c-0.036,0.612-0.468,0.828-1.692,1.008v1.872h7.164l1.08-1.44l3.096,2.196
		c-0.252,0.288-0.828,0.576-1.512,0.72v2.412h1.404l1.512-1.944l2.916,2.052c-0.324,0.504-0.684,0.756-1.728,0.756h-4.104V211.905z
		 M96.384,221.949l1.08-1.44l3.168,2.232c-0.252,0.288-0.828,0.612-1.548,0.756v8.388c0,0.036-0.756,0.72-2.34,0.72v-1.764H79.14
		v1.188c0,0.072-0.36,0.828-2.304,0.828v-12.024l2.556,1.116H96.384z M96.744,222.813H79.14v3.06h17.604V222.813z M79.14,229.977
		h17.604v-3.24H79.14V229.977z M89.04,203.553v3.024h7.524v-3.024H89.04z M89.04,210.573h7.524v-3.132H89.04V210.573z"/>
	<path d="M84.18,257.301c-0.072,0.108-1.008,0.504-1.8,0.504h-0.432v-1.656h-6.156v7.488c1.62-0.36,3.456-0.756,5.328-1.224
		c-0.756-1.26-1.692-2.484-2.592-3.348l0.36-0.288c4.5,2.016,5.904,4.464,5.904,6.048c0,0.972-0.54,1.584-1.188,1.584
		c-0.324,0-0.684-0.144-1.008-0.468c-0.144-0.864-0.54-1.872-1.08-2.844c-1.944,0.936-4.572,2.232-7.92,3.708
		c-0.144,0.468-0.432,0.756-0.792,0.9l-1.512-3.132l2.304-0.432v-18.216c-0.648,0.72-1.332,1.404-2.016,1.98l-0.504-0.324
		c2.556-2.988,4.932-8.28,5.904-11.988l3.852,0.396c-0.072,0.396-0.432,0.612-1.296,0.72c4.86,1.62,6.336,3.744,6.336,5.148
		c0,0.864-0.576,1.44-1.26,1.44c-0.288,0-0.612-0.108-0.9-0.36c-0.54-1.728-2.088-3.996-4.392-5.796
		c-1.116,2.484-2.88,5.436-4.968,7.92l1.62,0.792h1.764v-4.068l3.456,0.288c-0.072,0.396-0.36,0.612-1.26,0.756v3.024h2.16
		l0.864-1.296l2.556,2.124c-0.252,0.252-0.756,0.504-1.332,0.612V257.301z M81.948,246.717h-6.156v3.852h6.156V246.717z
		 M75.792,255.285h6.156v-3.852h-6.156V255.285z M102.288,239.121l2.736,2.664c-0.288,0.252-0.684,0.324-1.368,0.36
		c-0.756,0.864-2.124,2.304-2.952,3.06l-0.504-0.252c0.216-0.792,0.576-2.304,0.828-3.42H88.896c0,1.764-0.792,3.852-2.628,3.852
		c-0.54,0-1.116-0.252-1.116-0.936c0-0.504,0.396-1.044,0.936-1.404c0.9-0.612,1.872-2.304,1.872-3.852l0.648,0.036
		c0.144,0.504,0.216,0.972,0.252,1.44h4.752v-5.184l3.78,0.324c-0.036,0.54-0.36,0.756-1.44,0.9v3.96h4.86L102.288,239.121z
		 M99.66,257.481l1.008-1.368l2.916,2.088c-0.18,0.252-0.756,0.54-1.368,0.648v8.46c0,0.108-0.684,0.828-2.232,0.828v-2.268h-9.612
		v2.088c0,0.036-0.216,0.864-2.232,0.864v-24.012l2.412,1.152h8.136l1.044-1.332l2.952,2.088c-0.216,0.252-0.756,0.54-1.44,0.648
		v7.02c0,0.072-0.648,0.72-2.232,0.72v-1.8h-8.64v4.176H99.66z M99.012,246.825h-8.64v5.616h8.64V246.825z M90.372,265.005h9.612
		v-6.66h-9.612V265.005z"/>
	<path d="M98.328,283.365H71.292v-11.88h1.368v10.512h25.668V283.365z"/>
	<path d="M16.1,24.957c0.18,1.152,1.188,1.908,2.484,1.908c0.612,0,1.944-0.144,2.844-0.36c2.844-0.576,11.52-2.124,16.416-2.664
		c1.08-0.144,2.052-0.504,2.448-0.864c2.988,0.576,4.14,1.224,4.14,2.34c0,0.576-0.648,0.72-1.584,0.72
		c-0.792,0-1.764-0.108-2.664-0.108c-3.852,0-8.712,3.744-10.62,6.876c-1.188,1.8-2.124,4.896-2.124,7.956
		c0,5.112,3.132,6.516,7.2,7.092c1.008,0.144,2.268,0,2.736,0.216c1.224,0.504,1.692,1.188,1.692,1.944
		c0,0.612-0.576,0.864-1.62,0.864c-0.324,0-0.684-0.036-1.08-0.072c-8.784-1.008-11.052-3.96-11.052-9.972
		c0-6.912,5.148-12.348,10.332-15.3l-0.036-0.108c-4.212,0.432-13.428,2.34-15.192,3.744c-0.504,0.324-0.936,0.648-1.656,0.648
		c-1.548,0-3.492-1.944-3.492-3.348c0-0.684,0.216-1.296,0.612-1.548L16.1,24.957z M36.512,31.977
		c4.248,1.476,5.364,3.312,5.364,4.356c0,0.612-0.432,1.08-0.864,1.08c-0.612,0-0.9-0.36-1.152-0.972
		c-0.504-1.152-1.836-2.844-3.744-3.924L36.512,31.977z M40.22,28.881c4.248,1.476,5.328,3.348,5.328,4.392
		c0,0.612-0.396,1.044-0.828,1.044c-0.648,0-0.9-0.36-1.188-0.972c-0.468-1.152-1.836-2.808-3.744-3.888L40.22,28.881z"/>
	<path d="M36.224,59.697c1.656,0.144,3.852,0.468,3.852,1.44c0,1.044-2.736,1.548-5.58,2.16c-2.304,0.468-5.508,0.936-7.992,1.224
		c-0.144,1.512-0.288,3.42-0.324,5.544c3.24-1.044,5.4-1.044,7.236-1.044c0.036-0.648-0.18-1.152-0.432-1.548l0.468-0.36
		c0.9,0.648,1.296,1.332,1.44,2.016c5.976,0.612,9.72,3.888,9.72,8.856c0,5.256-4.644,9-15.336,9.972l-0.252-0.828
		c8.928-1.224,12.888-4.608,12.924-9.324c0-3.996-2.52-6.768-7.056-7.524v0.216c0,1.188-2.124,6.012-6.516,10.116
		c0.612,0.936,1.116,1.476,1.116,2.196c0,0.468-0.18,1.332-0.936,1.332c-0.396,0-1.26-0.54-2.052-1.908
		c-2.268,1.728-4.824,2.916-7.416,2.916c-1.8,0-3.816-1.008-3.816-3.744c0-3.996,3.132-8.28,9.072-10.728
		c0-2.088,0.108-4.176,0.144-6.012c-1.008,0.036-2.052,0.072-2.916,0.072c-2.916,0-4.176-1.044-5.004-2.556l0.54-0.504
		c0.972,1.008,2.448,1.404,4.392,1.404c0.864,0,2.088-0.072,3.024-0.108c0.036-0.936,0.108-2.412,0.108-3.348
		c0-1.152-0.252-1.98-1.944-1.98c-0.18,0-0.432,0-0.684,0.036l-0.072-0.144c0.396-0.756,1.116-1.26,2.196-1.26
		c1.944,0,3.852,0.756,3.852,1.908c0,0.54-0.648,0.936-0.828,1.836c-0.144,0.684-0.288,1.62-0.432,2.7
		c2.16-0.252,8.928-1.116,9.324-2.844L36.224,59.697z M19.736,83.098c1.764,0,3.816-1.008,5.76-2.52
		c-1.188-2.952-1.188-6.372-1.188-8.496c-4.536,2.34-6.876,5.292-6.876,8.856C17.432,82.414,18.008,83.098,19.736,83.098z
		 M26.144,71.29c0,1.836,0,5.004,1.152,7.776c2.916-2.556,5.328-6.372,5.94-8.964C31.688,70.102,29.096,70.102,26.144,71.29z"/>
	<path d="M24.02,108.693c2.808-1.584,6.192-2.7,8.856-2.7c7.092,0,9.36,3.924,9.36,8.208c0,4.932-4.284,8.82-11.772,8.82
		c-4.356,0-7.272-2.088-7.272-4.572c0-2.268,2.016-4.212,5.292-4.212c3.384,0,6.732,2.7,6.732,5.472c0,0.288-0.072,0.54-0.18,0.684
		c2.7-0.9,4.644-3.6,4.644-6.264c0-4.068-1.944-6.984-7.056-6.984c-2.448,0-9.252,1.548-12.996,7.272
		c-0.468,0.72-0.972,1.62-1.764,1.62c-0.684,0-1.224-0.9-1.224-1.512c0-1.152,1.224-2.16,1.836-2.772
		c2.988-2.952,10.476-10.476,14.724-14.724c0.288-0.252,0.396-0.432,0.396-0.54c0-0.144-0.144-0.18-0.36-0.18
		c-0.648,0-6.588,1.152-8.496,1.98c-0.864,0.396-0.936,0.792-1.656,0.792c-1.62,0-3.168-1.764-3.168-3.276
		c0-0.504,0.18-1.188,0.936-1.656l0.18,0.108c-0.108,1.152,0.684,2.016,1.908,2.016c2.232,0,8.388-0.936,9.828-1.404
		c0.612-0.216,1.08-1.008,1.476-1.008c1.44,0,3.276,1.692,3.276,2.484c0,0.9-1.08,0.756-2.376,1.764
		c-4.032,3.132-8.64,7.632-11.304,10.44L24.02,108.693z M30.572,121.149c0.864,0,1.836-0.072,2.7-0.252
		c-0.144-0.18-0.288-0.36-0.324-0.684c-0.216-2.484-2.448-4.716-4.968-4.716c-1.8,0-3.24,1.044-3.24,2.664
		C24.74,120.574,27.908,121.149,30.572,121.149z"/>
	<path d="M19.592,148.941h27.037v11.88H45.26V150.31H19.592V148.941z"/>
	<path d="M42.776,164.709l3.132,2.34c-0.252,0.288-0.864,0.576-1.584,0.72v27.792c0,0.108-0.684,0.936-2.34,0.936v-2.412H17.9v1.764
		c0,0.072-0.144,0.972-2.304,0.972v-31.788l2.556,1.224h23.472L42.776,164.709z M17.9,193.222h24.084v-26.101H17.9V193.222z
		 M20.204,178.209c4.14,1.044,7.452,2.232,10.08,3.456c2.844-3.42,5.4-7.452,7.344-11.916l3.384,1.584
		c-0.18,0.288-0.432,0.504-0.936,0.504c-0.144,0-0.36-0.036-0.576-0.072c-2.088,4.176-4.572,7.74-7.38,10.764
		c5.256,2.772,6.984,5.508,6.984,6.984c0,0.648-0.36,1.044-0.936,1.044c-0.216,0-0.504-0.072-0.792-0.216
		c-1.224-1.836-3.528-4.068-6.768-6.264c-3.42,3.312-7.2,5.832-11.16,7.596l-0.432-0.54c3.42-1.836,6.876-4.572,10.008-8.064
		c-2.556-1.548-5.58-3.024-9.072-4.248L20.204,178.209z M20.312,170.181c3.78,1.728,4.968,3.888,4.968,5.328
		c0,1.044-0.576,1.728-1.26,1.728c-0.324,0-0.684-0.144-1.008-0.468c-0.18-2.052-1.656-4.716-3.06-6.3L20.312,170.181z
		 M27.008,168.777c3.492,1.872,4.608,4.068,4.608,5.616c0,1.152-0.612,1.944-1.368,1.944c-0.324,0-0.684-0.18-1.008-0.54
		c0-2.16-1.296-5.076-2.628-6.732L27.008,168.777z"/>
	<path d="M40.868,211.905c-0.036,0.252-1.188,0.792-1.944,0.792h-0.36v-1.26H31.04v2.988h8.64l1.512-1.944l2.988,2.052
		c-0.288,0.504-0.72,0.756-1.692,0.756H31.04v3.06h10.62l1.584-1.98l3.06,2.088c-0.252,0.54-0.648,0.756-1.692,0.756h-30.78
		l-0.252-0.864h15.156v-3.06H16.388l-0.252-0.864h12.6v-2.988H17.9l-0.252-0.864h11.088v-3.132H13.544l-0.252-0.864h15.444v-3.024
		h-10.62l-0.252-0.864h10.872v-3.204l3.996,0.324c-0.036,0.612-0.468,0.828-1.692,1.008v1.872h7.164l1.08-1.44l3.096,2.196
		c-0.252,0.288-0.828,0.576-1.512,0.72v2.412h1.404l1.512-1.944l2.916,2.052c-0.324,0.504-0.684,0.756-1.728,0.756h-4.104V211.905z
		 M38.384,221.949l1.08-1.44l3.168,2.232c-0.252,0.288-0.828,0.612-1.548,0.756v8.388c0,0.036-0.756,0.72-2.34,0.72v-1.764H21.14
		v1.188c0,0.072-0.36,0.828-2.304,0.828v-12.024l2.556,1.116H38.384z M38.744,222.813H21.14v3.06h17.604V222.813z M21.14,229.977
		h17.604v-3.24H21.14V229.977z M31.04,203.553v3.024h7.524v-3.024H31.04z M31.04,210.573h7.524v-3.132H31.04V210.573z"/>
	<path d="M26.18,257.301c-0.072,0.108-1.008,0.504-1.8,0.504h-0.432v-1.656h-6.156v7.488c1.62-0.36,3.456-0.756,5.328-1.224
		c-0.756-1.26-1.692-2.484-2.592-3.348l0.36-0.288c4.5,2.016,5.904,4.464,5.904,6.048c0,0.972-0.54,1.584-1.188,1.584
		c-0.324,0-0.684-0.144-1.008-0.468c-0.144-0.864-0.54-1.872-1.08-2.844c-1.944,0.936-4.572,2.232-7.92,3.708
		c-0.144,0.468-0.432,0.756-0.792,0.9l-1.512-3.132l2.304-0.432v-18.216c-0.648,0.72-1.332,1.404-2.016,1.98l-0.504-0.324
		c2.556-2.988,4.932-8.28,5.904-11.988l3.852,0.396c-0.072,0.396-0.432,0.612-1.296,0.72c4.86,1.62,6.336,3.744,6.336,5.148
		c0,0.864-0.576,1.44-1.26,1.44c-0.288,0-0.612-0.108-0.9-0.36c-0.54-1.728-2.088-3.996-4.392-5.796
		c-1.116,2.484-2.88,5.436-4.968,7.92l1.62,0.792h1.764v-4.068l3.456,0.288c-0.072,0.396-0.36,0.612-1.26,0.756v3.024h2.16
		l0.864-1.296l2.556,2.124c-0.252,0.252-0.756,0.504-1.332,0.612V257.301z M23.948,246.717h-6.156v3.852h6.156V246.717z
		 M17.792,255.285h6.156v-3.852h-6.156V255.285z M44.288,239.121l2.736,2.664c-0.288,0.252-0.684,0.324-1.368,0.36
		c-0.756,0.864-2.124,2.304-2.952,3.06l-0.504-0.252c0.216-0.792,0.576-2.304,0.828-3.42H30.896c0,1.764-0.792,3.852-2.628,3.852
		c-0.54,0-1.116-0.252-1.116-0.936c0-0.504,0.396-1.044,0.936-1.404c0.9-0.612,1.872-2.304,1.872-3.852l0.648,0.036
		c0.144,0.504,0.216,0.972,0.252,1.44h4.752v-5.184l3.78,0.324c-0.036,0.54-0.36,0.756-1.44,0.9v3.96h4.86L44.288,239.121z
		 M41.66,257.481l1.008-1.368l2.916,2.088c-0.18,0.252-0.756,0.54-1.368,0.648v8.46c0,0.108-0.684,0.828-2.232,0.828v-2.268h-9.612
		v2.088c0,0.036-0.216,0.864-2.232,0.864v-24.012l2.412,1.152h8.136l1.044-1.332l2.952,2.088c-0.216,0.252-0.756,0.54-1.44,0.648
		v7.02c0,0.072-0.648,0.72-2.232,0.72v-1.8h-8.64v4.176H41.66z M41.012,246.825h-8.64v5.616h8.64V246.825z M32.372,265.005h9.612
		v-6.66h-9.612V265.005z"/>
	<path d="M40.328,283.365H13.292v-11.88h1.368v10.512h25.668V283.365z"/>
</g>
<g>
	<path fill="#00A0E9" d="M151.543,114.704c-1.04,0.864-1.52,1.6-1.52,2.352c0,0.736,0.464,1.264,1.36,1.568
		c0.608,0.208,1.664,0.32,2.928,0.32c2,0,3.904-0.24,4.8-0.608l0.144,1.312c-0.208,0.016-0.272,0.032-0.544,0.08
		c-1.392,0.24-2.912,0.368-4.32,0.368c-1.536,0-2.896-0.192-3.68-0.496c-1.2-0.496-1.824-1.312-1.824-2.416
		c0-1.04,0.608-2.048,1.84-3.088L151.543,114.704z M149.863,108.864c1.168,0.272,2.432,0.384,4.256,0.384
		c1.872,0,3.168-0.112,4.048-0.336l0.08,1.056c-0.992,0.416-2.464,1.296-4.032,2.432l-0.816-0.656
		c1.024-0.688,1.408-0.928,2.128-1.328c0.176-0.096,0.208-0.112,0.4-0.208c0.112-0.064,0.144-0.064,0.304-0.16
		c-0.96,0.16-1.504,0.208-2.416,0.208c-1.12,0-2.48-0.08-3.52-0.208c-0.288-0.032-0.32-0.048-0.528-0.048L149.863,108.864z"/>
	<path fill="#00A0E9" d="M151.543,130.704c-1.04,0.864-1.52,1.6-1.52,2.352c0,0.736,0.464,1.264,1.36,1.568
		c0.608,0.208,1.664,0.32,2.928,0.32c2,0,3.904-0.24,4.8-0.608l0.144,1.312c-0.208,0.016-0.272,0.032-0.544,0.08
		c-1.392,0.24-2.912,0.368-4.32,0.368c-1.536,0-2.896-0.192-3.68-0.496c-1.2-0.496-1.824-1.312-1.824-2.416
		c0-1.04,0.608-2.048,1.84-3.088L151.543,130.704z M149.863,124.864c1.168,0.272,2.432,0.384,4.256,0.384
		c1.872,0,3.168-0.112,4.048-0.336l0.08,1.056c-0.992,0.416-2.464,1.296-4.032,2.432l-0.816-0.656
		c1.024-0.688,1.408-0.928,2.128-1.328c0.176-0.096,0.208-0.112,0.4-0.208c0.112-0.064,0.144-0.064,0.304-0.16
		c-0.96,0.16-1.504,0.208-2.416,0.208c-1.12,0-2.48-0.08-3.52-0.208c-0.288-0.032-0.32-0.048-0.528-0.048L149.863,124.864z"/>
	<path fill="#00A0E9" d="M151.815,141.6c0.528-1.12,0.72-1.68,0.768-2.192l1.28,0.224c-0.144,0.208-0.144,0.208-0.416,0.864
		c-0.208,0.512-0.416,0.944-0.496,1.088c0.192-0.016,0.192-0.016,0.336-0.016c2.56-0.128,4.16-0.32,5.04-0.608l0.096,1.088
		c-0.256,0.016-0.352,0.032-0.64,0.08c-1.664,0.224-3.344,0.352-5.28,0.416c-0.48,0.944-0.88,1.584-1.44,2.272
		c-0.16,0.192-0.48,0.56-0.544,0.608c-0.112,0.08-0.192,0.144-0.208,0.16c0,0.016-0.016,0.016-0.016,0.016c0,0.016,0,0.016,0,0.016
		c0.016,0.032,0.016,0.032,0.032,0.048c0.576-0.448,0.576-0.448,0.736-0.56c0.736-0.512,1.584-0.784,2.416-0.784
		c1.184,0,1.904,0.592,2.112,1.776c1.168-0.464,2.08-0.8,2.784-1.056c0.784-0.272,0.832-0.288,1.088-0.464l0.512,1.12
		c-0.832,0.144-2.272,0.624-4.272,1.408c0.032,0.416,0.032,0.576,0.032,0.976c0,0.208,0,0.56-0.016,0.88
		c-0.016,0.352-0.016,0.576-0.016,0.72c0,0.224,0,0.352,0.032,0.576l-1.088,0.016c0.048-0.352,0.096-1.328,0.096-2.304
		c0-0.256,0-0.288-0.016-0.48c-2.176,1.024-3.008,1.776-3.008,2.736c0,1.056,0.992,1.52,3.248,1.52c1.584,0,3.36-0.256,4.272-0.624
		l0.144,1.232c-0.24,0.016-0.32,0.032-0.64,0.08c-1.264,0.208-2.656,0.32-3.888,0.32c-2.864,0-4.256-0.816-4.256-2.464
		c0-0.88,0.544-1.712,1.632-2.528c0.544-0.4,1.312-0.816,2.384-1.28c-0.128-0.88-0.512-1.264-1.264-1.264
		c-1.008,0-2.272,0.592-3.568,1.696c-0.624,0.528-0.976,0.896-1.232,1.328l-0.896-0.896c1.104-0.848,2.432-2.528,3.584-4.576
		c0.048-0.08,0.048-0.08,0.144-0.24c-0.064,0.016-0.224,0.032-0.304,0.032c-0.256,0-1.76-0.032-2.352-0.048c-0.08,0-0.208,0-0.256,0
		c-0.144,0-0.176,0-0.352,0.016l0.016-1.104c0.576,0.112,1.792,0.176,3.424,0.176H151.815z"/>
	<path fill="#00A0E9" d="M160.871,167.632c-0.56-0.08-1.152-0.112-2.128-0.112h-9.488c-0.96,0-1.552,0.032-2.128,0.112v-1.312
		c0.576,0.08,1.04,0.112,2.112,0.112h9.504c1.072,0,1.52-0.016,2.128-0.112V167.632z M148.567,156.944
		c0.56,0.08,1.184,0.112,2.064,0.112h6.576c1.072,0,1.536-0.016,2.096-0.096v1.28c-0.624-0.08-1.072-0.096-2.096-0.096h-6.576
		c-0.928,0-1.536,0.032-2.064,0.096V156.944z"/>
	<path fill="#00A0E9" d="M152.823,171.552c-0.144,0.192-0.208,0.32-0.448,0.816c-1.232,2.48-2.784,4.336-5.04,6
		c-0.208-0.32-0.416-0.56-0.784-0.864c1.936-1.296,3.312-2.768,4.384-4.688c0.4-0.704,0.608-1.2,0.688-1.68L152.823,171.552z
		 M151.271,177.776c-0.608,0-1.152,0.032-1.648,0.096v-1.136c0.464,0.064,1.008,0.096,1.664,0.096h5.264
		c0.736,0,1.216-0.016,1.68-0.08c-0.048,0.288-0.048,0.416-0.064,1.136c0,3.104-0.304,5.808-0.72,6.56
		c-0.272,0.48-0.656,0.64-1.584,0.64c-0.528,0-1.088-0.032-2.096-0.128c-0.048-0.432-0.096-0.672-0.256-1.136
		c0.88,0.176,1.68,0.272,2.256,0.272c0.512,0,0.688-0.096,0.8-0.4c0.336-0.976,0.528-3.152,0.528-5.92h-3.728
		c-0.144,1.76-0.512,2.96-1.248,4.208c-0.832,1.392-2.08,2.48-4.032,3.488c-0.208-0.368-0.368-0.576-0.704-0.896
		c2.048-0.992,3.264-2.048,4.032-3.504c0.528-1.008,0.752-1.888,0.864-3.296H151.271z M156.247,171.168
		c0.128,0.416,0.272,0.736,0.608,1.344c1.168,2.096,2.528,3.536,4.72,4.976c-0.304,0.288-0.512,0.56-0.752,0.976
		c-2.528-1.872-3.888-3.488-5.392-6.432c-0.08-0.144-0.176-0.32-0.256-0.448L156.247,171.168z"/>
	<path fill="#00A0E9" d="M146.807,189.744c0.368,0.064,0.672,0.08,1.28,0.08h2.896c0.656,0,0.928-0.016,1.28-0.08v1.04
		c-0.336-0.048-0.592-0.064-1.168-0.064h-3.008c-0.56,0-0.848,0.016-1.28,0.064V189.744z M147.351,187.52
		c0.384,0.064,0.656,0.08,1.216,0.08h2.256c0.544,0,0.832-0.016,1.216-0.08v1.008c-0.4-0.048-0.72-0.064-1.216-0.064h-2.256
		c-0.496,0-0.832,0.016-1.216,0.064V187.52z M147.479,192.032c0.336,0.048,0.608,0.064,1.152,0.064h2.288
		c0.544,0,0.8-0.016,1.136-0.064v0.976c-0.368-0.048-0.592-0.064-1.136-0.064h-2.288c-0.544,0-0.784,0.016-1.152,0.064V192.032z
		 M147.479,194.224c0.336,0.048,0.592,0.064,1.152,0.064h2.288c0.56,0,0.816-0.016,1.136-0.064v0.976
		c-0.432-0.048-0.624-0.064-1.136-0.064h-2.288c-0.528,0-0.784,0.016-1.152,0.064V194.224z M147.495,201.52
		c0.064-0.448,0.096-0.912,0.096-1.552v-2.16c0-0.56-0.016-0.928-0.08-1.344c0.416,0.048,0.816,0.064,1.28,0.064h2.096
		c0.688,0,0.864,0,1.152-0.048c-0.032,0.336-0.048,0.688-0.048,1.264V200c0,0.496,0.016,0.848,0.08,1.312h-0.976v-0.656h-2.576
		v0.864H147.495z M148.519,199.824h2.576v-2.464h-2.576V199.824z M156.295,188.352c0-0.512-0.032-0.88-0.096-1.296h1.152
		c-0.064,0.4-0.096,0.784-0.096,1.328v1.184h2.512c0.72,0,1.152-0.032,1.6-0.096v1.104c-0.448-0.064-0.96-0.096-1.584-0.096h-2.528
		v2.464h2.224c0.688,0,1.152-0.032,1.6-0.096v1.088c-0.448-0.064-0.928-0.096-1.584-0.096h-5.056c-0.656,0-1.088,0.032-1.584,0.096
		v-1.088c0.432,0.064,0.88,0.096,1.584,0.096h1.856v-2.464h-2.032c-0.704,0-1.168,0.032-1.616,0.096v-1.104
		c0.432,0.064,0.88,0.096,1.616,0.096h2.032V188.352z M154.535,201.439h-1.088c0.064-0.4,0.08-0.816,0.08-1.536v-2.992
		c0-0.656-0.016-1.04-0.064-1.456c0.4,0.048,0.736,0.064,1.216,0.064h4.32c0.592,0,0.912-0.016,1.28-0.064
		c-0.048,0.32-0.064,0.752-0.064,1.488v2.928c0,0.608,0.032,1.248,0.08,1.568h-1.088v-0.8h-4.672V201.439z M154.535,199.744h4.672
		v-3.328h-4.672V199.744z"/>
	<path fill="#00A0E9" d="M150.743,204.32c0.016,0.512,0.224,1.856,0.432,2.784c1.12-0.544,2.224-0.8,3.424-0.8
		c0.112,0,0.304,0,0.528,0.016c0.272-1.056,0.464-2.112,0.496-2.576l1.2,0.256c-0.096,0.256-0.096,0.256-0.432,1.68
		c-0.08,0.272-0.112,0.448-0.192,0.752c2.656,0.496,4.24,2.24,4.24,4.656c0,1.488-0.656,2.944-1.744,3.84
		c-0.816,0.688-1.968,1.248-3.232,1.584c-0.24,0.064-0.32,0.08-1.008,0.24c-0.128-0.416-0.208-0.544-0.624-1.072
		c0.912-0.08,1.536-0.24,2.384-0.592c1.12-0.464,1.92-1.04,2.4-1.744c0.464-0.672,0.704-1.44,0.704-2.272
		c0-1.952-1.168-3.232-3.376-3.696c-0.72,2.48-1.856,4.768-3.104,6.272c-1.024,1.248-1.92,1.824-2.848,1.824
		c-1.392,0-2.304-1.248-2.304-3.136c0-1.04,0.336-2.144,0.928-3.056c0.416-0.624,0.864-1.088,1.6-1.632
		c-0.112-0.512-0.304-1.456-0.448-2.256c-0.096-0.528-0.112-0.592-0.208-0.848L150.743,204.32z M149.367,210.048
		c-0.4,0.688-0.64,1.552-0.64,2.24c0,1.264,0.512,2.096,1.296,2.096c0.56,0,1.248-0.48,1.968-1.36
		c-0.64-1.344-1.152-2.832-1.504-4.304C149.959,209.184,149.655,209.536,149.367,210.048z M152.727,212.144
		c0.08-0.16,0.08-0.176,0.192-0.352c0.752-1.184,1.456-2.816,1.952-4.528c-0.176,0-0.32-0.016-0.4-0.016
		c-1.136,0-2.16,0.272-3.088,0.816c0.304,1.296,0.64,2.352,1.2,3.712c0.08,0.208,0.096,0.24,0.128,0.368H152.727z"/>
	<path fill="#00A0E9" d="M149.799,220.448c0.448,0.08,0.736,0.096,1.504,0.096c1.328,0,3.456-0.096,4.896-0.208
		c0.416-0.032,0.56-0.064,0.768-0.176l0.672,0.88c-0.224,0.112-0.304,0.176-0.816,0.672c-2.208,2.16-4.144,3.824-5.264,4.544
		l0.032,0.048c1.216-0.656,2.512-0.992,3.92-0.992c2.672,0,4.384,1.312,4.384,3.36c0,2.496-2.32,4.144-5.872,4.144
		c-2.256,0-3.552-0.832-3.552-2.304c0-1.072,0.992-1.872,2.32-1.872c1.072,0,2,0.464,2.64,1.312
		c0.336,0.448,0.512,0.832,0.736,1.536c1.68-0.464,2.56-1.44,2.56-2.8c0-1.536-1.28-2.448-3.44-2.448
		c-2.352,0-4.88,1.024-6.736,2.736l-0.72-1.024c0.576-0.336,1.152-0.752,2.24-1.632c1.712-1.36,4.24-3.584,5.344-4.672
		c0.096-0.096,0.096-0.096,0.224-0.224c0,0,0.032-0.032,0.064-0.064l0.064-0.064l-0.032-0.032c-0.048,0-0.048,0-0.144,0.016
		c-0.512,0.096-2.432,0.208-4.864,0.288c-0.352,0.016-0.512,0.032-0.864,0.08L149.799,220.448z M152.807,229.552
		c-0.8,0-1.296,0.384-1.296,0.992c0,0.416,0.208,0.72,0.64,0.976c0.416,0.224,1.104,0.368,1.792,0.368
		c0.4,0,0.592-0.016,1.168-0.112C154.759,230.32,153.958,229.552,152.807,229.552z"/>
</g>
<g>
	<path fill="#00A0E9" d="M292.451,271.193c0-0.688,0.017-1.152,0.048-1.92c-0.575,0.736-1.04,1.184-1.823,1.792
		c-0.192-0.4-0.368-0.656-0.624-0.912c1.248-0.848,2.271-1.856,3.231-3.152c0.368-0.496,0.608-0.944,0.769-1.376l0.991,0.56
		c-0.191,0.24-0.239,0.32-0.479,0.688c-0.336,0.544-0.624,0.912-1.072,1.44v6.464c0,0.864,0.032,1.504,0.112,1.952h-1.264
		c0.08-0.448,0.111-1.104,0.111-1.952V271.193z M294.659,262.857c-0.111,0.112-0.144,0.16-0.288,0.352
		c-0.96,1.312-2.111,2.432-3.552,3.472c-0.24-0.352-0.416-0.544-0.72-0.784c0.896-0.576,1.472-1.04,2.112-1.696
		c0.8-0.8,1.199-1.36,1.455-1.952L294.659,262.857z M296.979,268.169c-0.752,0-1.392,0.032-1.776,0.096v-1.12
		c0.385,0.064,1.008,0.096,1.776,0.096h5.616c0.815,0,1.392-0.032,1.76-0.096v1.12c-0.416-0.064-1.008-0.096-1.744-0.096h-0.912
		v7.008c0,1.024-0.384,1.296-1.792,1.296c-0.512,0-1.264-0.032-1.952-0.08c-0.048-0.448-0.111-0.736-0.256-1.104
		c0.912,0.128,1.601,0.192,2.256,0.192c0.544,0,0.672-0.064,0.672-0.384v-6.928H296.979z M295.859,263.129
		c0.432,0.064,0.944,0.096,1.664,0.096h4.479c0.721,0,1.2-0.032,1.648-0.096v1.12c-0.48-0.064-1.008-0.096-1.648-0.096h-4.479
		c-0.64,0-1.184,0.032-1.664,0.096V263.129z"/>
	<path fill="#00A0E9" d="M302.339,280.777c0.961,0,1.425-0.032,1.792-0.112v1.152c-0.464-0.064-0.976-0.096-1.792-0.096h-4.8v2.768
		h3.856c0.943,0,1.424-0.032,1.792-0.112v1.12c-0.496-0.064-1.024-0.096-1.792-0.096h-3.36c0.832,1.248,1.473,2,2.448,2.864
		c1.248,1.12,2.479,1.936,4,2.656c-0.32,0.352-0.464,0.56-0.704,0.992c-1.456-0.784-2.592-1.6-3.744-2.688
		c-1.104-1.04-1.712-1.808-2.592-3.296c0.064,0.672,0.096,1.248,0.096,1.808v3.488c0,0.656,0.032,1.12,0.112,1.584h-1.248
		c0.08-0.464,0.112-0.896,0.112-1.584v-3.472c0-0.576,0.016-0.976,0.08-1.808c-0.656,1.184-1.28,2.016-2.256,2.992
		c-1.089,1.072-2.353,2.032-3.776,2.88c-0.192-0.352-0.384-0.608-0.72-0.928c2.624-1.36,4.607-3.136,6.159-5.488h-3.056
		c-0.656,0-1.151,0.032-1.744,0.096v-1.12c0.561,0.08,1.024,0.112,1.744,0.112h3.568v-2.768h-4.433c-0.688,0-1.184,0.032-1.76,0.096
		v-1.152c0.561,0.08,1.008,0.112,1.76,0.112h4.433v-1.248c0-0.528-0.032-0.912-0.097-1.296h1.217
		c-0.08,0.384-0.097,0.656-0.097,1.296v1.248H302.339z"/>
</g>
<g>
	<line stroke="#898989" stroke-width="6" x1="160.717" y1="89.19" x2="135.545" y2="89.19"/>
	<polygon fill="#898989" stroke="#898989" stroke-width="2" points="143.971,78.081 139.254,89.19 143.971,100.302 117.639,89.19 	
		"/>
</g>
</svg>
