<?xml version="1.0" encoding="utf-8"?>
<!-- Generator: Adobe Illustrator 12.0.0, SVG Export Plug-In . SVG Version: 6.00 Build 51448)  -->
<!DOCTYPE svg PUBLIC "-//W3C//DTD SVG 1.1//EN" "http://www.w3.org/Graphics/SVG/1.1/DTD/svg11.dtd" [
	<!ENTITY ns_svg "http://www.w3.org/2000/svg">
	<!ENTITY ns_xlink "http://www.w3.org/1999/xlink">
]>
<svg  version="1.1" id="レイヤー_1" xmlns="&ns_svg;" xmlns:xlink="&ns_xlink;" width="393.168" height="300.499"
	 viewBox="0 0 393.168 300.499" overflow="visible" enable-background="new 0 0 393.168 300.499" xml:space="preserve">
<g>
	<polyline fill="none" stroke="#00A0E9" stroke-width="0.5" points="332.855,227.31 347.963,227.31 347.963,186.152 	"/>
	<polyline fill="none" stroke="#00A0E9" stroke-width="0.5" points="339.742,231.288 332.855,227.31 339.742,223.333 	"/>
</g>
<g>
	<polyline fill="none" stroke="#00A0E9" stroke-width="0.5" points="300.396,227.886 285.289,227.886 285.289,194.063 	"/>
	<polyline fill="none" stroke="#00A0E9" stroke-width="0.5" points="293.51,231.864 300.396,227.886 293.51,223.909 	"/>
</g>
<g>
	<line fill="none" stroke="#00A0E9" stroke-width="0.5" x1="300.396" y1="206.499" x2="285.289" y2="206.499"/>
	<polyline fill="none" stroke="#00A0E9" stroke-width="0.5" points="293.51,210.478 300.396,206.499 293.51,202.522 	"/>
</g>
<rect x="299.955" y="0.25" fill="none" stroke="#00A0E9" stroke-width="0.5" width="35.998" height="216"/>
<rect x="303.953" y="216.249" fill="none" stroke="#00A0E9" stroke-width="0.5" width="28" height="84"/>
<line fill="none" stroke="#00A0E9" stroke-width="0.5" x1="303.953" y1="244.249" x2="331.953" y2="244.249"/>
<line fill="none" stroke="#00A0E9" stroke-width="0.5" x1="303.953" y1="272.249" x2="331.953" y2="272.249"/>
<line fill="none" stroke="#00A0E9" stroke-width="0.5" x1="299.955" y1="36.25" x2="335.953" y2="36.25"/>
<line fill="none" stroke="#00A0E9" stroke-width="0.5" x1="299.955" y1="72.25" x2="335.953" y2="72.25"/>
<line fill="none" stroke="#00A0E9" stroke-width="0.5" x1="299.955" y1="108.25" x2="335.953" y2="108.25"/>
<line fill="none" stroke="#00A0E9" stroke-width="0.5" x1="299.955" y1="144.25" x2="335.953" y2="144.25"/>
<line fill="none" stroke="#00A0E9" stroke-width="0.5" x1="299.955" y1="180.25" x2="335.953" y2="180.25"/>
<g>
	<path d="M370.021,18.694c2.808-1.584,6.191-2.7,8.855-2.7c7.092,0,9.36,3.924,9.36,8.208c0,4.932-4.284,8.82-11.772,8.82
		c-4.355,0-7.271-2.088-7.271-4.572c0-2.268,2.016-4.212,5.292-4.212c3.384,0,6.731,2.7,6.731,5.472c0,0.288-0.071,0.54-0.18,0.684
		c2.7-0.9,4.644-3.6,4.644-6.264c0-4.068-1.943-6.984-7.056-6.984c-2.448,0-9.252,1.548-12.996,7.272
		c-0.468,0.72-0.972,1.62-1.764,1.62c-0.685,0-1.225-0.9-1.225-1.512c0-1.152,1.225-2.16,1.836-2.772
		c2.988-2.952,10.477-10.476,14.725-14.724c0.288-0.252,0.396-0.432,0.396-0.54c0-0.144-0.144-0.18-0.359-0.18
		c-0.648,0-6.588,1.152-8.496,1.98c-0.864,0.396-0.937,0.792-1.656,0.792c-1.62,0-3.168-1.764-3.168-3.276
		c0-0.504,0.18-1.188,0.936-1.656l0.181,0.108c-0.108,1.152,0.684,2.016,1.908,2.016c2.231,0,8.388-0.936,9.828-1.404
		c0.611-0.216,1.079-1.008,1.476-1.008c1.44,0,3.276,1.692,3.276,2.484c0,0.9-1.08,0.756-2.376,1.764
		c-4.032,3.132-8.641,7.632-11.305,10.44L370.021,18.694z M376.572,31.15c0.864,0,1.836-0.072,2.7-0.252
		c-0.145-0.18-0.288-0.36-0.324-0.684c-0.216-2.484-2.448-4.716-4.968-4.716c-1.801,0-3.24,1.044-3.24,2.664
		C370.74,30.574,373.908,31.15,376.572,31.15z"/>
	<path d="M365.592,58.942h27.036v11.88h-1.368V60.31h-25.668V58.942z"/>
	<path d="M372.324,89.074c0.216-0.612,0.504-1.8,0.684-2.772h-10.656c-0.035,1.368-0.575,3.672-2.556,3.672
		c-0.468,0-1.044-0.216-1.044-0.9c0-0.504,0.36-1.008,0.864-1.332c0.899-0.576,1.836-2.16,1.836-3.564l0.647,0.036
		c0.108,0.432,0.181,0.828,0.217,1.224h10.439l1.44-1.44l2.592,2.52c-0.252,0.288-0.684,0.324-1.368,0.36
		c-0.612,0.828-1.691,1.872-2.556,2.448L372.324,89.074z M368.688,95.302v1.872c4.787,0.9,6.3,3.024,6.3,4.392
		c0,0.756-0.433,1.296-1.044,1.296c-0.288,0-0.576-0.108-0.864-0.324c-0.576-1.728-2.592-3.78-4.392-4.86v8.424
		c0,0.18-0.757,0.72-1.837,0.72h-0.323v-8.676c-1.692,2.556-3.996,4.752-6.876,6.48l-0.433-0.612c2.809-2.34,4.896-5.4,6.192-8.712
		h-5.904l-0.252-0.864h7.272v-3.42c-1.584,0.216-3.276,0.432-4.86,0.504l-0.18-0.648c3.275-0.684,7.235-2.016,9.252-3.096
		l2.412,2.232c-0.145,0.144-0.36,0.216-0.612,0.216c-0.288,0-0.648-0.072-1.044-0.216c-0.792,0.216-1.764,0.432-2.808,0.612v3.816
		h3.096l1.512-1.908l2.88,2.016c-0.288,0.54-0.72,0.756-1.655,0.756H368.688z M359.652,78.094l-0.217-0.864h7.021v-3.708l3.996,0.36
		c-0.072,0.576-0.468,0.792-1.729,0.972v2.376h3.097l1.548-1.908l2.916,2.016c-0.288,0.54-0.648,0.756-1.656,0.756h-5.904v3.564
		h2.305l1.439-1.836l2.845,1.944c-0.288,0.54-0.685,0.756-1.656,0.756h-12.528l-0.216-0.864h5.544v-3.564H359.652z M389.46,88.858
		l2.628,2.376c-0.288,0.288-0.684,0.396-1.512,0.468c-1.224,3.132-2.952,5.94-5.364,8.388c2.269,2.016,4.968,3.564,7.956,4.608
		l-0.071,0.36c-0.973,0.108-1.729,0.72-2.124,1.8c-2.845-1.368-5.293-3.168-7.272-5.4c-2.628,2.196-5.904,4.032-10.008,5.328
		l-0.252-0.648c3.708-1.548,6.768-3.6,9.144-6.048c-1.836-2.484-3.204-5.436-4.104-8.892h-1.98l-0.288-0.864h11.7L389.46,88.858z
		 M381.145,79.246c0,2.988-0.396,7.2-4.572,9.972l-0.396-0.468c2.521-2.88,2.736-6.336,2.736-9.468v-4.536l2.628,1.152h4.5
		l1.044-1.332l2.772,2.232c-0.252,0.252-0.685,0.432-1.296,0.504v7.416c0,0.612,0.035,0.648,0.323,0.648h1.152
		c0.288,0,0.396-0.036,0.576-0.36c0.216-0.504,0.647-2.268,0.899-3.42h0.36l0.036,3.6c0.72,0.288,0.864,0.432,0.864,0.828
		c0,0.792-0.612,1.368-2.448,1.368h-1.729c-2.124,0-2.268-0.576-2.268-2.88v-7.74h-5.184V79.246z M379.272,91.198
		c0.972,2.88,2.556,5.4,4.536,7.524c1.836-2.232,3.239-4.752,4.176-7.524H379.272z"/>
	<path d="M367.752,127.521c1.836-0.36,3.78-0.792,5.76-1.188l0.145,0.54c-1.62,0.612-3.601,1.404-5.904,2.232v12.78
		c0,0.108-0.288,0.936-2.268,0.936v-12.888c-1.332,0.504-2.772,0.972-4.32,1.512c-0.145,0.468-0.504,0.792-0.828,0.864l-1.26-3.204
		c1.332-0.144,3.636-0.576,6.408-1.116v-9.036H362.1c-0.575,2.304-1.296,4.428-2.159,6.048l-0.648-0.288
		c0.936-3.168,1.584-8.568,1.728-13.248l3.456,0.54c-0.071,0.432-0.287,0.684-1.151,0.756c-0.252,1.764-0.576,3.6-1.008,5.328h3.168
		v-8.64l3.815,0.324c-0.071,0.504-0.396,0.792-1.548,0.9v7.416h1.116l1.548-2.16l2.988,2.268c-0.288,0.54-0.756,0.756-1.692,0.756
		h-3.96V127.521z M389.893,115.569l2.916,2.34c-0.288,0.288-0.757,0.504-1.549,0.576c-0.323,12.888-1.044,21.132-2.808,22.824
		c-1.044,1.008-1.98,1.44-4.176,1.476c0-1.332-0.108-1.8-4.104-2.304l0.036-0.648c1.548,0.108,3.96,0.18,5.04,0.18
		c0.756,0,0.972-0.072,1.404-0.468c1.404-1.332,2.016-9.432,2.376-21.564h-2.16c-1.62,9.108-5.004,18.036-12.096,24.084l-0.36-0.576
		c5.616-5.976,8.676-14.796,9.936-23.508h-2.592c-1.728,6.48-5.04,12.996-10.404,17.388l-0.323-0.576
		c4.176-4.356,7.02-10.728,8.28-16.812h-2.736c-1.404,3.168-3.097,5.904-5.076,7.848l-0.576-0.324
		c2.448-3.492,4.536-9.72,5.508-16.092l3.744,0.9c-0.107,0.432-0.359,0.648-1.26,0.72c-0.54,2.124-1.188,4.176-1.98,6.084h11.736
		L389.893,115.569z"/>
	<path d="M359.472,155.277c4.393,0.468,5.832,2.268,5.832,3.6c0,0.756-0.54,1.368-1.224,1.368c-0.288,0-0.576-0.108-0.9-0.324
		c-0.611-1.548-2.304-3.348-3.888-4.248L359.472,155.277z M361.452,168.813c0.432,0,0.576,0,0.899-0.756
		c0.181-0.288,0.685-1.296,7.272-16.2l0.684,0.144c-1.619,4.644-4.823,13.32-5.363,15.084c-0.324,1.152-0.576,2.268-0.576,3.168
		c0.036,1.512,0.899,3.06,0.899,5.652c0,1.008,0,3.06-1.979,3.06c-0.648,0-1.08-0.648-1.152-1.8c0.181-1.332,0.288-2.592,0.288-3.6
		c0-3.492-0.756-3.78-2.592-3.96v-0.792c1.224,0,1.62-0.036,1.62-0.036V168.813z M361.02,145.917c4.5,0.612,5.977,2.556,5.977,3.924
		c0,0.828-0.54,1.476-1.26,1.476c-0.288,0-0.612-0.108-0.937-0.36c-0.576-1.656-2.376-3.636-3.996-4.68L361.02,145.917z
		 M389.496,159.993l3.204,2.304c-0.288,0.54-0.72,0.756-1.728,0.756h-12.276l2.556,0.864c-0.18,0.432-0.468,0.648-1.368,0.612
		c-1.548,3.348-3.491,7.056-5.363,9.792l12.672-0.792c-0.937-1.728-2.124-3.384-3.24-4.572l0.36-0.288
		c5.328,2.916,7.02,6.192,7.02,8.172c0,1.188-0.576,1.944-1.332,1.944c-0.324,0-0.72-0.18-1.08-0.504
		c-0.144-1.224-0.647-2.628-1.332-4.032c-3.852,0.828-9.144,1.764-16.416,2.952c-0.216,0.432-0.576,0.72-0.936,0.792l-1.656-3.384
		c1.188-0.036,2.844-0.108,4.86-0.216c1.188-3.06,2.628-7.452,3.708-11.34h-8.425l-0.216-0.864h10.477v-8.316h-7.92l-0.217-0.864
		h8.137v-7.596l4.067,0.36c-0.035,0.576-0.432,0.828-1.655,1.008v6.228h4.752l1.655-2.16l3.133,2.232
		c-0.288,0.54-0.685,0.792-1.656,0.792h-7.884v8.316h6.443L389.496,159.993z"/>
	<path d="M386.328,193.365h-27.036v-11.88h1.368v10.512h25.668V193.365z"/>
	<path d="M362.855,242.67c2.24-4.816,6.721-8.26,13.104-8.26c6.58,0,10.948,3.612,13.104,8.26l-0.588,0.448
		c-2.38-4.284-6.775-6.972-12.516-6.972s-10.136,2.688-12.516,6.972L362.855,242.67z"/>
	<path d="M363.108,257.398h20.72l1.764-2.24l3.248,2.324c-0.28,0.532-0.7,0.728-1.512,0.728h-24.024L363.108,257.398z"/>
	<path d="M373.355,280.89c-0.056,0.364-0.308,0.504-0.979,0.532c-1.092,7.56-4.004,13.776-9.212,17.024l-0.364-0.309
		c4.256-3.5,6.776-10.08,7.393-17.808L373.355,280.89z M379.04,274.17l2.744,2.016c-0.364,0.42-1.148,0.672-2.212,0.728
		c1.063,7.868,3.5,15.456,9.604,19.32l-0.14,0.308c-0.84,0.168-1.597,0.812-1.904,1.54c-5.544-4.592-7.476-12.012-8.4-21.756h-9.212
		l-0.195-0.672h8.68L379.04,274.17z"/>
	<path d="M312.02,18.694c2.809-1.584,6.192-2.7,8.856-2.7c7.092,0,9.36,3.924,9.36,8.208c0,4.932-4.284,8.82-11.772,8.82
		c-4.356,0-7.272-2.088-7.272-4.572c0-2.268,2.017-4.212,5.293-4.212c3.384,0,6.731,2.7,6.731,5.472c0,0.288-0.071,0.54-0.18,0.684
		c2.7-0.9,4.644-3.6,4.644-6.264c0-4.068-1.943-6.984-7.056-6.984c-2.448,0-9.252,1.548-12.996,7.272
		c-0.468,0.72-0.972,1.62-1.765,1.62c-0.684,0-1.223-0.9-1.223-1.512c0-1.152,1.223-2.16,1.836-2.772
		c2.987-2.952,10.476-10.476,14.724-14.724c0.288-0.252,0.396-0.432,0.396-0.54c0-0.144-0.144-0.18-0.359-0.18
		c-0.648,0-6.588,1.152-8.496,1.98c-0.864,0.396-0.936,0.792-1.656,0.792c-1.62,0-3.168-1.764-3.168-3.276
		c0-0.504,0.18-1.188,0.936-1.656l0.181,0.108c-0.108,1.152,0.684,2.016,1.907,2.016c2.232,0,8.389-0.936,9.829-1.404
		c0.611-0.216,1.079-1.008,1.476-1.008c1.44,0,3.276,1.692,3.276,2.484c0,0.9-1.08,0.756-2.376,1.764
		c-4.032,3.132-8.641,7.632-11.305,10.44L312.02,18.694z M318.572,31.15c0.863,0,1.836-0.072,2.7-0.252
		c-0.145-0.18-0.288-0.36-0.324-0.684c-0.216-2.484-2.448-4.716-4.968-4.716c-1.801,0-3.24,1.044-3.24,2.664
		C312.74,30.574,315.908,31.15,318.572,31.15z"/>
	<path d="M307.592,58.942h27.036v11.88h-1.368V60.31h-25.668V58.942z"/>
	<path d="M314.324,89.074c0.216-0.612,0.504-1.8,0.684-2.772h-10.656c-0.035,1.368-0.576,3.672-2.556,3.672
		c-0.468,0-1.044-0.216-1.044-0.9c0-0.504,0.359-1.008,0.864-1.332c0.899-0.576,1.836-2.16,1.836-3.564l0.647,0.036
		c0.108,0.432,0.18,0.828,0.217,1.224h10.439l1.44-1.44l2.592,2.52c-0.252,0.288-0.685,0.324-1.368,0.36
		c-0.611,0.828-1.691,1.872-2.556,2.448L314.324,89.074z M310.688,95.302v1.872c4.789,0.9,6.301,3.024,6.301,4.392
		c0,0.756-0.432,1.296-1.045,1.296c-0.287,0-0.575-0.108-0.863-0.324c-0.576-1.728-2.592-3.78-4.393-4.86v8.424
		c0,0.18-0.756,0.72-1.836,0.72h-0.324v-8.676c-1.691,2.556-3.995,4.752-6.875,6.48l-0.433-0.612c2.808-2.34,4.896-5.4,6.192-8.712
		h-5.904l-0.252-0.864h7.271v-3.42c-1.584,0.216-3.275,0.432-4.859,0.504l-0.18-0.648c3.275-0.684,7.236-2.016,9.252-3.096
		l2.412,2.232c-0.145,0.144-0.36,0.216-0.612,0.216c-0.288,0-0.647-0.072-1.044-0.216c-0.792,0.216-1.764,0.432-2.809,0.612v3.816
		h3.097l1.512-1.908l2.88,2.016c-0.287,0.54-0.72,0.756-1.656,0.756H310.688z M301.652,78.094l-0.217-0.864h7.021v-3.708l3.996,0.36
		c-0.072,0.576-0.468,0.792-1.728,0.972v2.376h3.096l1.548-1.908l2.916,2.016c-0.288,0.54-0.647,0.756-1.656,0.756h-5.903v3.564
		h2.303l1.441-1.836l2.844,1.944c-0.289,0.54-0.685,0.756-1.656,0.756h-12.528l-0.216-0.864h5.544v-3.564H301.652z M331.46,88.858
		l2.628,2.376c-0.288,0.288-0.684,0.396-1.512,0.468c-1.224,3.132-2.952,5.94-5.364,8.388c2.269,2.016,4.968,3.564,7.956,4.608
		l-0.071,0.36c-0.973,0.108-1.729,0.72-2.124,1.8c-2.845-1.368-5.293-3.168-7.272-5.4c-2.628,2.196-5.904,4.032-10.009,5.328
		l-0.252-0.648c3.709-1.548,6.769-3.6,9.145-6.048c-1.836-2.484-3.204-5.436-4.104-8.892h-1.98l-0.288-0.864h11.7L331.46,88.858z
		 M323.145,79.246c0,2.988-0.396,7.2-4.572,9.972l-0.396-0.468c2.521-2.88,2.736-6.336,2.736-9.468v-4.536l2.628,1.152h4.5
		l1.044-1.332l2.772,2.232c-0.252,0.252-0.685,0.432-1.296,0.504v7.416c0,0.612,0.035,0.648,0.323,0.648h1.152
		c0.288,0,0.396-0.036,0.576-0.36c0.216-0.504,0.647-2.268,0.899-3.42h0.36l0.036,3.6c0.72,0.288,0.864,0.432,0.864,0.828
		c0,0.792-0.612,1.368-2.448,1.368h-1.729c-2.124,0-2.268-0.576-2.268-2.88v-7.74h-5.184V79.246z M321.272,91.198
		c0.972,2.88,2.556,5.4,4.536,7.524c1.836-2.232,3.239-4.752,4.176-7.524H321.272z"/>
	<path d="M309.752,127.521c1.836-0.36,3.78-0.792,5.76-1.188l0.145,0.54c-1.62,0.612-3.6,1.404-5.904,2.232v12.78
		c0,0.108-0.288,0.936-2.268,0.936v-12.888c-1.332,0.504-2.772,0.972-4.32,1.512c-0.145,0.468-0.504,0.792-0.828,0.864l-1.26-3.204
		c1.332-0.144,3.636-0.576,6.408-1.116v-9.036H304.1c-0.576,2.304-1.295,4.428-2.16,6.048l-0.647-0.288
		c0.937-3.168,1.584-8.568,1.728-13.248l3.457,0.54c-0.072,0.432-0.289,0.684-1.152,0.756c-0.252,1.764-0.576,3.6-1.008,5.328h3.168
		v-8.64l3.815,0.324c-0.071,0.504-0.396,0.792-1.548,0.9v7.416h1.116l1.548-2.16l2.988,2.268c-0.288,0.54-0.756,0.756-1.692,0.756
		h-3.96V127.521z M331.893,115.569l2.916,2.34c-0.288,0.288-0.757,0.504-1.549,0.576c-0.323,12.888-1.044,21.132-2.808,22.824
		c-1.044,1.008-1.98,1.44-4.176,1.476c0-1.332-0.108-1.8-4.104-2.304l0.036-0.648c1.548,0.108,3.96,0.18,5.04,0.18
		c0.756,0,0.972-0.072,1.404-0.468c1.404-1.332,2.016-9.432,2.376-21.564h-2.16c-1.62,9.108-5.004,18.036-12.097,24.084
		l-0.359-0.576c5.616-5.976,8.676-14.796,9.936-23.508h-2.592c-1.728,6.48-5.039,12.996-10.404,17.388l-0.324-0.576
		c4.177-4.356,7.021-10.728,8.281-16.812h-2.736c-1.404,3.168-3.096,5.904-5.076,7.848l-0.576-0.324
		c2.448-3.492,4.536-9.72,5.508-16.092l3.744,0.9c-0.107,0.432-0.359,0.648-1.26,0.72c-0.54,2.124-1.188,4.176-1.98,6.084h11.736
		L331.893,115.569z"/>
	<path d="M301.473,155.277c4.391,0.468,5.832,2.268,5.832,3.6c0,0.756-0.541,1.368-1.225,1.368c-0.288,0-0.576-0.108-0.9-0.324
		c-0.611-1.548-2.304-3.348-3.888-4.248L301.473,155.277z M303.452,168.813c0.432,0,0.575,0,0.899-0.756
		c0.181-0.288,0.685-1.296,7.272-16.2l0.685,0.144c-1.621,4.644-4.824,13.32-5.365,15.084c-0.323,1.152-0.575,2.268-0.575,3.168
		c0.036,1.512,0.899,3.06,0.899,5.652c0,1.008,0,3.06-1.979,3.06c-0.647,0-1.08-0.648-1.152-1.8c0.181-1.332,0.288-2.592,0.288-3.6
		c0-3.492-0.756-3.78-2.592-3.96v-0.792c1.225,0,1.62-0.036,1.62-0.036V168.813z M303.02,145.917c4.5,0.612,5.977,2.556,5.977,3.924
		c0,0.828-0.54,1.476-1.26,1.476c-0.288,0-0.612-0.108-0.937-0.36c-0.575-1.656-2.376-3.636-3.995-4.68L303.02,145.917z
		 M331.496,159.993l3.204,2.304c-0.288,0.54-0.72,0.756-1.728,0.756h-12.276l2.556,0.864c-0.18,0.432-0.468,0.648-1.368,0.612
		c-1.548,3.348-3.491,7.056-5.364,9.792l12.673-0.792c-0.937-1.728-2.124-3.384-3.24-4.572l0.36-0.288
		c5.328,2.916,7.02,6.192,7.02,8.172c0,1.188-0.576,1.944-1.332,1.944c-0.324,0-0.72-0.18-1.08-0.504
		c-0.144-1.224-0.647-2.628-1.332-4.032c-3.852,0.828-9.144,1.764-16.416,2.952c-0.216,0.432-0.576,0.72-0.936,0.792l-1.656-3.384
		c1.188-0.036,2.844-0.108,4.859-0.216c1.188-3.06,2.629-7.452,3.709-11.34h-8.424l-0.217-0.864h10.477v-8.316h-7.92l-0.217-0.864
		h8.137v-7.596l4.067,0.36c-0.035,0.576-0.432,0.828-1.655,1.008v6.228h4.752l1.655-2.16l3.133,2.232
		c-0.288,0.54-0.685,0.792-1.656,0.792h-7.884v8.316h6.443L331.496,159.993z"/>
	<path d="M328.328,193.365h-27.036v-11.88h1.368v10.512h25.668V193.365z"/>
	<path d="M304.855,242.67c2.24-4.816,6.721-8.26,13.104-8.26c6.58,0,10.948,3.612,13.104,8.26l-0.588,0.448
		c-2.38-4.284-6.775-6.972-12.516-6.972s-10.136,2.688-12.517,6.972L304.855,242.67z"/>
	<path d="M305.107,257.398h20.721l1.764-2.24l3.248,2.324c-0.28,0.532-0.7,0.728-1.512,0.728h-24.024L305.107,257.398z"/>
	<path d="M315.355,280.89c-0.056,0.364-0.308,0.504-0.979,0.532c-1.093,7.56-4.004,13.776-9.212,17.024l-0.364-0.309
		c4.257-3.5,6.776-10.08,7.392-17.808L315.355,280.89z M321.04,274.17l2.744,2.016c-0.364,0.42-1.148,0.672-2.212,0.728
		c1.063,7.868,3.5,15.456,9.604,19.32l-0.14,0.308c-0.84,0.168-1.597,0.812-1.904,1.54c-5.544-4.592-7.476-12.012-8.4-21.756h-9.212
		l-0.195-0.672h8.68L321.04,274.17z"/>
</g>
<rect x="129.287" y="0.25" fill="none" stroke="#00A0E9" stroke-width="0.5" width="35.998" height="216"/>
<rect x="133.285" y="216.249" fill="none" stroke="#00A0E9" stroke-width="0.5" width="28" height="70"/>
<line fill="none" stroke="#00A0E9" stroke-width="0.5" x1="133.285" y1="230.249" x2="161.285" y2="230.249"/>
<line fill="none" stroke="#00A0E9" stroke-width="0.5" x1="133.285" y1="258.249" x2="161.285" y2="258.249"/>
<line fill="none" stroke="#00A0E9" stroke-width="0.5" x1="129.287" y1="36.25" x2="165.285" y2="36.25"/>
<line fill="none" stroke="#00A0E9" stroke-width="0.5" x1="129.287" y1="72.25" x2="165.285" y2="72.25"/>
<line fill="none" stroke="#00A0E9" stroke-width="0.5" x1="129.287" y1="108.25" x2="165.285" y2="108.25"/>
<line fill="none" stroke="#00A0E9" stroke-width="0.5" x1="129.287" y1="144.25" x2="165.285" y2="144.25"/>
<line fill="none" stroke="#00A0E9" stroke-width="0.5" x1="129.287" y1="180.25" x2="165.285" y2="180.25"/>
<g>
	<path d="M199.352,18.694c2.809-1.584,6.192-2.7,8.856-2.7c7.093,0,9.36,3.924,9.36,8.208c0,4.932-4.284,8.82-11.772,8.82
		c-4.356,0-7.272-2.088-7.272-4.572c0-2.268,2.017-4.212,5.293-4.212c3.384,0,6.732,2.7,6.732,5.472c0,0.288-0.072,0.54-0.181,0.684
		c2.7-0.9,4.644-3.6,4.644-6.264c0-4.068-1.943-6.984-7.056-6.984c-2.448,0-9.252,1.548-12.996,7.272
		c-0.468,0.72-0.972,1.62-1.765,1.62c-0.684,0-1.223-0.9-1.223-1.512c0-1.152,1.223-2.16,1.836-2.772
		c2.987-2.952,10.476-10.476,14.724-14.724c0.288-0.252,0.396-0.432,0.396-0.54c0-0.144-0.144-0.18-0.359-0.18
		c-0.648,0-6.588,1.152-8.496,1.98c-0.864,0.396-0.936,0.792-1.656,0.792c-1.62,0-3.168-1.764-3.168-3.276
		c0-0.504,0.18-1.188,0.936-1.656l0.181,0.108c-0.108,1.152,0.684,2.016,1.907,2.016c2.232,0,8.389-0.936,9.828-1.404
		c0.612-0.216,1.08-1.008,1.477-1.008c1.439,0,3.275,1.692,3.275,2.484c0,0.9-1.08,0.756-2.375,1.764
		c-4.032,3.132-8.641,7.632-11.305,10.44L199.352,18.694z M205.904,31.15c0.863,0,1.836-0.072,2.699-0.252
		c-0.144-0.18-0.287-0.36-0.323-0.684c-0.216-2.484-2.448-4.716-4.968-4.716c-1.801,0-3.24,1.044-3.24,2.664
		C200.072,30.574,203.24,31.15,205.904,31.15z"/>
	<path d="M194.924,58.942h27.037v11.88h-1.369V60.31h-25.668V58.942z"/>
	<path d="M201.656,89.074c0.216-0.612,0.504-1.8,0.684-2.772h-10.656c-0.035,1.368-0.576,3.672-2.556,3.672
		c-0.468,0-1.044-0.216-1.044-0.9c0-0.504,0.359-1.008,0.864-1.332c0.899-0.576,1.836-2.16,1.836-3.564l0.647,0.036
		c0.108,0.432,0.18,0.828,0.217,1.224h10.439l1.44-1.44l2.592,2.52c-0.252,0.288-0.685,0.324-1.368,0.36
		c-0.611,0.828-1.691,1.872-2.556,2.448L201.656,89.074z M198.02,95.302v1.872c4.789,0.9,6.301,3.024,6.301,4.392
		c0,0.756-0.432,1.296-1.045,1.296c-0.287,0-0.575-0.108-0.863-0.324c-0.576-1.728-2.592-3.78-4.393-4.86v8.424
		c0,0.18-0.756,0.72-1.836,0.72h-0.324v-8.676c-1.691,2.556-3.995,4.752-6.875,6.48l-0.433-0.612c2.808-2.34,4.896-5.4,6.192-8.712
		h-5.904l-0.252-0.864h7.271v-3.42c-1.584,0.216-3.275,0.432-4.859,0.504l-0.18-0.648c3.275-0.684,7.236-2.016,9.252-3.096
		l2.412,2.232c-0.145,0.144-0.36,0.216-0.612,0.216c-0.288,0-0.647-0.072-1.044-0.216c-0.792,0.216-1.764,0.432-2.809,0.612v3.816
		h3.097l1.512-1.908l2.88,2.016c-0.287,0.54-0.72,0.756-1.656,0.756H198.02z M188.984,78.094l-0.217-0.864h7.021v-3.708l3.996,0.36
		c-0.072,0.576-0.468,0.792-1.728,0.972v2.376h3.096l1.548-1.908l2.916,2.016c-0.288,0.54-0.647,0.756-1.656,0.756h-5.903v3.564
		h2.303l1.441-1.836l2.844,1.944c-0.289,0.54-0.685,0.756-1.656,0.756H190.46l-0.216-0.864h5.544v-3.564H188.984z M218.792,88.858
		l2.628,2.376c-0.287,0.288-0.684,0.396-1.512,0.468c-1.225,3.132-2.952,5.94-5.364,8.388c2.269,2.016,4.968,3.564,7.956,4.608
		l-0.072,0.36c-0.972,0.108-1.728,0.72-2.123,1.8c-2.845-1.368-5.293-3.168-7.272-5.4c-2.628,2.196-5.904,4.032-10.009,5.328
		l-0.252-0.648c3.709-1.548,6.769-3.6,9.145-6.048c-1.836-2.484-3.204-5.436-4.104-8.892h-1.98l-0.288-0.864h11.7L218.792,88.858z
		 M210.477,79.246c0,2.988-0.396,7.2-4.572,9.972l-0.396-0.468c2.521-2.88,2.736-6.336,2.736-9.468v-4.536l2.628,1.152h4.5
		l1.044-1.332l2.771,2.232c-0.252,0.252-0.684,0.432-1.295,0.504v7.416c0,0.612,0.035,0.648,0.324,0.648h1.151
		c0.288,0,0.396-0.036,0.576-0.36c0.216-0.504,0.647-2.268,0.899-3.42h0.36l0.036,3.6c0.721,0.288,0.863,0.432,0.863,0.828
		c0,0.792-0.611,1.368-2.447,1.368h-1.729c-2.123,0-2.268-0.576-2.268-2.88v-7.74h-5.184V79.246z M208.604,91.198
		c0.973,2.88,2.557,5.4,4.537,7.524c1.836-2.232,3.24-4.752,4.176-7.524H208.604z"/>
	<path d="M197.084,127.521c1.836-0.36,3.78-0.792,5.76-1.188l0.145,0.54c-1.62,0.612-3.6,1.404-5.904,2.232v12.78
		c0,0.108-0.288,0.936-2.268,0.936v-12.888c-1.332,0.504-2.772,0.972-4.32,1.512c-0.145,0.468-0.504,0.792-0.828,0.864l-1.26-3.204
		c1.332-0.144,3.636-0.576,6.408-1.116v-9.036h-3.385c-0.576,2.304-1.295,4.428-2.16,6.048l-0.647-0.288
		c0.937-3.168,1.584-8.568,1.728-13.248l3.457,0.54c-0.072,0.432-0.289,0.684-1.152,0.756c-0.252,1.764-0.576,3.6-1.008,5.328h3.168
		v-8.64l3.815,0.324c-0.071,0.504-0.396,0.792-1.548,0.9v7.416h1.116l1.548-2.16l2.988,2.268c-0.288,0.54-0.756,0.756-1.692,0.756
		h-3.96V127.521z M219.225,115.569l2.916,2.34c-0.289,0.288-0.756,0.504-1.549,0.576c-0.324,12.888-1.043,21.132-2.808,22.824
		c-1.044,1.008-1.979,1.44-4.176,1.476c0-1.332-0.108-1.8-4.104-2.304l0.036-0.648c1.548,0.108,3.96,0.18,5.04,0.18
		c0.756,0,0.973-0.072,1.404-0.468c1.404-1.332,2.016-9.432,2.376-21.564h-2.16c-1.62,9.108-5.004,18.036-12.097,24.084
		l-0.359-0.576c5.616-5.976,8.676-14.796,9.936-23.508h-2.592c-1.728,6.48-5.039,12.996-10.404,17.388l-0.324-0.576
		c4.177-4.356,7.021-10.728,8.281-16.812h-2.736c-1.404,3.168-3.096,5.904-5.076,7.848l-0.576-0.324
		c2.448-3.492,4.536-9.72,5.508-16.092l3.744,0.9c-0.107,0.432-0.359,0.648-1.26,0.72c-0.54,2.124-1.188,4.176-1.98,6.084H218
		L219.225,115.569z"/>
	<path d="M188.805,155.277c4.391,0.468,5.832,2.268,5.832,3.6c0,0.756-0.541,1.368-1.225,1.368c-0.288,0-0.576-0.108-0.9-0.324
		c-0.611-1.548-2.304-3.348-3.888-4.248L188.805,155.277z M190.784,168.813c0.432,0,0.575,0,0.899-0.756
		c0.181-0.288,0.685-1.296,7.272-16.2l0.685,0.144c-1.621,4.644-4.824,13.32-5.365,15.084c-0.323,1.152-0.575,2.268-0.575,3.168
		c0.036,1.512,0.899,3.06,0.899,5.652c0,1.008,0,3.06-1.979,3.06c-0.647,0-1.08-0.648-1.152-1.8c0.181-1.332,0.288-2.592,0.288-3.6
		c0-3.492-0.756-3.78-2.592-3.96v-0.792c1.225,0,1.62-0.036,1.62-0.036V168.813z M190.352,145.917
		c4.5,0.612,5.977,2.556,5.977,3.924c0,0.828-0.54,1.476-1.26,1.476c-0.288,0-0.612-0.108-0.937-0.36
		c-0.575-1.656-2.376-3.636-3.995-4.68L190.352,145.917z M218.828,159.993l3.204,2.304c-0.288,0.54-0.72,0.756-1.728,0.756h-12.276
		l2.556,0.864c-0.18,0.432-0.468,0.648-1.367,0.612c-1.549,3.348-3.492,7.056-5.365,9.792l12.673-0.792
		c-0.937-1.728-2.124-3.384-3.24-4.572l0.36-0.288c5.328,2.916,7.02,6.192,7.02,8.172c0,1.188-0.576,1.944-1.332,1.944
		c-0.324,0-0.72-0.18-1.08-0.504c-0.144-1.224-0.648-2.628-1.332-4.032c-3.852,0.828-9.144,1.764-16.416,2.952
		c-0.216,0.432-0.576,0.72-0.936,0.792l-1.656-3.384c1.188-0.036,2.844-0.108,4.859-0.216c1.188-3.06,2.629-7.452,3.709-11.34
		h-8.424l-0.217-0.864h10.477v-8.316h-7.92l-0.217-0.864h8.137v-7.596l4.068,0.36c-0.037,0.576-0.433,0.828-1.656,1.008v6.228h4.752
		l1.656-2.16l3.131,2.232c-0.287,0.54-0.684,0.792-1.655,0.792h-7.884v8.316h6.443L218.828,159.993z"/>
	<path d="M215.66,193.365h-27.036v-11.88h1.368v10.512h25.668V193.365z"/>
	<path d="M192.188,228.67c2.24-4.816,6.721-8.26,13.104-8.26c6.58,0,10.948,3.612,13.104,8.26l-0.588,0.448
		c-2.381-4.284-6.777-6.972-12.517-6.972c-5.74,0-10.136,2.688-12.517,6.972L192.188,228.67z"/>
	<path d="M192.439,243.398h20.721l1.764-2.24l3.248,2.324c-0.279,0.532-0.7,0.728-1.512,0.728h-24.024L192.439,243.398z"/>
	<path d="M202.688,266.89c-0.056,0.364-0.308,0.504-0.979,0.532c-1.093,7.56-4.004,13.776-9.212,17.024l-0.364-0.308
		c4.257-3.5,6.776-10.08,7.392-17.808L202.688,266.89z M208.372,260.17l2.743,2.016c-0.363,0.42-1.147,0.672-2.211,0.728
		c1.063,7.868,3.5,15.456,9.604,19.32l-0.141,0.308c-0.84,0.168-1.596,0.812-1.903,1.54c-5.544-4.592-7.476-12.012-8.399-21.756
		h-9.213l-0.195-0.672h8.68L208.372,260.17z"/>
	<path d="M141.352,18.694c2.808-1.584,6.192-2.7,8.856-2.7c7.092,0,9.36,3.924,9.36,8.208c0,4.932-4.284,8.82-11.772,8.82
		c-4.356,0-7.272-2.088-7.272-4.572c0-2.268,2.016-4.212,5.292-4.212c3.384,0,6.732,2.7,6.732,5.472c0,0.288-0.072,0.54-0.18,0.684
		c2.7-0.9,4.644-3.6,4.644-6.264c0-4.068-1.944-6.984-7.056-6.984c-2.448,0-9.252,1.548-12.996,7.272
		c-0.468,0.72-0.972,1.62-1.764,1.62c-0.684,0-1.224-0.9-1.224-1.512c0-1.152,1.224-2.16,1.836-2.772
		c2.988-2.952,10.476-10.476,14.724-14.724c0.288-0.252,0.396-0.432,0.396-0.54c0-0.144-0.144-0.18-0.36-0.18
		c-0.648,0-6.588,1.152-8.496,1.98c-0.864,0.396-0.936,0.792-1.656,0.792c-1.62,0-3.168-1.764-3.168-3.276
		c0-0.504,0.18-1.188,0.936-1.656l0.18,0.108c-0.108,1.152,0.684,2.016,1.908,2.016c2.232,0,8.388-0.936,9.828-1.404
		c0.612-0.216,1.08-1.008,1.476-1.008c1.44,0,3.276,1.692,3.276,2.484c0,0.9-1.08,0.756-2.376,1.764
		c-4.032,3.132-8.64,7.632-11.304,10.44L141.352,18.694z M147.904,31.15c0.864,0,1.836-0.072,2.7-0.252
		c-0.144-0.18-0.288-0.36-0.324-0.684c-0.216-2.484-2.448-4.716-4.968-4.716c-1.8,0-3.24,1.044-3.24,2.664
		C142.072,30.574,145.24,31.15,147.904,31.15z"/>
	<path d="M136.924,58.942h27.037v11.88h-1.368V60.31h-25.668V58.942z"/>
	<path d="M143.656,89.074c0.216-0.612,0.504-1.8,0.684-2.772h-10.656c-0.036,1.368-0.576,3.672-2.556,3.672
		c-0.468,0-1.044-0.216-1.044-0.9c0-0.504,0.36-1.008,0.864-1.332c0.9-0.576,1.836-2.16,1.836-3.564l0.648,0.036
		c0.108,0.432,0.18,0.828,0.216,1.224h10.44l1.44-1.44l2.592,2.52c-0.252,0.288-0.684,0.324-1.368,0.36
		c-0.612,0.828-1.692,1.872-2.556,2.448L143.656,89.074z M140.02,95.302v1.872c4.788,0.9,6.3,3.024,6.3,4.392
		c0,0.756-0.432,1.296-1.044,1.296c-0.288,0-0.576-0.108-0.864-0.324c-0.576-1.728-2.592-3.78-4.392-4.86v8.424
		c0,0.18-0.756,0.72-1.836,0.72h-0.324v-8.676c-1.692,2.556-3.996,4.752-6.876,6.48l-0.432-0.612c2.808-2.34,4.896-5.4,6.192-8.712
		h-5.904l-0.252-0.864h7.272v-3.42c-1.584,0.216-3.276,0.432-4.86,0.504l-0.18-0.648c3.276-0.684,7.236-2.016,9.252-3.096
		l2.412,2.232c-0.144,0.144-0.36,0.216-0.612,0.216c-0.288,0-0.648-0.072-1.044-0.216c-0.792,0.216-1.764,0.432-2.808,0.612v3.816
		h3.096l1.512-1.908l2.88,2.016c-0.288,0.54-0.72,0.756-1.656,0.756H140.02z M130.984,78.094l-0.216-0.864h7.02v-3.708l3.996,0.36
		c-0.072,0.576-0.468,0.792-1.728,0.972v2.376h3.096l1.548-1.908l2.916,2.016c-0.288,0.54-0.648,0.756-1.656,0.756h-5.904v3.564
		h2.304l1.44-1.836l2.844,1.944c-0.288,0.54-0.684,0.756-1.656,0.756H132.46l-0.216-0.864h5.544v-3.564H130.984z M160.792,88.858
		l2.628,2.376c-0.288,0.288-0.684,0.396-1.512,0.468c-1.224,3.132-2.952,5.94-5.364,8.388c2.268,2.016,4.968,3.564,7.956,4.608
		l-0.072,0.36c-0.972,0.108-1.728,0.72-2.124,1.8c-2.844-1.368-5.292-3.168-7.272-5.4c-2.628,2.196-5.904,4.032-10.008,5.328
		l-0.252-0.648c3.708-1.548,6.768-3.6,9.144-6.048c-1.836-2.484-3.204-5.436-4.104-8.892h-1.98l-0.288-0.864h11.7L160.792,88.858z
		 M152.476,79.246c0,2.988-0.396,7.2-4.572,9.972l-0.396-0.468c2.52-2.88,2.736-6.336,2.736-9.468v-4.536l2.628,1.152h4.5
		l1.044-1.332l2.772,2.232c-0.252,0.252-0.684,0.432-1.296,0.504v7.416c0,0.612,0.036,0.648,0.324,0.648h1.152
		c0.288,0,0.396-0.036,0.576-0.36c0.216-0.504,0.648-2.268,0.9-3.42h0.36l0.036,3.6c0.72,0.288,0.864,0.432,0.864,0.828
		c0,0.792-0.612,1.368-2.448,1.368h-1.728c-2.124,0-2.268-0.576-2.268-2.88v-7.74h-5.184V79.246z M150.604,91.198
		c0.972,2.88,2.556,5.4,4.536,7.524c1.836-2.232,3.24-4.752,4.176-7.524H150.604z"/>
	<path d="M139.084,127.521c1.836-0.36,3.78-0.792,5.76-1.188l0.144,0.54c-1.62,0.612-3.6,1.404-5.904,2.232v12.78
		c0,0.108-0.288,0.936-2.268,0.936v-12.888c-1.332,0.504-2.772,0.972-4.32,1.512c-0.144,0.468-0.504,0.792-0.828,0.864l-1.26-3.204
		c1.332-0.144,3.636-0.576,6.408-1.116v-9.036h-3.384c-0.576,2.304-1.296,4.428-2.16,6.048l-0.648-0.288
		c0.936-3.168,1.584-8.568,1.728-13.248l3.456,0.54c-0.072,0.432-0.288,0.684-1.152,0.756c-0.252,1.764-0.576,3.6-1.008,5.328h3.168
		v-8.64l3.816,0.324c-0.072,0.504-0.396,0.792-1.548,0.9v7.416h1.116l1.548-2.16l2.988,2.268c-0.288,0.54-0.756,0.756-1.692,0.756
		h-3.96V127.521z M161.224,115.569l2.916,2.34c-0.288,0.288-0.756,0.504-1.548,0.576c-0.324,12.888-1.044,21.132-2.808,22.824
		c-1.044,1.008-1.98,1.44-4.176,1.476c0-1.332-0.108-1.8-4.104-2.304l0.036-0.648c1.548,0.108,3.96,0.18,5.04,0.18
		c0.756,0,0.972-0.072,1.404-0.468c1.404-1.332,2.016-9.432,2.376-21.564h-2.16c-1.62,9.108-5.004,18.036-12.096,24.084l-0.36-0.576
		c5.616-5.976,8.676-14.796,9.936-23.508h-2.592c-1.728,6.48-5.04,12.996-10.404,17.388l-0.324-0.576
		c4.176-4.356,7.02-10.728,8.28-16.812h-2.736c-1.404,3.168-3.096,5.904-5.076,7.848l-0.576-0.324
		c2.448-3.492,4.536-9.72,5.508-16.092l3.744,0.9c-0.108,0.432-0.36,0.648-1.26,0.72c-0.54,2.124-1.188,4.176-1.98,6.084H160
		L161.224,115.569z"/>
	<path d="M130.804,155.277c4.392,0.468,5.832,2.268,5.832,3.6c0,0.756-0.54,1.368-1.224,1.368c-0.288,0-0.576-0.108-0.9-0.324
		c-0.612-1.548-2.304-3.348-3.888-4.248L130.804,155.277z M132.784,168.813c0.432,0,0.576,0,0.9-0.756
		c0.18-0.288,0.684-1.296,7.272-16.2l0.684,0.144c-1.62,4.644-4.824,13.32-5.364,15.084c-0.324,1.152-0.576,2.268-0.576,3.168
		c0.036,1.512,0.9,3.06,0.9,5.652c0,1.008,0,3.06-1.98,3.06c-0.648,0-1.08-0.648-1.152-1.8c0.18-1.332,0.288-2.592,0.288-3.6
		c0-3.492-0.756-3.78-2.592-3.96v-0.792c1.224,0,1.62-0.036,1.62-0.036V168.813z M132.352,145.917
		c4.5,0.612,5.976,2.556,5.976,3.924c0,0.828-0.54,1.476-1.26,1.476c-0.288,0-0.612-0.108-0.936-0.36
		c-0.576-1.656-2.376-3.636-3.996-4.68L132.352,145.917z M160.828,159.993l3.204,2.304c-0.288,0.54-0.72,0.756-1.728,0.756h-12.276
		l2.556,0.864c-0.18,0.432-0.468,0.648-1.368,0.612c-1.548,3.348-3.492,7.056-5.364,9.792l12.672-0.792
		c-0.936-1.728-2.124-3.384-3.24-4.572l0.36-0.288c5.328,2.916,7.02,6.192,7.02,8.172c0,1.188-0.576,1.944-1.332,1.944
		c-0.324,0-0.72-0.18-1.08-0.504c-0.144-1.224-0.648-2.628-1.332-4.032c-3.852,0.828-9.144,1.764-16.417,2.952
		c-0.216,0.432-0.576,0.72-0.936,0.792l-1.656-3.384c1.188-0.036,2.844-0.108,4.86-0.216c1.188-3.06,2.628-7.452,3.708-11.34h-8.424
		l-0.216-0.864h10.476v-8.316h-7.92l-0.216-0.864h8.136v-7.596l4.068,0.36c-0.036,0.576-0.432,0.828-1.656,1.008v6.228h4.752
		l1.656-2.16l3.132,2.232c-0.288,0.54-0.684,0.792-1.656,0.792h-7.884v8.316h6.444L160.828,159.993z"/>
	<path d="M157.66,193.365h-27.036v-11.88h1.368v10.512h25.668V193.365z"/>
	<path d="M134.188,228.67c2.24-4.816,6.72-8.26,13.104-8.26c6.58,0,10.948,3.612,13.104,8.26l-0.588,0.448
		c-2.38-4.284-6.776-6.972-12.516-6.972c-5.74,0-10.136,2.688-12.516,6.972L134.188,228.67z"/>
	<path d="M134.44,243.398h20.72l1.764-2.24l3.248,2.324c-0.28,0.532-0.7,0.728-1.512,0.728h-24.024L134.44,243.398z"/>
	<path d="M144.688,266.89c-0.056,0.364-0.308,0.504-0.98,0.532c-1.092,7.56-4.004,13.776-9.212,17.024l-0.364-0.308
		c4.256-3.5,6.776-10.08,7.392-17.808L144.688,266.89z M150.372,260.17l2.744,2.016c-0.364,0.42-1.148,0.672-2.212,0.728
		c1.064,7.868,3.5,15.456,9.604,19.32l-0.14,0.308c-0.84,0.168-1.596,0.812-1.904,1.54c-5.544-4.592-7.476-12.012-8.4-21.756h-9.212
		l-0.196-0.672h8.68L150.372,260.17z"/>
</g>
<rect x="0.25" y="0.25" fill="none" stroke="#00A0E9" stroke-width="0.5" width="35.986" height="207"/>
<rect x="4.236" y="207.249" fill="none" stroke="#00A0E9" stroke-width="0.5" width="28" height="77"/>
<line fill="none" stroke="#00A0E9" stroke-width="0.5" x1="32.236" y1="256.249" x2="4.236" y2="256.249"/>
<line fill="none" stroke="#00A0E9" stroke-width="0.5" x1="32.236" y1="228.249" x2="4.236" y2="228.249"/>
<line fill="none" stroke="#00A0E9" stroke-width="0.5" x1="0.25" y1="36.25" x2="36.236" y2="36.25"/>
<line fill="none" stroke="#00A0E9" stroke-width="0.5" x1="0.25" y1="72.25" x2="36.236" y2="72.25"/>
<line fill="none" stroke="#00A0E9" stroke-width="0.5" x1="0.25" y1="108.25" x2="36.236" y2="108.25"/>
<line fill="none" stroke="#00A0E9" stroke-width="0.5" x1="0.25" y1="144.25" x2="36.236" y2="144.25"/>
<line fill="none" stroke="#00A0E9" stroke-width="0.5" x1="0.25" y1="180.25" x2="36.236" y2="180.25"/>
<g>
	<path d="M70.321,18.694c2.808-1.584,6.192-2.7,8.856-2.7c7.092,0,9.36,3.924,9.36,8.208c0,4.932-4.284,8.82-11.772,8.82
		c-4.356,0-7.272-2.088-7.272-4.572c0-2.268,2.016-4.212,5.292-4.212c3.384,0,6.732,2.7,6.732,5.472c0,0.288-0.072,0.54-0.18,0.684
		c2.7-0.9,4.644-3.6,4.644-6.264c0-4.068-1.944-6.984-7.056-6.984c-2.448,0-9.252,1.548-12.996,7.272
		c-0.468,0.72-0.972,1.62-1.764,1.62c-0.684,0-1.224-0.9-1.224-1.512c0-1.152,1.224-2.16,1.836-2.772
		c2.988-2.952,10.476-10.476,14.724-14.724c0.288-0.252,0.396-0.432,0.396-0.54c0-0.144-0.144-0.18-0.36-0.18
		c-0.648,0-6.588,1.152-8.496,1.98c-0.864,0.396-0.936,0.792-1.656,0.792c-1.62,0-3.168-1.764-3.168-3.276
		c0-0.504,0.18-1.188,0.936-1.656l0.18,0.108c-0.108,1.152,0.684,2.016,1.908,2.016c2.232,0,8.388-0.936,9.828-1.404
		c0.612-0.216,1.08-1.008,1.476-1.008c1.44,0,3.276,1.692,3.276,2.484c0,0.9-1.08,0.756-2.376,1.764
		c-4.032,3.132-8.64,7.632-11.304,10.44L70.321,18.694z M76.873,31.15c0.864,0,1.836-0.072,2.7-0.252
		c-0.144-0.18-0.288-0.36-0.324-0.684c-0.216-2.484-2.448-4.716-4.968-4.716c-1.8,0-3.24,1.044-3.24,2.664
		C71.041,30.574,74.209,31.15,76.873,31.15z"/>
	<path d="M65.893,58.942h27.037v11.88h-1.368V60.31H65.893V58.942z"/>
	<path d="M72.625,89.074c0.216-0.612,0.504-1.8,0.684-2.772H62.653c-0.036,1.368-0.576,3.672-2.556,3.672
		c-0.468,0-1.044-0.216-1.044-0.9c0-0.504,0.36-1.008,0.864-1.332c0.9-0.576,1.836-2.16,1.836-3.564l0.648,0.036
		c0.108,0.432,0.18,0.828,0.216,1.224h10.44l1.44-1.44l2.592,2.52c-0.252,0.288-0.684,0.324-1.368,0.36
		c-0.612,0.828-1.692,1.872-2.556,2.448L72.625,89.074z M68.989,95.302v1.872c4.788,0.9,6.3,3.024,6.3,4.392
		c0,0.756-0.432,1.296-1.044,1.296c-0.288,0-0.576-0.108-0.864-0.324c-0.576-1.728-2.592-3.78-4.392-4.86v8.424
		c0,0.18-0.756,0.72-1.836,0.72h-0.324v-8.676c-1.692,2.556-3.996,4.752-6.876,6.48l-0.432-0.612c2.808-2.34,4.896-5.4,6.192-8.712
		h-5.904l-0.252-0.864h7.272v-3.42c-1.584,0.216-3.276,0.432-4.86,0.504l-0.18-0.648c3.276-0.684,7.236-2.016,9.252-3.096
		l2.412,2.232c-0.144,0.144-0.36,0.216-0.612,0.216c-0.288,0-0.648-0.072-1.044-0.216c-0.792,0.216-1.764,0.432-2.808,0.612v3.816
		h3.096l1.512-1.908l2.88,2.016c-0.288,0.54-0.72,0.756-1.656,0.756H68.989z M59.953,78.094l-0.216-0.864h7.02v-3.708l3.996,0.36
		c-0.072,0.576-0.468,0.792-1.728,0.972v2.376h3.096l1.548-1.908l2.916,2.016c-0.288,0.54-0.648,0.756-1.656,0.756h-5.904v3.564
		h2.304l1.44-1.836l2.844,1.944c-0.288,0.54-0.684,0.756-1.656,0.756H61.429l-0.216-0.864h5.544v-3.564H59.953z M89.761,88.858
		l2.628,2.376c-0.288,0.288-0.684,0.396-1.512,0.468c-1.224,3.132-2.952,5.94-5.364,8.388c2.268,2.016,4.968,3.564,7.956,4.608
		l-0.072,0.36c-0.972,0.108-1.728,0.72-2.124,1.8c-2.844-1.368-5.292-3.168-7.272-5.4c-2.628,2.196-5.904,4.032-10.008,5.328
		l-0.252-0.648c3.708-1.548,6.768-3.6,9.144-6.048c-1.836-2.484-3.204-5.436-4.104-8.892h-1.98l-0.288-0.864h11.7L89.761,88.858z
		 M81.445,79.246c0,2.988-0.396,7.2-4.572,9.972l-0.396-0.468c2.52-2.88,2.736-6.336,2.736-9.468v-4.536l2.628,1.152h4.5
		l1.044-1.332l2.772,2.232c-0.252,0.252-0.684,0.432-1.296,0.504v7.416c0,0.612,0.036,0.648,0.324,0.648h1.152
		c0.288,0,0.396-0.036,0.576-0.36c0.216-0.504,0.648-2.268,0.9-3.42h0.36l0.036,3.6c0.72,0.288,0.864,0.432,0.864,0.828
		c0,0.792-0.612,1.368-2.448,1.368h-1.728c-2.124,0-2.268-0.576-2.268-2.88v-7.74h-5.184V79.246z M79.573,91.198
		c0.972,2.88,2.556,5.4,4.536,7.524c1.836-2.232,3.24-4.752,4.176-7.524H79.573z"/>
	<path d="M68.053,127.521c1.836-0.36,3.78-0.792,5.76-1.188l0.144,0.54c-1.62,0.612-3.6,1.404-5.904,2.232v12.78
		c0,0.108-0.288,0.936-2.268,0.936v-12.888c-1.332,0.504-2.772,0.972-4.32,1.512c-0.144,0.468-0.504,0.792-0.828,0.864l-1.26-3.204
		c1.332-0.144,3.636-0.576,6.408-1.116v-9.036h-3.384c-0.576,2.304-1.296,4.428-2.16,6.048l-0.648-0.288
		c0.936-3.168,1.584-8.568,1.728-13.248l3.456,0.54c-0.072,0.432-0.288,0.684-1.152,0.756c-0.252,1.764-0.576,3.6-1.008,5.328h3.168
		v-8.64l3.816,0.324c-0.072,0.504-0.396,0.792-1.548,0.9v7.416h1.116l1.548-2.16l2.988,2.268c-0.288,0.54-0.756,0.756-1.692,0.756
		h-3.96V127.521z M90.193,115.569l2.916,2.34c-0.288,0.288-0.756,0.504-1.548,0.576c-0.324,12.888-1.044,21.132-2.808,22.824
		c-1.044,1.008-1.98,1.44-4.176,1.476c0-1.332-0.108-1.8-4.104-2.304l0.036-0.648c1.548,0.108,3.96,0.18,5.04,0.18
		c0.756,0,0.972-0.072,1.404-0.468c1.404-1.332,2.016-9.432,2.376-21.564h-2.16c-1.62,9.108-5.004,18.036-12.096,24.084l-0.36-0.576
		c5.616-5.976,8.676-14.796,9.936-23.508h-2.592c-1.728,6.48-5.04,12.996-10.404,17.388l-0.324-0.576
		c4.176-4.356,7.02-10.728,8.28-16.812h-2.736c-1.404,3.168-3.096,5.904-5.076,7.848l-0.576-0.324
		c2.448-3.492,4.536-9.72,5.508-16.092l3.744,0.9c-0.108,0.432-0.36,0.648-1.26,0.72c-0.54,2.124-1.188,4.176-1.98,6.084h11.736
		L90.193,115.569z"/>
	<path d="M59.773,155.277c4.392,0.468,5.832,2.268,5.832,3.6c0,0.756-0.54,1.368-1.224,1.368c-0.288,0-0.576-0.108-0.9-0.324
		c-0.612-1.548-2.304-3.348-3.888-4.248L59.773,155.277z M61.753,168.813c0.432,0,0.576,0,0.9-0.756
		c0.18-0.288,0.684-1.296,7.272-16.2l0.684,0.144c-1.62,4.644-4.824,13.32-5.364,15.084c-0.324,1.152-0.576,2.268-0.576,3.168
		c0.036,1.512,0.9,3.06,0.9,5.652c0,1.008,0,3.06-1.98,3.06c-0.648,0-1.08-0.648-1.152-1.8c0.18-1.332,0.288-2.592,0.288-3.6
		c0-3.492-0.756-3.78-2.592-3.96v-0.792c1.224,0,1.62-0.036,1.62-0.036V168.813z M61.321,145.917c4.5,0.612,5.976,2.556,5.976,3.924
		c0,0.828-0.54,1.476-1.26,1.476c-0.288,0-0.612-0.108-0.936-0.36c-0.576-1.656-2.376-3.636-3.996-4.68L61.321,145.917z
		 M89.797,159.993l3.204,2.304c-0.288,0.54-0.72,0.756-1.728,0.756H78.997l2.556,0.864c-0.18,0.432-0.468,0.648-1.368,0.612
		c-1.548,3.348-3.492,7.056-5.364,9.792l12.672-0.792c-0.936-1.728-2.124-3.384-3.24-4.572l0.36-0.288
		c5.328,2.916,7.02,6.192,7.02,8.172c0,1.188-0.576,1.944-1.332,1.944c-0.324,0-0.72-0.18-1.08-0.504
		c-0.144-1.224-0.648-2.628-1.332-4.032c-3.852,0.828-9.144,1.764-16.417,2.952c-0.216,0.432-0.576,0.72-0.936,0.792l-1.656-3.384
		c1.188-0.036,2.844-0.108,4.86-0.216c1.188-3.06,2.628-7.452,3.708-11.34h-8.424l-0.216-0.864h10.476v-8.316h-7.92l-0.216-0.864
		h8.136v-7.596l4.068,0.36c-0.036,0.576-0.432,0.828-1.656,1.008v6.228h4.752l1.656-2.16l3.132,2.232
		c-0.288,0.54-0.684,0.792-1.656,0.792h-7.884v8.316h6.444L89.797,159.993z"/>
	<path d="M86.629,193.365H59.593v-11.88h1.368v10.512h25.668V193.365z"/>
	<path d="M63.157,226.67c2.24-4.816,6.72-8.26,13.104-8.26c6.58,0,10.948,3.612,13.104,8.26l-0.588,0.448
		c-2.38-4.284-6.776-6.972-12.516-6.972c-5.74,0-10.136,2.688-12.516,6.972L63.157,226.67z"/>
	<path d="M63.409,241.398h20.72l1.764-2.24l3.248,2.324c-0.28,0.532-0.7,0.728-1.512,0.728H63.604L63.409,241.398z"/>
	<path d="M73.657,264.89c-0.056,0.364-0.308,0.504-0.98,0.532c-1.092,7.56-4.004,13.776-9.212,17.024l-0.364-0.308
		c4.256-3.5,6.776-10.08,7.392-17.808L73.657,264.89z M79.341,258.17l2.744,2.016c-0.364,0.42-1.148,0.672-2.212,0.728
		c1.064,7.868,3.5,15.456,9.604,19.32l-0.14,0.308c-0.84,0.168-1.596,0.812-1.904,1.54c-5.544-4.592-7.476-12.012-8.4-21.756h-9.212
		l-0.196-0.672h8.68L79.341,258.17z"/>
	<path d="M12.321,18.694c2.808-1.584,6.192-2.7,8.856-2.7c7.092,0,9.36,3.924,9.36,8.208c0,4.932-4.284,8.82-11.772,8.82
		c-4.356,0-7.272-2.088-7.272-4.572c0-2.268,2.016-4.212,5.292-4.212c3.384,0,6.732,2.7,6.732,5.472c0,0.288-0.072,0.54-0.18,0.684
		c2.7-0.9,4.644-3.6,4.644-6.264c0-4.068-1.944-6.984-7.056-6.984c-2.448,0-9.252,1.548-12.996,7.272
		c-0.468,0.72-0.972,1.62-1.764,1.62c-0.684,0-1.224-0.9-1.224-1.512c0-1.152,1.224-2.16,1.836-2.772
		C9.765,18.802,17.253,11.278,21.501,7.03c0.288-0.252,0.396-0.432,0.396-0.54c0-0.144-0.144-0.18-0.36-0.18
		c-0.648,0-6.588,1.152-8.496,1.98c-0.864,0.396-0.936,0.792-1.656,0.792c-1.62,0-3.168-1.764-3.168-3.276
		c0-0.504,0.18-1.188,0.936-1.656l0.18,0.108c-0.108,1.152,0.684,2.016,1.908,2.016c2.232,0,8.388-0.936,9.828-1.404
		c0.612-0.216,1.08-1.008,1.476-1.008c1.44,0,3.276,1.692,3.276,2.484c0,0.9-1.08,0.756-2.376,1.764
		c-4.032,3.132-8.64,7.632-11.304,10.44L12.321,18.694z M18.873,31.15c0.864,0,1.836-0.072,2.7-0.252
		c-0.144-0.18-0.288-0.36-0.324-0.684c-0.216-2.484-2.448-4.716-4.968-4.716c-1.8,0-3.24,1.044-3.24,2.664
		C13.041,30.574,16.209,31.15,18.873,31.15z"/>
	<path d="M7.893,58.942h27.037v11.88h-1.368V60.31H7.893V58.942z"/>
	<path d="M14.625,89.074c0.216-0.612,0.504-1.8,0.684-2.772H4.653c-0.036,1.368-0.576,3.672-2.556,3.672
		c-0.468,0-1.044-0.216-1.044-0.9c0-0.504,0.36-1.008,0.864-1.332c0.9-0.576,1.836-2.16,1.836-3.564l0.648,0.036
		c0.108,0.432,0.18,0.828,0.216,1.224h10.44l1.44-1.44l2.592,2.52c-0.252,0.288-0.684,0.324-1.368,0.36
		c-0.612,0.828-1.692,1.872-2.556,2.448L14.625,89.074z M10.989,95.302v1.872c4.788,0.9,6.3,3.024,6.3,4.392
		c0,0.756-0.432,1.296-1.044,1.296c-0.288,0-0.576-0.108-0.864-0.324c-0.576-1.728-2.592-3.78-4.392-4.86v8.424
		c0,0.18-0.756,0.72-1.836,0.72H8.829v-8.676c-1.692,2.556-3.996,4.752-6.876,6.48l-0.432-0.612c2.808-2.34,4.896-5.4,6.192-8.712
		H1.809l-0.252-0.864h7.272v-3.42c-1.584,0.216-3.276,0.432-4.86,0.504l-0.18-0.648c3.276-0.684,7.236-2.016,9.252-3.096
		l2.412,2.232c-0.144,0.144-0.36,0.216-0.612,0.216c-0.288,0-0.648-0.072-1.044-0.216c-0.792,0.216-1.764,0.432-2.808,0.612v3.816
		h3.096l1.512-1.908l2.88,2.016c-0.288,0.54-0.72,0.756-1.656,0.756H10.989z M1.953,78.094L1.737,77.23h7.02v-3.708l3.996,0.36
		c-0.072,0.576-0.468,0.792-1.728,0.972v2.376h3.096l1.548-1.908l2.916,2.016c-0.288,0.54-0.648,0.756-1.656,0.756h-5.904v3.564
		h2.304l1.44-1.836l2.844,1.944c-0.288,0.54-0.684,0.756-1.656,0.756H3.429l-0.216-0.864h5.544v-3.564H1.953z M31.761,88.858
		l2.628,2.376c-0.288,0.288-0.684,0.396-1.512,0.468c-1.224,3.132-2.952,5.94-5.364,8.388c2.268,2.016,4.968,3.564,7.956,4.608
		l-0.072,0.36c-0.972,0.108-1.728,0.72-2.124,1.8c-2.844-1.368-5.292-3.168-7.272-5.4c-2.628,2.196-5.904,4.032-10.008,5.328
		l-0.252-0.648c3.708-1.548,6.768-3.6,9.144-6.048c-1.836-2.484-3.204-5.436-4.104-8.892h-1.98l-0.288-0.864h11.7L31.761,88.858z
		 M23.445,79.246c0,2.988-0.396,7.2-4.572,9.972l-0.396-0.468c2.52-2.88,2.736-6.336,2.736-9.468v-4.536l2.628,1.152h4.5
		l1.044-1.332l2.772,2.232c-0.252,0.252-0.684,0.432-1.296,0.504v7.416c0,0.612,0.036,0.648,0.324,0.648h1.152
		c0.288,0,0.396-0.036,0.576-0.36c0.216-0.504,0.648-2.268,0.9-3.42h0.36l0.036,3.6c0.72,0.288,0.864,0.432,0.864,0.828
		c0,0.792-0.612,1.368-2.448,1.368h-1.728c-2.124,0-2.268-0.576-2.268-2.88v-7.74h-5.184V79.246z M21.573,91.198
		c0.972,2.88,2.556,5.4,4.536,7.524c1.836-2.232,3.24-4.752,4.176-7.524H21.573z"/>
	<path d="M10.053,127.521c1.836-0.36,3.78-0.792,5.76-1.188l0.144,0.54c-1.62,0.612-3.6,1.404-5.904,2.232v12.78
		c0,0.108-0.288,0.936-2.268,0.936v-12.888c-1.332,0.504-2.772,0.972-4.32,1.512c-0.144,0.468-0.504,0.792-0.828,0.864l-1.26-3.204
		c1.332-0.144,3.636-0.576,6.408-1.116v-9.036H4.401c-0.576,2.304-1.296,4.428-2.16,6.048l-0.648-0.288
		c0.936-3.168,1.584-8.568,1.728-13.248l3.456,0.54c-0.072,0.432-0.288,0.684-1.152,0.756c-0.252,1.764-0.576,3.6-1.008,5.328h3.168
		v-8.64l3.816,0.324c-0.072,0.504-0.396,0.792-1.548,0.9v7.416h1.116l1.548-2.16l2.988,2.268c-0.288,0.54-0.756,0.756-1.692,0.756
		h-3.96V127.521z M32.193,115.569l2.916,2.34c-0.288,0.288-0.756,0.504-1.548,0.576c-0.324,12.888-1.044,21.132-2.808,22.824
		c-1.044,1.008-1.98,1.44-4.176,1.476c0-1.332-0.108-1.8-4.104-2.304l0.036-0.648c1.548,0.108,3.96,0.18,5.04,0.18
		c0.756,0,0.972-0.072,1.404-0.468c1.404-1.332,2.016-9.432,2.376-21.564h-2.16c-1.62,9.108-5.004,18.036-12.096,24.084l-0.36-0.576
		c5.616-5.976,8.676-14.796,9.936-23.508h-2.592c-1.728,6.48-5.04,12.996-10.404,17.388l-0.324-0.576
		c4.176-4.356,7.02-10.728,8.28-16.812h-2.736c-1.404,3.168-3.096,5.904-5.076,7.848l-0.576-0.324
		c2.448-3.492,4.536-9.72,5.508-16.092l3.744,0.9c-0.108,0.432-0.36,0.648-1.26,0.72c-0.54,2.124-1.188,4.176-1.98,6.084h11.736
		L32.193,115.569z"/>
	<path d="M1.773,155.277c4.392,0.468,5.832,2.268,5.832,3.6c0,0.756-0.54,1.368-1.224,1.368c-0.288,0-0.576-0.108-0.9-0.324
		c-0.612-1.548-2.304-3.348-3.888-4.248L1.773,155.277z M3.753,168.813c0.432,0,0.576,0,0.9-0.756
		c0.18-0.288,0.684-1.296,7.272-16.2l0.684,0.144c-1.62,4.644-4.824,13.32-5.364,15.084c-0.324,1.152-0.576,2.268-0.576,3.168
		c0.036,1.512,0.9,3.06,0.9,5.652c0,1.008,0,3.06-1.98,3.06c-0.648,0-1.08-0.648-1.152-1.8c0.18-1.332,0.288-2.592,0.288-3.6
		c0-3.492-0.756-3.78-2.592-3.96v-0.792c1.224,0,1.62-0.036,1.62-0.036V168.813z M3.321,145.917c4.5,0.612,5.976,2.556,5.976,3.924
		c0,0.828-0.54,1.476-1.26,1.476c-0.288,0-0.612-0.108-0.936-0.36c-0.576-1.656-2.376-3.636-3.996-4.68L3.321,145.917z
		 M31.797,159.993l3.204,2.304c-0.288,0.54-0.72,0.756-1.728,0.756H20.997l2.556,0.864c-0.18,0.432-0.468,0.648-1.368,0.612
		c-1.548,3.348-3.492,7.056-5.364,9.792l12.672-0.792c-0.936-1.728-2.124-3.384-3.24-4.572l0.36-0.288
		c5.328,2.916,7.02,6.192,7.02,8.172c0,1.188-0.576,1.944-1.332,1.944c-0.324,0-0.72-0.18-1.08-0.504
		c-0.144-1.224-0.648-2.628-1.332-4.032c-3.852,0.828-9.144,1.764-16.417,2.952c-0.216,0.432-0.576,0.72-0.936,0.792l-1.656-3.384
		c1.188-0.036,2.844-0.108,4.86-0.216c1.188-3.06,2.628-7.452,3.708-11.34h-8.424l-0.216-0.864h10.476v-8.316h-7.92l-0.216-0.864
		h8.136v-7.596l4.068,0.36c-0.036,0.576-0.432,0.828-1.656,1.008v6.228h4.752l1.656-2.16l3.132,2.232
		c-0.288,0.54-0.684,0.792-1.656,0.792h-7.884v8.316h6.444L31.797,159.993z"/>
	<path d="M28.629,193.365H1.593v-11.88h1.368v10.512h25.668V193.365z"/>
	<path d="M5.157,226.67c2.24-4.816,6.72-8.26,13.104-8.26c6.58,0,10.948,3.612,13.104,8.26l-0.588,0.448
		c-2.38-4.284-6.776-6.972-12.516-6.972c-5.74,0-10.136,2.688-12.516,6.972L5.157,226.67z"/>
	<path d="M5.409,241.398h20.72l1.764-2.24l3.248,2.324c-0.28,0.532-0.7,0.728-1.512,0.728H5.604L5.409,241.398z"/>
	<path d="M15.657,264.89c-0.056,0.364-0.308,0.504-0.98,0.532c-1.092,7.56-4.004,13.776-9.212,17.024l-0.364-0.308
		c4.256-3.5,6.776-10.08,7.392-17.808L15.657,264.89z M21.341,258.17l2.744,2.016c-0.364,0.42-1.148,0.672-2.212,0.728
		c1.064,7.868,3.5,15.456,9.604,19.32l-0.14,0.308c-0.84,0.168-1.596,0.812-1.904,1.54c-5.544-4.592-7.476-12.012-8.4-21.756h-9.212
		l-0.196-0.672h8.68L21.341,258.17z"/>
</g>
<g>
	<path fill="#00A0E9" d="M346.875,63.626c-1.04,0.864-1.521,1.6-1.521,2.352c0,0.736,0.464,1.264,1.36,1.568
		c0.608,0.208,1.664,0.32,2.928,0.32c2,0,3.904-0.24,4.8-0.608l0.145,1.312c-0.208,0.016-0.272,0.032-0.544,0.08
		c-1.393,0.24-2.912,0.368-4.32,0.368c-1.536,0-2.896-0.192-3.68-0.496c-1.2-0.496-1.824-1.312-1.824-2.416
		c0-1.04,0.608-2.048,1.84-3.088L346.875,63.626z M345.194,57.786c1.169,0.272,2.433,0.384,4.257,0.384
		c1.871,0,3.168-0.112,4.048-0.336l0.08,1.056c-0.992,0.416-2.465,1.296-4.032,2.432l-0.816-0.656
		c1.024-0.688,1.408-0.928,2.128-1.328c0.177-0.096,0.208-0.112,0.4-0.208c0.112-0.064,0.144-0.064,0.304-0.16
		c-0.96,0.16-1.504,0.208-2.416,0.208c-1.12,0-2.479-0.08-3.52-0.208c-0.288-0.032-0.32-0.048-0.528-0.048L345.194,57.786z"/>
	<path fill="#00A0E9" d="M346.875,79.626c-1.04,0.864-1.521,1.6-1.521,2.352c0,0.736,0.464,1.264,1.36,1.568
		c0.608,0.208,1.664,0.32,2.928,0.32c2,0,3.904-0.24,4.8-0.608l0.145,1.312c-0.208,0.016-0.272,0.032-0.544,0.08
		c-1.393,0.24-2.912,0.368-4.32,0.368c-1.536,0-2.896-0.192-3.68-0.496c-1.2-0.496-1.824-1.312-1.824-2.416
		c0-1.04,0.608-2.048,1.84-3.088L346.875,79.626z M345.194,73.786c1.169,0.272,2.433,0.384,4.257,0.384
		c1.871,0,3.168-0.112,4.048-0.336l0.08,1.056c-0.992,0.416-2.465,1.296-4.032,2.432l-0.816-0.656
		c1.024-0.688,1.408-0.928,2.128-1.328c0.177-0.096,0.208-0.112,0.4-0.208c0.112-0.064,0.144-0.064,0.304-0.16
		c-0.96,0.16-1.504,0.208-2.416,0.208c-1.12,0-2.479-0.08-3.52-0.208c-0.288-0.032-0.32-0.048-0.528-0.048L345.194,73.786z"/>
	<path fill="#00A0E9" d="M347.146,90.522c0.528-1.12,0.721-1.68,0.769-2.192l1.279,0.224c-0.144,0.208-0.144,0.208-0.416,0.864
		c-0.208,0.512-0.416,0.944-0.495,1.088c0.191-0.016,0.191-0.016,0.336-0.016c2.56-0.128,4.159-0.32,5.04-0.608l0.096,1.088
		c-0.256,0.016-0.353,0.032-0.641,0.08c-1.663,0.224-3.344,0.352-5.279,0.416c-0.48,0.944-0.88,1.584-1.44,2.272
		c-0.16,0.192-0.479,0.56-0.544,0.608c-0.111,0.08-0.191,0.144-0.208,0.16c0,0.016-0.016,0.016-0.016,0.016c0,0.016,0,0.016,0,0.016
		c0.016,0.032,0.016,0.032,0.032,0.048c0.575-0.448,0.575-0.448,0.735-0.56c0.736-0.512,1.584-0.784,2.416-0.784
		c1.185,0,1.904,0.592,2.112,1.776c1.168-0.464,2.08-0.8,2.784-1.056c0.783-0.272,0.832-0.288,1.088-0.464l0.512,1.12
		c-0.832,0.144-2.271,0.624-4.271,1.408c0.031,0.416,0.031,0.576,0.031,0.976c0,0.208,0,0.56-0.016,0.88
		c-0.016,0.352-0.016,0.576-0.016,0.72c0,0.224,0,0.352,0.031,0.576l-1.088,0.016c0.048-0.352,0.097-1.328,0.097-2.304
		c0-0.256,0-0.288-0.017-0.48c-2.176,1.024-3.008,1.776-3.008,2.736c0,1.056,0.992,1.52,3.248,1.52c1.584,0,3.36-0.256,4.271-0.624
		l0.145,1.232c-0.24,0.016-0.32,0.032-0.641,0.08c-1.264,0.208-2.655,0.32-3.888,0.32c-2.863,0-4.256-0.816-4.256-2.464
		c0-0.88,0.544-1.712,1.632-2.528c0.544-0.4,1.313-0.816,2.384-1.28c-0.128-0.88-0.512-1.264-1.264-1.264
		c-1.008,0-2.271,0.592-3.567,1.696c-0.624,0.528-0.977,0.896-1.232,1.328l-0.896-0.896c1.104-0.848,2.432-2.528,3.583-4.576
		c0.049-0.08,0.049-0.08,0.145-0.24c-0.064,0.016-0.224,0.032-0.304,0.032c-0.256,0-1.761-0.032-2.353-0.048
		c-0.08,0-0.208,0-0.256,0c-0.144,0-0.176,0-0.352,0.016l0.016-1.104c0.576,0.112,1.792,0.176,3.424,0.176H347.146z"/>
	<path fill="#00A0E9" d="M356.203,116.554c-0.561-0.08-1.152-0.112-2.129-0.112h-9.487c-0.96,0-1.552,0.032-2.128,0.112v-1.312
		c0.576,0.08,1.04,0.112,2.112,0.112h9.503c1.072,0,1.521-0.016,2.129-0.112V116.554z M343.898,105.866
		c0.561,0.08,1.185,0.112,2.064,0.112h6.576c1.071,0,1.535-0.016,2.096-0.096v1.28c-0.624-0.08-1.072-0.096-2.096-0.096h-6.576
		c-0.928,0-1.536,0.032-2.064,0.096V105.866z"/>
	<path fill="#00A0E9" d="M348.154,120.474c-0.144,0.192-0.207,0.32-0.447,0.816c-1.232,2.48-2.784,4.336-5.04,6
		c-0.208-0.32-0.416-0.56-0.784-0.864c1.936-1.296,3.312-2.768,4.384-4.688c0.4-0.704,0.608-1.2,0.688-1.68L348.154,120.474z
		 M346.603,126.698c-0.607,0-1.151,0.032-1.647,0.096v-1.136c0.464,0.064,1.008,0.096,1.664,0.096h5.264
		c0.736,0,1.216-0.016,1.68-0.08c-0.048,0.288-0.048,0.416-0.063,1.136c0,3.104-0.305,5.808-0.721,6.56
		c-0.271,0.48-0.655,0.64-1.584,0.64c-0.527,0-1.088-0.032-2.096-0.128c-0.048-0.432-0.096-0.672-0.256-1.136
		c0.88,0.176,1.68,0.272,2.256,0.272c0.512,0,0.688-0.096,0.8-0.4c0.336-0.976,0.528-3.152,0.528-5.92h-3.728
		c-0.145,1.76-0.513,2.96-1.248,4.208c-0.832,1.392-2.08,2.48-4.032,3.488c-0.208-0.368-0.368-0.576-0.704-0.896
		c2.048-0.992,3.264-2.048,4.032-3.504c0.527-1.008,0.752-1.888,0.863-3.296H346.603z M351.579,120.09
		c0.128,0.416,0.271,0.736,0.607,1.344c1.168,2.096,2.528,3.536,4.72,4.976c-0.304,0.288-0.512,0.56-0.752,0.976
		c-2.527-1.872-3.888-3.488-5.392-6.432c-0.08-0.144-0.176-0.32-0.256-0.448L351.579,120.09z"/>
	<path fill="#00A0E9" d="M342.139,138.666c0.368,0.064,0.672,0.08,1.28,0.08h2.896c0.656,0,0.929-0.016,1.28-0.08v1.04
		c-0.336-0.048-0.592-0.064-1.168-0.064h-3.008c-0.561,0-0.848,0.016-1.28,0.064V138.666z M342.683,136.442
		c0.384,0.064,0.656,0.08,1.216,0.08h2.257c0.544,0,0.831-0.016,1.216-0.08v1.008c-0.4-0.048-0.721-0.064-1.216-0.064h-2.257
		c-0.496,0-0.832,0.016-1.216,0.064V136.442z M342.811,140.954c0.336,0.048,0.608,0.064,1.152,0.064h2.288
		c0.544,0,0.8-0.016,1.136-0.064v0.976c-0.368-0.048-0.592-0.064-1.136-0.064h-2.288c-0.544,0-0.784,0.016-1.152,0.064V140.954z
		 M342.811,143.146c0.336,0.048,0.592,0.064,1.152,0.064h2.288c0.56,0,0.815-0.016,1.136-0.064v0.976
		c-0.432-0.048-0.624-0.064-1.136-0.064h-2.288c-0.528,0-0.784,0.016-1.152,0.064V143.146z M342.827,150.441
		c0.063-0.448,0.096-0.912,0.096-1.552v-2.16c0-0.56-0.016-0.928-0.08-1.344c0.416,0.048,0.816,0.064,1.28,0.064h2.096
		c0.688,0,0.864,0,1.152-0.048c-0.032,0.336-0.048,0.688-0.048,1.264v2.256c0,0.496,0.016,0.848,0.079,1.312h-0.976v-0.656h-2.576
		v0.864H342.827z M343.851,148.746h2.576v-2.464h-2.576V148.746z M351.627,137.274c0-0.512-0.032-0.88-0.097-1.296h1.152
		c-0.063,0.4-0.096,0.784-0.096,1.328v1.184h2.512c0.72,0,1.152-0.032,1.6-0.096v1.104c-0.447-0.064-0.96-0.096-1.584-0.096h-2.527
		v2.464h2.224c0.688,0,1.152-0.032,1.601-0.096v1.088c-0.448-0.064-0.929-0.096-1.584-0.096h-5.057
		c-0.655,0-1.088,0.032-1.584,0.096v-1.088c0.433,0.064,0.88,0.096,1.584,0.096h1.856v-2.464h-2.032
		c-0.704,0-1.168,0.032-1.616,0.096v-1.104c0.433,0.064,0.88,0.096,1.616,0.096h2.032V137.274z M349.867,150.361h-1.089
		c0.064-0.4,0.08-0.816,0.08-1.536v-2.992c0-0.656-0.016-1.04-0.063-1.456c0.399,0.048,0.736,0.064,1.216,0.064h4.32
		c0.592,0,0.911-0.016,1.279-0.064c-0.048,0.32-0.063,0.752-0.063,1.488v2.928c0,0.608,0.032,1.248,0.08,1.568h-1.088v-0.8h-4.672
		V150.361z M349.867,148.666h4.672v-3.328h-4.672V148.666z"/>
	<path fill="#00A0E9" d="M346.075,153.242c0.016,0.512,0.224,1.856,0.432,2.784c1.12-0.544,2.224-0.8,3.424-0.8
		c0.112,0,0.304,0,0.528,0.016c0.271-1.056,0.464-2.112,0.496-2.576l1.199,0.256c-0.096,0.256-0.096,0.256-0.432,1.68
		c-0.08,0.272-0.112,0.448-0.192,0.752c2.656,0.496,4.24,2.24,4.24,4.656c0,1.488-0.656,2.944-1.744,3.84
		c-0.815,0.688-1.968,1.248-3.231,1.584c-0.24,0.064-0.32,0.08-1.008,0.24c-0.128-0.416-0.208-0.544-0.624-1.072
		c0.912-0.08,1.536-0.24,2.384-0.592c1.12-0.464,1.92-1.04,2.399-1.744c0.465-0.672,0.704-1.44,0.704-2.272
		c0-1.952-1.168-3.232-3.376-3.696c-0.72,2.48-1.855,4.768-3.104,6.271c-1.024,1.248-1.92,1.824-2.848,1.824
		c-1.393,0-2.305-1.248-2.305-3.136c0-1.04,0.336-2.144,0.929-3.056c0.416-0.624,0.863-1.088,1.6-1.632
		c-0.112-0.512-0.304-1.456-0.448-2.256c-0.096-0.528-0.112-0.592-0.208-0.848L346.075,153.242z M344.699,158.97
		c-0.4,0.688-0.641,1.552-0.641,2.24c0,1.264,0.513,2.096,1.296,2.096c0.561,0,1.248-0.48,1.969-1.36
		c-0.641-1.344-1.152-2.832-1.505-4.304C345.291,158.105,344.986,158.458,344.699,158.97z M348.059,161.065
		c0.08-0.16,0.08-0.176,0.192-0.352c0.752-1.184,1.456-2.816,1.952-4.528c-0.177,0-0.32-0.016-0.4-0.016
		c-1.136,0-2.16,0.272-3.088,0.816c0.304,1.296,0.64,2.352,1.2,3.712c0.08,0.208,0.096,0.24,0.128,0.368H348.059z"/>
	<path fill="#00A0E9" d="M345.131,169.37c0.448,0.08,0.736,0.096,1.504,0.096c1.328,0,3.456-0.096,4.896-0.208
		c0.416-0.032,0.561-0.064,0.769-0.176l0.672,0.88c-0.224,0.112-0.304,0.176-0.816,0.672c-2.208,2.16-4.144,3.824-5.264,4.544
		l0.032,0.048c1.216-0.656,2.512-0.992,3.92-0.992c2.672,0,4.384,1.312,4.384,3.36c0,2.496-2.32,4.144-5.872,4.144
		c-2.256,0-3.552-0.832-3.552-2.304c0-1.072,0.992-1.872,2.32-1.872c1.071,0,2,0.464,2.64,1.312
		c0.336,0.448,0.512,0.832,0.736,1.536c1.68-0.464,2.56-1.44,2.56-2.8c0-1.536-1.28-2.448-3.439-2.448
		c-2.353,0-4.88,1.024-6.736,2.736l-0.72-1.024c0.576-0.336,1.151-0.752,2.239-1.632c1.713-1.36,4.24-3.584,5.345-4.672
		c0.096-0.096,0.096-0.096,0.224-0.224c0,0,0.032-0.032,0.064-0.064l0.063-0.064l-0.032-0.032c-0.048,0-0.048,0-0.144,0.016
		c-0.512,0.096-2.432,0.208-4.864,0.288c-0.352,0.016-0.512,0.032-0.864,0.08L345.131,169.37z M348.139,178.474
		c-0.8,0-1.296,0.384-1.296,0.992c0,0.416,0.208,0.72,0.64,0.976c0.416,0.224,1.104,0.368,1.792,0.368
		c0.4,0,0.593-0.016,1.168-0.112C350.091,179.242,349.291,178.474,348.139,178.474z"/>
</g>
<g>
	<path fill="#00A0E9" d="M291.479,7.879c-0.096,0.24-0.096,0.24-0.288,0.736c-0.272,0.704-0.991,2.32-1.36,3.024
		c-0.783,1.52-1.647,2.784-2.799,4.048c0.672,0.624,1.328,1.168,2.096,1.68c1.216,0.832,2.176,1.312,4.111,2.08
		c-0.367,0.432-0.512,0.656-0.736,1.152c-2.719-1.296-4.495-2.48-6.223-4.144c-0.625,0.592-1.057,0.96-1.761,1.456
		c-1.6,1.168-2.8,1.776-5.168,2.64c-0.192-0.432-0.304-0.608-0.688-1.04c2.064-0.64,3.265-1.184,4.752-2.144
		c0.769-0.512,1.425-1.024,2.129-1.68c-0.961-1.104-1.616-2.032-2.288-3.216c-0.704-1.296-1.009-2.016-1.696-4.096h-0.32
		c-0.879,0-1.295,0.016-1.711,0.08V7.287c0.479,0.064,0.959,0.096,1.728,0.096h7.903c0.864,0,1.297-0.032,1.713-0.096L291.479,7.879
		z M282.662,8.375c0.576,1.728,0.912,2.544,1.568,3.68c0.592,1.024,1.28,2,2.064,2.864c0.703-0.768,1.232-1.456,1.76-2.272
		c0.816-1.28,1.279-2.272,1.984-4.272H282.662z"/>
	<path fill="#00A0E9" d="M282.295,23.223c-0.688,1.6-1.232,4.88-1.232,7.504c0,0.56,0.032,1.504,0.064,2.24
		c0,0.128,0,0.16,0.016,0.448c0,0.144,0,0.144,0,0.304l0.064,0.016c0.287-1.2,0.4-1.504,0.943-2.816
		c0.064-0.144,0.096-0.208,0.129-0.32l0.783,0.368c-0.752,1.568-1.375,3.6-1.375,4.544c0,0.08,0,0.096,0.031,0.32l-1.136,0.112
		c-0.017-0.144-0.032-0.224-0.097-0.592c-0.287-1.488-0.447-3.136-0.447-4.752c0-2.128,0.207-3.808,0.832-6.576
		c0.144-0.704,0.16-0.8,0.176-1.008L282.295,23.223z M283.91,26.199c0.785,0.192,1.473,0.256,2.881,0.256
		c0.623,0,1.056-0.016,1.712-0.048c-0.017-1.504-0.017-1.504-0.017-2.72c0-0.272-0.016-0.496-0.048-0.656h1.2
		c-0.08,0.432-0.111,1.184-0.111,2.512c0,0.176,0,0.432,0.016,0.784c1.231-0.144,2.16-0.336,2.768-0.592l0.048,1.088
		c-0.032,0-0.032,0-1.12,0.224c-0.416,0.096-0.863,0.16-1.695,0.256c0.016,1.584,0.048,2.4,0.176,4.528
		c1.168,0.528,1.615,0.784,2.672,1.568c0.191,0.128,0.225,0.16,0.4,0.272l-0.496,1.12c-0.496-0.56-1.137-1.008-2.272-1.664
		c-0.063-0.032-0.063-0.032-0.159-0.096c-0.064-0.048-0.064-0.048-0.145-0.096c0.031,0.24,0.031,0.272,0.031,0.416
		c0,0.416-0.063,0.8-0.191,1.088c-0.384,0.848-1.359,1.344-2.672,1.344c-1.855,0-3.023-0.88-3.023-2.272
		c0-1.328,1.264-2.272,3.039-2.272c0.656,0,1.408,0.128,1.776,0.32c-0.048-0.336-0.112-1.84-0.16-4.176
		c-0.72,0.032-1.216,0.048-1.823,0.048c-0.656,0-1.248-0.016-1.809-0.048c-0.271-0.032-0.447-0.032-0.512-0.032
		c-0.145-0.016-0.24-0.016-0.272-0.016c-0.079-0.016-0.128-0.016-0.159-0.016c-0.017,0-0.033,0-0.064,0L283.91,26.199z
		 M286.982,32.199c-1.248,0-2.063,0.528-2.063,1.328c0,0.784,0.735,1.296,1.856,1.296c0.703,0,1.327-0.208,1.631-0.56
		c0.209-0.24,0.305-0.624,0.305-1.248c0-0.112-0.016-0.48-0.016-0.48C288.039,32.279,287.623,32.199,286.982,32.199z"/>
	<path fill="#00A0E9" d="M289.927,38.231c1.312,1.072,2.128,1.92,3.216,3.392l-0.896,0.848c-1.023-1.488-1.951-2.496-3.151-3.488
		L289.927,38.231z"/>
	<path fill="#00A0E9" d="M283.543,57.911c-1.04,0.864-1.52,1.6-1.52,2.352c0,0.736,0.463,1.264,1.359,1.568
		c0.607,0.208,1.664,0.32,2.928,0.32c2,0,3.904-0.24,4.801-0.608l0.144,1.312c-0.208,0.016-0.272,0.032-0.544,0.08
		c-1.393,0.24-2.912,0.368-4.32,0.368c-1.536,0-2.896-0.192-3.68-0.496c-1.2-0.496-1.824-1.312-1.824-2.416
		c0-1.04,0.607-2.048,1.84-3.088L283.543,57.911z M281.863,52.071c1.168,0.272,2.432,0.384,4.256,0.384
		c1.871,0,3.168-0.112,4.047-0.336l0.08,1.056c-0.991,0.416-2.463,1.296-4.031,2.432l-0.816-0.656
		c1.024-0.688,1.408-0.928,2.129-1.328c0.176-0.096,0.207-0.112,0.399-0.208c0.112-0.064,0.144-0.064,0.304-0.16
		c-0.96,0.16-1.504,0.208-2.416,0.208c-1.119,0-2.479-0.08-3.52-0.208c-0.288-0.032-0.32-0.048-0.528-0.048L281.863,52.071z"/>
	<path fill="#00A0E9" d="M283.543,73.911c-1.04,0.864-1.52,1.6-1.52,2.352c0,0.736,0.463,1.264,1.359,1.568
		c0.607,0.208,1.664,0.32,2.928,0.32c2,0,3.904-0.24,4.801-0.608l0.144,1.312c-0.208,0.016-0.272,0.032-0.544,0.08
		c-1.393,0.24-2.912,0.368-4.32,0.368c-1.536,0-2.896-0.192-3.68-0.496c-1.2-0.496-1.824-1.312-1.824-2.416
		c0-1.04,0.607-2.048,1.84-3.088L283.543,73.911z M281.863,68.071c1.168,0.272,2.432,0.384,4.256,0.384
		c1.871,0,3.168-0.112,4.047-0.336l0.08,1.056c-0.991,0.416-2.463,1.296-4.031,2.432l-0.816-0.656
		c1.024-0.688,1.408-0.928,2.129-1.328c0.176-0.096,0.207-0.112,0.399-0.208c0.112-0.064,0.144-0.064,0.304-0.16
		c-0.96,0.16-1.504,0.208-2.416,0.208c-1.119,0-2.479-0.08-3.52-0.208c-0.288-0.032-0.32-0.048-0.528-0.048L281.863,68.071z"/>
	<path fill="#00A0E9" d="M283.814,84.807c0.528-1.12,0.721-1.68,0.768-2.192l1.281,0.224c-0.145,0.208-0.145,0.208-0.416,0.864
		c-0.209,0.512-0.416,0.944-0.496,1.088c0.191-0.016,0.191-0.016,0.336-0.016c2.56-0.128,4.16-0.32,5.039-0.608l0.097,1.088
		c-0.257,0.016-0.353,0.032-0.64,0.08c-1.664,0.224-3.345,0.352-5.28,0.416c-0.479,0.944-0.88,1.584-1.44,2.272
		c-0.16,0.192-0.479,0.56-0.544,0.608c-0.112,0.08-0.192,0.144-0.208,0.16c0,0.016-0.016,0.016-0.016,0.016c0,0.016,0,0.016,0,0.016
		c0.016,0.032,0.016,0.032,0.031,0.048c0.576-0.448,0.576-0.448,0.736-0.56c0.736-0.512,1.584-0.784,2.416-0.784
		c1.184,0,1.904,0.592,2.112,1.776c1.168-0.464,2.08-0.8,2.784-1.056c0.783-0.272,0.832-0.288,1.088-0.464l0.512,1.12
		c-0.832,0.144-2.271,0.624-4.271,1.408c0.031,0.416,0.031,0.576,0.031,0.976c0,0.208,0,0.56-0.016,0.88
		c-0.016,0.352-0.016,0.576-0.016,0.72c0,0.224,0,0.352,0.031,0.576l-1.088,0.016c0.049-0.352,0.096-1.328,0.096-2.304
		c0-0.256,0-0.288-0.016-0.48c-2.176,1.024-3.008,1.776-3.008,2.736c0,1.056,0.992,1.52,3.248,1.52c1.584,0,3.359-0.256,4.271-0.624
		l0.145,1.232c-0.24,0.016-0.32,0.032-0.641,0.08c-1.264,0.208-2.655,0.32-3.888,0.32c-2.864,0-4.256-0.816-4.256-2.464
		c0-0.88,0.544-1.712,1.632-2.528c0.545-0.4,1.313-0.816,2.385-1.28c-0.129-0.88-0.513-1.264-1.265-1.264
		c-1.008,0-2.272,0.592-3.567,1.696c-0.625,0.528-0.977,0.896-1.232,1.328l-0.896-0.896c1.104-0.848,2.433-2.528,3.584-4.576
		c0.049-0.08,0.049-0.08,0.145-0.24c-0.064,0.016-0.225,0.032-0.305,0.032c-0.256,0-1.76-0.032-2.352-0.048c-0.08,0-0.208,0-0.256,0
		c-0.145,0-0.176,0-0.352,0.016l0.016-1.104c0.576,0.112,1.792,0.176,3.424,0.176H283.814z"/>
	<path fill="#00A0E9" d="M281.623,108.055c0-0.368-0.016-0.608-0.049-1.008c-0.896,0.4-1.215,0.528-2.256,0.896
		c-0.16-0.48-0.224-0.608-0.512-0.976c2.641-0.768,4.624-1.696,6.528-3.072c-0.944-0.768-1.536-1.408-2.288-2.448
		c-0.977,1.088-1.872,1.84-3.168,2.64c-0.225-0.352-0.385-0.544-0.688-0.784c1.728-1.008,2.896-2.032,4.08-3.632
		c0.495-0.656,0.799-1.152,0.975-1.616l1.104,0.304l-0.911,1.344h3.743c0.656,0,1.088-0.016,1.504-0.08l0.56,0.72
		c-0.144,0.176-0.239,0.288-0.463,0.576c-0.912,1.168-1.681,1.984-2.849,2.976c0.832,0.544,1.328,0.832,2.112,1.216
		c1.424,0.688,2.4,1.04,4.208,1.52c-0.224,0.336-0.384,0.656-0.496,1.056c-1.104-0.368-1.552-0.528-2.16-0.784
		c-0.048,0.368-0.063,0.688-0.063,1.152v3.296c0,0.512,0.031,0.944,0.096,1.424h-1.104v-0.96h-6.896v0.96h-1.104
		c0.063-0.512,0.096-0.944,0.096-1.424V108.055z M289.463,106.823c0.367,0,0.592,0,0.88-0.032c-1.824-0.784-3.009-1.424-4.192-2.272
		c-1.375,0.992-2.144,1.44-4.031,2.288c0.256,0.016,0.367,0.016,0.576,0.016H289.463z M282.631,110.919h6.896v-3.216h-6.896V110.919
		z M283.783,100.567c-0.064,0.096-0.064,0.096-0.145,0.192c0.832,1.104,1.473,1.76,2.48,2.544c1.056-0.848,1.647-1.456,2.656-2.736
		H283.783z"/>
	<path fill="#00A0E9" d="M279.431,117.416c0-0.752-0.032-1.392-0.096-1.968c0.544,0.064,1.024,0.08,1.872,0.08h9.584
		c0.848,0,1.312-0.016,1.904-0.08c-0.064,0.608-0.097,1.12-0.097,1.968v8.848c0,0.992,0.017,1.392,0.097,1.84h-1.137v-0.96h-11.072
		v0.96h-1.151c0.08-0.464,0.096-0.896,0.096-1.872V117.416z M280.486,116.471v9.712h11.072v-9.712h-3.584v5.44
		c0,0.4,0.032,0.416,0.977,0.416c0.768,0,0.928-0.064,1.008-0.384c0.063-0.32,0.096-0.816,0.111-1.616
		c0.353,0.208,0.608,0.304,0.944,0.368c-0.144,2.416-0.272,2.56-2.304,2.56c-1.473,0-1.744-0.16-1.744-1.088v-5.696h-2.225
		c-0.08,2.544-0.303,3.824-0.848,4.96c-0.48,1.04-1.328,1.968-2.496,2.768c-0.191-0.336-0.416-0.576-0.736-0.8
		c1.265-0.8,1.921-1.504,2.4-2.608c0.432-0.992,0.592-2.032,0.656-4.32H280.486z"/>
	<path fill="#00A0E9" d="M284.822,130.759c-0.144,0.192-0.207,0.32-0.447,0.816c-1.232,2.48-2.784,4.336-5.04,6
		c-0.208-0.32-0.416-0.56-0.784-0.864c1.936-1.296,3.313-2.768,4.384-4.688c0.4-0.704,0.608-1.2,0.688-1.68L284.822,130.759z
		 M283.271,136.983c-0.609,0-1.152,0.032-1.648,0.096v-1.136c0.464,0.064,1.008,0.096,1.664,0.096h5.264
		c0.736,0,1.216-0.016,1.68-0.08c-0.048,0.288-0.048,0.416-0.064,1.136c0,3.104-0.303,5.808-0.719,6.56
		c-0.272,0.48-0.656,0.64-1.584,0.64c-0.529,0-1.088-0.032-2.097-0.128c-0.048-0.432-0.096-0.672-0.256-1.136
		c0.88,0.176,1.681,0.272,2.256,0.272c0.513,0,0.688-0.096,0.8-0.4c0.336-0.976,0.528-3.152,0.528-5.92h-3.728
		c-0.145,1.76-0.513,2.96-1.248,4.208c-0.832,1.392-2.08,2.48-4.032,3.488c-0.208-0.368-0.368-0.576-0.704-0.896
		c2.048-0.992,3.264-2.048,4.031-3.504c0.529-1.008,0.753-1.888,0.865-3.296H283.271z M288.246,130.375
		c0.129,0.416,0.272,0.736,0.608,1.344c1.168,2.096,2.528,3.536,4.72,4.976c-0.304,0.288-0.512,0.56-0.752,0.976
		c-2.527-1.872-3.888-3.488-5.392-6.432c-0.08-0.144-0.176-0.32-0.256-0.448L288.246,130.375z"/>
	<path fill="#00A0E9" d="M278.807,148.951c0.368,0.064,0.672,0.08,1.28,0.08h2.896c0.656,0,0.928-0.016,1.28-0.08v1.04
		c-0.336-0.048-0.592-0.064-1.168-0.064h-3.008c-0.56,0-0.849,0.016-1.28,0.064V148.951z M279.351,146.727
		c0.384,0.064,0.656,0.08,1.216,0.08h2.256c0.545,0,0.832-0.016,1.217-0.08v1.008c-0.4-0.048-0.721-0.064-1.217-0.064h-2.256
		c-0.496,0-0.832,0.016-1.216,0.064V146.727z M279.479,151.239c0.336,0.048,0.608,0.064,1.152,0.064h2.288
		c0.544,0,0.8-0.016,1.136-0.064v0.976c-0.368-0.048-0.592-0.064-1.136-0.064h-2.288c-0.544,0-0.784,0.016-1.152,0.064V151.239z
		 M279.479,153.431c0.336,0.048,0.592,0.064,1.152,0.064h2.288c0.56,0,0.815-0.016,1.136-0.064v0.976
		c-0.432-0.048-0.624-0.064-1.136-0.064h-2.288c-0.527,0-0.784,0.016-1.152,0.064V153.431z M279.494,160.727
		c0.064-0.448,0.097-0.912,0.097-1.552v-2.16c0-0.56-0.017-0.928-0.08-1.344c0.416,0.048,0.815,0.064,1.28,0.064h2.096
		c0.688,0,0.864,0,1.152-0.048c-0.032,0.336-0.049,0.688-0.049,1.264v2.256c0,0.496,0.017,0.848,0.08,1.312h-0.976v-0.656h-2.576
		v0.864H279.494z M280.519,159.031h2.576v-2.464h-2.576V159.031z M288.295,147.559c0-0.512-0.032-0.88-0.096-1.296h1.151
		c-0.063,0.4-0.096,0.784-0.096,1.328v1.184h2.512c0.72,0,1.151-0.032,1.601-0.096v1.104c-0.449-0.064-0.961-0.096-1.584-0.096
		h-2.528v2.464h2.224c0.688,0,1.152-0.032,1.6-0.096v1.088c-0.447-0.064-0.928-0.096-1.584-0.096h-5.056
		c-0.655,0-1.088,0.032-1.584,0.096v-1.088c0.433,0.064,0.88,0.096,1.584,0.096h1.856v-2.464h-2.032
		c-0.704,0-1.168,0.032-1.616,0.096v-1.104c0.432,0.064,0.881,0.096,1.616,0.096h2.032V147.559z M286.535,160.646h-1.088
		c0.063-0.4,0.08-0.816,0.08-1.536v-2.992c0-0.656-0.017-1.04-0.064-1.456c0.4,0.048,0.736,0.064,1.216,0.064h4.319
		c0.593,0,0.912-0.016,1.281-0.064c-0.049,0.32-0.064,0.752-0.064,1.488v2.928c0,0.608,0.031,1.248,0.08,1.568h-1.088v-0.8h-4.672
		V160.646z M286.535,158.951h4.672v-3.328h-4.672V158.951z"/>
	<path fill="#00A0E9" d="M282.742,163.527c0.017,0.512,0.225,1.856,0.433,2.784c1.12-0.544,2.224-0.8,3.424-0.8
		c0.112,0,0.304,0,0.528,0.016c0.271-1.056,0.464-2.112,0.496-2.576l1.199,0.256c-0.096,0.256-0.096,0.256-0.432,1.68
		c-0.08,0.272-0.111,0.448-0.191,0.752c2.655,0.496,4.239,2.24,4.239,4.656c0,1.488-0.655,2.944-1.743,3.84
		c-0.816,0.688-1.969,1.248-3.232,1.584c-0.24,0.064-0.32,0.08-1.008,0.24c-0.129-0.416-0.209-0.544-0.625-1.072
		c0.912-0.08,1.537-0.24,2.385-0.592c1.119-0.464,1.92-1.04,2.4-1.744c0.463-0.672,0.703-1.44,0.703-2.272
		c0-1.952-1.168-3.232-3.375-3.696c-0.721,2.48-1.856,4.768-3.104,6.271c-1.024,1.248-1.92,1.824-2.849,1.824
		c-1.392,0-2.303-1.248-2.303-3.136c0-1.04,0.336-2.144,0.928-3.056c0.416-0.624,0.863-1.088,1.6-1.632
		c-0.112-0.512-0.305-1.456-0.448-2.256c-0.096-0.528-0.112-0.592-0.208-0.848L282.742,163.527z M281.367,169.255
		c-0.4,0.688-0.641,1.552-0.641,2.24c0,1.264,0.512,2.096,1.297,2.096c0.56,0,1.248-0.48,1.967-1.36
		c-0.64-1.344-1.151-2.832-1.504-4.304C281.959,168.391,281.654,168.743,281.367,169.255z M284.727,171.351
		c0.08-0.16,0.08-0.176,0.192-0.352c0.752-1.184,1.456-2.816,1.952-4.528c-0.176,0-0.32-0.016-0.4-0.016
		c-1.136,0-2.16,0.272-3.088,0.816c0.304,1.296,0.641,2.352,1.199,3.712c0.08,0.208,0.097,0.24,0.129,0.368H284.727z"/>
	<path fill="#00A0E9" d="M281.799,179.655c0.447,0.08,0.736,0.096,1.504,0.096c1.328,0,3.456-0.096,4.896-0.208
		c0.416-0.032,0.56-0.064,0.768-0.176l0.672,0.88c-0.225,0.112-0.305,0.176-0.816,0.672c-2.207,2.16-4.144,3.824-5.264,4.544
		l0.032,0.048c1.216-0.656,2.512-0.992,3.92-0.992c2.672,0,4.384,1.312,4.384,3.36c0,2.496-2.32,4.144-5.871,4.144
		c-2.257,0-3.553-0.832-3.553-2.304c0-1.072,0.992-1.872,2.32-1.872c1.072,0,2,0.464,2.64,1.312
		c0.336,0.448,0.513,0.832,0.735,1.536c1.681-0.464,2.561-1.44,2.561-2.8c0-1.536-1.279-2.448-3.439-2.448
		c-2.353,0-4.881,1.024-6.736,2.736l-0.72-1.024c0.575-0.336,1.151-0.752,2.239-1.632c1.713-1.36,4.24-3.584,5.344-4.672
		c0.097-0.096,0.097-0.096,0.225-0.224c0,0,0.032-0.032,0.064-0.064l0.063-0.064l-0.032-0.032c-0.048,0-0.048,0-0.144,0.016
		c-0.513,0.096-2.433,0.208-4.864,0.288c-0.352,0.016-0.512,0.032-0.863,0.08L281.799,179.655z M284.807,188.759
		c-0.8,0-1.296,0.384-1.296,0.992c0,0.416,0.208,0.72,0.64,0.976c0.416,0.224,1.104,0.368,1.793,0.368
		c0.399,0,0.592-0.016,1.168-0.112C286.759,189.527,285.959,188.759,284.807,188.759z"/>
</g>
<g>
	<line stroke="#898989" stroke-width="6" x1="276.639" y1="89.19" x2="251.467" y2="89.19"/>
	<polygon fill="#898989" stroke="#898989" stroke-width="2" points="259.893,78.081 255.176,89.19 259.893,100.302 233.561,89.19 	
		"/>
</g>
</svg>
