<?xml version="1.0" encoding="utf-8"?>
<!-- Generator: Adobe Illustrator 12.0.0, SVG Export Plug-In . SVG Version: 6.00 Build 51448)  -->
<!DOCTYPE svg PUBLIC "-//W3C//DTD SVG 1.1//EN" "http://www.w3.org/Graphics/SVG/1.1/DTD/svg11.dtd" [
	<!ENTITY ns_svg "http://www.w3.org/2000/svg">
	<!ENTITY ns_xlink "http://www.w3.org/1999/xlink">
]>
<svg  version="1.1" id="レイヤー_1" xmlns="&ns_svg;" xmlns:xlink="&ns_xlink;" width="103.887"
	 viewBox="0 0 69.258 106.546" overflow="visible" enable-background="new 0 0 69.258 106.546" xml:space="preserve">
<g>
	<path d="M10.688,89.123c0.267-0.413,0.658-0.623,1.148-0.623c0.896,0,1.435,0.665,1.435,1.764c0,0.546-0.14,1.043-0.392,1.393
		c-0.252,0.343-0.68,0.539-1.155,0.539c-0.413,0-0.651-0.105-1.036-0.455v1.022c0,0.651,0.035,0.693,0.539,0.714v0.161H9.61v-0.161
		c0.477-0.014,0.512-0.063,0.512-0.714v-3.381c0-0.525-0.084-0.63-0.483-0.63v-0.154l1.05-0.077V89.123z M11.668,92.007
		c0.637,0,0.952-0.56,0.952-1.666s-0.294-1.645-0.89-1.645c-0.321,0-0.63,0.175-0.798,0.455c-0.182,0.301-0.272,0.7-0.272,1.225
		C10.661,91.461,11.003,92.007,11.668,92.007z"/>
	<path d="M14.629,90.159c0.007,0.483,0.049,0.763,0.16,1.05c0.203,0.518,0.546,0.77,1.051,0.77c0.496,0,0.875-0.259,1.154-0.791
		l0.161,0.091c-0.314,0.644-0.791,0.945-1.477,0.945c-1.001,0-1.688-0.742-1.688-1.813c0-1.134,0.672-1.911,1.659-1.911
		c0.637,0,1.12,0.322,1.337,0.889c0.07,0.189,0.098,0.357,0.112,0.77H14.629z M16.491,89.97c-0.007-0.371-0.042-0.574-0.133-0.777
		c-0.154-0.343-0.392-0.518-0.721-0.518c-0.336,0-0.616,0.189-0.806,0.546c-0.104,0.203-0.146,0.385-0.188,0.749H16.491z"/>
	<path d="M18.689,88.521c0.014,0.35,0.021,0.441,0.021,0.588c0,0.049,0,0.126,0,0.224c0.23-0.532,0.608-0.833,1.021-0.833
		c0.301,0,0.532,0.189,0.532,0.434c0,0.175-0.147,0.287-0.371,0.287c-0.154,0-0.217-0.042-0.259-0.175
		c-0.042-0.154-0.084-0.196-0.196-0.196c-0.182,0-0.378,0.154-0.525,0.42c-0.126,0.231-0.188,0.518-0.188,0.889v1.099
		c0,0.658,0.035,0.707,0.504,0.721v0.154h-1.603v-0.154c0.469-0.014,0.511-0.07,0.511-0.721v-1.876c0-0.525-0.084-0.63-0.483-0.63
		v-0.154L18.689,88.521z"/>
	<path d="M20.67,91.027h0.217c0.027,0.329,0.077,0.497,0.195,0.651c0.183,0.252,0.441,0.378,0.764,0.378
		c0.476,0,0.763-0.245,0.763-0.658c0-0.161-0.063-0.315-0.168-0.406c-0.126-0.105-0.146-0.112-0.784-0.392
		c-0.756-0.329-0.986-0.581-0.986-1.057c0-0.245,0.069-0.483,0.188-0.644c0.189-0.252,0.519-0.399,0.868-0.399
		c0.182,0,0.272,0.014,0.651,0.084c0.056,0.007,0.104,0.014,0.146,0.014c0.084,0,0.196-0.014,0.336-0.049l-0.035,1.106h-0.23
		c-0.015-0.623-0.322-0.994-0.833-0.994c-0.435,0-0.714,0.245-0.714,0.623c0,0.161,0.063,0.287,0.188,0.378
		c0.133,0.098,0.267,0.168,0.729,0.364c0.469,0.196,0.644,0.301,0.805,0.476c0.146,0.161,0.23,0.392,0.23,0.665
		c0,0.644-0.427,1.057-1.085,1.057c-0.195,0-0.286-0.014-0.699-0.084c-0.099-0.014-0.183-0.021-0.26-0.021
		c-0.076,0-0.175,0.007-0.314,0.028L20.67,91.027z"/>
	<path d="M24.226,88.969c0.294-0.301,0.735-0.469,1.218-0.469c1.022,0,1.694,0.721,1.694,1.82c0,1.169-0.672,1.904-1.736,1.904
		c-1.015,0-1.687-0.721-1.687-1.806C23.715,89.837,23.904,89.298,24.226,88.969z M25.423,92.056c0.686,0,1.063-0.595,1.063-1.673
		c0-1.092-0.392-1.722-1.077-1.722c-0.673,0-1.043,0.595-1.043,1.666C24.367,91.426,24.751,92.056,25.423,92.056z"/>
	<path d="M28.769,89.242c0.309-0.539,0.651-0.742,1.232-0.742c0.44,0,0.728,0.133,0.917,0.434c0.133,0.203,0.182,0.448,0.182,0.875
		v1.449c0,0.658,0.035,0.707,0.511,0.721v0.154h-1.589v-0.154c0.231-0.007,0.357-0.035,0.413-0.105
		c0.042-0.056,0.063-0.112,0.07-0.231c0.007-0.077,0.021-0.336,0.021-0.385v-1.407c0-0.35-0.034-0.595-0.111-0.756
		c-0.112-0.245-0.322-0.371-0.616-0.371c-0.329,0-0.595,0.154-0.791,0.469c-0.147,0.231-0.238,0.567-0.238,0.854v1.211
		c0,0.658,0.035,0.707,0.511,0.721v0.154h-1.596v-0.154c0.469-0.014,0.511-0.07,0.511-0.721v-1.876c0-0.525-0.084-0.63-0.482-0.63
		v-0.154l1.057-0.077V89.242z"/>
	<path d="M35.37,92.119c-0.272,0.042-0.581,0.07-0.721,0.07c-0.21,0-0.267-0.112-0.294-0.581c-0.112,0.126-0.203,0.203-0.343,0.301
		c-0.309,0.224-0.554,0.301-0.91,0.301c-0.309,0-0.539-0.07-0.714-0.217c-0.189-0.168-0.309-0.448-0.309-0.742
		c0-0.553,0.351-0.91,1.029-1.064c0.364-0.084,0.735-0.133,1.246-0.168v-0.441c0-0.322-0.028-0.49-0.099-0.637
		c-0.091-0.182-0.286-0.273-0.573-0.273c-0.462,0-0.7,0.21-0.729,0.644c-0.007,0.147-0.021,0.196-0.077,0.238
		c-0.049,0.035-0.14,0.056-0.245,0.056c-0.237,0-0.343-0.063-0.343-0.21c0-0.252,0.183-0.504,0.477-0.672
		c0.266-0.147,0.608-0.224,1.021-0.224c0.448,0,0.771,0.105,0.938,0.308c0.14,0.175,0.203,0.406,0.203,0.791
		c0,0.021,0,0.021-0.015,0.707l-0.007,0.665l-0.007,0.322c0,0.294,0.035,0.546,0.077,0.602c0.042,0.056,0.126,0.077,0.392,0.077
		V92.119z M34.355,90.18c-0.623,0.056-0.896,0.112-1.176,0.252c-0.309,0.147-0.47,0.427-0.47,0.798c0,0.441,0.238,0.742,0.588,0.742
		c0.357,0,0.722-0.21,0.896-0.511c0.112-0.196,0.161-0.49,0.161-0.952V90.18z"/>
	<path d="M35.853,91.979c0.462-0.014,0.497-0.07,0.497-0.721v-3.409c0-0.343-0.028-0.511-0.104-0.574
		c-0.05-0.042-0.154-0.056-0.393-0.063v-0.154l1.12-0.056c-0.028,0.469-0.042,1.029-0.042,1.4v2.856
		c0,0.651,0.035,0.707,0.504,0.721v0.154h-1.582V91.979z"/>
	<path d="M39.039,88.521c-0.021,0.406-0.042,1.015-0.042,1.309v1.428c0,0.651,0.035,0.707,0.504,0.721v0.154h-1.596v-0.154
		c0.482-0.014,0.518-0.07,0.518-0.721v-1.869c0-0.35-0.028-0.511-0.104-0.574c-0.057-0.049-0.168-0.063-0.413-0.063v-0.154
		L39.039,88.521z M38.689,87.037c0.217,0,0.392,0.175,0.392,0.392c0,0.224-0.175,0.399-0.392,0.399
		c-0.225,0-0.399-0.175-0.399-0.399C38.29,87.212,38.464,87.037,38.689,87.037z"/>
	<path d="M41.496,88.773c-0.763,0-1.001,0.189-1.154,0.917l-0.196-0.021l0.112-1.071h2.506v0.203l-2.093,3.157h0.65
		c0.868,0,1.19-0.252,1.365-1.085l0.196,0.021l-0.147,1.239h-2.723v-0.175l2.106-3.185H41.496z"/>
	<path d="M46.767,92.119c-0.272,0.042-0.581,0.07-0.721,0.07c-0.21,0-0.267-0.112-0.294-0.581c-0.112,0.126-0.203,0.203-0.343,0.301
		c-0.309,0.224-0.554,0.301-0.91,0.301c-0.309,0-0.539-0.07-0.714-0.217c-0.189-0.168-0.309-0.448-0.309-0.742
		c0-0.553,0.351-0.91,1.029-1.064c0.364-0.084,0.735-0.133,1.246-0.168v-0.441c0-0.322-0.028-0.49-0.099-0.637
		c-0.091-0.182-0.286-0.273-0.573-0.273c-0.462,0-0.7,0.21-0.729,0.644c-0.007,0.147-0.021,0.196-0.077,0.238
		c-0.049,0.035-0.14,0.056-0.245,0.056c-0.237,0-0.343-0.063-0.343-0.21c0-0.252,0.183-0.504,0.477-0.672
		c0.266-0.147,0.608-0.224,1.021-0.224c0.448,0,0.771,0.105,0.938,0.308c0.14,0.175,0.203,0.406,0.203,0.791
		c0,0.021,0,0.021-0.015,0.707l-0.007,0.665l-0.007,0.322c0,0.294,0.035,0.546,0.077,0.602c0.042,0.056,0.126,0.077,0.392,0.077
		V92.119z M45.752,90.18c-0.623,0.056-0.896,0.112-1.176,0.252c-0.309,0.147-0.47,0.427-0.47,0.798c0,0.441,0.238,0.742,0.588,0.742
		c0.357,0,0.722-0.21,0.896-0.511c0.112-0.196,0.161-0.49,0.161-0.952V90.18z"/>
	<path d="M48.293,91.139c0,0.413,0.021,0.595,0.091,0.693c0.07,0.098,0.183,0.147,0.344,0.147c0.153,0,0.287-0.035,0.44-0.126
		l0.063,0.182C49,92.154,48.777,92.21,48.525,92.21c-0.343,0-0.603-0.119-0.722-0.343c-0.076-0.14-0.098-0.294-0.098-0.812v-2.268
		h-0.44v-0.161c0.412-0.035,0.622-0.308,0.728-0.966l0.322-0.091c-0.015,0.301-0.021,0.567-0.021,1.029h0.84v0.189h-0.84V91.139z"/>
	<path d="M50.715,88.521c-0.021,0.406-0.042,1.015-0.042,1.309v1.428c0,0.651,0.035,0.707,0.504,0.721v0.154h-1.596v-0.154
		c0.482-0.014,0.518-0.07,0.518-0.721v-1.869c0-0.35-0.028-0.511-0.104-0.574c-0.057-0.049-0.168-0.063-0.413-0.063v-0.154
		L50.715,88.521z M50.366,87.037c0.217,0,0.392,0.175,0.392,0.392c0,0.224-0.175,0.399-0.392,0.399
		c-0.225,0-0.399-0.175-0.399-0.399C49.966,87.212,50.141,87.037,50.366,87.037z"/>
	<path d="M52.249,88.969c0.294-0.301,0.735-0.469,1.218-0.469c1.022,0,1.694,0.721,1.694,1.82c0,1.169-0.672,1.904-1.736,1.904
		c-1.015,0-1.687-0.721-1.687-1.806C51.738,89.837,51.926,89.298,52.249,88.969z M53.446,92.056c0.686,0,1.063-0.595,1.063-1.673
		c0-1.092-0.392-1.722-1.077-1.722c-0.673,0-1.043,0.595-1.043,1.666C52.389,91.426,52.774,92.056,53.446,92.056z"/>
	<path d="M56.792,89.242c0.309-0.539,0.651-0.742,1.232-0.742c0.44,0,0.728,0.133,0.917,0.434c0.133,0.203,0.182,0.448,0.182,0.875
		v1.449c0,0.658,0.035,0.707,0.511,0.721v0.154h-1.589v-0.154c0.231-0.007,0.357-0.035,0.413-0.105
		c0.042-0.056,0.063-0.112,0.07-0.231c0.007-0.077,0.021-0.336,0.021-0.385v-1.407c0-0.35-0.034-0.595-0.111-0.756
		c-0.112-0.245-0.322-0.371-0.616-0.371c-0.329,0-0.595,0.154-0.791,0.469c-0.147,0.231-0.238,0.567-0.238,0.854v1.211
		c0,0.658,0.035,0.707,0.512,0.721v0.154h-1.597v-0.154c0.469-0.014,0.511-0.07,0.511-0.721v-1.876c0-0.525-0.084-0.63-0.482-0.63
		v-0.154l1.057-0.077V89.242z"/>
	<path d="M11.185,100.75c1.008-1.736,1.315-2.408,1.819-3.836c0.448-1.316,0.715-2.296,0.841-3.108
		c0.531,0.14,1.147,0.308,1.329,0.378c0.112,0.042,0.168,0.098,0.168,0.168c0,0.14-0.182,0.224-0.56,0.266
		c-0.77,1.988-0.994,2.52-1.442,3.346c0.841,0.182,1.106,0.28,1.106,0.406c0,0.112-0.14,0.196-0.476,0.308v4.396
		c0,0.098,0.014,1.806,0.027,3.234c-0.014,0.084-0.042,0.126-0.126,0.154c-0.098,0.028-0.476,0.07-0.644,0.07
		s-0.238-0.07-0.238-0.238c0.042-1.372,0.07-3.276,0.07-4.9v-2.898c-0.462,0.77-0.813,1.274-1.681,2.38L11.185,100.75z
		 M16.477,106.14c0,0.112-0.015,0.154-0.07,0.182c-0.084,0.07-0.406,0.126-0.686,0.126c-0.154,0-0.225-0.042-0.225-0.126
		c0,0,0-0.014,0-0.028c0.042-2.142,0.057-4.2,0.057-6.594c0-1.848-0.028-3.836-0.057-5.278c0.477,0.224,0.63,0.294,1.064,0.546
		h5.823c0.238-0.28,0.309-0.364,0.561-0.644c0.392,0.28,0.518,0.364,0.854,0.616c0.126,0.098,0.183,0.154,0.183,0.196
		c0,0.084-0.154,0.21-0.49,0.42c-0.014,2.506-0.014,2.506-0.014,3.066c0,0.546,0,0.602,0.014,2.408l0.028,3.472
		c0,0.588,0,0.686,0.042,1.568c0,0.084-0.015,0.126-0.042,0.154c-0.057,0.098-0.406,0.182-0.756,0.182
		c-0.141,0-0.21-0.056-0.21-0.168c0-0.014,0-0.028,0-0.042v-0.728h-6.076V106.14z M16.477,105.146h6.076V95.29h-6.076V105.146z
		 M20.733,97.824c0.28-0.35,0.364-0.462,0.672-0.784c0.42,0.392,0.546,0.504,0.938,0.91c0.042,0.042,0.07,0.084,0.07,0.112
		c0,0.056-0.056,0.084-0.168,0.084h-2.352v2.114h0.756c0.196-0.224,0.252-0.28,0.462-0.49c0.308,0.21,0.406,0.266,0.686,0.49
		c0.126,0.098,0.183,0.168,0.183,0.224c0,0.098-0.057,0.14-0.351,0.322c0,1.736,0,1.736,0.028,3.136
		c-0.014,0.112-0.042,0.154-0.154,0.182c-0.126,0.028-0.42,0.07-0.56,0.07s-0.196-0.056-0.21-0.196v-0.56h-2.38v0.504
		c0,0.014,0,0.028,0,0.042c0,0.084-0.028,0.126-0.099,0.168c-0.056,0.028-0.462,0.07-0.63,0.07c-0.111,0-0.168-0.042-0.168-0.168
		c0.028-0.686,0.042-1.148,0.042-2.8c0-0.196-0.014-0.518-0.042-1.484c0.393,0.196,0.519,0.266,0.896,0.49h0.7v-2.114h-1.135
		c-0.531,0-0.63,0.014-1.063,0.084l-0.126-0.532c0.476,0.084,0.812,0.126,1.189,0.126h1.135v-1.022c0-0.476-0.015-0.644-0.084-1.036
		c1.245,0.14,1.399,0.168,1.399,0.322c-0.014,0.112-0.098,0.168-0.476,0.322v1.414H20.733z M18.353,103.116h2.38v-2.534h-2.38
		V103.116z"/>
	<path d="M28.307,106.098c1.288-0.91,1.96-1.54,2.674-2.478c1.274-1.666,2.114-3.542,2.534-5.684c0.21-1.05,0.322-2.114,0.322-2.996
		c0-0.28-0.015-0.434-0.042-0.812c1.525,0.196,1.693,0.238,1.693,0.378c0,0.112-0.056,0.14-0.602,0.364
		c-0.014,0.196-0.014,0.308-0.014,0.434c0,2.044,0.77,4.452,1.974,6.174c0.756,1.078,1.736,2.016,2.842,2.702
		c0.532,0.336,0.84,0.49,1.597,0.77l-0.015,0.168c-0.042,0-0.084,0-0.098,0c-0.322,0-0.546,0.084-0.714,0.28
		c-0.141,0.154-0.21,0.28-0.406,0.7c-1.414-0.896-2.464-1.974-3.346-3.388c-0.645-1.036-1.246-2.52-1.624-3.906
		c-0.168-0.616-0.238-1.05-0.336-2.03c-0.406,2.604-1.064,4.382-2.24,6.062c-1.078,1.526-2.227,2.492-4.088,3.444L28.307,106.098z"
		/>
	<path d="M44.743,100.96c0.588-0.644,0.91-1.064,1.456-1.946c1.274-2.002,2.086-3.78,2.436-5.264
		c1.177,0.392,1.526,0.532,1.526,0.644c0,0.126-0.14,0.196-0.658,0.322c-0.658,1.442-1.189,2.394-1.918,3.388
		c0.112,0.014,0.183,0.028,0.238,0.028c0.56,0.084,0.784,0.154,0.784,0.28c0,0.084-0.196,0.21-0.477,0.308v5.18l0.015,1.386
		l0.014,0.952c-0.028,0.154-0.056,0.21-0.182,0.252c-0.07,0.028-0.406,0.056-0.603,0.056c-0.21,0-0.322-0.07-0.322-0.21
		c0-0.014,0-0.056,0-0.07c0.042-0.798,0.099-3.122,0.099-3.598v-3.976c-0.84,1.078-1.414,1.708-2.254,2.436L44.743,100.96z
		 M52.079,100.218c1.442-1.092,3.024-2.912,3.794-4.382c1.078,0.602,1.442,0.854,1.442,0.966c0,0.126-0.141,0.168-0.477,0.168
		c-0.027,0-0.126,0-0.21,0c-1.512,1.386-1.693,1.54-2.52,2.198c-0.994,0.784-1.554,1.176-2.03,1.442v4.284
		c0,0.224,0.028,0.294,0.126,0.336c0.154,0.07,0.813,0.126,1.54,0.126c0.266,0,1.526-0.028,1.764-0.028
		c0.448-0.028,0.49-0.056,0.616-0.392c0.154-0.392,0.477-1.512,0.924-3.276h0.225l-0.267,3.052
		c-0.014,0.056-0.014,0.112-0.014,0.154c0,0.154,0.056,0.21,0.42,0.322c0.182,0.056,0.266,0.168,0.266,0.364
		c0,0.532-0.699,0.714-2.743,0.714c-1.834,0-2.927-0.056-3.248-0.154c-0.462-0.126-0.603-0.364-0.616-0.966c0-0.588,0-0.868,0-1.148
		v-8.974c0-0.392,0-0.63-0.028-1.134c1.555,0.224,1.624,0.238,1.624,0.378c0,0.112-0.154,0.21-0.588,0.378V100.218z"/>
</g>
<g>
	<path d="M23.656,62.341c0,0.651,0.042,0.707,0.553,0.721v0.154h-1.631v-0.154c0.469-0.014,0.504-0.07,0.504-0.721V59.87h-0.539
		v-0.189h0.539c-0.007-0.273-0.014-0.525-0.014-0.651c0-0.315,0.069-0.504,0.259-0.679c0.188-0.175,0.497-0.28,0.826-0.28
		c0.497,0,0.882,0.224,0.882,0.518c0,0.14-0.133,0.224-0.343,0.224c-0.105,0-0.189-0.028-0.231-0.063
		c-0.042-0.042-0.042-0.042-0.077-0.231c-0.035-0.217-0.126-0.301-0.329-0.301c-0.272,0-0.413,0.224-0.413,0.679
		c0,0.105,0,0.175,0.008,0.511c0,0.07,0.007,0.161,0.007,0.273h0.931v0.189h-0.931V62.341z"/>
	<path d="M25.924,59.604c0.014,0.35,0.021,0.441,0.021,0.588c0,0.049,0,0.126,0,0.224c0.23-0.532,0.608-0.833,1.021-0.833
		c0.301,0,0.532,0.189,0.532,0.434c0,0.175-0.147,0.287-0.371,0.287c-0.154,0-0.217-0.042-0.259-0.175
		c-0.042-0.154-0.084-0.196-0.196-0.196c-0.182,0-0.378,0.154-0.525,0.42c-0.126,0.231-0.188,0.518-0.188,0.889v1.099
		c0,0.658,0.035,0.707,0.504,0.721v0.154H24.86v-0.154c0.469-0.014,0.511-0.07,0.511-0.721v-1.876c0-0.525-0.084-0.63-0.483-0.63
		v-0.154L25.924,59.604z"/>
	<path d="M28.346,60.052c0.294-0.301,0.735-0.469,1.218-0.469c1.022,0,1.694,0.721,1.694,1.82c0,1.169-0.672,1.904-1.736,1.904
		c-1.015,0-1.687-0.721-1.687-1.806C27.835,60.92,28.023,60.381,28.346,60.052z M29.543,63.139c0.686,0,1.063-0.595,1.063-1.673
		c0-1.092-0.392-1.722-1.077-1.722c-0.673,0-1.043,0.595-1.043,1.666C28.486,62.509,28.871,63.139,29.543,63.139z"/>
	<path d="M32.889,60.325c0.309-0.539,0.651-0.742,1.232-0.742c0.44,0,0.728,0.133,0.917,0.434c0.133,0.203,0.182,0.448,0.182,0.875
		v1.449c0,0.658,0.035,0.707,0.511,0.721v0.154h-1.589v-0.154c0.231-0.007,0.357-0.035,0.413-0.105
		c0.042-0.056,0.063-0.112,0.07-0.231c0.007-0.077,0.021-0.336,0.021-0.385v-1.407c0-0.35-0.034-0.595-0.111-0.756
		c-0.112-0.245-0.322-0.371-0.616-0.371c-0.329,0-0.595,0.154-0.791,0.469c-0.147,0.231-0.238,0.567-0.238,0.854v1.211
		c0,0.658,0.035,0.707,0.511,0.721v0.154h-1.596v-0.154c0.469-0.014,0.511-0.07,0.511-0.721v-1.876c0-0.525-0.084-0.63-0.482-0.63
		v-0.154l1.057-0.077V60.325z"/>
	<path d="M37.2,62.222c0,0.413,0.021,0.595,0.091,0.693c0.07,0.098,0.183,0.147,0.344,0.147c0.153,0,0.287-0.035,0.44-0.126
		l0.063,0.182c-0.231,0.119-0.455,0.175-0.707,0.175c-0.343,0-0.603-0.119-0.722-0.343c-0.076-0.14-0.098-0.294-0.098-0.812V59.87
		h-0.44v-0.161c0.412-0.035,0.622-0.308,0.728-0.966l0.322-0.091c-0.015,0.301-0.021,0.567-0.021,1.029h0.84v0.189H37.2V62.222z"/>
	<path d="M39.622,59.604c-0.021,0.406-0.042,1.015-0.042,1.309v1.428c0,0.651,0.035,0.707,0.504,0.721v0.154h-1.596v-0.154
		c0.482-0.014,0.518-0.07,0.518-0.721v-1.869c0-0.35-0.028-0.511-0.104-0.574c-0.057-0.049-0.168-0.063-0.413-0.063v-0.154
		L39.622,59.604z M39.272,58.12c0.217,0,0.392,0.175,0.392,0.392c0,0.224-0.175,0.399-0.392,0.399c-0.225,0-0.399-0.175-0.399-0.399
		C38.873,58.295,39.048,58.12,39.272,58.12z"/>
	<path d="M41.296,61.242c0.007,0.483,0.049,0.763,0.16,1.05c0.203,0.518,0.546,0.77,1.051,0.77c0.496,0,0.875-0.259,1.154-0.791
		l0.161,0.091c-0.314,0.644-0.791,0.945-1.477,0.945c-1.001,0-1.688-0.742-1.688-1.813c0-1.134,0.672-1.911,1.659-1.911
		c0.637,0,1.12,0.322,1.337,0.889c0.07,0.189,0.098,0.357,0.112,0.77H41.296z M43.157,61.053c-0.007-0.371-0.042-0.574-0.133-0.777
		c-0.154-0.343-0.392-0.518-0.721-0.518c-0.336,0-0.616,0.189-0.806,0.546c-0.104,0.203-0.146,0.385-0.188,0.749H43.157z"/>
	<path d="M45.355,59.604c0.014,0.35,0.021,0.441,0.021,0.588c0,0.049,0,0.126,0,0.224c0.23-0.532,0.608-0.833,1.021-0.833
		c0.301,0,0.532,0.189,0.532,0.434c0,0.175-0.147,0.287-0.371,0.287c-0.154,0-0.217-0.042-0.259-0.175
		c-0.042-0.154-0.084-0.196-0.196-0.196c-0.182,0-0.378,0.154-0.525,0.42c-0.126,0.231-0.188,0.518-0.188,0.889v1.099
		c0,0.658,0.035,0.707,0.504,0.721v0.154h-1.603v-0.154c0.469-0.014,0.511-0.07,0.511-0.721v-1.876c0-0.525-0.084-0.63-0.483-0.63
		v-0.154L45.355,59.604z"/>
	<path d="M9.59,67.619c0.35-0.434,0.462-0.574,0.84-0.994c0.56,0.476,0.728,0.63,1.246,1.134c0.042,0.042,0.07,0.07,0.07,0.098
		c0,0.056-0.042,0.084-0.141,0.084H7.027v2.716h3.668c0.393-0.448,0.519-0.588,0.91-0.994c0.574,0.476,0.742,0.63,1.288,1.134
		c0.042,0.056,0.07,0.084,0.07,0.112c0,0.042-0.042,0.07-0.141,0.07H7.21c0.49,0.896,0.994,1.554,1.806,2.324
		c1.218,1.148,2.506,1.82,4.271,2.24l-0.028,0.168c-0.616,0.112-0.798,0.294-1.05,0.994c-1.19-0.602-2.086-1.288-3.066-2.31
		c-0.924-0.952-1.526-1.862-2.114-3.122v2.814c0.028,2.59,0.028,2.59,0.042,3.318c0,0.028,0,0.042,0,0.056
		c0,0.154-0.237,0.224-0.812,0.224c-0.154,0-0.196-0.028-0.21-0.168c0.014-0.686,0.014-0.686,0.028-1.652c0-0.49,0-0.49,0.027-1.666
		v-2.38c-0.952,1.26-1.735,2.114-2.87,3.052c-1.092,0.91-1.834,1.372-3.107,1.96L0,76.635c1.512-0.938,2.338-1.652,3.71-3.164
		c0.882-0.994,1.273-1.526,1.819-2.492H1.54c-0.351,0-0.603,0.014-1.078,0.084l-0.126-0.546c0.462,0.098,0.84,0.14,1.441,0.14h4.326
		v-2.716H2.702c-0.379,0-0.631,0.014-1.148,0.084l-0.112-0.546c0.49,0.112,0.854,0.14,1.498,0.14h3.164v-0.938
		c0-0.98-0.014-1.19-0.111-1.792c0.308,0.042,0.573,0.084,0.714,0.098c0.714,0.098,0.896,0.168,0.896,0.308
		c0,0.112-0.07,0.154-0.574,0.308v2.016H9.59z"/>
	<path d="M15.735,69.145v8.372c-0.014,0.196-0.14,0.238-0.741,0.238c-0.168,0-0.238-0.042-0.238-0.168
		c0.07-1.834,0.084-3.822,0.084-9.1c0-1.54-0.014-2.436-0.042-3.612c0.49,0.224,0.644,0.308,1.105,0.602h2.759
		c0.224-0.294,0.294-0.378,0.504-0.672c0.363,0.252,0.476,0.322,0.812,0.588c0.099,0.084,0.126,0.14,0.126,0.196
		c0,0.098-0.098,0.168-0.448,0.364c0,0.308,0,0.462,0,0.7c0,0.504,0,0.896,0.042,2.968c0,0.112-0.027,0.14-0.14,0.168
		c-0.07,0.028-0.378,0.056-0.546,0.056s-0.238-0.056-0.238-0.168c0,0,0-0.014,0-0.028v-0.504H15.735z M18.773,65.799h-3.038v1.316
		h3.038V65.799z M18.773,67.437h-3.038v1.386h3.038V67.437z M22.372,73.205h0.77c0.28-0.364,0.378-0.462,0.658-0.798
		c0.448,0.406,0.602,0.546,1.063,0.98c0.015,0.028,0.028,0.056,0.028,0.084c0,0.028-0.042,0.056-0.084,0.056h-2.436v0.714
		c0,1.064,0,1.442,0.042,2.744c0,0.014,0,0.028,0,0.042c0,0.154-0.21,0.224-0.687,0.224c-0.154,0-0.238-0.056-0.238-0.168
		c0,0,0-0.028,0-0.042c0.015-0.406,0.015-1.33,0.028-2.744v-0.77h-1.974c-0.141,1.148-0.351,1.736-0.854,2.38
		c-0.56,0.7-1.162,1.134-2.184,1.568l-0.14-0.168c0.979-0.616,1.567-1.218,1.974-2.058c0.224-0.462,0.294-0.77,0.378-1.722h-0.966
		c-0.462,0-0.813,0.028-1.134,0.084l-0.126-0.518c0.363,0.084,0.686,0.112,1.26,0.112h0.994c0.027-0.49,0.042-0.924,0.042-1.33
		c0-0.322,0-0.392-0.015-0.714h-0.798c-0.49,0-0.672,0.014-1.036,0.07l-0.126-0.518c0.378,0.098,0.658,0.126,1.162,0.126h4.732
		c0.294-0.35,0.378-0.462,0.644-0.812c0.49,0.406,0.645,0.546,1.106,0.966c0.027,0.042,0.042,0.07,0.042,0.098
		c0,0.028-0.057,0.07-0.099,0.07h-2.029V73.205z M19.628,71.161c0,0.364,0,0.504,0,0.644c0,0.504-0.015,0.826-0.057,1.4h1.946
		v-2.044H19.628z M22.372,69.145v0.462c-0.015,0.112-0.042,0.154-0.126,0.182c-0.099,0.014-0.364,0.042-0.574,0.042
		c-0.183,0-0.238-0.042-0.238-0.182c0.042-1.008,0.042-1.288,0.042-2.366c0-1.442-0.014-1.778-0.056-2.408
		c0.462,0.252,0.602,0.322,1.021,0.602h2.8c0.253-0.294,0.322-0.392,0.574-0.686c0.351,0.252,0.448,0.322,0.813,0.56
		c0.126,0.098,0.182,0.154,0.182,0.21c0,0.084-0.07,0.154-0.392,0.378v6.51l0.027,4.2c-0.027,0.364-0.126,0.532-0.489,0.742
		c-0.267,0.154-0.546,0.238-1.162,0.336c-0.07-0.644-0.294-0.77-1.652-0.994v-0.21c1.386,0.042,1.414,0.042,1.666,0.042
		c0.098,0,0.266,0,0.462,0c0.154-0.014,0.154-0.028,0.154-0.308v-7.112H22.372z M25.424,65.799h-3.052v1.316h3.052V65.799z
		 M25.424,67.437h-3.052v1.386h3.052V67.437z"/>
	<path d="M31.737,67.997c0.294-0.364,0.393-0.476,0.687-0.798c0.462,0.364,0.602,0.49,1.063,0.938
		c0.015,0.028,0.028,0.07,0.028,0.098c0,0.042-0.056,0.084-0.14,0.084h-2.101v2.8c0.841-0.28,1.106-0.378,2.212-0.84l0.084,0.196
		c-1.035,0.63-1.357,0.812-2.296,1.26v2.646c0,0.07,0,1.022,0.015,2.016c0,0.378-0.042,0.518-0.196,0.714
		c-0.224,0.252-0.504,0.392-1.162,0.56c-0.056-0.35-0.154-0.532-0.392-0.686c-0.183-0.14-0.406-0.196-1.12-0.28l0.014-0.21
		c0.322,0.014,0.322,0.014,0.896,0.042c0.392,0.014,0.392,0.014,0.783,0.028c0.21,0,0.253-0.028,0.253-0.224v-4.214
		c-0.169,0.084-0.561,0.266-1.219,0.546c-0.042,0.532-0.084,0.658-0.21,0.658c-0.042,0-0.098-0.042-0.153-0.14
		c-0.015-0.028-0.154-0.448-0.435-1.26c0.603-0.084,1.162-0.224,2.017-0.518v-3.094h-0.952c-0.406,0-0.561,0.014-0.813,0.07
		l-0.098-0.504c0.378,0.084,0.602,0.112,0.966,0.112h0.896v-1.54c0-0.77-0.015-1.12-0.057-1.596
		c1.386,0.182,1.554,0.224,1.554,0.364c0,0.112-0.153,0.182-0.588,0.294v2.478H31.737z M34.328,72.057
		c-0.7,1.204-1.387,2.03-2.479,2.968l-0.168-0.182c0.729-0.812,1.148-1.4,1.68-2.408c0.841-1.554,1.429-3.598,1.708-5.88h-1.315
		c-0.448,0-0.588,0.014-1.022,0.084l-0.098-0.518c0.476,0.084,0.686,0.112,1.12,0.112h5.054c0.378-0.448,0.49-0.588,0.868-1.008
		c0.56,0.462,0.728,0.616,1.246,1.12c0.027,0.042,0.042,0.084,0.042,0.112c0,0.042-0.07,0.098-0.141,0.098h-4.647
		c-0.056,0.224-0.056,0.224-0.14,0.7c-0.267,1.302-0.7,2.702-1.19,3.78c0.168,0.098,0.238,0.14,0.448,0.28h3.598
		c0.252-0.266,0.322-0.35,0.561-0.602c0.378,0.252,0.489,0.336,0.84,0.602c0.111,0.098,0.168,0.154,0.168,0.196
		c0,0.084-0.141,0.196-0.49,0.392c-0.014,0.826-0.014,1.246-0.014,1.568c0,1.596,0.014,2.912,0.027,3.808
		c0,0.098-0.014,0.126-0.084,0.154c-0.14,0.056-0.447,0.098-0.7,0.098c-0.126,0-0.168-0.028-0.182-0.14v-0.826h-3.78v0.826
		c0,0.084-0.014,0.112-0.042,0.14c-0.084,0.056-0.321,0.098-0.573,0.098c-0.267,0-0.322-0.028-0.322-0.154c0,0,0-0.014,0-0.028
		c0.028-1.022,0.028-1.47,0.028-2.156V72.057z M35.237,76.243h3.78v-4.606h-3.78V76.243z"/>
	<path d="M42.056,71.287c1.372-1.218,2.058-1.988,2.884-3.276c0.7-1.064,1.092-1.862,1.442-2.982c0.294,0.112,0.546,0.196,0.7,0.238
		c0.714,0.252,0.84,0.308,0.84,0.406c0,0.126-0.154,0.182-0.672,0.252c-0.84,1.54-1.429,2.38-2.338,3.332
		c-0.826,0.882-1.526,1.442-2.73,2.198L42.056,71.287z M48.216,70.811c-0.21,1.554-0.519,2.576-1.064,3.57
		c-0.573,1.022-1.47,1.876-2.758,2.59c-0.518,0.28-0.868,0.434-1.624,0.7l-0.098-0.196c1.932-1.064,3.065-2.212,3.766-3.78
		c0.378-0.854,0.546-1.526,0.729-2.884h-1.778c-0.35,0-0.77,0.042-1.12,0.098l-0.098-0.532c0.504,0.084,0.77,0.112,1.204,0.112
		h5.964c0.252-0.238,0.336-0.308,0.588-0.532c0.406,0.252,0.518,0.336,0.868,0.616c0.111,0.098,0.153,0.154,0.153,0.21
		c0,0.112-0.098,0.182-0.489,0.378c-0.141,2.954-0.393,4.788-0.742,5.516c-0.28,0.588-0.784,0.77-2.437,0.812
		c-0.027-0.378-0.14-0.56-0.447-0.714c-0.238-0.112-0.561-0.196-1.666-0.392l0.014-0.252c2.058,0.238,2.646,0.294,3.122,0.294
		c0.546,0,0.7-0.224,0.882-1.316c0.154-0.98,0.266-2.52,0.308-4.298H48.216z M49.952,65.085c0,0.154,0.014,0.238,0.056,0.35
		c0.238,0.742,1.231,2.016,2.142,2.73c0.966,0.77,1.807,1.204,3.164,1.624l0.015,0.182c-0.574,0.14-0.799,0.336-1.135,0.966
		c-1.189-0.784-1.903-1.386-2.659-2.254c-0.673-0.784-0.994-1.302-1.694-2.73c-0.168-0.336-0.267-0.49-0.448-0.644L49.952,65.085z"
		/>
	<path d="M60.004,72.925h1.189c0.322-0.378,0.406-0.476,0.714-0.826c0.477,0.406,0.616,0.532,1.051,0.966
		c0.042,0.042,0.056,0.084,0.056,0.112c0,0.042-0.042,0.07-0.112,0.07h-2.897v1.904c1.036-0.154,1.666-0.28,2.912-0.602l0.069,0.196
		c-0.979,0.42-1.609,0.63-3.29,1.106c-1.554,0.434-1.945,0.546-2.758,0.742c-0.098,0.434-0.14,0.504-0.237,0.504
		c-0.141,0-0.267-0.392-0.505-1.512c0.421-0.014,0.421-0.014,2.954-0.336v-2.002H57.54c-0.378,0-0.687,0.028-0.938,0.084
		l-0.056-0.532c0.378,0.098,0.574,0.126,0.994,0.126h1.609v-1.96h-1.456v0.588c-0.014,0.098-0.042,0.14-0.126,0.154
		c-0.056,0.014-0.447,0.042-0.546,0.042c-0.153,0-0.224-0.056-0.224-0.196c0.028-1.05,0.042-1.848,0.042-3.934
		c0-0.49-0.014-1.33-0.042-2.52c0.448,0.252,0.588,0.336,1.021,0.63h3.599c0.195-0.28,0.252-0.364,0.462-0.63
		c0.378,0.252,0.476,0.336,0.826,0.602c0.126,0.098,0.182,0.168,0.182,0.224c0,0.098-0.182,0.238-0.49,0.378
		c0,2.702,0,4.06,0.028,5.04c0,0.154-0.154,0.196-0.687,0.196c-0.126,0-0.182-0.028-0.182-0.14v-0.434h-1.554V72.925z
		 M59.149,66.051h-1.456v2.114h1.456V66.051z M59.149,68.487h-1.456v2.156h1.456V68.487z M61.558,68.165v-2.114h-1.554v2.114H61.558
		z M60.004,70.643h1.554v-2.156h-1.554V70.643z M67.62,69.761c0.266-0.294,0.363-0.378,0.657-0.658
		c0.364,0.336,0.477,0.448,0.826,0.798c0.042,0.056,0.084,0.112,0.112,0.14s0.042,0.07,0.042,0.084c0,0.126-0.21,0.21-0.63,0.294
		c-0.7,0.896-0.98,1.218-1.792,2.044l-0.154-0.112c0.462-0.826,0.63-1.176,1.092-2.268h-1.651v4.774c0,0.196,0,0.294,0.014,1.652
		c-0.028,0.42-0.112,0.574-0.378,0.728c-0.267,0.154-0.588,0.266-1.218,0.378c-0.07-0.56-0.099-0.63-0.364-0.756
		c-0.294-0.14-0.784-0.238-1.904-0.406l0.015-0.252c0.882,0.07,0.882,0.07,2.617,0.154c0.042,0.014,0.084,0.014,0.112,0.014
		c0.098,0,0.182-0.07,0.182-0.168v-6.118h-1.483c-0.406,0-0.687,0.028-0.98,0.098l-0.056-0.532c0.322,0.084,0.56,0.112,1.036,0.112
		h2.24c-0.099-0.056-0.112-0.084-0.183-0.252c-0.111-0.322-0.406-0.854-0.616-1.134c-0.363-0.532-0.686-0.854-1.287-1.316
		l0.14-0.154c1.063,0.602,1.357,0.798,1.834,1.19c0.63-0.854,0.826-1.162,1.315-2.044h-2.842c-0.531,0-0.826,0.028-1.063,0.112
		l-0.057-0.56c0.294,0.098,0.574,0.126,1.12,0.126h2.842c0.253-0.28,0.337-0.364,0.616-0.63c0.406,0.35,0.519,0.462,0.896,0.84
		c0.126,0.112,0.153,0.154,0.153,0.21c0,0.112-0.237,0.182-0.686,0.21c-1.148,1.092-1.386,1.302-2.1,1.904
		c0.405,0.378,0.462,0.448,0.462,0.672c0,0.168-0.057,0.336-0.168,0.532c-0.112,0.168-0.168,0.21-0.336,0.294H67.62z"/>
</g>
<g>
	<path d="M9.52,34.069c0.645-0.161,1.106-0.336,1.547-0.588c0.819-0.462,1.288-1.148,1.288-1.883c0-0.7-0.518-1.176-1.281-1.176
		c-0.818,0-1.89,0.448-2.813,1.169c-0.112,0.091-0.182,0.119-0.266,0.119c-0.329,0-0.841-0.49-0.841-0.805
		c0-0.049,0.015-0.091,0.057-0.175c0.069,0.147,0.111,0.196,0.195,0.259c0.105,0.077,0.189,0.112,0.287,0.112
		c0.183,0,0.448-0.077,0.848-0.252c1.105-0.483,1.834-0.672,2.562-0.672c1.064,0,1.792,0.623,1.792,1.54
		c0,0.868-0.588,1.617-1.609,2.051c-0.532,0.224-1.043,0.343-1.729,0.406L9.52,34.069z"/>
	<path d="M15.183,29.603c0.273,0.203,0.441,0.385,0.539,0.574c0.063,0.126,0.14,0.385,0.217,0.735
		c0.483-0.259,0.84-0.364,1.463-0.441c0.092-0.343,0.134-0.616,0.134-0.819c0-0.175-0.077-0.231-0.329-0.231
		c-0.035,0-0.077,0-0.134,0l-0.021-0.077c0.189-0.084,0.336-0.119,0.448-0.119c0.266,0,0.553,0.224,0.553,0.427
		c0,0.126-0.105,0.525-0.21,0.812c1.162,0.049,1.96,0.798,1.96,1.848c0,0.777-0.448,1.442-1.274,1.876
		c-0.427,0.224-0.818,0.336-1.372,0.406l-0.027-0.098c0.602-0.182,0.987-0.385,1.357-0.7c0.504-0.441,0.771-0.994,0.771-1.603
		c0-0.539-0.217-0.987-0.603-1.26c-0.252-0.175-0.497-0.252-0.875-0.273c-0.286,0.777-0.734,1.617-1.176,2.184
		c0.099,0.147,0.133,0.196,0.252,0.35c0.203,0.252,0.217,0.28,0.217,0.364s-0.076,0.154-0.168,0.154
		c-0.16,0-0.378-0.189-0.602-0.511c-0.105,0.147-0.266,0.301-0.539,0.518c-0.23,0.175-0.392,0.252-0.56,0.252
		c-0.161,0-0.238-0.091-0.309-0.357c-0.063-0.224-0.091-0.287-0.21-0.455c-0.119-0.161-0.161-0.28-0.161-0.427
		c0-0.553,0.399-1.148,1.1-1.631c-0.126-0.798-0.203-1.022-0.532-1.428L15.183,29.603z M15.154,32.011
		c-0.153,0.259-0.237,0.56-0.237,0.826c0,0.315,0.195,0.672,0.363,0.672c0.161,0,0.512-0.245,0.848-0.602
		c-0.196-0.455-0.287-0.777-0.435-1.512C15.421,31.633,15.288,31.78,15.154,32.011z M16.422,32.543
		c0.392-0.553,0.707-1.183,0.917-1.862c-0.603,0.091-0.924,0.21-1.352,0.504C16.197,32.004,16.254,32.179,16.422,32.543z"/>
	<path d="M21.938,29.799c0.273,0.315,0.511,0.413,0.98,0.413c0.133,0,0.217-0.007,0.405-0.035c0.043-0.315,0.077-0.658,0.077-0.777
		c0-0.252-0.111-0.364-0.455-0.469c0.077-0.063,0.112-0.077,0.203-0.077c0.154,0,0.42,0.07,0.609,0.161
		c0.175,0.091,0.259,0.175,0.259,0.287c0,0.063,0,0.063-0.091,0.182c-0.084,0.119-0.133,0.252-0.217,0.63
		c0.665-0.14,1.078-0.301,1.315-0.497c0.077-0.07,0.105-0.077,0.176-0.077c0.098,0,0.252,0.028,0.328,0.056
		c0.07,0.028,0.112,0.084,0.112,0.154c0,0.126-0.14,0.21-0.602,0.371c-0.351,0.119-0.89,0.245-1.407,0.329
		c-0.063,0.315-0.119,0.742-0.133,1.057c0.398-0.133,0.742-0.203,1.12-0.224c0-0.021,0-0.035,0-0.042
		c0-0.133-0.057-0.231-0.225-0.385c0.035-0.007,0.063-0.014,0.077-0.014c0.182,0,0.385,0.189,0.448,0.42
		c0.623,0.07,1.008,0.21,1.357,0.497c0.315,0.273,0.477,0.637,0.477,1.106c0,1.064-1.085,1.862-2.73,2.002l-0.021-0.112
		c1.421-0.35,2.212-1.078,2.212-2.051c0-0.427-0.183-0.777-0.511-0.994c-0.196-0.126-0.435-0.196-0.813-0.245
		c-0.104,0.357-0.217,0.595-0.44,0.959c-0.245,0.385-0.455,0.644-0.749,0.91c0.091,0.175,0.091,0.175,0.175,0.294
		c0.049,0.077,0.077,0.168,0.077,0.294c0,0.189-0.063,0.322-0.161,0.322c-0.119,0-0.238-0.189-0.406-0.616
		c-0.448,0.406-0.931,0.665-1.211,0.665c-0.168,0-0.245-0.077-0.336-0.322c-0.049-0.119-0.063-0.147-0.133-0.266
		c-0.105-0.168-0.134-0.266-0.134-0.42c0-0.364,0.218-0.728,0.658-1.099c0.26-0.21,0.532-0.378,0.945-0.56
		c0.007-0.105,0.007-0.105,0.042-0.518c0.007-0.119,0.021-0.231,0.063-0.623c-0.133,0.007-0.195,0.014-0.266,0.014
		c-0.553,0-0.882-0.182-1.169-0.644L21.938,29.799z M22.183,32.739c-0.146,0.224-0.217,0.441-0.217,0.658
		c0,0.259,0.104,0.427,0.266,0.427c0.225,0,0.658-0.238,1.043-0.567c-0.084-0.455-0.104-0.686-0.104-1.127c0-0.049,0-0.14,0-0.252
		C22.645,32.186,22.399,32.396,22.183,32.739z M23.484,31.962c0,0.378,0.035,0.728,0.099,1.022c0.546-0.567,0.798-0.938,1.001-1.512
		c-0.399,0.035-0.665,0.098-1.1,0.266C23.484,31.836,23.484,31.913,23.484,31.962z"/>
	<path d="M31.381,34.335c1.26-0.441,1.946-1.19,1.946-2.114c0-0.686-0.435-1.155-1.064-1.155c-0.623,0-1.421,0.364-2.163,0.987
		c0.007,0.567,0.042,1.337,0.077,1.61c0.021,0.175,0.021,0.203,0.021,0.273c0,0.231-0.056,0.476-0.14,0.651
		c-0.042,0.091-0.104,0.14-0.175,0.14c-0.056,0-0.119-0.035-0.147-0.091c-0.007-0.028-0.007-0.028-0.069-0.196
		c-0.063-0.189-0.099-0.245-0.245-0.42c-0.189-0.224-0.315-0.35-0.532-0.539c-0.035,0.063-0.056,0.105-0.07,0.14
		c-0.098,0.189-0.146,0.252-0.202,0.252c-0.099,0-0.211-0.266-0.211-0.497c0-0.091,0.028-0.147,0.134-0.259
		c0.104-0.105,0.195-0.21,0.301-0.343c0.203-0.259,0.861-1.19,1.036-1.477c0.014-0.252,0.021-0.42,0.027-0.511
		c-0.308,0.175-0.308,0.175-0.686,0.441c-0.133,0.098-0.217,0.133-0.287,0.133c-0.119,0-0.259-0.091-0.371-0.238
		c-0.104-0.133-0.175-0.294-0.175-0.385c0-0.028,0.014-0.063,0.035-0.119c0.119,0.224,0.266,0.336,0.427,0.336
		c0.147,0,0.658-0.203,1.085-0.441c0.014-0.133,0.035-0.546,0.035-0.7c0-0.441-0.049-0.539-0.413-0.805
		c0.049-0.028,0.077-0.035,0.105-0.035c0.14,0,0.385,0.105,0.573,0.245c0.176,0.126,0.26,0.231,0.26,0.329
		c0,0.056,0,0.056-0.084,0.28c-0.07,0.182-0.112,0.343-0.141,0.581c0.168,0.14,0.252,0.245,0.252,0.315c0,0.049,0,0.049-0.119,0.182
		c-0.069,0.091-0.146,0.217-0.252,0.462c-0.014,0.098-0.014,0.126-0.021,0.231c0.406-0.224,0.504-0.273,0.721-0.378
		c0.497-0.245,0.98-0.364,1.428-0.364c0.917,0,1.589,0.616,1.589,1.456c0,0.693-0.398,1.281-1.154,1.701
		c-0.399,0.217-0.764,0.336-1.295,0.427L31.381,34.335z M29.364,32.676c-0.343,0.574-0.343,0.574-0.405,0.686
		c0.314,0.231,0.321,0.238,0.84,0.56c0-0.448,0.028-1.491,0.049-2.079C29.435,32.557,29.428,32.571,29.364,32.676z"/>
	<path d="M37.681,32.095c0.658,0.371,0.903,0.497,0.973,0.497c0.119,0,0.218-0.462,0.315-1.414c-0.687,0.084-1.274,0.217-1.883,0.42
		c-0.021,0.343-0.028,0.553-0.028,0.847c0,0.903,0.07,1.197,0.336,1.379c0.183,0.133,0.448,0.182,0.938,0.182
		c0.398,0,0.875-0.07,1.189-0.168c0.133-0.049,0.141-0.049,0.183-0.049c0.182,0,0.462,0.217,0.462,0.357
		c0,0.084-0.042,0.14-0.126,0.168c-0.154,0.063-0.764,0.119-1.239,0.119c-1.036,0-1.47-0.14-1.778-0.574
		c-0.153-0.21-0.23-0.525-0.272-1.092c-0.015-0.21-0.021-0.441-0.035-1.043c-0.385,0.119-0.729,0.259-0.952,0.385
		c-0.091,0.049-0.126,0.063-0.182,0.063c-0.273,0-0.714-0.448-0.714-0.721c0-0.028,0.007-0.063,0.014-0.105
		c0.161,0.231,0.35,0.336,0.602,0.336c0.225,0,0.42-0.042,1.232-0.266c-0.007-0.357-0.035-0.798-0.07-0.952
		c-0.042-0.224-0.196-0.364-0.553-0.504c0.07-0.049,0.104-0.063,0.182-0.063c0.168,0,0.448,0.084,0.672,0.196
		c0.168,0.077,0.26,0.196,0.26,0.329c0,0.042,0,0.042-0.035,0.175c-0.015,0.056-0.028,0.175-0.035,0.266
		c-0.028,0.371-0.028,0.371-0.042,0.455c0.861-0.21,1.105-0.259,1.904-0.406c0.021-0.252,0.034-0.672,0.034-0.994
		c0-0.294-0.056-0.434-0.23-0.574c-0.119-0.098-0.21-0.14-0.357-0.182c0.07-0.063,0.099-0.077,0.189-0.077
		c0.182,0,0.434,0.07,0.686,0.189c0.183,0.091,0.28,0.196,0.28,0.322c0,0.063,0,0.063-0.063,0.224
		c-0.057,0.161-0.112,0.476-0.176,1.022c0.099-0.014,0.099-0.014,0.413-0.077c0.133-0.028,0.28-0.063,0.462-0.126
		c0.141-0.049,0.168-0.056,0.218-0.056c0.098,0,0.294,0.07,0.476,0.175c0.154,0.084,0.196,0.126,0.196,0.203
		c0,0.077-0.077,0.14-0.175,0.14c-0.035,0-0.092,0-0.154-0.007c-0.077-0.007-0.497-0.021-0.581-0.021
		c-0.091,0-0.385,0.021-0.889,0.063c-0.07,0.742-0.141,1.232-0.203,1.442c-0.105,0.343-0.315,0.567-0.525,0.567
		c-0.091,0-0.133-0.035-0.175-0.175c-0.028-0.091-0.105-0.189-0.245-0.322c-0.042-0.035-0.042-0.035-0.336-0.294
		c-0.091-0.077-0.098-0.077-0.217-0.189L37.681,32.095z"/>
	<path d="M42.378,30.429c0.287,0.294,0.469,0.385,0.77,0.385c0.273,0,0.567-0.042,0.89-0.133c0.14-0.455,0.237-0.945,0.237-1.183
		c0-0.217-0.104-0.308-0.497-0.441c0.092-0.049,0.126-0.063,0.218-0.063c0.16,0,0.392,0.049,0.602,0.133
		c0.21,0.077,0.315,0.175,0.315,0.28c0,0.049,0,0.049-0.084,0.168c-0.092,0.133-0.245,0.504-0.42,1.001
		c0.392-0.14,0.644-0.273,0.812-0.427c0.112-0.105,0.14-0.119,0.196-0.119c0.091,0,0.259,0.035,0.371,0.077
		c0.076,0.028,0.111,0.07,0.111,0.126c0,0.119-0.111,0.21-0.405,0.343c-0.315,0.14-0.784,0.294-1.226,0.406
		c-0.084,0.238-0.084,0.238-0.294,0.889c-0.14,0.42-0.14,0.42-0.525,1.561c-0.279,0.833-0.37,1.008-0.518,1.008
		c-0.07,0-0.119-0.042-0.161-0.14c-0.056-0.112-0.098-0.287-0.098-0.406c0-0.112,0.007-0.133,0.154-0.343
		c0.35-0.511,0.622-1.12,1.099-2.506c-0.266,0.049-0.469,0.07-0.672,0.07c-0.427,0-0.7-0.182-0.959-0.63L42.378,30.429z
		 M45.171,32.844c-0.007,0.105-0.007,0.189-0.007,0.217c0,0.399,0.188,0.7,0.531,0.847c0.189,0.084,0.477,0.133,0.749,0.133
		c0.287,0,0.448-0.021,0.673-0.105c0.049-0.021,0.091-0.028,0.118-0.028c0.077,0,0.238,0.077,0.357,0.168
		c0.084,0.07,0.126,0.133,0.126,0.196c0,0.154-0.273,0.231-0.826,0.231c-0.539,0-0.987-0.077-1.295-0.224
		c-0.378-0.182-0.595-0.546-0.595-1.015c0-0.154,0.014-0.273,0.063-0.441L45.171,32.844z M45.359,31.549
		c0.504-0.301,1.078-0.469,1.624-0.469c0.147,0,0.329,0.049,0.441,0.126c0.07,0.042,0.112,0.119,0.112,0.196
		c0,0.112-0.063,0.154-0.267,0.161c-0.259,0.014-0.343,0.035-0.539,0.14c-0.14,0.077-0.146,0.077-0.385,0.238
		c-0.133,0.084-0.133,0.084-0.245,0.147l-0.042-0.063c0.084-0.084,0.084-0.084,0.336-0.315c0.063-0.056,0.126-0.112,0.343-0.329
		c-0.462,0-0.833,0.077-1.337,0.259L45.359,31.549z"/>
	<path d="M50.134,29.89c0.168,0.252,0.28,0.371,0.483,0.504c0.244,0.154,0.454,0.231,0.818,0.301
		c0.196-0.973,0.217-1.078,0.217-1.246c0-0.238-0.098-0.385-0.378-0.581c0.057-0.021,0.077-0.028,0.119-0.028
		c0.126,0,0.309,0.077,0.519,0.217c0.224,0.154,0.363,0.35,0.363,0.504c0,0.063-0.021,0.119-0.091,0.203
		c-0.119,0.168-0.196,0.357-0.385,0.973c0.146,0.042,0.21,0.077,0.28,0.154c0.056,0.063,0.098,0.161,0.098,0.231
		c0,0.091-0.084,0.147-0.224,0.147c-0.07,0-0.161-0.014-0.273-0.035c-0.14,0.469-0.224,0.882-0.28,1.295
		c0.168,0.035,0.287,0.049,0.357,0.049c0.021,0,0.035,0,0.056-0.007c0.042-0.007,0.07-0.007,0.077-0.007
		c0.182,0,0.42,0.217,0.42,0.378c0,0.098-0.091,0.161-0.238,0.161c-0.195,0-0.489-0.049-0.741-0.126
		c-0.015,0.168-0.021,0.252-0.021,0.343c0,0.714,0.399,1.113,1.106,1.113c0.476,0,0.889-0.182,1.105-0.476
		c0.154-0.21,0.231-0.448,0.231-0.714c0-0.581-0.393-1.239-1.058-1.75l0.077-0.091c1.036,0.637,1.478,1.218,1.478,1.932
		c0,0.847-0.729,1.491-1.701,1.491c-0.364,0-0.714-0.105-0.952-0.287c-0.364-0.273-0.539-0.693-0.539-1.302
		c0-0.084,0.007-0.175,0.014-0.35c-0.272-0.126-0.412-0.21-0.56-0.357c-0.189-0.196-0.308-0.455-0.308-0.693
		c0-0.161,0.076-0.336,0.217-0.483c0.168-0.168,0.343-0.266,0.679-0.371c-0.28-0.105-0.476-0.231-0.679-0.434
		c-0.147-0.154-0.231-0.294-0.364-0.616L50.134,29.89z M50.547,31.451c-0.105,0.112-0.154,0.217-0.154,0.35
		c0,0.294,0.238,0.511,0.721,0.658c0.035-0.35,0.099-0.749,0.21-1.274C50.918,31.206,50.715,31.283,50.547,31.451z"/>
	<path d="M59.08,34.391c0.756-0.224,1.238-0.511,1.638-0.973c0.413-0.469,0.623-1.043,0.623-1.687c0-0.679-0.273-1.218-0.791-1.547
		c-0.308-0.203-0.771-0.322-1.211-0.322c-0.084,0-0.133,0-0.245,0.014c0.168,0.245,0.217,0.378,0.217,0.581
		c0,0.546-0.392,1.568-0.924,2.422c-0.441,0.7-0.784,1.043-1.043,1.043c-0.119,0-0.231-0.056-0.308-0.147
		c-0.063-0.084-0.077-0.112-0.196-0.448c-0.063-0.182-0.105-0.266-0.308-0.658c-0.112-0.224-0.161-0.413-0.161-0.637
		c0-0.441,0.237-0.959,0.63-1.386c0.566-0.602,1.491-0.98,2.408-0.98c0.707,0,1.357,0.231,1.806,0.644
		c0.448,0.413,0.672,0.966,0.672,1.645c0,0.875-0.511,1.652-1.393,2.121c-0.406,0.217-0.771,0.329-1.365,0.434L59.08,34.391z
		 M56.776,32.214c0,0.336,0.105,0.679,0.28,0.924c0.098,0.126,0.189,0.203,0.266,0.203c0.154,0,0.49-0.378,0.833-0.924
		c0.519-0.826,0.89-1.729,0.89-2.163c0-0.105-0.021-0.175-0.099-0.35C57.729,30.121,56.776,31.136,56.776,32.214z"/>
	<path d="M10.227,41.209c0.532-0.826,1.316-1.246,2.297-1.246c1.792,0,2.869,1.33,2.869,3.528c0,1.092-0.279,2.086-0.783,2.786
		c-0.505,0.686-1.358,1.078-2.311,1.078c-0.826,0-1.302-0.21-2.072-0.91v2.044c0,1.302,0.07,1.386,1.078,1.428v0.322H8.071v-0.322
		c0.952-0.028,1.021-0.126,1.021-1.428v-6.762c0-1.05-0.168-1.26-0.966-1.26v-0.308l2.1-0.154V41.209z M12.187,46.977
		c1.274,0,1.904-1.12,1.904-3.332s-0.588-3.29-1.777-3.29c-0.645,0-1.261,0.35-1.597,0.91c-0.364,0.602-0.546,1.4-0.546,2.45
		C10.171,45.885,10.857,46.977,12.187,46.977z"/>
	<path d="M23.33,47.201c-0.546,0.084-1.162,0.14-1.441,0.14c-0.42,0-0.532-0.224-0.588-1.162c-0.225,0.252-0.406,0.406-0.687,0.602
		c-0.616,0.448-1.105,0.602-1.82,0.602c-0.615,0-1.077-0.14-1.428-0.434c-0.378-0.336-0.616-0.896-0.616-1.484
		c0-1.106,0.7-1.82,2.059-2.128c0.728-0.168,1.47-0.266,2.492-0.336v-0.882c0-0.644-0.057-0.98-0.196-1.274
		c-0.182-0.364-0.574-0.546-1.148-0.546c-0.924,0-1.399,0.42-1.456,1.288c-0.014,0.294-0.042,0.392-0.153,0.476
		c-0.099,0.07-0.28,0.112-0.49,0.112c-0.476,0-0.686-0.126-0.686-0.42c0-0.504,0.363-1.008,0.951-1.344
		c0.532-0.294,1.219-0.448,2.044-0.448c0.896,0,1.54,0.21,1.876,0.616c0.28,0.35,0.406,0.812,0.406,1.582
		c0,0.042,0,0.042-0.027,1.414l-0.015,1.33l-0.014,0.644c0,0.588,0.069,1.092,0.154,1.204c0.084,0.112,0.252,0.154,0.783,0.154
		V47.201z M21.301,43.323c-1.246,0.112-1.792,0.224-2.353,0.504c-0.616,0.294-0.938,0.854-0.938,1.596
		c0,0.882,0.476,1.484,1.176,1.484c0.714,0,1.441-0.42,1.792-1.022c0.224-0.392,0.322-0.98,0.322-1.904V43.323z"/>
	<path d="M30.723,45.437c-0.574,1.302-1.54,1.974-2.885,1.974c-1.974,0-3.346-1.484-3.346-3.626c0-2.282,1.386-3.822,3.43-3.822
		c0.813,0,1.568,0.266,2.072,0.714c0.364,0.336,0.603,0.756,0.603,1.106c0,0.266-0.267,0.434-0.7,0.434
		c-0.196,0-0.378-0.056-0.477-0.14c-0.084-0.084-0.084-0.112-0.111-0.476c-0.084-0.77-0.658-1.288-1.471-1.288
		c-1.273,0-2.029,1.176-2.029,3.192c0,2.128,0.882,3.43,2.338,3.43c1.008,0,1.777-0.574,2.254-1.694L30.723,45.437z"/>
	<path d="M33.635,45.479c0,1.302,0.069,1.414,1.008,1.442v0.308h-3.122v-0.308c0.924-0.028,0.994-0.14,0.994-1.442v-6.818
		c0-1.19-0.056-1.26-0.994-1.274v-0.308l2.198-0.112c-0.057,0.938-0.084,2.072-0.084,2.8v4.438l2.198-2.408
		c0.321-0.35,0.489-0.658,0.489-0.868c0-0.294-0.266-0.434-0.882-0.462v-0.308h3.094v0.308c-0.405,0.042-0.63,0.126-0.938,0.308
		c-0.477,0.294-0.532,0.336-1.372,1.246l-0.729,0.784l1.96,3.08c0.477,0.756,0.715,0.938,1.33,1.036v0.308h-1.903
		c-0.141-0.294-0.588-1.092-0.729-1.344l-1.428-2.324l-1.092,1.218V45.479z"/>
	<path d="M46.08,47.201c-0.546,0.084-1.162,0.14-1.441,0.14c-0.42,0-0.532-0.224-0.588-1.162c-0.225,0.252-0.406,0.406-0.687,0.602
		c-0.616,0.448-1.105,0.602-1.82,0.602c-0.615,0-1.077-0.14-1.428-0.434c-0.378-0.336-0.616-0.896-0.616-1.484
		c0-1.106,0.7-1.82,2.059-2.128c0.728-0.168,1.47-0.266,2.492-0.336v-0.882c0-0.644-0.057-0.98-0.196-1.274
		c-0.182-0.364-0.574-0.546-1.148-0.546c-0.924,0-1.399,0.42-1.456,1.288c-0.014,0.294-0.042,0.392-0.153,0.476
		c-0.099,0.07-0.28,0.112-0.49,0.112c-0.476,0-0.686-0.126-0.686-0.42c0-0.504,0.363-1.008,0.951-1.344
		c0.532-0.294,1.219-0.448,2.044-0.448c0.896,0,1.54,0.21,1.876,0.616c0.28,0.35,0.406,0.812,0.406,1.582
		c0,0.042,0,0.042-0.027,1.414l-0.015,1.33l-0.014,0.644c0,0.588,0.069,1.092,0.154,1.204c0.084,0.112,0.252,0.154,0.783,0.154
		V47.201z M44.051,43.323c-1.246,0.112-1.792,0.224-2.353,0.504c-0.616,0.294-0.938,0.854-0.938,1.596
		c0,0.882,0.476,1.484,1.176,1.484c0.714,0,1.441-0.42,1.792-1.022c0.224-0.392,0.322-0.98,0.322-1.904V43.323z"/>
	<path d="M52.185,40.635c0.546,0.56,0.798,1.148,0.798,1.876c0,1.484-1.092,2.436-2.772,2.436c-0.42,0-0.714-0.042-1.231-0.168
		c-0.519,0.28-0.729,0.518-0.729,0.84c0,0.532,0.364,0.7,1.54,0.7c0.196,0,0.309,0,0.658,0c0.112,0,0.266,0,0.322,0
		c0.952,0,1.399,0.042,1.792,0.14c0.77,0.224,1.162,0.728,1.162,1.512c0,0.686-0.42,1.386-1.051,1.736
		c-0.63,0.364-1.428,0.532-2.478,0.532c-0.938,0-1.638-0.14-2.17-0.434c-0.518-0.28-0.756-0.714-0.756-1.358
		c0-0.588,0.111-0.728,0.979-1.288c-0.602-0.28-0.882-0.672-0.882-1.232c0-0.392,0.126-0.574,0.672-0.952l0.546-0.364
		c-0.392-0.266-0.546-0.406-0.699-0.602c-0.294-0.364-0.448-0.882-0.448-1.442c0-0.952,0.406-1.778,1.092-2.184
		c0.476-0.28,1.064-0.42,1.722-0.42c0.294,0,0.546,0.028,0.938,0.098c0.448,0.07,0.56,0.084,0.882,0.084
		c0.35,0,0.771-0.014,1.526-0.042v0.532H52.185z M48.194,48.321c0,1.036,0.742,1.582,2.17,1.582c1.498,0,2.422-0.616,2.422-1.596
		c0-0.588-0.322-0.896-1.078-1.022c-0.294-0.042-0.699-0.056-1.596-0.056c-0.49,0-1.33,0.014-1.344,0.028
		C48.376,47.397,48.194,47.733,48.194,48.321z M48.937,43.967c0.237,0.42,0.714,0.672,1.273,0.672c1.022,0,1.568-0.742,1.568-2.128
		c0-1.47-0.532-2.226-1.568-2.226c-1.05,0-1.596,0.714-1.596,2.114C48.614,43.029,48.727,43.589,48.937,43.967z"/>
	<path d="M55.95,43.281c0.014,0.966,0.098,1.526,0.322,2.1c0.406,1.036,1.092,1.54,2.1,1.54c0.994,0,1.75-0.518,2.311-1.582
		l0.321,0.182c-0.63,1.288-1.582,1.89-2.954,1.89c-2.002,0-3.374-1.484-3.374-3.626c0-2.268,1.345-3.822,3.318-3.822
		c1.274,0,2.24,0.644,2.674,1.778c0.141,0.378,0.196,0.714,0.225,1.54H55.95z M59.674,42.903c-0.014-0.742-0.084-1.148-0.266-1.554
		c-0.308-0.686-0.784-1.036-1.442-1.036c-0.672,0-1.231,0.378-1.609,1.092c-0.21,0.406-0.294,0.77-0.378,1.498H59.674z"/>
</g>
<g>
	<path d="M5.936,1.547c0.252,0,0.777-0.056,1.344-0.147C7.476,1.372,7.504,1.358,7.65,1.26c0.091-0.056,0.133-0.077,0.183-0.077
		c0.076,0,0.182,0.056,0.363,0.203c0.189,0.147,0.267,0.252,0.267,0.343c0,0.049-0.021,0.098-0.084,0.168
		c-0.07,0.077-0.105,0.14-0.154,0.301c-0.042,0.133-0.21,0.784-0.308,1.19C7.818,3.759,7.798,3.864,7.741,4.081
		c0.854-0.028,1.197-0.063,1.414-0.14c0.084-0.028,0.092-0.028,0.126-0.028c0.092,0,0.252,0.077,0.406,0.189
		c0.161,0.119,0.231,0.217,0.231,0.322c0,0.084-0.07,0.14-0.189,0.14c-0.021,0-0.063-0.007-0.245-0.042
		c-0.482-0.091-1.021-0.14-1.645-0.14c-0.875,0-2.282,0.245-2.751,0.476C4.99,4.907,4.941,4.921,4.872,4.921
		c-0.147,0-0.322-0.126-0.47-0.35C4.256,4.368,4.186,4.214,4.186,4.095c0-0.028,0.007-0.07,0.028-0.112
		c0.21,0.301,0.378,0.399,0.665,0.399c0.153,0,0.203-0.007,0.973-0.112c0.672-0.098,0.798-0.112,1.47-0.168
		c0.063-0.28,0.099-0.49,0.176-0.966C7.553,2.814,7.595,2.555,7.63,2.359c0.035-0.203,0.063-0.364,0.069-0.455
		C7.707,1.827,7.714,1.771,7.714,1.75c0.007-0.042,0.014-0.07,0.014-0.098c0-0.021-0.014-0.035-0.028-0.035H7.692
		C7.679,1.624,7.644,1.624,7.602,1.631c-0.28,0.028-1.134,0.231-1.547,0.364C5.949,2.03,5.894,2.044,5.845,2.044
		c-0.112,0-0.231-0.091-0.371-0.287C5.361,1.589,5.284,1.4,5.284,1.274c0-0.063,0.015-0.112,0.057-0.203
		C5.502,1.428,5.648,1.547,5.936,1.547z"/>
	<path d="M18.738,0.686c0.189,0,0.512,0.091,0.707,0.196c0.161,0.091,0.238,0.182,0.238,0.294c0,0.042-0.007,0.084-0.035,0.154
		c-0.098,0.224-0.146,0.518-0.195,1.141c0.098,0.077,0.168,0.098,0.328,0.098c0.273,0,0.826-0.105,1.352-0.266
		c0.314-0.091,0.497-0.175,0.686-0.301c0.035-0.028,0.119-0.056,0.154-0.056c0.203,0,0.539,0.217,0.539,0.35
		c0,0.105-0.091,0.161-0.336,0.217c-0.896,0.203-1.694,0.322-2.177,0.322c-0.218,0-0.413-0.063-0.561-0.182
		c-0.035,0.756-0.042,1.036-0.042,1.197c0,0.847,0.189,1.043,0.98,1.043c0.63,0,1.238-0.084,1.651-0.238
		c0.092-0.028,0.147-0.042,0.21-0.042c0.176,0,0.477,0.238,0.477,0.385c0,0.098-0.07,0.154-0.245,0.189
		c-0.301,0.063-1.043,0.119-1.61,0.119c-0.902,0-1.33-0.133-1.589-0.497c-0.14-0.196-0.21-0.427-0.238-0.812
		c-0.007-0.168-0.014-0.483-0.014-1.015c0-0.084,0-0.161,0-0.329c0.007-0.315,0.007-0.511,0.007-0.63
		c0-0.616-0.021-0.812-0.084-0.945c-0.077-0.147-0.217-0.245-0.476-0.329C18.55,0.693,18.585,0.686,18.738,0.686z M21.875,0.504
		c0.489,0.189,0.798,0.35,0.994,0.532c0.118,0.105,0.16,0.21,0.16,0.399c0,0.182-0.056,0.301-0.146,0.301
		c-0.056,0-0.112-0.049-0.168-0.154c-0.203-0.364-0.469-0.658-0.896-0.994L21.875,0.504z M22.483,0
		c0.455,0.14,0.742,0.273,0.952,0.427c0.183,0.133,0.231,0.217,0.231,0.378c0,0.203-0.07,0.343-0.161,0.343
		c-0.063,0-0.091-0.021-0.196-0.196c-0.175-0.287-0.413-0.518-0.875-0.875L22.483,0z"/>
	<path d="M32.298,1.666c0.252,0.168,0.462,0.238,0.721,0.238c0.273,0,0.735-0.105,1.204-0.266c-0.14-0.609-0.245-0.917-0.356-1.078
		c-0.112-0.161-0.231-0.217-0.567-0.245c0.112-0.105,0.188-0.133,0.406-0.133c0.175,0,0.405,0.028,0.566,0.07
		c0.175,0.049,0.273,0.133,0.273,0.245c0,0.014,0,0.042-0.007,0.07c-0.021,0.105-0.028,0.14-0.028,0.217
		c0,0.196,0.021,0.357,0.084,0.735c0.63-0.224,0.868-0.336,1.057-0.476c0.092-0.077,0.112-0.084,0.176-0.084
		c0.104,0,0.217,0.028,0.328,0.07c0.105,0.042,0.154,0.098,0.154,0.161c0,0.105-0.091,0.161-0.392,0.259
		c-0.791,0.259-0.861,0.28-1.261,0.399c0.063,0.357,0.147,0.749,0.238,1.113c0.378-0.098,0.848-0.238,1.071-0.329
		c0.196-0.07,0.217-0.077,0.448-0.203c0.069-0.042,0.091-0.049,0.14-0.049c0.28,0,0.623,0.168,0.623,0.301
		c0,0.049-0.028,0.091-0.077,0.112c-0.063,0.021-0.077,0.021-0.49,0.07c-0.336,0.035-1.015,0.189-1.645,0.371
		c0.23,0.931,0.398,1.582,0.504,1.96c0.063,0.231,0.077,0.315,0.077,0.413c0,0.161-0.057,0.238-0.161,0.238
		c-0.168,0-0.518-0.385-0.518-0.574c0-0.007,0-0.007,0.014-0.098c0-0.042,0.007-0.14,0.007-0.175c0-0.252-0.063-0.658-0.266-1.652
		C34.097,3.5,33.48,3.745,33.173,3.92c-0.147,0.084-0.238,0.119-0.309,0.119c-0.259,0-0.741-0.42-0.741-0.637
		c0-0.028,0.007-0.042,0.021-0.084c0.161,0.168,0.351,0.259,0.525,0.259c0.217,0,0.329-0.028,1.295-0.329
		c0.063-0.021,0.188-0.063,0.595-0.182c-0.084-0.378-0.196-0.882-0.259-1.12c-0.735,0.203-0.889,0.238-1.155,0.238
		c-0.322,0-0.644-0.154-0.902-0.434L32.298,1.666z"/>
	<path d="M46.186,5.81c0.665-0.434,0.91-0.616,1.31-0.973c0.504-0.455,0.847-0.826,1.176-1.267c-0.112-0.021-0.154-0.056-0.301-0.28
		c-0.294-0.441-0.525-0.693-0.974-1.043c-0.497,0.49-0.868,0.791-1.295,1.043l-0.077-0.105c0.497-0.427,0.917-0.875,1.352-1.449
		c0.44-0.588,0.692-1.036,0.692-1.218c0-0.161-0.118-0.273-0.447-0.42c0.069-0.028,0.098-0.035,0.153-0.035
		c0.147,0,0.413,0.084,0.623,0.203c0.196,0.105,0.287,0.203,0.287,0.294c0,0.098-0.063,0.203-0.329,0.539
		c0.084,0.021,0.126,0.028,0.196,0.028c0.161,0,0.406-0.042,0.931-0.154c0.364-0.077,0.428-0.098,0.554-0.189
		c0.034-0.021,0.076-0.035,0.111-0.035c0.091,0,0.21,0.07,0.393,0.238c0.119,0.112,0.188,0.217,0.188,0.287
		c0,0.049-0.027,0.084-0.098,0.14c-0.084,0.07-0.112,0.112-0.231,0.322c-0.721,1.344-1.456,2.289-2.365,3.052
		c-0.596,0.49-1.19,0.868-1.792,1.127L46.186,5.81z M49.524,1.225c-0.566,0.14-0.566,0.14-0.644,0.168
		c-0.119,0.042-0.154,0.049-0.217,0.049c-0.119,0-0.245-0.056-0.42-0.189c-0.267,0.357-0.448,0.574-0.742,0.882
		c0.518,0.224,0.518,0.224,0.672,0.315c0.308,0.168,0.469,0.322,0.609,0.546c0.063,0.112,0.076,0.168,0.091,0.315
		c0.497-0.665,0.959-1.505,1.189-2.184C49.889,1.141,49.763,1.169,49.524,1.225z"/>
	<path d="M59.409,5.369c0.672-0.42,1.364-0.987,1.883-1.533c0.42-0.441,0.924-1.099,1.337-1.743
		c0.224-0.343,0.343-0.574,0.476-0.903c-0.336,0.021-0.707,0.098-1.477,0.308c-0.336,0.091-0.364,0.098-0.588,0.189
		c-0.035,0.014-0.077,0.021-0.119,0.021c-0.154,0-0.301-0.126-0.455-0.399c-0.098-0.161-0.147-0.308-0.147-0.42
		c0-0.042,0.015-0.077,0.05-0.14c0.203,0.364,0.35,0.469,0.657,0.469c0.231,0,0.938-0.091,1.471-0.196
		c0.405-0.077,0.531-0.119,0.657-0.196c0.077-0.049,0.112-0.063,0.161-0.063c0.147,0,0.546,0.357,0.546,0.49
		c0,0.049-0.027,0.091-0.091,0.133c-0.146,0.098-0.146,0.098-0.398,0.476c-0.336,0.504-0.336,0.504-0.882,1.218
		c0.986,0.518,1.539,0.875,1.813,1.183c0.189,0.203,0.266,0.406,0.266,0.693c0,0.224-0.069,0.364-0.188,0.364
		c-0.049,0-0.105-0.035-0.161-0.112c-0.028-0.035-0.028-0.035-0.168-0.28c-0.35-0.588-0.952-1.211-1.666-1.715
		c-0.567,0.686-1.022,1.113-1.694,1.575c-0.44,0.308-0.741,0.476-1.225,0.686L59.409,5.369z"/>
	<path d="M6.014,18.41c-0.042-0.336-0.07-0.756-0.07-1.442C5.397,17.92,4.487,18.48,3.451,18.48c-0.896,0-1.582-0.434-1.861-1.176
		c-0.141-0.378-0.196-0.952-0.196-2.17v-2.31c0-0.728-0.056-1.022-0.21-1.148c-0.084-0.084-0.21-0.112-0.477-0.126
		c-0.182,0-0.182,0-0.252,0v-0.308l2.17-0.14c-0.069,1.302-0.084,1.638-0.084,2.604v1.218c0,1.414,0.028,1.792,0.196,2.282
		c0.168,0.518,0.561,0.784,1.134,0.784c0.771,0,1.456-0.504,1.82-1.358c0.21-0.476,0.252-0.784,0.252-1.652v-2.156
		c0-0.742-0.042-1.008-0.21-1.134c-0.084-0.084-0.224-0.126-0.476-0.14H5.006v-0.308l2.17-0.14c-0.042,1.05-0.07,1.974-0.07,2.604
		v2.646c0,1.4,0.126,1.652,0.854,1.652h0.099v0.308L6.014,18.41z"/>
	<path d="M10.087,18.34H9.709c0.042-0.546,0.042-0.644,0.042-2.506v-6.09c0-1.19-0.056-1.26-1.021-1.274V8.162l2.254-0.112
		c-0.057,0.938-0.084,2.072-0.084,2.8v1.568c0.546-0.938,1.26-1.372,2.268-1.372c1.82,0,2.982,1.4,2.982,3.598
		c0,2.38-1.204,3.864-3.15,3.864c-0.91,0-1.582-0.294-2.352-1.036L10.087,18.34z M11.277,17.22c0.308,0.602,0.924,0.966,1.624,0.966
		c1.288,0,1.946-1.148,1.946-3.374c0-2.24-0.631-3.388-1.862-3.388c-1.344,0-2.143,1.288-2.143,3.486
		C10.843,15.918,10.983,16.674,11.277,17.22z"/>
	<path d="M19.607,11.088c-0.042,0.812-0.084,2.03-0.084,2.618v2.856c0,1.302,0.069,1.414,1.008,1.442v0.308h-3.192v-0.308
		c0.967-0.028,1.036-0.14,1.036-1.442v-3.738c0-0.7-0.056-1.022-0.21-1.148c-0.111-0.098-0.336-0.126-0.826-0.126v-0.308
		L19.607,11.088z M18.907,8.12c0.434,0,0.784,0.35,0.784,0.784c0,0.448-0.351,0.798-0.784,0.798c-0.448,0-0.798-0.35-0.798-0.798
		C18.109,8.47,18.459,8.12,18.907,8.12z"/>
	<path d="M26.859,17.164c-0.49,0.812-1.316,1.274-2.282,1.274c-1.778,0-2.898-1.372-2.898-3.584c0-2.366,1.162-3.808,3.066-3.808
		c0.938,0,1.68,0.308,2.408,1.022l0.504-0.868h0.392c-0.027,0.868-0.042,1.54-0.042,2.576v5.796c0,1.302,0.07,1.386,1.008,1.428
		v0.322h-3.233V21c1.008-0.042,1.078-0.126,1.078-1.428V17.164z M26.509,12.348c-0.308-0.574-0.924-0.924-1.638-0.924
		c-1.288,0-1.89,1.064-1.89,3.346c0,1.358,0.252,2.31,0.77,2.842c0.252,0.266,0.63,0.406,1.078,0.406
		c0.686,0,1.302-0.406,1.652-1.064c0.308-0.588,0.447-1.33,0.447-2.366C26.929,13.566,26.803,12.88,26.509,12.348z"/>
	<path d="M35.161,18.41c-0.042-0.336-0.07-0.756-0.07-1.442c-0.546,0.952-1.456,1.512-2.492,1.512c-0.896,0-1.582-0.434-1.861-1.176
		c-0.141-0.378-0.196-0.952-0.196-2.17v-2.31c0-0.728-0.056-1.022-0.21-1.148c-0.084-0.084-0.21-0.112-0.477-0.126
		c-0.182,0-0.182,0-0.252,0v-0.308l2.17-0.14c-0.069,1.302-0.084,1.638-0.084,2.604v1.218c0,1.414,0.028,1.792,0.196,2.282
		c0.168,0.518,0.561,0.784,1.134,0.784c0.771,0,1.456-0.504,1.82-1.358c0.21-0.476,0.252-0.784,0.252-1.652v-2.156
		c0-0.742-0.042-1.008-0.21-1.134c-0.084-0.084-0.224-0.126-0.476-0.14h-0.252v-0.308l2.17-0.14c-0.042,1.05-0.07,1.974-0.07,2.604
		v2.646c0,1.4,0.126,1.652,0.854,1.652h0.099v0.308L35.161,18.41z"/>
	<path d="M40.341,11.088c-0.042,0.812-0.084,2.03-0.084,2.618v2.856c0,1.302,0.07,1.414,1.008,1.442v0.308h-3.192v-0.308
		c0.967-0.028,1.036-0.14,1.036-1.442v-3.738c0-0.7-0.056-1.022-0.21-1.148c-0.111-0.098-0.336-0.126-0.826-0.126v-0.308
		L40.341,11.088z M39.641,8.12c0.434,0,0.784,0.35,0.784,0.784c0,0.448-0.351,0.798-0.784,0.798c-0.448,0-0.798-0.35-0.798-0.798
		C38.843,8.47,39.192,8.12,39.641,8.12z"/>
	<path d="M44.33,16.324c0,0.826,0.042,1.19,0.183,1.386c0.14,0.196,0.364,0.294,0.686,0.294c0.309,0,0.574-0.07,0.882-0.252
		l0.126,0.364c-0.462,0.238-0.909,0.35-1.413,0.35c-0.687,0-1.204-0.238-1.442-0.686c-0.154-0.28-0.196-0.588-0.196-1.624V11.62
		h-0.882v-0.322c0.826-0.07,1.246-0.616,1.456-1.932l0.644-0.182c-0.027,0.602-0.042,1.134-0.042,2.058h1.681v0.378H44.33V16.324z"
		/>
	<path d="M48.11,11.984c0.588-0.602,1.471-0.938,2.437-0.938c2.044,0,3.388,1.442,3.388,3.64c0,2.338-1.344,3.808-3.472,3.808
		c-2.03,0-3.374-1.442-3.374-3.612C47.089,13.72,47.467,12.642,48.11,11.984z M50.505,18.158c1.372,0,2.128-1.19,2.128-3.346
		c0-2.184-0.784-3.444-2.156-3.444c-1.344,0-2.086,1.19-2.086,3.332C48.391,16.898,49.161,18.158,50.505,18.158z"/>
	<path d="M60.459,18.41c-0.042-0.336-0.07-0.756-0.07-1.442c-0.546,0.952-1.456,1.512-2.492,1.512c-0.896,0-1.582-0.434-1.861-1.176
		c-0.141-0.378-0.196-0.952-0.196-2.17v-2.31c0-0.728-0.056-1.022-0.21-1.148c-0.084-0.084-0.21-0.112-0.477-0.126
		c-0.182,0-0.182,0-0.252,0v-0.308l2.17-0.14c-0.069,1.302-0.084,1.638-0.084,2.604v1.218c0,1.414,0.028,1.792,0.196,2.282
		c0.168,0.518,0.561,0.784,1.134,0.784c0.771,0,1.456-0.504,1.82-1.358c0.21-0.476,0.252-0.784,0.252-1.652v-2.156
		c0-0.742-0.042-1.008-0.21-1.134c-0.084-0.084-0.224-0.126-0.476-0.14h-0.252v-0.308l2.17-0.14c-0.042,1.05-0.07,1.974-0.07,2.604
		v2.646c0,1.4,0.126,1.652,0.854,1.652h0.099v0.308L60.459,18.41z"/>
	<path d="M63.692,16.1h0.435c0.056,0.658,0.153,0.994,0.392,1.302c0.364,0.504,0.882,0.756,1.526,0.756
		c0.951,0,1.525-0.49,1.525-1.316c0-0.322-0.126-0.63-0.336-0.812c-0.252-0.21-0.294-0.224-1.567-0.784
		c-1.513-0.658-1.975-1.162-1.975-2.114c0-0.49,0.141-0.966,0.378-1.288c0.378-0.504,1.036-0.798,1.736-0.798
		c0.364,0,0.546,0.028,1.302,0.168c0.112,0.014,0.21,0.028,0.294,0.028c0.168,0,0.393-0.028,0.672-0.098l-0.069,2.212h-0.462
		c-0.028-1.246-0.645-1.988-1.666-1.988c-0.868,0-1.429,0.49-1.429,1.246c0,0.322,0.126,0.574,0.378,0.756
		c0.267,0.196,0.532,0.336,1.456,0.728c0.938,0.392,1.288,0.602,1.61,0.952c0.294,0.322,0.462,0.784,0.462,1.33
		c0,1.288-0.854,2.114-2.17,2.114c-0.392,0-0.574-0.028-1.4-0.168c-0.195-0.028-0.363-0.042-0.518-0.042s-0.35,0.014-0.63,0.056
		L63.692,16.1z"/>
</g>
</svg>
