<?xml version="1.0" encoding="utf-8"?>
<!-- Generator: Adobe Illustrator 12.0.0, SVG Export Plug-In . SVG Version: 6.00 Build 51448)  -->
<!DOCTYPE svg PUBLIC "-//W3C//DTD SVG 1.1//EN" "http://www.w3.org/Graphics/SVG/1.1/DTD/svg11.dtd" [
	<!ENTITY ns_svg "http://www.w3.org/2000/svg">
	<!ENTITY ns_xlink "http://www.w3.org/1999/xlink">
]>
<svg  version="1.1" id="レイヤー_1" xmlns="&ns_svg;" xmlns:xlink="&ns_xlink;" width="126.75"
	 viewBox="0 0 84.5 46.85" overflow="visible" enable-background="new 0 0 84.5 46.85" xml:space="preserve">
<g>
	<g>
		<path d="M28.945,3.129c0.518-0.434,0.98-0.98,1.47-1.715c0.287-0.434,0.462-0.791,0.462-0.945c0-0.091-0.027-0.147-0.133-0.238
			c-0.091-0.077-0.091-0.077-0.168-0.126C30.499,0.07,30.499,0.07,30.45,0.042C30.513,0.007,30.541,0,30.583,0
			c0.154,0,0.386,0.077,0.574,0.189c0.224,0.126,0.329,0.245,0.329,0.357c0,0.084-0.007,0.091-0.378,0.637
			c0.091,0.021,0.133,0.028,0.182,0.028c0.141,0,0.483-0.056,0.84-0.14c0.287-0.07,0.406-0.112,0.554-0.189
			c0.056-0.035,0.077-0.042,0.119-0.042c0.168,0,0.566,0.364,0.566,0.518c0,0.063-0.021,0.098-0.104,0.175
			c-0.119,0.105-0.154,0.161-0.336,0.497c-0.616,1.155-1.211,1.918-2.065,2.632c-0.602,0.511-1.127,0.84-1.736,1.092l-0.049-0.098
			c0.561-0.343,0.98-0.686,1.547-1.253c0.848-0.84,1.505-1.792,1.911-2.772c0.07-0.154,0.112-0.301,0.112-0.357
			c0-0.028-0.021-0.049-0.063-0.049c-0.104,0-0.546,0.112-0.889,0.224c-0.126,0.042-0.168,0.049-0.23,0.049
			c-0.147,0-0.295-0.07-0.435-0.203c-0.539,0.77-1.253,1.449-2.016,1.918L28.945,3.129z"/>
		<path d="M36.904,5.698c0.693-0.532,1.134-0.966,1.596-1.561c0.567-0.721,0.987-1.484,1.177-2.135
			c-0.68,0.049-1.31,0.147-2.037,0.322c-0.441,0.105-0.581,0.147-0.729,0.217c-0.111,0.056-0.14,0.063-0.21,0.063
			c-0.245,0-0.644-0.504-0.644-0.812c0-0.049,0.007-0.07,0.042-0.119c0.161,0.28,0.35,0.406,0.608,0.406
			c0.273,0,1.456-0.147,2.366-0.301c0.378-0.063,0.435-0.077,0.574-0.161c0.049-0.028,0.084-0.042,0.112-0.042
			c0.063,0,0.168,0.07,0.328,0.21c0.196,0.182,0.28,0.294,0.28,0.385c0,0.056-0.035,0.112-0.104,0.175
			c-0.099,0.07-0.141,0.133-0.26,0.364c-0.756,1.428-1.883,2.562-3.037,3.073L36.904,5.698z M36.813,0.28
			c0.238,0.273,0.448,0.378,0.749,0.378c0.469,0,1.315-0.182,1.582-0.336C39.2,0.294,39.235,0.28,39.291,0.28
			c0.196,0,0.546,0.245,0.546,0.385c0,0.084-0.063,0.126-0.266,0.154c-0.833,0.126-1.407,0.182-1.785,0.182
			c-0.524,0-0.734-0.133-1.07-0.658L36.813,0.28z"/>
		<path d="M42.413,3.892c0.875-0.469,1.813-1.176,2.632-1.988c0.693-0.679,1.142-1.246,1.142-1.449c0-0.133-0.112-0.245-0.393-0.399
			c0.077-0.028,0.092-0.028,0.141-0.028c0.203,0,0.378,0.063,0.602,0.21C46.774,0.399,46.9,0.56,46.9,0.693
			c0,0.063-0.007,0.077-0.28,0.308c-0.069,0.056-0.069,0.056-0.566,0.532c-0.49,0.469-0.532,0.504-0.833,0.756
			c0.272,0.203,0.392,0.308,0.427,0.392c0.028,0.07,0.042,0.399,0.049,1.029c0.007,0.49,0.021,0.938,0.035,1.337
			c0,0.154,0.007,0.357,0.007,0.399c0,0.245-0.049,0.35-0.161,0.35c-0.161,0-0.476-0.385-0.476-0.588c0-0.049,0-0.049,0.042-0.182
			c0.063-0.175,0.126-1.043,0.126-1.722c0-0.343-0.015-0.553-0.042-0.665c-0.021-0.07-0.049-0.105-0.154-0.217
			c-0.49,0.392-0.994,0.749-1.344,0.959c-0.393,0.231-0.896,0.476-1.26,0.609L42.413,3.892z"/>
		<path d="M50.4,5.677c0.518-0.427,0.959-1.043,1.267-1.764c0.231-0.532,0.42-1.218,0.42-1.526c0-0.189-0.133-0.329-0.412-0.448
			c0.042-0.049,0.091-0.07,0.16-0.07c0.092,0,0.336,0.091,0.539,0.203c0.183,0.098,0.252,0.154,0.302,0.245
			c0.321-0.196,0.951-0.693,1.253-1.001c0.16-0.154,0.217-0.231,0.217-0.28c0-0.084-0.084-0.105-0.413-0.105
			c-0.462,0-1.659,0.189-2.415,0.385c-0.266,0.07-0.511,0.154-0.714,0.245c-0.042,0.021-0.112,0.035-0.161,0.035
			c-0.154,0-0.406-0.21-0.56-0.469c-0.077-0.133-0.134-0.294-0.134-0.378c0-0.049,0.015-0.098,0.05-0.161
			c0.126,0.287,0.35,0.42,0.692,0.42c0.252,0,0.378-0.014,1.688-0.182c0.063-0.007,0.217-0.028,0.482-0.056
			c1.085-0.126,1.142-0.14,1.288-0.21c0.042-0.014,0.056-0.021,0.091-0.021c0.077,0,0.203,0.07,0.371,0.203
			c0.301,0.231,0.504,0.469,0.504,0.588c0,0.105-0.042,0.133-0.252,0.189c-0.111,0.035-0.188,0.063-0.343,0.147
			c-0.581,0.329-0.896,0.49-1.652,0.847c-0.042,0.119-0.049,0.133-0.104,0.315c-0.315,0.959-0.588,1.505-1.008,2.002
			c-0.344,0.399-0.693,0.707-1.085,0.938L50.4,5.677z"/>
		<path d="M56.994,0.868c0.672,0.168,1.078,0.329,1.352,0.525c0.161,0.112,0.237,0.266,0.237,0.476c0,0.231-0.076,0.392-0.195,0.392
			c-0.077,0-0.112-0.035-0.302-0.28c-0.343-0.455-0.595-0.686-1.141-1.029L56.994,0.868z M61.971,1.267
			C61.621,1.925,61.194,2.478,60.5,3.15c-0.644,0.623-1.077,0.973-1.967,1.596c-0.329,0.231-0.364,0.259-0.413,0.322
			c-0.111,0.133-0.153,0.168-0.245,0.168c-0.286,0-0.818-0.672-0.818-1.029c0-0.042,0.007-0.07,0.035-0.14
			c0.14,0.21,0.153,0.224,0.252,0.308c0.104,0.098,0.202,0.147,0.279,0.147c0.119,0,0.336-0.091,0.68-0.294
			c0.783-0.455,1.057-0.651,1.673-1.155c0.86-0.7,1.281-1.127,1.883-1.869L61.971,1.267z"/>
		<path d="M65.1,0.014c0.146,0,0.301,0.035,0.518,0.119c0.294,0.112,0.462,0.252,0.462,0.385c0,0.049,0,0.049-0.042,0.154
			c-0.084,0.189-0.126,0.714-0.126,1.526c0.525,0.049,1.218,0.217,1.631,0.392c0.315,0.147,0.435,0.287,0.435,0.539
			c0,0.203-0.063,0.322-0.168,0.322c-0.07,0-0.077,0-0.259-0.168c-0.463-0.427-1.001-0.721-1.646-0.91
			c0.007,0.441,0.007,0.658,0.007,0.868c0,0.182,0,0.266,0,0.42c0,0.315,0,0.42,0,0.602c0,0.21,0,0.21,0.015,0.798
			c0.007,0.147,0.007,0.266,0.007,0.371c0,0.133-0.007,0.196-0.035,0.238c-0.021,0.035-0.077,0.063-0.126,0.063
			c-0.168,0-0.448-0.378-0.448-0.609c0-0.07,0.007-0.112,0.035-0.196c0.105-0.336,0.147-1.246,0.147-3.031
			c0-0.504-0.021-1.015-0.05-1.204c-0.042-0.315-0.195-0.49-0.531-0.623C65.009,0.021,65.037,0.014,65.1,0.014z"/>
		<path d="M6.622,18.417c1.513-0.448,2.479-1.022,3.276-1.946c0.826-0.938,1.246-2.086,1.246-3.374c0-1.358-0.546-2.436-1.582-3.094
			C8.946,9.597,8.022,9.359,7.14,9.359c-0.168,0-0.267,0-0.49,0.028c0.336,0.49,0.434,0.756,0.434,1.162
			c0,1.092-0.783,3.136-1.848,4.844c-0.882,1.4-1.568,2.086-2.086,2.086c-0.238,0-0.462-0.112-0.616-0.294
			c-0.126-0.168-0.154-0.224-0.392-0.896c-0.126-0.364-0.21-0.532-0.616-1.316c-0.224-0.448-0.322-0.826-0.322-1.274
			c0-0.882,0.477-1.918,1.261-2.772c1.134-1.204,2.981-1.96,4.815-1.96c1.414,0,2.716,0.462,3.612,1.288
			c0.896,0.826,1.344,1.932,1.344,3.29c0,1.75-1.022,3.304-2.786,4.242c-0.812,0.434-1.54,0.658-2.729,0.868L6.622,18.417z
			 M2.016,14.063c0,0.672,0.21,1.358,0.56,1.848c0.196,0.252,0.378,0.406,0.532,0.406c0.308,0,0.979-0.756,1.666-1.848
			c1.036-1.652,1.778-3.458,1.778-4.326c0-0.21-0.042-0.35-0.196-0.7C3.919,9.877,2.016,11.907,2.016,14.063z"/>
		<path d="M15.75,17.759c-0.014,0.168-0.084,0.21-0.462,0.224c-0.111,0-0.182,0.014-0.224,0.014c-0.014,0-0.028,0-0.042,0
			c-0.126,0-0.182-0.056-0.196-0.182c0.028-1.778,0.057-3.514,0.057-6.51c0-1.582-0.015-2.254-0.07-3.612
			c0.434,0.266,0.574,0.35,0.994,0.672h1.75c0.224-0.266,0.294-0.35,0.531-0.616c0.322,0.266,0.421,0.35,0.742,0.616
			c0.112,0.084,0.168,0.14,0.168,0.196c0,0.098-0.168,0.224-0.489,0.378v2.674c0,1.33,0,3.206,0.027,5.614
			c-0.014,0.098-0.042,0.14-0.111,0.168c-0.057,0.028-0.463,0.07-0.603,0.07c-0.112,0-0.168-0.042-0.182-0.168v-0.784H15.75V17.759z
			 M17.64,8.688H15.75v3.444h1.891V8.688z M15.75,12.453v3.738h1.891v-3.738H15.75z M25.003,13.854h0.336
			c0.322-0.392,0.435-0.504,0.757-0.882c0.462,0.42,0.602,0.546,1.021,0.966c0.07,0.056,0.099,0.098,0.099,0.14
			c0,0.056-0.085,0.098-0.169,0.098h-2.044v2.184c0,0.168,0.015,1.33,0.028,1.82c-0.028,0.644-0.042,0.756-0.182,0.938
			c-0.196,0.252-0.504,0.378-1.345,0.546c-0.056-0.378-0.153-0.56-0.392-0.728c-0.224-0.154-0.504-0.224-1.47-0.35v-0.21
			c1.008,0.07,1.344,0.084,2.254,0.112c0.154,0,0.196-0.042,0.196-0.21v-4.102H20.37c-0.77,0-0.882,0.014-1.33,0.112l-0.126-0.574
			c0.504,0.112,0.798,0.14,1.484,0.14h3.696v-1.89h-3.948c-0.729,0-0.91,0.014-1.302,0.112l-0.099-0.532
			c0.435,0.084,0.588,0.098,1.4,0.098h1.82v-2.24H20.23c-0.532,0-0.756,0.028-1.05,0.112l-0.112-0.56
			c0.406,0.098,0.7,0.126,1.162,0.126h1.736V8.043c0-0.238-0.015-0.462-0.07-1.078c1.344,0.14,1.609,0.196,1.609,0.336
			c0,0.112-0.153,0.196-0.615,0.308v1.47h1.651l0.756-0.938c0.49,0.434,0.645,0.574,1.12,1.036c0.07,0.056,0.099,0.098,0.099,0.126
			c0,0.056-0.084,0.098-0.168,0.098H22.89v2.24h2.296l0.742-0.91c0.531,0.448,0.699,0.588,1.231,1.022
			c0.057,0.056,0.084,0.084,0.084,0.112c0,0.056-0.07,0.098-0.154,0.098h-2.086V13.854z M20.076,14.763
			c0.546,0.21,1.05,0.504,1.666,0.938c0.406,0.294,0.588,0.546,0.588,0.826c0,0.448-0.224,0.924-0.42,0.924
			c-0.111,0-0.196-0.098-0.322-0.35c-0.35-0.77-0.84-1.428-1.638-2.212L20.076,14.763z"/>
		<path d="M33.432,11.375c-0.028,1.736-0.126,2.94-0.309,3.962c-0.168,0.98-0.462,2.044-0.812,2.926
			c-0.154,0.406-0.294,0.686-0.63,1.274l-0.21-0.084c0.489-1.232,0.728-2.296,0.91-4.06c0.14-1.33,0.182-2.52,0.182-5.656
			c0-0.406,0-0.588-0.028-1.078c0.477,0.266,0.63,0.35,1.12,0.644h3.304c0.21-0.252,0.28-0.322,0.504-0.546
			c0.351,0.238,0.448,0.322,0.729,0.546c0.07,0.07,0.098,0.126,0.098,0.168c0,0.098-0.098,0.182-0.378,0.322v0.602
			c0,0.126,0,0.224,0,0.252c0,0.182,0,0.406,0.015,0.854c-0.028,0.182-0.141,0.21-0.673,0.21c-0.14,0-0.182-0.028-0.195-0.14v-0.196
			H33.432z M31.948,7.708c0.477,0.098,0.756,0.14,1.036,0.14h3.668c0.294-0.378,0.378-0.49,0.686-0.826
			c0.477,0.378,0.616,0.504,1.078,0.938c0.028,0.028,0.057,0.084,0.057,0.098c0,0.042-0.057,0.112-0.084,0.112h-5.404
			c-0.294,0-0.686,0.042-0.966,0.098L31.948,7.708z M37.085,18.445c0.225-0.28,0.294-0.364,0.532-0.63
			c0.336,0.322,0.448,0.42,0.756,0.756c0.028,0.042,0.042,0.07,0.042,0.098c0,0.042-0.069,0.098-0.14,0.098h-3.682v0.686
			c-0.028,0.168-0.099,0.196-0.435,0.196c-0.056,0-0.111,0-0.14,0c-0.014,0-0.028,0-0.042,0c-0.126,0-0.183-0.042-0.183-0.168
			c0.042-1.694,0.07-2.674,0.07-2.94v-2.072c-0.168,0.21-0.252,0.308-0.546,0.616l-0.126-0.154c0.588-0.896,1.092-2.016,1.4-3.164
			c0.951,0.308,1.12,0.378,1.12,0.49c0,0.098-0.057,0.126-0.519,0.21c-0.28,0.448-0.336,0.546-0.574,0.924H35.7
			c0.351-0.56,0.504-0.91,0.687-1.554c0.924,0.308,1.05,0.364,1.05,0.476c0,0.098-0.154,0.154-0.504,0.182
			c-0.658,0.616-0.742,0.7-0.994,0.896h1.12c0.21-0.28,0.279-0.364,0.504-0.616c0.378,0.308,0.476,0.406,0.798,0.728
			c0.028,0.056,0.056,0.098,0.056,0.126c0,0.056-0.056,0.084-0.14,0.084h-1.708v1.218h0.476c0.225-0.294,0.294-0.378,0.532-0.644
			c0.322,0.35,0.435,0.448,0.742,0.784c0.028,0.042,0.042,0.07,0.042,0.098c0,0.042-0.07,0.084-0.168,0.084h-1.624v1.344h0.476
			c0.238-0.252,0.309-0.322,0.519-0.588c0.336,0.308,0.434,0.406,0.742,0.728c0.042,0.042,0.056,0.084,0.056,0.112
			c0,0.042-0.056,0.07-0.154,0.07h-1.638v1.526H37.085z M37.058,9.625h-3.612c0,0.798,0,1.036,0,1.428h3.612V9.625z M35.812,14.931
			v-1.218h-1.218v1.218H35.812z M35.812,16.597v-1.344h-1.218v1.344H35.812z M35.812,16.919h-1.218v1.526h1.218V16.919z
			 M37.058,19.649c0.84-0.434,1.428-0.84,2.113-1.47c0.267-0.252,0.309-0.294,0.868-0.952c0.238,0.098,0.435,0.168,0.561,0.224
			c0.56,0.21,0.686,0.28,0.686,0.364c0,0.112-0.126,0.14-0.616,0.154c-1.764,1.232-2.071,1.4-3.514,1.862L37.058,19.649z
			 M42.014,8.169c-0.561,1.106-0.588,1.176-1.036,1.834h1.861c0.238-0.28,0.309-0.364,0.561-0.63c0.35,0.28,0.462,0.364,0.784,0.63
			c0.111,0.07,0.153,0.14,0.153,0.196c0,0.084,0,0.084-0.434,0.322c0,0.462,0,0.742,0,1.036c0,0.28,0.028,4.158,0.042,5.208
			c-0.028,0.196-0.112,0.224-0.616,0.224c-0.237,0-0.279-0.028-0.308-0.154v-0.35h-3.234v0.434
			c-0.042,0.126-0.126,0.154-0.489,0.154c-0.085,0-0.141,0.014-0.183,0.014c-0.014,0-0.028,0-0.028,0
			c-0.14,0-0.195-0.042-0.21-0.182l0.015-1.162l0.014-2.352c0-2.982,0-3.248-0.042-3.948c0.42,0.238,0.546,0.308,0.924,0.56h0.84
			c0.028-0.21,0.042-0.308,0.07-0.434c0.182-0.91,0.182-0.91,0.224-1.4H39.55c-0.252,0-0.561,0.042-0.813,0.098l-0.084-0.56
			c0.28,0.098,0.588,0.14,0.896,0.14h3.205c0.295-0.42,0.393-0.532,0.729-0.896c0.56,0.406,0.728,0.532,1.274,0.994
			c0.042,0.056,0.069,0.084,0.069,0.112c0,0.056-0.069,0.112-0.154,0.112H42.014z M43.022,10.325h-3.234v1.596h3.234V10.325z
			 M39.788,12.243v1.736h3.234v-1.736H39.788z M39.788,14.301v1.862h3.234v-1.862H39.788z M41.818,17.101
			c1.19,0.462,2.016,0.84,2.422,1.134c0.21,0.168,0.378,0.462,0.378,0.686c0,0.42-0.154,0.812-0.308,0.812
			c-0.112,0-0.141-0.042-0.435-0.448c-0.084-0.112-0.741-0.84-0.909-1.008c-0.084-0.084-0.49-0.42-1.232-1.022L41.818,17.101z"/>
		<path d="M61.068,10.619c0.224-0.28,0.294-0.364,0.532-0.63c0.447,0.35,0.588,0.462,1.021,0.854
			c0.126,0.098,0.183,0.168,0.183,0.238c0,0.098-0.168,0.14-0.841,0.168c-0.714,0.868-1.203,1.33-2.086,1.988
			c0.742,0.378,1.372,0.616,2.198,0.854c1.232,0.35,2.156,0.49,3.5,0.56v0.21c-0.574,0.112-0.728,0.252-1.078,0.952
			c-0.882-0.21-1.26-0.336-2.226-0.686c0.308,0.308,0.322,0.308,0.588,0.56c0.084,0.098,0.126,0.154,0.126,0.21
			c0,0.014-0.028,0.056-0.042,0.07c-0.028,0.014-0.084,0.056-0.154,0.084c-0.027,0.014-0.084,0.042-0.14,0.07
			c0,0.644,0,0.644,0.014,1.834c0.015,0.77,0.015,0.77,0.028,1.498c0,0.028,0.014,0.07,0.014,0.084c0,0.098-0.042,0.154-0.14,0.182
			c-0.14,0.042-0.378,0.07-0.574,0.07c-0.21,0-0.252-0.042-0.252-0.238c0,0,0-0.014,0-0.028v-0.56h-5.278v0.49
			c0,0.238-0.126,0.308-0.56,0.308c-0.308,0-0.406-0.056-0.406-0.238v-0.028c0.015-0.49,0.015-0.49,0.015-1.204
			c0.014-0.378,0.014-0.378,0.027-1.274v-1.484c-1.036,0.378-1.567,0.546-2.618,0.742l-0.084-0.196
			c2.129-0.714,4.173-1.722,5.811-2.87c-0.588-0.476-1.274-1.134-1.694-1.652c-0.336,0.35-0.714,0.686-1.147,1.036
			c-0.98,0.784-1.624,1.176-2.479,1.498l-0.098-0.154c1.315-1.008,1.932-1.54,2.618-2.324c0.783-0.854,1.231-1.526,1.512-2.226
			c1.372,0.28,1.484,0.308,1.484,0.434c0,0.14-0.196,0.224-0.729,0.308c-0.168,0.238-0.238,0.336-0.35,0.49H61.068z M58.66,8.841
			V7.875c0-0.322-0.014-0.518-0.042-0.924c1.134,0.112,1.316,0.14,1.456,0.182c0.112,0.042,0.182,0.098,0.182,0.182
			c0,0.154-0.182,0.252-0.602,0.336v1.19h3.92c0.28-0.322,0.364-0.434,0.645-0.77l1.273,0.924c0.084,0.07,0.126,0.126,0.126,0.182
			c0,0.042-0.07,0.098-0.126,0.112c0,0-0.28,0.056-0.84,0.14c-0.868,0.994-0.91,1.036-1.358,1.372l-0.14-0.084
			c0.266-0.672,0.336-0.91,0.49-1.554h-8.918c-0.084,0.7-0.21,1.19-0.42,1.568c-0.183,0.322-0.616,0.658-0.854,0.658
			c-0.084,0-0.237-0.112-0.308-0.238c-0.07-0.098-0.112-0.364-0.112-0.588c0-0.182,0-0.196,0.336-0.42
			c0.196-0.14,0.504-0.504,0.658-0.784c0.266-0.504,0.392-0.882,0.476-1.484h0.252c0.015,0.224,0.028,0.378,0.028,0.504
			s-0.014,0.252-0.028,0.462H58.66z M61.627,15.575c0.238-0.21,0.238-0.21,0.561-0.476c-1.358-0.518-2.059-0.868-2.926-1.442
			c-0.938,0.616-1.849,1.078-3.108,1.624c0.126,0.098,0.168,0.14,0.308,0.294H61.627z M56.461,18.641h5.278v-2.744h-5.278V18.641z
			 M57.498,10.941c-0.14,0.168-0.182,0.224-0.321,0.378c0.35,0.448,1.063,0.994,1.96,1.512c0.756-0.602,1.203-1.05,1.861-1.89
			H57.498z"/>
		<path d="M74.2,13.545c-0.252,0.882-0.644,2.408-0.812,3.094c-0.141,0.616-0.183,0.84-0.183,1.19
			c-0.014,0.448-0.027,0.504-0.098,0.616c-0.07,0.098-0.154,0.154-0.266,0.154c-0.238,0-0.435-0.196-0.603-0.63
			c-0.28-0.714-0.448-1.778-0.448-2.814c0-1.288,0.154-2.464,0.63-4.662c0.183-0.868,0.211-1.022,0.211-1.26
			c0-0.42-0.112-0.756-0.406-1.232c0.322,0.014,0.588,0.196,0.979,0.7c0.322,0.406,0.504,0.798,0.504,1.064
			c0,0.154,0,0.154-0.224,0.616c-0.672,1.4-1.064,3.066-1.064,4.564c0,0.714,0.057,1.162,0.225,1.736l0.588-1.4l0.756-1.806
			L74.2,13.545z M75.6,11.011c0.672,0.434,1.105,0.574,1.806,0.574c0.49,0,1.022-0.07,1.596-0.196c0-0.266,0-0.49,0-0.616
			c0-1.568-0.014-1.75-0.195-1.946c-0.168-0.182-0.477-0.28-0.924-0.322c0.195-0.182,0.308-0.224,0.672-0.224
			c0.308,0,0.686,0.056,0.951,0.126c0.406,0.126,0.616,0.294,0.616,0.504c0,0.098,0,0.112-0.126,0.434
			c-0.153,0.406-0.237,0.91-0.294,1.876c0.645-0.182,1.05-0.364,1.288-0.574c0.14-0.14,0.182-0.154,0.308-0.154
			c0.169,0,0.49,0.084,0.658,0.182c0.112,0.056,0.183,0.154,0.183,0.252c0,0.308-1.022,0.728-2.479,1.008
			c0,1.862,0.042,2.632,0.183,3.808c1.624,0.434,2.31,0.98,2.31,1.792c0,0.294-0.126,0.518-0.28,0.518
			c-0.111,0-0.21-0.07-0.489-0.35c-0.616-0.63-0.967-0.882-1.513-1.12c0.015,0.126,0.015,0.238,0.015,0.336
			c0,1.008-0.841,1.61-2.24,1.61c-1.218,0-2.072-0.588-2.072-1.428c0-0.966,1.036-1.582,2.632-1.582
			c0.267,0,0.462,0.014,0.854,0.042c0-0.126,0-0.21,0-0.238l-0.028-1.498l-0.014-1.792c-0.42,0.084-0.826,0.112-1.232,0.112
			c-1.021,0-1.609-0.252-2.31-0.98L75.6,11.011z M77.742,16.121c-1.105,0-1.792,0.364-1.792,0.98c0,0.49,0.546,0.826,1.372,0.826
			c0.771,0,1.316-0.224,1.54-0.658c0.14-0.252,0.182-0.462,0.182-0.98C78.652,16.177,78.26,16.121,77.742,16.121z"/>
	</g>
</g>
<g>
	<path d="M29.445,29.379c0.518-0.434,0.98-0.98,1.47-1.715c0.287-0.434,0.462-0.791,0.462-0.945c0-0.091-0.027-0.147-0.133-0.238
		c-0.091-0.077-0.091-0.077-0.168-0.126c-0.077-0.035-0.077-0.035-0.126-0.063c0.063-0.035,0.091-0.042,0.133-0.042
		c0.154,0,0.386,0.077,0.574,0.189c0.224,0.126,0.329,0.245,0.329,0.357c0,0.084-0.007,0.091-0.378,0.637
		c0.091,0.021,0.133,0.028,0.182,0.028c0.141,0,0.483-0.056,0.84-0.14c0.287-0.07,0.406-0.112,0.554-0.189
		c0.056-0.035,0.077-0.042,0.119-0.042c0.168,0,0.566,0.364,0.566,0.518c0,0.063-0.021,0.098-0.104,0.175
		c-0.119,0.105-0.154,0.161-0.336,0.497c-0.616,1.155-1.211,1.918-2.065,2.632c-0.602,0.511-1.127,0.84-1.736,1.092l-0.049-0.098
		c0.561-0.343,0.98-0.686,1.547-1.253c0.848-0.84,1.505-1.792,1.911-2.772c0.07-0.154,0.112-0.301,0.112-0.357
		c0-0.028-0.021-0.049-0.063-0.049c-0.104,0-0.546,0.112-0.889,0.224c-0.126,0.042-0.168,0.049-0.23,0.049
		c-0.147,0-0.295-0.07-0.435-0.203c-0.539,0.77-1.253,1.449-2.016,1.918L29.445,29.379z"/>
	<path d="M37.404,31.948c0.693-0.532,1.134-0.966,1.596-1.561c0.567-0.721,0.987-1.484,1.177-2.135
		c-0.68,0.049-1.31,0.147-2.037,0.322c-0.441,0.105-0.581,0.147-0.729,0.217c-0.111,0.056-0.14,0.063-0.21,0.063
		c-0.245,0-0.644-0.504-0.644-0.812c0-0.049,0.007-0.07,0.042-0.119c0.161,0.28,0.35,0.406,0.608,0.406
		c0.273,0,1.456-0.147,2.366-0.301c0.378-0.063,0.435-0.077,0.574-0.161c0.049-0.028,0.084-0.042,0.112-0.042
		c0.063,0,0.168,0.07,0.328,0.21c0.196,0.182,0.28,0.294,0.28,0.385c0,0.056-0.035,0.112-0.104,0.175
		c-0.099,0.07-0.141,0.133-0.26,0.364c-0.756,1.428-1.883,2.562-3.037,3.073L37.404,31.948z M37.313,26.53
		c0.238,0.273,0.448,0.378,0.749,0.378c0.469,0,1.315-0.182,1.582-0.336c0.056-0.028,0.091-0.042,0.146-0.042
		c0.196,0,0.546,0.245,0.546,0.385c0,0.084-0.063,0.126-0.266,0.154c-0.833,0.126-1.407,0.182-1.785,0.182
		c-0.524,0-0.734-0.133-1.07-0.658L37.313,26.53z"/>
	<path d="M42.913,30.142c0.875-0.469,1.813-1.176,2.632-1.988c0.693-0.679,1.142-1.246,1.142-1.449c0-0.133-0.112-0.245-0.393-0.399
		c0.077-0.028,0.092-0.028,0.141-0.028c0.203,0,0.378,0.063,0.602,0.21c0.238,0.161,0.364,0.322,0.364,0.455
		c0,0.063-0.007,0.077-0.28,0.308c-0.069,0.056-0.069,0.056-0.566,0.532c-0.49,0.469-0.532,0.504-0.833,0.756
		c0.272,0.203,0.392,0.308,0.427,0.392c0.028,0.07,0.042,0.399,0.049,1.029c0.007,0.49,0.021,0.938,0.035,1.337
		c0,0.154,0.007,0.357,0.007,0.399c0,0.245-0.049,0.35-0.161,0.35c-0.161,0-0.476-0.385-0.476-0.588c0-0.049,0-0.049,0.042-0.182
		c0.063-0.175,0.126-1.043,0.126-1.722c0-0.343-0.015-0.553-0.042-0.665c-0.021-0.07-0.049-0.105-0.154-0.217
		c-0.49,0.392-0.994,0.749-1.344,0.959c-0.393,0.231-0.896,0.476-1.26,0.609L42.913,30.142z"/>
	<path d="M50.9,31.927c0.518-0.427,0.959-1.043,1.267-1.764c0.231-0.532,0.42-1.218,0.42-1.526c0-0.189-0.133-0.329-0.412-0.448
		c0.042-0.049,0.091-0.07,0.16-0.07c0.092,0,0.336,0.091,0.539,0.203c0.183,0.098,0.252,0.154,0.302,0.245
		c0.321-0.196,0.951-0.693,1.253-1.001c0.16-0.154,0.217-0.231,0.217-0.28c0-0.084-0.084-0.105-0.413-0.105
		c-0.462,0-1.659,0.189-2.415,0.385c-0.266,0.07-0.511,0.154-0.714,0.245c-0.042,0.021-0.112,0.035-0.161,0.035
		c-0.154,0-0.406-0.21-0.56-0.469c-0.077-0.133-0.134-0.294-0.134-0.378c0-0.049,0.015-0.098,0.05-0.161
		c0.126,0.287,0.35,0.42,0.692,0.42c0.252,0,0.378-0.014,1.688-0.182c0.063-0.007,0.217-0.028,0.482-0.056
		c1.085-0.126,1.142-0.14,1.288-0.21c0.042-0.014,0.056-0.021,0.091-0.021c0.077,0,0.203,0.07,0.371,0.203
		c0.301,0.231,0.504,0.469,0.504,0.588c0,0.105-0.042,0.133-0.252,0.189c-0.111,0.035-0.188,0.063-0.343,0.147
		c-0.581,0.329-0.896,0.49-1.652,0.847c-0.042,0.119-0.049,0.133-0.104,0.315c-0.315,0.959-0.588,1.505-1.008,2.002
		c-0.344,0.399-0.693,0.707-1.085,0.938L50.9,31.927z"/>
	<path d="M57.494,27.118c0.672,0.168,1.078,0.329,1.352,0.525c0.161,0.112,0.237,0.266,0.237,0.476c0,0.231-0.076,0.392-0.195,0.392
		c-0.077,0-0.112-0.035-0.302-0.28c-0.343-0.455-0.595-0.686-1.141-1.029L57.494,27.118z M62.471,27.517
		C62.121,28.175,61.694,28.728,61,29.4c-0.644,0.623-1.077,0.973-1.967,1.596c-0.329,0.231-0.364,0.259-0.413,0.322
		c-0.111,0.133-0.153,0.168-0.245,0.168c-0.286,0-0.818-0.672-0.818-1.029c0-0.042,0.007-0.07,0.035-0.14
		c0.14,0.21,0.153,0.224,0.252,0.308c0.104,0.098,0.202,0.147,0.279,0.147c0.119,0,0.336-0.091,0.68-0.294
		c0.783-0.455,1.057-0.651,1.673-1.155c0.86-0.7,1.281-1.127,1.883-1.869L62.471,27.517z"/>
	<path d="M65.6,26.264c0.146,0,0.301,0.035,0.518,0.119c0.294,0.112,0.462,0.252,0.462,0.385c0,0.049,0,0.049-0.042,0.154
		c-0.084,0.189-0.126,0.714-0.126,1.526c0.525,0.049,1.218,0.217,1.631,0.392c0.315,0.147,0.435,0.287,0.435,0.539
		c0,0.203-0.063,0.322-0.168,0.322c-0.07,0-0.077,0-0.259-0.168c-0.463-0.427-1.001-0.721-1.646-0.91
		c0.007,0.441,0.007,0.658,0.007,0.868c0,0.182,0,0.266,0,0.42c0,0.315,0,0.42,0,0.602c0,0.21,0,0.21,0.015,0.798
		c0.007,0.147,0.007,0.266,0.007,0.371c0,0.133-0.007,0.196-0.035,0.238c-0.021,0.035-0.077,0.063-0.126,0.063
		c-0.168,0-0.448-0.378-0.448-0.609c0-0.07,0.007-0.112,0.035-0.196c0.105-0.336,0.147-1.246,0.147-3.031
		c0-0.504-0.021-1.015-0.05-1.204c-0.042-0.315-0.195-0.49-0.531-0.623C65.509,26.271,65.537,26.264,65.6,26.264z"/>
	<path d="M7.122,44.667c1.513-0.448,2.479-1.022,3.276-1.946c0.826-0.938,1.246-2.086,1.246-3.374c0-1.358-0.546-2.436-1.582-3.094
		c-0.616-0.406-1.54-0.644-2.422-0.644c-0.168,0-0.267,0-0.49,0.028c0.336,0.49,0.434,0.756,0.434,1.162
		c0,1.092-0.783,3.136-1.848,4.844c-0.882,1.4-1.568,2.086-2.086,2.086c-0.238,0-0.462-0.112-0.616-0.294
		c-0.126-0.168-0.154-0.224-0.392-0.896c-0.126-0.364-0.21-0.532-0.616-1.316c-0.224-0.448-0.322-0.826-0.322-1.274
		c0-0.882,0.477-1.918,1.261-2.772c1.134-1.204,2.981-1.96,4.815-1.96c1.414,0,2.716,0.462,3.612,1.288
		c0.896,0.826,1.344,1.932,1.344,3.29c0,1.75-1.022,3.304-2.786,4.242c-0.812,0.434-1.54,0.658-2.729,0.868L7.122,44.667z
		 M2.516,40.313c0,0.672,0.21,1.358,0.56,1.848c0.196,0.252,0.378,0.406,0.532,0.406c0.308,0,0.979-0.756,1.666-1.848
		c1.036-1.652,1.778-3.458,1.778-4.326c0-0.21-0.042-0.35-0.196-0.7C4.419,36.127,2.516,38.157,2.516,40.313z"/>
	<path d="M16.25,44.009c-0.014,0.168-0.084,0.21-0.462,0.224c-0.111,0-0.182,0.014-0.224,0.014c-0.014,0-0.028,0-0.042,0
		c-0.126,0-0.182-0.056-0.196-0.182c0.028-1.778,0.057-3.514,0.057-6.51c0-1.582-0.015-2.254-0.07-3.612
		c0.434,0.266,0.574,0.35,0.994,0.672h1.75c0.224-0.266,0.294-0.35,0.531-0.616c0.322,0.266,0.421,0.35,0.742,0.616
		c0.112,0.084,0.168,0.14,0.168,0.196c0,0.098-0.168,0.224-0.489,0.378v2.674c0,1.33,0,3.206,0.027,5.614
		c-0.014,0.098-0.042,0.14-0.111,0.168c-0.057,0.028-0.463,0.07-0.603,0.07c-0.112,0-0.168-0.042-0.182-0.168v-0.784H16.25V44.009z
		 M18.14,34.938H16.25v3.444h1.891V34.938z M16.25,38.703v3.738h1.891v-3.738H16.25z M25.503,40.104h0.336
		c0.322-0.392,0.435-0.504,0.757-0.882c0.462,0.42,0.602,0.546,1.021,0.966c0.07,0.056,0.099,0.098,0.099,0.14
		c0,0.056-0.085,0.098-0.169,0.098h-2.044v2.184c0,0.168,0.015,1.33,0.028,1.82c-0.028,0.644-0.042,0.756-0.182,0.938
		c-0.196,0.252-0.504,0.378-1.345,0.546c-0.056-0.378-0.153-0.56-0.392-0.728c-0.224-0.154-0.504-0.224-1.47-0.35v-0.21
		c1.008,0.07,1.344,0.084,2.254,0.112c0.154,0,0.196-0.042,0.196-0.21v-4.102H20.87c-0.77,0-0.882,0.014-1.33,0.112l-0.126-0.574
		c0.504,0.112,0.798,0.14,1.484,0.14h3.696v-1.89h-3.948c-0.729,0-0.91,0.014-1.302,0.112l-0.099-0.532
		c0.435,0.084,0.588,0.098,1.4,0.098h1.82v-2.24H20.73c-0.532,0-0.756,0.028-1.05,0.112l-0.112-0.56
		c0.406,0.098,0.7,0.126,1.162,0.126h1.736v-1.036c0-0.238-0.015-0.462-0.07-1.078c1.344,0.14,1.609,0.196,1.609,0.336
		c0,0.112-0.153,0.196-0.615,0.308v1.47h1.651l0.756-0.938c0.49,0.434,0.645,0.574,1.12,1.036c0.07,0.056,0.099,0.098,0.099,0.126
		c0,0.056-0.084,0.098-0.168,0.098H23.39v2.24h2.296l0.742-0.91c0.531,0.448,0.699,0.588,1.231,1.022
		c0.057,0.056,0.084,0.084,0.084,0.112c0,0.056-0.07,0.098-0.154,0.098h-2.086V40.104z M20.576,41.013
		c0.546,0.21,1.05,0.504,1.666,0.938c0.406,0.294,0.588,0.546,0.588,0.826c0,0.448-0.224,0.924-0.42,0.924
		c-0.111,0-0.196-0.098-0.322-0.35c-0.35-0.77-0.84-1.428-1.638-2.212L20.576,41.013z"/>
	<path d="M33.932,37.625c-0.028,1.736-0.126,2.94-0.309,3.962c-0.168,0.98-0.462,2.044-0.812,2.926
		c-0.154,0.406-0.294,0.686-0.63,1.274l-0.21-0.084c0.489-1.232,0.728-2.296,0.91-4.06c0.14-1.33,0.182-2.52,0.182-5.656
		c0-0.406,0-0.588-0.028-1.078c0.477,0.266,0.63,0.35,1.12,0.644h3.304c0.21-0.252,0.28-0.322,0.504-0.546
		c0.351,0.238,0.448,0.322,0.729,0.546c0.07,0.07,0.098,0.126,0.098,0.168c0,0.098-0.098,0.182-0.378,0.322v0.602
		c0,0.126,0,0.224,0,0.252c0,0.182,0,0.406,0.015,0.854c-0.028,0.182-0.141,0.21-0.673,0.21c-0.14,0-0.182-0.028-0.195-0.14v-0.196
		H33.932z M32.448,33.958c0.477,0.098,0.756,0.14,1.036,0.14h3.668c0.294-0.378,0.378-0.49,0.686-0.826
		c0.477,0.378,0.616,0.504,1.078,0.938c0.028,0.028,0.057,0.084,0.057,0.098c0,0.042-0.057,0.112-0.084,0.112h-5.404
		c-0.294,0-0.686,0.042-0.966,0.098L32.448,33.958z M37.585,44.695c0.225-0.28,0.294-0.364,0.532-0.63
		c0.336,0.322,0.448,0.42,0.756,0.756c0.028,0.042,0.042,0.07,0.042,0.098c0,0.042-0.069,0.098-0.14,0.098h-3.682v0.686
		c-0.028,0.168-0.099,0.196-0.435,0.196c-0.056,0-0.111,0-0.14,0c-0.014,0-0.028,0-0.042,0c-0.126,0-0.183-0.042-0.183-0.168
		c0.042-1.694,0.07-2.674,0.07-2.94v-2.072c-0.168,0.21-0.252,0.308-0.546,0.616l-0.126-0.154c0.588-0.896,1.092-2.016,1.4-3.164
		c0.951,0.308,1.12,0.378,1.12,0.49c0,0.098-0.057,0.126-0.519,0.21c-0.28,0.448-0.336,0.546-0.574,0.924H36.2
		c0.351-0.56,0.504-0.91,0.687-1.554c0.924,0.308,1.05,0.364,1.05,0.476c0,0.098-0.154,0.154-0.504,0.182
		c-0.658,0.616-0.742,0.7-0.994,0.896h1.12c0.21-0.28,0.279-0.364,0.504-0.616c0.378,0.308,0.476,0.406,0.798,0.728
		c0.028,0.056,0.056,0.098,0.056,0.126c0,0.056-0.056,0.084-0.14,0.084h-1.708v1.218h0.476c0.225-0.294,0.294-0.378,0.532-0.644
		c0.322,0.35,0.435,0.448,0.742,0.784c0.028,0.042,0.042,0.07,0.042,0.098c0,0.042-0.07,0.084-0.168,0.084h-1.624v1.344h0.476
		c0.238-0.252,0.309-0.322,0.519-0.588c0.336,0.308,0.434,0.406,0.742,0.728c0.042,0.042,0.056,0.084,0.056,0.112
		c0,0.042-0.056,0.07-0.154,0.07h-1.638v1.526H37.585z M37.558,35.875h-3.612c0,0.798,0,1.036,0,1.428h3.612V35.875z M36.312,41.181
		v-1.218h-1.218v1.218H36.312z M36.312,42.847v-1.344h-1.218v1.344H36.312z M36.312,43.169h-1.218v1.526h1.218V43.169z
		 M37.558,45.899c0.84-0.434,1.428-0.84,2.113-1.47c0.267-0.252,0.309-0.294,0.868-0.952c0.238,0.098,0.435,0.168,0.561,0.224
		c0.56,0.21,0.686,0.28,0.686,0.364c0,0.112-0.126,0.14-0.616,0.154c-1.764,1.232-2.071,1.4-3.514,1.862L37.558,45.899z
		 M42.514,34.419c-0.561,1.106-0.588,1.176-1.036,1.834h1.861c0.238-0.28,0.309-0.364,0.561-0.63c0.35,0.28,0.462,0.364,0.784,0.63
		c0.111,0.07,0.153,0.14,0.153,0.196c0,0.084,0,0.084-0.434,0.322c0,0.462,0,0.742,0,1.036c0,0.28,0.028,4.158,0.042,5.208
		c-0.028,0.196-0.112,0.224-0.616,0.224c-0.237,0-0.279-0.028-0.308-0.154v-0.35h-3.234v0.434c-0.042,0.126-0.126,0.154-0.489,0.154
		c-0.085,0-0.141,0.014-0.183,0.014c-0.014,0-0.028,0-0.028,0c-0.14,0-0.195-0.042-0.21-0.182l0.015-1.162l0.014-2.352
		c0-2.982,0-3.248-0.042-3.948c0.42,0.238,0.546,0.308,0.924,0.56h0.84c0.028-0.21,0.042-0.308,0.07-0.434
		c0.182-0.91,0.182-0.91,0.224-1.4H40.05c-0.252,0-0.561,0.042-0.813,0.098l-0.084-0.56c0.28,0.098,0.588,0.14,0.896,0.14h3.205
		c0.295-0.42,0.393-0.532,0.729-0.896c0.56,0.406,0.728,0.532,1.274,0.994c0.042,0.056,0.069,0.084,0.069,0.112
		c0,0.056-0.069,0.112-0.154,0.112H42.514z M43.522,36.575h-3.234v1.596h3.234V36.575z M40.288,38.493v1.736h3.234v-1.736H40.288z
		 M40.288,40.551v1.862h3.234v-1.862H40.288z M42.318,43.351c1.19,0.462,2.016,0.84,2.422,1.134c0.21,0.168,0.378,0.462,0.378,0.686
		c0,0.42-0.154,0.812-0.308,0.812c-0.112,0-0.141-0.042-0.435-0.448c-0.084-0.112-0.741-0.84-0.909-1.008
		c-0.084-0.084-0.49-0.42-1.232-1.022L42.318,43.351z"/>
	<path d="M61.568,36.869c0.224-0.28,0.294-0.364,0.532-0.63c0.447,0.35,0.588,0.462,1.021,0.854
		c0.126,0.098,0.183,0.168,0.183,0.238c0,0.098-0.168,0.14-0.841,0.168c-0.714,0.868-1.203,1.33-2.086,1.988
		c0.742,0.378,1.372,0.616,2.198,0.854c1.232,0.35,2.156,0.49,3.5,0.56v0.21c-0.574,0.112-0.728,0.252-1.078,0.952
		c-0.882-0.21-1.26-0.336-2.226-0.686c0.308,0.308,0.322,0.308,0.588,0.56c0.084,0.098,0.126,0.154,0.126,0.21
		c0,0.014-0.028,0.056-0.042,0.07c-0.028,0.014-0.084,0.056-0.154,0.084c-0.027,0.014-0.084,0.042-0.14,0.07
		c0,0.644,0,0.644,0.014,1.834c0.015,0.77,0.015,0.77,0.028,1.498c0,0.028,0.014,0.07,0.014,0.084c0,0.098-0.042,0.154-0.14,0.182
		c-0.14,0.042-0.378,0.07-0.574,0.07c-0.21,0-0.252-0.042-0.252-0.238c0,0,0-0.014,0-0.028v-0.56h-5.278v0.49
		c0,0.238-0.126,0.308-0.56,0.308c-0.308,0-0.406-0.056-0.406-0.238v-0.028c0.015-0.49,0.015-0.49,0.015-1.204
		c0.014-0.378,0.014-0.378,0.027-1.274v-1.484c-1.036,0.378-1.567,0.546-2.618,0.742l-0.084-0.196
		c2.129-0.714,4.173-1.722,5.811-2.87c-0.588-0.476-1.274-1.134-1.694-1.652c-0.336,0.35-0.714,0.686-1.147,1.036
		c-0.98,0.784-1.624,1.176-2.479,1.498l-0.098-0.154c1.315-1.008,1.932-1.54,2.618-2.324c0.783-0.854,1.231-1.526,1.512-2.226
		c1.372,0.28,1.484,0.308,1.484,0.434c0,0.14-0.196,0.224-0.729,0.308c-0.168,0.238-0.238,0.336-0.35,0.49H61.568z M59.16,35.091
		v-0.966c0-0.322-0.014-0.518-0.042-0.924c1.134,0.112,1.316,0.14,1.456,0.182c0.112,0.042,0.182,0.098,0.182,0.182
		c0,0.154-0.182,0.252-0.602,0.336v1.19h3.92c0.28-0.322,0.364-0.434,0.645-0.77l1.273,0.924c0.084,0.07,0.126,0.126,0.126,0.182
		c0,0.042-0.07,0.098-0.126,0.112c0,0-0.28,0.056-0.84,0.14c-0.868,0.994-0.91,1.036-1.358,1.372l-0.14-0.084
		c0.266-0.672,0.336-0.91,0.49-1.554h-8.918c-0.084,0.7-0.21,1.19-0.42,1.568c-0.183,0.322-0.616,0.658-0.854,0.658
		c-0.084,0-0.237-0.112-0.308-0.238c-0.07-0.098-0.112-0.364-0.112-0.588c0-0.182,0-0.196,0.336-0.42
		c0.196-0.14,0.504-0.504,0.658-0.784c0.266-0.504,0.392-0.882,0.476-1.484h0.252c0.015,0.224,0.028,0.378,0.028,0.504
		s-0.014,0.252-0.028,0.462H59.16z M62.127,41.825c0.238-0.21,0.238-0.21,0.561-0.476c-1.358-0.518-2.059-0.868-2.926-1.442
		c-0.938,0.616-1.849,1.078-3.108,1.624c0.126,0.098,0.168,0.14,0.308,0.294H62.127z M56.961,44.891h5.278v-2.744h-5.278V44.891z
		 M57.998,37.191c-0.14,0.168-0.182,0.224-0.321,0.378c0.35,0.448,1.063,0.994,1.96,1.512c0.756-0.602,1.203-1.05,1.861-1.89H57.998
		z"/>
	<path d="M74.7,39.795c-0.252,0.882-0.644,2.408-0.812,3.094c-0.141,0.616-0.183,0.84-0.183,1.19
		c-0.014,0.448-0.027,0.504-0.098,0.616c-0.07,0.098-0.154,0.154-0.266,0.154c-0.238,0-0.435-0.196-0.603-0.63
		c-0.28-0.714-0.448-1.778-0.448-2.814c0-1.288,0.154-2.464,0.63-4.662c0.183-0.868,0.211-1.022,0.211-1.26
		c0-0.42-0.112-0.756-0.406-1.232c0.322,0.014,0.588,0.196,0.979,0.7c0.322,0.406,0.504,0.798,0.504,1.064
		c0,0.154,0,0.154-0.224,0.616c-0.672,1.4-1.064,3.066-1.064,4.564c0,0.714,0.057,1.162,0.225,1.736l0.588-1.4l0.756-1.806
		L74.7,39.795z M76.1,37.261c0.672,0.434,1.105,0.574,1.806,0.574c0.49,0,1.022-0.07,1.596-0.196c0-0.266,0-0.49,0-0.616
		c0-1.568-0.014-1.75-0.195-1.946c-0.168-0.182-0.477-0.28-0.924-0.322c0.195-0.182,0.308-0.224,0.672-0.224
		c0.308,0,0.686,0.056,0.951,0.126c0.406,0.126,0.616,0.294,0.616,0.504c0,0.098,0,0.112-0.126,0.434
		c-0.153,0.406-0.237,0.91-0.294,1.876c0.645-0.182,1.05-0.364,1.288-0.574c0.14-0.14,0.182-0.154,0.308-0.154
		c0.169,0,0.49,0.084,0.658,0.182c0.112,0.056,0.183,0.154,0.183,0.252c0,0.308-1.022,0.728-2.479,1.008
		c0,1.862,0.042,2.632,0.183,3.808c1.624,0.434,2.31,0.98,2.31,1.792c0,0.294-0.126,0.518-0.28,0.518c-0.111,0-0.21-0.07-0.489-0.35
		c-0.616-0.63-0.967-0.882-1.513-1.12c0.015,0.126,0.015,0.238,0.015,0.336c0,1.008-0.841,1.61-2.24,1.61
		c-1.218,0-2.072-0.588-2.072-1.428c0-0.966,1.036-1.582,2.632-1.582c0.267,0,0.462,0.014,0.854,0.042c0-0.126,0-0.21,0-0.238
		l-0.028-1.498l-0.014-1.792c-0.42,0.084-0.826,0.112-1.232,0.112c-1.021,0-1.609-0.252-2.31-0.98L76.1,37.261z M78.242,42.371
		c-1.105,0-1.792,0.364-1.792,0.98c0,0.49,0.546,0.826,1.372,0.826c0.771,0,1.316-0.224,1.54-0.658
		c0.14-0.252,0.182-0.462,0.182-0.98C79.152,42.427,78.76,42.371,78.242,42.371z"/>
</g>
<rect x="0.25" y="32.6" fill="none" stroke="#008CD6" stroke-width="0.5" width="28" height="14"/>
<line fill="none" stroke="#008CD6" stroke-width="0.5" x1="14.25" y1="46.6" x2="14.25" y2="32.6"/>
<rect x="31.75" y="32.6" fill="none" stroke="#008CD6" stroke-width="0.5" width="14" height="14"/>
<rect x="52.75" y="32.6" fill="none" stroke="#008CD6" stroke-width="0.5" width="14" height="14"/>
<rect x="70.25" y="32.6" fill="none" stroke="#008CD6" stroke-width="0.5" width="14" height="14"/>
<g>
	<rect x="28.25" y="25.6" fill="none" stroke="#008CD6" stroke-width="0.5" width="42" height="7"/>
	<line fill="none" stroke="#008CD6" stroke-width="0.5" x1="35.25" y1="32.6" x2="35.25" y2="25.6"/>
	<line fill="none" stroke="#008CD6" stroke-width="0.5" x1="42.25" y1="32.6" x2="42.25" y2="25.6"/>
	<line fill="none" stroke="#008CD6" stroke-width="0.5" x1="49.25" y1="32.6" x2="49.25" y2="25.6"/>
	<line fill="none" stroke="#008CD6" stroke-width="0.5" x1="56.25" y1="32.6" x2="56.25" y2="25.6"/>
	<line fill="none" stroke="#008CD6" stroke-width="0.5" x1="63.25" y1="32.6" x2="63.25" y2="25.6"/>
</g>
</svg>
