<?xml version="1.0" encoding="utf-8"?>
<!-- Generator: Adobe Illustrator 12.0.0, SVG Export Plug-In . SVG Version: 6.00 Build 51448)  -->
<!DOCTYPE svg PUBLIC "-//W3C//DTD SVG 1.1//EN" "http://www.w3.org/Graphics/SVG/1.1/DTD/svg11.dtd" [
	<!ENTITY ns_svg "http://www.w3.org/2000/svg">
	<!ENTITY ns_xlink "http://www.w3.org/1999/xlink">
]>
<svg  version="1.1" id="レイヤー_1" xmlns="&ns_svg;" xmlns:xlink="&ns_xlink;" width="63.75"
	 viewBox="0 0 42.5 104.897" overflow="visible" enable-background="new 0 0 42.5 104.897" xml:space="preserve">
<g>
	<path d="M6.123,63.178c-0.672,0.91-1.589,1.449-2.457,1.449c-0.532,0-0.945-0.217-1.162-0.595c-0.14-0.245-0.196-0.588-0.196-1.183
		c0-0.385,0.021-1.05,0.057-1.687c0.042-0.756,0.049-0.952,0.049-1.204c0-0.602-0.07-0.721-0.567-0.931
		c0.077-0.056,0.119-0.07,0.196-0.07c0.161,0,0.413,0.063,0.63,0.161c0.266,0.126,0.406,0.266,0.406,0.413
		c0,0.049-0.007,0.091-0.063,0.252c-0.133,0.42-0.363,2.541-0.363,3.36c0,0.427,0.084,0.679,0.279,0.84
		c0.154,0.119,0.378,0.189,0.623,0.189c0.477,0,1.064-0.168,1.597-0.448c0.321-0.168,0.524-0.315,0.889-0.623L6.123,63.178z"/>
	<path d="M9.966,64.794c0.546-0.434,0.756-0.686,1.029-1.246c-0.322-0.098-0.574-0.266-0.813-0.539
		c-0.308-0.371-0.476-0.924-0.476-1.582c0-0.049,0-0.133,0.007-0.259c-0.56,0.623-0.917,1.386-0.917,1.946c0,0.049,0,0.091,0,0.126
		c0.007,0.049,0.007,0.091,0.007,0.112c0,0.112-0.077,0.196-0.175,0.196c-0.238,0-0.413-0.588-0.413-1.414
		c0-0.357,0.021-0.672,0.084-1.176c0.035-0.322,0.042-0.42,0.042-0.553c0-0.231-0.098-0.462-0.266-0.637
		c0.146,0,0.23,0.042,0.406,0.182c0.224,0.196,0.378,0.427,0.378,0.581c0,0.07-0.008,0.098-0.084,0.259
		c-0.154,0.336-0.267,0.903-0.267,1.365c0,0.126,0.007,0.203,0.035,0.371c0.413-0.819,0.651-1.162,1.183-1.673
		c0.092-0.714,0.231-1.113,0.497-1.442c0.154-0.196,0.364-0.301,0.588-0.301c0.196,0,0.421,0.098,0.561,0.245
		c0.161,0.168,0.238,0.308,0.35,0.63c0.042,0,0.084,0,0.099,0c0.392,0,0.763,0.119,1.092,0.35c0.448,0.308,0.693,0.805,0.693,1.372
		c0,1.085-0.875,1.925-2.01,1.925c-0.049,0-0.111,0-0.217-0.007c-0.427,0.651-0.777,0.98-1.351,1.253L9.966,64.794z M9.924,60.931
		c-0.007,0.168-0.014,0.266-0.014,0.343c0,0.651,0.203,1.232,0.546,1.547c0.21,0.196,0.392,0.301,0.679,0.385
		c0.189-0.609,0.28-1.288,0.28-2.1c0-0.399-0.014-0.623-0.07-0.91C10.75,60.321,10.358,60.524,9.924,60.931z M11.317,60.027
		c-0.126-0.532-0.294-0.756-0.567-0.756c-0.392,0-0.679,0.49-0.805,1.393C10.393,60.321,10.792,60.132,11.317,60.027z M11.898,61.33
		c0,0.756-0.112,1.358-0.351,1.932c0.924,0,1.582-0.693,1.582-1.659c0-0.553-0.21-1.001-0.588-1.246
		c-0.231-0.147-0.434-0.21-0.777-0.217C11.863,60.629,11.898,60.931,11.898,61.33z"/>
	<path d="M17.281,64.914c0.413-0.336,0.686-0.623,0.924-1.008c0.364-0.595,0.595-1.407,0.595-2.128c0-0.693-0.252-1.12-0.665-1.12
		c-0.371,0-0.86,0.301-1.344,0.826c-0.133,0.133-0.175,0.161-0.287,0.161c-0.146,0-0.314-0.112-0.462-0.315
		c-0.119-0.161-0.189-0.343-0.189-0.469c0-0.091,0.028-0.154,0.112-0.259c0.063,0.308,0.203,0.483,0.385,0.483
		c0.099,0,0.28-0.077,0.645-0.273c0.595-0.322,0.826-0.399,1.183-0.399c0.322,0,0.665,0.182,0.868,0.469
		c0.168,0.245,0.266,0.609,0.266,1.029c0,0.826-0.314,1.645-0.867,2.261c-0.344,0.378-0.7,0.644-1.1,0.819L17.281,64.914z
		 M16.896,58.55c0.344,0.287,0.819,0.448,1.31,0.448h0.161c0.14,0,0.237,0.049,0.378,0.168c0.098,0.084,0.146,0.168,0.146,0.238
		c0,0.098-0.098,0.154-0.287,0.154c-0.294,0.007-0.294,0.007-1.742,0.427l-0.035-0.098c0.524-0.238,1.008-0.455,1.183-0.518
		c-0.574-0.119-0.917-0.336-1.183-0.763L16.896,58.55z"/>
	<path fill="#ED6E46" d="M22.517,59.958c0.329,0.238,0.561,0.315,0.932,0.315c0.321,0,0.84-0.091,1.147-0.21
		c-0.161-0.301-0.44-0.665-0.602-0.784c-0.091-0.07-0.28-0.119-0.539-0.147c0.049-0.119,0.091-0.14,0.28-0.182
		c0.111-0.028,0.195-0.035,0.321-0.035c0.245,0,0.413,0.035,0.477,0.091c0.063,0.056,0.069,0.077,0.084,0.273
		c0.007,0.14,0.007,0.14,0.287,0.693c0.644-0.238,0.812-0.322,1.001-0.518c0.056-0.049,0.119-0.07,0.224-0.07
		c0.273,0,0.413,0.063,0.413,0.182c0,0.098-0.091,0.154-0.455,0.308c-0.112,0.049-0.455,0.168-1.029,0.35
		c0.07,0.119,0.07,0.119,0.154,0.259c0.042,0.07,0.154,0.266,0.343,0.574c0.554-0.217,0.687-0.273,0.868-0.385
		c-0.146-0.154-0.196-0.196-0.364-0.329l0.05-0.07c0.266,0.133,0.447,0.196,0.588,0.196c0,0,0,0,0.126-0.014
		c0.021-0.007,0.042-0.007,0.056-0.007c0.112,0,0.189,0.07,0.189,0.175c0,0.168-0.406,0.385-1.358,0.721
		c0.217,0.371,0.252,0.434,0.315,0.546c0.16,0.287,0.16,0.287,0.321,0.553c0.084,0.133,0.119,0.245,0.119,0.378
		c0,0.273-0.091,0.455-0.23,0.455c-0.063,0-0.084-0.014-0.196-0.105c-0.357-0.287-1.008-0.483-1.624-0.483
		c-0.322,0-0.637,0.07-0.875,0.196c-0.287,0.147-0.42,0.329-0.42,0.567c0,0.434,0.462,0.665,1.323,0.665
		c0.343,0,0.546-0.021,0.882-0.098c0.035-0.007,0.063-0.014,0.084-0.014c0.21,0,0.462,0.196,0.462,0.371
		c0,0.056-0.035,0.105-0.105,0.133c-0.133,0.056-0.56,0.105-0.959,0.105c-0.546,0-1.028-0.077-1.344-0.21
		c-0.427-0.189-0.679-0.518-0.679-0.882c0-0.63,0.742-1.05,1.848-1.05c0.413,0,0.805,0.042,1.316,0.154
		c-0.077-0.28-0.267-0.693-0.525-1.19c-0.469,0.161-1.063,0.266-1.491,0.266c-0.301,0-0.524-0.063-0.728-0.203
		c-0.141-0.098-0.217-0.196-0.336-0.42l0.084-0.063c0.224,0.301,0.455,0.413,0.826,0.413c0.405,0,0.917-0.091,1.498-0.266
		c-0.147-0.273-0.329-0.588-0.49-0.84c-0.469,0.147-0.932,0.224-1.302,0.224c-0.386,0-0.715-0.168-1.022-0.511L22.517,59.958z"/>
	<path d="M30.987,64.893c0.497-0.308,0.805-0.581,1.112-0.98c0.49-0.651,0.735-1.442,0.735-2.359c0-0.609-0.104-1.183-0.259-1.442
		c-0.126-0.203-0.294-0.308-0.497-0.308c-0.351,0-0.672,0.301-0.924,0.875c-0.203,0.455-0.329,1.029-0.329,1.505
		c0,0.119,0.007,0.196,0.027,0.434c0.008,0.042,0.008,0.098,0.008,0.147c0,0.133-0.063,0.21-0.183,0.21
		c-0.266,0-0.44-0.567-0.44-1.435c0-0.581,0.042-0.945,0.224-1.876c0.056-0.28,0.077-0.413,0.077-0.511
		c0-0.224-0.098-0.357-0.378-0.497c0.056-0.021,0.098-0.035,0.126-0.035c0.146,0,0.371,0.091,0.56,0.231
		c0.196,0.14,0.273,0.252,0.273,0.392c0,0.091-0.014,0.133-0.098,0.266c-0.267,0.441-0.505,1.435-0.505,2.086
		c0,0.063,0,0.133,0.008,0.259h0.014c0.21-0.896,0.469-1.477,0.812-1.834c0.26-0.28,0.539-0.413,0.854-0.413
		c0.672,0,1.147,0.826,1.147,1.995c0,0.91-0.252,1.666-0.763,2.289c-0.413,0.511-0.882,0.84-1.547,1.106L30.987,64.893z"/>
	<path d="M38.134,63.976c0.645-0.161,1.106-0.336,1.547-0.588c0.819-0.462,1.288-1.148,1.288-1.883c0-0.7-0.518-1.176-1.281-1.176
		c-0.818,0-1.89,0.448-2.813,1.169c-0.112,0.091-0.182,0.119-0.266,0.119c-0.329,0-0.841-0.49-0.841-0.805
		c0-0.049,0.015-0.091,0.057-0.175c0.069,0.147,0.111,0.196,0.195,0.259c0.105,0.077,0.189,0.112,0.287,0.112
		c0.183,0,0.448-0.077,0.848-0.252c1.105-0.483,1.834-0.672,2.562-0.672c1.064,0,1.792,0.623,1.792,1.54
		c0,0.868-0.588,1.617-1.609,2.051c-0.532,0.224-1.043,0.343-1.729,0.406L38.134,63.976z"/>
	<path d="M0.838,78.438c0.813-1.26,1.26-2.436,1.47-3.878c0.196-1.372,0.309-3.248,0.309-5.208c0-1.302-0.015-2.506-0.042-3.178
		c0.49,0.238,0.644,0.322,1.092,0.63h7.476c0.267-0.266,0.364-0.364,0.645-0.63c0.378,0.266,0.49,0.35,0.84,0.63
		c0.098,0.07,0.14,0.126,0.14,0.182c0,0.056-0.14,0.182-0.476,0.42v6.51c0,0.364,0,0.868,0.014,1.498
		c0.015,0.938,0.015,1.078,0.015,1.708c-0.028,0.546-0.112,0.714-0.406,0.868c-0.294,0.14-0.645,0.238-1.204,0.336
		c-0.028-0.21-0.042-0.238-0.154-0.378c-0.363-0.462-0.546-0.532-1.596-0.658v-0.224c0.266,0.014,0.966,0.042,2.1,0.084
		c0.028,0,0.057,0,0.07,0s0.028,0,0.028,0c0.126,0,0.182-0.056,0.182-0.196v-9.828H3.54c-0.014,2.128-0.028,3.374-0.042,3.752
		c-0.084,2.842-0.336,4.214-0.994,5.558c-0.406,0.812-0.784,1.358-1.498,2.114L0.838,78.438z M8.958,69.043
		c0.308-0.364,0.406-0.476,0.7-0.826c0.336,0.322,0.658,0.644,0.994,0.966c0.014,0.042,0.042,0.098,0.042,0.112
		c0,0.028-0.057,0.07-0.112,0.07H7.726v1.778H9.28c0.279-0.364,0.378-0.476,0.672-0.854c0.518,0.434,0.658,0.574,1.134,0.98
		c0.042,0.056,0.07,0.084,0.07,0.112c0,0.056-0.057,0.084-0.141,0.084H4.884c-0.252,0-0.476,0.014-1.021,0.084l-0.126-0.518
		c0.504,0.07,0.882,0.112,1.147,0.112H6.83v-1.778H5.304c-0.224,0-0.447,0.014-0.924,0.084l-0.14-0.532
		c0.363,0.084,0.77,0.126,1.063,0.126H6.83v-0.7c0-0.28-0.014-0.518-0.042-1.022c1.218,0.154,1.554,0.238,1.554,0.392
		c0,0.112-0.07,0.14-0.616,0.35v0.98H8.958z M5.85,76.702c-0.042,0.182-0.14,0.224-0.531,0.238c-0.057,0-0.084,0-0.099,0
		c-0.027,0-0.056,0-0.056,0c-0.196,0-0.266-0.056-0.266-0.168c0-0.014,0-0.028,0-0.042c0.027-0.7,0.042-1.722,0.042-2.688
		c0-0.35,0-0.35-0.028-1.05c-0.014-0.434-0.014-0.434-0.014-0.742c0.447,0.252,0.588,0.322,1.035,0.588h2.675
		c0.195-0.266,0.252-0.336,0.476-0.588c0.364,0.238,0.476,0.308,0.826,0.588c0.14,0.14,0.168,0.168,0.168,0.196
		s-0.099,0.112-0.42,0.378c-0.015,0.63-0.015,1.078-0.015,1.26c0,0.616,0,0.91,0.042,1.652c-0.014,0.224-0.069,0.238-0.714,0.28
		c-0.153,0-0.224-0.07-0.224-0.224v-0.728H5.85V76.702z M5.85,75.33h2.898v-2.17H5.85V75.33z"/>
	<path fill="#ED6E46" d="M14.796,78.228c0.687-0.686,1.022-1.106,1.47-1.834c0.351-0.588,0.49-0.868,0.672-1.33
		c1.093,0.378,1.288,0.462,1.288,0.588c0,0.112-0.111,0.154-0.531,0.224c-0.771,0.994-1.597,1.75-2.73,2.534L14.796,78.228z
		 M19.654,68.105V67.28c0-0.406-0.015-0.854-0.057-1.288c1.345,0.126,1.484,0.154,1.484,0.322c0,0.098-0.112,0.168-0.518,0.308
		v1.484h0.321c0.28-0.336,0.364-0.434,0.63-0.756c0.406,0.378,0.532,0.49,0.925,0.868c0.042,0.042,0.056,0.098,0.056,0.126
		c0,0.056-0.042,0.084-0.182,0.084h-1.75v5.908h0.237c0.238-0.378,0.322-0.49,0.603-0.826c0.363,0.392,0.489,0.518,0.854,0.924
		c0.014,0.056,0.028,0.112,0.028,0.126c0,0.07-0.028,0.098-0.154,0.098h-6.188c-0.294,0-0.757,0.028-0.994,0.07l-0.07-0.504
		c0.42,0.098,0.616,0.112,1.148,0.112h0.405v-5.908h-0.657c-0.673,0.042-0.673,0.042-0.826,0.098l-0.07-0.532
		c0.294,0.084,0.546,0.112,0.896,0.112h0.657v-0.574c0-0.476-0.027-1.134-0.069-1.582c1.357,0.14,1.554,0.182,1.554,0.336
		c0,0.126-0.126,0.196-0.588,0.308v1.512H19.654z M17.33,70.08h2.324v-1.652H17.33V70.08z M17.33,72.082h2.324v-1.68H17.33V72.082z
		 M17.33,74.335h2.324v-1.932H17.33V74.335z M19.066,75.204c1.344,0.49,1.903,0.896,1.903,1.372c0,0.378-0.182,0.756-0.363,0.756
		c-0.141,0-0.183-0.042-0.421-0.518c-0.084-0.168-0.42-0.644-0.657-0.952c-0.154-0.182-0.294-0.322-0.574-0.588L19.066,75.204z
		 M23.462,73.286c-0.126,1.106-0.392,2.058-0.84,2.954c-0.462,0.91-0.896,1.484-1.82,2.352l-0.224-0.154
		c0.952-1.176,1.456-2.142,1.764-3.402c0.28-1.134,0.378-2.646,0.378-5.544c0-2.324,0-2.548-0.084-3.318
		c0.49,0.252,0.645,0.336,1.134,0.658h2.059c0.224-0.28,0.308-0.378,0.532-0.658c0.378,0.252,0.489,0.322,0.84,0.588
		c0.111,0.084,0.153,0.14,0.153,0.21c0,0.126-0.126,0.238-0.462,0.406v7.868l0.015,0.812c0,0.252,0.014,0.56,0.014,0.952
		c-0.014,0.49-0.028,0.532-0.112,0.728c-0.195,0.364-0.447,0.49-1.414,0.644c-0.056-0.308-0.153-0.462-0.35-0.63
		c-0.238-0.196-0.56-0.28-1.288-0.35l0.014-0.238c1.387,0.098,1.387,0.098,1.975,0.098c0.154-0.014,0.21-0.084,0.21-0.266v-3.71
		H23.462z M23.602,70.178c-0.014,1.736-0.014,1.806-0.098,2.786h2.45v-2.786H23.602z M25.954,69.855v-2.702h-2.353
		c0.015,0.504,0.015,0.77,0.015,1.008c0,0.112,0,0.756-0.015,1.694H25.954z"/>
	<path d="M32.324,69.981c-0.225,0.434-0.504,0.812-1.246,1.708c0.7,0.14,0.938,0.21,0.938,0.308c0,0.084-0.126,0.154-0.476,0.238
		v3.724c0,0.168,0,0.742,0.014,1.512c0,0.168,0,0.336,0,0.406c0,0.14,0,0.294,0,0.518c-0.014,0.112-0.042,0.14-0.111,0.182
		c-0.084,0.028-0.448,0.07-0.7,0.07c-0.112,0-0.154-0.028-0.183-0.14c0.084-2.268,0.099-2.94,0.099-3.808v-2.52
		c-0.561,0.644-0.966,1.036-1.904,1.848l-0.168-0.196c0.896-1.036,1.386-1.708,1.988-2.674c0.574-0.924,0.812-1.428,1.008-2.114
		c0.826,0.308,0.826,0.308,1.218,0.462c0.112,0.042,0.141,0.056,0.183,0.154h3.01c0-0.056,0-0.602-0.015-1.652h-1.861
		c-0.49,0-0.616,0-0.994,0.056l-0.098-0.49c0.686,0.112,0.714,0.112,1.092,0.112h1.861c-0.014-0.826-0.027-1.078-0.084-1.68
		c1.19,0.07,1.261,0.084,1.414,0.154c0.084,0.028,0.141,0.084,0.141,0.126c0,0.084-0.141,0.168-0.546,0.336v1.064h2.155
		c0.238-0.28,0.309-0.364,0.546-0.63c0.406,0.266,0.532,0.35,0.868,0.616c0.084,0.07,0.126,0.112,0.126,0.168
		c0,0.084-0.069,0.14-0.434,0.322c0,0.266,0,0.546,0,0.882c0,0.028,0,0.266,0,0.616h0.07c0.195-0.392,0.266-0.504,0.531-0.896
		c0.477,0.434,0.603,0.574,1.036,1.022c0.015,0.042,0.042,0.084,0.042,0.084c0,0.056-0.069,0.112-0.14,0.112h-1.54
		c0.014,1.078,0.028,1.876,0.042,2.38c-0.042,0.112-0.07,0.154-0.14,0.168c-0.112,0.042-0.448,0.07-0.715,0.07
		c-0.111,0-0.14-0.028-0.14-0.14v-0.364h-2.296c0,0.798,0,0.798,0.014,1.694h2.227c0.308-0.364,0.392-0.49,0.686-0.868
		c0.546,0.434,0.7,0.56,1.218,1.008c0.028,0.042,0.057,0.084,0.057,0.098c0,0.056-0.057,0.084-0.141,0.084H36.93
		c0,0.112,0,0.196,0,0.266c0,0.49,0.015,0.854,0.015,1.456h2.8c0.364-0.392,0.462-0.518,0.798-0.952
		c0.56,0.448,0.742,0.588,1.302,1.064c0.028,0.042,0.042,0.084,0.042,0.098c0,0.056-0.069,0.112-0.14,0.112h-4.802
		c0.014,0.826,0.027,1.568,0.042,2.24c0,0.098-0.028,0.14-0.084,0.182c-0.057,0.028-0.435,0.056-0.757,0.056
		c-0.111,0-0.153-0.042-0.21-0.168l0.042-2.31h-2.729c-0.588,0-0.742,0.014-1.218,0.07l-0.112-0.518
		c0.644,0.112,0.784,0.126,1.33,0.126h2.729c0.015-0.91,0.028-1.484,0.028-1.722h-2.282c-0.279,0-0.531,0.014-1.092,0.056
		l-0.126-0.504c0.603,0.084,0.952,0.126,1.218,0.126h2.282v-1.694h-2.114c-0.321,0-0.531,0.014-0.951,0.07l-0.084-0.49
		c0.489,0.084,0.657,0.098,0.966,0.098h2.184c0-0.336,0-0.924-0.014-1.792H32.324z M28.754,69.758
		c0.784-0.7,1.246-1.218,1.918-2.184c0.546-0.756,0.672-0.966,0.868-1.484c1.231,0.392,1.498,0.504,1.498,0.63
		s-0.112,0.168-0.7,0.196c-1.372,1.61-2.156,2.31-3.416,3.066L28.754,69.758z M39.212,68.008h-2.296v1.652h2.296V68.008z
		 M36.916,69.981v1.792h2.296v-1.792H36.916z"/>
</g>
<g>
	<path d="M6.123,89.428c-0.672,0.91-1.589,1.449-2.457,1.449c-0.532,0-0.945-0.217-1.162-0.595c-0.14-0.245-0.196-0.588-0.196-1.183
		c0-0.385,0.021-1.05,0.057-1.687c0.042-0.756,0.049-0.952,0.049-1.204c0-0.602-0.07-0.721-0.567-0.931
		c0.077-0.056,0.119-0.07,0.196-0.07c0.161,0,0.413,0.063,0.63,0.161c0.266,0.126,0.406,0.266,0.406,0.413
		c0,0.049-0.007,0.091-0.063,0.252c-0.133,0.42-0.363,2.541-0.363,3.36c0,0.427,0.084,0.679,0.279,0.84
		c0.154,0.119,0.378,0.189,0.623,0.189c0.477,0,1.064-0.168,1.597-0.448c0.321-0.168,0.524-0.315,0.889-0.623L6.123,89.428z"/>
	<path d="M9.966,91.044c0.546-0.434,0.756-0.686,1.029-1.246c-0.322-0.098-0.574-0.266-0.813-0.539
		c-0.308-0.371-0.476-0.924-0.476-1.582c0-0.049,0-0.133,0.007-0.259c-0.56,0.623-0.917,1.386-0.917,1.946c0,0.049,0,0.091,0,0.126
		c0.007,0.049,0.007,0.091,0.007,0.112c0,0.112-0.077,0.196-0.175,0.196c-0.238,0-0.413-0.588-0.413-1.414
		c0-0.357,0.021-0.672,0.084-1.176c0.035-0.322,0.042-0.42,0.042-0.553c0-0.231-0.098-0.462-0.266-0.637
		c0.146,0,0.23,0.042,0.406,0.182c0.224,0.196,0.378,0.427,0.378,0.581c0,0.07-0.008,0.098-0.084,0.259
		c-0.154,0.336-0.267,0.903-0.267,1.365c0,0.126,0.007,0.203,0.035,0.371c0.413-0.819,0.651-1.162,1.183-1.673
		c0.092-0.714,0.231-1.113,0.497-1.442c0.154-0.196,0.364-0.301,0.588-0.301c0.196,0,0.421,0.098,0.561,0.245
		c0.161,0.168,0.238,0.308,0.35,0.63c0.042,0,0.084,0,0.099,0c0.392,0,0.763,0.119,1.092,0.35c0.448,0.308,0.693,0.805,0.693,1.372
		c0,1.085-0.875,1.925-2.01,1.925c-0.049,0-0.111,0-0.217-0.007c-0.427,0.651-0.777,0.98-1.351,1.253L9.966,91.044z M9.924,87.181
		c-0.007,0.168-0.014,0.266-0.014,0.343c0,0.651,0.203,1.232,0.546,1.547c0.21,0.196,0.392,0.301,0.679,0.385
		c0.189-0.609,0.28-1.288,0.28-2.1c0-0.399-0.014-0.623-0.07-0.91C10.75,86.571,10.358,86.774,9.924,87.181z M11.317,86.277
		c-0.126-0.532-0.294-0.756-0.567-0.756c-0.392,0-0.679,0.49-0.805,1.393C10.393,86.571,10.792,86.382,11.317,86.277z M11.898,87.58
		c0,0.756-0.112,1.358-0.351,1.932c0.924,0,1.582-0.693,1.582-1.659c0-0.553-0.21-1.001-0.588-1.246
		c-0.231-0.147-0.434-0.21-0.777-0.217C11.863,86.879,11.898,87.181,11.898,87.58z"/>
	<path d="M17.281,91.164c0.413-0.336,0.686-0.623,0.924-1.008c0.364-0.595,0.595-1.407,0.595-2.128c0-0.693-0.252-1.12-0.665-1.12
		c-0.371,0-0.86,0.301-1.344,0.826c-0.133,0.133-0.175,0.161-0.287,0.161c-0.146,0-0.314-0.112-0.462-0.315
		c-0.119-0.161-0.189-0.343-0.189-0.469c0-0.091,0.028-0.154,0.112-0.259c0.063,0.308,0.203,0.483,0.385,0.483
		c0.099,0,0.28-0.077,0.645-0.273c0.595-0.322,0.826-0.399,1.183-0.399c0.322,0,0.665,0.182,0.868,0.469
		c0.168,0.245,0.266,0.609,0.266,1.029c0,0.826-0.314,1.645-0.867,2.261c-0.344,0.378-0.7,0.644-1.1,0.819L17.281,91.164z
		 M16.896,84.8c0.344,0.287,0.819,0.448,1.31,0.448h0.161c0.14,0,0.237,0.049,0.378,0.168c0.098,0.084,0.146,0.168,0.146,0.238
		c0,0.098-0.098,0.154-0.287,0.154c-0.294,0.007-0.294,0.007-1.742,0.427l-0.035-0.098c0.524-0.238,1.008-0.455,1.183-0.518
		c-0.574-0.119-0.917-0.336-1.183-0.763L16.896,84.8z"/>
	<path d="M22.517,86.208c0.329,0.238,0.561,0.315,0.932,0.315c0.321,0,0.84-0.091,1.147-0.21c-0.161-0.301-0.44-0.665-0.602-0.784
		c-0.091-0.07-0.28-0.119-0.539-0.147c0.049-0.119,0.091-0.14,0.28-0.182c0.111-0.028,0.195-0.035,0.321-0.035
		c0.245,0,0.413,0.035,0.477,0.091c0.063,0.056,0.069,0.077,0.084,0.273c0.007,0.14,0.007,0.14,0.287,0.693
		c0.644-0.238,0.812-0.322,1.001-0.518c0.056-0.049,0.119-0.07,0.224-0.07c0.273,0,0.413,0.063,0.413,0.182
		c0,0.098-0.091,0.154-0.455,0.308c-0.112,0.049-0.455,0.168-1.029,0.35c0.07,0.119,0.07,0.119,0.154,0.259
		c0.042,0.07,0.154,0.266,0.343,0.574c0.554-0.217,0.687-0.273,0.868-0.385c-0.146-0.154-0.196-0.196-0.364-0.329l0.05-0.07
		c0.266,0.133,0.447,0.196,0.588,0.196c0,0,0,0,0.126-0.014c0.021-0.007,0.042-0.007,0.056-0.007c0.112,0,0.189,0.07,0.189,0.175
		c0,0.168-0.406,0.385-1.358,0.721c0.217,0.371,0.252,0.434,0.315,0.546c0.16,0.287,0.16,0.287,0.321,0.553
		c0.084,0.133,0.119,0.245,0.119,0.378c0,0.273-0.091,0.455-0.23,0.455c-0.063,0-0.084-0.014-0.196-0.105
		c-0.357-0.287-1.008-0.483-1.624-0.483c-0.322,0-0.637,0.07-0.875,0.196c-0.287,0.147-0.42,0.329-0.42,0.567
		c0,0.434,0.462,0.665,1.323,0.665c0.343,0,0.546-0.021,0.882-0.098c0.035-0.007,0.063-0.014,0.084-0.014
		c0.21,0,0.462,0.196,0.462,0.371c0,0.056-0.035,0.105-0.105,0.133c-0.133,0.056-0.56,0.105-0.959,0.105
		c-0.546,0-1.028-0.077-1.344-0.21c-0.427-0.189-0.679-0.518-0.679-0.882c0-0.63,0.742-1.05,1.848-1.05
		c0.413,0,0.805,0.042,1.316,0.154c-0.077-0.28-0.267-0.693-0.525-1.19c-0.469,0.161-1.063,0.266-1.491,0.266
		c-0.301,0-0.524-0.063-0.728-0.203c-0.141-0.098-0.217-0.196-0.336-0.42l0.084-0.063c0.224,0.301,0.455,0.413,0.826,0.413
		c0.405,0,0.917-0.091,1.498-0.266c-0.147-0.273-0.329-0.588-0.49-0.84c-0.469,0.147-0.932,0.224-1.302,0.224
		c-0.386,0-0.715-0.168-1.022-0.511L22.517,86.208z"/>
	<path d="M30.987,91.143c0.497-0.308,0.805-0.581,1.112-0.98c0.49-0.651,0.735-1.442,0.735-2.359c0-0.609-0.104-1.183-0.259-1.442
		c-0.126-0.203-0.294-0.308-0.497-0.308c-0.351,0-0.672,0.301-0.924,0.875c-0.203,0.455-0.329,1.029-0.329,1.505
		c0,0.119,0.007,0.196,0.027,0.434c0.008,0.042,0.008,0.098,0.008,0.147c0,0.133-0.063,0.21-0.183,0.21
		c-0.266,0-0.44-0.567-0.44-1.435c0-0.581,0.042-0.945,0.224-1.876c0.056-0.28,0.077-0.413,0.077-0.511
		c0-0.224-0.098-0.357-0.378-0.497c0.056-0.021,0.098-0.035,0.126-0.035c0.146,0,0.371,0.091,0.56,0.231
		c0.196,0.14,0.273,0.252,0.273,0.392c0,0.091-0.014,0.133-0.098,0.266c-0.267,0.441-0.505,1.435-0.505,2.086
		c0,0.063,0,0.133,0.008,0.259h0.014c0.21-0.896,0.469-1.477,0.812-1.834c0.26-0.28,0.539-0.413,0.854-0.413
		c0.672,0,1.147,0.826,1.147,1.995c0,0.91-0.252,1.666-0.763,2.289c-0.413,0.511-0.882,0.84-1.547,1.106L30.987,91.143z"/>
	<path d="M38.134,90.226c0.645-0.161,1.106-0.336,1.547-0.588c0.819-0.462,1.288-1.148,1.288-1.883c0-0.7-0.518-1.176-1.281-1.176
		c-0.818,0-1.89,0.448-2.813,1.169c-0.112,0.091-0.182,0.119-0.266,0.119c-0.329,0-0.841-0.49-0.841-0.805
		c0-0.049,0.015-0.091,0.057-0.175c0.069,0.147,0.111,0.196,0.195,0.259c0.105,0.077,0.189,0.112,0.287,0.112
		c0.183,0,0.448-0.077,0.848-0.252c1.105-0.483,1.834-0.672,2.562-0.672c1.064,0,1.792,0.623,1.792,1.54
		c0,0.868-0.588,1.617-1.609,2.051c-0.532,0.224-1.043,0.343-1.729,0.406L38.134,90.226z"/>
	<path d="M0.838,104.688c0.813-1.26,1.26-2.436,1.47-3.878c0.196-1.372,0.309-3.248,0.309-5.208c0-1.302-0.015-2.506-0.042-3.178
		c0.49,0.238,0.644,0.322,1.092,0.63h7.476c0.267-0.266,0.364-0.364,0.645-0.63c0.378,0.266,0.49,0.35,0.84,0.63
		c0.098,0.07,0.14,0.126,0.14,0.182c0,0.056-0.14,0.182-0.476,0.42v6.51c0,0.364,0,0.868,0.014,1.498
		c0.015,0.938,0.015,1.078,0.015,1.708c-0.028,0.546-0.112,0.714-0.406,0.868c-0.294,0.14-0.645,0.238-1.204,0.336
		c-0.028-0.21-0.042-0.238-0.154-0.378c-0.363-0.462-0.546-0.532-1.596-0.658v-0.224c0.266,0.014,0.966,0.042,2.1,0.084
		c0.028,0,0.057,0,0.07,0s0.028,0,0.028,0c0.126,0,0.182-0.056,0.182-0.196v-9.828H3.54c-0.014,2.128-0.028,3.374-0.042,3.752
		c-0.084,2.842-0.336,4.214-0.994,5.558c-0.406,0.812-0.784,1.358-1.498,2.114L0.838,104.688z M8.958,95.293
		c0.308-0.364,0.406-0.476,0.7-0.826c0.336,0.322,0.658,0.644,0.994,0.966c0.014,0.042,0.042,0.098,0.042,0.112
		c0,0.028-0.057,0.07-0.112,0.07H7.726v1.778H9.28c0.279-0.364,0.378-0.476,0.672-0.854c0.518,0.434,0.658,0.574,1.134,0.98
		c0.042,0.056,0.07,0.084,0.07,0.112c0,0.056-0.057,0.084-0.141,0.084H4.884c-0.252,0-0.476,0.014-1.021,0.084l-0.126-0.518
		c0.504,0.07,0.882,0.112,1.147,0.112H6.83v-1.778H5.304c-0.224,0-0.447,0.014-0.924,0.084l-0.14-0.532
		c0.363,0.084,0.77,0.126,1.063,0.126H6.83v-0.7c0-0.28-0.014-0.518-0.042-1.022c1.218,0.154,1.554,0.238,1.554,0.392
		c0,0.112-0.07,0.14-0.616,0.35v0.98H8.958z M5.85,102.952c-0.042,0.182-0.14,0.224-0.531,0.238c-0.057,0-0.084,0-0.099,0
		c-0.027,0-0.056,0-0.056,0c-0.196,0-0.266-0.056-0.266-0.168c0-0.014,0-0.028,0-0.042c0.027-0.7,0.042-1.722,0.042-2.688
		c0-0.35,0-0.35-0.028-1.05c-0.014-0.434-0.014-0.434-0.014-0.742c0.447,0.252,0.588,0.322,1.035,0.588h2.675
		c0.195-0.266,0.252-0.336,0.476-0.588c0.364,0.238,0.476,0.308,0.826,0.588c0.14,0.14,0.168,0.168,0.168,0.196
		s-0.099,0.112-0.42,0.378c-0.015,0.63-0.015,1.078-0.015,1.26c0,0.616,0,0.91,0.042,1.652c-0.014,0.224-0.069,0.238-0.714,0.28
		c-0.153,0-0.224-0.07-0.224-0.224v-0.728H5.85V102.952z M5.85,101.58h2.898v-2.17H5.85V101.58z"/>
	<path d="M14.796,104.478c0.687-0.686,1.022-1.106,1.47-1.834c0.351-0.588,0.49-0.868,0.672-1.33
		c1.093,0.378,1.288,0.462,1.288,0.588c0,0.112-0.111,0.154-0.531,0.224c-0.771,0.994-1.597,1.75-2.73,2.534L14.796,104.478z
		 M19.654,94.355V93.53c0-0.406-0.015-0.854-0.057-1.288c1.345,0.126,1.484,0.154,1.484,0.322c0,0.098-0.112,0.168-0.518,0.308
		v1.484h0.321c0.28-0.336,0.364-0.434,0.63-0.756c0.406,0.378,0.532,0.49,0.925,0.868c0.042,0.042,0.056,0.098,0.056,0.126
		c0,0.056-0.042,0.084-0.182,0.084h-1.75v5.908h0.237c0.238-0.378,0.322-0.49,0.603-0.826c0.363,0.392,0.489,0.518,0.854,0.924
		c0.014,0.056,0.028,0.112,0.028,0.126c0,0.07-0.028,0.098-0.154,0.098h-6.188c-0.294,0-0.757,0.028-0.994,0.07l-0.07-0.504
		c0.42,0.098,0.616,0.112,1.148,0.112h0.405v-5.908h-0.657c-0.673,0.042-0.673,0.042-0.826,0.098l-0.07-0.532
		c0.294,0.084,0.546,0.112,0.896,0.112h0.657v-0.574c0-0.476-0.027-1.134-0.069-1.582c1.357,0.14,1.554,0.182,1.554,0.336
		c0,0.126-0.126,0.196-0.588,0.308v1.512H19.654z M17.33,96.33h2.324v-1.652H17.33V96.33z M17.33,98.332h2.324v-1.68H17.33V98.332z
		 M17.33,100.585h2.324v-1.932H17.33V100.585z M19.066,101.454c1.344,0.49,1.903,0.896,1.903,1.372c0,0.378-0.182,0.756-0.363,0.756
		c-0.141,0-0.183-0.042-0.421-0.518c-0.084-0.168-0.42-0.644-0.657-0.952c-0.154-0.182-0.294-0.322-0.574-0.588L19.066,101.454z
		 M23.462,99.536c-0.126,1.106-0.392,2.058-0.84,2.954c-0.462,0.91-0.896,1.484-1.82,2.352l-0.224-0.154
		c0.952-1.176,1.456-2.142,1.764-3.402c0.28-1.134,0.378-2.646,0.378-5.544c0-2.324,0-2.548-0.084-3.318
		c0.49,0.252,0.645,0.336,1.134,0.658h2.059c0.224-0.28,0.308-0.378,0.532-0.658c0.378,0.252,0.489,0.322,0.84,0.588
		c0.111,0.084,0.153,0.14,0.153,0.21c0,0.126-0.126,0.238-0.462,0.406v7.868l0.015,0.812c0,0.252,0.014,0.56,0.014,0.952
		c-0.014,0.49-0.028,0.532-0.112,0.728c-0.195,0.364-0.447,0.49-1.414,0.644c-0.056-0.308-0.153-0.462-0.35-0.63
		c-0.238-0.196-0.56-0.28-1.288-0.35l0.014-0.238c1.387,0.098,1.387,0.098,1.975,0.098c0.154-0.014,0.21-0.084,0.21-0.266v-3.71
		H23.462z M23.602,96.428c-0.014,1.736-0.014,1.806-0.098,2.786h2.45v-2.786H23.602z M25.954,96.105v-2.702h-2.353
		c0.015,0.504,0.015,0.77,0.015,1.008c0,0.112,0,0.756-0.015,1.694H25.954z"/>
	<path d="M32.324,96.231c-0.225,0.434-0.504,0.812-1.246,1.708c0.7,0.14,0.938,0.21,0.938,0.308c0,0.084-0.126,0.154-0.476,0.238
		v3.724c0,0.168,0,0.742,0.014,1.512c0,0.168,0,0.336,0,0.406c0,0.14,0,0.294,0,0.518c-0.014,0.112-0.042,0.14-0.111,0.182
		c-0.084,0.028-0.448,0.07-0.7,0.07c-0.112,0-0.154-0.028-0.183-0.14c0.084-2.268,0.099-2.94,0.099-3.808v-2.52
		c-0.561,0.644-0.966,1.036-1.904,1.848l-0.168-0.196c0.896-1.036,1.386-1.708,1.988-2.674c0.574-0.924,0.812-1.428,1.008-2.114
		c0.826,0.308,0.826,0.308,1.218,0.462c0.112,0.042,0.141,0.056,0.183,0.154h3.01c0-0.056,0-0.602-0.015-1.652h-1.861
		c-0.49,0-0.616,0-0.994,0.056l-0.098-0.49c0.686,0.112,0.714,0.112,1.092,0.112h1.861c-0.014-0.826-0.027-1.078-0.084-1.68
		c1.19,0.07,1.261,0.084,1.414,0.154c0.084,0.028,0.141,0.084,0.141,0.126c0,0.084-0.141,0.168-0.546,0.336v1.064h2.155
		c0.238-0.28,0.309-0.364,0.546-0.63c0.406,0.266,0.532,0.35,0.868,0.616c0.084,0.07,0.126,0.112,0.126,0.168
		c0,0.084-0.069,0.14-0.434,0.322c0,0.266,0,0.546,0,0.882c0,0.028,0,0.266,0,0.616h0.07c0.195-0.392,0.266-0.504,0.531-0.896
		c0.477,0.434,0.603,0.574,1.036,1.022c0.015,0.042,0.042,0.084,0.042,0.084c0,0.056-0.069,0.112-0.14,0.112h-1.54
		c0.014,1.078,0.028,1.876,0.042,2.38c-0.042,0.112-0.07,0.154-0.14,0.168c-0.112,0.042-0.448,0.07-0.715,0.07
		c-0.111,0-0.14-0.028-0.14-0.14v-0.364h-2.296c0,0.798,0,0.798,0.014,1.694h2.227c0.308-0.364,0.392-0.49,0.686-0.868
		c0.546,0.434,0.7,0.56,1.218,1.008c0.028,0.042,0.057,0.084,0.057,0.098c0,0.056-0.057,0.084-0.141,0.084H36.93
		c0,0.112,0,0.196,0,0.266c0,0.49,0.015,0.854,0.015,1.456h2.8c0.364-0.392,0.462-0.518,0.798-0.952
		c0.56,0.448,0.742,0.588,1.302,1.064c0.028,0.042,0.042,0.084,0.042,0.098c0,0.056-0.069,0.112-0.14,0.112h-4.802
		c0.014,0.826,0.027,1.568,0.042,2.24c0,0.098-0.028,0.14-0.084,0.182c-0.057,0.028-0.435,0.056-0.757,0.056
		c-0.111,0-0.153-0.042-0.21-0.168l0.042-2.31h-2.729c-0.588,0-0.742,0.014-1.218,0.07l-0.112-0.518
		c0.644,0.112,0.784,0.126,1.33,0.126h2.729c0.015-0.91,0.028-1.484,0.028-1.722h-2.282c-0.279,0-0.531,0.014-1.092,0.056
		l-0.126-0.504c0.603,0.084,0.952,0.126,1.218,0.126h2.282v-1.694h-2.114c-0.321,0-0.531,0.014-0.951,0.07l-0.084-0.49
		c0.489,0.084,0.657,0.098,0.966,0.098h2.184c0-0.336,0-0.924-0.014-1.792H32.324z M28.754,96.008
		c0.784-0.7,1.246-1.218,1.918-2.184c0.546-0.756,0.672-0.966,0.868-1.484c1.231,0.392,1.498,0.504,1.498,0.63
		s-0.112,0.168-0.7,0.196c-1.372,1.61-2.156,2.31-3.416,3.066L28.754,96.008z M39.212,94.258h-2.296v1.652h2.296V94.258z
		 M36.916,96.231v1.792h2.296v-1.792H36.916z"/>
</g>
<rect x="0.25" y="65.25" fill="none" stroke="#008CD6" stroke-width="0.5" width="42" height="14"/>
<polyline fill="none" stroke="#008CD6" stroke-width="0.5" points="0.25,65.25 0.25,58.25 42.25,58.25 42.25,65.25 "/>
<line fill="none" stroke="#008CD6" stroke-width="0.5" x1="7.25" y1="65.25" x2="7.25" y2="58.25"/>
<line fill="none" stroke="#008CD6" stroke-width="0.5" x1="14.25" y1="65.25" x2="14.25" y2="58.25"/>
<line fill="none" stroke="#008CD6" stroke-width="0.5" x1="21.25" y1="65.25" x2="21.25" y2="58.25"/>
<line fill="none" stroke="#008CD6" stroke-width="0.5" x1="28.25" y1="65.25" x2="28.25" y2="58.25"/>
<line fill="none" stroke="#008CD6" stroke-width="0.5" x1="35.25" y1="65.25" x2="35.25" y2="58.25"/>
<g>
	<path d="M9.987,6.893c0.497-0.308,0.805-0.581,1.112-0.98c0.49-0.651,0.735-1.442,0.735-2.359c0-0.609-0.104-1.183-0.259-1.442
		c-0.126-0.203-0.294-0.308-0.497-0.308c-0.351,0-0.672,0.301-0.924,0.875C9.952,3.133,9.826,3.708,9.826,4.184
		c0,0.119,0.007,0.196,0.027,0.434C9.861,4.66,9.861,4.715,9.861,4.765c0,0.133-0.063,0.21-0.183,0.21
		c-0.266,0-0.44-0.567-0.44-1.435c0-0.581,0.042-0.945,0.224-1.876c0.056-0.28,0.077-0.413,0.077-0.511
		c0-0.224-0.098-0.357-0.378-0.497c0.056-0.021,0.098-0.035,0.126-0.035c0.146,0,0.371,0.091,0.56,0.231
		c0.196,0.14,0.273,0.252,0.273,0.392c0,0.091-0.014,0.133-0.098,0.266C9.756,1.951,9.518,2.944,9.518,3.596
		c0,0.063,0,0.133,0.008,0.259h0.014c0.21-0.896,0.469-1.477,0.812-1.834c0.26-0.28,0.539-0.413,0.854-0.413
		c0.672,0,1.147,0.826,1.147,1.995c0,0.91-0.252,1.666-0.763,2.289c-0.413,0.511-0.882,0.84-1.547,1.106L9.987,6.893z"/>
	<path fill="#ED6E46" d="M16.966,6.794c0.546-0.434,0.756-0.686,1.029-1.246c-0.322-0.098-0.574-0.266-0.813-0.539
		c-0.308-0.371-0.476-0.924-0.476-1.582c0-0.049,0-0.133,0.007-0.259c-0.56,0.623-0.917,1.386-0.917,1.946c0,0.049,0,0.091,0,0.126
		c0.007,0.049,0.007,0.091,0.007,0.112c0,0.112-0.077,0.196-0.175,0.196c-0.238,0-0.413-0.588-0.413-1.414
		c0-0.357,0.021-0.672,0.084-1.176c0.035-0.322,0.042-0.42,0.042-0.553c0-0.231-0.098-0.462-0.266-0.637
		c0.146,0,0.23,0.042,0.406,0.182c0.224,0.196,0.378,0.427,0.378,0.581c0,0.07-0.008,0.098-0.084,0.259
		c-0.154,0.336-0.267,0.903-0.267,1.365c0,0.126,0.007,0.203,0.035,0.371c0.413-0.819,0.651-1.162,1.183-1.673
		c0.092-0.714,0.231-1.113,0.497-1.442c0.154-0.196,0.364-0.301,0.588-0.301c0.196,0,0.421,0.098,0.561,0.245
		c0.161,0.168,0.238,0.308,0.35,0.63c0.042,0,0.084,0,0.099,0c0.392,0,0.763,0.119,1.092,0.35c0.448,0.308,0.693,0.805,0.693,1.372
		c0,1.085-0.875,1.925-2.01,1.925c-0.049,0-0.111,0-0.217-0.007c-0.427,0.651-0.777,0.98-1.351,1.253L16.966,6.794z M16.924,2.931
		c-0.007,0.168-0.014,0.266-0.014,0.343c0,0.651,0.203,1.232,0.546,1.547c0.21,0.196,0.392,0.301,0.679,0.385
		c0.189-0.609,0.28-1.288,0.28-2.1c0-0.399-0.014-0.623-0.07-0.91C17.75,2.321,17.358,2.524,16.924,2.931z M18.317,2.027
		c-0.126-0.532-0.294-0.756-0.567-0.756c-0.392,0-0.679,0.49-0.805,1.393C17.393,2.321,17.792,2.132,18.317,2.027z M18.898,3.33
		c0,0.756-0.112,1.358-0.351,1.932c0.924,0,1.582-0.693,1.582-1.659c0-0.553-0.21-1.001-0.588-1.246
		c-0.231-0.147-0.434-0.21-0.777-0.217C18.863,2.629,18.898,2.931,18.898,3.33z"/>
	<path fill="#ED6E46" d="M24.281,6.914c0.413-0.336,0.686-0.623,0.924-1.008C25.569,5.311,25.8,4.499,25.8,3.777
		c0-0.693-0.252-1.12-0.665-1.12c-0.371,0-0.86,0.301-1.344,0.826c-0.133,0.133-0.175,0.161-0.287,0.161
		c-0.146,0-0.314-0.112-0.462-0.315c-0.119-0.161-0.189-0.343-0.189-0.469c0-0.091,0.028-0.154,0.112-0.259
		c0.063,0.308,0.203,0.483,0.385,0.483c0.099,0,0.28-0.077,0.645-0.273c0.595-0.322,0.826-0.399,1.183-0.399
		c0.322,0,0.665,0.182,0.868,0.469c0.168,0.245,0.266,0.609,0.266,1.029c0,0.826-0.314,1.645-0.867,2.261
		c-0.344,0.378-0.7,0.644-1.1,0.819L24.281,6.914z M23.896,0.55c0.344,0.287,0.819,0.448,1.31,0.448h0.161
		c0.14,0,0.237,0.049,0.378,0.168c0.098,0.084,0.146,0.168,0.146,0.238c0,0.098-0.098,0.154-0.287,0.154
		c-0.294,0.007-0.294,0.007-1.742,0.427l-0.035-0.098c0.524-0.238,1.008-0.455,1.183-0.518c-0.574-0.119-0.917-0.336-1.183-0.763
		L23.896,0.55z"/>
	<path fill="#ED6E46" d="M29.349,2.021c0.329,0.231,0.561,0.308,0.932,0.308c0.321,0,0.84-0.091,1.147-0.21
		c-0.161-0.294-0.44-0.658-0.602-0.777c-0.084-0.07-0.294-0.126-0.539-0.147c0.049-0.119,0.091-0.147,0.28-0.189
		c0.111-0.028,0.195-0.035,0.321-0.035c0.245,0,0.413,0.035,0.477,0.091c0.063,0.056,0.069,0.077,0.084,0.273
		c0.007,0.14,0.007,0.14,0.287,0.7c0.56-0.203,0.763-0.308,0.966-0.511c0.049-0.049,0.112-0.07,0.217-0.07
		c0.273,0,0.413,0.063,0.413,0.182c0,0.084-0.077,0.14-0.343,0.259c-0.273,0.119-0.336,0.14-1.1,0.392
		c0.07,0.119,0.07,0.119,0.154,0.252c0.042,0.077,0.154,0.266,0.343,0.581c0.554-0.217,0.687-0.273,0.868-0.392
		c-0.146-0.147-0.196-0.189-0.364-0.322l0.05-0.077c0.266,0.14,0.447,0.196,0.588,0.196c0,0,0,0,0.126-0.014
		c0.021,0,0.042,0,0.056,0c0.112,0,0.189,0.07,0.189,0.175c0,0.161-0.406,0.378-1.358,0.714c0.203,0.343,0.23,0.406,0.315,0.546
		c0.153,0.287,0.153,0.287,0.321,0.553c0.084,0.133,0.119,0.245,0.119,0.378c0,0.273-0.091,0.455-0.23,0.455
		c-0.063,0-0.084-0.014-0.196-0.105c-0.357-0.287-1.008-0.483-1.624-0.483c-0.322,0-0.637,0.07-0.875,0.196
		c-0.287,0.147-0.42,0.329-0.42,0.567c0,0.434,0.462,0.665,1.323,0.665c0.343,0,0.546-0.021,0.882-0.091
		c0.035-0.007,0.063-0.014,0.084-0.014c0.21,0,0.462,0.196,0.462,0.364c0,0.063-0.035,0.105-0.105,0.133
		c-0.133,0.056-0.56,0.105-0.959,0.105c-0.546,0-1.028-0.077-1.344-0.21c-0.427-0.189-0.679-0.518-0.679-0.882
		c0-0.63,0.742-1.05,1.848-1.05c0.413,0,0.805,0.049,1.316,0.154c-0.077-0.28-0.267-0.686-0.525-1.19
		c-0.469,0.168-1.063,0.273-1.491,0.273c-0.301,0-0.524-0.063-0.728-0.203c-0.141-0.105-0.217-0.196-0.336-0.42l0.084-0.063
		c0.224,0.301,0.455,0.413,0.826,0.413c0.405,0,0.909-0.091,1.498-0.273c-0.147-0.273-0.329-0.588-0.49-0.84
		c-0.469,0.147-0.932,0.224-1.302,0.224c-0.386,0-0.715-0.168-1.022-0.511L29.349,2.021z M33.255,0.957
		c0.322,0.112,0.609,0.259,0.826,0.42c0.196,0.147,0.252,0.238,0.252,0.406c0,0.161-0.077,0.294-0.161,0.294
		c-0.056,0-0.098-0.035-0.161-0.133c-0.224-0.35-0.504-0.665-0.812-0.903L33.255,0.957z M33.85,0.537
		c0.364,0.119,0.651,0.245,0.826,0.357c0.196,0.126,0.267,0.238,0.267,0.42c0,0.161-0.063,0.287-0.141,0.287
		c-0.049,0-0.091-0.035-0.161-0.147c-0.188-0.28-0.455-0.539-0.854-0.826L33.85,0.537z"/>
	<path d="M7.67,11.31c0.813,0.294,1.106,0.434,1.596,0.728c0.588,0.336,0.687,0.448,0.687,0.77c0,0.42-0.225,0.882-0.42,0.882
		c-0.099,0-0.168-0.084-0.322-0.35c-0.126-0.224-0.434-0.644-0.7-0.952c-0.294-0.336-0.518-0.532-0.979-0.896L7.67,11.31z
		 M7.782,16.419c0.126,0.028,0.224,0.042,0.279,0.056c0.379,0.098,0.561,0.126,0.687,0.126c0.182,0,0.238-0.084,0.518-0.714
		c0.267-0.574,0.799-1.806,1.232-2.842c0.658-1.54,0.658-1.54,0.979-2.254l0.154,0.098l-1.946,5.88
		c-0.14,0.434-0.168,0.518-0.168,0.658c0,0.238,0.042,0.476,0.183,0.98c0.084,0.308,0.126,0.644,0.126,0.938
		c0,0.406-0.07,0.63-0.267,0.84c-0.195,0.21-0.56,0.392-0.77,0.392c-0.168,0-0.294-0.154-0.294-0.364c0-0.07,0.028-0.266,0.07-0.476
		c0.21-0.924,0.279-1.4,0.279-1.862c0-0.35-0.069-0.532-0.266-0.728c-0.224-0.224-0.434-0.35-0.854-0.518L7.782,16.419z
		 M8.482,8.174c0.728,0.294,1.344,0.602,1.834,0.91c0.434,0.28,0.573,0.448,0.573,0.784c0,0.378-0.224,0.868-0.392,0.868
		c-0.112,0-0.196-0.084-0.35-0.35C9.98,10.092,9.826,9.868,9.546,9.518c-0.448-0.546-0.658-0.756-1.204-1.19L8.482,8.174z
		 M10.064,20.536c0.714-0.532,0.993-0.784,1.302-1.134c0.896-1.022,1.26-2.338,1.26-4.564c0-0.364-0.014-0.602-0.042-1.064
		c1.344,0.168,1.442,0.196,1.442,0.322c0,0.084-0.015,0.098-0.477,0.294c-0.07,1.568-0.098,1.848-0.196,2.506
		c-0.168,1.064-0.728,2.03-1.638,2.828c-0.476,0.42-0.826,0.644-1.567,0.994L10.064,20.536z M15.328,10.092
		c-0.574,1.05-0.868,1.498-1.512,2.38c2.1-0.084,2.352-0.098,4.06-0.238c-0.672-0.756-0.854-0.924-1.428-1.4l0.111-0.14
		c0.91,0.476,1.918,1.078,2.521,1.498c0.336,0.238,0.462,0.448,0.462,0.798c0,0.42-0.224,0.896-0.434,0.896
		c-0.084,0-0.169-0.084-0.28-0.294c-0.28-0.504-0.462-0.784-0.714-1.064c-1.778,0.322-1.778,0.322-6.006,0.896
		c-0.015,0.07-0.028,0.112-0.042,0.154c-0.042,0.196-0.084,0.28-0.168,0.28c-0.141,0-0.168-0.07-0.421-1.372
		c0.841,0.028,0.841,0.028,1.022,0.028c0.168,0,0.168,0,0.966-0.042c0.309-0.868,0.309-0.868,0.7-2.38h-1.75
		c-0.518,0-0.658,0.014-1.05,0.112L11.24,9.63c0.42,0.112,0.686,0.14,1.176,0.14h2.338V9.14c0-0.462-0.014-0.7-0.056-1.232
		c0.321,0.042,0.588,0.07,0.742,0.084c0.686,0.07,0.882,0.126,0.882,0.266c0,0.112-0.07,0.14-0.588,0.308V9.77h2.59
		c0.35-0.448,0.462-0.588,0.84-1.022c0.602,0.476,0.77,0.616,1.344,1.106c0.07,0.07,0.098,0.112,0.098,0.14
		c0,0.07-0.056,0.098-0.168,0.098H15.328z M15.678,15.832c0,1.498,0,1.904,0.042,4.228c-0.014,0.112-0.027,0.14-0.098,0.182
		c-0.07,0.028-0.477,0.07-0.658,0.07c-0.126,0-0.182-0.056-0.196-0.168c0.028-1.946,0.042-2.926,0.042-4.928
		c0-0.574-0.014-0.882-0.056-1.456c1.288,0.154,1.428,0.182,1.428,0.322c0,0.098-0.084,0.14-0.504,0.28V15.832z M17.148,15.132
		c0-0.742,0-0.84-0.043-1.33c1.219,0.112,1.498,0.168,1.498,0.294c0,0.112-0.14,0.196-0.56,0.322v4.76
		c0,0.21,0.028,0.252,0.182,0.252c0.154,0,0.28,0.014,0.364,0.014c0.042,0,0.056,0,0.056,0c0.519,0,0.729-0.042,0.813-0.14
		c0.112-0.154,0.196-0.476,0.77-2.814l0.225,0.014l-0.21,2.478c0,0.056,0,0.14,0,0.182c0,0.168,0,0.168,0.294,0.294
		c0.14,0.056,0.21,0.154,0.21,0.294c0,0.224-0.196,0.392-0.532,0.448c-0.28,0.042-0.979,0.07-1.61,0.07
		c-1.26,0-1.455-0.112-1.455-0.826c0-0.77,0-0.77,0-1.638V15.132z"/>
	<path fill="#ED6E46" d="M21.474,14.824c0.477-0.77,0.673-1.12,1.078-2.03c0.882-1.988,1.33-3.416,1.54-4.886
		c1.162,0.224,1.596,0.35,1.596,0.504c0,0.112-0.224,0.21-0.644,0.28c-0.392,1.33-0.756,2.17-1.54,3.598
		c0.854,0.112,1.008,0.154,1.008,0.308c0,0.098-0.126,0.182-0.42,0.266v4.998c0,0.434,0,0.63,0.015,2.562
		c0,0.112-0.015,0.154-0.057,0.182c-0.056,0.056-0.476,0.112-0.77,0.112c-0.112,0-0.168-0.056-0.168-0.14c0-0.028,0-0.056,0-0.084
		c0.014-0.224,0.014-1.722,0.042-4.494v-3.08c-0.504,0.826-0.771,1.204-1.471,2.03L21.474,14.824z M26.864,16.098l-0.854,0.014
		c-0.588,0-0.882,0.014-1.483,0.07L24.4,15.664c0.56,0.084,0.924,0.112,1.483,0.112h0.126l0.854-0.014V14.74
		c-0.756,0.14-1.134,0.182-1.975,0.252l-0.042-0.154c0.84-0.182,1.582-0.406,2.395-0.742c0.336-0.14,0.42-0.182,0.77-0.406
		l0.267-0.168c0.854,0.602,0.979,0.714,0.979,0.84c0,0.07-0.084,0.14-0.168,0.14c-0.112,0-0.168-0.014-0.49-0.154
		c-0.42,0.112-0.518,0.14-0.924,0.238v1.162l2.338-0.028c-0.069-0.308-0.098-0.504-0.126-0.77c-0.069-0.826-0.084-0.854-0.182-1.246
		c1.176,0.112,1.218,0.126,1.218,0.252c0,0.07-0.056,0.112-0.266,0.224c0,0.728,0.027,0.98,0.126,1.526l2.016-0.028
		c0.294-0.378,0.378-0.49,0.7-0.854c0.49,0.406,0.63,0.518,1.063,0.952c0.042,0.042,0.07,0.084,0.07,0.112
		c0,0.056-0.056,0.084-0.21,0.084l-3.556,0.056c0.168,0.644,0.364,1.064,0.728,1.554c0.322-0.378,0.532-0.686,0.826-1.218
		c1.162,0.574,1.162,0.574,1.162,0.686c0,0.14-0.112,0.168-0.602,0.182c-0.406,0.462-0.561,0.63-0.883,0.938
		c0.364,0.378,0.813,0.742,1.093,0.868c0.084,0.042,0.14,0.07,0.168,0.098c0.027,0.014,0.042,0.028,0.056,0.028
		c0.042,0,0.098-0.056,0.168-0.182c0.112-0.21,0.252-0.448,0.378-0.686c0.224-0.378,0.238-0.42,0.462-0.812l0.154,0.07l-0.364,1.428
		c-0.028,0.126-0.042,0.21-0.042,0.28c0,0.126,0.014,0.14,0.294,0.434c0.084,0.084,0.154,0.266,0.154,0.406
		c0,0.182-0.183,0.336-0.378,0.336c-0.238,0-0.784-0.224-1.303-0.532c-0.56-0.336-1.008-0.714-1.455-1.204
		c-0.994,0.77-1.82,1.204-3.206,1.68l-0.084-0.21c0.756-0.336,1.302-0.686,2.155-1.4c0.267-0.21,0.462-0.392,0.7-0.616
		c-0.476-0.686-0.742-1.302-0.966-2.114l-2.408,0.042v1.232c0.896-0.154,1.246-0.224,2.03-0.42l0.056,0.196
		c-0.924,0.35-1.33,0.49-2.086,0.728v0.63l0.015,1.036c0,0.084,0,0.182,0,0.336c0,0.35-0.057,0.476-0.295,0.63
		c-0.224,0.154-0.462,0.224-0.938,0.266c-0.098-0.588-0.336-0.714-1.428-0.84v-0.182c1.204,0.098,1.204,0.098,1.693,0.098
		c0.015,0,0.028,0,0.028,0c0.084,0,0.112-0.042,0.112-0.168v-1.568c-0.532,0.14-0.784,0.21-1.513,0.378
		c-0.027,0.07-0.042,0.126-0.056,0.168c-0.07,0.224-0.112,0.294-0.196,0.294c-0.126,0-0.126,0-0.378-1.246
		c0.574-0.028,1.05-0.07,2.143-0.224V16.098z M29.706,11.394h2.072c0.308-0.364,0.405-0.476,0.714-0.812
		c0.462,0.392,0.616,0.504,1.063,0.896c0.057,0.07,0.084,0.112,0.084,0.154c0,0.056-0.056,0.084-0.182,0.084h-3.752v1.274h2.884
		c0.322-0.378,0.42-0.49,0.756-0.868c0.477,0.42,0.63,0.546,1.078,0.966c0.056,0.056,0.084,0.098,0.084,0.14
		s-0.056,0.084-0.154,0.084h-8.329c-0.322,0-0.603,0.014-1.162,0.084l-0.141-0.518c0.378,0.056,1.078,0.112,1.303,0.112h2.827
		v-1.274h-1.47c-0.56,0-0.854,0.028-1.456,0.112l-0.111-0.532c0.462,0.07,0.951,0.098,1.567,0.098h1.47v-1.288h-2.323
		c-0.519,0-0.729,0.014-1.261,0.098l-0.126-0.546c0.616,0.098,0.967,0.126,1.429,0.126h1.302c-0.07-0.112-0.084-0.154-0.154-0.322
		c-0.182-0.518-0.364-0.812-0.84-1.358l0.154-0.126c0.532,0.196,0.826,0.364,1.26,0.7c0.196,0.154,0.28,0.28,0.28,0.406
		c0,0.252-0.126,0.504-0.351,0.7h1.834C30.35,9.28,30.7,8.426,30.84,7.838c1.19,0.378,1.386,0.476,1.386,0.616
		c0,0.112-0.168,0.168-0.56,0.182c-0.392,0.392-0.392,0.392-1.26,1.148h2.058c0.308-0.378,0.406-0.49,0.742-0.868
		c0.546,0.392,0.714,0.532,1.231,0.966c0.057,0.056,0.084,0.112,0.084,0.14c0,0.07-0.027,0.084-0.21,0.084h-4.605V11.394z
		 M31.344,13.815c1.036,0.28,1.442,0.518,1.442,0.882c0,0.308-0.183,0.686-0.336,0.686c-0.099,0-0.141-0.042-0.252-0.28
		c-0.154-0.336-0.448-0.7-0.924-1.148L31.344,13.815z"/>
</g>
<g>
	<path d="M9.987,33.143c0.497-0.308,0.805-0.581,1.112-0.98c0.49-0.651,0.735-1.442,0.735-2.359c0-0.609-0.104-1.183-0.259-1.442
		c-0.126-0.203-0.294-0.308-0.497-0.308c-0.351,0-0.672,0.301-0.924,0.875c-0.203,0.455-0.329,1.029-0.329,1.505
		c0,0.119,0.007,0.196,0.027,0.434c0.008,0.042,0.008,0.098,0.008,0.147c0,0.133-0.063,0.21-0.183,0.21
		c-0.266,0-0.44-0.567-0.44-1.435c0-0.581,0.042-0.945,0.224-1.876c0.056-0.28,0.077-0.413,0.077-0.511
		c0-0.224-0.098-0.357-0.378-0.497c0.056-0.021,0.098-0.035,0.126-0.035c0.146,0,0.371,0.091,0.56,0.231
		c0.196,0.14,0.273,0.252,0.273,0.392c0,0.091-0.014,0.133-0.098,0.266c-0.267,0.441-0.505,1.435-0.505,2.086
		c0,0.063,0,0.133,0.008,0.259h0.014c0.21-0.896,0.469-1.477,0.812-1.834c0.26-0.28,0.539-0.413,0.854-0.413
		c0.672,0,1.147,0.826,1.147,1.995c0,0.91-0.252,1.666-0.763,2.289c-0.413,0.511-0.882,0.84-1.547,1.106L9.987,33.143z"/>
	<path d="M16.966,33.044c0.546-0.434,0.756-0.686,1.029-1.246c-0.322-0.098-0.574-0.266-0.813-0.539
		c-0.308-0.371-0.476-0.924-0.476-1.582c0-0.049,0-0.133,0.007-0.259c-0.56,0.623-0.917,1.386-0.917,1.946c0,0.049,0,0.091,0,0.126
		c0.007,0.049,0.007,0.091,0.007,0.112c0,0.112-0.077,0.196-0.175,0.196c-0.238,0-0.413-0.588-0.413-1.414
		c0-0.357,0.021-0.672,0.084-1.176c0.035-0.322,0.042-0.42,0.042-0.553c0-0.231-0.098-0.462-0.266-0.637
		c0.146,0,0.23,0.042,0.406,0.182c0.224,0.196,0.378,0.427,0.378,0.581c0,0.07-0.008,0.098-0.084,0.259
		c-0.154,0.336-0.267,0.903-0.267,1.365c0,0.126,0.007,0.203,0.035,0.371c0.413-0.819,0.651-1.162,1.183-1.673
		c0.092-0.714,0.231-1.113,0.497-1.442c0.154-0.196,0.364-0.301,0.588-0.301c0.196,0,0.421,0.098,0.561,0.245
		c0.161,0.168,0.238,0.308,0.35,0.63c0.042,0,0.084,0,0.099,0c0.392,0,0.763,0.119,1.092,0.35c0.448,0.308,0.693,0.805,0.693,1.372
		c0,1.085-0.875,1.925-2.01,1.925c-0.049,0-0.111,0-0.217-0.007c-0.427,0.651-0.777,0.98-1.351,1.253L16.966,33.044z M16.924,29.181
		c-0.007,0.168-0.014,0.266-0.014,0.343c0,0.651,0.203,1.232,0.546,1.547c0.21,0.196,0.392,0.301,0.679,0.385
		c0.189-0.609,0.28-1.288,0.28-2.1c0-0.399-0.014-0.623-0.07-0.91C17.75,28.571,17.358,28.774,16.924,29.181z M18.317,28.277
		c-0.126-0.532-0.294-0.756-0.567-0.756c-0.392,0-0.679,0.49-0.805,1.393C17.393,28.571,17.792,28.382,18.317,28.277z M18.898,29.58
		c0,0.756-0.112,1.358-0.351,1.932c0.924,0,1.582-0.693,1.582-1.659c0-0.553-0.21-1.001-0.588-1.246
		c-0.231-0.147-0.434-0.21-0.777-0.217C18.863,28.879,18.898,29.181,18.898,29.58z"/>
	<path d="M24.281,33.164c0.413-0.336,0.686-0.623,0.924-1.008c0.364-0.595,0.595-1.407,0.595-2.128c0-0.693-0.252-1.12-0.665-1.12
		c-0.371,0-0.86,0.301-1.344,0.826c-0.133,0.133-0.175,0.161-0.287,0.161c-0.146,0-0.314-0.112-0.462-0.315
		c-0.119-0.161-0.189-0.343-0.189-0.469c0-0.091,0.028-0.154,0.112-0.259c0.063,0.308,0.203,0.483,0.385,0.483
		c0.099,0,0.28-0.077,0.645-0.273c0.595-0.322,0.826-0.399,1.183-0.399c0.322,0,0.665,0.182,0.868,0.469
		c0.168,0.245,0.266,0.609,0.266,1.029c0,0.826-0.314,1.645-0.867,2.261c-0.344,0.378-0.7,0.644-1.1,0.819L24.281,33.164z
		 M23.896,26.8c0.344,0.287,0.819,0.448,1.31,0.448h0.161c0.14,0,0.237,0.049,0.378,0.168c0.098,0.084,0.146,0.168,0.146,0.238
		c0,0.098-0.098,0.154-0.287,0.154c-0.294,0.007-0.294,0.007-1.742,0.427l-0.035-0.098c0.524-0.238,1.008-0.455,1.183-0.518
		c-0.574-0.119-0.917-0.336-1.183-0.763L23.896,26.8z"/>
	<path d="M29.349,28.271c0.329,0.231,0.561,0.308,0.932,0.308c0.321,0,0.84-0.091,1.147-0.21c-0.161-0.294-0.44-0.658-0.602-0.777
		c-0.084-0.07-0.294-0.126-0.539-0.147c0.049-0.119,0.091-0.147,0.28-0.189c0.111-0.028,0.195-0.035,0.321-0.035
		c0.245,0,0.413,0.035,0.477,0.091c0.063,0.056,0.069,0.077,0.084,0.273c0.007,0.14,0.007,0.14,0.287,0.7
		c0.56-0.203,0.763-0.308,0.966-0.511c0.049-0.049,0.112-0.07,0.217-0.07c0.273,0,0.413,0.063,0.413,0.182
		c0,0.084-0.077,0.14-0.343,0.259c-0.273,0.119-0.336,0.14-1.1,0.392c0.07,0.119,0.07,0.119,0.154,0.252
		c0.042,0.077,0.154,0.266,0.343,0.581c0.554-0.217,0.687-0.273,0.868-0.392c-0.146-0.147-0.196-0.189-0.364-0.322l0.05-0.077
		c0.266,0.14,0.447,0.196,0.588,0.196c0,0,0,0,0.126-0.014c0.021,0,0.042,0,0.056,0c0.112,0,0.189,0.07,0.189,0.175
		c0,0.161-0.406,0.378-1.358,0.714c0.203,0.343,0.23,0.406,0.315,0.546c0.153,0.287,0.153,0.287,0.321,0.553
		c0.084,0.133,0.119,0.245,0.119,0.378c0,0.273-0.091,0.455-0.23,0.455c-0.063,0-0.084-0.014-0.196-0.105
		c-0.357-0.287-1.008-0.483-1.624-0.483c-0.322,0-0.637,0.07-0.875,0.196c-0.287,0.147-0.42,0.329-0.42,0.567
		c0,0.434,0.462,0.665,1.323,0.665c0.343,0,0.546-0.021,0.882-0.091c0.035-0.007,0.063-0.014,0.084-0.014
		c0.21,0,0.462,0.196,0.462,0.364c0,0.063-0.035,0.105-0.105,0.133c-0.133,0.056-0.56,0.105-0.959,0.105
		c-0.546,0-1.028-0.077-1.344-0.21c-0.427-0.189-0.679-0.518-0.679-0.882c0-0.63,0.742-1.05,1.848-1.05
		c0.413,0,0.805,0.049,1.316,0.154c-0.077-0.28-0.267-0.686-0.525-1.19c-0.469,0.168-1.063,0.273-1.491,0.273
		c-0.301,0-0.524-0.063-0.728-0.203c-0.141-0.105-0.217-0.196-0.336-0.42l0.084-0.063c0.224,0.301,0.455,0.413,0.826,0.413
		c0.405,0,0.909-0.091,1.498-0.273c-0.147-0.273-0.329-0.588-0.49-0.84c-0.469,0.147-0.932,0.224-1.302,0.224
		c-0.386,0-0.715-0.168-1.022-0.511L29.349,28.271z M33.255,27.207c0.322,0.112,0.609,0.259,0.826,0.42
		c0.196,0.147,0.252,0.238,0.252,0.406c0,0.161-0.077,0.294-0.161,0.294c-0.056,0-0.098-0.035-0.161-0.133
		c-0.224-0.35-0.504-0.665-0.812-0.903L33.255,27.207z M33.85,26.787c0.364,0.119,0.651,0.245,0.826,0.357
		c0.196,0.126,0.267,0.238,0.267,0.42c0,0.161-0.063,0.287-0.141,0.287c-0.049,0-0.091-0.035-0.161-0.147
		c-0.188-0.28-0.455-0.539-0.854-0.826L33.85,26.787z"/>
	<path d="M7.67,37.56c0.813,0.294,1.106,0.434,1.596,0.728c0.588,0.336,0.687,0.448,0.687,0.77c0,0.42-0.225,0.882-0.42,0.882
		c-0.099,0-0.168-0.084-0.322-0.35c-0.126-0.224-0.434-0.644-0.7-0.952c-0.294-0.336-0.518-0.532-0.979-0.896L7.67,37.56z
		 M7.782,42.669c0.126,0.028,0.224,0.042,0.279,0.056c0.379,0.098,0.561,0.126,0.687,0.126c0.182,0,0.238-0.084,0.518-0.714
		c0.267-0.574,0.799-1.806,1.232-2.842c0.658-1.54,0.658-1.54,0.979-2.254l0.154,0.098l-1.946,5.88
		c-0.14,0.434-0.168,0.518-0.168,0.658c0,0.238,0.042,0.476,0.183,0.98c0.084,0.308,0.126,0.644,0.126,0.938
		c0,0.406-0.07,0.63-0.267,0.84c-0.195,0.21-0.56,0.392-0.77,0.392c-0.168,0-0.294-0.154-0.294-0.364c0-0.07,0.028-0.266,0.07-0.476
		c0.21-0.924,0.279-1.4,0.279-1.862c0-0.35-0.069-0.532-0.266-0.728c-0.224-0.224-0.434-0.35-0.854-0.518L7.782,42.669z
		 M8.482,34.424c0.728,0.294,1.344,0.602,1.834,0.91c0.434,0.28,0.573,0.448,0.573,0.784c0,0.378-0.224,0.868-0.392,0.868
		c-0.112,0-0.196-0.084-0.35-0.35c-0.168-0.294-0.322-0.518-0.603-0.868c-0.448-0.546-0.658-0.756-1.204-1.19L8.482,34.424z
		 M10.064,46.786c0.714-0.532,0.993-0.784,1.302-1.134c0.896-1.022,1.26-2.338,1.26-4.564c0-0.364-0.014-0.602-0.042-1.064
		c1.344,0.168,1.442,0.196,1.442,0.322c0,0.084-0.015,0.098-0.477,0.294c-0.07,1.568-0.098,1.848-0.196,2.506
		c-0.168,1.064-0.728,2.03-1.638,2.828c-0.476,0.42-0.826,0.644-1.567,0.994L10.064,46.786z M15.328,36.342
		c-0.574,1.05-0.868,1.498-1.512,2.38c2.1-0.084,2.352-0.098,4.06-0.238c-0.672-0.756-0.854-0.924-1.428-1.4l0.111-0.14
		c0.91,0.476,1.918,1.078,2.521,1.498c0.336,0.238,0.462,0.448,0.462,0.798c0,0.42-0.224,0.896-0.434,0.896
		c-0.084,0-0.169-0.084-0.28-0.294c-0.28-0.504-0.462-0.784-0.714-1.064c-1.778,0.322-1.778,0.322-6.006,0.896
		c-0.015,0.07-0.028,0.112-0.042,0.154c-0.042,0.196-0.084,0.28-0.168,0.28c-0.141,0-0.168-0.07-0.421-1.372
		c0.841,0.028,0.841,0.028,1.022,0.028c0.168,0,0.168,0,0.966-0.042c0.309-0.868,0.309-0.868,0.7-2.38h-1.75
		c-0.518,0-0.658,0.014-1.05,0.112L11.24,35.88c0.42,0.112,0.686,0.14,1.176,0.14h2.338v-0.63c0-0.462-0.014-0.7-0.056-1.232
		c0.321,0.042,0.588,0.07,0.742,0.084c0.686,0.07,0.882,0.126,0.882,0.266c0,0.112-0.07,0.14-0.588,0.308v1.204h2.59
		c0.35-0.448,0.462-0.588,0.84-1.022c0.602,0.476,0.77,0.616,1.344,1.106c0.07,0.07,0.098,0.112,0.098,0.14
		c0,0.07-0.056,0.098-0.168,0.098H15.328z M15.678,42.082c0,1.498,0,1.904,0.042,4.228c-0.014,0.112-0.027,0.14-0.098,0.182
		c-0.07,0.028-0.477,0.07-0.658,0.07c-0.126,0-0.182-0.056-0.196-0.168c0.028-1.946,0.042-2.926,0.042-4.928
		c0-0.574-0.014-0.882-0.056-1.456c1.288,0.154,1.428,0.182,1.428,0.322c0,0.098-0.084,0.14-0.504,0.28V42.082z M17.148,41.382
		c0-0.742,0-0.84-0.043-1.33c1.219,0.112,1.498,0.168,1.498,0.294c0,0.112-0.14,0.196-0.56,0.322v4.76
		c0,0.21,0.028,0.252,0.182,0.252c0.154,0,0.28,0.014,0.364,0.014c0.042,0,0.056,0,0.056,0c0.519,0,0.729-0.042,0.813-0.14
		c0.112-0.154,0.196-0.476,0.77-2.814l0.225,0.014l-0.21,2.478c0,0.056,0,0.14,0,0.182c0,0.168,0,0.168,0.294,0.294
		c0.14,0.056,0.21,0.154,0.21,0.294c0,0.224-0.196,0.392-0.532,0.448c-0.28,0.042-0.979,0.07-1.61,0.07
		c-1.26,0-1.455-0.112-1.455-0.826c0-0.77,0-0.77,0-1.638V41.382z"/>
	<path d="M21.474,41.074c0.477-0.77,0.673-1.12,1.078-2.03c0.882-1.988,1.33-3.416,1.54-4.886c1.162,0.224,1.596,0.35,1.596,0.504
		c0,0.112-0.224,0.21-0.644,0.28c-0.392,1.33-0.756,2.17-1.54,3.598c0.854,0.112,1.008,0.154,1.008,0.308
		c0,0.098-0.126,0.182-0.42,0.266v4.998c0,0.434,0,0.63,0.015,2.562c0,0.112-0.015,0.154-0.057,0.182
		c-0.056,0.056-0.476,0.112-0.77,0.112c-0.112,0-0.168-0.056-0.168-0.14c0-0.028,0-0.056,0-0.084
		c0.014-0.224,0.014-1.722,0.042-4.494v-3.08c-0.504,0.826-0.771,1.204-1.471,2.03L21.474,41.074z M26.864,42.348l-0.854,0.014
		c-0.588,0-0.882,0.014-1.483,0.07L24.4,41.914c0.56,0.084,0.924,0.112,1.483,0.112h0.126l0.854-0.014V40.99
		c-0.756,0.14-1.134,0.182-1.975,0.252l-0.042-0.154c0.84-0.182,1.582-0.406,2.395-0.742c0.336-0.14,0.42-0.182,0.77-0.406
		l0.267-0.168c0.854,0.602,0.979,0.714,0.979,0.84c0,0.07-0.084,0.14-0.168,0.14c-0.112,0-0.168-0.014-0.49-0.154
		c-0.42,0.112-0.518,0.14-0.924,0.238v1.162l2.338-0.028c-0.069-0.308-0.098-0.504-0.126-0.77c-0.069-0.826-0.084-0.854-0.182-1.246
		c1.176,0.112,1.218,0.126,1.218,0.252c0,0.07-0.056,0.112-0.266,0.224c0,0.728,0.027,0.98,0.126,1.526l2.016-0.028
		c0.294-0.378,0.378-0.49,0.7-0.854c0.49,0.406,0.63,0.518,1.063,0.952c0.042,0.042,0.07,0.084,0.07,0.112
		c0,0.056-0.056,0.084-0.21,0.084l-3.556,0.056c0.168,0.644,0.364,1.064,0.728,1.554c0.322-0.378,0.532-0.686,0.826-1.218
		c1.162,0.574,1.162,0.574,1.162,0.686c0,0.14-0.112,0.168-0.602,0.182c-0.406,0.462-0.561,0.63-0.883,0.938
		c0.364,0.378,0.813,0.742,1.093,0.868c0.084,0.042,0.14,0.07,0.168,0.098c0.027,0.014,0.042,0.028,0.056,0.028
		c0.042,0,0.098-0.056,0.168-0.182c0.112-0.21,0.252-0.448,0.378-0.686c0.224-0.378,0.238-0.42,0.462-0.812l0.154,0.07l-0.364,1.428
		c-0.028,0.126-0.042,0.21-0.042,0.28c0,0.126,0.014,0.14,0.294,0.434c0.084,0.084,0.154,0.266,0.154,0.406
		c0,0.182-0.183,0.336-0.378,0.336c-0.238,0-0.784-0.224-1.303-0.532c-0.56-0.336-1.008-0.714-1.455-1.204
		c-0.994,0.77-1.82,1.204-3.206,1.68l-0.084-0.21c0.756-0.336,1.302-0.686,2.155-1.4c0.267-0.21,0.462-0.392,0.7-0.616
		c-0.476-0.686-0.742-1.302-0.966-2.114l-2.408,0.042v1.232c0.896-0.154,1.246-0.224,2.03-0.42l0.056,0.196
		c-0.924,0.35-1.33,0.49-2.086,0.728v0.63l0.015,1.036c0,0.084,0,0.182,0,0.336c0,0.35-0.057,0.476-0.295,0.63
		c-0.224,0.154-0.462,0.224-0.938,0.266c-0.098-0.588-0.336-0.714-1.428-0.84v-0.182c1.204,0.098,1.204,0.098,1.693,0.098
		c0.015,0,0.028,0,0.028,0c0.084,0,0.112-0.042,0.112-0.168v-1.568c-0.532,0.14-0.784,0.21-1.513,0.378
		c-0.027,0.07-0.042,0.126-0.056,0.168c-0.07,0.224-0.112,0.294-0.196,0.294c-0.126,0-0.126,0-0.378-1.246
		c0.574-0.028,1.05-0.07,2.143-0.224V42.348z M29.706,37.644h2.072c0.308-0.364,0.405-0.476,0.714-0.812
		c0.462,0.392,0.616,0.504,1.063,0.896c0.057,0.07,0.084,0.112,0.084,0.154c0,0.056-0.056,0.084-0.182,0.084h-3.752v1.274h2.884
		c0.322-0.378,0.42-0.49,0.756-0.868c0.477,0.42,0.63,0.546,1.078,0.966c0.056,0.056,0.084,0.098,0.084,0.14
		s-0.056,0.084-0.154,0.084h-8.329c-0.322,0-0.603,0.014-1.162,0.084l-0.141-0.518c0.378,0.056,1.078,0.112,1.303,0.112h2.827
		v-1.274h-1.47c-0.56,0-0.854,0.028-1.456,0.112l-0.111-0.532c0.462,0.07,0.951,0.098,1.567,0.098h1.47v-1.288h-2.323
		c-0.519,0-0.729,0.014-1.261,0.098l-0.126-0.546c0.616,0.098,0.967,0.126,1.429,0.126h1.302c-0.07-0.112-0.084-0.154-0.154-0.322
		c-0.182-0.518-0.364-0.812-0.84-1.358l0.154-0.126c0.532,0.196,0.826,0.364,1.26,0.7c0.196,0.154,0.28,0.28,0.28,0.406
		c0,0.252-0.126,0.504-0.351,0.7h1.834c0.294-0.504,0.645-1.358,0.784-1.946c1.19,0.378,1.386,0.476,1.386,0.616
		c0,0.112-0.168,0.168-0.56,0.182c-0.392,0.392-0.392,0.392-1.26,1.148h2.058c0.308-0.378,0.406-0.49,0.742-0.868
		c0.546,0.392,0.714,0.532,1.231,0.966c0.057,0.056,0.084,0.112,0.084,0.14c0,0.07-0.027,0.084-0.21,0.084h-4.605V37.644z
		 M31.344,40.065c1.036,0.28,1.442,0.518,1.442,0.882c0,0.308-0.183,0.686-0.336,0.686c-0.099,0-0.141-0.042-0.252-0.28
		c-0.154-0.336-0.448-0.7-0.924-1.148L31.344,40.065z"/>
</g>
<rect x="7.25" y="7.25" fill="none" stroke="#008CD6" stroke-width="0.5" width="28" height="14"/>
<line fill="none" stroke="#008CD6" stroke-width="0.5" x1="21.25" y1="21.25" x2="21.25" y2="7.25"/>
<polyline fill="none" stroke="#008CD6" stroke-width="0.5" points="7.25,7.25 7.25,0.25 35.25,0.25 35.25,7.25 "/>
<line fill="none" stroke="#008CD6" stroke-width="0.5" x1="21.25" y1="7.25" x2="21.25" y2="0.25"/>
<line fill="none" stroke="#008CD6" stroke-width="0.5" x1="28.25" y1="7.25" x2="28.25" y2="0.25"/>
<line fill="none" stroke="#008CD6" stroke-width="0.5" x1="14.25" y1="7.25" x2="14.25" y2="0.25"/>
<line fill="none" stroke="#008CD6" stroke-width="0.5" x1="0.25" y1="79.25" x2="0.25" y2="65.25"/>
<line fill="none" stroke="#008CD6" stroke-width="0.5" x1="14.25" y1="79.25" x2="14.25" y2="65.25"/>
<line fill="none" stroke="#008CD6" stroke-width="0.5" x1="28.25" y1="79.25" x2="28.25" y2="65.25"/>
</svg>
