<?xml version="1.0" encoding="utf-8"?>
<!-- Generator: Adobe Illustrator 12.0.0, SVG Export Plug-In . SVG Version: 6.00 Build 51448)  -->
<!DOCTYPE svg PUBLIC "-//W3C//DTD SVG 1.1//EN" "http://www.w3.org/Graphics/SVG/1.1/DTD/svg11.dtd" [
	<!ENTITY ns_svg "http://www.w3.org/2000/svg">
	<!ENTITY ns_xlink "http://www.w3.org/1999/xlink">
]>
<svg  version="1.1" id="レイヤー_1" xmlns="&ns_svg;" xmlns:xlink="&ns_xlink;" width="126.753"
	 viewBox="0 0 84.502 46.828" overflow="visible" enable-background="new 0 0 84.502 46.828" xml:space="preserve">
<g>
	<path d="M6.796,6.794C7.342,6.36,7.552,6.108,7.825,5.548C7.503,5.451,7.251,5.283,7.013,5.009
		C6.705,4.639,6.537,4.085,6.537,3.428c0-0.049,0-0.133,0.007-0.259c-0.56,0.623-0.917,1.386-0.917,1.946c0,0.049,0,0.091,0,0.126
		C5.634,5.29,5.634,5.332,5.634,5.353c0,0.112-0.077,0.196-0.175,0.196c-0.238,0-0.413-0.588-0.413-1.414
		c0-0.357,0.021-0.672,0.084-1.176c0.035-0.322,0.042-0.42,0.042-0.553c0-0.231-0.098-0.462-0.266-0.637
		c0.146,0,0.23,0.042,0.406,0.182C5.536,2.146,5.69,2.377,5.69,2.532c0,0.07-0.008,0.098-0.084,0.259
		C5.452,3.126,5.34,3.693,5.34,4.155c0,0.126,0.007,0.203,0.035,0.371c0.413-0.819,0.651-1.162,1.183-1.673
		C6.649,2.14,6.789,1.741,7.055,1.412C7.209,1.215,7.419,1.11,7.643,1.11c0.196,0,0.421,0.098,0.561,0.245
		c0.161,0.168,0.238,0.308,0.35,0.63c0.042,0,0.084,0,0.099,0c0.392,0,0.763,0.119,1.092,0.35c0.448,0.308,0.693,0.805,0.693,1.372
		c0,1.085-0.875,1.925-2.01,1.925c-0.049,0-0.111,0-0.217-0.007c-0.427,0.651-0.777,0.98-1.351,1.253L6.796,6.794z M6.754,2.931
		C6.747,3.099,6.74,3.196,6.74,3.273c0,0.651,0.203,1.232,0.546,1.547c0.21,0.196,0.392,0.301,0.679,0.385
		c0.189-0.609,0.28-1.288,0.28-2.1c0-0.399-0.014-0.623-0.07-0.91C7.58,2.321,7.188,2.524,6.754,2.931z M8.147,2.027
		C8.021,1.496,7.854,1.271,7.58,1.271c-0.392,0-0.679,0.49-0.805,1.393C7.223,2.321,7.622,2.132,8.147,2.027z M8.729,3.33
		c0,0.756-0.112,1.358-0.351,1.932c0.924,0,1.582-0.693,1.582-1.659c0-0.553-0.21-1.001-0.588-1.246
		C9.141,2.209,8.938,2.146,8.595,2.14C8.693,2.629,8.729,2.931,8.729,3.33z"/>
	<path d="M20.817,6.893c0.497-0.308,0.805-0.581,1.112-0.98c0.49-0.651,0.735-1.442,0.735-2.359c0-0.609-0.104-1.183-0.259-1.442
		c-0.126-0.203-0.294-0.308-0.497-0.308c-0.351,0-0.672,0.301-0.924,0.875c-0.203,0.455-0.329,1.029-0.329,1.505
		c0,0.119,0.007,0.196,0.027,0.434c0.008,0.042,0.008,0.098,0.008,0.147c0,0.133-0.063,0.21-0.183,0.21
		c-0.266,0-0.44-0.567-0.44-1.435c0-0.581,0.042-0.945,0.224-1.876c0.056-0.28,0.077-0.413,0.077-0.511
		c0-0.224-0.098-0.357-0.378-0.497c0.056-0.021,0.098-0.035,0.126-0.035c0.146,0,0.371,0.091,0.56,0.231
		c0.196,0.14,0.273,0.252,0.273,0.392c0,0.091-0.014,0.133-0.098,0.266c-0.267,0.441-0.505,1.435-0.505,2.086
		c0,0.063,0,0.133,0.008,0.259h0.014c0.21-0.896,0.469-1.477,0.812-1.834c0.26-0.28,0.539-0.413,0.854-0.413
		c0.672,0,1.147,0.826,1.147,1.995c0,0.91-0.252,1.666-0.763,2.289c-0.413,0.511-0.882,0.84-1.547,1.106L20.817,6.893z"/>
	<path d="M49.258,6.683C49.77,6.27,50,6.039,50.252,5.688s0.42-0.679,0.623-1.211c-0.609-0.322-1.211-0.476-2.009-0.511
		c-0.427,0.777-0.609,1.071-0.847,1.386c-0.26,0.322-0.477,0.483-0.673,0.483c-0.294,0-0.539-0.336-0.539-0.742
		c0-0.357,0.176-0.714,0.477-0.966c0.308-0.259,0.77-0.42,1.33-0.462c0.098-0.168,0.111-0.217,0.497-1.099
		c0.224-0.532,0.252-0.609,0.363-0.987c-0.168,0.042-0.65,0.196-1.008,0.322c-0.111,0.035-0.168,0.049-0.23,0.049
		c-0.217,0-0.441-0.343-0.441-0.679c0-0.07,0.014-0.105,0.077-0.161c0.14,0.322,0.266,0.427,0.525,0.427
		c0.182,0,0.398-0.035,0.741-0.119c0.183-0.049,0.21-0.063,0.309-0.147c0.042-0.049,0.084-0.063,0.146-0.063
		c0.154,0,0.504,0.371,0.504,0.546c0,0.056-0.027,0.105-0.104,0.161c-0.161,0.133-0.224,0.231-0.707,1.19
		c-0.189,0.378-0.217,0.434-0.287,0.567c0.707,0.035,1.316,0.154,2.009,0.399c0.119-0.364,0.231-0.903,0.231-1.127
		c0-0.189-0.099-0.315-0.364-0.483c0.049-0.035,0.077-0.042,0.126-0.042c0.119,0,0.28,0.056,0.49,0.161
		c0.224,0.112,0.329,0.224,0.329,0.35c0,0.07-0.007,0.105-0.063,0.245c-0.021,0.049-0.063,0.196-0.168,0.525
		c-0.035,0.126-0.063,0.21-0.161,0.532c0.84,0.42,1.064,0.623,1.064,0.994c0,0.14-0.07,0.252-0.161,0.252
		c-0.063,0-0.112-0.035-0.238-0.147c-0.224-0.224-0.455-0.406-0.833-0.658c-0.308,0.672-0.524,1.008-0.896,1.365
		c-0.315,0.301-0.603,0.504-1.05,0.721L49.258,6.683z M47.109,4.925c0,0.259,0.146,0.504,0.301,0.504c0.23,0,0.525-0.406,1.063-1.47
		C47.578,4.058,47.109,4.387,47.109,4.925z"/>
	<path d="M72.813,3.861c-0.126,0.441-0.322,1.204-0.406,1.547c-0.07,0.308-0.091,0.42-0.091,0.595
		c-0.008,0.224-0.015,0.252-0.05,0.308c-0.034,0.049-0.076,0.077-0.133,0.077c-0.119,0-0.217-0.098-0.301-0.315
		c-0.14-0.357-0.224-0.889-0.224-1.407c0-0.644,0.077-1.232,0.314-2.331c0.091-0.434,0.105-0.511,0.105-0.63
		c0-0.21-0.057-0.378-0.203-0.616c0.161,0.007,0.294,0.098,0.49,0.35c0.161,0.203,0.252,0.399,0.252,0.532
		c0,0.077,0,0.077-0.112,0.308c-0.336,0.7-0.532,1.533-0.532,2.282c0,0.357,0.028,0.581,0.112,0.868l0.294-0.7l0.378-0.903
		L72.813,3.861z M73.513,2.595c0.336,0.217,0.554,0.287,0.903,0.287c0.245,0,0.511-0.035,0.798-0.098c0-0.133,0-0.245,0-0.308
		c0-0.784-0.007-0.875-0.098-0.973c-0.084-0.091-0.238-0.14-0.462-0.161c0.098-0.091,0.153-0.112,0.336-0.112
		c0.154,0,0.343,0.028,0.476,0.063c0.203,0.063,0.309,0.147,0.309,0.252c0,0.049,0,0.056-0.063,0.217
		c-0.077,0.203-0.119,0.455-0.146,0.938c0.321-0.091,0.524-0.182,0.644-0.287c0.07-0.07,0.091-0.077,0.154-0.077
		c0.084,0,0.245,0.042,0.329,0.091c0.056,0.028,0.091,0.077,0.091,0.126c0,0.154-0.511,0.364-1.239,0.504
		c0,0.931,0.021,1.316,0.091,1.904c0.813,0.217,1.155,0.49,1.155,0.896c0,0.147-0.063,0.259-0.14,0.259
		c-0.057,0-0.105-0.035-0.245-0.175c-0.309-0.315-0.483-0.441-0.756-0.56c0.007,0.063,0.007,0.119,0.007,0.168
		c0,0.504-0.42,0.805-1.12,0.805c-0.609,0-1.036-0.294-1.036-0.714c0-0.483,0.518-0.791,1.316-0.791c0.133,0,0.23,0.007,0.427,0.021
		c0-0.063,0-0.105,0-0.119l-0.014-0.749l-0.008-0.896c-0.21,0.042-0.413,0.056-0.615,0.056c-0.512,0-0.806-0.126-1.155-0.49
		L73.513,2.595z M74.584,5.149c-0.553,0-0.896,0.182-0.896,0.49c0,0.245,0.272,0.413,0.686,0.413c0.385,0,0.658-0.112,0.771-0.329
		c0.069-0.126,0.091-0.231,0.091-0.49C75.039,5.178,74.843,5.149,74.584,5.149z"/>
	<path d="M78.477,2.035c0.336,0.315,0.531,0.406,0.882,0.406c0.182,0,0.371-0.028,0.637-0.084c0.175-0.455,0.252-0.749,0.252-0.994
		c0-0.231-0.112-0.371-0.448-0.539c0.077-0.042,0.112-0.049,0.168-0.049c0.141,0,0.357,0.063,0.561,0.161
		c0.237,0.119,0.329,0.196,0.329,0.294c0,0.056-0.015,0.098-0.07,0.182c-0.028,0.056-0.175,0.343-0.427,0.861
		c0.518-0.182,0.581-0.217,0.776-0.385c0.057-0.049,0.077-0.056,0.147-0.056c0.272,0,0.476,0.091,0.476,0.21
		c0,0.182-0.434,0.357-1.547,0.616c-0.063,0.14-0.182,0.427-0.371,0.847c-0.21,0.483-0.749,1.659-0.812,1.778
		c-0.105,0.189-0.168,0.252-0.252,0.252c-0.119,0-0.217-0.217-0.217-0.497c0-0.14,0.014-0.182,0.076-0.252
		c0.154-0.168,0.238-0.273,0.336-0.42c0.344-0.511,0.596-0.987,0.875-1.645c-0.153,0.021-0.217,0.028-0.328,0.028
		c-0.253,0-0.441-0.042-0.616-0.147c-0.21-0.119-0.371-0.287-0.512-0.511L78.477,2.035z M82.179,2.427
		c0.483,0.042,0.875,0.168,1.197,0.385c0.273,0.175,0.441,0.385,0.441,0.546c0,0.119-0.07,0.203-0.183,0.203
		c-0.056,0-0.098-0.014-0.161-0.056c-0.195-0.119-0.328-0.147-0.686-0.147c-0.56,0-0.735,0.154-0.735,0.637
		c0,0.189,0.035,0.49,0.141,1.204c0.427,0.126,0.791,0.294,0.994,0.455c0.188,0.147,0.279,0.329,0.279,0.553
		c0,0.14-0.056,0.238-0.14,0.238c-0.07,0-0.098-0.021-0.245-0.182c-0.252-0.273-0.483-0.441-0.847-0.616c0,0.056,0,0.105,0,0.133
		c0,0.28-0.057,0.441-0.196,0.595c-0.189,0.189-0.518,0.301-0.91,0.301c-0.63,0-1.063-0.301-1.063-0.742
		c0-0.49,0.531-0.833,1.309-0.833c0.161,0,0.238,0.007,0.42,0.035c-0.021-0.553-0.021-0.609-0.021-0.693
		c0-0.574,0.056-0.791,0.244-1.001c0.141-0.147,0.337-0.245,0.665-0.329c0.105-0.028,0.119-0.035,0.379-0.091
		c-0.189-0.203-0.406-0.315-0.903-0.483L82.179,2.427z M81.801,5.493c-0.217-0.063-0.378-0.084-0.602-0.084
		c-0.595,0-0.959,0.203-0.959,0.532c0,0.259,0.266,0.413,0.7,0.413c0.566,0,0.86-0.231,0.86-0.672V5.493z"/>
	<path d="M8.126,9.083c-0.979,1.778-1.063,1.904-1.582,2.702h4.271c0.252-0.294,0.336-0.378,0.588-0.658
		c0.405,0.322,0.531,0.42,0.938,0.756c0.042,0.042,0.07,0.084,0.07,0.126c0,0.084-0.056,0.126-0.49,0.336
		c0.014,5.74,0.014,5.74,0.098,7.896c-0.014,0.21-0.168,0.266-0.741,0.266c-0.238,0-0.294-0.028-0.322-0.196V19.5H4.15v0.756
		c-0.015,0.168-0.042,0.224-0.183,0.266c-0.153,0.042-0.336,0.056-0.546,0.056c-0.196,0-0.266-0.056-0.266-0.196
		c0-0.014,0-0.042,0-0.056c0.027-2.044,0.042-3.78,0.042-6.188c0-0.854,0-0.938-0.028-2.142c-0.014-0.476-0.014-0.476-0.014-0.868
		c0.504,0.28,0.658,0.364,1.134,0.658h1.876c0.056-0.196,0.056-0.196,0.168-0.574c0.196-0.658,0.308-1.148,0.476-2.128H3.002
		c-0.588,0-1.246,0.028-1.694,0.07L1.224,8.58c0.658,0.126,1.204,0.182,1.778,0.182h8.666c0.35-0.476,0.448-0.616,0.826-1.078
		c0.658,0.504,0.854,0.672,1.512,1.204c0.042,0.042,0.07,0.084,0.07,0.112c0,0.056-0.057,0.084-0.154,0.084H8.126z M10.954,12.108
		H4.15v3.164h6.804V12.108z M4.15,15.594v3.584h6.804v-3.584H4.15z"/>
	<path d="M15.042,14.684c1.554-1.078,2.688-2.156,3.948-3.738c0.658-0.826,1.26-1.736,1.54-2.31c0.098-0.21,0.153-0.364,0.252-0.686
		c0.322,0.056,0.56,0.112,0.714,0.14c0.77,0.154,0.938,0.21,0.938,0.336c0,0.112-0.168,0.196-0.546,0.266
		c0.687,1.148,1.624,2.128,2.885,3.038c1.189,0.854,2.323,1.386,3.626,1.736l-0.028,0.196c-0.588,0.07-0.813,0.266-1.106,0.924
		c-1.302-0.672-2.058-1.218-3.08-2.282c-1.035-1.05-1.498-1.694-2.506-3.472c-0.994,1.582-1.876,2.632-3.164,3.794
		c-1.119,0.994-2.029,1.624-3.317,2.268L15.042,14.684z M18.5,20.2c0,0.126-0.014,0.168-0.084,0.196
		c-0.126,0.042-0.448,0.084-0.728,0.084c-0.154,0-0.196-0.042-0.196-0.196c0.028-2.184,0.042-2.87,0.042-3.444
		c0-1.106-0.014-1.624-0.042-2.156c0.518,0.294,0.672,0.392,1.12,0.714h5.655c0.225-0.308,0.309-0.406,0.574-0.714
		c0.393,0.294,0.519,0.392,0.896,0.714c0.111,0.098,0.14,0.14,0.14,0.196c0,0.084-0.126,0.182-0.462,0.294
		c0,2.044,0,2.044,0.056,4.214c0,0.028,0,0.042,0,0.056c0,0.112-0.027,0.154-0.126,0.182c-0.098,0.042-0.56,0.098-0.714,0.098
		c-0.14,0-0.21-0.056-0.21-0.168c0-0.014,0-0.042,0-0.07v-0.588H18.5V20.2z M18.486,12.906c0.405,0.07,0.742,0.112,1.036,0.112
		h2.926c0.322-0.35,0.42-0.476,0.742-0.84c0.504,0.392,0.672,0.504,1.176,0.924c0.069,0.07,0.112,0.126,0.112,0.168
		c0,0.056-0.028,0.07-0.183,0.07h-4.773c-0.267,0-0.477,0.014-0.925,0.084L18.486,12.906z M18.5,19.29h5.922v-3.57H18.5V19.29z"/>
	<path d="M35.468,19.318c1.513-0.448,2.479-1.022,3.276-1.946c0.826-0.938,1.246-2.086,1.246-3.374c0-1.358-0.546-2.436-1.582-3.094
		c-0.616-0.406-1.54-0.644-2.422-0.644c-0.168,0-0.267,0-0.49,0.028c0.336,0.49,0.434,0.756,0.434,1.162
		c0,1.092-0.783,3.136-1.848,4.844c-0.882,1.4-1.568,2.086-2.086,2.086c-0.238,0-0.462-0.112-0.616-0.294
		c-0.126-0.168-0.154-0.224-0.392-0.896c-0.126-0.364-0.21-0.532-0.616-1.316c-0.224-0.448-0.322-0.826-0.322-1.274
		c0-0.882,0.477-1.918,1.261-2.772c1.134-1.204,2.981-1.96,4.815-1.96c1.414,0,2.716,0.462,3.612,1.288
		c0.896,0.826,1.344,1.932,1.344,3.29c0,1.75-1.022,3.304-2.786,4.242c-0.812,0.434-1.54,0.658-2.729,0.868L35.468,19.318z
		 M30.862,14.964c0,0.672,0.21,1.358,0.56,1.848c0.196,0.252,0.378,0.406,0.532,0.406c0.308,0,0.979-0.756,1.666-1.848
		c1.036-1.652,1.778-3.458,1.778-4.326c0-0.21-0.042-0.35-0.196-0.7C32.766,10.778,30.862,12.808,30.862,14.964z"/>
	<path d="M46.206,12.472c-0.238,0-0.35,0-1.246,0.07l-0.14-0.49c0.308,0.042,0.308,0.042,1.372,0.098h2.771c0-0.182,0-0.182,0-0.686
		c0-0.392-0.014-0.588-0.056-0.994c1.512,0.168,1.512,0.168,1.512,0.294c0,0.056-0.028,0.112-0.14,0.182
		c0,0-0.057,0.028-0.168,0.098c-0.042,0.028-0.084,0.056-0.126,0.084c0,0.602,0,0.602-0.015,1.022h2.464l0.729-0.868
		c0.532,0.42,0.7,0.56,1.232,0.994c0.042,0.042,0.056,0.07,0.056,0.098c0,0.056-0.056,0.098-0.126,0.098h-4.368
		c-0.014,0.574-0.028,0.868-0.07,1.498h2.479l0.756-0.91c0.546,0.448,0.714,0.588,1.274,1.078c0.014,0.014,0.027,0.042,0.027,0.056
		c0,0.042-0.056,0.098-0.126,0.098H49.86c-0.057,0.644-0.112,0.994-0.225,1.554h3.626c0.378-0.448,0.49-0.588,0.896-0.98
		c0.588,0.448,0.77,0.602,1.357,1.106c0.057,0.056,0.084,0.098,0.084,0.126c0,0.042-0.042,0.07-0.084,0.07h-5.754
		c0.561,0.798,1.148,1.33,2.156,1.904c1.106,0.644,2.437,0.98,4.229,1.106v0.154c-0.505,0.182-0.742,0.476-0.896,1.092
		c-1.652-0.378-2.898-1.008-4.032-2.044c-0.798-0.714-1.246-1.246-1.722-2.058c-0.294,0.868-0.756,1.526-1.498,2.156
		c-1.26,1.078-2.66,1.68-4.858,2.1l-0.056-0.182c1.61-0.504,2.702-1.078,3.752-1.932c0.896-0.756,1.4-1.428,1.68-2.296h-3.43
		c-0.63,0-0.84,0.014-1.33,0.098l-0.14-0.532c0.434,0.056,1.078,0.112,1.47,0.112h3.528c0.14-0.56,0.182-0.868,0.237-1.554h-2.575
		c-0.309,0-0.574,0.014-1.219,0.07l-0.168-0.504c0.294,0.042,1.19,0.112,1.372,0.112h2.618c0.042-0.63,0.057-0.84,0.07-1.498H46.206
		z M54.004,9.686l0.645-0.728c0.531,0.35,0.686,0.462,1.218,0.798c0.126,0.112,0.21,0.196,0.21,0.266
		c0,0.042-0.028,0.084-0.07,0.112c-0.056,0.028-0.196,0.07-0.364,0.112c-0.321,0.084-0.489,0.126-0.518,0.14
		c-0.546,0.476-0.812,0.7-1.4,1.162l-0.168-0.098c0.309-0.574,0.42-0.84,0.63-1.442h-9.17c-0.098,1.036-0.686,2.128-1.134,2.128
		c-0.21,0-0.448-0.434-0.448-0.798c0-0.168,0.07-0.28,0.322-0.462c0.63-0.462,0.813-0.784,1.064-1.918h0.237
		c0,0.518,0,0.518-0.014,0.728h3.92V8.804c0-0.322-0.014-0.518-0.042-0.952c0.588,0.056,1.232,0.14,1.442,0.196
		c0.14,0.028,0.195,0.07,0.195,0.126c0,0.098-0.014,0.112-0.588,0.406v1.106H54.004z"/>
	<path d="M61.522,8.524c0.42,0,1.077,0.126,1.414,0.266c0.279,0.112,0.392,0.252,0.392,0.448c0,0.014,0,0.028,0,0.028
		c0,0.112-0.014,0.112-0.112,0.364c-0.168,0.476-0.308,1.68-0.308,2.842c0,0.826,0.112,1.036,0.546,1.036
		c0.294,0,0.602-0.112,1.876-0.714c0.252-0.126,0.406-0.168,0.574-0.168c0.336,0,0.672,0.294,0.672,0.588
		c0,0.182-0.098,0.336-0.294,0.42c-0.099,0.042-0.294,0.112-0.938,0.294c-1.693,0.476-2.618,0.896-3.5,1.568
		c-0.756,0.588-1.092,1.134-1.092,1.792c0,1.008,0.798,1.526,2.353,1.526c0.867,0,2.239-0.168,3.247-0.406
		c0.141-0.028,0.196-0.042,0.28-0.042c0.364,0,0.756,0.35,0.756,0.686c0,0.252-0.153,0.378-0.602,0.462s-1.848,0.182-2.688,0.182
		c-1.021,0-1.792-0.112-2.38-0.322c-0.938-0.35-1.525-1.148-1.525-2.072c0-0.812,0.447-1.582,1.372-2.352
		c0.42-0.364,0.882-0.672,1.708-1.12c-0.309,0-0.435-0.042-0.673-0.21c-0.21-0.154-0.336-0.462-0.405-1.064
		c-0.042-0.336-0.057-0.644-0.099-1.694c-0.042-1.19-0.056-1.4-0.168-1.61c-0.153-0.266-0.42-0.406-1.008-0.504
		C61.13,8.566,61.242,8.524,61.522,8.524z"/>
	<path d="M71.168,16.798c1.05-1.134,1.694-1.974,2.282-2.94c0.546-0.924,0.938-1.764,1.134-2.436c0.504,0.168,1.246,0.434,1.4,0.504
		c0.056,0.028,0.111,0.084,0.111,0.126c0,0.112-0.195,0.182-0.56,0.182c-0.014,0-0.056,0-0.098-0.014
		c-0.505,0.812-0.742,1.148-1.246,1.792c0.882,0.168,1.078,0.238,1.078,0.35c0,0.126-0.112,0.182-0.547,0.294v2.31
		c0,1.036,0,1.036,0,3.332c-0.042,0.168-0.126,0.196-0.518,0.21c-0.112,0-0.182,0.014-0.224,0.014c-0.028,0-0.042,0-0.042,0
		c-0.154,0-0.225-0.056-0.225-0.182c0.057-2.898,0.057-2.898,0.057-3.374v-2.408c-0.952,1.162-1.513,1.68-2.479,2.408L71.168,16.798
		z M78.798,9.602V8.72c0-0.392,0-0.476-0.027-0.826c1.497,0.21,1.497,0.21,1.497,0.336s-0.168,0.21-0.56,0.294
		c0,0.434,0,0.798,0,1.078h1.862c0.392-0.434,0.531-0.574,0.91-0.994c0.588,0.476,0.77,0.63,1.344,1.134
		c0.027,0.028,0.042,0.056,0.042,0.084c0,0.056-0.07,0.098-0.126,0.098h-4.032c0,0.742,0,0.742,0.014,1.274
		c-0.014,0.098-0.042,0.154-0.098,0.182c-0.112,0.042-0.364,0.07-0.602,0.07c-0.168,0-0.225-0.042-0.238-0.182
		c0.014-0.602,0.014-0.602,0.014-1.344h-2.813c0,0.784,0,0.784,0,1.274c-0.028,0.154-0.112,0.182-0.477,0.196
		c-0.069,0-0.14,0.014-0.195,0.014c-0.015,0-0.028,0-0.028,0c-0.154,0-0.224-0.056-0.238-0.182c0.028-0.518,0.028-0.518,0.028-1.302
		H72.61c-0.448,0-0.84,0.042-1.177,0.112L71.35,9.462c0.574,0.112,0.784,0.14,1.261,0.14h2.464c0-0.112,0-0.14,0-0.21
		c0-0.616-0.014-1.204-0.042-1.526c1.525,0.182,1.525,0.182,1.525,0.322c0,0.126-0.042,0.14-0.573,0.336v1.078H78.798z
		 M78.672,15.874c0.561-0.42,0.924-0.742,1.512-1.358c0.925-0.966,1.4-1.582,1.723-2.212c1.33,0.756,1.344,0.77,1.344,0.882
		c0,0.07-0.112,0.14-0.238,0.14s-0.252-0.014-0.405-0.028c-1.345,1.288-2.604,2.212-3.935,2.898v2.996
		c0,0.07,0.084,0.112,0.225,0.126c0.195,0.028,1.582,0.07,1.932,0.07c0.476,0,1.218-0.042,1.344-0.084
		c0.154-0.042,0.196-0.112,0.351-0.518c0.224-0.602,0.405-1.19,0.714-2.324h0.182l-0.182,2.24c-0.015,0.224-0.015,0.336-0.015,0.35
		c0,0.098,0.028,0.126,0.225,0.196c0.224,0.084,0.308,0.182,0.308,0.35c0,0.238-0.168,0.392-0.546,0.476
		c-0.308,0.056-1.414,0.112-2.534,0.112c-1.722,0-2.268-0.042-2.576-0.21c-0.266-0.14-0.363-0.35-0.378-0.798
		c0.015-2.296,0.015-2.296,0.015-2.604V12.99c0-0.42-0.028-1.05-0.07-1.414c1.428,0.21,1.568,0.238,1.568,0.35
		c0,0.126-0.196,0.224-0.561,0.308V15.874z"/>
</g>
<g>
	<path d="M6.796,33.044c0.546-0.434,0.756-0.686,1.029-1.246c-0.322-0.098-0.574-0.266-0.813-0.539
		c-0.308-0.371-0.476-0.924-0.476-1.582c0-0.049,0-0.133,0.007-0.259c-0.56,0.623-0.917,1.386-0.917,1.946c0,0.049,0,0.091,0,0.126
		c0.007,0.049,0.007,0.091,0.007,0.112c0,0.112-0.077,0.196-0.175,0.196c-0.238,0-0.413-0.588-0.413-1.414
		c0-0.357,0.021-0.672,0.084-1.176c0.035-0.322,0.042-0.42,0.042-0.553c0-0.231-0.098-0.462-0.266-0.637
		c0.146,0,0.23,0.042,0.406,0.182c0.224,0.196,0.378,0.427,0.378,0.581c0,0.07-0.008,0.098-0.084,0.259
		c-0.154,0.336-0.267,0.903-0.267,1.365c0,0.126,0.007,0.203,0.035,0.371c0.413-0.819,0.651-1.162,1.183-1.673
		c0.092-0.714,0.231-1.113,0.497-1.442c0.154-0.196,0.364-0.301,0.588-0.301c0.196,0,0.421,0.098,0.561,0.245
		c0.161,0.168,0.238,0.308,0.35,0.63c0.042,0,0.084,0,0.099,0c0.392,0,0.763,0.119,1.092,0.35c0.448,0.308,0.693,0.805,0.693,1.372
		c0,1.085-0.875,1.925-2.01,1.925c-0.049,0-0.111,0-0.217-0.007c-0.427,0.651-0.777,0.98-1.351,1.253L6.796,33.044z M6.754,29.181
		c-0.007,0.168-0.014,0.266-0.014,0.343c0,0.651,0.203,1.232,0.546,1.547c0.21,0.196,0.392,0.301,0.679,0.385
		c0.189-0.609,0.28-1.288,0.28-2.1c0-0.399-0.014-0.623-0.07-0.91C7.58,28.571,7.188,28.774,6.754,29.181z M8.147,28.277
		c-0.126-0.532-0.294-0.756-0.567-0.756c-0.392,0-0.679,0.49-0.805,1.393C7.223,28.571,7.622,28.382,8.147,28.277z M8.729,29.58
		c0,0.756-0.112,1.358-0.351,1.932c0.924,0,1.582-0.693,1.582-1.659c0-0.553-0.21-1.001-0.588-1.246
		c-0.231-0.147-0.434-0.21-0.777-0.217C8.693,28.879,8.729,29.181,8.729,29.58z"/>
	<path d="M20.817,33.143c0.497-0.308,0.805-0.581,1.112-0.98c0.49-0.651,0.735-1.442,0.735-2.359c0-0.609-0.104-1.183-0.259-1.442
		c-0.126-0.203-0.294-0.308-0.497-0.308c-0.351,0-0.672,0.301-0.924,0.875c-0.203,0.455-0.329,1.029-0.329,1.505
		c0,0.119,0.007,0.196,0.027,0.434c0.008,0.042,0.008,0.098,0.008,0.147c0,0.133-0.063,0.21-0.183,0.21
		c-0.266,0-0.44-0.567-0.44-1.435c0-0.581,0.042-0.945,0.224-1.876c0.056-0.28,0.077-0.413,0.077-0.511
		c0-0.224-0.098-0.357-0.378-0.497c0.056-0.021,0.098-0.035,0.126-0.035c0.146,0,0.371,0.091,0.56,0.231
		c0.196,0.14,0.273,0.252,0.273,0.392c0,0.091-0.014,0.133-0.098,0.266c-0.267,0.441-0.505,1.435-0.505,2.086
		c0,0.063,0,0.133,0.008,0.259h0.014c0.21-0.896,0.469-1.477,0.812-1.834c0.26-0.28,0.539-0.413,0.854-0.413
		c0.672,0,1.147,0.826,1.147,1.995c0,0.91-0.252,1.666-0.763,2.289c-0.413,0.511-0.882,0.84-1.547,1.106L20.817,33.143z"/>
	<path d="M49.258,32.933c0.512-0.413,0.742-0.644,0.994-0.994s0.42-0.679,0.623-1.211c-0.609-0.322-1.211-0.476-2.009-0.511
		c-0.427,0.777-0.609,1.071-0.847,1.386c-0.26,0.322-0.477,0.483-0.673,0.483c-0.294,0-0.539-0.336-0.539-0.742
		c0-0.357,0.176-0.714,0.477-0.966c0.308-0.259,0.77-0.42,1.33-0.462c0.098-0.168,0.111-0.217,0.497-1.099
		c0.224-0.532,0.252-0.609,0.363-0.987c-0.168,0.042-0.65,0.196-1.008,0.322c-0.111,0.035-0.168,0.049-0.23,0.049
		c-0.217,0-0.441-0.343-0.441-0.679c0-0.07,0.014-0.105,0.077-0.161c0.14,0.322,0.266,0.427,0.525,0.427
		c0.182,0,0.398-0.035,0.741-0.119c0.183-0.049,0.21-0.063,0.309-0.147c0.042-0.049,0.084-0.063,0.146-0.063
		c0.154,0,0.504,0.371,0.504,0.546c0,0.056-0.027,0.105-0.104,0.161c-0.161,0.133-0.224,0.231-0.707,1.19
		c-0.189,0.378-0.217,0.434-0.287,0.567c0.707,0.035,1.316,0.154,2.009,0.399c0.119-0.364,0.231-0.903,0.231-1.127
		c0-0.189-0.099-0.315-0.364-0.483c0.049-0.035,0.077-0.042,0.126-0.042c0.119,0,0.28,0.056,0.49,0.161
		c0.224,0.112,0.329,0.224,0.329,0.35c0,0.07-0.007,0.105-0.063,0.245c-0.021,0.049-0.063,0.196-0.168,0.525
		c-0.035,0.126-0.063,0.21-0.161,0.532c0.84,0.42,1.064,0.623,1.064,0.994c0,0.14-0.07,0.252-0.161,0.252
		c-0.063,0-0.112-0.035-0.238-0.147c-0.224-0.224-0.455-0.406-0.833-0.658c-0.308,0.672-0.524,1.008-0.896,1.365
		c-0.315,0.301-0.603,0.504-1.05,0.721L49.258,32.933z M47.109,31.175c0,0.259,0.146,0.504,0.301,0.504
		c0.23,0,0.525-0.406,1.063-1.47C47.578,30.308,47.109,30.637,47.109,31.175z"/>
	<path d="M72.813,30.111c-0.126,0.441-0.322,1.204-0.406,1.547c-0.07,0.308-0.091,0.42-0.091,0.595
		c-0.008,0.224-0.015,0.252-0.05,0.308c-0.034,0.049-0.076,0.077-0.133,0.077c-0.119,0-0.217-0.098-0.301-0.315
		c-0.14-0.357-0.224-0.889-0.224-1.407c0-0.644,0.077-1.232,0.314-2.331c0.091-0.434,0.105-0.511,0.105-0.63
		c0-0.21-0.057-0.378-0.203-0.616c0.161,0.007,0.294,0.098,0.49,0.35c0.161,0.203,0.252,0.399,0.252,0.532
		c0,0.077,0,0.077-0.112,0.308c-0.336,0.7-0.532,1.533-0.532,2.282c0,0.357,0.028,0.581,0.112,0.868l0.294-0.7l0.378-0.903
		L72.813,30.111z M73.513,28.845c0.336,0.217,0.554,0.287,0.903,0.287c0.245,0,0.511-0.035,0.798-0.098c0-0.133,0-0.245,0-0.308
		c0-0.784-0.007-0.875-0.098-0.973c-0.084-0.091-0.238-0.14-0.462-0.161c0.098-0.091,0.153-0.112,0.336-0.112
		c0.154,0,0.343,0.028,0.476,0.063c0.203,0.063,0.309,0.147,0.309,0.252c0,0.049,0,0.056-0.063,0.217
		c-0.077,0.203-0.119,0.455-0.146,0.938c0.321-0.091,0.524-0.182,0.644-0.287c0.07-0.07,0.091-0.077,0.154-0.077
		c0.084,0,0.245,0.042,0.329,0.091c0.056,0.028,0.091,0.077,0.091,0.126c0,0.154-0.511,0.364-1.239,0.504
		c0,0.931,0.021,1.316,0.091,1.904c0.813,0.217,1.155,0.49,1.155,0.896c0,0.147-0.063,0.259-0.14,0.259
		c-0.057,0-0.105-0.035-0.245-0.175c-0.309-0.315-0.483-0.441-0.756-0.56c0.007,0.063,0.007,0.119,0.007,0.168
		c0,0.504-0.42,0.805-1.12,0.805c-0.609,0-1.036-0.294-1.036-0.714c0-0.483,0.518-0.791,1.316-0.791c0.133,0,0.23,0.007,0.427,0.021
		c0-0.063,0-0.105,0-0.119l-0.014-0.749l-0.008-0.896c-0.21,0.042-0.413,0.056-0.615,0.056c-0.512,0-0.806-0.126-1.155-0.49
		L73.513,28.845z M74.584,31.399c-0.553,0-0.896,0.182-0.896,0.49c0,0.245,0.272,0.413,0.686,0.413c0.385,0,0.658-0.112,0.771-0.329
		c0.069-0.126,0.091-0.231,0.091-0.49C75.039,31.428,74.843,31.399,74.584,31.399z"/>
	<path d="M78.477,28.285c0.336,0.315,0.531,0.406,0.882,0.406c0.182,0,0.371-0.028,0.637-0.084c0.175-0.455,0.252-0.749,0.252-0.994
		c0-0.231-0.112-0.371-0.448-0.539c0.077-0.042,0.112-0.049,0.168-0.049c0.141,0,0.357,0.063,0.561,0.161
		c0.237,0.119,0.329,0.196,0.329,0.294c0,0.056-0.015,0.098-0.07,0.182c-0.028,0.056-0.175,0.343-0.427,0.861
		c0.518-0.182,0.581-0.217,0.776-0.385c0.057-0.049,0.077-0.056,0.147-0.056c0.272,0,0.476,0.091,0.476,0.21
		c0,0.182-0.434,0.357-1.547,0.616c-0.063,0.14-0.182,0.427-0.371,0.847c-0.21,0.483-0.749,1.659-0.812,1.778
		c-0.105,0.189-0.168,0.252-0.252,0.252c-0.119,0-0.217-0.217-0.217-0.497c0-0.14,0.014-0.182,0.076-0.252
		c0.154-0.168,0.238-0.273,0.336-0.42c0.344-0.511,0.596-0.987,0.875-1.645c-0.153,0.021-0.217,0.028-0.328,0.028
		c-0.253,0-0.441-0.042-0.616-0.147c-0.21-0.119-0.371-0.287-0.512-0.511L78.477,28.285z M82.179,28.677
		c0.483,0.042,0.875,0.168,1.197,0.385c0.273,0.175,0.441,0.385,0.441,0.546c0,0.119-0.07,0.203-0.183,0.203
		c-0.056,0-0.098-0.014-0.161-0.056c-0.195-0.119-0.328-0.147-0.686-0.147c-0.56,0-0.735,0.154-0.735,0.637
		c0,0.189,0.035,0.49,0.141,1.204c0.427,0.126,0.791,0.294,0.994,0.455c0.188,0.147,0.279,0.329,0.279,0.553
		c0,0.14-0.056,0.238-0.14,0.238c-0.07,0-0.098-0.021-0.245-0.182c-0.252-0.273-0.483-0.441-0.847-0.616c0,0.056,0,0.105,0,0.133
		c0,0.28-0.057,0.441-0.196,0.595c-0.189,0.189-0.518,0.301-0.91,0.301c-0.63,0-1.063-0.301-1.063-0.742
		c0-0.49,0.531-0.833,1.309-0.833c0.161,0,0.238,0.007,0.42,0.035c-0.021-0.553-0.021-0.609-0.021-0.693
		c0-0.574,0.056-0.791,0.244-1.001c0.141-0.147,0.337-0.245,0.665-0.329c0.105-0.028,0.119-0.035,0.379-0.091
		c-0.189-0.203-0.406-0.315-0.903-0.483L82.179,28.677z M81.801,31.743c-0.217-0.063-0.378-0.084-0.602-0.084
		c-0.595,0-0.959,0.203-0.959,0.532c0,0.259,0.266,0.413,0.7,0.413c0.566,0,0.86-0.231,0.86-0.672V31.743z"/>
	<path d="M8.126,35.333c-0.979,1.778-1.063,1.904-1.582,2.702h4.271c0.252-0.294,0.336-0.378,0.588-0.658
		c0.405,0.322,0.531,0.42,0.938,0.756c0.042,0.042,0.07,0.084,0.07,0.126c0,0.084-0.056,0.126-0.49,0.336
		c0.014,5.74,0.014,5.74,0.098,7.896c-0.014,0.21-0.168,0.266-0.741,0.266c-0.238,0-0.294-0.028-0.322-0.196V45.75H4.15v0.756
		c-0.015,0.168-0.042,0.224-0.183,0.266c-0.153,0.042-0.336,0.056-0.546,0.056c-0.196,0-0.266-0.056-0.266-0.196
		c0-0.014,0-0.042,0-0.056c0.027-2.044,0.042-3.78,0.042-6.188c0-0.854,0-0.938-0.028-2.142c-0.014-0.476-0.014-0.476-0.014-0.868
		c0.504,0.28,0.658,0.364,1.134,0.658h1.876c0.056-0.196,0.056-0.196,0.168-0.574c0.196-0.658,0.308-1.148,0.476-2.128H3.002
		c-0.588,0-1.246,0.028-1.694,0.07L1.224,34.83c0.658,0.126,1.204,0.182,1.778,0.182h8.666c0.35-0.476,0.448-0.616,0.826-1.078
		c0.658,0.504,0.854,0.672,1.512,1.204c0.042,0.042,0.07,0.084,0.07,0.112c0,0.056-0.057,0.084-0.154,0.084H8.126z M10.954,38.358
		H4.15v3.164h6.804V38.358z M4.15,41.844v3.584h6.804v-3.584H4.15z"/>
	<path d="M15.042,40.934c1.554-1.078,2.688-2.156,3.948-3.738c0.658-0.826,1.26-1.736,1.54-2.31c0.098-0.21,0.153-0.364,0.252-0.686
		c0.322,0.056,0.56,0.112,0.714,0.14c0.77,0.154,0.938,0.21,0.938,0.336c0,0.112-0.168,0.196-0.546,0.266
		c0.687,1.148,1.624,2.128,2.885,3.038c1.189,0.854,2.323,1.386,3.626,1.736l-0.028,0.196c-0.588,0.07-0.813,0.266-1.106,0.924
		c-1.302-0.672-2.058-1.218-3.08-2.282c-1.035-1.05-1.498-1.694-2.506-3.472c-0.994,1.582-1.876,2.632-3.164,3.794
		c-1.119,0.994-2.029,1.624-3.317,2.268L15.042,40.934z M18.5,46.45c0,0.126-0.014,0.168-0.084,0.196
		c-0.126,0.042-0.448,0.084-0.728,0.084c-0.154,0-0.196-0.042-0.196-0.196c0.028-2.184,0.042-2.87,0.042-3.444
		c0-1.106-0.014-1.624-0.042-2.156c0.518,0.294,0.672,0.392,1.12,0.714h5.655c0.225-0.308,0.309-0.406,0.574-0.714
		c0.393,0.294,0.519,0.392,0.896,0.714c0.111,0.098,0.14,0.14,0.14,0.196c0,0.084-0.126,0.182-0.462,0.294
		c0,2.044,0,2.044,0.056,4.214c0,0.028,0,0.042,0,0.056c0,0.112-0.027,0.154-0.126,0.182c-0.098,0.042-0.56,0.098-0.714,0.098
		c-0.14,0-0.21-0.056-0.21-0.168c0-0.014,0-0.042,0-0.07v-0.588H18.5V46.45z M18.486,39.156c0.405,0.07,0.742,0.112,1.036,0.112
		h2.926c0.322-0.35,0.42-0.476,0.742-0.84c0.504,0.392,0.672,0.504,1.176,0.924c0.069,0.07,0.112,0.126,0.112,0.168
		c0,0.056-0.028,0.07-0.183,0.07h-4.773c-0.267,0-0.477,0.014-0.925,0.084L18.486,39.156z M18.5,45.54h5.922v-3.57H18.5V45.54z"/>
	<path d="M35.468,45.568c1.513-0.448,2.479-1.022,3.276-1.946c0.826-0.938,1.246-2.086,1.246-3.374c0-1.358-0.546-2.436-1.582-3.094
		c-0.616-0.406-1.54-0.644-2.422-0.644c-0.168,0-0.267,0-0.49,0.028c0.336,0.49,0.434,0.756,0.434,1.162
		c0,1.092-0.783,3.136-1.848,4.844c-0.882,1.4-1.568,2.086-2.086,2.086c-0.238,0-0.462-0.112-0.616-0.294
		c-0.126-0.168-0.154-0.224-0.392-0.896c-0.126-0.364-0.21-0.532-0.616-1.316c-0.224-0.448-0.322-0.826-0.322-1.274
		c0-0.882,0.477-1.918,1.261-2.772c1.134-1.204,2.981-1.96,4.815-1.96c1.414,0,2.716,0.462,3.612,1.288
		c0.896,0.826,1.344,1.932,1.344,3.29c0,1.75-1.022,3.304-2.786,4.242c-0.812,0.434-1.54,0.658-2.729,0.868L35.468,45.568z
		 M30.862,41.214c0,0.672,0.21,1.358,0.56,1.848c0.196,0.252,0.378,0.406,0.532,0.406c0.308,0,0.979-0.756,1.666-1.848
		c1.036-1.652,1.778-3.458,1.778-4.326c0-0.21-0.042-0.35-0.196-0.7C32.766,37.028,30.862,39.058,30.862,41.214z"/>
	<path d="M46.206,38.722c-0.238,0-0.35,0-1.246,0.07l-0.14-0.49c0.308,0.042,0.308,0.042,1.372,0.098h2.771c0-0.182,0-0.182,0-0.686
		c0-0.392-0.014-0.588-0.056-0.994c1.512,0.168,1.512,0.168,1.512,0.294c0,0.056-0.028,0.112-0.14,0.182
		c0,0-0.057,0.028-0.168,0.098c-0.042,0.028-0.084,0.056-0.126,0.084c0,0.602,0,0.602-0.015,1.022h2.464l0.729-0.868
		c0.532,0.42,0.7,0.56,1.232,0.994c0.042,0.042,0.056,0.07,0.056,0.098c0,0.056-0.056,0.098-0.126,0.098h-4.368
		c-0.014,0.574-0.028,0.868-0.07,1.498h2.479l0.756-0.91c0.546,0.448,0.714,0.588,1.274,1.078c0.014,0.014,0.027,0.042,0.027,0.056
		c0,0.042-0.056,0.098-0.126,0.098H49.86c-0.057,0.644-0.112,0.994-0.225,1.554h3.626c0.378-0.448,0.49-0.588,0.896-0.98
		c0.588,0.448,0.77,0.602,1.357,1.106c0.057,0.056,0.084,0.098,0.084,0.126c0,0.042-0.042,0.07-0.084,0.07h-5.754
		c0.561,0.798,1.148,1.33,2.156,1.904c1.106,0.644,2.437,0.98,4.229,1.106v0.154c-0.505,0.182-0.742,0.476-0.896,1.092
		c-1.652-0.378-2.898-1.008-4.032-2.044c-0.798-0.714-1.246-1.246-1.722-2.058c-0.294,0.868-0.756,1.526-1.498,2.156
		c-1.26,1.078-2.66,1.68-4.858,2.1l-0.056-0.182c1.61-0.504,2.702-1.078,3.752-1.932c0.896-0.756,1.4-1.428,1.68-2.296h-3.43
		c-0.63,0-0.84,0.014-1.33,0.098l-0.14-0.532c0.434,0.056,1.078,0.112,1.47,0.112h3.528c0.14-0.56,0.182-0.868,0.237-1.554h-2.575
		c-0.309,0-0.574,0.014-1.219,0.07l-0.168-0.504c0.294,0.042,1.19,0.112,1.372,0.112h2.618c0.042-0.63,0.057-0.84,0.07-1.498H46.206
		z M54.004,35.936l0.645-0.728c0.531,0.35,0.686,0.462,1.218,0.798c0.126,0.112,0.21,0.196,0.21,0.266
		c0,0.042-0.028,0.084-0.07,0.112c-0.056,0.028-0.196,0.07-0.364,0.112c-0.321,0.084-0.489,0.126-0.518,0.14
		c-0.546,0.476-0.812,0.7-1.4,1.162L53.556,37.7c0.309-0.574,0.42-0.84,0.63-1.442h-9.17c-0.098,1.036-0.686,2.128-1.134,2.128
		c-0.21,0-0.448-0.434-0.448-0.798c0-0.168,0.07-0.28,0.322-0.462c0.63-0.462,0.813-0.784,1.064-1.918h0.237
		c0,0.518,0,0.518-0.014,0.728h3.92v-0.882c0-0.322-0.014-0.518-0.042-0.952c0.588,0.056,1.232,0.14,1.442,0.196
		c0.14,0.028,0.195,0.07,0.195,0.126c0,0.098-0.014,0.112-0.588,0.406v1.106H54.004z"/>
	<path d="M61.522,34.774c0.42,0,1.077,0.126,1.414,0.266c0.279,0.112,0.392,0.252,0.392,0.448c0,0.014,0,0.028,0,0.028
		c0,0.112-0.014,0.112-0.112,0.364c-0.168,0.476-0.308,1.68-0.308,2.842c0,0.826,0.112,1.036,0.546,1.036
		c0.294,0,0.602-0.112,1.876-0.714c0.252-0.126,0.406-0.168,0.574-0.168c0.336,0,0.672,0.294,0.672,0.588
		c0,0.182-0.098,0.336-0.294,0.42c-0.099,0.042-0.294,0.112-0.938,0.294c-1.693,0.476-2.618,0.896-3.5,1.568
		c-0.756,0.588-1.092,1.134-1.092,1.792c0,1.008,0.798,1.526,2.353,1.526c0.867,0,2.239-0.168,3.247-0.406
		c0.141-0.028,0.196-0.042,0.28-0.042c0.364,0,0.756,0.35,0.756,0.686c0,0.252-0.153,0.378-0.602,0.462s-1.848,0.182-2.688,0.182
		c-1.021,0-1.792-0.112-2.38-0.322c-0.938-0.35-1.525-1.148-1.525-2.072c0-0.812,0.447-1.582,1.372-2.352
		c0.42-0.364,0.882-0.672,1.708-1.12c-0.309,0-0.435-0.042-0.673-0.21c-0.21-0.154-0.336-0.462-0.405-1.064
		c-0.042-0.336-0.057-0.644-0.099-1.694c-0.042-1.19-0.056-1.4-0.168-1.61c-0.153-0.266-0.42-0.406-1.008-0.504
		C61.13,34.816,61.242,34.774,61.522,34.774z"/>
	<path d="M71.168,43.048c1.05-1.134,1.694-1.974,2.282-2.94c0.546-0.924,0.938-1.764,1.134-2.436c0.504,0.168,1.246,0.434,1.4,0.504
		c0.056,0.028,0.111,0.084,0.111,0.126c0,0.112-0.195,0.182-0.56,0.182c-0.014,0-0.056,0-0.098-0.014
		c-0.505,0.812-0.742,1.148-1.246,1.792c0.882,0.168,1.078,0.238,1.078,0.35c0,0.126-0.112,0.182-0.547,0.294v2.31
		c0,1.036,0,1.036,0,3.332c-0.042,0.168-0.126,0.196-0.518,0.21c-0.112,0-0.182,0.014-0.224,0.014c-0.028,0-0.042,0-0.042,0
		c-0.154,0-0.225-0.056-0.225-0.182c0.057-2.898,0.057-2.898,0.057-3.374v-2.408c-0.952,1.162-1.513,1.68-2.479,2.408L71.168,43.048
		z M78.798,35.852V34.97c0-0.392,0-0.476-0.027-0.826c1.497,0.21,1.497,0.21,1.497,0.336s-0.168,0.21-0.56,0.294
		c0,0.434,0,0.798,0,1.078h1.862c0.392-0.434,0.531-0.574,0.91-0.994c0.588,0.476,0.77,0.63,1.344,1.134
		c0.027,0.028,0.042,0.056,0.042,0.084c0,0.056-0.07,0.098-0.126,0.098h-4.032c0,0.742,0,0.742,0.014,1.274
		c-0.014,0.098-0.042,0.154-0.098,0.182c-0.112,0.042-0.364,0.07-0.602,0.07c-0.168,0-0.225-0.042-0.238-0.182
		c0.014-0.602,0.014-0.602,0.014-1.344h-2.813c0,0.784,0,0.784,0,1.274c-0.028,0.154-0.112,0.182-0.477,0.196
		c-0.069,0-0.14,0.014-0.195,0.014c-0.015,0-0.028,0-0.028,0c-0.154,0-0.224-0.056-0.238-0.182c0.028-0.518,0.028-0.518,0.028-1.302
		H72.61c-0.448,0-0.84,0.042-1.177,0.112l-0.084-0.574c0.574,0.112,0.784,0.14,1.261,0.14h2.464c0-0.112,0-0.14,0-0.21
		c0-0.616-0.014-1.204-0.042-1.526c1.525,0.182,1.525,0.182,1.525,0.322c0,0.126-0.042,0.14-0.573,0.336v1.078H78.798z
		 M78.672,42.124c0.561-0.42,0.924-0.742,1.512-1.358c0.925-0.966,1.4-1.582,1.723-2.212c1.33,0.756,1.344,0.77,1.344,0.882
		c0,0.07-0.112,0.14-0.238,0.14s-0.252-0.014-0.405-0.028c-1.345,1.288-2.604,2.212-3.935,2.898v2.996
		c0,0.07,0.084,0.112,0.225,0.126c0.195,0.028,1.582,0.07,1.932,0.07c0.476,0,1.218-0.042,1.344-0.084
		c0.154-0.042,0.196-0.112,0.351-0.518c0.224-0.602,0.405-1.19,0.714-2.324h0.182l-0.182,2.24c-0.015,0.224-0.015,0.336-0.015,0.35
		c0,0.098,0.028,0.126,0.225,0.196c0.224,0.084,0.308,0.182,0.308,0.35c0,0.238-0.168,0.392-0.546,0.476
		c-0.308,0.056-1.414,0.112-2.534,0.112c-1.722,0-2.268-0.042-2.576-0.21c-0.266-0.14-0.363-0.35-0.378-0.798
		c0.015-2.296,0.015-2.296,0.015-2.604V39.24c0-0.42-0.028-1.05-0.07-1.414c1.428,0.21,1.568,0.238,1.568,0.35
		c0,0.126-0.196,0.224-0.561,0.308V42.124z"/>
</g>
<g>
	<rect x="0.25" y="7.25" fill="none" stroke="#008CD6" stroke-width="0.5" width="84.002" height="14"/>
	<line fill="none" stroke="#008CD6" stroke-width="0.5" x1="14.25" y1="21.25" x2="14.25" y2="7.25"/>
	<line fill="none" stroke="#008CD6" stroke-width="0.5" x1="28.25" y1="21.25" x2="28.25" y2="7.25"/>
	<line fill="none" stroke="#008CD6" stroke-width="0.5" x1="42.25" y1="21.25" x2="42.25" y2="7.25"/>
	<line fill="none" stroke="#008CD6" stroke-width="0.5" x1="56.25" y1="21.25" x2="56.25" y2="7.25"/>
	<line fill="none" stroke="#008CD6" stroke-width="0.5" x1="70.25" y1="21.25" x2="70.25" y2="7.25"/>
</g>
<polyline fill="none" stroke="#008CD6" stroke-width="0.5" points="3.75,7.25 3.75,0.25 10.75,0.25 10.75,7.25 "/>
<polyline fill="none" stroke="#008CD6" stroke-width="0.5" points="17.75,7.25 17.75,0.25 24.75,0.25 24.75,7.25 "/>
<polyline fill="none" stroke="#008CD6" stroke-width="0.5" points="45.75,7.25 45.75,0.25 52.75,0.25 52.75,7.25 "/>
<polyline fill="none" stroke="#008CD6" stroke-width="0.5" points="70.25,7.25 70.25,0.25 84.247,0.25 84.247,7.25 "/>
<line fill="none" stroke="#008CD6" stroke-width="0.5" x1="77.25" y1="7.25" x2="77.25" y2="0.25"/>
</svg>
