<?xml version="1.0" encoding="utf-8"?>
<!-- Generator: Adobe Illustrator 12.0.0, SVG Export Plug-In . SVG Version: 6.00 Build 51448)  -->
<!DOCTYPE svg PUBLIC "-//W3C//DTD SVG 1.1//EN" "http://www.w3.org/Graphics/SVG/1.1/DTD/svg11.dtd" [
	<!ENTITY ns_svg "http://www.w3.org/2000/svg">
	<!ENTITY ns_xlink "http://www.w3.org/1999/xlink">
]>
<svg  version="1.1" id="レイヤー_1" xmlns="&ns_svg;" xmlns:xlink="&ns_xlink;" width="125.67"
	 viewBox="0 0 83.78 109.387" overflow="visible" enable-background="new 0 0 83.78 109.387" xml:space="preserve">
<g>
	<path d="M65.248,20.008c0.645-0.161,1.106-0.336,1.547-0.588c0.819-0.462,1.288-1.148,1.288-1.883c0-0.7-0.518-1.176-1.281-1.176
		c-0.818,0-1.89,0.448-2.813,1.169c-0.112,0.091-0.182,0.119-0.266,0.119c-0.329,0-0.841-0.49-0.841-0.805
		c0-0.049,0.015-0.091,0.057-0.175c0.069,0.147,0.111,0.196,0.195,0.259c0.105,0.077,0.189,0.112,0.287,0.112
		c0.183,0,0.448-0.077,0.848-0.252c1.105-0.483,1.834-0.672,2.562-0.672c1.064,0,1.792,0.623,1.792,1.54
		c0,0.868-0.588,1.617-1.609,2.051c-0.532,0.224-1.043,0.343-1.729,0.406L65.248,20.008z"/>
	<path d="M71.353,17.95c-0.399,1.393-0.512,1.904-0.512,2.331c-0.007,0.196-0.056,0.287-0.168,0.287
		c-0.118,0-0.224-0.091-0.286-0.245c-0.154-0.364-0.253-0.973-0.253-1.589c0-0.28,0.021-0.616,0.063-0.91
		c0.049-0.406,0.049-0.406,0.294-1.442c0.07-0.308,0.105-0.532,0.105-0.672c0-0.168-0.07-0.343-0.21-0.546
		c0.153,0.007,0.244,0.07,0.412,0.273c0.196,0.231,0.315,0.483,0.315,0.672c0,0.098-0.014,0.14-0.105,0.308
		c-0.35,0.658-0.56,1.491-0.56,2.254c0,0.35,0.028,0.56,0.119,0.938l0.665-1.715L71.353,17.95z M72.171,15.738
		c0.238,0.098,0.435,0.133,0.749,0.133c0.554,0,1.162-0.133,1.562-0.343c0.049-0.028,0.104-0.049,0.126-0.049
		c0.168,0,0.392,0.14,0.392,0.245c0,0.07-0.069,0.133-0.23,0.182c-0.231,0.077-0.512,0.14-0.819,0.182
		c0.21,0.168,0.273,0.245,0.273,0.343c0,0.028-0.008,0.063-0.015,0.112c-0.021,0.126-0.027,0.224-0.042,0.84
		c0.267-0.098,0.364-0.154,0.567-0.336c0.027-0.021,0.07-0.049,0.091-0.049c0.028,0,0.119,0.028,0.168,0.049
		c0.091,0.056,0.147,0.119,0.147,0.182s-0.05,0.14-0.134,0.196c-0.217,0.147-0.504,0.259-0.84,0.343
		c0.015,0.448,0.035,0.84,0.084,1.372c0.861,0.252,1.218,0.525,1.218,0.931c0,0.133-0.063,0.231-0.153,0.231
		c-0.057,0-0.105-0.028-0.183-0.105c-0.35-0.371-0.489-0.469-0.86-0.63c0,0.287-0.021,0.378-0.084,0.518
		c-0.141,0.273-0.512,0.427-1.029,0.427c-0.644,0-1.071-0.273-1.071-0.686c0-0.476,0.532-0.798,1.316-0.798
		c0.133,0,0.245,0.007,0.441,0.035v-0.784c0-0.021,0-0.266,0-0.455c-0.225,0.021-0.344,0.028-0.497,0.028
		c-0.386,0-0.665-0.077-0.854-0.238c-0.161-0.133-0.23-0.273-0.259-0.532l0.098-0.021c0.063,0.217,0.141,0.315,0.301,0.399
		c0.112,0.056,0.344,0.091,0.561,0.091c0.203,0,0.44-0.028,0.651-0.07c0-0.14,0.007-0.861,0.007-0.938
		c0-0.238-0.021-0.315-0.105-0.434c-0.217,0.014-0.322,0.021-0.469,0.021c-0.469,0-0.84-0.098-1.162-0.294L72.171,15.738z
		 M73.158,19.329c-0.532,0-0.896,0.203-0.896,0.49c0,0.238,0.266,0.385,0.686,0.385c0.371,0,0.644-0.098,0.77-0.273
		c0.057-0.077,0.092-0.182,0.105-0.308c0.007-0.042,0.014-0.168,0.014-0.203v-0.007C73.627,19.357,73.403,19.329,73.158,19.329z
		 M74.712,14.786c0.267,0.126,0.477,0.259,0.687,0.427c0.195,0.154,0.287,0.308,0.287,0.476c0,0.175-0.084,0.336-0.183,0.336
		c-0.042,0-0.077-0.028-0.119-0.07c-0.014-0.021-0.014-0.021-0.146-0.315c-0.119-0.252-0.336-0.539-0.588-0.777L74.712,14.786z
		 M75.321,14.52c0.266,0.098,0.469,0.21,0.686,0.357c0.225,0.161,0.309,0.28,0.309,0.448c0,0.196-0.07,0.336-0.175,0.336
		c-0.063,0-0.112-0.049-0.168-0.161c-0.176-0.385-0.399-0.672-0.707-0.91L75.321,14.52z"/>
	<path d="M79.542,20.715c0.512-0.413,0.742-0.644,0.994-0.994s0.42-0.679,0.623-1.211c-0.609-0.322-1.211-0.476-2.009-0.511
		c-0.427,0.777-0.609,1.071-0.847,1.386c-0.26,0.322-0.477,0.483-0.673,0.483c-0.294,0-0.539-0.336-0.539-0.742
		c0-0.357,0.176-0.714,0.477-0.966c0.308-0.259,0.77-0.42,1.33-0.462c0.098-0.168,0.111-0.217,0.497-1.099
		c0.224-0.532,0.252-0.609,0.363-0.987c-0.168,0.042-0.65,0.196-1.008,0.322c-0.111,0.035-0.168,0.049-0.23,0.049
		c-0.217,0-0.441-0.343-0.441-0.679c0-0.07,0.014-0.105,0.077-0.161c0.14,0.322,0.266,0.427,0.525,0.427
		c0.182,0,0.398-0.035,0.741-0.119c0.183-0.049,0.21-0.063,0.309-0.147c0.042-0.049,0.084-0.063,0.146-0.063
		c0.154,0,0.504,0.371,0.504,0.546c0,0.056-0.027,0.105-0.104,0.161c-0.161,0.133-0.224,0.231-0.707,1.19
		c-0.189,0.378-0.217,0.434-0.287,0.567c0.707,0.035,1.316,0.154,2.009,0.399c0.119-0.364,0.231-0.903,0.231-1.127
		c0-0.189-0.099-0.315-0.364-0.483c0.049-0.035,0.077-0.042,0.126-0.042c0.119,0,0.28,0.056,0.49,0.161
		c0.224,0.112,0.329,0.224,0.329,0.35c0,0.07-0.007,0.105-0.063,0.245c-0.021,0.049-0.063,0.196-0.168,0.525
		c-0.035,0.126-0.063,0.21-0.161,0.532c0.84,0.42,1.064,0.623,1.064,0.994c0,0.14-0.07,0.252-0.161,0.252
		c-0.063,0-0.112-0.035-0.238-0.147c-0.224-0.224-0.455-0.406-0.833-0.658c-0.308,0.672-0.524,1.008-0.896,1.365
		c-0.315,0.301-0.603,0.504-1.05,0.721L79.542,20.715z M77.394,18.958c0,0.259,0.146,0.504,0.301,0.504
		c0.23,0,0.525-0.406,1.063-1.47C77.862,18.09,77.394,18.419,77.394,18.958z"/>
	<path d="M9.654,28.311c0,0.532-0.42,0.952-0.952,0.952c-0.518,0-0.952-0.434-0.952-0.952s0.435-0.952,0.952-0.952
		C9.234,27.358,9.654,27.778,9.654,28.311z M14.316,28.311c0,0.532-0.42,0.952-0.952,0.952c-0.518,0-0.952-0.434-0.952-0.952
		s0.435-0.952,0.952-0.952C13.896,27.358,14.316,27.778,14.316,28.311z M18.992,28.311c0,0.532-0.42,0.952-0.952,0.952
		c-0.518,0-0.952-0.434-0.952-0.952s0.435-0.952,0.952-0.952C18.572,27.358,18.992,27.778,18.992,28.311z"/>
	<path d="M23.654,28.311c0,0.532-0.42,0.952-0.952,0.952c-0.518,0-0.952-0.434-0.952-0.952s0.435-0.952,0.952-0.952
		C23.234,27.358,23.654,27.778,23.654,28.311z M28.316,28.311c0,0.532-0.42,0.952-0.952,0.952c-0.518,0-0.952-0.434-0.952-0.952
		s0.435-0.952,0.952-0.952C27.896,27.358,28.316,27.778,28.316,28.311z M32.992,28.311c0,0.532-0.42,0.952-0.952,0.952
		c-0.518,0-0.952-0.434-0.952-0.952s0.435-0.952,0.952-0.952C32.572,27.358,32.992,27.778,32.992,28.311z"/>
	<path d="M37.836,29.165c-0.027,0.308-0.042,0.434-0.042,0.63c0,1.666,1.051,2.45,3.305,2.45c1.105,0,2.268-0.196,3.094-0.504
		c0.084-0.042,0.168-0.056,0.238-0.056c0.21,0,0.531,0.126,0.77,0.28c0.196,0.154,0.308,0.322,0.308,0.49
		c0,0.21-0.153,0.364-0.447,0.434c-0.645,0.168-2.017,0.28-3.263,0.28c-1.567,0-2.562-0.196-3.262-0.672
		c-0.7-0.448-1.162-1.33-1.162-2.212c0-0.336,0.07-0.714,0.225-1.176L37.836,29.165z M38.271,23.634
		c0.714,0.476,1.204,0.616,2.142,0.616c0.924,0,2.101-0.168,2.912-0.42c0.098-0.028,0.21-0.056,0.252-0.056
		c0.364,0,0.84,0.42,0.84,0.728c0,0.238-0.084,0.28-1.021,0.49c-0.546,0.112-0.672,0.168-2.044,0.686
		c-0.336,0.126-0.336,0.126-1.148,0.476c-0.28,0.112-0.28,0.126-0.546,0.224l-0.098-0.21c0.434-0.252,0.657-0.392,1.021-0.588
		c0.952-0.518,0.952-0.518,1.176-0.658c-0.308,0.028-0.798,0.042-1.05,0.042c-0.518,0-1.162-0.154-1.596-0.378
		c-0.364-0.196-0.588-0.392-0.98-0.812L38.271,23.634z"/>
	<path d="M55.252,33.351c1.513-0.448,2.479-1.022,3.276-1.946c0.826-0.938,1.246-2.086,1.246-3.374c0-1.358-0.546-2.436-1.582-3.094
		c-0.616-0.406-1.54-0.644-2.422-0.644c-0.168,0-0.267,0-0.49,0.028c0.336,0.49,0.434,0.756,0.434,1.162
		c0,1.092-0.783,3.136-1.848,4.844c-0.882,1.4-1.568,2.086-2.086,2.086c-0.238,0-0.462-0.112-0.616-0.294
		c-0.126-0.168-0.154-0.224-0.392-0.896c-0.126-0.364-0.21-0.532-0.616-1.316c-0.224-0.448-0.322-0.826-0.322-1.274
		c0-0.882,0.477-1.918,1.261-2.772c1.134-1.204,2.981-1.96,4.815-1.96c1.414,0,2.716,0.462,3.612,1.288
		c0.896,0.826,1.344,1.932,1.344,3.29c0,1.75-1.022,3.304-2.786,4.242c-0.812,0.434-1.54,0.658-2.729,0.868L55.252,33.351z
		 M50.646,28.997c0,0.672,0.21,1.358,0.56,1.848c0.196,0.252,0.378,0.406,0.532,0.406c0.308,0,0.979-0.756,1.666-1.848
		c1.036-1.652,1.778-3.458,1.778-4.326c0-0.21-0.042-0.35-0.196-0.7C52.55,24.811,50.646,26.84,50.646,28.997z"/>
	<path d="M72.347,25.93v-1.008h-2.885c-0.518,0-0.63,0.014-0.979,0.084l-0.126-0.518c0.504,0.112,0.56,0.112,1.105,0.112h6.44
		c0.35-0.35,0.448-0.448,0.756-0.798c0.476,0.364,0.616,0.476,1.05,0.84c0.099,0.084,0.126,0.14,0.126,0.182
		c0,0.07-0.056,0.098-0.153,0.098h-4.452v1.008h4.508c0.308-0.252,0.392-0.336,0.672-0.602c0.42,0.35,0.546,0.448,0.952,0.784
		c0.14,0.112,0.168,0.154,0.168,0.196c0,0.14-0.225,0.196-0.84,0.196c-0.406,0.448-0.561,0.588-1.064,0.98l-0.098-0.112
		c0.042-0.182,0.042-0.182,0.168-0.532c0.098-0.266,0.098-0.266,0.154-0.588h-4.62v0.77c0,1.568,0,1.568,0.014,2.212
		c0,0.028,0,0.042,0,0.056c0,0.07-0.028,0.098-0.098,0.126c-0.154,0.042-0.462,0.084-0.63,0.084c-0.126,0-0.183-0.042-0.183-0.126
		c0.015-0.756,0.015-0.756,0.015-2.268v-0.854h-4.299c-0.042,0.784-0.098,1.078-0.279,1.498c-0.183,0.434-0.546,0.812-0.784,0.812
		c-0.183,0-0.364-0.364-0.364-0.7c0-0.196,0.07-0.28,0.378-0.504c0.294-0.21,0.435-0.42,0.588-0.84
		c0.141-0.364,0.183-0.616,0.21-1.12h0.28c0,0.28,0,0.308-0.014,0.532H72.347z M74.307,23.061c0.014-0.14,0.014-0.21,0.014-0.266
		c0-0.546-0.014-0.77-0.028-0.966c1.19,0.098,1.19,0.098,1.302,0.14c0.042,0.028,0.084,0.07,0.084,0.112
		c0,0.098-0.14,0.182-0.531,0.294c0,0.35,0,0.406,0,0.686h1.693c0.393-0.42,0.519-0.546,0.883-0.924
		c0.588,0.42,0.756,0.546,1.329,0.994c0.07,0.07,0.099,0.126,0.099,0.154c0,0.056-0.057,0.098-0.141,0.098h-3.863
		c0,0.238,0,0.336,0.014,0.616c0,0.14-0.07,0.154-0.56,0.154c-0.267,0-0.309-0.014-0.309-0.14c0.015-0.308,0.015-0.434,0.015-0.63
		h-2.996c0,0.224,0,0.322,0.014,0.616c0,0.098-0.028,0.14-0.112,0.154c-0.056,0.014-0.405,0.042-0.518,0.042
		c-0.182,0-0.238-0.042-0.238-0.182c0.015-0.322,0.015-0.406,0.015-0.63h-2.675c-0.489,0-0.644,0.014-0.924,0.07l-0.111-0.504
		c0.476,0.098,0.588,0.112,1.035,0.112h2.675c0-0.798-0.015-0.966-0.042-1.288c1.26,0.112,1.399,0.14,1.399,0.308
		c0,0.112-0.126,0.182-0.518,0.266c0,0.336,0,0.336,0,0.714H74.307z M70.597,28.563c0.252-0.238,0.336-0.308,0.573-0.546
		c0.364,0.28,0.477,0.364,0.813,0.658c0.042,0.042,0.084,0.098,0.084,0.126c0,0.042-0.057,0.084-0.112,0.084h-2.87
		c-0.476,0-0.532,0-0.798,0.07l-0.14-0.476c0.448,0.084,0.518,0.084,0.938,0.084H70.597z M76.336,30.032
		c0.238-0.28,0.309-0.364,0.532-0.616c0.392,0.224,0.504,0.294,0.868,0.518c0.126,0.084,0.168,0.14,0.168,0.21
		c0,0.112-0.042,0.154-0.532,0.448c-0.014,0.686-0.014,1.19-0.014,1.54c0,0.826,0.014,1.316,0.042,2.31l0.014,0.028
		c0,0.056-0.014,0.07-0.042,0.084c-0.098,0.042-0.392,0.084-0.63,0.084s-0.294-0.028-0.294-0.14V33.98H69.28v0.518
		c0,0.182-0.07,0.21-0.518,0.21c-0.393,0-0.448-0.014-0.448-0.126c0.056-1.148,0.069-1.596,0.069-3.164c0-0.924,0-0.938-0.056-1.946
		c0.477,0.224,0.63,0.294,1.134,0.56H76.336z M70.61,27.232c0.252-0.238,0.336-0.322,0.56-0.532
		c0.393,0.294,0.504,0.392,0.868,0.686c0.042,0.056,0.056,0.084,0.056,0.112c0,0.042-0.042,0.056-0.14,0.056h-2.758
		c-0.35,0-0.42,0.014-0.714,0.084l-0.154-0.504c0.351,0.084,0.477,0.098,0.868,0.098H70.61z M72.347,31.74v-1.386H69.28v1.386
		H72.347z M69.28,33.658h3.066v-1.596H69.28V33.658z M76.448,30.354h-3.22v1.386h3.22V30.354z M73.229,32.063v1.596h3.22v-1.596
		H73.229z M76.462,26.645c0.393,0.322,0.504,0.42,0.868,0.742c0.042,0.042,0.056,0.07,0.056,0.084c0,0.042-0.069,0.084-0.14,0.084
		h-2.813c-0.351,0-0.448,0.014-0.7,0.07l-0.126-0.49c0.434,0.084,0.49,0.098,0.826,0.098h1.456L76.462,26.645z M76.112,28.563
		c0.238-0.294,0.308-0.378,0.546-0.616c0.434,0.308,0.56,0.42,0.966,0.756c0.042,0.042,0.057,0.084,0.057,0.112
		c0,0.042-0.057,0.07-0.112,0.07h-2.996c-0.42,0-0.476,0-0.84,0.07l-0.126-0.504c0.504,0.112,0.546,0.112,0.966,0.112H76.112z"/>
	<path d="M2.654,49.311c0,0.532-0.42,0.952-0.952,0.952c-0.518,0-0.952-0.434-0.952-0.952s0.435-0.952,0.952-0.952
		C2.234,48.358,2.654,48.778,2.654,49.311z M7.316,49.311c0,0.532-0.42,0.952-0.952,0.952c-0.518,0-0.952-0.434-0.952-0.952
		s0.435-0.952,0.952-0.952C6.896,48.358,7.316,48.778,7.316,49.311z M11.992,49.311c0,0.532-0.42,0.952-0.952,0.952
		c-0.518,0-0.952-0.434-0.952-0.952s0.435-0.952,0.952-0.952C11.572,48.358,11.992,48.778,11.992,49.311z"/>
	<path d="M16.654,49.311c0,0.532-0.42,0.952-0.952,0.952c-0.518,0-0.952-0.434-0.952-0.952s0.435-0.952,0.952-0.952
		C16.234,48.358,16.654,48.778,16.654,49.311z M21.316,49.311c0,0.532-0.42,0.952-0.952,0.952c-0.518,0-0.952-0.434-0.952-0.952
		s0.435-0.952,0.952-0.952C20.896,48.358,21.316,48.778,21.316,49.311z M25.992,49.311c0,0.532-0.42,0.952-0.952,0.952
		c-0.518,0-0.952-0.434-0.952-0.952s0.435-0.952,0.952-0.952C25.572,48.358,25.992,48.778,25.992,49.311z"/>
	<path d="M29.143,46.287c0.195,0.182,0.35,0.238,0.63,0.238c0.392,0,0.742-0.07,3.878-0.826c0.588-0.154,1.344-0.308,2.268-0.49
		c1.064-0.224,1.471-0.322,1.891-0.462c0.279-0.084,0.378-0.112,0.489-0.112c0.168,0,0.477,0.126,0.756,0.294
		c0.28,0.182,0.406,0.336,0.406,0.532c0,0.21-0.168,0.35-0.434,0.35c-0.057,0-0.154,0-0.252-0.014
		c-0.183-0.028-0.252-0.028-0.393-0.028c-2.394,0-4.703,2.282-4.703,4.634c0,1.288,0.644,2.254,1.848,2.772
		c0.476,0.196,1.008,0.322,1.428,0.336c0.28,0,0.393,0.042,0.588,0.224c0.267,0.252,0.42,0.504,0.42,0.672
		c0,0.224-0.21,0.392-0.504,0.392c-0.812,0-2.072-0.448-2.855-1.008c-1.064-0.756-1.624-1.848-1.624-3.136
		c0-1.134,0.56-2.394,1.525-3.416c0.561-0.616,1.106-0.994,2.282-1.61c-1.273,0.182-2.422,0.462-4.018,0.98
		c-0.883,0.28-1.792,0.658-2.24,0.896c-0.28,0.168-0.378,0.196-0.561,0.196c-0.336,0-0.756-0.322-1.077-0.826
		c-0.225-0.336-0.364-0.714-0.364-0.938c0-0.112,0.028-0.196,0.154-0.378C28.807,45.908,28.918,46.09,29.143,46.287z M37.22,47.084
		c0.519,0.224,1.036,0.504,1.4,0.77c0.378,0.294,0.546,0.546,0.546,0.868c0,0.392-0.153,0.686-0.35,0.686
		c-0.126,0-0.154-0.042-0.42-0.532c-0.28-0.518-0.756-1.12-1.303-1.624L37.22,47.084z M38.564,46.51
		c0.588,0.168,0.994,0.336,1.386,0.56c0.434,0.252,0.616,0.518,0.616,0.896s-0.141,0.672-0.336,0.672
		c-0.099,0-0.183-0.07-0.28-0.294c-0.308-0.63-0.784-1.162-1.484-1.68L38.564,46.51z"/>
	<path d="M43.968,45.167c0.547,0.63,1.022,0.826,1.961,0.826c0.266,0,0.434-0.014,0.812-0.07c0.084-0.63,0.154-1.316,0.154-1.554
		c0-0.504-0.225-0.728-0.91-0.938c0.154-0.126,0.224-0.154,0.406-0.154c0.308,0,0.84,0.14,1.218,0.322
		c0.35,0.182,0.518,0.35,0.518,0.574c0,0.126,0,0.126-0.182,0.364c-0.168,0.238-0.266,0.504-0.435,1.26
		c1.33-0.28,2.156-0.602,2.633-0.994c0.153-0.14,0.21-0.154,0.35-0.154c0.196,0,0.504,0.056,0.658,0.112
		c0.14,0.056,0.224,0.168,0.224,0.308c0,0.252-0.28,0.42-1.204,0.742c-0.7,0.238-1.777,0.49-2.813,0.658
		c-0.126,0.63-0.238,1.484-0.267,2.114c0.799-0.266,1.484-0.406,2.24-0.448c0-0.042,0-0.07,0-0.084c0-0.266-0.112-0.462-0.448-0.77
		c0.07-0.014,0.126-0.028,0.154-0.028c0.364,0,0.771,0.378,0.896,0.84c1.245,0.14,2.016,0.42,2.716,0.994
		c0.63,0.546,0.952,1.274,0.952,2.212c0,2.128-2.17,3.724-5.46,4.004l-0.042-0.224c2.842-0.7,4.424-2.156,4.424-4.102
		c0-0.854-0.364-1.554-1.022-1.988c-0.392-0.252-0.868-0.392-1.624-0.49c-0.21,0.714-0.434,1.19-0.882,1.918
		c-0.49,0.77-0.91,1.288-1.498,1.82c0.183,0.35,0.183,0.35,0.351,0.588C47.944,52.979,48,53.16,48,53.413
		c0,0.378-0.126,0.644-0.321,0.644c-0.238,0-0.477-0.378-0.813-1.232c-0.896,0.812-1.862,1.33-2.422,1.33
		c-0.336,0-0.49-0.154-0.672-0.644c-0.099-0.238-0.126-0.294-0.267-0.532c-0.21-0.336-0.266-0.532-0.266-0.84
		c0-0.728,0.434-1.456,1.316-2.198c0.518-0.42,1.063-0.756,1.89-1.12c0.014-0.21,0.014-0.21,0.084-1.036
		c0.014-0.238,0.042-0.462,0.126-1.246c-0.266,0.014-0.392,0.028-0.532,0.028c-1.105,0-1.764-0.364-2.338-1.288L43.968,45.167z
		 M44.458,51.046c-0.294,0.448-0.434,0.882-0.434,1.316c0,0.518,0.21,0.854,0.532,0.854c0.447,0,1.315-0.476,2.086-1.134
		c-0.168-0.91-0.21-1.372-0.21-2.254c0-0.098,0-0.28,0-0.504C45.382,49.94,44.893,50.36,44.458,51.046z M47.063,49.492
		c0,0.756,0.069,1.456,0.195,2.044c1.093-1.134,1.597-1.876,2.002-3.024c-0.798,0.07-1.329,0.196-2.197,0.532
		C47.063,49.24,47.063,49.395,47.063,49.492z"/>
	<path d="M63.513,44.858c-0.547,0.168-1.862,0.686-2.828,1.106c-0.28,0.126-0.462,0.182-0.574,0.182
		c-0.252,0-0.532-0.196-0.798-0.588c-0.252-0.378-0.393-0.742-0.393-1.036c0-0.126,0.028-0.224,0.126-0.364
		c0.21,0.658,0.588,1.022,1.051,1.022c0.363,0,1.693-0.308,2.646-0.602c0.546-0.182,0.574-0.182,0.868-0.434
		c0.056-0.042,0.126-0.07,0.196-0.07c0.182,0,0.405,0.14,0.756,0.49c0.321,0.308,0.42,0.462,0.42,0.63
		c0,0.098-0.07,0.182-0.238,0.266c-0.406,0.21-0.546,0.322-1.162,0.938c-0.882,0.882-1.399,1.4-2.058,2.1
		c-1.344,1.442-1.344,1.442-1.639,1.736l0.028,0.028c1.498-0.938,2.632-1.33,3.809-1.33c1.792,0,2.995,1.05,2.995,2.618
		c0,2.002-1.861,3.486-4.396,3.486c-1.372,0-2.254-0.546-2.254-1.4c0-0.686,0.644-1.19,1.512-1.19c0.687,0,1.316,0.252,1.778,0.686
		c0.252,0.238,0.406,0.462,0.616,0.868c1.063-0.462,1.693-1.428,1.693-2.618c0-0.77-0.308-1.4-0.868-1.736
		c-0.294-0.168-0.84-0.28-1.386-0.28c-1.372,0-3.29,1.12-4.452,2.604c-0.237,0.294-0.336,0.378-0.476,0.378
		c-0.21,0-0.462-0.49-0.462-0.91c0-0.168,0.098-0.322,0.294-0.49c0.532-0.406,0.756-0.63,1.946-1.946
		c1.708-1.918,2.239-2.534,3.346-3.962c0.112-0.154,0.112-0.154,0.14-0.224c0,0-0.027-0.028-0.042-0.028c0,0-0.014,0-0.014,0.014
		c-0.014,0-0.014,0-0.042,0c0,0-0.028,0.014-0.07,0.028L63.513,44.858z M61.356,52.895c-0.532,0-0.882,0.28-0.882,0.714
		c0,0.518,0.615,0.854,1.596,0.854c0.378,0,0.56-0.028,0.994-0.126C62.784,53.44,62.141,52.895,61.356,52.895z"/>
	<path d="M79.71,44.592c0.351-0.434,0.448-0.56,0.798-0.938c0.574,0.462,0.757,0.616,1.33,1.092
		c0.028,0.042,0.042,0.084,0.042,0.098c0,0.056-0.042,0.07-0.14,0.07h-5.544c-0.168,0.588-0.308,0.98-0.546,1.526h3.598
		c0.322-0.392,0.42-0.518,0.742-0.896c0.56,0.448,0.728,0.588,1.288,1.05c0.028,0.042,0.056,0.07,0.056,0.098
		s-0.069,0.07-0.126,0.07h-3.682c0.434,0.854,0.588,1.092,1.021,1.61h2.114c0.364-0.434,0.477-0.574,0.813-0.966
		c0.588,0.462,0.756,0.616,1.315,1.106c0.028,0.042,0.057,0.084,0.057,0.112c0,0.042-0.057,0.07-0.127,0.07h-3.878
		c0.351,0.364,0.603,0.588,1.009,0.868c1.077,0.784,1.848,1.134,3.206,1.442l-0.015,0.266c-0.574,0.07-0.686,0.14-1.12,0.798
		c-1.189-0.644-1.861-1.19-2.842-2.296c-0.322-0.364-0.574-0.672-0.854-1.078h-3.822c-0.28,0.406-0.546,0.742-0.91,1.148
		c0.322,0.182,0.392,0.224,0.771,0.448h4.172c0.153-0.182,0.153-0.182,0.308-0.364c0.364,0.294,0.476,0.378,0.826,0.686
		c0.042,0.042,0.07,0.084,0.07,0.112c0,0.056-0.028,0.084-0.196,0.238c0,1.792,0.042,3.444,0.112,4.508
		c0,0.112-0.028,0.14-0.112,0.168c-0.112,0.042-0.477,0.07-0.742,0.07c-0.126,0-0.168-0.028-0.168-0.154v-0.518h-4.382v0.434
		c-0.014,0.112-0.042,0.168-0.126,0.196c-0.084,0.028-0.462,0.07-0.687,0.07c-0.126,0-0.168-0.042-0.168-0.14
		c0.057-2.254,0.07-3.122,0.07-3.878c0-0.532,0-0.532-0.028-1.554c-1.077,1.12-1.876,1.708-3.374,2.464l-0.111-0.196
		c1.609-1.162,2.729-2.268,3.752-3.738h-2.395c-0.546,0-0.741,0.014-1.078,0.07l-0.084-0.504c0.49,0.098,0.645,0.112,1.4,0.112
		h2.366c0.364-0.56,0.588-0.994,0.868-1.61h-2.212c-0.393,0-0.561,0.014-0.938,0.056l-0.084-0.476
		c0.42,0.084,0.616,0.098,1.218,0.098h2.156c0.21-0.532,0.322-0.868,0.49-1.526h-3.137c-0.336,0-0.714,0.028-1.105,0.07
		l-0.098-0.518c0.518,0.112,0.741,0.126,1.372,0.126h3.052c0.168-0.714,0.21-1.064,0.252-1.736c1.554,0.266,1.651,0.28,1.651,0.434
		c0,0.126-0.084,0.168-0.657,0.322c-0.112,0.476-0.168,0.7-0.238,0.98H79.71z M78.534,50.612h-4.382v1.764h4.382V50.612z
		 M74.152,52.698v2.016h4.382v-2.016H74.152z M75.51,46.762c-0.294,0.63-0.518,1.036-0.882,1.61h3.374
		c-0.308-0.504-0.434-0.756-0.77-1.61H75.51z"/>
</g>
<g>
	<path d="M64.498,73.659c0.645-0.161,1.106-0.336,1.547-0.588c0.819-0.462,1.288-1.148,1.288-1.883c0-0.7-0.518-1.176-1.281-1.176
		c-0.818,0-1.89,0.448-2.813,1.169c-0.112,0.091-0.182,0.119-0.266,0.119c-0.329,0-0.841-0.49-0.841-0.805
		c0-0.049,0.015-0.091,0.057-0.175c0.069,0.147,0.111,0.196,0.195,0.259c0.105,0.077,0.189,0.112,0.287,0.112
		c0.183,0,0.448-0.077,0.848-0.252c1.105-0.483,1.834-0.672,2.562-0.672c1.064,0,1.792,0.623,1.792,1.54
		c0,0.868-0.588,1.617-1.609,2.051c-0.532,0.224-1.043,0.343-1.729,0.406L64.498,73.659z"/>
	<path d="M70.603,71.601c-0.399,1.393-0.512,1.904-0.512,2.331c-0.007,0.196-0.056,0.287-0.168,0.287
		c-0.118,0-0.224-0.091-0.286-0.245c-0.154-0.364-0.253-0.973-0.253-1.589c0-0.28,0.021-0.616,0.063-0.91
		c0.049-0.406,0.049-0.406,0.294-1.442c0.07-0.308,0.105-0.532,0.105-0.672c0-0.168-0.07-0.343-0.21-0.546
		c0.153,0.007,0.244,0.07,0.412,0.273c0.196,0.231,0.315,0.483,0.315,0.672c0,0.098-0.014,0.14-0.105,0.308
		c-0.35,0.658-0.56,1.491-0.56,2.254c0,0.35,0.028,0.56,0.119,0.938l0.665-1.715L70.603,71.601z M71.421,69.389
		c0.238,0.098,0.435,0.133,0.749,0.133c0.554,0,1.162-0.133,1.562-0.343c0.049-0.028,0.104-0.049,0.126-0.049
		c0.168,0,0.392,0.14,0.392,0.245c0,0.07-0.069,0.133-0.23,0.182c-0.231,0.077-0.512,0.14-0.819,0.182
		c0.21,0.168,0.273,0.245,0.273,0.343c0,0.028-0.008,0.063-0.015,0.112c-0.021,0.126-0.027,0.224-0.042,0.84
		c0.267-0.098,0.364-0.154,0.567-0.336c0.027-0.021,0.07-0.049,0.091-0.049c0.028,0,0.119,0.028,0.168,0.049
		c0.091,0.056,0.147,0.119,0.147,0.182s-0.05,0.14-0.134,0.196c-0.217,0.147-0.504,0.259-0.84,0.343
		c0.015,0.448,0.035,0.84,0.084,1.372c0.861,0.252,1.218,0.525,1.218,0.931c0,0.133-0.063,0.231-0.153,0.231
		c-0.057,0-0.105-0.028-0.183-0.105c-0.35-0.371-0.489-0.469-0.86-0.63c0,0.287-0.021,0.378-0.084,0.518
		c-0.141,0.273-0.512,0.427-1.029,0.427c-0.644,0-1.071-0.273-1.071-0.686c0-0.476,0.532-0.798,1.316-0.798
		c0.133,0,0.245,0.007,0.441,0.035V71.93c0-0.021,0-0.266,0-0.455c-0.225,0.021-0.344,0.028-0.497,0.028
		c-0.386,0-0.665-0.077-0.854-0.238c-0.161-0.133-0.23-0.273-0.259-0.532l0.098-0.021c0.063,0.217,0.141,0.315,0.301,0.399
		c0.112,0.056,0.344,0.091,0.561,0.091c0.203,0,0.44-0.028,0.651-0.07c0-0.14,0.007-0.861,0.007-0.938
		c0-0.238-0.021-0.315-0.105-0.434c-0.217,0.014-0.322,0.021-0.469,0.021c-0.469,0-0.84-0.098-1.162-0.294L71.421,69.389z
		 M72.408,72.979c-0.532,0-0.896,0.203-0.896,0.49c0,0.238,0.266,0.385,0.686,0.385c0.371,0,0.644-0.098,0.77-0.273
		c0.057-0.077,0.092-0.182,0.105-0.308c0.007-0.042,0.014-0.168,0.014-0.203v-0.007C72.877,73.008,72.653,72.979,72.408,72.979z
		 M73.962,68.437c0.267,0.126,0.477,0.259,0.687,0.427c0.195,0.154,0.287,0.308,0.287,0.476c0,0.175-0.084,0.336-0.183,0.336
		c-0.042,0-0.077-0.028-0.119-0.07c-0.014-0.021-0.014-0.021-0.146-0.315c-0.119-0.252-0.336-0.539-0.588-0.777L73.962,68.437z
		 M74.571,68.17c0.266,0.098,0.469,0.21,0.686,0.357c0.225,0.161,0.309,0.28,0.309,0.448c0,0.196-0.07,0.336-0.175,0.336
		c-0.063,0-0.112-0.049-0.168-0.161c-0.176-0.385-0.399-0.672-0.707-0.91L74.571,68.17z"/>
	<path d="M78.792,74.366c0.512-0.413,0.742-0.644,0.994-0.994s0.42-0.679,0.623-1.211c-0.609-0.322-1.211-0.476-2.009-0.511
		c-0.427,0.777-0.609,1.071-0.847,1.386c-0.26,0.322-0.477,0.483-0.673,0.483c-0.294,0-0.539-0.336-0.539-0.742
		c0-0.357,0.176-0.714,0.477-0.966c0.308-0.259,0.77-0.42,1.33-0.462c0.098-0.168,0.111-0.217,0.497-1.099
		c0.224-0.532,0.252-0.609,0.363-0.987c-0.168,0.042-0.65,0.196-1.008,0.322c-0.111,0.035-0.168,0.049-0.23,0.049
		c-0.217,0-0.441-0.343-0.441-0.679c0-0.07,0.014-0.105,0.077-0.161c0.14,0.322,0.266,0.427,0.525,0.427
		c0.182,0,0.398-0.035,0.741-0.119c0.183-0.049,0.21-0.063,0.309-0.147c0.042-0.049,0.084-0.063,0.146-0.063
		c0.154,0,0.504,0.371,0.504,0.546c0,0.056-0.027,0.105-0.104,0.161c-0.161,0.133-0.224,0.231-0.707,1.19
		c-0.189,0.378-0.217,0.434-0.287,0.567c0.707,0.035,1.316,0.154,2.009,0.399c0.119-0.364,0.231-0.903,0.231-1.127
		c0-0.189-0.099-0.315-0.364-0.483c0.049-0.035,0.077-0.042,0.126-0.042c0.119,0,0.28,0.056,0.49,0.161
		c0.224,0.112,0.329,0.224,0.329,0.35c0,0.07-0.007,0.105-0.063,0.245c-0.021,0.049-0.063,0.196-0.168,0.525
		c-0.035,0.126-0.063,0.21-0.161,0.532c0.84,0.42,1.064,0.623,1.064,0.994c0,0.14-0.07,0.252-0.161,0.252
		c-0.063,0-0.112-0.035-0.238-0.147c-0.224-0.224-0.455-0.406-0.833-0.658c-0.308,0.672-0.524,1.008-0.896,1.365
		c-0.315,0.301-0.603,0.504-1.05,0.721L78.792,74.366z M76.644,72.608c0,0.259,0.146,0.504,0.301,0.504
		c0.23,0,0.525-0.406,1.063-1.47C77.112,71.741,76.644,72.07,76.644,72.608z"/>
	<path d="M10.654,81.961c0,0.532-0.42,0.952-0.952,0.952c-0.518,0-0.952-0.434-0.952-0.952s0.435-0.952,0.952-0.952
		C10.234,81.009,10.654,81.429,10.654,81.961z M15.316,81.961c0,0.532-0.42,0.952-0.952,0.952c-0.518,0-0.952-0.434-0.952-0.952
		s0.435-0.952,0.952-0.952C14.896,81.009,15.316,81.429,15.316,81.961z M19.992,81.961c0,0.532-0.42,0.952-0.952,0.952
		c-0.518,0-0.952-0.434-0.952-0.952s0.435-0.952,0.952-0.952C19.572,81.009,19.992,81.429,19.992,81.961z"/>
	<path d="M24.654,81.961c0,0.532-0.42,0.952-0.952,0.952c-0.518,0-0.952-0.434-0.952-0.952s0.435-0.952,0.952-0.952
		C24.234,81.009,24.654,81.429,24.654,81.961z M29.316,81.961c0,0.532-0.42,0.952-0.952,0.952c-0.518,0-0.952-0.434-0.952-0.952
		s0.435-0.952,0.952-0.952C28.896,81.009,29.316,81.429,29.316,81.961z M33.992,81.961c0,0.532-0.42,0.952-0.952,0.952
		c-0.518,0-0.952-0.434-0.952-0.952s0.435-0.952,0.952-0.952C33.572,81.009,33.992,81.429,33.992,81.961z"/>
	<path d="M38.836,82.815c-0.027,0.308-0.042,0.434-0.042,0.63c0,1.666,1.051,2.45,3.305,2.45c1.105,0,2.268-0.196,3.094-0.504
		c0.084-0.042,0.168-0.056,0.238-0.056c0.21,0,0.531,0.126,0.77,0.28c0.196,0.154,0.308,0.322,0.308,0.49
		c0,0.21-0.153,0.364-0.447,0.434c-0.645,0.168-2.017,0.28-3.263,0.28c-1.567,0-2.562-0.196-3.262-0.672
		c-0.7-0.448-1.162-1.33-1.162-2.212c0-0.336,0.07-0.714,0.225-1.176L38.836,82.815z M39.271,77.285
		c0.714,0.476,1.204,0.616,2.142,0.616c0.924,0,2.101-0.168,2.912-0.42c0.098-0.028,0.21-0.056,0.252-0.056
		c0.364,0,0.84,0.42,0.84,0.728c0,0.238-0.084,0.28-1.021,0.49c-0.546,0.112-0.672,0.168-2.044,0.686
		c-0.336,0.126-0.336,0.126-1.148,0.476c-0.28,0.112-0.28,0.126-0.546,0.224l-0.098-0.21c0.434-0.252,0.657-0.392,1.021-0.588
		c0.952-0.518,0.952-0.518,1.176-0.658c-0.308,0.028-0.798,0.042-1.05,0.042c-0.518,0-1.162-0.154-1.596-0.378
		c-0.364-0.196-0.588-0.392-0.98-0.812L39.271,77.285z"/>
	<path d="M56.252,87.001c1.513-0.448,2.479-1.022,3.276-1.946c0.826-0.938,1.246-2.086,1.246-3.374c0-1.358-0.546-2.436-1.582-3.094
		c-0.616-0.406-1.54-0.644-2.422-0.644c-0.168,0-0.267,0-0.49,0.028c0.336,0.49,0.434,0.756,0.434,1.162
		c0,1.092-0.783,3.136-1.848,4.844c-0.882,1.4-1.568,2.086-2.086,2.086c-0.238,0-0.462-0.112-0.616-0.294
		c-0.126-0.168-0.154-0.224-0.392-0.896c-0.126-0.364-0.21-0.532-0.616-1.316c-0.224-0.448-0.322-0.826-0.322-1.274
		c0-0.882,0.477-1.918,1.261-2.772c1.134-1.204,2.981-1.96,4.815-1.96c1.414,0,2.716,0.462,3.612,1.288
		c0.896,0.826,1.344,1.932,1.344,3.29c0,1.75-1.022,3.304-2.786,4.242c-0.812,0.434-1.54,0.658-2.729,0.868L56.252,87.001z
		 M51.646,82.647c0,0.672,0.21,1.358,0.56,1.848c0.196,0.252,0.378,0.406,0.532,0.406c0.308,0,0.979-0.756,1.666-1.848
		c1.036-1.652,1.778-3.458,1.778-4.326c0-0.21-0.042-0.35-0.196-0.7C53.55,78.461,51.646,80.491,51.646,82.647z"/>
	<path d="M73.347,79.581v-1.008h-2.885c-0.518,0-0.63,0.014-0.979,0.084l-0.126-0.518c0.504,0.112,0.56,0.112,1.105,0.112h6.44
		c0.35-0.35,0.448-0.448,0.756-0.798c0.476,0.364,0.616,0.476,1.05,0.84c0.099,0.084,0.126,0.14,0.126,0.182
		c0,0.07-0.056,0.098-0.153,0.098h-4.452v1.008h4.508c0.308-0.252,0.392-0.336,0.672-0.602c0.42,0.35,0.546,0.448,0.952,0.784
		c0.14,0.112,0.168,0.154,0.168,0.196c0,0.14-0.225,0.196-0.84,0.196c-0.406,0.448-0.561,0.588-1.064,0.98l-0.098-0.112
		c0.042-0.182,0.042-0.182,0.168-0.532c0.098-0.266,0.098-0.266,0.154-0.588h-4.62v0.77c0,1.568,0,1.568,0.014,2.212
		c0,0.028,0,0.042,0,0.056c0,0.07-0.028,0.098-0.098,0.126c-0.154,0.042-0.462,0.084-0.63,0.084c-0.126,0-0.183-0.042-0.183-0.126
		c0.015-0.756,0.015-0.756,0.015-2.268v-0.854h-4.299c-0.042,0.784-0.098,1.078-0.279,1.498c-0.183,0.434-0.546,0.812-0.784,0.812
		c-0.183,0-0.364-0.364-0.364-0.7c0-0.196,0.07-0.28,0.378-0.504c0.294-0.21,0.435-0.42,0.588-0.84
		c0.141-0.364,0.183-0.616,0.21-1.12h0.28c0,0.28,0,0.308-0.014,0.532H73.347z M75.307,76.711c0.014-0.14,0.014-0.21,0.014-0.266
		c0-0.546-0.014-0.77-0.028-0.966c1.19,0.098,1.19,0.098,1.302,0.14c0.042,0.028,0.084,0.07,0.084,0.112
		c0,0.098-0.14,0.182-0.531,0.294c0,0.35,0,0.406,0,0.686h1.693c0.393-0.42,0.519-0.546,0.883-0.924
		c0.588,0.42,0.756,0.546,1.329,0.994c0.07,0.07,0.099,0.126,0.099,0.154c0,0.056-0.057,0.098-0.141,0.098h-3.863
		c0,0.238,0,0.336,0.014,0.616c0,0.14-0.07,0.154-0.56,0.154c-0.267,0-0.309-0.014-0.309-0.14c0.015-0.308,0.015-0.434,0.015-0.63
		h-2.996c0,0.224,0,0.322,0.014,0.616c0,0.098-0.028,0.14-0.112,0.154c-0.056,0.014-0.405,0.042-0.518,0.042
		c-0.182,0-0.238-0.042-0.238-0.182c0.015-0.322,0.015-0.406,0.015-0.63h-2.675c-0.489,0-0.644,0.014-0.924,0.07l-0.111-0.504
		c0.476,0.098,0.588,0.112,1.035,0.112h2.675c0-0.798-0.015-0.966-0.042-1.288c1.26,0.112,1.399,0.14,1.399,0.308
		c0,0.112-0.126,0.182-0.518,0.266c0,0.336,0,0.336,0,0.714H75.307z M71.597,82.213c0.252-0.238,0.336-0.308,0.573-0.546
		c0.364,0.28,0.477,0.364,0.813,0.658c0.042,0.042,0.084,0.098,0.084,0.126c0,0.042-0.057,0.084-0.112,0.084h-2.87
		c-0.476,0-0.532,0-0.798,0.07l-0.14-0.476c0.448,0.084,0.518,0.084,0.938,0.084H71.597z M77.336,83.683
		c0.238-0.28,0.309-0.364,0.532-0.616c0.392,0.224,0.504,0.294,0.868,0.518c0.126,0.084,0.168,0.14,0.168,0.21
		c0,0.112-0.042,0.154-0.532,0.448c-0.014,0.686-0.014,1.19-0.014,1.54c0,0.826,0.014,1.316,0.042,2.31l0.014,0.028
		c0,0.056-0.014,0.07-0.042,0.084c-0.098,0.042-0.392,0.084-0.63,0.084s-0.294-0.028-0.294-0.14v-0.518H70.28v0.518
		c0,0.182-0.07,0.21-0.518,0.21c-0.393,0-0.448-0.014-0.448-0.126c0.056-1.148,0.069-1.596,0.069-3.164c0-0.924,0-0.938-0.056-1.946
		c0.477,0.224,0.63,0.294,1.134,0.56H77.336z M71.61,80.883c0.252-0.238,0.336-0.322,0.56-0.532
		c0.393,0.294,0.504,0.392,0.868,0.686c0.042,0.056,0.056,0.084,0.056,0.112c0,0.042-0.042,0.056-0.14,0.056h-2.758
		c-0.35,0-0.42,0.014-0.714,0.084l-0.154-0.504c0.351,0.084,0.477,0.098,0.868,0.098H71.61z M73.347,85.391v-1.386H70.28v1.386
		H73.347z M70.28,87.309h3.066v-1.596H70.28V87.309z M77.448,84.005h-3.22v1.386h3.22V84.005z M74.229,85.713v1.596h3.22v-1.596
		H74.229z M77.462,80.295c0.393,0.322,0.504,0.42,0.868,0.742c0.042,0.042,0.056,0.07,0.056,0.084c0,0.042-0.069,0.084-0.14,0.084
		h-2.813c-0.351,0-0.448,0.014-0.7,0.07l-0.126-0.49c0.434,0.084,0.49,0.098,0.826,0.098h1.456L77.462,80.295z M77.112,82.213
		c0.238-0.294,0.308-0.378,0.546-0.616c0.434,0.308,0.56,0.42,0.966,0.756c0.042,0.042,0.057,0.084,0.057,0.112
		c0,0.042-0.057,0.07-0.112,0.07h-2.996c-0.42,0-0.476,0-0.84,0.07l-0.126-0.504c0.504,0.112,0.546,0.112,0.966,0.112H77.112z"/>
	<path d="M1.904,102.961c0,0.532-0.42,0.952-0.952,0.952c-0.518,0-0.952-0.434-0.952-0.952s0.435-0.952,0.952-0.952
		C1.484,102.009,1.904,102.429,1.904,102.961z M6.566,102.961c0,0.532-0.42,0.952-0.952,0.952c-0.518,0-0.952-0.434-0.952-0.952
		s0.435-0.952,0.952-0.952C6.146,102.009,6.566,102.429,6.566,102.961z M11.242,102.961c0,0.532-0.42,0.952-0.952,0.952
		c-0.518,0-0.952-0.434-0.952-0.952s0.435-0.952,0.952-0.952C10.822,102.009,11.242,102.429,11.242,102.961z"/>
	<path d="M15.904,102.961c0,0.532-0.42,0.952-0.952,0.952c-0.518,0-0.952-0.434-0.952-0.952s0.435-0.952,0.952-0.952
		C15.484,102.009,15.904,102.429,15.904,102.961z M20.566,102.961c0,0.532-0.42,0.952-0.952,0.952c-0.518,0-0.952-0.434-0.952-0.952
		s0.435-0.952,0.952-0.952C20.146,102.009,20.566,102.429,20.566,102.961z M25.242,102.961c0,0.532-0.42,0.952-0.952,0.952
		c-0.518,0-0.952-0.434-0.952-0.952s0.435-0.952,0.952-0.952C24.822,102.009,25.242,102.429,25.242,102.961z"/>
	<path d="M28.393,99.937c0.195,0.182,0.35,0.238,0.63,0.238c0.392,0,0.742-0.07,3.878-0.826c0.588-0.154,1.344-0.308,2.268-0.49
		c1.064-0.224,1.471-0.322,1.891-0.462c0.279-0.084,0.378-0.112,0.489-0.112c0.168,0,0.477,0.126,0.756,0.294
		c0.28,0.182,0.406,0.336,0.406,0.532c0,0.21-0.168,0.35-0.434,0.35c-0.057,0-0.154,0-0.252-0.014
		c-0.183-0.028-0.252-0.028-0.393-0.028c-2.394,0-4.703,2.282-4.703,4.634c0,1.288,0.644,2.254,1.848,2.772
		c0.476,0.196,1.008,0.322,1.428,0.336c0.28,0,0.393,0.042,0.588,0.224c0.267,0.252,0.42,0.504,0.42,0.672
		c0,0.224-0.21,0.392-0.504,0.392c-0.812,0-2.072-0.448-2.855-1.008c-1.064-0.756-1.624-1.848-1.624-3.136
		c0-1.134,0.56-2.394,1.525-3.416c0.561-0.616,1.106-0.994,2.282-1.61c-1.273,0.182-2.422,0.462-4.018,0.98
		c-0.883,0.28-1.792,0.658-2.24,0.896c-0.28,0.168-0.378,0.196-0.561,0.196c-0.336,0-0.756-0.322-1.077-0.826
		c-0.225-0.336-0.364-0.714-0.364-0.938c0-0.112,0.028-0.196,0.154-0.378C28.057,99.559,28.168,99.741,28.393,99.937z
		 M36.47,100.735c0.519,0.224,1.036,0.504,1.4,0.77c0.378,0.294,0.546,0.546,0.546,0.868c0,0.392-0.153,0.686-0.35,0.686
		c-0.126,0-0.154-0.042-0.42-0.532c-0.28-0.518-0.756-1.12-1.303-1.624L36.47,100.735z M37.814,100.161
		c0.588,0.168,0.994,0.336,1.386,0.56c0.434,0.252,0.616,0.518,0.616,0.896s-0.141,0.672-0.336,0.672
		c-0.099,0-0.183-0.07-0.28-0.294c-0.308-0.63-0.784-1.162-1.484-1.68L37.814,100.161z"/>
	<path d="M43.218,98.817c0.547,0.63,1.022,0.826,1.961,0.826c0.266,0,0.434-0.014,0.812-0.07c0.084-0.63,0.154-1.316,0.154-1.554
		c0-0.504-0.225-0.728-0.91-0.938c0.154-0.126,0.224-0.154,0.406-0.154c0.308,0,0.84,0.14,1.218,0.322
		c0.35,0.182,0.518,0.35,0.518,0.574c0,0.126,0,0.126-0.182,0.364c-0.168,0.238-0.266,0.504-0.435,1.26
		c1.33-0.28,2.156-0.602,2.633-0.994c0.153-0.14,0.21-0.154,0.35-0.154c0.196,0,0.504,0.056,0.658,0.112
		c0.14,0.056,0.224,0.168,0.224,0.308c0,0.252-0.28,0.42-1.204,0.742c-0.7,0.238-1.777,0.49-2.813,0.658
		c-0.126,0.63-0.238,1.484-0.267,2.114c0.799-0.266,1.484-0.406,2.24-0.448c0-0.042,0-0.07,0-0.084c0-0.266-0.112-0.462-0.448-0.77
		c0.07-0.014,0.126-0.028,0.154-0.028c0.364,0,0.771,0.378,0.896,0.84c1.245,0.14,2.016,0.42,2.716,0.994
		c0.63,0.546,0.952,1.274,0.952,2.212c0,2.128-2.17,3.724-5.46,4.004l-0.042-0.224c2.842-0.7,4.424-2.156,4.424-4.102
		c0-0.854-0.364-1.554-1.022-1.988c-0.392-0.252-0.868-0.392-1.624-0.49c-0.21,0.714-0.434,1.19-0.882,1.918
		c-0.49,0.77-0.91,1.288-1.498,1.82c0.183,0.35,0.183,0.35,0.351,0.588c0.098,0.154,0.153,0.336,0.153,0.588
		c0,0.378-0.126,0.644-0.321,0.644c-0.238,0-0.477-0.378-0.813-1.232c-0.896,0.812-1.862,1.33-2.422,1.33
		c-0.336,0-0.49-0.154-0.672-0.644c-0.099-0.238-0.126-0.294-0.267-0.532c-0.21-0.336-0.266-0.532-0.266-0.84
		c0-0.728,0.434-1.456,1.316-2.198c0.518-0.42,1.063-0.756,1.89-1.12c0.014-0.21,0.014-0.21,0.084-1.036
		c0.014-0.238,0.042-0.462,0.126-1.246c-0.266,0.014-0.392,0.028-0.532,0.028c-1.105,0-1.764-0.364-2.338-1.288L43.218,98.817z
		 M43.708,104.697c-0.294,0.448-0.434,0.882-0.434,1.316c0,0.518,0.21,0.854,0.532,0.854c0.447,0,1.315-0.476,2.086-1.134
		c-0.168-0.91-0.21-1.372-0.21-2.254c0-0.098,0-0.28,0-0.504C44.632,103.591,44.143,104.011,43.708,104.697z M46.313,103.143
		c0,0.756,0.069,1.456,0.195,2.044c1.093-1.134,1.597-1.876,2.002-3.024c-0.798,0.07-1.329,0.196-2.197,0.532
		C46.313,102.891,46.313,103.045,46.313,103.143z"/>
	<path d="M62.763,98.509c-0.547,0.168-1.862,0.686-2.828,1.106c-0.28,0.126-0.462,0.182-0.574,0.182
		c-0.252,0-0.532-0.196-0.798-0.588c-0.252-0.378-0.393-0.742-0.393-1.036c0-0.126,0.028-0.224,0.126-0.364
		c0.21,0.658,0.588,1.022,1.051,1.022c0.363,0,1.693-0.308,2.646-0.602c0.546-0.182,0.574-0.182,0.868-0.434
		c0.056-0.042,0.126-0.07,0.196-0.07c0.182,0,0.405,0.14,0.756,0.49c0.321,0.308,0.42,0.462,0.42,0.63
		c0,0.098-0.07,0.182-0.238,0.266c-0.406,0.21-0.546,0.322-1.162,0.938c-0.882,0.882-1.399,1.4-2.058,2.1
		c-1.344,1.442-1.344,1.442-1.639,1.736l0.028,0.028c1.498-0.938,2.632-1.33,3.809-1.33c1.792,0,2.995,1.05,2.995,2.618
		c0,2.002-1.861,3.486-4.396,3.486c-1.372,0-2.254-0.546-2.254-1.4c0-0.686,0.644-1.19,1.512-1.19c0.687,0,1.316,0.252,1.778,0.686
		c0.252,0.238,0.406,0.462,0.616,0.868c1.063-0.462,1.693-1.428,1.693-2.618c0-0.77-0.308-1.4-0.868-1.736
		c-0.294-0.168-0.84-0.28-1.386-0.28c-1.372,0-3.29,1.12-4.452,2.604c-0.237,0.294-0.336,0.378-0.476,0.378
		c-0.21,0-0.462-0.49-0.462-0.91c0-0.168,0.098-0.322,0.294-0.49c0.532-0.406,0.756-0.63,1.946-1.946
		c1.708-1.918,2.239-2.534,3.346-3.962c0.112-0.154,0.112-0.154,0.14-0.224c0,0-0.027-0.028-0.042-0.028c0,0-0.014,0-0.014,0.014
		c-0.014,0-0.014,0-0.042,0c0,0-0.028,0.014-0.07,0.028L62.763,98.509z M60.606,106.545c-0.532,0-0.882,0.28-0.882,0.714
		c0,0.518,0.615,0.854,1.596,0.854c0.378,0,0.56-0.028,0.994-0.126C62.034,107.091,61.391,106.545,60.606,106.545z"/>
	<path d="M78.96,98.243c0.351-0.434,0.448-0.56,0.798-0.938c0.574,0.462,0.757,0.616,1.33,1.092
		c0.028,0.042,0.042,0.084,0.042,0.098c0,0.056-0.042,0.07-0.14,0.07h-5.544c-0.168,0.588-0.308,0.98-0.546,1.526h3.598
		c0.322-0.392,0.42-0.518,0.742-0.896c0.56,0.448,0.728,0.588,1.288,1.05c0.028,0.042,0.056,0.07,0.056,0.098
		s-0.069,0.07-0.126,0.07h-3.682c0.434,0.854,0.588,1.092,1.021,1.61h2.114c0.364-0.434,0.477-0.574,0.813-0.966
		c0.588,0.462,0.756,0.616,1.315,1.106c0.028,0.042,0.057,0.084,0.057,0.112c0,0.042-0.057,0.07-0.127,0.07h-3.878
		c0.351,0.364,0.603,0.588,1.009,0.868c1.077,0.784,1.848,1.134,3.206,1.442l-0.015,0.266c-0.574,0.07-0.686,0.14-1.12,0.798
		c-1.189-0.644-1.861-1.19-2.842-2.296c-0.322-0.364-0.574-0.672-0.854-1.078h-3.822c-0.28,0.406-0.546,0.742-0.91,1.148
		c0.322,0.182,0.392,0.224,0.771,0.448h4.172c0.153-0.182,0.153-0.182,0.308-0.364c0.364,0.294,0.476,0.378,0.826,0.686
		c0.042,0.042,0.07,0.084,0.07,0.112c0,0.056-0.028,0.084-0.196,0.238c0,1.792,0.042,3.444,0.112,4.508
		c0,0.112-0.028,0.14-0.112,0.168c-0.112,0.042-0.477,0.07-0.742,0.07c-0.126,0-0.168-0.028-0.168-0.154v-0.518h-4.382v0.434
		c-0.014,0.112-0.042,0.168-0.126,0.196c-0.084,0.028-0.462,0.07-0.687,0.07c-0.126,0-0.168-0.042-0.168-0.14
		c0.057-2.254,0.07-3.122,0.07-3.878c0-0.532,0-0.532-0.028-1.554c-1.077,1.12-1.876,1.708-3.374,2.464l-0.111-0.196
		c1.609-1.162,2.729-2.268,3.752-3.738h-2.395c-0.546,0-0.741,0.014-1.078,0.07l-0.084-0.504c0.49,0.098,0.645,0.112,1.4,0.112
		h2.366c0.364-0.56,0.588-0.994,0.868-1.61h-2.212c-0.393,0-0.561,0.014-0.938,0.056l-0.084-0.476
		c0.42,0.084,0.616,0.098,1.218,0.098h2.156c0.21-0.532,0.322-0.868,0.49-1.526h-3.137c-0.336,0-0.714,0.028-1.105,0.07
		l-0.098-0.518c0.518,0.112,0.741,0.126,1.372,0.126h3.052c0.168-0.714,0.21-1.064,0.252-1.736c1.554,0.266,1.651,0.28,1.651,0.434
		c0,0.126-0.084,0.168-0.657,0.322c-0.112,0.476-0.168,0.7-0.238,0.98H78.96z M77.784,104.263h-4.382v1.764h4.382V104.263z
		 M73.402,106.349v2.016h4.382v-2.016H73.402z M74.76,100.413c-0.294,0.63-0.518,1.036-0.882,1.61h3.374
		c-0.308-0.504-0.434-0.756-0.77-1.61H74.76z"/>
</g>
<rect x="34.482" y="21.183" fill="none" stroke="#008CD6" stroke-width="0.5" width="28" height="14"/>
<rect x="65.982" y="21.183" fill="none" stroke="#008CD6" stroke-width="0.5" width="14" height="14"/>
<g>
	<line fill="none" stroke="#008CD6" stroke-width="0.5" x1="62.482" y1="21.183" x2="62.482" y2="14.183"/>
	<line fill="none" stroke="#008CD6" stroke-width="0.5" x1="69.482" y1="14.183" x2="69.482" y2="21.183"/>
	<line fill="none" stroke="#008CD6" stroke-width="0.5" x1="65.982" y1="21.183" x2="62.482" y2="21.183"/>
	<line fill="none" stroke="#008CD6" stroke-width="0.5" x1="76.482" y1="21.183" x2="76.482" y2="14.183"/>
	<polyline fill="none" stroke="#008CD6" stroke-width="0.5" points="62.482,21.183 62.482,14.183 83.481,14.183 83.481,21.183 	"/>
	<line fill="none" stroke="#008CD6" stroke-width="0.5" x1="83.481" y1="21.183" x2="79.981" y2="21.183"/>
</g>
<line fill="none" stroke="#008CD6" stroke-width="0.5" x1="48.482" y1="35.183" x2="48.482" y2="21.183"/>
<line fill="none" stroke="#008CD6" stroke-width="0.5" stroke-dasharray="2" x1="83.502" y1="7.575" x2="83.502" y2="57.183"/>
<g>
	<text fill="#008CD6" x="100%" y="6" font-size="8" text-anchor="end" font-family="sans-serif" font-weight="lighter">Line end</text>
</g>
<g>
	<rect x="27.53" y="42.231" fill="none" stroke="#008CD6" stroke-width="0.5" width="56" height="14"/>
	<line fill="none" stroke="#008CD6" stroke-width="0.5" x1="41.53" y1="56.231" x2="41.53" y2="42.231"/>
	<line fill="none" stroke="#008CD6" stroke-width="0.5" x1="55.53" y1="56.231" x2="55.53" y2="42.231"/>
	<line fill="none" stroke="#008CD6" stroke-width="0.5" x1="69.53" y1="56.231" x2="69.53" y2="42.231"/>
</g>
</svg>
