<?xml version="1.0" encoding="utf-8"?>
<!-- Generator: Adobe Illustrator 12.0.0, SVG Export Plug-In . SVG Version: 6.00 Build 51448)  -->
<!DOCTYPE svg PUBLIC "-//W3C//DTD SVG 1.1//EN" "http://www.w3.org/Graphics/SVG/1.1/DTD/svg11.dtd" [
	<!ENTITY ns_svg "http://www.w3.org/2000/svg">
	<!ENTITY ns_xlink "http://www.w3.org/1999/xlink">
]>
<svg  version="1.1" id="レイヤー_1" xmlns="&ns_svg;" xmlns:xlink="&ns_xlink;" width="259.301" height="288.5"
	 viewBox="0 0 259.301 288.5" overflow="visible" enable-background="new 0 0 259.301 288.5" xml:space="preserve">
<g>
	<polyline fill="none" stroke="#00A0E9" stroke-width="0.5" points="164.256,131.805 142.482,131.805 142.482,147.955 	"/>
	<polyline fill="none" stroke="#00A0E9" stroke-width="0.5" points="157.369,127.826 164.256,131.805 157.369,135.781 	"/>
</g>
<rect x="165.584" y="0.25" fill="none" stroke="#00A0E9" stroke-width="0.5" width="35.998" height="288"/>
<line fill="none" stroke="#00A0E9" stroke-width="0.5" x1="165.584" y1="36.25" x2="201.582" y2="36.25"/>
<line fill="none" stroke="#00A0E9" stroke-width="0.5" x1="165.584" y1="72.25" x2="201.582" y2="72.25"/>
<line fill="none" stroke="#00A0E9" stroke-width="0.5" x1="165.584" y1="108.25" x2="201.582" y2="108.25"/>
<line fill="none" stroke="#00A0E9" stroke-width="0.5" x1="165.584" y1="144.25" x2="201.582" y2="144.25"/>
<line fill="none" stroke="#00A0E9" stroke-width="0.5" x1="165.584" y1="216.25" x2="201.582" y2="216.25"/>
<line fill="none" stroke="#00A0E9" stroke-width="0.5" x1="165.584" y1="252.25" x2="201.582" y2="252.25"/>
<line fill="none" stroke="#00A0E9" stroke-width="0.5" x1="165.584" y1="180.25" x2="201.582" y2="180.25"/>
<g>
	<path d="M236.297,3.357c1.08,0,2.772,0.324,3.636,0.684c0.721,0.288,1.009,0.648,1.009,1.152c0,0.036,0,0.072,0,0.072
		c0,0.288-0.036,0.288-0.288,0.936c-0.433,1.224-0.792,4.32-0.792,7.308c0,2.124,0.288,2.664,1.403,2.664
		c0.756,0,1.549-0.288,4.824-1.836c0.648-0.324,1.044-0.432,1.477-0.432c0.863,0,1.728,0.756,1.728,1.512
		c0,0.468-0.252,0.864-0.756,1.08c-0.252,0.108-0.756,0.288-2.412,0.756c-4.356,1.224-6.732,2.304-9,4.032
		c-1.944,1.512-2.808,2.916-2.808,4.608c0,2.592,2.052,3.924,6.048,3.924c2.231,0,5.76-0.432,8.352-1.044
		c0.36-0.072,0.504-0.108,0.721-0.108c0.936,0,1.943,0.9,1.943,1.764c0,0.648-0.396,0.972-1.548,1.188
		c-1.152,0.216-4.752,0.468-6.912,0.468c-2.628,0-4.608-0.288-6.12-0.828c-2.412-0.9-3.924-2.952-3.924-5.328
		c0-2.088,1.152-4.068,3.528-6.048c1.08-0.936,2.268-1.728,4.392-2.88c-0.792,0-1.116-0.108-1.728-0.54
		c-0.54-0.396-0.864-1.188-1.044-2.736c-0.108-0.864-0.145-1.656-0.252-4.356c-0.108-3.06-0.145-3.6-0.433-4.14
		c-0.396-0.684-1.08-1.044-2.592-1.296C235.289,3.465,235.577,3.357,236.297,3.357z"/>
	<path d="M228.197,45.189c1.728,1.62,2.735,2.088,4.536,2.088c0.936,0,1.907-0.144,3.275-0.432c0.9-2.34,1.296-3.852,1.296-5.112
		c0-1.188-0.576-1.908-2.304-2.772c0.396-0.216,0.576-0.252,0.864-0.252c0.72,0,1.836,0.324,2.88,0.828
		c1.224,0.612,1.691,1.008,1.691,1.512c0,0.288-0.071,0.504-0.359,0.936c-0.145,0.288-0.9,1.764-2.196,4.428
		c2.664-0.936,2.988-1.116,3.996-1.98c0.288-0.252,0.396-0.288,0.756-0.288c1.404,0,2.448,0.468,2.448,1.08
		c0,0.936-2.232,1.836-7.956,3.168c-0.324,0.72-0.937,2.196-1.908,4.356c-1.08,2.484-3.852,8.532-4.176,9.144
		c-0.54,0.972-0.864,1.296-1.296,1.296c-0.612,0-1.116-1.116-1.116-2.556c0-0.72,0.072-0.936,0.396-1.296
		c0.793-0.864,1.225-1.404,1.729-2.16c1.764-2.628,3.06-5.076,4.5-8.46c-0.792,0.108-1.116,0.144-1.692,0.144
		c-1.296,0-2.268-0.216-3.168-0.756c-1.08-0.612-1.907-1.476-2.628-2.628L228.197,45.189z M247.241,47.206
		c2.483,0.216,4.5,0.864,6.156,1.98c1.403,0.9,2.268,1.98,2.268,2.808c0,0.612-0.36,1.044-0.936,1.044
		c-0.288,0-0.505-0.072-0.828-0.288c-1.008-0.612-1.692-0.756-3.528-0.756c-2.88,0-3.78,0.792-3.78,3.276
		c0,0.972,0.181,2.52,0.721,6.192c2.195,0.648,4.067,1.512,5.111,2.34c0.973,0.756,1.44,1.692,1.44,2.844
		c0,0.72-0.288,1.224-0.72,1.224c-0.36,0-0.505-0.108-1.261-0.936c-1.296-1.404-2.483-2.268-4.355-3.168c0,0.288,0,0.54,0,0.684
		c0,1.44-0.288,2.268-1.008,3.06c-0.973,0.972-2.664,1.548-4.681,1.548c-3.24,0-5.472-1.548-5.472-3.816
		c0-2.52,2.735-4.284,6.731-4.284c0.828,0,1.225,0.036,2.16,0.18c-0.107-2.844-0.107-3.132-0.107-3.564
		c0-2.952,0.288-4.068,1.26-5.148c0.72-0.756,1.728-1.26,3.42-1.692c0.54-0.144,0.612-0.18,1.944-0.468
		c-0.973-1.044-2.088-1.62-4.645-2.484L247.241,47.206z M245.297,62.974c-1.116-0.324-1.944-0.432-3.096-0.432
		c-3.061,0-4.933,1.044-4.933,2.736c0,1.332,1.368,2.124,3.601,2.124c2.916,0,4.428-1.188,4.428-3.456V62.974z"/>
	<path d="M244.541,78.705c-1.404,0.432-4.788,1.764-7.272,2.844c-0.72,0.324-1.188,0.468-1.476,0.468
		c-0.648,0-1.368-0.504-2.052-1.512c-0.648-0.972-1.008-1.908-1.008-2.664c0-0.324,0.071-0.576,0.323-0.936
		c0.54,1.692,1.513,2.628,2.7,2.628c0.937,0,4.356-0.792,6.804-1.548c1.404-0.468,1.477-0.468,2.232-1.116
		c0.144-0.108,0.324-0.18,0.504-0.18c0.468,0,1.044,0.36,1.944,1.26c0.828,0.792,1.08,1.188,1.08,1.62
		c0,0.252-0.181,0.468-0.612,0.684c-1.044,0.54-1.404,0.828-2.988,2.412c-2.268,2.268-3.6,3.6-5.292,5.4
		c-3.456,3.708-3.456,3.708-4.212,4.464l0.072,0.072c3.852-2.412,6.768-3.42,9.792-3.42c4.608,0,7.704,2.7,7.704,6.732
		c0,5.148-4.788,8.964-11.304,8.964c-3.528,0-5.797-1.404-5.797-3.6c0-1.764,1.656-3.06,3.889-3.06c1.764,0,3.384,0.648,4.571,1.764
		c0.648,0.612,1.045,1.188,1.585,2.232c2.735-1.188,4.355-3.672,4.355-6.732c0-1.98-0.792-3.6-2.232-4.464
		c-0.756-0.432-2.159-0.72-3.563-0.72c-3.528,0-8.46,2.88-11.448,6.696c-0.612,0.756-0.864,0.972-1.224,0.972
		c-0.54,0-1.188-1.26-1.188-2.34c0-0.432,0.252-0.828,0.756-1.26c1.368-1.044,1.944-1.62,5.004-5.004
		c4.393-4.932,5.761-6.516,8.604-10.188c0.288-0.396,0.288-0.396,0.36-0.576c0,0-0.072-0.072-0.108-0.072c0,0-0.036,0-0.036,0.036
		c-0.036,0-0.036,0-0.107,0c0,0-0.072,0.036-0.181,0.072L244.541,78.705z M238.997,99.37c-1.368,0-2.269,0.72-2.269,1.836
		c0,1.332,1.584,2.196,4.104,2.196c0.972,0,1.44-0.072,2.556-0.324C242.669,100.773,241.013,99.37,238.997,99.37z"/>
	<path d="M224.633,110.565c6.336,4.716,10.368,6.192,16.956,6.192c6.552,0,10.584-1.476,16.92-6.192l0.54,0.54
		c-4.248,5.256-10.656,8.316-17.424,8.316c-6.769,0-13.248-3.096-17.532-8.316L224.633,110.565z"/>
	<path d="M258.617,150.921c0,2.556-2.088,4.644-4.645,4.644c-2.556,0-4.644-2.088-4.644-4.644s2.088-4.644,4.644-4.644
		C256.565,146.277,258.617,148.329,258.617,150.921z M250.481,150.921c0,1.908,1.584,3.492,3.491,3.492
		c1.944,0,3.492-1.548,3.492-3.492c0-1.944-1.548-3.492-3.492-3.492C252.029,147.429,250.481,148.977,250.481,150.921z"/>
	<path d="M232.517,200.349c-0.071,0.792-0.107,1.116-0.107,1.62c0,4.284,2.7,6.3,8.496,6.3c2.844,0,5.832-0.504,7.956-1.296
		c0.216-0.108,0.432-0.144,0.611-0.144c0.54,0,1.368,0.324,1.98,0.72c0.504,0.396,0.792,0.828,0.792,1.26
		c0,0.54-0.396,0.936-1.152,1.116c-1.655,0.432-5.184,0.72-8.388,0.72c-4.032,0-6.588-0.504-8.388-1.728
		c-1.801-1.152-2.988-3.42-2.988-5.688c0-0.864,0.18-1.836,0.576-3.024L232.517,200.349z M233.633,186.129
		c1.836,1.224,3.096,1.584,5.508,1.584c2.376,0,5.4-0.432,7.488-1.08c0.252-0.072,0.54-0.144,0.648-0.144
		c0.936,0,2.16,1.08,2.16,1.872c0,0.612-0.217,0.72-2.629,1.26c-1.403,0.288-1.728,0.432-5.256,1.764
		c-0.863,0.324-0.863,0.324-2.952,1.224c-0.72,0.288-0.72,0.324-1.403,0.576l-0.252-0.54c1.115-0.648,1.691-1.008,2.628-1.512
		c2.447-1.332,2.447-1.332,3.023-1.692c-0.792,0.072-2.052,0.108-2.699,0.108c-1.332,0-2.988-0.396-4.104-0.972
		c-0.937-0.504-1.512-1.008-2.521-2.088L233.633,186.129z"/>
	<path d="M233.633,231.31c0.036-0.576,0.036-0.576,0.072-1.512c0.072-0.72,0.072-0.72,0.107-1.26
		c-1.079,0.72-2.987,2.016-3.636,2.484c-0.684,0.468-0.899,0.576-1.224,0.576c-0.937,0-2.664-2.124-2.664-3.276
		c0-0.072,0.036-0.36,0.107-0.612c0.792,1.152,1.584,1.728,2.341,1.728c0.72,0,3.06-0.972,5.184-2.16
		c0.18-1.512,0.252-2.52,0.252-3.816c0-2.088-0.324-2.7-2.052-3.996c0.216-0.144,0.288-0.18,0.468-0.18
		c0.576,0,1.368,0.36,2.304,0.972c1.152,0.792,1.872,1.692,1.872,2.376c0,0.396,0,0.396-0.359,1.476
		c-0.252,0.684-0.504,1.836-0.648,2.844c0.792,0.828,1.044,1.116,1.044,1.404c0,0.216-0.036,0.288-0.504,1.044
		c-0.432,0.792-0.792,1.476-1.152,2.34c-0.071,0.612-0.071,0.756-0.071,1.332c3.527-3.348,4.716-4.392,6.264-5.508
		c2.521-1.8,4.212-2.556,5.796-2.556c1.116,0,2.124,0.468,2.845,1.296c0.684,0.792,0.972,1.764,0.972,3.168
		c0,1.368-0.036,1.62-0.72,5.328c-0.433,2.34-0.648,4.428-0.648,5.904c0,1.44,0.252,2.196,0.9,2.664
		c0.504,0.36,1.151,0.54,1.836,0.54c1.8,0,4.319-0.936,6.695-2.556l0.288,0.432c-2.592,2.664-5.399,4.14-7.956,4.14
		c-2.735,0-4.212-1.764-4.212-5.04c0-1.296,0.324-3.6,0.9-6.408c0.828-3.852,0.899-4.356,0.899-5.688
		c0-1.764-0.792-2.772-2.195-2.772c-1.548,0-3.42,1.08-6.301,3.636c-1.871,1.656-3.563,3.42-5.472,5.688
		c-0.036,0.864-0.036,1.332-0.036,1.872c0,1.944,0.108,3.672,0.36,6.444c0.107,0.864,0.107,1.152,0.107,1.692
		c0,2.052-0.684,3.744-1.548,3.744c-0.396,0-0.684-0.288-0.863-0.972c-0.108-0.36-0.505-1.476-0.612-1.728
		c-0.396-0.72-1.548-2.196-3.168-3.924c-0.72,1.728-0.864,1.944-1.225,1.944c-0.323,0-0.611-0.288-0.827-0.828
		c-0.217-0.576-0.396-1.44-0.396-1.98c0-0.432,0.036-0.504,0.612-1.08c0.576-0.54,1.151-1.332,2.34-3.204L233.633,231.31z
		 M231.437,238.042c-0.827,1.584-1.224,2.376-1.907,3.816c2.124,1.764,2.771,2.268,3.815,2.916c0.072-1.368,0.072-1.368,0.108-6.732
		c0-1.764,0.036-2.592,0.144-4.068C233.093,235.018,233.057,235.018,231.437,238.042z"/>
	<path d="M234.965,270.585c-0.072,0.324-0.612,2.592-1.62,6.768c-0.504,2.124-0.611,2.7-0.611,3.816
		c0,1.044-0.036,1.332-0.108,1.548c-0.145,0.396-0.468,0.612-0.864,0.612c-0.612,0-1.151-0.504-1.548-1.476
		c-0.792-1.872-1.26-4.788-1.26-7.668c0-1.08,0.107-2.412,0.288-3.852c0.252-2.088,0.252-2.088,1.26-6.804
		c0.36-1.692,0.504-2.592,0.504-3.348c0-1.188-0.288-2.088-1.008-3.384c0.792,0.036,1.439,0.504,2.412,1.764
		c0.899,1.116,1.332,2.052,1.332,2.844c0,0.576-0.036,0.72-0.756,2.16c-0.721,1.512-1.584,4.032-1.944,5.724
		c-0.324,1.368-0.468,2.916-0.468,4.464c0,1.98,0.18,3.24,0.684,4.752c0.612-1.26,0.9-1.98,1.296-3.06l1.908-5.04L234.965,270.585z
		 M239.501,272.385c-0.072,0.72-0.108,1.044-0.108,1.512c0,3.96,2.269,5.58,7.849,5.58c1.044,0,2.088-0.072,3.06-0.252
		c0.756-0.108,0.756-0.108,1.908-0.576c0.216-0.072,0.396-0.108,0.54-0.108c0.937,0,2.268,1.26,2.268,2.124
		c0,0.432-0.287,0.72-0.792,0.9c-0.756,0.252-2.483,0.396-4.5,0.396c-4.5,0-7.704-0.756-9.323-2.196
		c-1.297-1.188-1.944-2.7-1.944-4.68c0-0.9,0.108-1.692,0.432-2.844L239.501,272.385z M239.429,260.938
		c1.261,0.756,2.053,0.972,3.349,0.972c2.231,0,5.724-0.792,7.235-1.62c0.469-0.252,0.54-0.288,0.792-0.288
		c0.288,0,0.757,0.18,1.261,0.504c0.756,0.432,1.115,0.864,1.115,1.332c0,0.468-0.252,0.684-1.008,0.828
		c-2.376,0.36-3.708,0.684-5.112,1.26c-1.115,0.468-3.203,1.62-4.644,2.556l-0.36-0.36c1.62-1.368,2.845-2.376,3.42-2.808
		c-0.756,0.036-1.151,0.072-1.476,0.072c-2.016,0-3.348-0.54-4.896-2.016L239.429,260.938z"/>
	<path d="M178.297,3.357c1.08,0,2.772,0.324,3.636,0.684c0.721,0.288,1.009,0.648,1.009,1.152c0,0.036,0,0.072,0,0.072
		c0,0.288-0.036,0.288-0.288,0.936c-0.433,1.224-0.792,4.32-0.792,7.308c0,2.124,0.288,2.664,1.403,2.664
		c0.756,0,1.549-0.288,4.824-1.836c0.648-0.324,1.044-0.432,1.477-0.432c0.863,0,1.728,0.756,1.728,1.512
		c0,0.468-0.252,0.864-0.756,1.08c-0.252,0.108-0.756,0.288-2.412,0.756c-4.356,1.224-6.732,2.304-9,4.032
		c-1.944,1.512-2.808,2.916-2.808,4.608c0,2.592,2.052,3.924,6.048,3.924c2.231,0,5.76-0.432,8.352-1.044
		c0.36-0.072,0.504-0.108,0.721-0.108c0.936,0,1.943,0.9,1.943,1.764c0,0.648-0.396,0.972-1.548,1.188
		c-1.152,0.216-4.752,0.468-6.912,0.468c-2.628,0-4.608-0.288-6.12-0.828c-2.412-0.9-3.924-2.952-3.924-5.328
		c0-2.088,1.152-4.068,3.528-6.048c1.08-0.936,2.268-1.728,4.392-2.88c-0.792,0-1.116-0.108-1.728-0.54
		c-0.54-0.396-0.864-1.188-1.044-2.736c-0.108-0.864-0.145-1.656-0.252-4.356c-0.108-3.06-0.145-3.6-0.433-4.14
		c-0.396-0.684-1.08-1.044-2.592-1.296C177.289,3.465,177.577,3.357,178.297,3.357z"/>
	<path d="M170.197,45.189c1.728,1.62,2.735,2.088,4.536,2.088c0.936,0,1.907-0.144,3.275-0.432c0.9-2.34,1.296-3.852,1.296-5.112
		c0-1.188-0.576-1.908-2.304-2.772c0.396-0.216,0.576-0.252,0.864-0.252c0.72,0,1.836,0.324,2.88,0.828
		c1.224,0.612,1.691,1.008,1.691,1.512c0,0.288-0.071,0.504-0.359,0.936c-0.145,0.288-0.9,1.764-2.196,4.428
		c2.664-0.936,2.988-1.116,3.996-1.98c0.288-0.252,0.396-0.288,0.756-0.288c1.404,0,2.448,0.468,2.448,1.08
		c0,0.936-2.232,1.836-7.956,3.168c-0.324,0.72-0.937,2.196-1.908,4.356c-1.08,2.484-3.852,8.532-4.176,9.144
		c-0.54,0.972-0.864,1.296-1.296,1.296c-0.612,0-1.116-1.116-1.116-2.556c0-0.72,0.072-0.936,0.396-1.296
		c0.793-0.864,1.225-1.404,1.729-2.16c1.764-2.628,3.06-5.076,4.5-8.46c-0.792,0.108-1.116,0.144-1.692,0.144
		c-1.296,0-2.268-0.216-3.168-0.756c-1.08-0.612-1.907-1.476-2.628-2.628L170.197,45.189z M189.241,47.206
		c2.483,0.216,4.5,0.864,6.156,1.98c1.403,0.9,2.268,1.98,2.268,2.808c0,0.612-0.36,1.044-0.936,1.044
		c-0.288,0-0.505-0.072-0.828-0.288c-1.008-0.612-1.692-0.756-3.528-0.756c-2.88,0-3.78,0.792-3.78,3.276
		c0,0.972,0.181,2.52,0.721,6.192c2.195,0.648,4.067,1.512,5.111,2.34c0.973,0.756,1.44,1.692,1.44,2.844
		c0,0.72-0.288,1.224-0.72,1.224c-0.36,0-0.505-0.108-1.261-0.936c-1.296-1.404-2.483-2.268-4.355-3.168c0,0.288,0,0.54,0,0.684
		c0,1.44-0.288,2.268-1.008,3.06c-0.973,0.972-2.664,1.548-4.681,1.548c-3.24,0-5.472-1.548-5.472-3.816
		c0-2.52,2.735-4.284,6.731-4.284c0.828,0,1.225,0.036,2.16,0.18c-0.107-2.844-0.107-3.132-0.107-3.564
		c0-2.952,0.288-4.068,1.26-5.148c0.72-0.756,1.728-1.26,3.42-1.692c0.54-0.144,0.612-0.18,1.944-0.468
		c-0.973-1.044-2.088-1.62-4.645-2.484L189.241,47.206z M187.297,62.974c-1.116-0.324-1.944-0.432-3.096-0.432
		c-3.061,0-4.933,1.044-4.933,2.736c0,1.332,1.368,2.124,3.601,2.124c2.916,0,4.428-1.188,4.428-3.456V62.974z"/>
	<path d="M186.541,78.705c-1.404,0.432-4.788,1.764-7.272,2.844c-0.72,0.324-1.188,0.468-1.476,0.468
		c-0.648,0-1.368-0.504-2.052-1.512c-0.648-0.972-1.008-1.908-1.008-2.664c0-0.324,0.071-0.576,0.323-0.936
		c0.54,1.692,1.513,2.628,2.7,2.628c0.937,0,4.356-0.792,6.804-1.548c1.404-0.468,1.477-0.468,2.232-1.116
		c0.144-0.108,0.324-0.18,0.504-0.18c0.468,0,1.044,0.36,1.944,1.26c0.828,0.792,1.08,1.188,1.08,1.62
		c0,0.252-0.181,0.468-0.612,0.684c-1.044,0.54-1.404,0.828-2.988,2.412c-2.268,2.268-3.6,3.6-5.292,5.4
		c-3.456,3.708-3.456,3.708-4.212,4.464l0.072,0.072c3.852-2.412,6.768-3.42,9.792-3.42c4.608,0,7.704,2.7,7.704,6.732
		c0,5.148-4.788,8.964-11.304,8.964c-3.528,0-5.797-1.404-5.797-3.6c0-1.764,1.656-3.06,3.889-3.06c1.764,0,3.384,0.648,4.571,1.764
		c0.648,0.612,1.045,1.188,1.585,2.232c2.735-1.188,4.355-3.672,4.355-6.732c0-1.98-0.792-3.6-2.232-4.464
		c-0.756-0.432-2.159-0.72-3.563-0.72c-3.528,0-8.46,2.88-11.448,6.696c-0.612,0.756-0.864,0.972-1.224,0.972
		c-0.54,0-1.188-1.26-1.188-2.34c0-0.432,0.252-0.828,0.756-1.26c1.368-1.044,1.944-1.62,5.004-5.004
		c4.393-4.932,5.761-6.516,8.604-10.188c0.288-0.396,0.288-0.396,0.36-0.576c0,0-0.072-0.072-0.108-0.072c0,0-0.036,0-0.036,0.036
		c-0.036,0-0.036,0-0.107,0c0,0-0.072,0.036-0.181,0.072L186.541,78.705z M180.997,99.37c-1.368,0-2.269,0.72-2.269,1.836
		c0,1.332,1.584,2.196,4.104,2.196c0.972,0,1.44-0.072,2.556-0.324C184.669,100.773,183.013,99.37,180.997,99.37z"/>
	<path d="M166.633,110.565c6.336,4.716,10.368,6.192,16.956,6.192c6.552,0,10.584-1.476,16.92-6.192l0.54,0.54
		c-4.248,5.256-10.656,8.316-17.424,8.316c-6.769,0-13.248-3.096-17.532-8.316L166.633,110.565z"/>
	<path d="M200.617,150.921c0,2.556-2.088,4.644-4.645,4.644c-2.556,0-4.644-2.088-4.644-4.644s2.088-4.644,4.644-4.644
		C198.565,146.277,200.617,148.329,200.617,150.921z M192.481,150.921c0,1.908,1.584,3.492,3.491,3.492
		c1.944,0,3.492-1.548,3.492-3.492c0-1.944-1.548-3.492-3.492-3.492C194.029,147.429,192.481,148.977,192.481,150.921z"/>
	<path d="M174.517,200.349c-0.071,0.792-0.107,1.116-0.107,1.62c0,4.284,2.7,6.3,8.496,6.3c2.844,0,5.832-0.504,7.956-1.296
		c0.216-0.108,0.432-0.144,0.611-0.144c0.54,0,1.368,0.324,1.98,0.72c0.504,0.396,0.792,0.828,0.792,1.26
		c0,0.54-0.396,0.936-1.152,1.116c-1.655,0.432-5.184,0.72-8.388,0.72c-4.032,0-6.588-0.504-8.388-1.728
		c-1.801-1.152-2.988-3.42-2.988-5.688c0-0.864,0.18-1.836,0.576-3.024L174.517,200.349z M175.633,186.129
		c1.836,1.224,3.096,1.584,5.508,1.584c2.376,0,5.4-0.432,7.488-1.08c0.252-0.072,0.54-0.144,0.648-0.144
		c0.936,0,2.16,1.08,2.16,1.872c0,0.612-0.217,0.72-2.629,1.26c-1.403,0.288-1.728,0.432-5.256,1.764
		c-0.863,0.324-0.863,0.324-2.952,1.224c-0.72,0.288-0.72,0.324-1.403,0.576l-0.252-0.54c1.115-0.648,1.691-1.008,2.628-1.512
		c2.447-1.332,2.447-1.332,3.023-1.692c-0.792,0.072-2.052,0.108-2.699,0.108c-1.332,0-2.988-0.396-4.104-0.972
		c-0.937-0.504-1.512-1.008-2.521-2.088L175.633,186.129z"/>
	<path d="M175.633,231.31c0.036-0.576,0.036-0.576,0.072-1.512c0.072-0.72,0.072-0.72,0.107-1.26
		c-1.079,0.72-2.987,2.016-3.636,2.484c-0.684,0.468-0.899,0.576-1.224,0.576c-0.937,0-2.664-2.124-2.664-3.276
		c0-0.072,0.036-0.36,0.107-0.612c0.792,1.152,1.584,1.728,2.341,1.728c0.72,0,3.06-0.972,5.184-2.16
		c0.18-1.512,0.252-2.52,0.252-3.816c0-2.088-0.324-2.7-2.052-3.996c0.216-0.144,0.288-0.18,0.468-0.18
		c0.576,0,1.368,0.36,2.304,0.972c1.152,0.792,1.872,1.692,1.872,2.376c0,0.396,0,0.396-0.359,1.476
		c-0.252,0.684-0.504,1.836-0.648,2.844c0.792,0.828,1.044,1.116,1.044,1.404c0,0.216-0.036,0.288-0.504,1.044
		c-0.432,0.792-0.792,1.476-1.152,2.34c-0.071,0.612-0.071,0.756-0.071,1.332c3.527-3.348,4.716-4.392,6.264-5.508
		c2.521-1.8,4.212-2.556,5.796-2.556c1.116,0,2.124,0.468,2.845,1.296c0.684,0.792,0.972,1.764,0.972,3.168
		c0,1.368-0.036,1.62-0.72,5.328c-0.433,2.34-0.648,4.428-0.648,5.904c0,1.44,0.252,2.196,0.9,2.664
		c0.504,0.36,1.151,0.54,1.836,0.54c1.8,0,4.319-0.936,6.695-2.556l0.288,0.432c-2.592,2.664-5.399,4.14-7.956,4.14
		c-2.735,0-4.212-1.764-4.212-5.04c0-1.296,0.324-3.6,0.9-6.408c0.828-3.852,0.899-4.356,0.899-5.688
		c0-1.764-0.792-2.772-2.195-2.772c-1.548,0-3.42,1.08-6.301,3.636c-1.871,1.656-3.563,3.42-5.472,5.688
		c-0.036,0.864-0.036,1.332-0.036,1.872c0,1.944,0.108,3.672,0.36,6.444c0.107,0.864,0.107,1.152,0.107,1.692
		c0,2.052-0.684,3.744-1.548,3.744c-0.396,0-0.684-0.288-0.863-0.972c-0.108-0.36-0.505-1.476-0.612-1.728
		c-0.396-0.72-1.548-2.196-3.168-3.924c-0.72,1.728-0.864,1.944-1.225,1.944c-0.323,0-0.611-0.288-0.827-0.828
		c-0.217-0.576-0.396-1.44-0.396-1.98c0-0.432,0.036-0.504,0.612-1.08c0.576-0.54,1.151-1.332,2.34-3.204L175.633,231.31z
		 M173.437,238.042c-0.827,1.584-1.224,2.376-1.907,3.816c2.124,1.764,2.771,2.268,3.815,2.916c0.072-1.368,0.072-1.368,0.108-6.732
		c0-1.764,0.036-2.592,0.144-4.068C175.093,235.018,175.057,235.018,173.437,238.042z"/>
	<path d="M176.965,270.585c-0.072,0.324-0.612,2.592-1.62,6.768c-0.504,2.124-0.611,2.7-0.611,3.816
		c0,1.044-0.036,1.332-0.108,1.548c-0.145,0.396-0.468,0.612-0.864,0.612c-0.612,0-1.151-0.504-1.548-1.476
		c-0.792-1.872-1.26-4.788-1.26-7.668c0-1.08,0.107-2.412,0.288-3.852c0.252-2.088,0.252-2.088,1.26-6.804
		c0.36-1.692,0.504-2.592,0.504-3.348c0-1.188-0.288-2.088-1.008-3.384c0.792,0.036,1.439,0.504,2.412,1.764
		c0.899,1.116,1.332,2.052,1.332,2.844c0,0.576-0.036,0.72-0.756,2.16c-0.721,1.512-1.584,4.032-1.944,5.724
		c-0.324,1.368-0.468,2.916-0.468,4.464c0,1.98,0.18,3.24,0.684,4.752c0.612-1.26,0.9-1.98,1.296-3.06l1.908-5.04L176.965,270.585z
		 M181.501,272.385c-0.072,0.72-0.108,1.044-0.108,1.512c0,3.96,2.269,5.58,7.849,5.58c1.044,0,2.088-0.072,3.06-0.252
		c0.756-0.108,0.756-0.108,1.908-0.576c0.216-0.072,0.396-0.108,0.54-0.108c0.937,0,2.268,1.26,2.268,2.124
		c0,0.432-0.287,0.72-0.792,0.9c-0.756,0.252-2.483,0.396-4.5,0.396c-4.5,0-7.704-0.756-9.323-2.196
		c-1.297-1.188-1.944-2.7-1.944-4.68c0-0.9,0.108-1.692,0.432-2.844L181.501,272.385z M181.429,260.938
		c1.261,0.756,2.053,0.972,3.349,0.972c2.231,0,5.724-0.792,7.235-1.62c0.469-0.252,0.54-0.288,0.792-0.288
		c0.288,0,0.757,0.18,1.261,0.504c0.756,0.432,1.115,0.864,1.115,1.332c0,0.468-0.252,0.684-1.008,0.828
		c-2.376,0.36-3.708,0.684-5.112,1.26c-1.115,0.468-3.203,1.62-4.644,2.556l-0.36-0.36c1.62-1.368,2.845-2.376,3.42-2.808
		c-0.756,0.036-1.151,0.072-1.476,0.072c-2.016,0-3.348-0.54-4.896-2.016L181.429,260.938z"/>
</g>
<rect x="0.25" y="0.25" fill="none" stroke="#00A0E9" stroke-width="0.5" width="35.998" height="270"/>
<line fill="none" stroke="#00A0E9" stroke-width="0.5" x1="0.25" y1="36.25" x2="36.248" y2="36.25"/>
<line fill="none" stroke="#00A0E9" stroke-width="0.5" x1="0.25" y1="72.25" x2="36.248" y2="72.25"/>
<line fill="none" stroke="#00A0E9" stroke-width="0.5" x1="0.25" y1="108.25" x2="36.248" y2="108.25"/>
<line fill="none" stroke="#00A0E9" stroke-width="0.5" x1="0.25" y1="54.25" x2="36.248" y2="54.25"/>
<line fill="none" stroke="#00A0E9" stroke-width="0.5" x1="0.25" y1="126.25" x2="36.248" y2="126.25"/>
<line fill="none" stroke="#00A0E9" stroke-width="0.5" x1="0.25" y1="162.25" x2="36.248" y2="162.25"/>
<line fill="none" stroke="#00A0E9" stroke-width="0.5" x1="0.25" y1="198.25" x2="36.248" y2="198.25"/>
<line fill="none" stroke="#00A0E9" stroke-width="0.5" x1="0.25" y1="234.25" x2="36.248" y2="234.25"/>
<g>
	<path d="M70.963,3.357c1.08,0,2.772,0.324,3.636,0.684c0.72,0.288,1.008,0.648,1.008,1.152c0,0.036,0,0.072,0,0.072
		c0,0.288-0.036,0.288-0.288,0.936c-0.432,1.224-0.792,4.32-0.792,7.308c0,2.124,0.288,2.664,1.404,2.664
		c0.756,0,1.548-0.288,4.824-1.836c0.648-0.324,1.044-0.432,1.476-0.432c0.864,0,1.728,0.756,1.728,1.512
		c0,0.468-0.252,0.864-0.756,1.08c-0.252,0.108-0.756,0.288-2.412,0.756c-4.356,1.224-6.732,2.304-9,4.032
		c-1.944,1.512-2.808,2.916-2.808,4.608c0,2.592,2.052,3.924,6.048,3.924c2.232,0,5.76-0.432,8.352-1.044
		c0.36-0.072,0.504-0.108,0.72-0.108c0.936,0,1.944,0.9,1.944,1.764c0,0.648-0.396,0.972-1.548,1.188
		c-1.152,0.216-4.752,0.468-6.912,0.468c-2.628,0-4.608-0.288-6.12-0.828c-2.412-0.9-3.924-2.952-3.924-5.328
		c0-2.088,1.152-4.068,3.528-6.048c1.08-0.936,2.268-1.728,4.392-2.88c-0.792,0-1.116-0.108-1.728-0.54
		c-0.54-0.396-0.864-1.188-1.044-2.736c-0.108-0.864-0.144-1.656-0.252-4.356c-0.108-3.06-0.144-3.6-0.432-4.14
		c-0.396-0.684-1.08-1.044-2.592-1.296C69.955,3.465,70.243,3.357,70.963,3.357z"/>
	<path d="M62.863,45.189c1.728,1.62,2.736,2.088,4.536,2.088c0.936,0,1.908-0.144,3.276-0.432c0.9-2.34,1.296-3.852,1.296-5.112
		c0-1.188-0.576-1.908-2.304-2.772c0.396-0.216,0.576-0.252,0.864-0.252c0.72,0,1.836,0.324,2.88,0.828
		c1.224,0.612,1.692,1.008,1.692,1.512c0,0.288-0.072,0.504-0.36,0.936c-0.144,0.288-0.9,1.764-2.196,4.428
		c2.664-0.936,2.988-1.116,3.996-1.98c0.288-0.252,0.396-0.288,0.756-0.288c1.404,0,2.448,0.468,2.448,1.08
		c0,0.936-2.232,1.836-7.956,3.168c-0.324,0.72-0.936,2.196-1.908,4.356c-1.08,2.484-3.852,8.532-4.176,9.144
		c-0.54,0.972-0.864,1.296-1.296,1.296c-0.612,0-1.116-1.116-1.116-2.556c0-0.72,0.072-0.936,0.396-1.296
		c0.792-0.864,1.224-1.404,1.728-2.16c1.764-2.628,3.06-5.076,4.5-8.46c-0.792,0.108-1.116,0.144-1.692,0.144
		c-1.296,0-2.268-0.216-3.168-0.756c-1.08-0.612-1.908-1.476-2.628-2.628L62.863,45.189z M81.907,47.206
		c2.484,0.216,4.5,0.864,6.156,1.98c1.404,0.9,2.268,1.98,2.268,2.808c0,0.612-0.36,1.044-0.936,1.044
		c-0.288,0-0.504-0.072-0.828-0.288c-1.008-0.612-1.692-0.756-3.528-0.756c-2.88,0-3.78,0.792-3.78,3.276
		c0,0.972,0.18,2.52,0.72,6.192c2.196,0.648,4.068,1.512,5.112,2.34c0.972,0.756,1.44,1.692,1.44,2.844
		c0,0.72-0.288,1.224-0.72,1.224c-0.36,0-0.504-0.108-1.26-0.936c-1.296-1.404-2.484-2.268-4.356-3.168c0,0.288,0,0.54,0,0.684
		c0,1.44-0.288,2.268-1.008,3.06c-0.972,0.972-2.664,1.548-4.68,1.548c-3.24,0-5.472-1.548-5.472-3.816
		c0-2.52,2.736-4.284,6.732-4.284c0.828,0,1.224,0.036,2.16,0.18c-0.108-2.844-0.108-3.132-0.108-3.564
		c0-2.952,0.288-4.068,1.26-5.148c0.72-0.756,1.728-1.26,3.42-1.692c0.54-0.144,0.612-0.18,1.944-0.468
		c-0.972-1.044-2.088-1.62-4.644-2.484L81.907,47.206z M79.963,62.974c-1.116-0.324-1.944-0.432-3.096-0.432
		c-3.06,0-4.932,1.044-4.932,2.736c0,1.332,1.368,2.124,3.6,2.124c2.916,0,4.428-1.188,4.428-3.456V62.974z"/>
	<path d="M79.207,78.705c-1.404,0.432-4.788,1.764-7.272,2.844c-0.72,0.324-1.188,0.468-1.476,0.468
		c-0.648,0-1.368-0.504-2.052-1.512c-0.648-0.972-1.008-1.908-1.008-2.664c0-0.324,0.072-0.576,0.324-0.936
		c0.54,1.692,1.512,2.628,2.7,2.628c0.936,0,4.356-0.792,6.804-1.548c1.404-0.468,1.476-0.468,2.232-1.116
		c0.144-0.108,0.324-0.18,0.504-0.18c0.468,0,1.044,0.36,1.944,1.26c0.828,0.792,1.08,1.188,1.08,1.62
		c0,0.252-0.18,0.468-0.612,0.684c-1.044,0.54-1.404,0.828-2.988,2.412c-2.268,2.268-3.6,3.6-5.292,5.4
		c-3.456,3.708-3.456,3.708-4.212,4.464l0.072,0.072c3.852-2.412,6.768-3.42,9.792-3.42c4.608,0,7.704,2.7,7.704,6.732
		c0,5.148-4.788,8.964-11.304,8.964c-3.528,0-5.796-1.404-5.796-3.6c0-1.764,1.656-3.06,3.888-3.06c1.764,0,3.384,0.648,4.572,1.764
		c0.648,0.612,1.044,1.188,1.584,2.232c2.736-1.188,4.356-3.672,4.356-6.732c0-1.98-0.792-3.6-2.232-4.464
		c-0.756-0.432-2.16-0.72-3.564-0.72c-3.528,0-8.46,2.88-11.448,6.696c-0.612,0.756-0.864,0.972-1.224,0.972
		c-0.54,0-1.188-1.26-1.188-2.34c0-0.432,0.252-0.828,0.756-1.26c1.368-1.044,1.944-1.62,5.004-5.004
		c4.392-4.932,5.76-6.516,8.604-10.188c0.288-0.396,0.288-0.396,0.36-0.576c0,0-0.072-0.072-0.108-0.072c0,0-0.036,0-0.036,0.036
		c-0.036,0-0.036,0-0.108,0c0,0-0.072,0.036-0.18,0.072L79.207,78.705z M73.663,99.37c-1.368,0-2.268,0.72-2.268,1.836
		c0,1.332,1.584,2.196,4.104,2.196c0.972,0,1.44-0.072,2.556-0.324C77.335,100.773,75.679,99.37,73.663,99.37z"/>
	<path d="M59.299,110.565c6.336,4.716,10.368,6.192,16.956,6.192c6.552,0,10.584-1.476,16.92-6.192l0.54,0.54
		c-4.248,5.256-10.656,8.316-17.424,8.316s-13.248-3.096-17.532-8.316L59.299,110.565z"/>
	<path d="M93.283,132.921c0,2.556-2.088,4.644-4.644,4.644s-4.644-2.088-4.644-4.644s2.088-4.644,4.644-4.644
		C91.231,128.277,93.283,130.329,93.283,132.921z M85.147,132.921c0,1.908,1.584,3.492,3.492,3.492c1.944,0,3.492-1.548,3.492-3.492
		c0-1.944-1.548-3.492-3.492-3.492S85.147,130.977,85.147,132.921z"/>
	<path d="M67.183,182.349c-0.072,0.792-0.108,1.116-0.108,1.62c0,4.284,2.7,6.3,8.496,6.3c2.844,0,5.832-0.504,7.956-1.296
		c0.216-0.108,0.432-0.144,0.612-0.144c0.54,0,1.368,0.324,1.98,0.72c0.504,0.396,0.792,0.828,0.792,1.26
		c0,0.54-0.396,0.936-1.152,1.116c-1.656,0.432-5.184,0.72-8.388,0.72c-4.032,0-6.588-0.504-8.388-1.728
		c-1.8-1.152-2.988-3.42-2.988-5.688c0-0.864,0.18-1.836,0.576-3.024L67.183,182.349z M68.299,168.129
		c1.836,1.224,3.096,1.584,5.508,1.584c2.376,0,5.4-0.432,7.488-1.08c0.252-0.072,0.54-0.144,0.648-0.144
		c0.936,0,2.16,1.08,2.16,1.872c0,0.612-0.216,0.72-2.628,1.26c-1.404,0.288-1.728,0.432-5.256,1.764
		c-0.864,0.324-0.864,0.324-2.952,1.224c-0.72,0.288-0.72,0.324-1.404,0.576l-0.252-0.54c1.116-0.648,1.692-1.008,2.628-1.512
		c2.448-1.332,2.448-1.332,3.024-1.692c-0.792,0.072-2.052,0.108-2.7,0.108c-1.332,0-2.988-0.396-4.104-0.972
		c-0.936-0.504-1.512-1.008-2.52-2.088L68.299,168.129z"/>
	<path d="M68.299,213.31c0.036-0.576,0.036-0.576,0.072-1.512c0.072-0.72,0.072-0.72,0.108-1.26c-1.08,0.72-2.988,2.016-3.636,2.484
		c-0.684,0.468-0.9,0.576-1.224,0.576c-0.936,0-2.664-2.124-2.664-3.276c0-0.072,0.036-0.36,0.108-0.612
		c0.792,1.152,1.584,1.728,2.34,1.728c0.72,0,3.06-0.972,5.184-2.16c0.18-1.512,0.252-2.52,0.252-3.816
		c0-2.088-0.324-2.7-2.052-3.996c0.216-0.144,0.288-0.18,0.468-0.18c0.576,0,1.368,0.36,2.304,0.972
		c1.152,0.792,1.872,1.692,1.872,2.376c0,0.396,0,0.396-0.36,1.476c-0.252,0.684-0.504,1.836-0.648,2.844
		c0.792,0.828,1.044,1.116,1.044,1.404c0,0.216-0.036,0.288-0.504,1.044c-0.432,0.792-0.792,1.476-1.152,2.34
		c-0.072,0.612-0.072,0.756-0.072,1.332c3.528-3.348,4.716-4.392,6.264-5.508c2.52-1.8,4.212-2.556,5.796-2.556
		c1.116,0,2.124,0.468,2.844,1.296c0.684,0.792,0.972,1.764,0.972,3.168c0,1.368-0.036,1.62-0.72,5.328
		c-0.432,2.34-0.648,4.428-0.648,5.904c0,1.44,0.252,2.196,0.9,2.664c0.504,0.36,1.152,0.54,1.836,0.54
		c1.8,0,4.32-0.936,6.696-2.556l0.288,0.432c-2.592,2.664-5.4,4.14-7.956,4.14c-2.736,0-4.212-1.764-4.212-5.04
		c0-1.296,0.324-3.6,0.9-6.408c0.828-3.852,0.9-4.356,0.9-5.688c0-1.764-0.792-2.772-2.196-2.772c-1.548,0-3.42,1.08-6.3,3.636
		c-1.872,1.656-3.564,3.42-5.472,5.688c-0.036,0.864-0.036,1.332-0.036,1.872c0,1.944,0.108,3.672,0.36,6.444
		c0.108,0.864,0.108,1.152,0.108,1.692c0,2.052-0.684,3.744-1.548,3.744c-0.396,0-0.684-0.288-0.864-0.972
		c-0.108-0.36-0.504-1.476-0.612-1.728c-0.396-0.72-1.548-2.196-3.168-3.924c-0.72,1.728-0.864,1.944-1.224,1.944
		c-0.324,0-0.612-0.288-0.828-0.828c-0.216-0.576-0.396-1.44-0.396-1.98c0-0.432,0.036-0.504,0.612-1.08
		c0.576-0.54,1.152-1.332,2.34-3.204L68.299,213.31z M66.103,220.042c-0.828,1.584-1.224,2.376-1.908,3.816
		c2.124,1.764,2.772,2.268,3.816,2.916c0.072-1.368,0.072-1.368,0.108-6.732c0-1.764,0.036-2.592,0.144-4.068
		C67.759,217.018,67.723,217.018,66.103,220.042z"/>
	<path d="M69.631,252.585c-0.072,0.324-0.612,2.592-1.62,6.768c-0.504,2.124-0.612,2.7-0.612,3.816c0,1.044-0.036,1.332-0.108,1.548
		c-0.144,0.396-0.468,0.612-0.864,0.612c-0.612,0-1.152-0.504-1.548-1.476c-0.792-1.872-1.26-4.788-1.26-7.668
		c0-1.08,0.108-2.412,0.288-3.852c0.252-2.088,0.252-2.088,1.26-6.804c0.36-1.692,0.504-2.592,0.504-3.348
		c0-1.188-0.288-2.088-1.008-3.384c0.792,0.036,1.44,0.504,2.412,1.764c0.9,1.116,1.332,2.052,1.332,2.844
		c0,0.576-0.036,0.72-0.756,2.16c-0.72,1.512-1.584,4.032-1.944,5.724c-0.324,1.368-0.468,2.916-0.468,4.464
		c0,1.98,0.18,3.24,0.684,4.752c0.612-1.26,0.9-1.98,1.296-3.06l1.908-5.04L69.631,252.585z M74.167,254.385
		c-0.072,0.72-0.108,1.044-0.108,1.512c0,3.96,2.268,5.58,7.848,5.58c1.044,0,2.088-0.072,3.06-0.252
		c0.756-0.108,0.756-0.108,1.908-0.576c0.216-0.072,0.396-0.108,0.54-0.108c0.936,0,2.268,1.26,2.268,2.124
		c0,0.432-0.288,0.72-0.792,0.9c-0.756,0.252-2.484,0.396-4.5,0.396c-4.5,0-7.704-0.756-9.324-2.196
		c-1.296-1.188-1.944-2.7-1.944-4.68c0-0.9,0.108-1.692,0.432-2.844L74.167,254.385z M74.095,242.938
		c1.26,0.756,2.052,0.972,3.348,0.972c2.232,0,5.724-0.792,7.236-1.62c0.468-0.252,0.54-0.288,0.792-0.288
		c0.288,0,0.756,0.18,1.26,0.504c0.756,0.432,1.116,0.864,1.116,1.332c0,0.468-0.252,0.684-1.008,0.828
		c-2.376,0.36-3.708,0.684-5.112,1.26c-1.116,0.468-3.204,1.62-4.644,2.556l-0.36-0.36c1.62-1.368,2.844-2.376,3.42-2.808
		c-0.756,0.036-1.152,0.072-1.476,0.072c-2.016,0-3.348-0.54-4.896-2.016L74.095,242.938z"/>
	<path d="M12.963,3.357c1.08,0,2.772,0.324,3.636,0.684c0.72,0.288,1.008,0.648,1.008,1.152c0,0.036,0,0.072,0,0.072
		c0,0.288-0.036,0.288-0.288,0.936c-0.432,1.224-0.792,4.32-0.792,7.308c0,2.124,0.288,2.664,1.404,2.664
		c0.756,0,1.548-0.288,4.824-1.836c0.648-0.324,1.044-0.432,1.476-0.432c0.864,0,1.728,0.756,1.728,1.512
		c0,0.468-0.252,0.864-0.756,1.08c-0.252,0.108-0.756,0.288-2.412,0.756c-4.356,1.224-6.732,2.304-9,4.032
		c-1.944,1.512-2.808,2.916-2.808,4.608c0,2.592,2.052,3.924,6.048,3.924c2.232,0,5.76-0.432,8.352-1.044
		c0.36-0.072,0.504-0.108,0.72-0.108c0.936,0,1.944,0.9,1.944,1.764c0,0.648-0.396,0.972-1.548,1.188
		c-1.152,0.216-4.752,0.468-6.912,0.468c-2.628,0-4.608-0.288-6.12-0.828c-2.412-0.9-3.924-2.952-3.924-5.328
		c0-2.088,1.152-4.068,3.528-6.048c1.08-0.936,2.268-1.728,4.392-2.88c-0.792,0-1.116-0.108-1.728-0.54
		c-0.54-0.396-0.864-1.188-1.044-2.736c-0.108-0.864-0.144-1.656-0.252-4.356c-0.108-3.06-0.144-3.6-0.432-4.14
		c-0.396-0.684-1.08-1.044-2.592-1.296C11.955,3.465,12.243,3.357,12.963,3.357z"/>
	<path d="M4.863,45.189c1.728,1.62,2.736,2.088,4.536,2.088c0.936,0,1.908-0.144,3.276-0.432c0.9-2.34,1.296-3.852,1.296-5.112
		c0-1.188-0.576-1.908-2.304-2.772c0.396-0.216,0.576-0.252,0.864-0.252c0.72,0,1.836,0.324,2.88,0.828
		c1.224,0.612,1.692,1.008,1.692,1.512c0,0.288-0.072,0.504-0.36,0.936c-0.144,0.288-0.9,1.764-2.196,4.428
		c2.664-0.936,2.988-1.116,3.996-1.98c0.288-0.252,0.396-0.288,0.756-0.288c1.404,0,2.448,0.468,2.448,1.08
		c0,0.936-2.232,1.836-7.956,3.168c-0.324,0.72-0.936,2.196-1.908,4.356c-1.08,2.484-3.852,8.532-4.176,9.144
		c-0.54,0.972-0.864,1.296-1.296,1.296c-0.612,0-1.116-1.116-1.116-2.556c0-0.72,0.072-0.936,0.396-1.296
		c0.792-0.864,1.224-1.404,1.728-2.16c1.764-2.628,3.06-5.076,4.5-8.46c-0.792,0.108-1.116,0.144-1.692,0.144
		c-1.296,0-2.268-0.216-3.168-0.756c-1.08-0.612-1.908-1.476-2.628-2.628L4.863,45.189z M23.907,47.206
		c2.484,0.216,4.5,0.864,6.156,1.98c1.404,0.9,2.268,1.98,2.268,2.808c0,0.612-0.36,1.044-0.936,1.044
		c-0.288,0-0.504-0.072-0.828-0.288c-1.008-0.612-1.692-0.756-3.528-0.756c-2.88,0-3.78,0.792-3.78,3.276
		c0,0.972,0.18,2.52,0.72,6.192c2.196,0.648,4.068,1.512,5.112,2.34c0.972,0.756,1.44,1.692,1.44,2.844
		c0,0.72-0.288,1.224-0.72,1.224c-0.36,0-0.504-0.108-1.26-0.936c-1.296-1.404-2.484-2.268-4.356-3.168c0,0.288,0,0.54,0,0.684
		c0,1.44-0.288,2.268-1.008,3.06c-0.972,0.972-2.664,1.548-4.68,1.548c-3.24,0-5.472-1.548-5.472-3.816
		c0-2.52,2.736-4.284,6.732-4.284c0.828,0,1.224,0.036,2.16,0.18c-0.108-2.844-0.108-3.132-0.108-3.564
		c0-2.952,0.288-4.068,1.26-5.148c0.72-0.756,1.728-1.26,3.42-1.692c0.54-0.144,0.612-0.18,1.944-0.468
		c-0.972-1.044-2.088-1.62-4.644-2.484L23.907,47.206z M21.963,62.974c-1.116-0.324-1.944-0.432-3.096-0.432
		c-3.06,0-4.932,1.044-4.932,2.736c0,1.332,1.368,2.124,3.6,2.124c2.916,0,4.428-1.188,4.428-3.456V62.974z"/>
	<path d="M21.207,78.705c-1.404,0.432-4.788,1.764-7.272,2.844c-0.72,0.324-1.188,0.468-1.476,0.468
		c-0.648,0-1.368-0.504-2.052-1.512c-0.648-0.972-1.008-1.908-1.008-2.664c0-0.324,0.072-0.576,0.324-0.936
		c0.54,1.692,1.512,2.628,2.7,2.628c0.936,0,4.356-0.792,6.804-1.548c1.404-0.468,1.476-0.468,2.232-1.116
		c0.144-0.108,0.324-0.18,0.504-0.18c0.468,0,1.044,0.36,1.944,1.26c0.828,0.792,1.08,1.188,1.08,1.62
		c0,0.252-0.18,0.468-0.612,0.684c-1.044,0.54-1.404,0.828-2.988,2.412c-2.268,2.268-3.6,3.6-5.292,5.4
		c-3.456,3.708-3.456,3.708-4.212,4.464l0.072,0.072c3.852-2.412,6.768-3.42,9.792-3.42c4.608,0,7.704,2.7,7.704,6.732
		c0,5.148-4.788,8.964-11.304,8.964c-3.528,0-5.796-1.404-5.796-3.6c0-1.764,1.656-3.06,3.888-3.06c1.764,0,3.384,0.648,4.572,1.764
		c0.648,0.612,1.044,1.188,1.584,2.232c2.736-1.188,4.356-3.672,4.356-6.732c0-1.98-0.792-3.6-2.232-4.464
		c-0.756-0.432-2.16-0.72-3.564-0.72c-3.528,0-8.46,2.88-11.448,6.696c-0.612,0.756-0.864,0.972-1.224,0.972
		c-0.54,0-1.188-1.26-1.188-2.34c0-0.432,0.252-0.828,0.756-1.26c1.368-1.044,1.944-1.62,5.004-5.004
		c4.392-4.932,5.76-6.516,8.604-10.188c0.288-0.396,0.288-0.396,0.36-0.576c0,0-0.072-0.072-0.108-0.072c0,0-0.036,0-0.036,0.036
		c-0.036,0-0.036,0-0.108,0c0,0-0.072,0.036-0.18,0.072L21.207,78.705z M15.663,99.37c-1.368,0-2.268,0.72-2.268,1.836
		c0,1.332,1.584,2.196,4.104,2.196c0.972,0,1.44-0.072,2.556-0.324C19.335,100.773,17.679,99.37,15.663,99.37z"/>
	<path d="M1.299,110.565c6.336,4.716,10.368,6.192,16.956,6.192c6.552,0,10.584-1.476,16.92-6.192l0.54,0.54
		c-4.248,5.256-10.656,8.316-17.424,8.316s-13.248-3.096-17.532-8.316L1.299,110.565z"/>
	<path d="M35.283,132.921c0,2.556-2.088,4.644-4.644,4.644s-4.644-2.088-4.644-4.644s2.088-4.644,4.644-4.644
		C33.231,128.277,35.283,130.329,35.283,132.921z M27.147,132.921c0,1.908,1.584,3.492,3.492,3.492c1.944,0,3.492-1.548,3.492-3.492
		c0-1.944-1.548-3.492-3.492-3.492S27.147,130.977,27.147,132.921z"/>
	<path d="M9.183,182.349c-0.072,0.792-0.108,1.116-0.108,1.62c0,4.284,2.7,6.3,8.496,6.3c2.844,0,5.832-0.504,7.956-1.296
		c0.216-0.108,0.432-0.144,0.612-0.144c0.54,0,1.368,0.324,1.98,0.72c0.504,0.396,0.792,0.828,0.792,1.26
		c0,0.54-0.396,0.936-1.152,1.116c-1.656,0.432-5.184,0.72-8.388,0.72c-4.032,0-6.588-0.504-8.388-1.728
		c-1.8-1.152-2.988-3.42-2.988-5.688c0-0.864,0.18-1.836,0.576-3.024L9.183,182.349z M10.299,168.129
		c1.836,1.224,3.096,1.584,5.508,1.584c2.376,0,5.4-0.432,7.488-1.08c0.252-0.072,0.54-0.144,0.648-0.144
		c0.936,0,2.16,1.08,2.16,1.872c0,0.612-0.216,0.72-2.628,1.26c-1.404,0.288-1.728,0.432-5.256,1.764
		c-0.864,0.324-0.864,0.324-2.952,1.224c-0.72,0.288-0.72,0.324-1.404,0.576l-0.252-0.54c1.116-0.648,1.692-1.008,2.628-1.512
		c2.448-1.332,2.448-1.332,3.024-1.692c-0.792,0.072-2.052,0.108-2.7,0.108c-1.332,0-2.988-0.396-4.104-0.972
		c-0.936-0.504-1.512-1.008-2.52-2.088L10.299,168.129z"/>
	<path d="M10.299,213.31c0.036-0.576,0.036-0.576,0.072-1.512c0.072-0.72,0.072-0.72,0.108-1.26c-1.08,0.72-2.988,2.016-3.636,2.484
		c-0.684,0.468-0.9,0.576-1.224,0.576c-0.936,0-2.664-2.124-2.664-3.276c0-0.072,0.036-0.36,0.108-0.612
		c0.792,1.152,1.584,1.728,2.34,1.728c0.72,0,3.06-0.972,5.184-2.16c0.18-1.512,0.252-2.52,0.252-3.816
		c0-2.088-0.324-2.7-2.052-3.996c0.216-0.144,0.288-0.18,0.468-0.18c0.576,0,1.368,0.36,2.304,0.972
		c1.152,0.792,1.872,1.692,1.872,2.376c0,0.396,0,0.396-0.36,1.476c-0.252,0.684-0.504,1.836-0.648,2.844
		c0.792,0.828,1.044,1.116,1.044,1.404c0,0.216-0.036,0.288-0.504,1.044c-0.432,0.792-0.792,1.476-1.152,2.34
		c-0.072,0.612-0.072,0.756-0.072,1.332c3.528-3.348,4.716-4.392,6.264-5.508c2.52-1.8,4.212-2.556,5.796-2.556
		c1.116,0,2.124,0.468,2.844,1.296c0.684,0.792,0.972,1.764,0.972,3.168c0,1.368-0.036,1.62-0.72,5.328
		c-0.432,2.34-0.648,4.428-0.648,5.904c0,1.44,0.252,2.196,0.9,2.664c0.504,0.36,1.152,0.54,1.836,0.54
		c1.8,0,4.32-0.936,6.696-2.556l0.288,0.432c-2.592,2.664-5.4,4.14-7.956,4.14c-2.736,0-4.212-1.764-4.212-5.04
		c0-1.296,0.324-3.6,0.9-6.408c0.828-3.852,0.9-4.356,0.9-5.688c0-1.764-0.792-2.772-2.196-2.772c-1.548,0-3.42,1.08-6.3,3.636
		c-1.872,1.656-3.564,3.42-5.472,5.688c-0.036,0.864-0.036,1.332-0.036,1.872c0,1.944,0.108,3.672,0.36,6.444
		c0.108,0.864,0.108,1.152,0.108,1.692c0,2.052-0.684,3.744-1.548,3.744c-0.396,0-0.684-0.288-0.864-0.972
		c-0.108-0.36-0.504-1.476-0.612-1.728c-0.396-0.72-1.548-2.196-3.168-3.924c-0.72,1.728-0.864,1.944-1.224,1.944
		c-0.324,0-0.612-0.288-0.828-0.828c-0.216-0.576-0.396-1.44-0.396-1.98c0-0.432,0.036-0.504,0.612-1.08
		c0.576-0.54,1.152-1.332,2.34-3.204L10.299,213.31z M8.103,220.042c-0.828,1.584-1.224,2.376-1.908,3.816
		c2.124,1.764,2.772,2.268,3.816,2.916c0.072-1.368,0.072-1.368,0.108-6.732c0-1.764,0.036-2.592,0.144-4.068
		C9.759,217.018,9.723,217.018,8.103,220.042z"/>
	<path d="M11.631,252.585c-0.072,0.324-0.612,2.592-1.62,6.768c-0.504,2.124-0.612,2.7-0.612,3.816c0,1.044-0.036,1.332-0.108,1.548
		c-0.144,0.396-0.468,0.612-0.864,0.612c-0.612,0-1.152-0.504-1.548-1.476c-0.792-1.872-1.26-4.788-1.26-7.668
		c0-1.08,0.108-2.412,0.288-3.852c0.252-2.088,0.252-2.088,1.26-6.804c0.36-1.692,0.504-2.592,0.504-3.348
		c0-1.188-0.288-2.088-1.008-3.384c0.792,0.036,1.44,0.504,2.412,1.764c0.9,1.116,1.332,2.052,1.332,2.844
		c0,0.576-0.036,0.72-0.756,2.16c-0.72,1.512-1.584,4.032-1.944,5.724c-0.324,1.368-0.468,2.916-0.468,4.464
		c0,1.98,0.18,3.24,0.684,4.752c0.612-1.26,0.9-1.98,1.296-3.06l1.908-5.04L11.631,252.585z M16.167,254.385
		c-0.072,0.72-0.108,1.044-0.108,1.512c0,3.96,2.268,5.58,7.848,5.58c1.044,0,2.088-0.072,3.06-0.252
		c0.756-0.108,0.756-0.108,1.908-0.576c0.216-0.072,0.396-0.108,0.54-0.108c0.936,0,2.268,1.26,2.268,2.124
		c0,0.432-0.288,0.72-0.792,0.9c-0.756,0.252-2.484,0.396-4.5,0.396c-4.5,0-7.704-0.756-9.324-2.196
		c-1.296-1.188-1.944-2.7-1.944-4.68c0-0.9,0.108-1.692,0.432-2.844L16.167,254.385z M16.095,242.938
		c1.26,0.756,2.052,0.972,3.348,0.972c2.232,0,5.724-0.792,7.236-1.62c0.468-0.252,0.54-0.288,0.792-0.288
		c0.288,0,0.756,0.18,1.26,0.504c0.756,0.432,1.116,0.864,1.116,1.332c0,0.468-0.252,0.684-1.008,0.828
		c-2.376,0.36-3.708,0.684-5.112,1.26c-1.116,0.468-3.204,1.62-4.644,2.556l-0.36-0.36c1.62-1.368,2.844-2.376,3.42-2.808
		c-0.756,0.036-1.152,0.072-1.476,0.072c-2.016,0-3.348-0.54-4.896-2.016L16.095,242.938z"/>
</g>
<g>
	<path fill="#00A0E9" d="M139.838,158.959c-1.04,0.864-1.52,1.6-1.52,2.352c0,0.736,0.464,1.264,1.36,1.568
		c0.608,0.208,1.664,0.32,2.928,0.32c2,0,3.904-0.24,4.8-0.608l0.144,1.312c-0.208,0.016-0.272,0.032-0.544,0.08
		c-1.392,0.24-2.912,0.368-4.32,0.368c-1.536,0-2.896-0.192-3.68-0.496c-1.2-0.496-1.824-1.312-1.824-2.416
		c0-1.04,0.608-2.048,1.84-3.088L139.838,158.959z M138.158,153.12c1.168,0.272,2.432,0.384,4.256,0.384
		c1.872,0,3.168-0.112,4.048-0.336l0.08,1.056c-0.992,0.416-2.464,1.296-4.032,2.432L141.694,156
		c1.024-0.688,1.408-0.928,2.128-1.328c0.176-0.096,0.208-0.112,0.4-0.208c0.112-0.064,0.144-0.064,0.304-0.16
		c-0.96,0.16-1.504,0.208-2.416,0.208c-1.12,0-2.48-0.08-3.52-0.208c-0.288-0.032-0.32-0.048-0.528-0.048L138.158,153.12z"/>
	<path fill="#00A0E9" d="M139.838,174.959c-1.04,0.864-1.52,1.6-1.52,2.352c0,0.736,0.464,1.264,1.36,1.568
		c0.608,0.208,1.664,0.32,2.928,0.32c2,0,3.904-0.24,4.8-0.608l0.144,1.312c-0.208,0.016-0.272,0.032-0.544,0.08
		c-1.392,0.24-2.912,0.368-4.32,0.368c-1.536,0-2.896-0.192-3.68-0.496c-1.2-0.496-1.824-1.312-1.824-2.416
		c0-1.04,0.608-2.048,1.84-3.088L139.838,174.959z M138.158,169.12c1.168,0.272,2.432,0.384,4.256,0.384
		c1.872,0,3.168-0.112,4.048-0.336l0.08,1.056c-0.992,0.416-2.464,1.296-4.032,2.432L141.694,172
		c1.024-0.688,1.408-0.928,2.128-1.328c0.176-0.096,0.208-0.112,0.4-0.208c0.112-0.064,0.144-0.064,0.304-0.16
		c-0.96,0.16-1.504,0.208-2.416,0.208c-1.12,0-2.48-0.08-3.52-0.208c-0.288-0.032-0.32-0.048-0.528-0.048L138.158,169.12z"/>
	<path fill="#00A0E9" d="M140.11,185.855c0.528-1.12,0.72-1.68,0.768-2.192l1.28,0.224c-0.144,0.208-0.144,0.208-0.416,0.864
		c-0.208,0.512-0.416,0.944-0.496,1.088c0.192-0.016,0.192-0.016,0.336-0.016c2.56-0.128,4.16-0.32,5.04-0.608l0.096,1.088
		c-0.256,0.016-0.352,0.032-0.64,0.08c-1.664,0.224-3.344,0.352-5.28,0.416c-0.48,0.944-0.88,1.584-1.44,2.272
		c-0.16,0.192-0.48,0.56-0.544,0.608c-0.112,0.08-0.192,0.144-0.208,0.16c0,0.016-0.016,0.016-0.016,0.016c0,0.016,0,0.016,0,0.016
		c0.016,0.032,0.016,0.032,0.032,0.048c0.576-0.448,0.576-0.448,0.736-0.56c0.736-0.512,1.584-0.784,2.416-0.784
		c1.184,0,1.904,0.592,2.112,1.776c1.168-0.464,2.08-0.8,2.784-1.056c0.784-0.272,0.832-0.288,1.088-0.464l0.512,1.12
		c-0.832,0.144-2.272,0.624-4.272,1.408c0.032,0.416,0.032,0.576,0.032,0.976c0,0.208,0,0.56-0.016,0.88
		c-0.016,0.352-0.016,0.576-0.016,0.72c0,0.224,0,0.352,0.032,0.576l-1.088,0.016c0.048-0.352,0.096-1.328,0.096-2.304
		c0-0.256,0-0.288-0.016-0.48c-2.176,1.024-3.008,1.776-3.008,2.736c0,1.056,0.992,1.52,3.248,1.52c1.584,0,3.36-0.256,4.272-0.624
		l0.144,1.232c-0.24,0.016-0.32,0.032-0.64,0.08c-1.264,0.208-2.656,0.32-3.888,0.32c-2.864,0-4.256-0.816-4.256-2.464
		c0-0.88,0.544-1.712,1.632-2.528c0.544-0.4,1.312-0.816,2.384-1.28c-0.128-0.88-0.512-1.264-1.264-1.264
		c-1.008,0-2.272,0.592-3.568,1.696c-0.624,0.528-0.976,0.896-1.232,1.328l-0.896-0.896c1.104-0.848,2.432-2.528,3.584-4.576
		c0.048-0.08,0.048-0.08,0.144-0.24c-0.064,0.016-0.224,0.032-0.304,0.032c-0.256,0-1.76-0.032-2.352-0.048c-0.08,0-0.208,0-0.256,0
		c-0.144,0-0.176,0-0.352,0.016l0.016-1.104c0.576,0.112,1.792,0.176,3.424,0.176H140.11z"/>
	<path fill="#00A0E9" d="M149.166,211.888c-0.56-0.08-1.152-0.112-2.128-0.112h-9.488c-0.96,0-1.552,0.032-2.128,0.112v-1.312
		c0.576,0.08,1.04,0.112,2.112,0.112h9.504c1.072,0,1.52-0.016,2.128-0.112V211.888z M136.862,201.2
		c0.56,0.08,1.184,0.112,2.064,0.112h6.576c1.072,0,1.536-0.016,2.096-0.096v1.28c-0.624-0.08-1.072-0.096-2.096-0.096h-6.576
		c-0.928,0-1.536,0.032-2.064,0.096V201.2z"/>
	<path fill="#00A0E9" d="M141.118,215.808c-0.144,0.192-0.208,0.32-0.448,0.816c-1.232,2.48-2.784,4.336-5.04,6
		c-0.208-0.32-0.416-0.56-0.784-0.864c1.936-1.296,3.312-2.768,4.384-4.688c0.4-0.704,0.608-1.2,0.688-1.68L141.118,215.808z
		 M139.566,222.032c-0.608,0-1.152,0.032-1.648,0.096v-1.136c0.464,0.064,1.008,0.096,1.664,0.096h5.264
		c0.736,0,1.216-0.016,1.68-0.08c-0.048,0.288-0.048,0.416-0.064,1.136c0,3.104-0.304,5.808-0.72,6.56
		c-0.272,0.48-0.656,0.64-1.584,0.64c-0.528,0-1.088-0.032-2.096-0.128c-0.048-0.432-0.096-0.672-0.256-1.136
		c0.88,0.176,1.68,0.272,2.256,0.272c0.512,0,0.688-0.096,0.8-0.4c0.336-0.976,0.528-3.152,0.528-5.92h-3.728
		c-0.144,1.76-0.512,2.96-1.248,4.208c-0.832,1.392-2.08,2.48-4.032,3.488c-0.208-0.368-0.368-0.576-0.704-0.896
		c2.048-0.992,3.264-2.048,4.032-3.504c0.528-1.008,0.752-1.888,0.864-3.296H139.566z M144.542,215.424
		c0.128,0.416,0.272,0.736,0.608,1.344c1.168,2.096,2.528,3.536,4.72,4.976c-0.304,0.288-0.512,0.56-0.752,0.976
		c-2.528-1.872-3.888-3.488-5.392-6.432c-0.08-0.144-0.176-0.32-0.256-0.448L144.542,215.424z"/>
	<path fill="#00A0E9" d="M135.102,234c0.368,0.064,0.672,0.08,1.28,0.08h2.896c0.656,0,0.928-0.016,1.28-0.08v1.04
		c-0.336-0.048-0.592-0.064-1.168-0.064h-3.008c-0.56,0-0.848,0.016-1.28,0.064V234z M135.646,231.776
		c0.384,0.064,0.656,0.08,1.216,0.08h2.256c0.544,0,0.832-0.016,1.216-0.08v1.008c-0.4-0.048-0.72-0.064-1.216-0.064h-2.256
		c-0.496,0-0.832,0.016-1.216,0.064V231.776z M135.774,236.288c0.336,0.048,0.608,0.064,1.152,0.064h2.288
		c0.544,0,0.8-0.016,1.136-0.064v0.976c-0.368-0.048-0.592-0.064-1.136-0.064h-2.288c-0.544,0-0.784,0.016-1.152,0.064V236.288z
		 M135.774,238.479c0.336,0.048,0.592,0.064,1.152,0.064h2.288c0.56,0,0.816-0.016,1.136-0.064v0.976
		c-0.432-0.048-0.624-0.064-1.136-0.064h-2.288c-0.528,0-0.784,0.016-1.152,0.064V238.479z M135.79,245.775
		c0.064-0.448,0.096-0.912,0.096-1.552v-2.16c0-0.56-0.016-0.928-0.08-1.344c0.416,0.048,0.816,0.064,1.28,0.064h2.096
		c0.688,0,0.864,0,1.152-0.048c-0.032,0.336-0.048,0.688-0.048,1.264v2.256c0,0.496,0.016,0.848,0.08,1.312h-0.976v-0.656h-2.576
		v0.864H135.79z M136.813,244.08h2.576v-2.464h-2.576V244.08z M144.59,232.608c0-0.512-0.032-0.88-0.096-1.296h1.152
		c-0.064,0.4-0.096,0.784-0.096,1.328v1.184h2.512c0.72,0,1.152-0.032,1.6-0.096v1.104c-0.448-0.064-0.96-0.096-1.584-0.096h-2.528
		v2.464h2.224c0.688,0,1.152-0.032,1.6-0.096v1.088c-0.448-0.064-0.928-0.096-1.584-0.096h-5.056c-0.656,0-1.088,0.032-1.584,0.096
		v-1.088c0.432,0.064,0.88,0.096,1.584,0.096h1.856v-2.464h-2.032c-0.704,0-1.168,0.032-1.616,0.096v-1.104
		c0.432,0.064,0.88,0.096,1.616,0.096h2.032V232.608z M142.83,245.695h-1.088c0.064-0.4,0.08-0.816,0.08-1.536v-2.992
		c0-0.656-0.016-1.04-0.064-1.456c0.4,0.048,0.736,0.064,1.216,0.064h4.32c0.592,0,0.912-0.016,1.28-0.064
		c-0.048,0.32-0.064,0.752-0.064,1.488v2.928c0,0.608,0.032,1.248,0.08,1.568h-1.088v-0.8h-4.672V245.695z M142.83,244h4.672v-3.328
		h-4.672V244z"/>
	<path fill="#00A0E9" d="M139.038,248.576c0.016,0.512,0.224,1.856,0.432,2.784c1.12-0.544,2.224-0.8,3.424-0.8
		c0.112,0,0.304,0,0.528,0.016c0.272-1.056,0.464-2.112,0.496-2.576l1.2,0.256c-0.096,0.256-0.096,0.256-0.432,1.68
		c-0.08,0.272-0.112,0.448-0.192,0.752c2.656,0.496,4.24,2.24,4.24,4.656c0,1.488-0.656,2.944-1.744,3.84
		c-0.816,0.688-1.968,1.248-3.232,1.584c-0.24,0.064-0.32,0.08-1.008,0.24c-0.128-0.416-0.208-0.544-0.624-1.072
		c0.912-0.08,1.536-0.24,2.384-0.592c1.12-0.464,1.92-1.04,2.4-1.744c0.464-0.672,0.704-1.44,0.704-2.272
		c0-1.952-1.168-3.232-3.376-3.696c-0.72,2.48-1.856,4.768-3.104,6.272c-1.024,1.248-1.92,1.824-2.848,1.824
		c-1.392,0-2.304-1.248-2.304-3.136c0-1.04,0.336-2.144,0.928-3.056c0.416-0.624,0.864-1.088,1.6-1.632
		c-0.112-0.512-0.304-1.456-0.448-2.256c-0.096-0.528-0.112-0.592-0.208-0.848L139.038,248.576z M137.662,254.304
		c-0.4,0.688-0.64,1.552-0.64,2.24c0,1.264,0.512,2.096,1.296,2.096c0.56,0,1.248-0.48,1.968-1.36
		c-0.64-1.344-1.152-2.832-1.504-4.304C138.254,253.439,137.95,253.792,137.662,254.304z M141.021,256.399
		c0.08-0.16,0.08-0.176,0.192-0.352c0.752-1.184,1.456-2.816,1.952-4.528c-0.176,0-0.32-0.016-0.4-0.016
		c-1.136,0-2.16,0.272-3.088,0.816c0.304,1.296,0.64,2.352,1.2,3.712c0.08,0.208,0.096,0.24,0.128,0.368H141.021z"/>
	<path fill="#00A0E9" d="M138.094,264.704c0.448,0.08,0.736,0.096,1.504,0.096c1.328,0,3.456-0.096,4.896-0.208
		c0.416-0.032,0.56-0.064,0.768-0.176l0.672,0.88c-0.224,0.112-0.304,0.176-0.816,0.672c-2.208,2.16-4.144,3.824-5.264,4.544
		l0.032,0.048c1.216-0.656,2.512-0.992,3.92-0.992c2.672,0,4.384,1.312,4.384,3.36c0,2.496-2.32,4.144-5.872,4.144
		c-2.256,0-3.552-0.832-3.552-2.304c0-1.072,0.992-1.872,2.32-1.872c1.072,0,2,0.464,2.64,1.312
		c0.336,0.448,0.512,0.832,0.736,1.536c1.68-0.464,2.56-1.44,2.56-2.8c0-1.536-1.28-2.448-3.44-2.448
		c-2.352,0-4.88,1.024-6.736,2.736l-0.72-1.024c0.576-0.336,1.152-0.752,2.24-1.632c1.712-1.36,4.24-3.584,5.344-4.672
		c0.096-0.096,0.096-0.096,0.224-0.224c0,0,0.032-0.032,0.064-0.064l0.064-0.064l-0.032-0.032c-0.048,0-0.048,0-0.144,0.016
		c-0.512,0.096-2.432,0.208-4.864,0.288c-0.352,0.016-0.512,0.032-0.864,0.08L138.094,264.704z M141.102,273.808
		c-0.8,0-1.296,0.384-1.296,0.992c0,0.416,0.208,0.72,0.64,0.976c0.416,0.224,1.104,0.368,1.792,0.368
		c0.4,0,0.592-0.016,1.168-0.112C143.054,274.576,142.253,273.808,141.102,273.808z"/>
</g>
<g>
	<line stroke="#898989" stroke-width="6" x1="149.012" y1="89.19" x2="123.84" y2="89.19"/>
	<polygon fill="#898989" stroke="#898989" stroke-width="2" points="132.266,78.081 127.549,89.19 132.266,100.302 105.934,89.19 	
		"/>
</g>
</svg>
