<?xml version="1.0" encoding="utf-8"?>
<!-- Generator: Adobe Illustrator 12.0.0, SVG Export Plug-In . SVG Version: 6.00 Build 51448)  -->
<!DOCTYPE svg PUBLIC "-//W3C//DTD SVG 1.1//EN" "http://www.w3.org/Graphics/SVG/1.1/DTD/svg11.dtd" [
	<!ENTITY ns_svg "http://www.w3.org/2000/svg">
	<!ENTITY ns_xlink "http://www.w3.org/1999/xlink">
]>
<svg  version="1.1" id="レイヤー_1" xmlns="&ns_svg;" xmlns:xlink="&ns_xlink;" width="304.819" height="292.226"
	 viewBox="0 0 304.819 292.226" overflow="visible" enable-background="new 0 0 304.819 292.226" xml:space="preserve">
<g>
	<polyline fill="none" stroke="#00A0E9" stroke-width="0.5" points="175.961,14.864 154.188,14.864 154.188,110.348 	"/>
	<polyline fill="none" stroke="#00A0E9" stroke-width="0.5" points="169.074,10.885 175.961,14.864 169.074,18.84 	"/>
</g>
<g>
	<line fill="none" stroke="#00A0E9" stroke-width="0.5" x1="271.52" y1="4.193" x2="287.117" y2="4.193"/>
	<polyline fill="none" stroke="#00A0E9" stroke-width="0.5" points="278.406,8.171 271.52,4.193 278.406,0.216 	"/>
</g>
<rect x="177.289" y="3.976" fill="none" stroke="#00A0E9" stroke-width="0.5" width="35.998" height="288"/>
<line fill="none" stroke="#00A0E9" stroke-width="0.5" stroke-dasharray="4 4" x1="0" y1="3.976" x2="272.09" y2="3.976"/>
<line fill="none" stroke="#00A0E9" stroke-width="0.5" x1="177.289" y1="39.976" x2="213.287" y2="39.976"/>
<line fill="none" stroke="#00A0E9" stroke-width="0.5" x1="177.289" y1="75.976" x2="213.287" y2="75.976"/>
<line fill="none" stroke="#00A0E9" stroke-width="0.5" x1="177.289" y1="111.976" x2="213.287" y2="111.976"/>
<line fill="none" stroke="#00A0E9" stroke-width="0.5" x1="177.289" y1="147.976" x2="213.287" y2="147.976"/>
<line fill="none" stroke="#00A0E9" stroke-width="0.5" x1="177.289" y1="219.976" x2="213.287" y2="219.976"/>
<line fill="none" stroke="#00A0E9" stroke-width="0.5" x1="177.289" y1="255.976" x2="213.287" y2="255.976"/>
<line fill="none" stroke="#00A0E9" stroke-width="0.5" x1="177.289" y1="183.976" x2="213.287" y2="183.976"/>
<g>
	<path d="M242.926,26.667h27.036v11.88h-1.368V28.036h-25.668V26.667z"/>
	<path d="M266.11,42.436l3.132,2.34c-0.252,0.288-0.864,0.576-1.584,0.72v27.792c0,0.108-0.684,0.936-2.34,0.936v-2.412h-24.084
		v1.764c0,0.072-0.145,0.972-2.305,0.972V42.759l2.557,1.224h23.472L266.11,42.436z M241.234,70.948h24.084V44.847h-24.084V70.948z
		 M243.538,55.936c4.14,1.044,7.452,2.232,10.08,3.456c2.844-3.42,5.4-7.452,7.344-11.916l3.384,1.584
		c-0.18,0.288-0.432,0.504-0.936,0.504c-0.144,0-0.36-0.036-0.576-0.072c-2.088,4.176-4.572,7.74-7.38,10.764
		c5.256,2.772,6.984,5.508,6.984,6.984c0,0.648-0.36,1.044-0.937,1.044c-0.216,0-0.504-0.072-0.792-0.216
		c-1.224-1.836-3.528-4.068-6.768-6.264c-3.42,3.312-7.2,5.832-11.16,7.596l-0.433-0.54c3.42-1.836,6.876-4.572,10.009-8.064
		c-2.557-1.548-5.58-3.024-9.072-4.248L243.538,55.936z M243.646,47.907c3.78,1.728,4.969,3.888,4.969,5.328
		c0,1.044-0.576,1.728-1.26,1.728c-0.324,0-0.685-0.144-1.009-0.468c-0.18-2.052-1.655-4.716-3.06-6.3L243.646,47.907z
		 M250.342,46.503c3.492,1.872,4.608,4.068,4.608,5.616c0,1.152-0.612,1.944-1.368,1.944c-0.324,0-0.684-0.18-1.008-0.54
		c0-2.16-1.296-5.076-2.628-6.732L250.342,46.503z"/>
	<path d="M264.202,89.631c-0.036,0.252-1.188,0.792-1.944,0.792h-0.359v-1.26h-7.524v2.988h8.64l1.513-1.944l2.988,2.052
		c-0.288,0.504-0.721,0.756-1.692,0.756h-11.448v3.06h10.62l1.584-1.98l3.06,2.088c-0.252,0.54-0.647,0.756-1.691,0.756h-30.78
		l-0.252-0.864h15.156v-3.06h-12.349l-0.252-0.864h12.601v-2.988h-10.836l-0.252-0.864h11.088v-3.132h-15.192l-0.252-0.864h15.444
		v-3.024h-10.62l-0.252-0.864h10.872v-3.204l3.996,0.324c-0.036,0.612-0.469,0.828-1.692,1.008v1.872h7.164l1.08-1.44l3.096,2.196
		c-0.252,0.288-0.828,0.576-1.512,0.72v2.412h1.404l1.512-1.944l2.916,2.052c-0.324,0.504-0.684,0.756-1.728,0.756h-4.104V89.631z
		 M261.718,99.675l1.08-1.44l3.168,2.232c-0.252,0.288-0.828,0.612-1.548,0.756v8.388c0,0.036-0.756,0.72-2.34,0.72v-1.764h-17.604
		v1.188c0,0.072-0.359,0.828-2.304,0.828V98.559l2.556,1.116H261.718z M262.078,100.539h-17.604v3.06h17.604V100.539z
		 M244.474,107.703h17.604v-3.24h-17.604V107.703z M254.374,81.279v3.024h7.524v-3.024H254.374z M254.374,88.299h7.524v-3.132
		h-7.524V88.299z"/>
	<path d="M249.514,135.027c-0.071,0.108-1.008,0.504-1.8,0.504h-0.432v-1.656h-6.156v7.488c1.62-0.36,3.456-0.756,5.328-1.224
		c-0.756-1.26-1.692-2.484-2.592-3.348l0.359-0.288c4.5,2.016,5.904,4.464,5.904,6.048c0,0.972-0.54,1.584-1.188,1.584
		c-0.324,0-0.685-0.144-1.009-0.468c-0.144-0.864-0.54-1.872-1.08-2.844c-1.943,0.936-4.571,2.232-7.92,3.708
		c-0.144,0.468-0.432,0.756-0.792,0.9l-1.512-3.132l2.304-0.432v-18.216c-0.647,0.72-1.332,1.404-2.016,1.98l-0.504-0.324
		c2.556-2.988,4.932-8.28,5.904-11.988l3.852,0.396c-0.072,0.396-0.432,0.612-1.296,0.72c4.86,1.62,6.336,3.744,6.336,5.148
		c0,0.864-0.576,1.44-1.26,1.44c-0.288,0-0.612-0.108-0.9-0.36c-0.54-1.728-2.088-3.996-4.392-5.796
		c-1.116,2.484-2.88,5.436-4.969,7.92l1.62,0.792h1.765v-4.068l3.456,0.288c-0.072,0.396-0.36,0.612-1.261,0.756v3.024h2.16
		l0.864-1.296l2.556,2.124c-0.252,0.252-0.756,0.504-1.332,0.612V135.027z M247.282,124.443h-6.156v3.852h6.156V124.443z
		 M241.126,133.011h6.156v-3.852h-6.156V133.011z M267.622,116.847l2.736,2.664c-0.288,0.252-0.685,0.324-1.368,0.36
		c-0.756,0.864-2.124,2.304-2.952,3.06l-0.504-0.252c0.216-0.792,0.576-2.304,0.828-3.42H254.23c0,1.764-0.792,3.852-2.628,3.852
		c-0.54,0-1.116-0.252-1.116-0.936c0-0.504,0.396-1.044,0.936-1.404c0.9-0.612,1.872-2.304,1.872-3.852l0.648,0.036
		c0.144,0.504,0.216,0.972,0.252,1.44h4.752v-5.184l3.78,0.324c-0.036,0.54-0.36,0.756-1.44,0.9v3.96h4.86L267.622,116.847z
		 M264.994,135.207l1.008-1.368l2.916,2.088c-0.18,0.252-0.756,0.54-1.368,0.648v8.46c0,0.108-0.684,0.828-2.231,0.828v-2.268
		h-9.612v2.088c0,0.036-0.216,0.864-2.232,0.864v-24.012l2.412,1.152h8.137l1.044-1.332l2.952,2.088
		c-0.217,0.252-0.757,0.54-1.44,0.648v7.02c0,0.072-0.648,0.72-2.232,0.72v-1.8h-8.64v4.176H264.994z M264.346,124.551h-8.64v5.616
		h8.64V124.551z M255.706,142.731h9.612v-6.66h-9.612V142.731z"/>
	<path d="M263.662,161.091h-27.036v-11.88h1.368v10.512h25.668V161.091z"/>
	<path d="M246.85,202.923c-1.836,3.996-3.636,8.352-3.672,9.612c0,0.504,0.396,1.296,0.396,2.268c0,0.936-0.433,1.332-0.864,1.332
		c-1.62,0-3.42-3.024-3.42-9.396c0-5.364,1.404-9.936,1.979-13.212c0.108-0.576,0.181-1.116,0.181-1.656
		c0-0.216-0.036-0.468-0.036-0.684c0-1.224-1.08-2.376-1.872-2.484l-0.036-0.252c0.324-0.36,0.864-0.432,1.332-0.432
		c2.196,0,3.708,2.232,3.708,3.528c0,1.008-0.504,1.548-0.72,2.052c-1.296,3.204-2.664,7.632-2.664,12.312
		c0,2.196,0.216,3.528,0.468,4.14l0.324-0.108c0.612-0.936,2.916-5.04,4.14-7.38L246.85,202.923z M253.942,202.06
		c-1.62,1.764-2.845,3.708-2.845,5.616c0,2.988,2.196,4.032,7.164,4.032c3.097,0,5.364-0.396,6.156-0.648
		c1.944,0.288,2.7,1.008,2.7,1.728c0,0.936-1.332,1.188-7.956,1.188c-6.516,0-9.72-1.656-9.72-5.94c0-2.448,1.8-4.68,3.779-6.552
		L253.942,202.06z M250.198,192.951c0.899,0.252,2.412,0.324,3.563,0.324c1.836,0,5.473-0.612,7.272-1.368
		c0.612-0.252,1.368-0.792,1.62-0.792c1.368,0,2.988,0.54,2.988,1.476c0,0.756-1.261,1.008-2.664,1.332
		c-2.664,0.54-6.265,0.972-7.992,0.972c-1.584,0-3.528-0.144-4.969-1.332L250.198,192.951z"/>
	<path d="M245.662,249.543c6.228-0.432,11.88-1.908,14.868-3.564c3.492-1.908,5.364-5.22,5.364-8.676
		c0-5.256-2.952-8.388-8.173-8.388c-4.319,0-9.611,2.016-13.319,4.248c-1.549,0.864-2.053,1.8-3.276,1.8
		c-1.404,0-3.996-1.62-3.996-3.672c0-0.684,0.108-1.332,0.792-1.872l0.216,0.036c0.216,1.152,0.9,2.304,2.521,2.304
		c2.808,0,9.828-4.212,17.28-4.212c6.407,0,10.8,3.42,10.8,9.9c0,4.32-2.269,7.992-6.588,10.152c-3.528,1.764-9.504,2.7-16.309,2.88
		L245.662,249.543z"/>
	<path d="M237.706,262.899c0.288-0.432,0.792-0.612,1.26-0.612c2.017,0,4.068,1.764,4.068,3.528c0,0.504-0.324,0.972-0.54,1.44
		c-1.08,3.06-1.08,7.128-1.08,8.28c0,4.752,2.592,7.668,3.492,7.668c0.504,0,0.792-0.396,1.728-1.656
		c0.9-1.225,3.061-4.752,4.824-7.813l0.756,0.288c-1.512,3.096-3.96,7.776-4.644,9.72c-0.072,0.217-0.108,0.396-0.108,0.576
		c0,0.252,0.072,0.469,0.18,0.576c0.396,0.396,0.685,1.008,0.685,1.368c0,0.612-0.648,0.792-1.477,0.792
		c-0.684,0-2.376-0.684-3.456-1.836c-2.771-2.809-3.779-6.696-3.779-10.188c0-2.664,0.252-6.444,0.396-8.568v-0.36
		c0-1.548-0.504-2.952-2.268-3.06L237.706,262.899z M258.946,264.808c6.516,1.44,9.684,7.02,9.684,11.268
		c0,1.404-0.396,2.736-1.476,2.736c-0.612,0-1.152-0.504-1.152-1.584c-0.18-5.184-2.664-10.08-7.416-11.736L258.946,264.808z"/>
	<path d="M184.926,26.667h27.036v11.88h-1.367V28.036h-25.669V26.667z"/>
	<path d="M208.11,42.436l3.132,2.34c-0.252,0.288-0.864,0.576-1.584,0.72v27.792c0,0.108-0.685,0.936-2.34,0.936v-2.412h-24.085
		v1.764c0,0.072-0.144,0.972-2.303,0.972V42.759l2.555,1.224h23.473L208.11,42.436z M183.233,70.948h24.085V44.847h-24.085V70.948z
		 M185.538,55.936c4.141,1.044,7.452,2.232,10.08,3.456c2.844-3.42,5.4-7.452,7.344-11.916l3.385,1.584
		c-0.181,0.288-0.433,0.504-0.937,0.504c-0.144,0-0.36-0.036-0.576-0.072c-2.088,4.176-4.571,7.74-7.38,10.764
		c5.256,2.772,6.984,5.508,6.984,6.984c0,0.648-0.36,1.044-0.937,1.044c-0.216,0-0.504-0.072-0.792-0.216
		c-1.224-1.836-3.527-4.068-6.768-6.264c-3.42,3.312-7.2,5.832-11.16,7.596l-0.432-0.54c3.42-1.836,6.875-4.572,10.008-8.064
		c-2.557-1.548-5.58-3.024-9.072-4.248L185.538,55.936z M185.646,47.907c3.78,1.728,4.969,3.888,4.969,5.328
		c0,1.044-0.576,1.728-1.26,1.728c-0.324,0-0.685-0.144-1.008-0.468c-0.181-2.052-1.656-4.716-3.061-6.3L185.646,47.907z
		 M192.342,46.503c3.492,1.872,4.608,4.068,4.608,5.616c0,1.152-0.612,1.944-1.368,1.944c-0.324,0-0.685-0.18-1.008-0.54
		c0-2.16-1.296-5.076-2.628-6.732L192.342,46.503z"/>
	<path d="M206.202,89.631c-0.036,0.252-1.188,0.792-1.943,0.792h-0.361v-1.26h-7.523v2.988h8.641l1.512-1.944l2.988,2.052
		c-0.289,0.504-0.721,0.756-1.692,0.756h-11.448v3.06h10.62l1.584-1.98l3.06,2.088c-0.252,0.54-0.647,0.756-1.691,0.756h-30.78
		l-0.252-0.864h15.155v-3.06h-12.348l-0.252-0.864h12.6v-2.988h-10.836l-0.252-0.864h11.088v-3.132h-15.191l-0.252-0.864h15.443
		v-3.024H183.45l-0.252-0.864h10.871v-3.204l3.996,0.324c-0.035,0.612-0.467,0.828-1.691,1.008v1.872h7.164l1.08-1.44l3.096,2.196
		c-0.252,0.288-0.828,0.576-1.512,0.72v2.412h1.404l1.512-1.944l2.916,2.052c-0.324,0.504-0.684,0.756-1.729,0.756h-4.104V89.631z
		 M203.718,99.675l1.08-1.44l3.168,2.232c-0.252,0.288-0.828,0.612-1.548,0.756v8.388c0,0.036-0.756,0.72-2.34,0.72v-1.764h-17.604
		v1.188c0,0.072-0.359,0.828-2.304,0.828V98.559l2.556,1.116H203.718z M204.078,100.539h-17.604v3.06h17.604V100.539z
		 M186.474,107.703h17.604v-3.24h-17.604V107.703z M196.374,81.279v3.024h7.523v-3.024H196.374z M196.374,88.299h7.523v-3.132
		h-7.523V88.299z"/>
	<path d="M191.515,135.027c-0.072,0.108-1.009,0.504-1.801,0.504h-0.432v-1.656h-6.156v7.488c1.62-0.36,3.456-0.756,5.328-1.224
		c-0.756-1.26-1.691-2.484-2.592-3.348l0.359-0.288c4.5,2.016,5.904,4.464,5.904,6.048c0,0.972-0.54,1.584-1.188,1.584
		c-0.324,0-0.685-0.144-1.008-0.468c-0.145-0.864-0.541-1.872-1.08-2.844c-1.944,0.936-4.572,2.232-7.92,3.708
		c-0.145,0.468-0.433,0.756-0.793,0.9l-1.512-3.132l2.305-0.432v-18.216c-0.648,0.72-1.332,1.404-2.017,1.98l-0.504-0.324
		c2.556-2.988,4.932-8.28,5.903-11.988l3.853,0.396c-0.071,0.396-0.433,0.612-1.296,0.72c4.859,1.62,6.336,3.744,6.336,5.148
		c0,0.864-0.576,1.44-1.26,1.44c-0.288,0-0.612-0.108-0.9-0.36c-0.54-1.728-2.088-3.996-4.393-5.796
		c-1.115,2.484-2.879,5.436-4.967,7.92l1.619,0.792h1.764v-4.068l3.457,0.288c-0.072,0.396-0.36,0.612-1.26,0.756v3.024h2.159
		l0.864-1.296l2.557,2.124c-0.252,0.252-0.757,0.504-1.332,0.612V135.027z M189.282,124.443h-6.156v3.852h6.156V124.443z
		 M183.126,133.011h6.156v-3.852h-6.156V133.011z M209.622,116.847l2.736,2.664c-0.288,0.252-0.684,0.324-1.368,0.36
		c-0.756,0.864-2.124,2.304-2.952,3.06l-0.504-0.252c0.216-0.792,0.576-2.304,0.828-3.42h-12.133c0,1.764-0.791,3.852-2.627,3.852
		c-0.541,0-1.117-0.252-1.117-0.936c0-0.504,0.396-1.044,0.937-1.404c0.9-0.612,1.872-2.304,1.872-3.852l0.648,0.036
		c0.144,0.504,0.216,0.972,0.252,1.44h4.752v-5.184l3.779,0.324c-0.035,0.54-0.359,0.756-1.439,0.9v3.96h4.859L209.622,116.847z
		 M206.994,135.207l1.008-1.368l2.916,2.088c-0.18,0.252-0.756,0.54-1.368,0.648v8.46c0,0.108-0.684,0.828-2.231,0.828v-2.268
		h-9.612v2.088c0,0.036-0.216,0.864-2.232,0.864v-24.012l2.412,1.152h8.137l1.043-1.332l2.953,2.088
		c-0.217,0.252-0.756,0.54-1.44,0.648v7.02c0,0.072-0.647,0.72-2.231,0.72v-1.8h-8.641v4.176H206.994z M206.347,124.551h-8.641
		v5.616h8.641V124.551z M197.706,142.731h9.612v-6.66h-9.612V142.731z"/>
	<path d="M205.662,161.091h-27.036v-11.88h1.368v10.512h25.668V161.091z"/>
	<path d="M188.851,202.923c-1.836,3.996-3.637,8.352-3.672,9.612c0,0.504,0.396,1.296,0.396,2.268c0,0.936-0.433,1.332-0.864,1.332
		c-1.62,0-3.42-3.024-3.42-9.396c0-5.364,1.404-9.936,1.98-13.212c0.107-0.576,0.18-1.116,0.18-1.656
		c0-0.216-0.036-0.468-0.036-0.684c0-1.224-1.08-2.376-1.872-2.484l-0.036-0.252c0.324-0.36,0.864-0.432,1.332-0.432
		c2.196,0,3.708,2.232,3.708,3.528c0,1.008-0.504,1.548-0.72,2.052c-1.296,3.204-2.664,7.632-2.664,12.312
		c0,2.196,0.216,3.528,0.468,4.14l0.324-0.108c0.611-0.936,2.916-5.04,4.141-7.38L188.851,202.923z M195.942,202.06
		c-1.62,1.764-2.844,3.708-2.844,5.616c0,2.988,2.195,4.032,7.164,4.032c3.096,0,5.363-0.396,6.155-0.648
		c1.944,0.288,2.7,1.008,2.7,1.728c0,0.936-1.332,1.188-7.956,1.188c-6.517,0-9.72-1.656-9.72-5.94c0-2.448,1.8-4.68,3.779-6.552
		L195.942,202.06z M192.198,192.951c0.9,0.252,2.412,0.324,3.564,0.324c1.836,0,5.471-0.612,7.271-1.368
		c0.611-0.252,1.368-0.792,1.62-0.792c1.368,0,2.987,0.54,2.987,1.476c0,0.756-1.26,1.008-2.664,1.332
		c-2.664,0.54-6.264,0.972-7.992,0.972c-1.584,0-3.527-0.144-4.967-1.332L192.198,192.951z"/>
	<path d="M187.662,249.543c6.228-0.432,11.88-1.908,14.868-3.564c3.492-1.908,5.363-5.22,5.363-8.676
		c0-5.256-2.951-8.388-8.172-8.388c-4.32,0-9.611,2.016-13.32,4.248c-1.547,0.864-2.051,1.8-3.275,1.8
		c-1.404,0-3.996-1.62-3.996-3.672c0-0.684,0.107-1.332,0.792-1.872l0.216,0.036c0.217,1.152,0.9,2.304,2.521,2.304
		c2.808,0,9.827-4.212,17.28-4.212c6.408,0,10.8,3.42,10.8,9.9c0,4.32-2.269,7.992-6.589,10.152c-3.527,1.764-9.504,2.7-16.308,2.88
		L187.662,249.543z"/>
	<path d="M179.706,262.899c0.288-0.432,0.792-0.612,1.26-0.612c2.016,0,4.068,1.764,4.068,3.528c0,0.504-0.324,0.972-0.54,1.44
		c-1.08,3.06-1.08,7.128-1.08,8.28c0,4.752,2.592,7.668,3.492,7.668c0.504,0,0.792-0.396,1.728-1.656
		c0.9-1.225,3.061-4.752,4.824-7.813l0.756,0.288c-1.512,3.096-3.96,7.776-4.645,9.72c-0.071,0.217-0.107,0.396-0.107,0.576
		c0,0.252,0.072,0.469,0.18,0.576c0.396,0.396,0.685,1.008,0.685,1.368c0,0.612-0.647,0.792-1.476,0.792
		c-0.685,0-2.377-0.684-3.457-1.836c-2.771-2.809-3.779-6.696-3.779-10.188c0-2.664,0.252-6.444,0.396-8.568v-0.36
		c0-1.548-0.504-2.952-2.268-3.06L179.706,262.899z M200.946,264.808c6.516,1.44,9.684,7.02,9.684,11.268
		c0,1.404-0.396,2.736-1.476,2.736c-0.612,0-1.152-0.504-1.152-1.584c-0.18-5.184-2.664-10.08-7.416-11.736L200.946,264.808z"/>
</g>
<rect x="11.955" y="3.976" fill="none" stroke="#00A0E9" stroke-width="0.5" width="35.998" height="270"/>
<line fill="none" stroke="#00A0E9" stroke-width="0.5" x1="11.955" y1="21.976" x2="47.953" y2="21.976"/>
<line fill="none" stroke="#00A0E9" stroke-width="0.5" x1="11.955" y1="93.976" x2="47.953" y2="93.976"/>
<line fill="none" stroke="#00A0E9" stroke-width="0.5" x1="11.955" y1="111.976" x2="47.953" y2="111.976"/>
<line fill="none" stroke="#00A0E9" stroke-width="0.5" x1="11.955" y1="57.976" x2="47.953" y2="57.976"/>
<line fill="none" stroke="#00A0E9" stroke-width="0.5" x1="11.955" y1="129.976" x2="47.953" y2="129.976"/>
<line fill="none" stroke="#00A0E9" stroke-width="0.5" x1="11.955" y1="165.976" x2="47.953" y2="165.976"/>
<line fill="none" stroke="#00A0E9" stroke-width="0.5" x1="11.955" y1="201.976" x2="47.953" y2="201.976"/>
<line fill="none" stroke="#00A0E9" stroke-width="0.5" x1="11.955" y1="237.976" x2="47.953" y2="237.976"/>
<g>
	<path d="M77.592,8.667h27.037v11.88h-1.368V10.036H77.592V8.667z"/>
	<path d="M100.776,24.436l3.132,2.34c-0.252,0.288-0.864,0.576-1.584,0.72v27.792c0,0.108-0.684,0.936-2.34,0.936v-2.412H75.9v1.764
		c0,0.072-0.144,0.972-2.304,0.972V24.759l2.556,1.224h23.472L100.776,24.436z M75.9,52.948h24.084V26.847H75.9V52.948z
		 M78.204,37.936c4.14,1.044,7.452,2.232,10.08,3.456c2.844-3.42,5.4-7.452,7.344-11.916l3.384,1.584
		c-0.18,0.288-0.432,0.504-0.936,0.504c-0.144,0-0.36-0.036-0.576-0.072c-2.088,4.176-4.572,7.74-7.38,10.764
		c5.256,2.772,6.984,5.508,6.984,6.984c0,0.648-0.36,1.044-0.936,1.044c-0.216,0-0.504-0.072-0.792-0.216
		c-1.224-1.836-3.528-4.068-6.768-6.264c-3.42,3.312-7.2,5.832-11.16,7.596l-0.432-0.54c3.42-1.836,6.876-4.572,10.008-8.064
		c-2.556-1.548-5.58-3.024-9.072-4.248L78.204,37.936z M78.312,29.907c3.78,1.728,4.968,3.888,4.968,5.328
		c0,1.044-0.576,1.728-1.26,1.728c-0.324,0-0.684-0.144-1.008-0.468c-0.18-2.052-1.656-4.716-3.06-6.3L78.312,29.907z
		 M85.008,28.503c3.492,1.872,4.608,4.068,4.608,5.616c0,1.152-0.612,1.944-1.368,1.944c-0.324,0-0.684-0.18-1.008-0.54
		c0-2.16-1.296-5.076-2.628-6.732L85.008,28.503z"/>
	<path d="M98.868,71.631c-0.036,0.252-1.188,0.792-1.944,0.792h-0.36v-1.26H89.04v2.988h8.64l1.512-1.944l2.988,2.052
		c-0.288,0.504-0.72,0.756-1.692,0.756H89.04v3.06h10.62l1.584-1.98l3.06,2.088c-0.252,0.54-0.648,0.756-1.692,0.756h-30.78
		l-0.252-0.864h15.156v-3.06H74.388l-0.252-0.864h12.6v-2.988H75.9l-0.252-0.864h11.088v-3.132H71.544l-0.252-0.864h15.444v-3.024
		h-10.62l-0.252-0.864h10.872v-3.204l3.996,0.324c-0.036,0.612-0.468,0.828-1.692,1.008v1.872h7.164l1.08-1.44l3.096,2.196
		c-0.252,0.288-0.828,0.576-1.512,0.72v2.412h1.404l1.512-1.944l2.916,2.052c-0.324,0.504-0.684,0.756-1.728,0.756h-4.104V71.631z
		 M96.384,81.675l1.08-1.44l3.168,2.232c-0.252,0.288-0.828,0.612-1.548,0.756v8.388c0,0.036-0.756,0.72-2.34,0.72v-1.764H79.14
		v1.188c0,0.072-0.36,0.828-2.304,0.828V80.559l2.556,1.116H96.384z M96.744,82.539H79.14v3.06h17.604V82.539z M79.14,89.703h17.604
		v-3.24H79.14V89.703z M89.04,63.279v3.024h7.524v-3.024H89.04z M89.04,70.299h7.524v-3.132H89.04V70.299z"/>
	<path d="M84.18,117.027c-0.072,0.108-1.008,0.504-1.8,0.504h-0.432v-1.656h-6.156v7.488c1.62-0.36,3.456-0.756,5.328-1.224
		c-0.756-1.26-1.692-2.484-2.592-3.348l0.36-0.288c4.5,2.016,5.904,4.464,5.904,6.048c0,0.972-0.54,1.584-1.188,1.584
		c-0.324,0-0.684-0.144-1.008-0.468c-0.144-0.864-0.54-1.872-1.08-2.844c-1.944,0.936-4.572,2.232-7.92,3.708
		c-0.144,0.468-0.432,0.756-0.792,0.9l-1.512-3.132l2.304-0.432v-18.216c-0.648,0.72-1.332,1.404-2.016,1.98l-0.504-0.324
		c2.556-2.988,4.932-8.28,5.904-11.988l3.852,0.396c-0.072,0.396-0.432,0.612-1.296,0.72c4.86,1.62,6.336,3.744,6.336,5.148
		c0,0.864-0.576,1.44-1.26,1.44c-0.288,0-0.612-0.108-0.9-0.36c-0.54-1.728-2.088-3.996-4.392-5.796
		c-1.116,2.484-2.88,5.436-4.968,7.92l1.62,0.792h1.764v-4.068l3.456,0.288c-0.072,0.396-0.36,0.612-1.26,0.756v3.024h2.16
		l0.864-1.296l2.556,2.124c-0.252,0.252-0.756,0.504-1.332,0.612V117.027z M81.948,106.443h-6.156v3.852h6.156V106.443z
		 M75.792,115.011h6.156v-3.852h-6.156V115.011z M102.288,98.847l2.736,2.664c-0.288,0.252-0.684,0.324-1.368,0.36
		c-0.756,0.864-2.124,2.304-2.952,3.06l-0.504-0.252c0.216-0.792,0.576-2.304,0.828-3.42H88.896c0,1.764-0.792,3.852-2.628,3.852
		c-0.54,0-1.116-0.252-1.116-0.936c0-0.504,0.396-1.044,0.936-1.404c0.9-0.612,1.872-2.304,1.872-3.852l0.648,0.036
		c0.144,0.504,0.216,0.972,0.252,1.44h4.752v-5.184l3.78,0.324c-0.036,0.54-0.36,0.756-1.44,0.9v3.96h4.86L102.288,98.847z
		 M99.66,117.207l1.008-1.368l2.916,2.088c-0.18,0.252-0.756,0.54-1.368,0.648v8.46c0,0.108-0.684,0.828-2.232,0.828v-2.268h-9.612
		v2.088c0,0.036-0.216,0.864-2.232,0.864v-24.012l2.412,1.152h8.136l1.044-1.332l2.952,2.088c-0.216,0.252-0.756,0.54-1.44,0.648
		v7.02c0,0.072-0.648,0.72-2.232,0.72v-1.8h-8.64v4.176H99.66z M99.012,106.551h-8.64v5.616h8.64V106.551z M90.372,124.731h9.612
		v-6.66h-9.612V124.731z"/>
	<path d="M98.328,143.091H71.292v-11.88h1.368v10.512h25.668V143.091z"/>
	<path d="M81.516,184.923c-1.836,3.996-3.636,8.352-3.672,9.612c0,0.504,0.396,1.296,0.396,2.268c0,0.936-0.432,1.332-0.864,1.332
		c-1.62,0-3.42-3.024-3.42-9.396c0-5.364,1.404-9.936,1.98-13.212c0.108-0.576,0.18-1.116,0.18-1.656
		c0-0.216-0.036-0.468-0.036-0.684c0-1.224-1.08-2.376-1.872-2.484l-0.036-0.252c0.324-0.36,0.864-0.432,1.332-0.432
		c2.196,0,3.708,2.232,3.708,3.528c0,1.008-0.504,1.548-0.72,2.052c-1.296,3.204-2.664,7.632-2.664,12.312
		c0,2.196,0.216,3.528,0.468,4.14l0.324-0.108c0.612-0.936,2.916-5.04,4.14-7.38L81.516,184.923z M88.608,184.06
		c-1.62,1.764-2.844,3.708-2.844,5.616c0,2.988,2.196,4.032,7.164,4.032c3.096,0,5.364-0.396,6.156-0.648
		c1.944,0.288,2.7,1.008,2.7,1.728c0,0.936-1.332,1.188-7.956,1.188c-6.516,0-9.72-1.656-9.72-5.94c0-2.448,1.8-4.68,3.78-6.552
		L88.608,184.06z M84.864,174.951c0.9,0.252,2.412,0.324,3.564,0.324c1.836,0,5.472-0.612,7.272-1.368
		c0.612-0.252,1.368-0.792,1.62-0.792c1.368,0,2.988,0.54,2.988,1.476c0,0.756-1.26,1.008-2.664,1.332
		c-2.664,0.54-6.264,0.972-7.992,0.972c-1.584,0-3.528-0.144-4.968-1.332L84.864,174.951z"/>
	<path d="M80.328,231.543c6.228-0.432,11.88-1.908,14.868-3.564c3.492-1.908,5.364-5.22,5.364-8.676
		c0-5.256-2.952-8.388-8.172-8.388c-4.32,0-9.612,2.016-13.32,4.248c-1.548,0.864-2.052,1.8-3.276,1.8
		c-1.404,0-3.996-1.62-3.996-3.672c0-0.684,0.108-1.332,0.792-1.872l0.216,0.036c0.216,1.152,0.9,2.304,2.52,2.304
		c2.808,0,9.828-4.212,17.28-4.212c6.408,0,10.8,3.42,10.8,9.9c0,4.32-2.268,7.992-6.588,10.152c-3.528,1.764-9.504,2.7-16.308,2.88
		L80.328,231.543z"/>
	<path d="M72.372,244.899c0.288-0.432,0.792-0.612,1.26-0.612c2.016,0,4.068,1.764,4.068,3.528c0,0.504-0.324,0.972-0.54,1.44
		c-1.08,3.06-1.08,7.128-1.08,8.28c0,4.752,2.592,7.668,3.492,7.668c0.504,0,0.792-0.396,1.728-1.656
		c0.9-1.224,3.06-4.752,4.824-7.812l0.756,0.288c-1.512,3.096-3.96,7.776-4.644,9.72c-0.072,0.216-0.108,0.396-0.108,0.576
		c0,0.252,0.072,0.468,0.18,0.576c0.396,0.396,0.684,1.008,0.684,1.368c0,0.612-0.648,0.792-1.476,0.792
		c-0.684,0-2.376-0.684-3.456-1.836c-2.772-2.808-3.78-6.696-3.78-10.188c0-2.664,0.252-6.444,0.396-8.568v-0.36
		c0-1.548-0.504-2.952-2.268-3.06L72.372,244.899z M93.612,246.808c6.516,1.44,9.684,7.02,9.684,11.268
		c0,1.404-0.396,2.736-1.476,2.736c-0.612,0-1.152-0.504-1.152-1.584c-0.18-5.184-2.664-10.08-7.416-11.736L93.612,246.808z"/>
	<path d="M19.592,8.667h27.037v11.88H45.26V10.036H19.592V8.667z"/>
	<path d="M42.776,24.436l3.132,2.34c-0.252,0.288-0.864,0.576-1.584,0.72v27.792c0,0.108-0.684,0.936-2.34,0.936v-2.412H17.9v1.764
		c0,0.072-0.144,0.972-2.304,0.972V24.759l2.556,1.224h23.472L42.776,24.436z M17.9,52.948h24.084V26.847H17.9V52.948z
		 M20.204,37.936c4.14,1.044,7.452,2.232,10.08,3.456c2.844-3.42,5.4-7.452,7.344-11.916l3.384,1.584
		c-0.18,0.288-0.432,0.504-0.936,0.504c-0.144,0-0.36-0.036-0.576-0.072c-2.088,4.176-4.572,7.74-7.38,10.764
		c5.256,2.772,6.984,5.508,6.984,6.984c0,0.648-0.36,1.044-0.936,1.044c-0.216,0-0.504-0.072-0.792-0.216
		c-1.224-1.836-3.528-4.068-6.768-6.264c-3.42,3.312-7.2,5.832-11.16,7.596l-0.432-0.54c3.42-1.836,6.876-4.572,10.008-8.064
		c-2.556-1.548-5.58-3.024-9.072-4.248L20.204,37.936z M20.312,29.907c3.78,1.728,4.968,3.888,4.968,5.328
		c0,1.044-0.576,1.728-1.26,1.728c-0.324,0-0.684-0.144-1.008-0.468c-0.18-2.052-1.656-4.716-3.06-6.3L20.312,29.907z
		 M27.008,28.503c3.492,1.872,4.608,4.068,4.608,5.616c0,1.152-0.612,1.944-1.368,1.944c-0.324,0-0.684-0.18-1.008-0.54
		c0-2.16-1.296-5.076-2.628-6.732L27.008,28.503z"/>
	<path d="M40.868,71.631c-0.036,0.252-1.188,0.792-1.944,0.792h-0.36v-1.26H31.04v2.988h8.64l1.512-1.944l2.988,2.052
		c-0.288,0.504-0.72,0.756-1.692,0.756H31.04v3.06h10.62l1.584-1.98l3.06,2.088c-0.252,0.54-0.648,0.756-1.692,0.756h-30.78
		l-0.252-0.864h15.156v-3.06H16.388l-0.252-0.864h12.6v-2.988H17.9l-0.252-0.864h11.088v-3.132H13.544l-0.252-0.864h15.444v-3.024
		h-10.62l-0.252-0.864h10.872v-3.204l3.996,0.324c-0.036,0.612-0.468,0.828-1.692,1.008v1.872h7.164l1.08-1.44l3.096,2.196
		c-0.252,0.288-0.828,0.576-1.512,0.72v2.412h1.404l1.512-1.944l2.916,2.052c-0.324,0.504-0.684,0.756-1.728,0.756h-4.104V71.631z
		 M38.384,81.675l1.08-1.44l3.168,2.232c-0.252,0.288-0.828,0.612-1.548,0.756v8.388c0,0.036-0.756,0.72-2.34,0.72v-1.764H21.14
		v1.188c0,0.072-0.36,0.828-2.304,0.828V80.559l2.556,1.116H38.384z M38.744,82.539H21.14v3.06h17.604V82.539z M21.14,89.703h17.604
		v-3.24H21.14V89.703z M31.04,63.279v3.024h7.524v-3.024H31.04z M31.04,70.299h7.524v-3.132H31.04V70.299z"/>
	<path d="M26.18,117.027c-0.072,0.108-1.008,0.504-1.8,0.504h-0.432v-1.656h-6.156v7.488c1.62-0.36,3.456-0.756,5.328-1.224
		c-0.756-1.26-1.692-2.484-2.592-3.348l0.36-0.288c4.5,2.016,5.904,4.464,5.904,6.048c0,0.972-0.54,1.584-1.188,1.584
		c-0.324,0-0.684-0.144-1.008-0.468c-0.144-0.864-0.54-1.872-1.08-2.844c-1.944,0.936-4.572,2.232-7.92,3.708
		c-0.144,0.468-0.432,0.756-0.792,0.9l-1.512-3.132l2.304-0.432v-18.216c-0.648,0.72-1.332,1.404-2.016,1.98l-0.504-0.324
		c2.556-2.988,4.932-8.28,5.904-11.988l3.852,0.396c-0.072,0.396-0.432,0.612-1.296,0.72c4.86,1.62,6.336,3.744,6.336,5.148
		c0,0.864-0.576,1.44-1.26,1.44c-0.288,0-0.612-0.108-0.9-0.36c-0.54-1.728-2.088-3.996-4.392-5.796
		c-1.116,2.484-2.88,5.436-4.968,7.92l1.62,0.792h1.764v-4.068l3.456,0.288c-0.072,0.396-0.36,0.612-1.26,0.756v3.024h2.16
		l0.864-1.296l2.556,2.124c-0.252,0.252-0.756,0.504-1.332,0.612V117.027z M23.948,106.443h-6.156v3.852h6.156V106.443z
		 M17.792,115.011h6.156v-3.852h-6.156V115.011z M44.288,98.847l2.736,2.664c-0.288,0.252-0.684,0.324-1.368,0.36
		c-0.756,0.864-2.124,2.304-2.952,3.06l-0.504-0.252c0.216-0.792,0.576-2.304,0.828-3.42H30.896c0,1.764-0.792,3.852-2.628,3.852
		c-0.54,0-1.116-0.252-1.116-0.936c0-0.504,0.396-1.044,0.936-1.404c0.9-0.612,1.872-2.304,1.872-3.852l0.648,0.036
		c0.144,0.504,0.216,0.972,0.252,1.44h4.752v-5.184l3.78,0.324c-0.036,0.54-0.36,0.756-1.44,0.9v3.96h4.86L44.288,98.847z
		 M41.66,117.207l1.008-1.368l2.916,2.088c-0.18,0.252-0.756,0.54-1.368,0.648v8.46c0,0.108-0.684,0.828-2.232,0.828v-2.268h-9.612
		v2.088c0,0.036-0.216,0.864-2.232,0.864v-24.012l2.412,1.152h8.136l1.044-1.332l2.952,2.088c-0.216,0.252-0.756,0.54-1.44,0.648
		v7.02c0,0.072-0.648,0.72-2.232,0.72v-1.8h-8.64v4.176H41.66z M41.012,106.551h-8.64v5.616h8.64V106.551z M32.372,124.731h9.612
		v-6.66h-9.612V124.731z"/>
	<path d="M40.328,143.091H13.292v-11.88h1.368v10.512h25.668V143.091z"/>
	<path d="M23.516,184.923c-1.836,3.996-3.636,8.352-3.672,9.612c0,0.504,0.396,1.296,0.396,2.268c0,0.936-0.432,1.332-0.864,1.332
		c-1.62,0-3.42-3.024-3.42-9.396c0-5.364,1.404-9.936,1.98-13.212c0.108-0.576,0.18-1.116,0.18-1.656
		c0-0.216-0.036-0.468-0.036-0.684c0-1.224-1.08-2.376-1.872-2.484l-0.036-0.252c0.324-0.36,0.864-0.432,1.332-0.432
		c2.196,0,3.708,2.232,3.708,3.528c0,1.008-0.504,1.548-0.72,2.052c-1.296,3.204-2.664,7.632-2.664,12.312
		c0,2.196,0.216,3.528,0.468,4.14l0.324-0.108c0.612-0.936,2.916-5.04,4.14-7.38L23.516,184.923z M30.608,184.06
		c-1.62,1.764-2.844,3.708-2.844,5.616c0,2.988,2.196,4.032,7.164,4.032c3.096,0,5.364-0.396,6.156-0.648
		c1.944,0.288,2.7,1.008,2.7,1.728c0,0.936-1.332,1.188-7.956,1.188c-6.516,0-9.72-1.656-9.72-5.94c0-2.448,1.8-4.68,3.78-6.552
		L30.608,184.06z M26.864,174.951c0.9,0.252,2.412,0.324,3.564,0.324c1.836,0,5.472-0.612,7.272-1.368
		c0.612-0.252,1.368-0.792,1.62-0.792c1.368,0,2.988,0.54,2.988,1.476c0,0.756-1.26,1.008-2.664,1.332
		c-2.664,0.54-6.264,0.972-7.992,0.972c-1.584,0-3.528-0.144-4.968-1.332L26.864,174.951z"/>
	<path d="M22.328,231.543c6.228-0.432,11.88-1.908,14.868-3.564c3.492-1.908,5.364-5.22,5.364-8.676
		c0-5.256-2.952-8.388-8.172-8.388c-4.32,0-9.612,2.016-13.32,4.248c-1.548,0.864-2.052,1.8-3.276,1.8
		c-1.404,0-3.996-1.62-3.996-3.672c0-0.684,0.108-1.332,0.792-1.872l0.216,0.036c0.216,1.152,0.9,2.304,2.52,2.304
		c2.808,0,9.828-4.212,17.28-4.212c6.408,0,10.8,3.42,10.8,9.9c0,4.32-2.268,7.992-6.588,10.152c-3.528,1.764-9.504,2.7-16.308,2.88
		L22.328,231.543z"/>
	<path d="M14.372,244.899c0.288-0.432,0.792-0.612,1.26-0.612c2.016,0,4.068,1.764,4.068,3.528c0,0.504-0.324,0.972-0.54,1.44
		c-1.08,3.06-1.08,7.128-1.08,8.28c0,4.752,2.592,7.668,3.492,7.668c0.504,0,0.792-0.396,1.728-1.656
		c0.9-1.224,3.06-4.752,4.824-7.812l0.756,0.288c-1.512,3.096-3.96,7.776-4.644,9.72c-0.072,0.216-0.108,0.396-0.108,0.576
		c0,0.252,0.072,0.468,0.18,0.576c0.396,0.396,0.684,1.008,0.684,1.368c0,0.612-0.648,0.792-1.476,0.792
		c-0.684,0-2.376-0.684-3.456-1.836c-2.772-2.808-3.78-6.696-3.78-10.188c0-2.664,0.252-6.444,0.396-8.568v-0.36
		c0-1.548-0.504-2.952-2.268-3.06L14.372,244.899z M35.612,246.808c6.516,1.44,9.684,7.02,9.684,11.268
		c0,1.404-0.396,2.736-1.476,2.736c-0.612,0-1.152-0.504-1.152-1.584c-0.18-5.184-2.664-10.08-7.416-11.736L35.612,246.808z"/>
</g>
<g>
	<path fill="#00A0E9" d="M151.543,121.354c-1.04,0.864-1.521,1.6-1.521,2.352c0,0.736,0.465,1.264,1.36,1.568
		c0.608,0.208,1.664,0.32,2.928,0.32c2,0,3.904-0.24,4.8-0.608l0.145,1.312c-0.208,0.016-0.272,0.032-0.545,0.08
		c-1.391,0.24-2.911,0.368-4.319,0.368c-1.536,0-2.896-0.192-3.68-0.496c-1.2-0.496-1.824-1.312-1.824-2.416
		c0-1.04,0.608-2.048,1.84-3.088L151.543,121.354z M149.862,115.514c1.168,0.272,2.433,0.384,4.256,0.384
		c1.873,0,3.168-0.112,4.049-0.336l0.08,1.056c-0.992,0.416-2.465,1.296-4.032,2.432l-0.815-0.656
		c1.023-0.688,1.407-0.928,2.127-1.328c0.176-0.096,0.209-0.112,0.4-0.208c0.111-0.064,0.145-0.064,0.304-0.16
		c-0.96,0.16-1.504,0.208-2.415,0.208c-1.121,0-2.48-0.08-3.521-0.208c-0.288-0.032-0.32-0.048-0.528-0.048L149.862,115.514z"/>
	<path fill="#00A0E9" d="M151.543,137.354c-1.04,0.864-1.521,1.6-1.521,2.352c0,0.736,0.465,1.264,1.36,1.568
		c0.608,0.208,1.664,0.32,2.928,0.32c2,0,3.904-0.24,4.8-0.608l0.145,1.312c-0.208,0.016-0.272,0.032-0.545,0.08
		c-1.391,0.24-2.911,0.368-4.319,0.368c-1.536,0-2.896-0.192-3.68-0.496c-1.2-0.496-1.824-1.312-1.824-2.416
		c0-1.04,0.608-2.048,1.84-3.088L151.543,137.354z M149.862,131.514c1.168,0.272,2.433,0.384,4.256,0.384
		c1.873,0,3.168-0.112,4.049-0.336l0.08,1.056c-0.992,0.416-2.465,1.296-4.032,2.432l-0.815-0.656
		c1.023-0.688,1.407-0.928,2.127-1.328c0.176-0.096,0.209-0.112,0.4-0.208c0.111-0.064,0.145-0.064,0.304-0.16
		c-0.96,0.16-1.504,0.208-2.415,0.208c-1.121,0-2.48-0.08-3.521-0.208c-0.288-0.032-0.32-0.048-0.528-0.048L149.862,131.514z"/>
	<path fill="#00A0E9" d="M151.815,148.25c0.527-1.12,0.719-1.68,0.768-2.192l1.279,0.224c-0.144,0.208-0.144,0.208-0.416,0.864
		c-0.207,0.512-0.416,0.944-0.496,1.088c0.192-0.016,0.192-0.016,0.336-0.016c2.561-0.128,4.16-0.32,5.041-0.608l0.096,1.088
		c-0.256,0.016-0.352,0.032-0.641,0.08c-1.664,0.224-3.344,0.352-5.279,0.416c-0.48,0.944-0.881,1.584-1.439,2.272
		c-0.16,0.192-0.48,0.56-0.545,0.608c-0.111,0.08-0.191,0.144-0.208,0.16c0,0.016-0.016,0.016-0.016,0.016c0,0.016,0,0.016,0,0.016
		c0.016,0.032,0.016,0.032,0.032,0.048c0.576-0.448,0.576-0.448,0.736-0.56c0.735-0.512,1.584-0.784,2.415-0.784
		c1.185,0,1.904,0.592,2.112,1.776c1.168-0.464,2.08-0.8,2.783-1.056c0.785-0.272,0.832-0.288,1.089-0.464l0.512,1.12
		c-0.832,0.144-2.272,0.624-4.272,1.408c0.033,0.416,0.033,0.576,0.033,0.976c0,0.208,0,0.56-0.017,0.88
		c-0.017,0.352-0.017,0.576-0.017,0.72c0,0.224,0,0.352,0.033,0.576l-1.089,0.016c0.048-0.352,0.097-1.328,0.097-2.304
		c0-0.256,0-0.288-0.017-0.48c-2.176,1.024-3.008,1.776-3.008,2.736c0,1.056,0.992,1.52,3.248,1.52c1.584,0,3.36-0.256,4.272-0.624
		l0.144,1.232c-0.24,0.016-0.32,0.032-0.64,0.08c-1.265,0.208-2.656,0.32-3.889,0.32c-2.863,0-4.256-0.816-4.256-2.464
		c0-0.88,0.544-1.712,1.633-2.528c0.543-0.4,1.312-0.816,2.383-1.28c-0.127-0.88-0.512-1.264-1.264-1.264
		c-1.008,0-2.271,0.592-3.568,1.696c-0.623,0.528-0.976,0.896-1.231,1.328l-0.896-0.896c1.104-0.848,2.432-2.528,3.584-4.576
		c0.047-0.08,0.047-0.08,0.144-0.24c-0.063,0.016-0.224,0.032-0.304,0.032c-0.256,0-1.76-0.032-2.353-0.048
		c-0.079,0-0.208,0-0.256,0c-0.144,0-0.176,0-0.353,0.016l0.017-1.104c0.576,0.112,1.792,0.176,3.424,0.176H151.815z"/>
	<path fill="#00A0E9" d="M160.87,174.282c-0.56-0.08-1.151-0.112-2.127-0.112h-9.488c-0.96,0-1.553,0.032-2.128,0.112v-1.312
		c0.575,0.08,1.04,0.112,2.112,0.112h9.504c1.071,0,1.52-0.016,2.127-0.112V174.282z M148.567,163.594
		c0.56,0.08,1.184,0.112,2.063,0.112h6.575c1.072,0,1.537-0.016,2.097-0.096v1.28c-0.624-0.08-1.072-0.096-2.097-0.096h-6.575
		c-0.929,0-1.536,0.032-2.063,0.096V163.594z"/>
	<path fill="#00A0E9" d="M152.823,178.202c-0.145,0.192-0.209,0.32-0.449,0.816c-1.231,2.48-2.783,4.336-5.039,6
		c-0.208-0.32-0.416-0.56-0.784-0.864c1.937-1.296,3.312-2.768,4.384-4.688c0.4-0.704,0.608-1.2,0.688-1.68L152.823,178.202z
		 M151.271,184.426c-0.607,0-1.152,0.032-1.648,0.096v-1.136c0.465,0.064,1.009,0.096,1.664,0.096h5.265
		c0.735,0,1.216-0.016,1.68-0.08c-0.048,0.288-0.048,0.416-0.063,1.136c0,3.104-0.305,5.808-0.721,6.56
		c-0.271,0.48-0.656,0.64-1.584,0.64c-0.527,0-1.088-0.032-2.096-0.128c-0.048-0.432-0.096-0.672-0.256-1.136
		c0.88,0.176,1.68,0.272,2.256,0.272c0.512,0,0.688-0.096,0.801-0.4c0.336-0.976,0.527-3.152,0.527-5.92h-3.729
		c-0.144,1.76-0.512,2.96-1.248,4.208c-0.832,1.392-2.08,2.48-4.031,3.488c-0.208-0.368-0.368-0.576-0.704-0.896
		c2.048-0.992,3.265-2.048,4.032-3.504c0.527-1.008,0.752-1.888,0.863-3.296H151.271z M156.247,177.818
		c0.127,0.416,0.271,0.736,0.607,1.344c1.168,2.096,2.528,3.536,4.721,4.976c-0.305,0.288-0.513,0.56-0.752,0.976
		c-2.528-1.872-3.889-3.488-5.393-6.432c-0.08-0.144-0.176-0.32-0.256-0.448L156.247,177.818z"/>
	<path fill="#00A0E9" d="M146.807,196.394c0.368,0.064,0.673,0.08,1.28,0.08h2.896c0.655,0,0.928-0.016,1.279-0.08v1.04
		c-0.336-0.048-0.592-0.064-1.168-0.064h-3.008c-0.561,0-0.848,0.016-1.28,0.064V196.394z M147.351,194.17
		c0.385,0.064,0.656,0.08,1.217,0.08h2.256c0.543,0,0.832-0.016,1.215-0.08v1.008c-0.399-0.048-0.719-0.064-1.215-0.064h-2.256
		c-0.496,0-0.832,0.016-1.217,0.064V194.17z M147.479,198.682c0.336,0.048,0.607,0.064,1.151,0.064h2.288
		c0.544,0,0.8-0.016,1.136-0.064v0.976c-0.368-0.048-0.592-0.064-1.136-0.064h-2.288c-0.544,0-0.784,0.016-1.151,0.064V198.682z
		 M147.479,200.874c0.336,0.048,0.592,0.064,1.151,0.064h2.288c0.56,0,0.816-0.016,1.136-0.064v0.976
		c-0.433-0.048-0.624-0.064-1.136-0.064h-2.288c-0.528,0-0.784,0.016-1.151,0.064V200.874z M147.495,208.169
		c0.063-0.448,0.096-0.912,0.096-1.552v-2.16c0-0.56-0.016-0.928-0.08-1.344c0.416,0.048,0.816,0.064,1.28,0.064h2.096
		c0.688,0,0.864,0,1.151-0.048c-0.031,0.336-0.047,0.688-0.047,1.264v2.256c0,0.496,0.016,0.848,0.08,1.312h-0.977v-0.656h-2.576
		v0.864H147.495z M148.519,206.474h2.576v-2.464h-2.576V206.474z M156.295,195.002c0-0.512-0.032-0.88-0.097-1.296h1.152
		c-0.064,0.4-0.096,0.784-0.096,1.328v1.184h2.512c0.721,0,1.152-0.032,1.6-0.096v1.104c-0.447-0.064-0.959-0.096-1.584-0.096
		h-2.527v2.464h2.224c0.688,0,1.152-0.032,1.601-0.096v1.088c-0.448-0.064-0.928-0.096-1.584-0.096h-5.057
		c-0.656,0-1.088,0.032-1.584,0.096v-1.088c0.432,0.064,0.881,0.096,1.584,0.096h1.856v-2.464h-2.032
		c-0.704,0-1.168,0.032-1.615,0.096v-1.104c0.432,0.064,0.879,0.096,1.615,0.096h2.032V195.002z M154.534,208.089h-1.088
		c0.064-0.4,0.08-0.816,0.08-1.536v-2.992c0-0.656-0.016-1.04-0.063-1.456c0.399,0.048,0.735,0.064,1.216,0.064h4.32
		c0.592,0,0.912-0.016,1.279-0.064c-0.048,0.32-0.063,0.752-0.063,1.488v2.928c0,0.608,0.032,1.248,0.079,1.568h-1.088v-0.8h-4.672
		V208.089z M154.534,206.394h4.672v-3.328h-4.672V206.394z"/>
	<path fill="#00A0E9" d="M150.743,210.97c0.016,0.512,0.224,1.856,0.432,2.784c1.12-0.544,2.225-0.8,3.424-0.8
		c0.112,0,0.305,0,0.528,0.016c0.272-1.056,0.464-2.112,0.495-2.576l1.201,0.256c-0.097,0.256-0.097,0.256-0.433,1.68
		c-0.08,0.272-0.112,0.448-0.192,0.752c2.656,0.496,4.24,2.24,4.24,4.656c0,1.488-0.656,2.944-1.744,3.84
		c-0.815,0.688-1.968,1.248-3.231,1.584c-0.24,0.064-0.32,0.08-1.009,0.24c-0.127-0.416-0.207-0.544-0.623-1.072
		c0.912-0.08,1.535-0.24,2.384-0.592c1.12-0.464,1.92-1.04,2.399-1.744c0.465-0.672,0.705-1.44,0.705-2.272
		c0-1.952-1.168-3.232-3.377-3.696c-0.72,2.48-1.855,4.768-3.104,6.272c-1.023,1.248-1.92,1.824-2.848,1.824
		c-1.393,0-2.305-1.248-2.305-3.136c0-1.04,0.336-2.144,0.928-3.056c0.416-0.624,0.865-1.088,1.601-1.632
		c-0.112-0.512-0.304-1.456-0.448-2.256c-0.096-0.528-0.111-0.592-0.208-0.848L150.743,210.97z M149.366,216.698
		c-0.399,0.688-0.64,1.552-0.64,2.24c0,1.264,0.513,2.096,1.296,2.096c0.561,0,1.248-0.48,1.969-1.36
		c-0.641-1.344-1.152-2.832-1.504-4.304C149.959,215.833,149.655,216.186,149.366,216.698z M152.727,218.793
		c0.08-0.16,0.08-0.176,0.192-0.352c0.752-1.184,1.455-2.816,1.951-4.528c-0.176,0-0.319-0.016-0.399-0.016
		c-1.136,0-2.16,0.272-3.088,0.816c0.304,1.296,0.64,2.352,1.2,3.712c0.08,0.208,0.096,0.24,0.128,0.368H152.727z"/>
	<path fill="#00A0E9" d="M149.799,227.098c0.448,0.08,0.735,0.096,1.504,0.096c1.328,0,3.456-0.096,4.896-0.208
		c0.416-0.032,0.561-0.064,0.769-0.176l0.672,0.88c-0.224,0.112-0.304,0.176-0.815,0.672c-2.209,2.16-4.145,3.824-5.265,4.544
		l0.032,0.048c1.216-0.656,2.512-0.992,3.92-0.992c2.672,0,4.384,1.312,4.384,3.36c0,2.496-2.319,4.144-5.872,4.144
		c-2.256,0-3.552-0.832-3.552-2.304c0-1.072,0.992-1.872,2.319-1.872c1.072,0,2,0.464,2.641,1.312
		c0.336,0.448,0.512,0.832,0.736,1.536c1.68-0.464,2.56-1.44,2.56-2.8c0-1.536-1.28-2.448-3.44-2.448
		c-2.352,0-4.879,1.024-6.735,2.736l-0.72-1.024c0.576-0.336,1.152-0.752,2.24-1.632c1.711-1.36,4.239-3.584,5.344-4.672
		c0.096-0.096,0.096-0.096,0.224-0.224c0,0,0.032-0.032,0.063-0.064l0.064-0.064l-0.031-0.032c-0.049,0-0.049,0-0.145,0.016
		c-0.512,0.096-2.432,0.208-4.864,0.288c-0.352,0.016-0.512,0.032-0.864,0.08L149.799,227.098z M152.807,236.202
		c-0.8,0-1.296,0.384-1.296,0.992c0,0.416,0.208,0.72,0.641,0.976c0.416,0.224,1.104,0.368,1.791,0.368
		c0.4,0,0.592-0.016,1.168-0.112C154.759,236.97,153.958,236.202,152.807,236.202z"/>
</g>
<g>
	<path fill="#00A0E9" d="M292.451,10.251c0-0.688,0.017-1.152,0.048-1.92c-0.575,0.736-1.04,1.184-1.823,1.792
		c-0.192-0.4-0.368-0.656-0.624-0.912c1.248-0.848,2.271-1.856,3.231-3.152c0.368-0.496,0.608-0.944,0.769-1.376l0.991,0.56
		c-0.191,0.24-0.239,0.32-0.479,0.688c-0.336,0.544-0.624,0.912-1.072,1.44v6.464c0,0.864,0.032,1.504,0.112,1.952h-1.264
		c0.08-0.448,0.111-1.104,0.111-1.952V10.251z M294.659,1.916c-0.111,0.112-0.144,0.16-0.288,0.352
		c-0.96,1.312-2.111,2.432-3.552,3.472c-0.24-0.352-0.416-0.544-0.72-0.784c0.896-0.576,1.472-1.04,2.112-1.696
		c0.8-0.8,1.199-1.36,1.455-1.952L294.659,1.916z M296.979,7.227c-0.752,0-1.392,0.032-1.776,0.096v-1.12
		c0.385,0.064,1.008,0.096,1.776,0.096h5.616c0.815,0,1.392-0.032,1.76-0.096v1.12c-0.416-0.064-1.008-0.096-1.744-0.096h-0.912
		v7.008c0,1.024-0.384,1.296-1.792,1.296c-0.512,0-1.264-0.032-1.952-0.08c-0.048-0.448-0.111-0.736-0.256-1.104
		c0.912,0.128,1.601,0.192,2.256,0.192c0.544,0,0.672-0.064,0.672-0.384V7.227H296.979z M295.859,2.188
		c0.432,0.064,0.944,0.096,1.664,0.096h4.479c0.721,0,1.2-0.032,1.648-0.096v1.12c-0.48-0.064-1.008-0.096-1.648-0.096h-4.479
		c-0.64,0-1.184,0.032-1.664,0.096V2.188z"/>
	<path fill="#00A0E9" d="M289.955,30.139c0.784-0.048,1.92-0.272,3.504-0.688c0.656-1.504,1.072-2.736,1.232-3.728l1.008,0.288
		c-0.448,1.456-0.8,2.352-1.2,3.136c0.704-0.208,0.992-0.288,1.889-0.592l0.016,0.912c-1.904,0.64-3.712,1.168-5.536,1.6
		c-0.208,0.048-0.416,0.112-0.624,0.192L289.955,30.139z M290.147,17.947c0.448,0.08,0.848,0.096,1.632,0.096h2.816
		c0.768,0,1.151-0.016,1.6-0.096v1.072c-0.496-0.048-0.896-0.064-1.568-0.064h-2.88c-0.8,0-1.119,0.016-1.6,0.096V17.947z
		 M290.836,21.963c0-0.624-0.017-0.992-0.064-1.44c0.432,0.064,0.768,0.08,1.472,0.08h2.145c0.735,0,0.992-0.016,1.456-0.08
		c-0.048,0.496-0.064,0.752-0.064,1.408v1.872c0,0.72,0.017,1.024,0.064,1.424c-0.416-0.048-0.864-0.064-1.408-0.064h-2.208
		c-0.592,0-1.024,0.016-1.456,0.064c0.048-0.528,0.064-0.864,0.064-1.504V21.963z M292.004,29.147
		c-0.305-1.216-0.561-1.92-1.089-3.04l0.896-0.32c0.512,1.072,0.752,1.696,1.136,3.008L292.004,29.147z M291.796,24.315h3.023
		v-2.864h-3.023V24.315z M299.428,29.547c-1.2,1.152-1.937,1.664-3.376,2.384c-0.256-0.336-0.385-0.464-0.784-0.8
		c0.88-0.352,1.28-0.56,1.936-0.992c0.576-0.4,0.864-0.64,1.393-1.184L299.428,29.547z M298.403,18.971
		c-0.72,0-1.12,0.016-1.568,0.096v-1.088c0.433,0.064,0.849,0.096,1.648,0.096h4.128c0.784,0,1.216-0.032,1.616-0.096v1.088
		c-0.48-0.08-0.832-0.096-1.552-0.096h-1.841c-0.191,0.608-0.447,1.264-0.672,1.744h1.937c0.735,0,1.12-0.016,1.456-0.064
		c-0.032,0.416-0.049,0.816-0.049,1.44v5.12c0,0.592,0.017,1.024,0.049,1.504c-0.433-0.032-0.896-0.048-1.376-0.048h-3.729
		c-0.464,0-0.832,0.016-1.376,0.048c0.032-0.48,0.048-0.992,0.048-1.488v-5.072c0-0.624-0.016-1.056-0.063-1.488
		c0.399,0.032,0.752,0.048,1.408,0.048h0.72c0.288-0.672,0.496-1.232,0.624-1.744H298.403z M298.067,23.067h4.496v-1.504h-4.496
		V23.067z M298.067,25.387h4.496v-1.504h-4.496V25.387z M298.067,27.803h4.496v-1.6h-4.496V27.803z M301.636,28.923
		c1.008,1.024,1.712,1.52,3.184,2.256c-0.256,0.224-0.464,0.448-0.768,0.848c-1.456-0.88-2.225-1.488-3.217-2.528L301.636,28.923z"
		/>
</g>
<g>
	<line stroke="#898989" stroke-width="6" x1="160.717" y1="92.917" x2="135.545" y2="92.917"/>
	<polygon fill="#898989" stroke="#898989" stroke-width="2" points="143.971,81.807 139.254,92.917 143.971,104.028 117.639,92.917 
			"/>
</g>
</svg>
