<?xml version="1.0" encoding="utf-8"?>
<!-- Generator: Adobe Illustrator 12.0.0, SVG Export Plug-In . SVG Version: 6.00 Build 51448)  -->
<!DOCTYPE svg PUBLIC "-//W3C//DTD SVG 1.1//EN" "http://www.w3.org/Graphics/SVG/1.1/DTD/svg11.dtd" [
	<!ENTITY ns_svg "http://www.w3.org/2000/svg">
	<!ENTITY ns_xlink "http://www.w3.org/1999/xlink">
]>
<svg  version="1.1" id="レイヤー_1" xmlns="&ns_svg;" xmlns:xlink="&ns_xlink;" width="63.375"
	 viewBox="0 0 42.25 104.772" overflow="visible" enable-background="new 0 0 42.25 104.772" xml:space="preserve">
<g>
	<path d="M5.123,1.671c0.168,0.252,0.28,0.371,0.483,0.504C5.851,2.33,6.061,2.407,6.425,2.477C6.621,1.503,6.642,1.398,6.642,1.23
		c0-0.238-0.098-0.385-0.378-0.581C6.32,0.628,6.341,0.622,6.383,0.622c0.126,0,0.309,0.077,0.519,0.217
		c0.224,0.154,0.363,0.35,0.363,0.504c0,0.063-0.021,0.119-0.091,0.203C7.055,1.713,6.978,1.902,6.789,2.519
		c0.146,0.042,0.21,0.077,0.28,0.154c0.056,0.063,0.098,0.161,0.098,0.231c0,0.091-0.084,0.147-0.224,0.147
		c-0.07,0-0.161-0.014-0.273-0.035C6.53,3.484,6.446,3.897,6.39,4.311c0.168,0.035,0.287,0.049,0.357,0.049
		c0.021,0,0.035,0,0.056-0.007c0.042-0.007,0.07-0.007,0.077-0.007c0.182,0,0.42,0.217,0.42,0.378c0,0.098-0.091,0.161-0.238,0.161
		c-0.195,0-0.489-0.049-0.741-0.126C6.306,4.926,6.299,5.011,6.299,5.102c0,0.714,0.399,1.113,1.106,1.113
		c0.476,0,0.889-0.182,1.105-0.476c0.154-0.21,0.231-0.448,0.231-0.714c0-0.581-0.393-1.239-1.058-1.75l0.077-0.091
		C8.798,3.82,9.239,4.401,9.239,5.116c0,0.847-0.729,1.491-1.701,1.491c-0.364,0-0.714-0.105-0.952-0.287
		C6.222,6.046,6.047,5.626,6.047,5.018c0-0.084,0.007-0.175,0.014-0.35c-0.272-0.126-0.412-0.21-0.56-0.357
		C5.312,4.114,5.193,3.855,5.193,3.618c0-0.161,0.076-0.336,0.217-0.483c0.168-0.168,0.343-0.266,0.679-0.371
		C5.809,2.659,5.613,2.533,5.41,2.33C5.263,2.175,5.179,2.036,5.046,1.713L5.123,1.671z M5.536,3.232
		C5.431,3.345,5.382,3.45,5.382,3.583c0,0.294,0.238,0.511,0.721,0.658c0.035-0.35,0.099-0.749,0.21-1.274
		C5.907,2.987,5.704,3.064,5.536,3.232z"/>
	<path d="M17.093,3.918c-0.146,0.637-0.364,1.127-0.686,1.561c-0.386,0.518-0.917,0.833-1.4,0.833c-0.217,0-0.448-0.077-0.602-0.203
		c-0.196-0.161-0.26-0.371-0.309-0.945c-0.042-0.448-0.069-0.616-0.126-0.756c-0.077-0.224-0.245-0.336-0.476-0.336
		c-0.603,0-1.232,0.7-1.631,1.813c-0.126,0.357-0.147,0.392-0.252,0.392c-0.07,0-0.141-0.07-0.189-0.189
		c-0.049-0.133-0.091-0.301-0.091-0.385s0.021-0.133,0.098-0.238c0.287-0.392,0.735-1.19,1.4-2.506
		c0.44-0.861,0.644-1.365,0.644-1.575c0-0.224-0.111-0.343-0.476-0.518c0.077-0.042,0.133-0.063,0.196-0.063
		c0.161,0,0.44,0.119,0.714,0.315c0.175,0.119,0.237,0.203,0.237,0.308c0,0.098-0.014,0.126-0.126,0.266
		c-0.098,0.119-0.328,0.49-0.622,0.994c-0.105,0.175-0.273,0.469-0.519,0.882c-0.287,0.483-0.356,0.602-0.567,0.98h0.015
		c0.455-0.469,0.84-0.686,1.211-0.686c0.35,0,0.63,0.168,0.791,0.469c0.098,0.189,0.119,0.294,0.224,0.945
		c0.063,0.378,0.21,0.546,0.477,0.546c0.699,0,1.512-0.805,1.953-1.932L17.093,3.918z"/>
	<path fill="#ED6E46" d="M23.498,5.053c-0.672,0.91-1.589,1.449-2.457,1.449c-0.532,0-0.945-0.217-1.162-0.595
		c-0.14-0.245-0.196-0.588-0.196-1.183c0-0.385,0.021-1.05,0.057-1.687c0.042-0.756,0.049-0.952,0.049-1.204
		c0-0.602-0.07-0.721-0.567-0.931c0.077-0.056,0.119-0.07,0.196-0.07c0.161,0,0.413,0.063,0.63,0.161
		c0.266,0.126,0.406,0.266,0.406,0.413c0,0.049-0.007,0.091-0.063,0.252c-0.133,0.42-0.363,2.541-0.363,3.36
		c0,0.427,0.084,0.679,0.279,0.84c0.154,0.119,0.378,0.189,0.623,0.189c0.477,0,1.064-0.168,1.597-0.448
		c0.321-0.168,0.524-0.315,0.889-0.623L23.498,5.053z"/>
	<path fill="#ED6E46" d="M27.53,0.838c0.168,0,0.356,0.028,0.56,0.084c0.238,0.063,0.351,0.161,0.351,0.301
		c0,0.056,0,0.056-0.057,0.196c-0.077,0.217-0.14,0.651-0.14,1.008c0,0.028,0,0.077,0,0.133c0.07,0.063,0.104,0.077,0.188,0.077
		c0.267,0,0.806-0.21,1.064-0.413c0.077-0.056,0.112-0.077,0.154-0.077c0.063,0,0.202,0.042,0.301,0.091
		c0.112,0.063,0.146,0.105,0.146,0.168c0,0.105-0.091,0.161-0.413,0.28c-0.378,0.14-0.714,0.217-0.973,0.217
		c-0.203,0-0.314-0.042-0.469-0.175c0,0.133,0,0.245,0,0.308c0,0.553,0.035,1.372,0.077,1.827c0.546,0.091,1.063,0.273,1.477,0.511
		c0.301,0.168,0.435,0.357,0.435,0.602c0,0.168-0.05,0.266-0.141,0.266c-0.049,0-0.091-0.028-0.168-0.091
		C29.329,5.647,29,5.458,28.349,5.263c0.015,0.329,0.015,0.329,0.015,0.455c0,0.343-0.161,0.567-0.497,0.693
		c-0.168,0.063-0.462,0.105-0.714,0.105c-0.735,0-1.197-0.294-1.197-0.763c0-0.336,0.238-0.602,0.679-0.77
		c0.273-0.105,0.651-0.168,1.016-0.168c0.056,0,0.146,0,0.266,0.007c-0.042-2.814-0.042-2.814-0.098-3.283
		c-0.05-0.406-0.154-0.518-0.609-0.595C27.32,0.859,27.376,0.838,27.53,0.838z M27.376,5.144c-0.721,0-1.239,0.245-1.239,0.595
		c0,0.28,0.287,0.441,0.784,0.441c0.406,0,0.742-0.112,0.875-0.287c0.091-0.112,0.112-0.259,0.112-0.735
		C27.684,5.144,27.6,5.144,27.376,5.144z"/>
	<path fill="#ED6E46" d="M34.656,6.789c0.413-0.336,0.686-0.623,0.924-1.008c0.364-0.595,0.595-1.407,0.595-2.128
		c0-0.693-0.252-1.12-0.665-1.12c-0.371,0-0.86,0.301-1.344,0.826c-0.133,0.133-0.175,0.161-0.287,0.161
		c-0.146,0-0.314-0.112-0.462-0.315c-0.119-0.161-0.189-0.343-0.189-0.469c0-0.091,0.028-0.154,0.112-0.259
		c0.063,0.308,0.203,0.483,0.385,0.483c0.099,0,0.28-0.077,0.645-0.273c0.595-0.322,0.826-0.399,1.183-0.399
		c0.322,0,0.665,0.182,0.868,0.469c0.168,0.245,0.266,0.609,0.266,1.029c0,0.826-0.314,1.645-0.867,2.261
		c-0.344,0.378-0.7,0.644-1.1,0.819L34.656,6.789z M34.271,0.425c0.344,0.287,0.819,0.448,1.31,0.448h0.161
		c0.14,0,0.237,0.049,0.378,0.168c0.098,0.084,0.146,0.168,0.146,0.238c0,0.098-0.098,0.154-0.287,0.154
		C35.685,1.44,35.685,1.44,34.236,1.86l-0.035-0.098c0.524-0.238,1.008-0.455,1.183-0.518c-0.574-0.119-0.917-0.336-1.183-0.763
		L34.271,0.425z"/>
	<path d="M6.456,19.878c0.28-0.84,0.406-1.372,0.658-2.758c0.126-0.658,0.168-1.078,0.225-1.82c1.147,0.28,1.315,0.336,1.315,0.476
		c0,0.126-0.14,0.196-0.49,0.252c-0.237,0.868-0.392,1.358-0.615,2.058c-0.309,0.896-0.462,1.218-0.91,1.89L6.456,19.878z
		 M7.996,10.695c0.49,0.364,0.645,0.56,0.645,0.84c0,0.364-0.238,0.826-0.435,0.826c-0.098,0-0.168-0.084-0.252-0.294
		c-0.21-0.532-0.84-1.498-1.386-2.086l0.07-0.182c0.462,0.252,0.588,0.336,1.078,0.686c0.672-1.232,0.966-1.988,1.092-2.744
		c1.246,0.364,1.498,0.462,1.498,0.588s-0.168,0.182-0.658,0.21c-0.56,0.798-0.574,0.826-1.722,2.1L7.996,10.695z M8.879,14.265
		c-0.631,0.14-0.925,0.196-1.666,0.308c-0.07,0.336-0.141,0.476-0.252,0.476c-0.126,0-0.168-0.182-0.322-1.274
		c0.322,0.014,0.476,0.014,0.616,0.014c0.195,0,0.42-0.014,0.657-0.028c0.49-0.63,0.7-0.952,1.177-1.792
		c0.77-1.344,1.092-1.974,1.33-2.688c1.483,0.532,1.483,0.532,1.483,0.658c0,0.14-0.14,0.168-0.714,0.182
		c-0.756,1.148-1.54,2.156-2.842,3.626c1.428-0.084,1.792-0.112,2.45-0.196c-0.141-0.364-0.267-0.616-0.616-1.302l0.182-0.084
		c0.435,0.392,0.546,0.518,1.022,1.064c0.405,0.476,0.531,0.7,0.531,0.924c0,0.154-0.126,0.49-0.266,0.672
		c-0.098,0.126-0.196,0.196-0.308,0.196c-0.112,0-0.154-0.07-0.238-0.476c-0.056-0.238-0.098-0.42-0.21-0.742
		c-0.448,0.112-0.462,0.126-1.12,0.28v3.234c0,1.694,0,1.694,0.014,3.024c0,0.112-0.027,0.154-0.126,0.196
		c-0.084,0.028-0.378,0.056-0.63,0.056c-0.153,0-0.21-0.042-0.21-0.168c0.028-0.686,0.028-0.686,0.057-3.038V14.265z M17.53,10.947
		c-0.224,1.652-0.364,2.31-0.686,3.248c-0.322,0.98-0.742,1.792-1.316,2.562c1.162,1.148,2.143,1.708,3.99,2.31l-0.042,0.182
		c-0.519,0.112-0.672,0.266-0.924,0.938c-0.994-0.504-1.4-0.784-2.198-1.456c-0.588-0.49-0.994-0.868-1.372-1.316
		c-0.532,0.588-1.078,1.092-1.68,1.526c-0.784,0.574-1.414,0.896-3.066,1.54l-0.07-0.196c1.61-0.924,2.198-1.33,2.969-2.03
		c0.504-0.462,0.924-0.91,1.372-1.484c-0.63-0.938-1.106-2.072-1.372-3.234c-0.168-0.742-0.196-0.994-0.322-2.59h-0.434
		c-0.435,0-0.658,0.014-1.106,0.098l-0.084-0.546c0.392,0.098,0.63,0.126,1.134,0.126h2.072V9.379c0-0.602-0.014-0.91-0.07-1.554
		c0.336,0.056,0.588,0.098,0.742,0.112c0.784,0.098,0.924,0.14,0.924,0.28c0,0.126-0.182,0.224-0.616,0.336v2.072h1.807
		c0.406-0.462,0.532-0.588,0.924-1.008c0.574,0.462,0.742,0.616,1.274,1.106c0.027,0.056,0.056,0.098,0.056,0.14
		c0,0.056-0.07,0.084-0.196,0.084H17.53z M10.545,15.301c0.336,0.434,0.462,0.63,0.84,1.204c0.294,0.462,0.392,0.7,0.392,0.924
		c0,0.56-0.322,1.134-0.63,1.134c-0.126,0-0.168-0.084-0.21-0.49c-0.098-0.924-0.224-1.512-0.588-2.772H10.545z M13.106,10.947
		c0.084,1.064,0.182,1.61,0.476,2.52c0.336,1.12,0.771,1.932,1.372,2.674c0.49-0.784,0.826-1.512,1.12-2.506
		s0.393-1.526,0.448-2.688H13.106z"/>
	<path fill="#ED6E46" d="M30.746,17.863h3.92c0.351-0.462,0.463-0.602,0.813-1.036c0.56,0.49,0.728,0.63,1.246,1.134
		c0.042,0.056,0.056,0.098,0.056,0.126c0,0.042-0.056,0.098-0.112,0.098h-5.922v0.364l0.028,1.722c0,0.014,0,0.07,0,0.154
		c-0.028,0.238-0.154,0.28-0.896,0.28c-0.141,0-0.183-0.028-0.196-0.14l0.042-2.016v-0.364h-4.578c-0.322,0-0.714,0.042-0.966,0.098
		l-0.141-0.546c0.309,0.07,0.784,0.126,1.106,0.126h4.578v-1.316H27.19v0.448c-0.028,0.14-0.112,0.182-0.448,0.182
		c-0.027,0-0.056,0-0.084,0c-0.027,0-0.042,0-0.056,0c-0.042,0-0.084,0-0.196,0c-0.182,0-0.266-0.042-0.266-0.154
		c0,0,0-0.014,0-0.028c0.084-1.12,0.098-1.652,0.098-2.87c0-1.148,0-1.274-0.042-1.75c0.477,0.21,0.616,0.294,1.078,0.56h6.076
		c0.196-0.252,0.266-0.336,0.518-0.546c0.42,0.266,0.546,0.35,0.924,0.672c0.057,0.042,0.084,0.084,0.084,0.112
		c0,0.098-0.084,0.168-0.518,0.378l0.014,3.36c0,0.014,0,0.028,0,0.028c0,0.084-0.14,0.126-0.462,0.14
		c-0.126,0-0.224,0.014-0.252,0.014c-0.014,0-0.027,0-0.042,0c-0.153,0-0.21-0.042-0.21-0.182v-0.364h-2.66V17.863z M33.994,9.099
		c0.322-0.434,0.435-0.56,0.813-0.98c0.532,0.434,0.686,0.588,1.204,1.078c0.027,0.042,0.056,0.07,0.056,0.098
		c0,0.056-0.07,0.126-0.154,0.126h-3.458c0.364,0.154,0.49,0.21,0.645,0.294c0.182,0.098,0.308,0.154,0.322,0.168
		c0.126,0.056,0.168,0.098,0.168,0.154c0,0.126-0.084,0.168-0.561,0.21l-1.231,1.316h2.813l0.784-0.952
		c0.546,0.434,0.7,0.574,1.204,1.036c0.042,0.042,0.056,0.084,0.056,0.112c0,0.07-0.07,0.126-0.126,0.126H25.146
		c-0.196,0-0.224,0-0.504,0.042c-0.168,0.028-0.168,0.028-0.35,0.042l-0.112-0.518c0.238,0.056,0.77,0.112,0.966,0.112h3.108
		c-0.126-0.112-0.141-0.14-0.406-0.924c-0.099-0.294-0.252-0.616-0.546-1.106l0.126-0.112h-1.708c-0.225,0-0.435,0.014-0.868,0.084
		L24.727,9c0.238,0.042,0.784,0.098,0.994,0.098h4.032V8.385c0-0.098-0.042-0.476-0.07-0.672c1.021,0.056,1.638,0.182,1.638,0.35
		c0,0.098-0.14,0.182-0.588,0.322v0.714H33.994z M33.406,13.257H27.19v1.26h6.216V13.257z M27.19,14.839v1.386h6.216v-1.386H27.19z
		 M27.54,9.421c0.238,0.168,0.841,0.672,0.994,0.812c0.154,0.154,0.309,0.42,0.309,0.546s-0.07,0.322-0.168,0.518
		c-0.07,0.126-0.126,0.182-0.28,0.266h2.996c0.322-0.49,0.756-1.582,0.868-2.142H27.54z"/>
</g>
<g>
	<path d="M5.123,27.921c0.168,0.252,0.28,0.371,0.483,0.504c0.244,0.154,0.454,0.231,0.818,0.301
		c0.196-0.973,0.217-1.078,0.217-1.246c0-0.238-0.098-0.385-0.378-0.581c0.057-0.021,0.077-0.028,0.119-0.028
		c0.126,0,0.309,0.077,0.519,0.217c0.224,0.154,0.363,0.35,0.363,0.504c0,0.063-0.021,0.119-0.091,0.203
		c-0.119,0.168-0.196,0.357-0.385,0.973c0.146,0.042,0.21,0.077,0.28,0.154c0.056,0.063,0.098,0.161,0.098,0.231
		c0,0.091-0.084,0.147-0.224,0.147c-0.07,0-0.161-0.014-0.273-0.035c-0.14,0.469-0.224,0.882-0.28,1.295
		c0.168,0.035,0.287,0.049,0.357,0.049c0.021,0,0.035,0,0.056-0.007c0.042-0.007,0.07-0.007,0.077-0.007
		c0.182,0,0.42,0.217,0.42,0.378c0,0.098-0.091,0.161-0.238,0.161c-0.195,0-0.489-0.049-0.741-0.126
		c-0.015,0.168-0.021,0.252-0.021,0.343c0,0.714,0.399,1.113,1.106,1.113c0.476,0,0.889-0.182,1.105-0.476
		c0.154-0.21,0.231-0.448,0.231-0.714c0-0.581-0.393-1.239-1.058-1.75l0.077-0.091c1.036,0.637,1.478,1.218,1.478,1.932
		c0,0.847-0.729,1.491-1.701,1.491c-0.364,0-0.714-0.105-0.952-0.287c-0.364-0.273-0.539-0.693-0.539-1.302
		c0-0.084,0.007-0.175,0.014-0.35c-0.272-0.126-0.412-0.21-0.56-0.357c-0.189-0.196-0.308-0.455-0.308-0.693
		c0-0.161,0.076-0.336,0.217-0.483c0.168-0.168,0.343-0.266,0.679-0.371c-0.28-0.105-0.476-0.231-0.679-0.434
		c-0.147-0.154-0.231-0.294-0.364-0.616L5.123,27.921z M5.536,29.482c-0.105,0.112-0.154,0.217-0.154,0.35
		c0,0.294,0.238,0.511,0.721,0.658c0.035-0.35,0.099-0.749,0.21-1.274C5.907,29.237,5.704,29.314,5.536,29.482z"/>
	<path d="M17.093,30.168c-0.146,0.637-0.364,1.127-0.686,1.561c-0.386,0.518-0.917,0.833-1.4,0.833
		c-0.217,0-0.448-0.077-0.602-0.203c-0.196-0.161-0.26-0.371-0.309-0.945c-0.042-0.448-0.069-0.616-0.126-0.756
		c-0.077-0.224-0.245-0.336-0.476-0.336c-0.603,0-1.232,0.7-1.631,1.813c-0.126,0.357-0.147,0.392-0.252,0.392
		c-0.07,0-0.141-0.07-0.189-0.189c-0.049-0.133-0.091-0.301-0.091-0.385s0.021-0.133,0.098-0.238c0.287-0.392,0.735-1.19,1.4-2.506
		c0.44-0.861,0.644-1.365,0.644-1.575c0-0.224-0.111-0.343-0.476-0.518c0.077-0.042,0.133-0.063,0.196-0.063
		c0.161,0,0.44,0.119,0.714,0.315c0.175,0.119,0.237,0.203,0.237,0.308c0,0.098-0.014,0.126-0.126,0.266
		c-0.098,0.119-0.328,0.49-0.622,0.994c-0.105,0.175-0.273,0.469-0.519,0.882c-0.287,0.483-0.356,0.602-0.567,0.98h0.015
		c0.455-0.469,0.84-0.686,1.211-0.686c0.35,0,0.63,0.168,0.791,0.469c0.098,0.189,0.119,0.294,0.224,0.945
		c0.063,0.378,0.21,0.546,0.477,0.546c0.699,0,1.512-0.805,1.953-1.932L17.093,30.168z"/>
	<path d="M23.498,31.303c-0.672,0.91-1.589,1.449-2.457,1.449c-0.532,0-0.945-0.217-1.162-0.595
		c-0.14-0.245-0.196-0.588-0.196-1.183c0-0.385,0.021-1.05,0.057-1.687c0.042-0.756,0.049-0.952,0.049-1.204
		c0-0.602-0.07-0.721-0.567-0.931c0.077-0.056,0.119-0.07,0.196-0.07c0.161,0,0.413,0.063,0.63,0.161
		c0.266,0.126,0.406,0.266,0.406,0.413c0,0.049-0.007,0.091-0.063,0.252c-0.133,0.42-0.363,2.541-0.363,3.36
		c0,0.427,0.084,0.679,0.279,0.84c0.154,0.119,0.378,0.189,0.623,0.189c0.477,0,1.064-0.168,1.597-0.448
		c0.321-0.168,0.524-0.315,0.889-0.623L23.498,31.303z"/>
	<path d="M27.53,27.088c0.168,0,0.356,0.028,0.56,0.084c0.238,0.063,0.351,0.161,0.351,0.301c0,0.056,0,0.056-0.057,0.196
		c-0.077,0.217-0.14,0.651-0.14,1.008c0,0.028,0,0.077,0,0.133c0.07,0.063,0.104,0.077,0.188,0.077c0.267,0,0.806-0.21,1.064-0.413
		c0.077-0.056,0.112-0.077,0.154-0.077c0.063,0,0.202,0.042,0.301,0.091c0.112,0.063,0.146,0.105,0.146,0.168
		c0,0.105-0.091,0.161-0.413,0.28c-0.378,0.14-0.714,0.217-0.973,0.217c-0.203,0-0.314-0.042-0.469-0.175c0,0.133,0,0.245,0,0.308
		c0,0.553,0.035,1.372,0.077,1.827c0.546,0.091,1.063,0.273,1.477,0.511c0.301,0.168,0.435,0.357,0.435,0.602
		c0,0.168-0.05,0.266-0.141,0.266c-0.049,0-0.091-0.028-0.168-0.091c-0.595-0.504-0.924-0.693-1.575-0.889
		c0.015,0.329,0.015,0.329,0.015,0.455c0,0.343-0.161,0.567-0.497,0.693c-0.168,0.063-0.462,0.105-0.714,0.105
		c-0.735,0-1.197-0.294-1.197-0.763c0-0.336,0.238-0.602,0.679-0.77c0.273-0.105,0.651-0.168,1.016-0.168
		c0.056,0,0.146,0,0.266,0.007c-0.042-2.814-0.042-2.814-0.098-3.283c-0.05-0.406-0.154-0.518-0.609-0.595
		C27.32,27.109,27.376,27.088,27.53,27.088z M27.376,31.394c-0.721,0-1.239,0.245-1.239,0.595c0,0.28,0.287,0.441,0.784,0.441
		c0.406,0,0.742-0.112,0.875-0.287c0.091-0.112,0.112-0.259,0.112-0.735C27.684,31.394,27.6,31.394,27.376,31.394z"/>
	<path d="M34.656,33.039c0.413-0.336,0.686-0.623,0.924-1.008c0.364-0.595,0.595-1.407,0.595-2.128c0-0.693-0.252-1.12-0.665-1.12
		c-0.371,0-0.86,0.301-1.344,0.826c-0.133,0.133-0.175,0.161-0.287,0.161c-0.146,0-0.314-0.112-0.462-0.315
		c-0.119-0.161-0.189-0.343-0.189-0.469c0-0.091,0.028-0.154,0.112-0.259c0.063,0.308,0.203,0.483,0.385,0.483
		c0.099,0,0.28-0.077,0.645-0.273c0.595-0.322,0.826-0.399,1.183-0.399c0.322,0,0.665,0.182,0.868,0.469
		c0.168,0.245,0.266,0.609,0.266,1.029c0,0.826-0.314,1.645-0.867,2.261c-0.344,0.378-0.7,0.644-1.1,0.819L34.656,33.039z
		 M34.271,26.675c0.344,0.287,0.819,0.448,1.31,0.448h0.161c0.14,0,0.237,0.049,0.378,0.168c0.098,0.084,0.146,0.168,0.146,0.238
		c0,0.098-0.098,0.154-0.287,0.154c-0.294,0.007-0.294,0.007-1.742,0.427l-0.035-0.098c0.524-0.238,1.008-0.455,1.183-0.518
		c-0.574-0.119-0.917-0.336-1.183-0.763L34.271,26.675z"/>
	<path d="M6.456,46.128c0.28-0.84,0.406-1.372,0.658-2.758c0.126-0.658,0.168-1.078,0.225-1.82c1.147,0.28,1.315,0.336,1.315,0.476
		c0,0.126-0.14,0.196-0.49,0.252c-0.237,0.868-0.392,1.358-0.615,2.058c-0.309,0.896-0.462,1.218-0.91,1.89L6.456,46.128z
		 M7.996,36.945c0.49,0.364,0.645,0.56,0.645,0.84c0,0.364-0.238,0.826-0.435,0.826c-0.098,0-0.168-0.084-0.252-0.294
		c-0.21-0.532-0.84-1.498-1.386-2.086l0.07-0.182c0.462,0.252,0.588,0.336,1.078,0.686c0.672-1.232,0.966-1.988,1.092-2.744
		c1.246,0.364,1.498,0.462,1.498,0.588s-0.168,0.182-0.658,0.21c-0.56,0.798-0.574,0.826-1.722,2.1L7.996,36.945z M8.879,40.515
		c-0.631,0.14-0.925,0.196-1.666,0.308c-0.07,0.336-0.141,0.476-0.252,0.476c-0.126,0-0.168-0.182-0.322-1.274
		c0.322,0.014,0.476,0.014,0.616,0.014c0.195,0,0.42-0.014,0.657-0.028c0.49-0.63,0.7-0.952,1.177-1.792
		c0.77-1.344,1.092-1.974,1.33-2.688c1.483,0.532,1.483,0.532,1.483,0.658c0,0.14-0.14,0.168-0.714,0.182
		c-0.756,1.148-1.54,2.156-2.842,3.626c1.428-0.084,1.792-0.112,2.45-0.196c-0.141-0.364-0.267-0.616-0.616-1.302l0.182-0.084
		c0.435,0.392,0.546,0.518,1.022,1.064c0.405,0.476,0.531,0.7,0.531,0.924c0,0.154-0.126,0.49-0.266,0.672
		c-0.098,0.126-0.196,0.196-0.308,0.196c-0.112,0-0.154-0.07-0.238-0.476c-0.056-0.238-0.098-0.42-0.21-0.742
		c-0.448,0.112-0.462,0.126-1.12,0.28v3.234c0,1.694,0,1.694,0.014,3.024c0,0.112-0.027,0.154-0.126,0.196
		c-0.084,0.028-0.378,0.056-0.63,0.056c-0.153,0-0.21-0.042-0.21-0.168c0.028-0.686,0.028-0.686,0.057-3.038V40.515z M17.53,37.197
		c-0.224,1.652-0.364,2.31-0.686,3.248c-0.322,0.98-0.742,1.792-1.316,2.562c1.162,1.148,2.143,1.708,3.99,2.31l-0.042,0.182
		c-0.519,0.112-0.672,0.266-0.924,0.938c-0.994-0.504-1.4-0.784-2.198-1.456c-0.588-0.49-0.994-0.868-1.372-1.316
		c-0.532,0.588-1.078,1.092-1.68,1.526c-0.784,0.574-1.414,0.896-3.066,1.54l-0.07-0.196c1.61-0.924,2.198-1.33,2.969-2.03
		c0.504-0.462,0.924-0.91,1.372-1.484c-0.63-0.938-1.106-2.072-1.372-3.234c-0.168-0.742-0.196-0.994-0.322-2.59h-0.434
		c-0.435,0-0.658,0.014-1.106,0.098l-0.084-0.546c0.392,0.098,0.63,0.126,1.134,0.126h2.072v-1.246c0-0.602-0.014-0.91-0.07-1.554
		c0.336,0.056,0.588,0.098,0.742,0.112c0.784,0.098,0.924,0.14,0.924,0.28c0,0.126-0.182,0.224-0.616,0.336v2.072h1.807
		c0.406-0.462,0.532-0.588,0.924-1.008c0.574,0.462,0.742,0.616,1.274,1.106c0.027,0.056,0.056,0.098,0.056,0.14
		c0,0.056-0.07,0.084-0.196,0.084H17.53z M10.545,41.551c0.336,0.434,0.462,0.63,0.84,1.204c0.294,0.462,0.392,0.7,0.392,0.924
		c0,0.56-0.322,1.134-0.63,1.134c-0.126,0-0.168-0.084-0.21-0.49c-0.098-0.924-0.224-1.512-0.588-2.772H10.545z M13.106,37.197
		c0.084,1.064,0.182,1.61,0.476,2.52c0.336,1.12,0.771,1.932,1.372,2.674c0.49-0.784,0.826-1.512,1.12-2.506
		s0.393-1.526,0.448-2.688H13.106z"/>
	<path d="M30.746,44.113h3.92c0.351-0.462,0.463-0.602,0.813-1.036c0.56,0.49,0.728,0.63,1.246,1.134
		c0.042,0.056,0.056,0.098,0.056,0.126c0,0.042-0.056,0.098-0.112,0.098h-5.922v0.364l0.028,1.722c0,0.014,0,0.07,0,0.154
		c-0.028,0.238-0.154,0.28-0.896,0.28c-0.141,0-0.183-0.028-0.196-0.14l0.042-2.016v-0.364h-4.578c-0.322,0-0.714,0.042-0.966,0.098
		l-0.141-0.546c0.309,0.07,0.784,0.126,1.106,0.126h4.578v-1.316H27.19v0.448c-0.028,0.14-0.112,0.182-0.448,0.182
		c-0.027,0-0.056,0-0.084,0c-0.027,0-0.042,0-0.056,0c-0.042,0-0.084,0-0.196,0c-0.182,0-0.266-0.042-0.266-0.154
		c0,0,0-0.014,0-0.028c0.084-1.12,0.098-1.652,0.098-2.87c0-1.148,0-1.274-0.042-1.75c0.477,0.21,0.616,0.294,1.078,0.56h6.076
		c0.196-0.252,0.266-0.336,0.518-0.546c0.42,0.266,0.546,0.35,0.924,0.672c0.057,0.042,0.084,0.084,0.084,0.112
		c0,0.098-0.084,0.168-0.518,0.378l0.014,3.36c0,0.014,0,0.028,0,0.028c0,0.084-0.14,0.126-0.462,0.14
		c-0.126,0-0.224,0.014-0.252,0.014c-0.014,0-0.027,0-0.042,0c-0.153,0-0.21-0.042-0.21-0.182v-0.364h-2.66V44.113z M33.994,35.349
		c0.322-0.434,0.435-0.56,0.813-0.98c0.532,0.434,0.686,0.588,1.204,1.078c0.027,0.042,0.056,0.07,0.056,0.098
		c0,0.056-0.07,0.126-0.154,0.126h-3.458c0.364,0.154,0.49,0.21,0.645,0.294c0.182,0.098,0.308,0.154,0.322,0.168
		c0.126,0.056,0.168,0.098,0.168,0.154c0,0.126-0.084,0.168-0.561,0.21l-1.231,1.316h2.813l0.784-0.952
		c0.546,0.434,0.7,0.574,1.204,1.036c0.042,0.042,0.056,0.084,0.056,0.112c0,0.07-0.07,0.126-0.126,0.126H25.146
		c-0.196,0-0.224,0-0.504,0.042c-0.168,0.028-0.168,0.028-0.35,0.042l-0.112-0.518c0.238,0.056,0.77,0.112,0.966,0.112h3.108
		c-0.126-0.112-0.141-0.14-0.406-0.924c-0.099-0.294-0.252-0.616-0.546-1.106l0.126-0.112h-1.708c-0.225,0-0.435,0.014-0.868,0.084
		l-0.126-0.504c0.238,0.042,0.784,0.098,0.994,0.098h4.032v-0.714c0-0.098-0.042-0.476-0.07-0.672
		c1.021,0.056,1.638,0.182,1.638,0.35c0,0.098-0.14,0.182-0.588,0.322v0.714H33.994z M33.406,39.507H27.19v1.26h6.216V39.507z
		 M27.19,41.089v1.386h6.216v-1.386H27.19z M27.54,35.671c0.238,0.168,0.841,0.672,0.994,0.812c0.154,0.154,0.309,0.42,0.309,0.546
		s-0.07,0.322-0.168,0.518c-0.07,0.126-0.126,0.182-0.28,0.266h2.996c0.322-0.49,0.756-1.582,0.868-2.142H27.54z"/>
</g>
<rect x="5.375" y="7.125" fill="none" stroke="#008CD6" stroke-width="0.25" width="14" height="14"/>
<rect x="23.015" y="7.125" fill="none" stroke="#008CD6" stroke-width="0.25" width="14" height="14"/>
<rect x="3.625" y="0.125" fill="none" stroke="#008CD6" stroke-width="0.25" width="35" height="7"/>
<line fill="none" stroke="#008CD6" stroke-width="0.25" x1="10.625" y1="7.125" x2="10.625" y2="0.125"/>
<line fill="none" stroke="#008CD6" stroke-width="0.25" x1="17.625" y1="7.125" x2="17.625" y2="0.125"/>
<line fill="none" stroke="#008CD6" stroke-width="0.25" x1="24.625" y1="7.125" x2="24.625" y2="0.125"/>
<line fill="none" stroke="#008CD6" stroke-width="0.25" x1="31.625" y1="7.125" x2="31.625" y2="0.125"/>
<g>
	<path d="M1.084,59.923c0.315,0.315,0.483,0.385,0.938,0.385c0.168,0,0.314-0.014,0.496-0.042c0.021-0.105,0.021-0.105,0.105-0.504
		c0.042-0.203,0.091-0.497,0.091-0.581c0-0.224-0.161-0.336-0.524-0.364c0.126-0.105,0.202-0.133,0.35-0.133
		c0.21,0,0.476,0.063,0.658,0.154c0.133,0.063,0.21,0.154,0.21,0.245c0,0.063-0.015,0.091-0.105,0.21
		c-0.111,0.14-0.245,0.434-0.427,0.931c0.546-0.091,1.022-0.273,1.239-0.462C4.171,59.707,4.192,59.7,4.248,59.7
		c0.091,0,0.224,0.028,0.329,0.063c0.104,0.042,0.154,0.091,0.154,0.161c0,0.112-0.112,0.203-0.393,0.308
		c-0.448,0.175-0.952,0.287-1.568,0.357c-0.182,0.707-0.286,1.393-0.301,1.925c0.764-0.406,1.526-0.637,2.107-0.637
		c0.791,0,1.315,0.406,1.315,1.015c0,0.56-0.398,1.029-1.119,1.323c-0.561,0.224-1.212,0.336-2.045,0.329l-0.007-0.098
		c0.735-0.126,0.826-0.14,1.093-0.224c0.993-0.301,1.532-0.812,1.532-1.456c0-0.427-0.279-0.672-0.77-0.672
		c-0.483,0-1.029,0.21-1.554,0.602c-0.211,0.161-0.309,0.266-0.406,0.427c-0.035,0.056-0.091,0.091-0.154,0.091
		c-0.182,0-0.413-0.308-0.413-0.546c0-0.119,0.231-1.351,0.393-2.072c-0.134,0.014-0.203,0.021-0.294,0.021
		c-0.567,0-0.875-0.168-1.162-0.637L1.084,59.923z"/>
	<path d="M9.841,64.669c0.546-0.434,0.756-0.686,1.029-1.246c-0.322-0.098-0.574-0.266-0.813-0.539
		c-0.308-0.371-0.476-0.924-0.476-1.582c0-0.049,0-0.133,0.007-0.259c-0.56,0.623-0.917,1.386-0.917,1.946c0,0.049,0,0.091,0,0.126
		c0.007,0.049,0.007,0.091,0.007,0.112c0,0.112-0.077,0.196-0.175,0.196c-0.238,0-0.413-0.588-0.413-1.414
		c0-0.357,0.021-0.672,0.084-1.176c0.035-0.322,0.042-0.42,0.042-0.553c0-0.231-0.098-0.462-0.266-0.637
		c0.146,0,0.23,0.042,0.406,0.182c0.224,0.196,0.378,0.427,0.378,0.581c0,0.07-0.008,0.098-0.084,0.259
		c-0.154,0.336-0.267,0.903-0.267,1.365c0,0.126,0.007,0.203,0.035,0.371c0.413-0.819,0.651-1.162,1.183-1.673
		c0.092-0.714,0.231-1.113,0.497-1.442c0.154-0.196,0.364-0.301,0.588-0.301c0.196,0,0.421,0.098,0.561,0.245
		c0.161,0.168,0.238,0.308,0.35,0.63c0.042,0,0.084,0,0.099,0c0.392,0,0.763,0.119,1.092,0.35c0.448,0.308,0.693,0.805,0.693,1.372
		c0,1.085-0.875,1.925-2.01,1.925c-0.049,0-0.111,0-0.217-0.007c-0.427,0.651-0.777,0.98-1.351,1.253L9.841,64.669z M9.799,60.806
		c-0.007,0.168-0.014,0.266-0.014,0.343c0,0.651,0.203,1.232,0.546,1.547c0.21,0.196,0.392,0.301,0.679,0.385
		c0.189-0.609,0.28-1.288,0.28-2.1c0-0.399-0.014-0.623-0.07-0.91C10.625,60.196,10.233,60.399,9.799,60.806z M11.192,59.902
		c-0.126-0.532-0.294-0.756-0.567-0.756c-0.392,0-0.679,0.49-0.805,1.393C10.268,60.196,10.667,60.007,11.192,59.902z
		 M11.773,61.205c0,0.756-0.112,1.358-0.351,1.932c0.924,0,1.582-0.693,1.582-1.659c0-0.553-0.21-1.001-0.588-1.246
		c-0.231-0.147-0.434-0.21-0.777-0.217C11.738,60.504,11.773,60.806,11.773,61.205z"/>
	<path d="M17.156,64.789c0.413-0.336,0.686-0.623,0.924-1.008c0.364-0.595,0.595-1.407,0.595-2.128c0-0.693-0.252-1.12-0.665-1.12
		c-0.371,0-0.86,0.301-1.344,0.826c-0.133,0.133-0.175,0.161-0.287,0.161c-0.146,0-0.314-0.112-0.462-0.315
		c-0.119-0.161-0.189-0.343-0.189-0.469c0-0.091,0.028-0.154,0.112-0.259c0.063,0.308,0.203,0.483,0.385,0.483
		c0.099,0,0.28-0.077,0.645-0.273c0.595-0.322,0.826-0.399,1.183-0.399c0.322,0,0.665,0.182,0.868,0.469
		c0.168,0.245,0.266,0.609,0.266,1.029c0,0.826-0.314,1.645-0.867,2.261c-0.344,0.378-0.7,0.644-1.1,0.819L17.156,64.789z
		 M16.771,58.425c0.344,0.287,0.819,0.448,1.31,0.448h0.161c0.14,0,0.237,0.049,0.378,0.168c0.098,0.084,0.146,0.168,0.146,0.238
		c0,0.098-0.098,0.154-0.287,0.154c-0.294,0.007-0.294,0.007-1.742,0.427l-0.035-0.098c0.524-0.238,1.008-0.455,1.183-0.518
		c-0.574-0.119-0.917-0.336-1.183-0.763L16.771,58.425z"/>
	<path fill="#ED6E46" d="M26.998,63.053c-0.672,0.91-1.589,1.449-2.457,1.449c-0.532,0-0.945-0.217-1.162-0.595
		c-0.14-0.245-0.196-0.588-0.196-1.183c0-0.385,0.021-1.05,0.057-1.687c0.042-0.756,0.049-0.952,0.049-1.204
		c0-0.602-0.07-0.721-0.567-0.931c0.077-0.056,0.119-0.07,0.196-0.07c0.161,0,0.413,0.063,0.63,0.161
		c0.266,0.126,0.406,0.266,0.406,0.413c0,0.049-0.007,0.091-0.063,0.252c-0.133,0.42-0.363,2.541-0.363,3.36
		c0,0.427,0.084,0.679,0.279,0.84c0.154,0.119,0.378,0.189,0.623,0.189c0.477,0,1.064-0.168,1.597-0.448
		c0.321-0.168,0.524-0.315,0.889-0.623L26.998,63.053z"/>
	<path fill="#ED6E46" d="M31.639,58.67c0.729,0.35,1.016,0.637,1.016,1.015c0,0.168-0.077,0.266-0.21,0.266
		c-0.042,0-0.057-0.007-0.218-0.07c-0.188-0.07-0.455-0.126-0.763-0.161c-0.476-0.056-0.924-0.091-1.085-0.091
		s-0.266,0.077-0.266,0.196c0,0.098,0.146,0.448,0.462,1.092c0.385-0.21,0.826-0.413,1.225-0.567c0.511-0.196,0.917-0.28,1.344-0.28
		c0.848,0,1.449,0.455,1.449,1.106c0,0.273-0.14,0.588-0.356,0.798c-0.252,0.245-0.638,0.378-1.113,0.378
		c-0.567,0-1.155-0.196-1.589-0.525l0.049-0.105c0.364,0.182,0.819,0.294,1.225,0.294c0.47,0,0.841-0.133,1.051-0.378
		c0.146-0.168,0.224-0.378,0.224-0.602c0-0.483-0.364-0.756-1.008-0.756c-0.378,0-0.722,0.098-1.323,0.385
		c-0.329,0.161-0.651,0.336-1.036,0.567c0.336,0.679,0.546,1.148,0.784,1.743c0.272,0.693,0.343,0.917,0.343,1.148
		c0,0.301-0.133,0.525-0.322,0.525c-0.034,0-0.076-0.028-0.111-0.07c-0.042-0.049-0.063-0.119-0.091-0.308
		c-0.134-0.875-0.42-1.827-0.868-2.884c-0.399,0.266-0.638,0.434-0.722,0.49c-0.104,0.077-0.133,0.098-0.188,0.14
		c-0.091,0.077-0.154,0.105-0.245,0.105c-0.308,0-0.742-0.448-0.742-0.763c0-0.028,0.007-0.063,0.028-0.119
		c0.161,0.238,0.329,0.364,0.49,0.364c0.195,0,0.615-0.189,1.225-0.539c-0.175-0.392-0.343-0.686-0.483-0.861
		c-0.126-0.168-0.146-0.21-0.146-0.301c0-0.231,0.272-0.476,0.525-0.476c0.084,0,0.091,0,0.217,0.035
		c0.042,0.014,0.084,0.014,0.182,0.021c0.028,0,0.245,0,0.561,0.007c0.175,0.007,0.314,0.007,0.524,0.007
		c0.406,0,0.462-0.014,0.462-0.091c0-0.14-0.245-0.413-0.566-0.644L31.639,58.67z"/>
	<path fill="#ED6E46" d="M38.583,58.643c0.196,0,0.581,0.182,0.777,0.371c0.111,0.112,0.153,0.182,0.153,0.28
		c0,0.091-0.035,0.133-0.405,0.434c-0.378,0.315-1.064,0.959-1.288,1.211c-0.245,0.273-0.336,0.434-0.336,0.567
		c0,0.098,0.069,0.224,0.21,0.364c0.098,0.105,0.098,0.105,0.489,0.462c0.764,0.707,1.12,1.099,1.288,1.428
		c0.077,0.147,0.105,0.273,0.105,0.462c0,0.266-0.091,0.42-0.238,0.42c-0.091,0-0.119-0.035-0.238-0.287
		c-0.126-0.273-0.343-0.644-0.588-0.987c-0.259-0.371-0.294-0.413-1.021-1.267c-0.189-0.231-0.267-0.399-0.267-0.588
		c0-0.224,0.112-0.413,0.539-0.938c0.848-1.029,1.058-1.323,1.058-1.491c0-0.119-0.091-0.224-0.386-0.413
		C38.485,58.649,38.52,58.643,38.583,58.643z"/>
	<path d="M3.726,69.157c1.723,0.574,2.311,0.966,2.311,1.512c0,0.434-0.182,0.84-0.393,0.84c-0.111,0-0.168-0.056-0.392-0.434
		c-0.098-0.168-0.406-0.56-0.672-0.882c-0.322-0.378-0.518-0.546-0.952-0.868L3.726,69.157z M3.838,74.126
		c0.435,0.112,0.84,0.196,0.938,0.196c0.21,0,0.294-0.112,0.615-0.812c0.673-1.47,1.555-3.57,2.227-5.348l0.238,0.098L5.77,74.477
		c-0.098,0.28-0.182,0.616-0.182,0.714c0,0.14,0,0.14,0.126,0.7c0.126,0.518,0.183,0.882,0.183,1.162
		c0,0.364-0.099,0.644-0.295,0.868c-0.195,0.224-0.462,0.364-0.686,0.364c-0.182,0-0.308-0.168-0.308-0.42
		c0-0.154,0-0.196,0.182-1.456c0.042-0.266,0.056-0.532,0.07-0.798c0-0.098,0-0.098,0-0.21c0-0.014,0-0.028,0-0.042
		c0-0.434-0.238-0.658-1.093-1.022L3.838,74.126z M4.538,66.035c1.89,0.658,2.31,0.938,2.31,1.582c0,0.434-0.182,0.826-0.392,0.826
		c-0.126,0-0.21-0.084-0.336-0.336c-0.322-0.644-0.742-1.12-1.694-1.918L4.538,66.035z M10.908,69.269H8.99
		c-0.42,0-0.7,0.028-1.036,0.098l-0.098-0.546c0.447,0.098,0.699,0.126,1.134,0.126h5.04c0.35-0.42,0.462-0.56,0.812-0.966
		c0.561,0.434,0.729,0.574,1.246,1.036c0.07,0.07,0.098,0.126,0.098,0.168c0,0.056-0.069,0.084-0.195,0.084h-4.116v3.472h1.806
		c0.351-0.434,0.462-0.574,0.84-0.98c0.589,0.448,0.757,0.602,1.274,1.092c0.056,0.056,0.084,0.098,0.084,0.14
		s-0.056,0.07-0.168,0.07h-3.836v4.34h2.38c0.392-0.448,0.504-0.588,0.896-1.05c0.573,0.49,0.756,0.644,1.315,1.148
		c0.042,0.056,0.07,0.098,0.07,0.14c0,0.056-0.056,0.084-0.168,0.084H7.996c-0.462,0-0.742,0.028-1.162,0.098l-0.112-0.546
		c0.406,0.084,0.784,0.126,1.274,0.126h2.912v-4.34h-2.03c-0.392,0-0.616,0.028-1.008,0.098l-0.098-0.56
		c0.447,0.112,0.686,0.14,1.105,0.14h2.03V69.269z M9.704,65.839c0.854,0.308,1.484,0.602,2.03,0.91
		c0.546,0.322,0.728,0.56,0.728,0.966c0,0.42-0.238,0.868-0.448,0.868c-0.126,0-0.195-0.07-0.378-0.364
		c-0.111-0.182-0.56-0.798-0.784-1.05c-0.252-0.28-0.504-0.518-1.245-1.176L9.704,65.839z"/>
	<path fill="#ED6E46" d="M29.29,70.949c0.266-0.35,0.364-0.462,0.644-0.784c0.448,0.378,0.589,0.504,1.022,0.938
		c0.042,0.056,0.07,0.084,0.07,0.098c0,0.042-0.042,0.07-0.084,0.07h-2.717v0.896c0.532,0.238,0.967,0.462,1.358,0.686
		c0.49,0.294,0.644,0.49,0.644,0.84c0,0.378-0.21,0.826-0.378,0.826c-0.111,0-0.182-0.084-0.378-0.448
		c-0.35-0.672-0.686-1.092-1.246-1.596c0,1.624,0.015,2.59,0.07,5.824c-0.028,0.14-0.112,0.182-0.462,0.196
		c-0.084,0-0.182,0-0.294,0.014c-0.014,0-0.028,0-0.042,0c-0.084,0-0.112-0.028-0.112-0.112c0.028-1.274,0.028-1.274,0.042-4.13
		l0.015-1.666c-0.504,1.078-0.757,1.512-1.288,2.268c-0.561,0.756-0.896,1.134-1.639,1.806l-0.126-0.098
		c1.358-1.862,2.059-3.192,2.786-5.306H25.58c-0.308,0-0.476,0.014-0.714,0.084l-0.084-0.49c0.294,0.07,0.434,0.084,0.798,0.084
		h1.848v-3.444c-0.882,0.196-1.399,0.266-2.534,0.35l-0.042-0.196c1.387-0.322,2.03-0.518,3.011-0.924
		c0.868-0.364,1.204-0.532,1.693-0.868c0.238,0.14,0.406,0.252,0.532,0.322c0.504,0.294,0.63,0.392,0.63,0.504
		c0,0.07-0.084,0.112-0.182,0.112c-0.183,0-0.378-0.028-0.603-0.07c-0.798,0.308-1.092,0.406-1.722,0.588v3.626H29.29z
		 M25.384,68.135c0.854,0.714,1.372,1.344,1.372,1.694c0,0.294-0.322,0.77-0.518,0.77c-0.084,0-0.141-0.07-0.168-0.21
		c-0.252-1.008-0.378-1.344-0.813-2.17L25.384,68.135z M28.632,70.599c0.504-1.372,0.868-2.52,0.966-3.094
		c1.219,0.406,1.274,0.42,1.274,0.546c0,0.112-0.126,0.154-0.519,0.21c-0.21,0.322-0.21,0.322-0.798,1.274
		c-0.21,0.336-0.405,0.616-0.783,1.106L28.632,70.599z M32.16,71.271c-0.084,1.89-0.322,2.996-0.896,4.312
		c-0.588,1.344-1.162,2.086-2.31,2.94l-0.14-0.126c0.909-1.008,1.287-1.582,1.666-2.576c0.602-1.568,0.812-2.982,0.812-5.53
		c0-1.918-0.028-3.094-0.084-4.06c0.49,0.252,0.63,0.336,1.134,0.63h3.304c0.196-0.28,0.267-0.364,0.49-0.63
		c0.393,0.266,0.504,0.35,0.868,0.63c0.084,0.07,0.126,0.112,0.126,0.154c0,0.084-0.084,0.14-0.49,0.35
		c0.028,3.318,0.028,3.318,0.07,4.424c-0.014,0.084-0.028,0.112-0.07,0.14s-0.462,0.056-0.798,0.056
		c-0.084,0-0.126-0.042-0.126-0.126v-0.588h-2.044c0.21,1.148,0.393,1.694,0.868,2.576c0.49,0.952,1.092,1.722,1.792,2.324
		c0.406,0.35,0.742,0.56,1.484,0.952l-0.015,0.14c-0.588,0.056-0.924,0.266-1.26,0.77c-1.386-1.344-1.988-2.31-2.576-4.06
		c-0.266-0.812-0.434-1.498-0.658-2.702H32.16z M35.716,70.949v-3.766h-3.514c-0.028,3.108-0.028,3.374-0.028,3.766H35.716z"/>
</g>
<g>
	<path d="M1.084,86.173c0.315,0.315,0.483,0.385,0.938,0.385c0.168,0,0.314-0.014,0.496-0.042c0.021-0.105,0.021-0.105,0.105-0.504
		c0.042-0.203,0.091-0.497,0.091-0.581c0-0.224-0.161-0.336-0.524-0.364c0.126-0.105,0.202-0.133,0.35-0.133
		c0.21,0,0.476,0.063,0.658,0.154c0.133,0.063,0.21,0.154,0.21,0.245c0,0.063-0.015,0.091-0.105,0.21
		c-0.111,0.14-0.245,0.434-0.427,0.931c0.546-0.091,1.022-0.273,1.239-0.462c0.056-0.056,0.077-0.063,0.133-0.063
		c0.091,0,0.224,0.028,0.329,0.063c0.104,0.042,0.154,0.091,0.154,0.161c0,0.112-0.112,0.203-0.393,0.308
		c-0.448,0.175-0.952,0.287-1.568,0.357c-0.182,0.707-0.286,1.393-0.301,1.925c0.764-0.406,1.526-0.637,2.107-0.637
		c0.791,0,1.315,0.406,1.315,1.015c0,0.56-0.398,1.029-1.119,1.323c-0.561,0.224-1.212,0.336-2.045,0.329l-0.007-0.098
		c0.735-0.126,0.826-0.14,1.093-0.224c0.993-0.301,1.532-0.812,1.532-1.456c0-0.427-0.279-0.672-0.77-0.672
		c-0.483,0-1.029,0.21-1.554,0.602c-0.211,0.161-0.309,0.266-0.406,0.427c-0.035,0.056-0.091,0.091-0.154,0.091
		c-0.182,0-0.413-0.308-0.413-0.546c0-0.119,0.231-1.351,0.393-2.072c-0.134,0.014-0.203,0.021-0.294,0.021
		c-0.567,0-0.875-0.168-1.162-0.637L1.084,86.173z"/>
	<path d="M9.841,90.919c0.546-0.434,0.756-0.686,1.029-1.246c-0.322-0.098-0.574-0.266-0.813-0.539
		c-0.308-0.371-0.476-0.924-0.476-1.582c0-0.049,0-0.133,0.007-0.259c-0.56,0.623-0.917,1.386-0.917,1.946c0,0.049,0,0.091,0,0.126
		c0.007,0.049,0.007,0.091,0.007,0.112c0,0.112-0.077,0.196-0.175,0.196c-0.238,0-0.413-0.588-0.413-1.414
		c0-0.357,0.021-0.672,0.084-1.176c0.035-0.322,0.042-0.42,0.042-0.553c0-0.231-0.098-0.462-0.266-0.637
		c0.146,0,0.23,0.042,0.406,0.182c0.224,0.196,0.378,0.427,0.378,0.581c0,0.07-0.008,0.098-0.084,0.259
		c-0.154,0.336-0.267,0.903-0.267,1.365c0,0.126,0.007,0.203,0.035,0.371c0.413-0.819,0.651-1.162,1.183-1.673
		c0.092-0.714,0.231-1.113,0.497-1.442c0.154-0.196,0.364-0.301,0.588-0.301c0.196,0,0.421,0.098,0.561,0.245
		c0.161,0.168,0.238,0.308,0.35,0.63c0.042,0,0.084,0,0.099,0c0.392,0,0.763,0.119,1.092,0.35c0.448,0.308,0.693,0.805,0.693,1.372
		c0,1.085-0.875,1.925-2.01,1.925c-0.049,0-0.111,0-0.217-0.007c-0.427,0.651-0.777,0.98-1.351,1.253L9.841,90.919z M9.799,87.056
		c-0.007,0.168-0.014,0.266-0.014,0.343c0,0.651,0.203,1.232,0.546,1.547c0.21,0.196,0.392,0.301,0.679,0.385
		c0.189-0.609,0.28-1.288,0.28-2.1c0-0.399-0.014-0.623-0.07-0.91C10.625,86.446,10.233,86.649,9.799,87.056z M11.192,86.152
		c-0.126-0.532-0.294-0.756-0.567-0.756c-0.392,0-0.679,0.49-0.805,1.393C10.268,86.446,10.667,86.257,11.192,86.152z
		 M11.773,87.455c0,0.756-0.112,1.358-0.351,1.932c0.924,0,1.582-0.693,1.582-1.659c0-0.553-0.21-1.001-0.588-1.246
		c-0.231-0.147-0.434-0.21-0.777-0.217C11.738,86.754,11.773,87.056,11.773,87.455z"/>
	<path d="M17.156,91.039c0.413-0.336,0.686-0.623,0.924-1.008c0.364-0.595,0.595-1.407,0.595-2.128c0-0.693-0.252-1.12-0.665-1.12
		c-0.371,0-0.86,0.301-1.344,0.826c-0.133,0.133-0.175,0.161-0.287,0.161c-0.146,0-0.314-0.112-0.462-0.315
		c-0.119-0.161-0.189-0.343-0.189-0.469c0-0.091,0.028-0.154,0.112-0.259c0.063,0.308,0.203,0.483,0.385,0.483
		c0.099,0,0.28-0.077,0.645-0.273c0.595-0.322,0.826-0.399,1.183-0.399c0.322,0,0.665,0.182,0.868,0.469
		c0.168,0.245,0.266,0.609,0.266,1.029c0,0.826-0.314,1.645-0.867,2.261c-0.344,0.378-0.7,0.644-1.1,0.819L17.156,91.039z
		 M16.771,84.675c0.344,0.287,0.819,0.448,1.31,0.448h0.161c0.14,0,0.237,0.049,0.378,0.168c0.098,0.084,0.146,0.168,0.146,0.238
		c0,0.098-0.098,0.154-0.287,0.154c-0.294,0.007-0.294,0.007-1.742,0.427l-0.035-0.098c0.524-0.238,1.008-0.455,1.183-0.518
		c-0.574-0.119-0.917-0.336-1.183-0.763L16.771,84.675z"/>
	<path d="M26.998,89.303c-0.672,0.91-1.589,1.449-2.457,1.449c-0.532,0-0.945-0.217-1.162-0.595
		c-0.14-0.245-0.196-0.588-0.196-1.183c0-0.385,0.021-1.05,0.057-1.687c0.042-0.756,0.049-0.952,0.049-1.204
		c0-0.602-0.07-0.721-0.567-0.931c0.077-0.056,0.119-0.07,0.196-0.07c0.161,0,0.413,0.063,0.63,0.161
		c0.266,0.126,0.406,0.266,0.406,0.413c0,0.049-0.007,0.091-0.063,0.252c-0.133,0.42-0.363,2.541-0.363,3.36
		c0,0.427,0.084,0.679,0.279,0.84c0.154,0.119,0.378,0.189,0.623,0.189c0.477,0,1.064-0.168,1.597-0.448
		c0.321-0.168,0.524-0.315,0.889-0.623L26.998,89.303z"/>
	<path d="M31.639,84.92c0.729,0.35,1.016,0.637,1.016,1.015c0,0.168-0.077,0.266-0.21,0.266c-0.042,0-0.057-0.007-0.218-0.07
		c-0.188-0.07-0.455-0.126-0.763-0.161c-0.476-0.056-0.924-0.091-1.085-0.091s-0.266,0.077-0.266,0.196
		c0,0.098,0.146,0.448,0.462,1.092c0.385-0.21,0.826-0.413,1.225-0.567c0.511-0.196,0.917-0.28,1.344-0.28
		c0.848,0,1.449,0.455,1.449,1.106c0,0.273-0.14,0.588-0.356,0.798c-0.252,0.245-0.638,0.378-1.113,0.378
		c-0.567,0-1.155-0.196-1.589-0.525l0.049-0.105c0.364,0.182,0.819,0.294,1.225,0.294c0.47,0,0.841-0.133,1.051-0.378
		c0.146-0.168,0.224-0.378,0.224-0.602c0-0.483-0.364-0.756-1.008-0.756c-0.378,0-0.722,0.098-1.323,0.385
		c-0.329,0.161-0.651,0.336-1.036,0.567c0.336,0.679,0.546,1.148,0.784,1.743c0.272,0.693,0.343,0.917,0.343,1.148
		c0,0.301-0.133,0.525-0.322,0.525c-0.034,0-0.076-0.028-0.111-0.07c-0.042-0.049-0.063-0.119-0.091-0.308
		c-0.134-0.875-0.42-1.827-0.868-2.884c-0.399,0.266-0.638,0.434-0.722,0.49c-0.104,0.077-0.133,0.098-0.188,0.14
		c-0.091,0.077-0.154,0.105-0.245,0.105c-0.308,0-0.742-0.448-0.742-0.763c0-0.028,0.007-0.063,0.028-0.119
		c0.161,0.238,0.329,0.364,0.49,0.364c0.195,0,0.615-0.189,1.225-0.539c-0.175-0.392-0.343-0.686-0.483-0.861
		c-0.126-0.168-0.146-0.21-0.146-0.301c0-0.231,0.272-0.476,0.525-0.476c0.084,0,0.091,0,0.217,0.035
		c0.042,0.014,0.084,0.014,0.182,0.021c0.028,0,0.245,0,0.561,0.007c0.175,0.007,0.314,0.007,0.524,0.007
		c0.406,0,0.462-0.014,0.462-0.091c0-0.14-0.245-0.413-0.566-0.644L31.639,84.92z"/>
	<path d="M38.583,84.893c0.196,0,0.581,0.182,0.777,0.371c0.111,0.112,0.153,0.182,0.153,0.28c0,0.091-0.035,0.133-0.405,0.434
		c-0.378,0.315-1.064,0.959-1.288,1.211c-0.245,0.273-0.336,0.434-0.336,0.567c0,0.098,0.069,0.224,0.21,0.364
		c0.098,0.105,0.098,0.105,0.489,0.462c0.764,0.707,1.12,1.099,1.288,1.428c0.077,0.147,0.105,0.273,0.105,0.462
		c0,0.266-0.091,0.42-0.238,0.42c-0.091,0-0.119-0.035-0.238-0.287c-0.126-0.273-0.343-0.644-0.588-0.987
		c-0.259-0.371-0.294-0.413-1.021-1.267c-0.189-0.231-0.267-0.399-0.267-0.588c0-0.224,0.112-0.413,0.539-0.938
		c0.848-1.029,1.058-1.323,1.058-1.491c0-0.119-0.091-0.224-0.386-0.413C38.485,84.899,38.52,84.893,38.583,84.893z"/>
	<path d="M4.311,95.407c1.723,0.574,2.311,0.966,2.311,1.512c0,0.434-0.182,0.84-0.393,0.84c-0.111,0-0.168-0.056-0.392-0.434
		c-0.098-0.168-0.406-0.56-0.672-0.882c-0.322-0.378-0.518-0.546-0.952-0.868L4.311,95.407z M4.423,100.376
		c0.435,0.112,0.84,0.196,0.938,0.196c0.21,0,0.294-0.112,0.615-0.812c0.673-1.47,1.555-3.57,2.227-5.348l0.238,0.098l-2.086,6.216
		c-0.099,0.28-0.183,0.616-0.183,0.714c0,0.14,0,0.14,0.126,0.7c0.126,0.518,0.183,0.882,0.183,1.162
		c0,0.364-0.099,0.644-0.295,0.868c-0.195,0.224-0.462,0.364-0.686,0.364c-0.182,0-0.308-0.168-0.308-0.42
		c0-0.154,0-0.196,0.182-1.456c0.042-0.266,0.056-0.532,0.07-0.798c0-0.098,0-0.098,0-0.21c0-0.014,0-0.028,0-0.042
		c0-0.434-0.238-0.658-1.093-1.022L4.423,100.376z M5.123,92.285c1.89,0.658,2.31,0.938,2.31,1.582c0,0.434-0.182,0.826-0.392,0.826
		c-0.126,0-0.21-0.084-0.336-0.336c-0.322-0.644-0.742-1.12-1.694-1.918L5.123,92.285z M11.493,95.519H9.575
		c-0.42,0-0.7,0.028-1.036,0.098l-0.098-0.546c0.447,0.098,0.699,0.126,1.134,0.126h5.04c0.35-0.42,0.462-0.56,0.812-0.966
		c0.561,0.434,0.729,0.574,1.246,1.036c0.07,0.07,0.098,0.126,0.098,0.168c0,0.056-0.069,0.084-0.195,0.084h-4.116v3.472h1.806
		c0.351-0.434,0.462-0.574,0.84-0.98c0.589,0.448,0.757,0.602,1.274,1.092c0.056,0.056,0.084,0.098,0.084,0.14
		s-0.056,0.07-0.168,0.07h-3.836v4.34h2.38c0.392-0.448,0.504-0.588,0.896-1.05c0.573,0.49,0.756,0.644,1.315,1.148
		c0.042,0.056,0.07,0.098,0.07,0.14c0,0.056-0.057,0.084-0.168,0.084H8.581c-0.462,0-0.742,0.028-1.162,0.098l-0.112-0.546
		c0.406,0.084,0.784,0.126,1.274,0.126h2.912v-4.34h-2.03c-0.392,0-0.616,0.028-1.008,0.098l-0.098-0.56
		c0.447,0.112,0.686,0.14,1.105,0.14h2.03V95.519z M10.289,92.089c0.854,0.308,1.484,0.602,2.03,0.91
		c0.546,0.322,0.728,0.56,0.728,0.966c0,0.42-0.238,0.868-0.448,0.868c-0.126,0-0.195-0.07-0.378-0.364
		c-0.111-0.182-0.56-0.798-0.784-1.05c-0.252-0.28-0.504-0.518-1.245-1.176L10.289,92.089z"/>
	<path d="M29.875,97.199c0.266-0.35,0.364-0.462,0.644-0.784c0.448,0.378,0.589,0.504,1.022,0.938
		c0.042,0.056,0.07,0.084,0.07,0.098c0,0.042-0.042,0.07-0.084,0.07h-2.717v0.896c0.532,0.238,0.967,0.462,1.358,0.686
		c0.49,0.294,0.644,0.49,0.644,0.84c0,0.378-0.21,0.826-0.378,0.826c-0.111,0-0.182-0.084-0.378-0.448
		c-0.35-0.672-0.686-1.092-1.246-1.596c0,1.624,0.015,2.59,0.07,5.824c-0.028,0.14-0.112,0.182-0.462,0.196
		c-0.084,0-0.182,0-0.294,0.014c-0.014,0-0.028,0-0.042,0c-0.084,0-0.112-0.028-0.112-0.112c0.028-1.274,0.028-1.274,0.042-4.13
		l0.015-1.666c-0.504,1.078-0.757,1.512-1.288,2.268c-0.561,0.756-0.896,1.134-1.639,1.806l-0.126-0.098
		c1.358-1.862,2.059-3.192,2.786-5.306h-1.596c-0.308,0-0.476,0.014-0.714,0.084l-0.084-0.49c0.294,0.07,0.434,0.084,0.798,0.084
		h1.848v-3.444c-0.882,0.196-1.399,0.266-2.534,0.35l-0.042-0.196c1.387-0.322,2.03-0.518,3.011-0.924
		c0.868-0.364,1.204-0.532,1.693-0.868c0.238,0.14,0.406,0.252,0.532,0.322c0.504,0.294,0.63,0.392,0.63,0.504
		c0,0.07-0.084,0.112-0.182,0.112c-0.182,0-0.378-0.028-0.603-0.07c-0.798,0.308-1.092,0.406-1.722,0.588v3.626H29.875z
		 M25.969,94.385c0.854,0.714,1.372,1.344,1.372,1.694c0,0.294-0.322,0.77-0.518,0.77c-0.084,0-0.141-0.07-0.168-0.21
		c-0.252-1.008-0.378-1.344-0.813-2.17L25.969,94.385z M29.217,96.849c0.504-1.372,0.868-2.52,0.966-3.094
		c1.219,0.406,1.274,0.42,1.274,0.546c0,0.112-0.126,0.154-0.518,0.21c-0.211,0.322-0.211,0.322-0.799,1.274
		c-0.21,0.336-0.405,0.616-0.783,1.106L29.217,96.849z M32.745,97.521c-0.084,1.89-0.322,2.996-0.896,4.312
		c-0.588,1.344-1.162,2.086-2.31,2.94l-0.14-0.126c0.909-1.008,1.287-1.582,1.666-2.576c0.602-1.568,0.812-2.982,0.812-5.53
		c0-1.918-0.028-3.094-0.084-4.06c0.49,0.252,0.63,0.336,1.134,0.63h3.304c0.196-0.28,0.267-0.364,0.49-0.63
		c0.393,0.266,0.504,0.35,0.868,0.63c0.084,0.07,0.126,0.112,0.126,0.154c0,0.084-0.084,0.14-0.49,0.35
		c0.028,3.318,0.028,3.318,0.07,4.424c-0.014,0.084-0.028,0.112-0.07,0.14s-0.462,0.056-0.798,0.056
		c-0.084,0-0.126-0.042-0.126-0.126v-0.588h-2.044c0.21,1.148,0.393,1.694,0.868,2.576c0.49,0.952,1.092,1.722,1.792,2.324
		c0.406,0.35,0.742,0.56,1.484,0.952l-0.015,0.14c-0.588,0.056-0.924,0.266-1.26,0.77c-1.386-1.344-1.988-2.31-2.576-4.06
		c-0.266-0.812-0.434-1.498-0.658-2.702H32.745z M36.301,97.199v-3.766h-3.514c-0.028,3.108-0.028,3.374-0.028,3.766H36.301z"/>
</g>
<rect x="24.625" y="65.125" fill="none" stroke="#008CD6" stroke-width="0.25" width="14" height="14"/>
<rect x="3.625" y="65.125" fill="none" stroke="#008CD6" stroke-width="0.25" width="14" height="14"/>
<rect x="0.125" y="58.125" fill="none" stroke="#008CD6" stroke-width="0.25" width="42" height="7"/>
<line fill="none" stroke="#008CD6" stroke-width="0.25" x1="7.125" y1="65.125" x2="7.125" y2="58.125"/>
<line fill="none" stroke="#008CD6" stroke-width="0.25" x1="14.125" y1="65.125" x2="14.125" y2="58.125"/>
<line fill="none" stroke="#008CD6" stroke-width="0.25" x1="21.125" y1="65.125" x2="21.125" y2="58.125"/>
<line fill="none" stroke="#008CD6" stroke-width="0.25" x1="28.125" y1="65.125" x2="28.125" y2="58.125"/>
<line fill="none" stroke="#008CD6" stroke-width="0.25" x1="35.125" y1="65.125" x2="35.125" y2="58.125"/>
</svg>
