<?xml version="1.0" encoding="utf-8"?>
<!-- Generator: Adobe Illustrator 12.0.0, SVG Export Plug-In . SVG Version: 6.00 Build 51448)  -->
<!DOCTYPE svg PUBLIC "-//W3C//DTD SVG 1.1//EN" "http://www.w3.org/Graphics/SVG/1.1/DTD/svg11.dtd" [
	<!ENTITY ns_svg "http://www.w3.org/2000/svg">
	<!ENTITY ns_xlink "http://www.w3.org/1999/xlink">
]>
<svg  version="1.1" id="レイヤー_1" xmlns="&ns_svg;" xmlns:xlink="&ns_xlink;" width="63.375"
	 viewBox="0 0 42.25 46.871" overflow="visible" enable-background="new 0 0 42.25 46.871" xml:space="preserve">
<g>
	<path d="M3.36,0.838c0.168,0,0.356,0.028,0.56,0.084c0.238,0.063,0.351,0.161,0.351,0.301c0,0.056,0,0.056-0.057,0.196
		c-0.077,0.217-0.14,0.651-0.14,1.008c0,0.028,0,0.077,0,0.133c0.07,0.063,0.104,0.077,0.188,0.077c0.267,0,0.806-0.21,1.064-0.413
		c0.077-0.056,0.112-0.077,0.154-0.077c0.063,0,0.202,0.042,0.301,0.091c0.112,0.063,0.146,0.105,0.146,0.168
		c0,0.105-0.091,0.161-0.413,0.28c-0.378,0.14-0.714,0.217-0.973,0.217c-0.203,0-0.314-0.042-0.469-0.175c0,0.133,0,0.245,0,0.308
		c0,0.553,0.035,1.372,0.077,1.827c0.546,0.091,1.063,0.273,1.477,0.511c0.301,0.168,0.435,0.357,0.435,0.602
		c0,0.168-0.05,0.266-0.141,0.266c-0.049,0-0.091-0.028-0.168-0.091C5.159,5.647,4.83,5.458,4.179,5.263
		c0.015,0.329,0.015,0.329,0.015,0.455c0,0.343-0.161,0.567-0.497,0.693C3.528,6.474,3.234,6.516,2.982,6.516
		c-0.735,0-1.197-0.294-1.197-0.763c0-0.336,0.238-0.602,0.679-0.77c0.273-0.105,0.651-0.168,1.016-0.168
		c0.056,0,0.146,0,0.266,0.007C3.703,2.007,3.703,2.007,3.647,1.539c-0.05-0.406-0.154-0.518-0.609-0.595
		C3.15,0.859,3.206,0.838,3.36,0.838z M3.206,5.144c-0.721,0-1.239,0.245-1.239,0.595c0,0.28,0.287,0.441,0.784,0.441
		c0.406,0,0.742-0.112,0.875-0.287C3.717,5.78,3.738,5.633,3.738,5.158C3.514,5.144,3.43,5.144,3.206,5.144z"/>
	<path d="M10.486,6.789c0.413-0.336,0.686-0.623,0.924-1.008c0.364-0.595,0.595-1.407,0.595-2.128c0-0.693-0.252-1.12-0.665-1.12
		c-0.371,0-0.86,0.301-1.344,0.826C9.863,3.492,9.821,3.52,9.709,3.52c-0.146,0-0.314-0.112-0.462-0.315
		C9.128,3.043,9.058,2.861,9.058,2.735c0-0.091,0.028-0.154,0.112-0.259c0.063,0.308,0.203,0.483,0.385,0.483
		c0.099,0,0.28-0.077,0.645-0.273c0.595-0.322,0.826-0.399,1.183-0.399c0.322,0,0.665,0.182,0.868,0.469
		c0.168,0.245,0.266,0.609,0.266,1.029c0,0.826-0.314,1.645-0.867,2.261c-0.344,0.378-0.7,0.644-1.1,0.819L10.486,6.789z
		 M10.101,0.425c0.344,0.287,0.819,0.448,1.31,0.448h0.161c0.14,0,0.237,0.049,0.378,0.168c0.098,0.084,0.146,0.168,0.146,0.238
		c0,0.098-0.098,0.154-0.287,0.154C11.515,1.44,11.515,1.44,10.066,1.86l-0.035-0.098c0.524-0.238,1.008-0.455,1.183-0.518
		c-0.574-0.119-0.917-0.336-1.183-0.763L10.101,0.425z"/>
	<path fill="#ED6E46" d="M18.907,1.356c0.217,0.259,0.336,0.329,0.595,0.329c0.42,0,0.945-0.182,1.33-0.455
		c0.028-0.021,0.063-0.035,0.098-0.035c0.141,0,0.393,0.21,0.393,0.336c0,0.063-0.028,0.084-0.231,0.189
		c-0.287,0.14-0.63,0.434-0.889,0.763c-0.504,0.623-0.771,1.316-0.771,1.995c0,0.945,0.525,1.533,1.358,1.533
		c0.637,0,1.197-0.35,1.519-0.945c0.231-0.441,0.351-1.029,0.351-1.771c0-0.735-0.07-1.316-0.231-1.897
		c-0.021-0.07-0.035-0.147-0.035-0.168c0-0.07,0.057-0.126,0.134-0.126h0.007c0.104,0.007,0.252,0.084,0.336,0.175
		c0.084,0.077,0.098,0.112,0.104,0.259c0.028,0.322,0.273,1.043,0.561,1.61c0.196,0.399,0.364,0.651,0.56,0.847
		c0.133,0.133,0.203,0.343,0.203,0.581c0,0.161-0.063,0.273-0.161,0.273c-0.161,0-0.35-0.245-0.63-0.812
		c-0.287-0.588-0.476-1.099-0.749-2.009l-0.021,0.007c0.14,0.994,0.161,1.246,0.161,1.757c0,0.931-0.203,1.603-0.623,2.079
		c-0.336,0.385-0.841,0.602-1.372,0.602c-1.043,0-1.729-0.784-1.729-1.981c0-0.441,0.099-0.938,0.28-1.379
		c0.168-0.42,0.357-0.735,0.714-1.19c-0.238,0.042-0.399,0.063-0.539,0.063c-0.392,0-0.637-0.168-0.819-0.56L18.907,1.356z"/>
	<path d="M37.828,5.053c-0.672,0.91-1.589,1.449-2.457,1.449c-0.532,0-0.945-0.217-1.162-0.595c-0.14-0.245-0.196-0.588-0.196-1.183
		c0-0.385,0.021-1.05,0.057-1.687c0.042-0.756,0.049-0.952,0.049-1.204c0-0.602-0.07-0.721-0.567-0.931
		c0.077-0.056,0.119-0.07,0.196-0.07c0.161,0,0.413,0.063,0.63,0.161c0.266,0.126,0.406,0.266,0.406,0.413
		c0,0.049-0.007,0.091-0.063,0.252c-0.133,0.42-0.363,2.541-0.363,3.36c0,0.427,0.084,0.679,0.279,0.84
		c0.154,0.119,0.378,0.189,0.623,0.189c0.477,0,1.064-0.168,1.597-0.448c0.321-0.168,0.524-0.315,0.889-0.623L37.828,5.053z"/>
	<path d="M7.875,13.159h2.688c0.308-0.406,0.405-0.518,0.741-0.882c0.532,0.42,0.7,0.56,1.219,1.036
		c0.027,0.028,0.056,0.07,0.056,0.098c0,0.042-0.07,0.07-0.168,0.07H7.875v2.562h3.906c0.363-0.434,0.476-0.56,0.854-0.952
		c0.546,0.462,0.7,0.616,1.218,1.106c0.028,0.028,0.042,0.07,0.042,0.084c0,0.042-0.069,0.084-0.14,0.084h-5.88v0.742
		c0,1.666,0.014,2.688,0.028,3.066c-0.028,0.112-0.057,0.14-0.168,0.168c-0.084,0.028-0.532,0.07-0.687,0.07
		c-0.153,0-0.21-0.042-0.21-0.168c0.028-0.994,0.042-2.016,0.042-3.136v-0.742h-4.2c-0.476,0-1.05,0.028-1.414,0.07l-0.098-0.532
		c0.588,0.098,1.064,0.14,1.61,0.14h4.102V13.48H3.843c-0.294,0-0.798,0.028-1.26,0.084l-0.084-0.518
		c0.532,0.084,0.91,0.112,1.4,0.112h2.981v-2.31H3.213c-0.322,0-0.77,0.028-1.26,0.098l-0.07-0.574
		c0.42,0.084,1.008,0.154,1.33,0.154h2.17c-0.153-0.14-0.153-0.154-0.294-0.56C4.977,9.589,4.711,9.084,4.445,8.651
		C4.291,8.427,4.151,8.272,3.843,7.965l0.126-0.168c0.672,0.336,1.064,0.602,1.568,1.05c0.392,0.364,0.56,0.616,0.56,0.868
		c0,0.266-0.153,0.574-0.392,0.812h2.604c0.841-1.316,1.051-1.736,1.387-2.73c1.273,0.392,1.554,0.504,1.554,0.658
		c0,0.154-0.14,0.196-0.686,0.196c-0.868,0.966-1.106,1.204-1.891,1.876h2.688c0.321-0.434,0.42-0.56,0.77-0.966
		c0.561,0.448,0.729,0.588,1.232,1.078c0.027,0.042,0.056,0.084,0.056,0.112c0,0.056-0.084,0.098-0.196,0.098H7.875V13.159z"/>
	<path fill="#ED6E46" d="M16.219,20.131c1.933-0.63,2.954-1.12,4.103-1.96c0.405-0.294,0.742-0.574,1.063-0.868
		c-1.218-1.26-1.932-2.422-2.394-3.864h-1.092c-0.07,1.708-0.309,2.856-0.784,4.032c-0.49,1.19-1.008,1.932-2.03,2.912l-0.154-0.14
		c0.883-1.162,1.303-2.058,1.639-3.43c0.279-1.19,0.405-2.59,0.405-4.69c0-1.358-0.014-2.016-0.069-2.884
		c0.532,0.336,0.7,0.434,1.218,0.798h2.912V9.603c-0.014-1.064-0.042-1.708-0.056-1.932c1.329,0.154,1.693,0.238,1.693,0.378
		c0,0.112-0.21,0.224-0.658,0.322v1.666h3.305c0.279-0.308,0.363-0.406,0.657-0.7c0.547,0.392,0.715,0.518,1.246,0.98
		c0.057,0.056,0.07,0.098,0.07,0.126c0,0.014-0.028,0.07-0.056,0.084c-0.057,0.042-0.196,0.07-0.351,0.098l-0.266,0.028
		c-0.084,0.014-0.182,0.028-0.266,0.042c-0.673,0.644-0.91,0.868-1.498,1.372l-0.126-0.126c0.321-0.7,0.434-0.966,0.644-1.582h-3.36
		v2.758h2.017c0.252-0.294,0.336-0.378,0.602-0.672c0.42,0.392,0.546,0.504,0.924,0.896c0.057,0.056,0.07,0.084,0.07,0.126
		c0,0.084-0.014,0.098-0.63,0.266c-0.771,1.554-1.442,2.548-2.464,3.598c1.54,0.966,3.094,1.456,5.277,1.638l-0.014,0.196
		c-0.658,0.126-0.812,0.28-1.036,1.022c-2.142-0.616-3.527-1.288-4.788-2.338c-0.531,0.462-1.021,0.798-1.666,1.148
		c-1.134,0.602-2.155,0.938-4.031,1.33L16.219,20.131z M21.035,10.359h-3.094c0,0.112-0.015,1.036-0.028,2.758h3.122V10.359z
		 M19.285,13.438c0.644,1.484,1.357,2.436,2.562,3.402c1.009-1.092,1.61-2.03,2.185-3.402H19.285z"/>
	<path d="M28.917,20.005c0.49-1.498,0.771-3.038,0.813-4.494c1.05,0.182,1.245,0.238,1.245,0.364c0,0.098-0.098,0.154-0.405,0.238
		c-0.406,1.75-0.714,2.59-1.442,3.99L28.917,20.005z M29.183,9.967c0.463,0.238,0.631,0.336,0.91,0.504
		c0.267-0.42,0.336-0.532,0.561-1.05c0.378-0.84,0.476-1.148,0.574-1.75c1.134,0.364,1.47,0.518,1.47,0.644
		c0,0.112-0.141,0.168-0.546,0.224c-0.561,0.812-0.687,0.952-1.807,2.086c0.574,0.378,0.798,0.658,0.798,1.022
		c0,0.308-0.21,0.742-0.35,0.742c-0.084,0-0.154-0.084-0.252-0.266c-0.336-0.686-0.644-1.134-1.414-2.002L29.183,9.967z
		 M31.283,14.265c-0.729,0.154-0.91,0.182-1.526,0.294c-0.084,0.462-0.126,0.56-0.237,0.56c-0.057,0-0.099-0.042-0.127-0.112
		c0-0.028-0.098-0.462-0.266-1.274c0.252,0.014,0.42,0.028,0.532,0.028s0.252,0,0.462-0.014c0.126-0.014,0.126-0.014,0.406-0.028
		c0.447-0.658,0.615-0.91,1.063-1.75c0.784-1.442,1.022-1.932,1.246-2.604c1.064,0.406,1.456,0.588,1.456,0.7
		c0,0.126-0.154,0.168-0.672,0.182c-0.392,0.588-0.672,0.952-2.016,2.674c-0.378,0.476-0.378,0.476-0.645,0.77
		c0.14,0,0.14,0,0.393-0.014c0.308-0.028,0.615-0.056,1.777-0.21c-0.168-0.364-0.266-0.504-0.602-0.994l0.182-0.14
		c0.504,0.378,0.924,0.784,1.288,1.218c0.224,0.28,0.294,0.448,0.294,0.672c0,0.392-0.266,0.868-0.476,0.868
		c-0.099,0-0.168-0.112-0.238-0.364c-0.042-0.126-0.14-0.434-0.322-0.952c-0.532,0.168-0.602,0.182-1.105,0.308v3.178
		c0,1.512,0,1.512,0.027,3.066c0,0.028,0,0.056,0,0.07c0,0.07-0.027,0.112-0.098,0.14c-0.084,0.042-0.504,0.084-0.714,0.084
		c-0.098,0-0.14-0.042-0.14-0.14c0,0,0-0.014,0-0.028c0.056-1.12,0.056-1.12,0.056-3.08V14.265z M32.739,15.301
		c0.798,0.924,1.273,1.75,1.273,2.212c0,0.364-0.363,0.924-0.602,0.924c-0.112,0-0.168-0.126-0.21-0.476
		c-0.014-0.238-0.098-0.798-0.168-1.176c-0.084-0.546-0.183-0.854-0.42-1.386L32.739,15.301z M39.543,12.921
		c0.378-0.462,0.504-0.602,0.882-1.036c0.574,0.448,0.742,0.602,1.274,1.12c0.027,0.056,0.056,0.098,0.056,0.126
		c0,0.056-0.056,0.084-0.14,0.084l-2.912,0.07c0.07,1.078,0.196,1.764,0.434,2.562c0.364,1.19,0.714,1.834,1.414,2.604
		c0.336-0.49,0.393-0.588,0.672-1.162c0.084-0.154,0.154-0.308,0.225-0.462c0.069-0.154,0.182-0.364,0.321-0.672l0.169,0.07
		l-0.49,2.156c-0.057,0.21-0.099,0.518-0.099,0.658c0,0.154,0.015,0.182,0.21,0.49c0.07,0.112,0.099,0.182,0.099,0.294
		c0,0.238-0.168,0.448-0.336,0.448c-0.42,0-1.036-0.462-1.568-1.204c-0.812-1.106-1.414-2.506-1.694-3.948
		c-0.098-0.504-0.153-0.994-0.224-1.82l-2.156,0.056v5.376c0.854-0.21,0.938-0.238,2.702-0.742l0.084,0.168
		c-1.189,0.602-1.988,0.966-4.214,1.904c-0.028,0.378-0.098,0.56-0.238,0.56c-0.056,0-0.084-0.042-0.126-0.126
		c-0.098-0.224-0.294-0.84-0.434-1.344c0.434-0.014,0.63-0.042,1.33-0.21v-7.938c0.028-1.008,0.028-1.008,0.028-1.05
		c0-0.112,0-0.294-0.015-0.602c0-0.112-0.014-0.28-0.014-0.504c0.462,0.266,0.588,0.35,0.979,0.644
		c1.652-0.378,2.969-0.938,4.2-1.778c0.28,0.182,0.504,0.308,0.645,0.392c0.504,0.294,0.644,0.406,0.644,0.504
		c0,0.098-0.126,0.168-0.28,0.168c-0.153,0-0.35-0.014-0.546-0.056c-0.742,0.238-0.952,0.294-1.819,0.504
		c-0.015,0.588-0.015,0.742-0.015,1.19c0,0.798,0.028,1.638,0.084,2.534L39.543,12.921z M37.807,12.963
		c-0.069-1.008-0.098-2.044-0.098-3.164V9.421c-0.266,0.056-0.462,0.098-0.588,0.126c-0.658,0.154-0.784,0.182-1.442,0.28v3.192
		L37.807,12.963z"/>
</g>
<g>
	<path d="M3.36,27.088c0.168,0,0.356,0.028,0.56,0.084c0.238,0.063,0.351,0.161,0.351,0.301c0,0.056,0,0.056-0.057,0.196
		c-0.077,0.217-0.14,0.651-0.14,1.008c0,0.028,0,0.077,0,0.133c0.07,0.063,0.104,0.077,0.188,0.077c0.267,0,0.806-0.21,1.064-0.413
		c0.077-0.056,0.112-0.077,0.154-0.077c0.063,0,0.202,0.042,0.301,0.091c0.112,0.063,0.146,0.105,0.146,0.168
		c0,0.105-0.091,0.161-0.413,0.28c-0.378,0.14-0.714,0.217-0.973,0.217c-0.203,0-0.314-0.042-0.469-0.175c0,0.133,0,0.245,0,0.308
		c0,0.553,0.035,1.372,0.077,1.827c0.546,0.091,1.063,0.273,1.477,0.511c0.301,0.168,0.435,0.357,0.435,0.602
		c0,0.168-0.05,0.266-0.141,0.266c-0.049,0-0.091-0.028-0.168-0.091c-0.595-0.504-0.924-0.693-1.575-0.889
		c0.015,0.329,0.015,0.329,0.015,0.455c0,0.343-0.161,0.567-0.497,0.693c-0.168,0.063-0.462,0.105-0.714,0.105
		c-0.735,0-1.197-0.294-1.197-0.763c0-0.336,0.238-0.602,0.679-0.77c0.273-0.105,0.651-0.168,1.016-0.168
		c0.056,0,0.146,0,0.266,0.007c-0.042-2.814-0.042-2.814-0.098-3.283c-0.05-0.406-0.154-0.518-0.609-0.595
		C3.15,27.109,3.206,27.088,3.36,27.088z M3.206,31.394c-0.721,0-1.239,0.245-1.239,0.595c0,0.28,0.287,0.441,0.784,0.441
		c0.406,0,0.742-0.112,0.875-0.287c0.091-0.112,0.112-0.259,0.112-0.735C3.514,31.394,3.43,31.394,3.206,31.394z"/>
	<path d="M10.486,33.039c0.413-0.336,0.686-0.623,0.924-1.008c0.364-0.595,0.595-1.407,0.595-2.128c0-0.693-0.252-1.12-0.665-1.12
		c-0.371,0-0.86,0.301-1.344,0.826c-0.133,0.133-0.175,0.161-0.287,0.161c-0.146,0-0.314-0.112-0.462-0.315
		c-0.119-0.161-0.189-0.343-0.189-0.469c0-0.091,0.028-0.154,0.112-0.259c0.063,0.308,0.203,0.483,0.385,0.483
		c0.099,0,0.28-0.077,0.645-0.273c0.595-0.322,0.826-0.399,1.183-0.399c0.322,0,0.665,0.182,0.868,0.469
		c0.168,0.245,0.266,0.609,0.266,1.029c0,0.826-0.314,1.645-0.867,2.261c-0.344,0.378-0.7,0.644-1.1,0.819L10.486,33.039z
		 M10.101,26.675c0.344,0.287,0.819,0.448,1.31,0.448h0.161c0.14,0,0.237,0.049,0.378,0.168c0.098,0.084,0.146,0.168,0.146,0.238
		c0,0.098-0.098,0.154-0.287,0.154c-0.294,0.007-0.294,0.007-1.742,0.427l-0.035-0.098c0.524-0.238,1.008-0.455,1.183-0.518
		c-0.574-0.119-0.917-0.336-1.183-0.763L10.101,26.675z"/>
	<path d="M18.907,27.606c0.217,0.259,0.336,0.329,0.595,0.329c0.42,0,0.945-0.182,1.33-0.455c0.028-0.021,0.063-0.035,0.098-0.035
		c0.141,0,0.393,0.21,0.393,0.336c0,0.063-0.028,0.084-0.231,0.189c-0.287,0.14-0.63,0.434-0.889,0.763
		c-0.504,0.623-0.771,1.316-0.771,1.995c0,0.945,0.525,1.533,1.358,1.533c0.637,0,1.197-0.35,1.519-0.945
		c0.231-0.441,0.351-1.029,0.351-1.771c0-0.735-0.07-1.316-0.231-1.897c-0.021-0.07-0.035-0.147-0.035-0.168
		c0-0.07,0.057-0.126,0.134-0.126h0.007c0.104,0.007,0.252,0.084,0.336,0.175c0.084,0.077,0.098,0.112,0.104,0.259
		c0.028,0.322,0.273,1.043,0.561,1.61c0.196,0.399,0.364,0.651,0.56,0.847c0.133,0.133,0.203,0.343,0.203,0.581
		c0,0.161-0.063,0.273-0.161,0.273c-0.161,0-0.35-0.245-0.63-0.812c-0.287-0.588-0.476-1.099-0.749-2.009l-0.021,0.007
		c0.14,0.994,0.161,1.246,0.161,1.757c0,0.931-0.203,1.603-0.623,2.079c-0.336,0.385-0.841,0.602-1.372,0.602
		c-1.043,0-1.729-0.784-1.729-1.981c0-0.441,0.099-0.938,0.28-1.379c0.168-0.42,0.357-0.735,0.714-1.19
		c-0.238,0.042-0.399,0.063-0.539,0.063c-0.392,0-0.637-0.168-0.819-0.56L18.907,27.606z"/>
	<path d="M37.828,31.303c-0.672,0.91-1.589,1.449-2.457,1.449c-0.532,0-0.945-0.217-1.162-0.595
		c-0.14-0.245-0.196-0.588-0.196-1.183c0-0.385,0.021-1.05,0.057-1.687c0.042-0.756,0.049-0.952,0.049-1.204
		c0-0.602-0.07-0.721-0.567-0.931c0.077-0.056,0.119-0.07,0.196-0.07c0.161,0,0.413,0.063,0.63,0.161
		c0.266,0.126,0.406,0.266,0.406,0.413c0,0.049-0.007,0.091-0.063,0.252c-0.133,0.42-0.363,2.541-0.363,3.36
		c0,0.427,0.084,0.679,0.279,0.84c0.154,0.119,0.378,0.189,0.623,0.189c0.477,0,1.064-0.168,1.597-0.448
		c0.321-0.168,0.524-0.315,0.889-0.623L37.828,31.303z"/>
	<path d="M7.875,39.409h2.688c0.308-0.406,0.405-0.518,0.741-0.882c0.532,0.42,0.7,0.56,1.219,1.036
		c0.027,0.028,0.056,0.07,0.056,0.098c0,0.042-0.07,0.07-0.168,0.07H7.875v2.562h3.906c0.363-0.434,0.476-0.56,0.854-0.952
		c0.546,0.462,0.7,0.616,1.218,1.106c0.028,0.028,0.042,0.07,0.042,0.084c0,0.042-0.069,0.084-0.14,0.084h-5.88v0.742
		c0,1.666,0.014,2.688,0.028,3.066c-0.028,0.112-0.057,0.14-0.168,0.168c-0.084,0.028-0.532,0.07-0.687,0.07
		c-0.153,0-0.21-0.042-0.21-0.168c0.028-0.994,0.042-2.016,0.042-3.136v-0.742h-4.2c-0.476,0-1.05,0.028-1.414,0.07l-0.098-0.532
		c0.588,0.098,1.064,0.14,1.61,0.14h4.102V39.73H3.843c-0.294,0-0.798,0.028-1.26,0.084l-0.084-0.518
		c0.532,0.084,0.91,0.112,1.4,0.112h2.981v-2.31H3.213c-0.322,0-0.77,0.028-1.26,0.098l-0.07-0.574
		c0.42,0.084,1.008,0.154,1.33,0.154h2.17c-0.153-0.14-0.153-0.154-0.294-0.56c-0.112-0.378-0.378-0.882-0.644-1.316
		c-0.154-0.224-0.294-0.378-0.603-0.686l0.126-0.168c0.672,0.336,1.064,0.602,1.568,1.05c0.392,0.364,0.56,0.616,0.56,0.868
		c0,0.266-0.153,0.574-0.392,0.812h2.604c0.841-1.316,1.051-1.736,1.387-2.73c1.273,0.392,1.554,0.504,1.554,0.658
		c0,0.154-0.14,0.196-0.686,0.196c-0.868,0.966-1.106,1.204-1.891,1.876h2.688c0.321-0.434,0.42-0.56,0.77-0.966
		c0.561,0.448,0.729,0.588,1.232,1.078c0.027,0.042,0.056,0.084,0.056,0.112c0,0.056-0.084,0.098-0.196,0.098H7.875V39.409z"/>
	<path d="M16.219,46.381c1.933-0.63,2.954-1.12,4.103-1.96c0.405-0.294,0.742-0.574,1.063-0.868
		c-1.218-1.26-1.932-2.422-2.394-3.864h-1.092c-0.07,1.708-0.309,2.856-0.784,4.032c-0.49,1.19-1.008,1.932-2.03,2.912l-0.154-0.14
		c0.883-1.162,1.303-2.058,1.639-3.43c0.279-1.19,0.405-2.59,0.405-4.69c0-1.358-0.014-2.016-0.069-2.884
		c0.532,0.336,0.7,0.434,1.218,0.798h2.912v-0.434c-0.014-1.064-0.042-1.708-0.056-1.932c1.329,0.154,1.693,0.238,1.693,0.378
		c0,0.112-0.21,0.224-0.658,0.322v1.666h3.305c0.279-0.308,0.363-0.406,0.657-0.7c0.547,0.392,0.715,0.518,1.246,0.98
		c0.057,0.056,0.07,0.098,0.07,0.126c0,0.014-0.028,0.07-0.056,0.084c-0.057,0.042-0.196,0.07-0.351,0.098l-0.266,0.028
		c-0.084,0.014-0.182,0.028-0.266,0.042c-0.673,0.644-0.91,0.868-1.498,1.372l-0.126-0.126c0.321-0.7,0.434-0.966,0.644-1.582h-3.36
		v2.758h2.017c0.252-0.294,0.336-0.378,0.602-0.672c0.42,0.392,0.546,0.504,0.924,0.896c0.057,0.056,0.07,0.084,0.07,0.126
		c0,0.084-0.014,0.098-0.63,0.266c-0.771,1.554-1.442,2.548-2.464,3.598c1.54,0.966,3.094,1.456,5.277,1.638l-0.014,0.196
		c-0.658,0.126-0.812,0.28-1.036,1.022c-2.142-0.616-3.527-1.288-4.788-2.338c-0.531,0.462-1.021,0.798-1.666,1.148
		c-1.134,0.602-2.155,0.938-4.031,1.33L16.219,46.381z M21.035,36.609h-3.094c0,0.112-0.015,1.036-0.028,2.758h3.122V36.609z
		 M19.285,39.688c0.644,1.484,1.357,2.436,2.562,3.402c1.009-1.092,1.61-2.03,2.185-3.402H19.285z"/>
	<path d="M28.917,46.255c0.49-1.498,0.771-3.038,0.813-4.494c1.05,0.182,1.245,0.238,1.245,0.364c0,0.098-0.098,0.154-0.405,0.238
		c-0.406,1.75-0.714,2.59-1.442,3.99L28.917,46.255z M29.183,36.217c0.463,0.238,0.631,0.336,0.91,0.504
		c0.267-0.42,0.336-0.532,0.561-1.05c0.378-0.84,0.476-1.148,0.574-1.75c1.134,0.364,1.47,0.518,1.47,0.644
		c0,0.112-0.141,0.168-0.546,0.224c-0.561,0.812-0.687,0.952-1.807,2.086c0.574,0.378,0.798,0.658,0.798,1.022
		c0,0.308-0.21,0.742-0.35,0.742c-0.084,0-0.154-0.084-0.252-0.266c-0.336-0.686-0.644-1.134-1.414-2.002L29.183,36.217z
		 M31.283,40.515c-0.729,0.154-0.91,0.182-1.526,0.294c-0.084,0.462-0.126,0.56-0.237,0.56c-0.057,0-0.099-0.042-0.127-0.112
		c0-0.028-0.098-0.462-0.266-1.274c0.252,0.014,0.42,0.028,0.532,0.028s0.252,0,0.462-0.014c0.126-0.014,0.126-0.014,0.406-0.028
		c0.447-0.658,0.615-0.91,1.063-1.75c0.784-1.442,1.022-1.932,1.246-2.604c1.064,0.406,1.456,0.588,1.456,0.7
		c0,0.126-0.154,0.168-0.672,0.182c-0.392,0.588-0.672,0.952-2.016,2.674c-0.378,0.476-0.378,0.476-0.645,0.77
		c0.14,0,0.14,0,0.393-0.014c0.308-0.028,0.615-0.056,1.777-0.21c-0.168-0.364-0.266-0.504-0.602-0.994l0.182-0.14
		c0.504,0.378,0.924,0.784,1.288,1.218c0.224,0.28,0.294,0.448,0.294,0.672c0,0.392-0.266,0.868-0.476,0.868
		c-0.099,0-0.168-0.112-0.238-0.364c-0.042-0.126-0.14-0.434-0.322-0.952c-0.532,0.168-0.602,0.182-1.105,0.308v3.178
		c0,1.512,0,1.512,0.027,3.066c0,0.028,0,0.056,0,0.07c0,0.07-0.027,0.112-0.098,0.14c-0.084,0.042-0.504,0.084-0.714,0.084
		c-0.098,0-0.14-0.042-0.14-0.14c0,0,0-0.014,0-0.028c0.056-1.12,0.056-1.12,0.056-3.08V40.515z M32.739,41.551
		c0.798,0.924,1.273,1.75,1.273,2.212c0,0.364-0.363,0.924-0.602,0.924c-0.112,0-0.168-0.126-0.21-0.476
		c-0.014-0.238-0.098-0.798-0.168-1.176c-0.084-0.546-0.183-0.854-0.42-1.386L32.739,41.551z M39.543,39.171
		c0.378-0.462,0.504-0.602,0.882-1.036c0.574,0.448,0.742,0.602,1.274,1.12c0.027,0.056,0.056,0.098,0.056,0.126
		c0,0.056-0.056,0.084-0.14,0.084l-2.912,0.07c0.07,1.078,0.196,1.764,0.434,2.562c0.364,1.19,0.714,1.834,1.414,2.604
		c0.336-0.49,0.393-0.588,0.672-1.162c0.084-0.154,0.154-0.308,0.225-0.462c0.069-0.154,0.182-0.364,0.321-0.672l0.169,0.07
		l-0.49,2.156c-0.057,0.21-0.099,0.518-0.099,0.658c0,0.154,0.015,0.182,0.21,0.49c0.07,0.112,0.099,0.182,0.099,0.294
		c0,0.238-0.168,0.448-0.336,0.448c-0.42,0-1.036-0.462-1.568-1.204c-0.812-1.106-1.414-2.506-1.694-3.948
		c-0.098-0.504-0.153-0.994-0.224-1.82l-2.156,0.056v5.376c0.854-0.21,0.938-0.238,2.702-0.742l0.084,0.168
		c-1.189,0.602-1.988,0.966-4.214,1.904c-0.028,0.378-0.098,0.56-0.238,0.56c-0.056,0-0.084-0.042-0.126-0.126
		c-0.098-0.224-0.294-0.84-0.434-1.344c0.434-0.014,0.63-0.042,1.33-0.21v-7.938c0.028-1.008,0.028-1.008,0.028-1.05
		c0-0.112,0-0.294-0.015-0.602c0-0.112-0.014-0.28-0.014-0.504c0.462,0.266,0.588,0.35,0.979,0.644
		c1.652-0.378,2.969-0.938,4.2-1.778c0.28,0.182,0.504,0.308,0.645,0.392c0.504,0.294,0.644,0.406,0.644,0.504
		c0,0.098-0.126,0.168-0.28,0.168c-0.153,0-0.35-0.014-0.546-0.056c-0.742,0.238-0.952,0.294-1.819,0.504
		c-0.015,0.588-0.015,0.742-0.015,1.19c0,0.798,0.028,1.638,0.084,2.534L39.543,39.171z M37.807,39.213
		c-0.069-1.008-0.098-2.044-0.098-3.164v-0.378c-0.266,0.056-0.462,0.098-0.588,0.126c-0.658,0.154-0.784,0.182-1.442,0.28v3.192
		L37.807,39.213z"/>
</g>
<rect x="0.125" y="7.125" fill="none" stroke="#008CD6" stroke-width="0.25" width="42" height="14"/>
<line fill="none" stroke="#008CD6" stroke-width="0.25" x1="14.125" y1="21.125" x2="14.125" y2="7.125"/>
<line fill="none" stroke="#008CD6" stroke-width="0.25" x1="28.125" y1="21.125" x2="28.125" y2="7.125"/>
<polyline fill="none" stroke="#008CD6" stroke-width="0.25" points="0.125,7.125 0.125,0.125 14.125,0.125 14.125,7.125 "/>
<line fill="none" stroke="#008CD6" stroke-width="0.25" x1="7.125" y1="7.125" x2="7.125" y2="0.125"/>
<polyline fill="none" stroke="#008CD6" stroke-width="0.25" points="17.625,7.125 17.625,0.125 24.625,0.125 24.625,7.125 "/>
<polyline fill="none" stroke="#008CD6" stroke-width="0.25" points="31.625,7.125 31.625,0.125 38.625,0.125 38.625,7.125 "/>
</svg>
