<?xml version="1.0" encoding="utf-8"?>
<!-- Generator: Adobe Illustrator 12.0.0, SVG Export Plug-In . SVG Version: 6.00 Build 51448)  -->
<!DOCTYPE svg PUBLIC "-//W3C//DTD SVG 1.1//EN" "http://www.w3.org/Graphics/SVG/1.1/DTD/svg11.dtd" [
	<!ENTITY ns_svg "http://www.w3.org/2000/svg">
	<!ENTITY ns_xlink "http://www.w3.org/1999/xlink">
]>
<svg  version="1.1" id="レイヤー_1" xmlns="&ns_svg;" xmlns:xlink="&ns_xlink;" width="288.699"
	 viewBox="0 0 192.466 95.5" overflow="visible" enable-background="new 0 0 192.466 95.5" xml:space="preserve">
<g>
	<path d="M176.843,5.277c-0.672,0.91-1.589,1.449-2.457,1.449c-0.532,0-0.945-0.217-1.162-0.595
		c-0.14-0.245-0.196-0.588-0.196-1.183c0-0.385,0.021-1.05,0.057-1.687c0.042-0.756,0.049-0.952,0.049-1.204
		c0-0.602-0.07-0.721-0.567-0.931c0.077-0.056,0.119-0.07,0.196-0.07c0.161,0,0.413,0.063,0.63,0.161
		c0.266,0.126,0.406,0.266,0.406,0.413c0,0.049-0.007,0.091-0.063,0.252c-0.133,0.42-0.363,2.541-0.363,3.36
		c0,0.427,0.084,0.679,0.279,0.84c0.154,0.119,0.378,0.189,0.623,0.189c0.477,0,1.064-0.168,1.597-0.448
		c0.321-0.168,0.524-0.315,0.889-0.623L176.843,5.277z"/>
	<path d="M180.686,6.894c0.546-0.434,0.756-0.686,1.029-1.246c-0.322-0.098-0.574-0.266-0.813-0.539
		c-0.308-0.371-0.476-0.924-0.476-1.582c0-0.049,0-0.133,0.007-0.259c-0.56,0.623-0.917,1.386-0.917,1.946c0,0.049,0,0.091,0,0.126
		c0.007,0.049,0.007,0.091,0.007,0.112c0,0.112-0.077,0.196-0.175,0.196c-0.238,0-0.413-0.588-0.413-1.414
		c0-0.357,0.021-0.672,0.084-1.176c0.035-0.322,0.042-0.42,0.042-0.553c0-0.231-0.098-0.462-0.266-0.637
		c0.146,0,0.23,0.042,0.406,0.182c0.224,0.196,0.378,0.427,0.378,0.581c0,0.07-0.008,0.098-0.084,0.259
		c-0.154,0.336-0.267,0.903-0.267,1.365c0,0.126,0.007,0.203,0.035,0.371c0.413-0.819,0.651-1.162,1.183-1.673
		c0.092-0.714,0.231-1.113,0.497-1.442c0.154-0.196,0.364-0.301,0.588-0.301c0.196,0,0.421,0.098,0.561,0.245
		c0.161,0.168,0.238,0.308,0.35,0.63c0.042,0,0.084,0,0.099,0c0.392,0,0.763,0.119,1.092,0.35c0.448,0.308,0.693,0.805,0.693,1.372
		c0,1.085-0.875,1.925-2.01,1.925c-0.049,0-0.111,0-0.217-0.007c-0.427,0.651-0.777,0.98-1.351,1.253L180.686,6.894z M180.644,3.03
		c-0.007,0.168-0.014,0.266-0.014,0.343c0,0.651,0.203,1.232,0.546,1.547c0.21,0.196,0.392,0.301,0.679,0.385
		c0.189-0.609,0.28-1.288,0.28-2.1c0-0.399-0.014-0.623-0.07-0.91C181.47,2.421,181.078,2.624,180.644,3.03z M182.037,2.127
		c-0.126-0.532-0.294-0.756-0.567-0.756c-0.392,0-0.679,0.49-0.805,1.393C181.112,2.421,181.512,2.232,182.037,2.127z
		 M182.618,3.429c0,0.756-0.112,1.358-0.351,1.932c0.924,0,1.582-0.693,1.582-1.659c0-0.553-0.21-1.001-0.588-1.246
		c-0.231-0.147-0.434-0.21-0.777-0.217C182.583,2.729,182.618,3.03,182.618,3.429z"/>
	<path d="M188.001,7.013c0.413-0.336,0.686-0.623,0.924-1.008c0.364-0.595,0.595-1.407,0.595-2.128c0-0.693-0.252-1.12-0.665-1.12
		c-0.371,0-0.86,0.301-1.344,0.826c-0.133,0.133-0.175,0.161-0.287,0.161c-0.146,0-0.314-0.112-0.462-0.315
		c-0.119-0.161-0.189-0.343-0.189-0.469c0-0.091,0.028-0.154,0.112-0.259c0.063,0.308,0.203,0.483,0.385,0.483
		c0.099,0,0.28-0.077,0.645-0.273c0.595-0.322,0.826-0.399,1.183-0.399c0.322,0,0.665,0.182,0.868,0.469
		c0.168,0.245,0.266,0.609,0.266,1.029c0,0.826-0.314,1.645-0.867,2.261c-0.344,0.378-0.7,0.644-1.1,0.819L188.001,7.013z
		 M187.615,0.65c0.344,0.287,0.819,0.448,1.31,0.448h0.161c0.14,0,0.237,0.049,0.378,0.168c0.098,0.084,0.146,0.168,0.146,0.238
		c0,0.098-0.098,0.154-0.287,0.154c-0.294,0.007-0.294,0.007-1.742,0.427l-0.035-0.098c0.524-0.238,1.008-0.455,1.183-0.518
		c-0.574-0.119-0.917-0.336-1.183-0.763L187.615,0.65z"/>
	<path d="M118.26,14.377c0,0.532-0.42,0.952-0.952,0.952c-0.518,0-0.952-0.434-0.952-0.952s0.435-0.952,0.952-0.952
		C117.84,13.425,118.26,13.845,118.26,14.377z M122.922,14.377c0,0.532-0.42,0.952-0.952,0.952c-0.518,0-0.952-0.434-0.952-0.952
		s0.435-0.952,0.952-0.952C122.502,13.425,122.922,13.845,122.922,14.377z M127.598,14.377c0,0.532-0.42,0.952-0.952,0.952
		c-0.518,0-0.952-0.434-0.952-0.952s0.435-0.952,0.952-0.952C127.178,13.425,127.598,13.845,127.598,14.377z"/>
	<path d="M132.26,14.377c0,0.532-0.42,0.952-0.952,0.952c-0.518,0-0.952-0.434-0.952-0.952s0.435-0.952,0.952-0.952
		C131.84,13.425,132.26,13.845,132.26,14.377z M136.922,14.377c0,0.532-0.42,0.952-0.952,0.952c-0.518,0-0.952-0.434-0.952-0.952
		s0.435-0.952,0.952-0.952C136.502,13.425,136.922,13.845,136.922,14.377z M141.598,14.377c0,0.532-0.42,0.952-0.952,0.952
		c-0.518,0-0.952-0.434-0.952-0.952s0.435-0.952,0.952-0.952C141.178,13.425,141.598,13.845,141.598,14.377z"/>
	<path d="M146.441,15.231c-0.027,0.308-0.042,0.434-0.042,0.63c0,1.666,1.051,2.45,3.305,2.45c1.105,0,2.268-0.196,3.094-0.504
		c0.084-0.042,0.168-0.056,0.238-0.056c0.21,0,0.531,0.126,0.77,0.28c0.196,0.154,0.308,0.322,0.308,0.49
		c0,0.21-0.153,0.364-0.447,0.434c-0.645,0.168-2.017,0.28-3.263,0.28c-1.567,0-2.562-0.196-3.262-0.672
		c-0.7-0.448-1.162-1.33-1.162-2.212c0-0.336,0.07-0.714,0.225-1.176L146.441,15.231z M146.876,9.701
		c0.714,0.476,1.204,0.616,2.142,0.616c0.924,0,2.101-0.168,2.912-0.42c0.098-0.028,0.21-0.056,0.252-0.056
		c0.364,0,0.84,0.42,0.84,0.728c0,0.238-0.084,0.28-1.021,0.49c-0.546,0.112-0.672,0.168-2.044,0.686
		c-0.336,0.126-0.336,0.126-1.148,0.476c-0.28,0.112-0.28,0.126-0.546,0.224l-0.098-0.21c0.434-0.252,0.657-0.392,1.021-0.588
		c0.952-0.518,0.952-0.518,1.176-0.658c-0.308,0.028-0.798,0.042-1.05,0.042c-0.518,0-1.162-0.154-1.596-0.378
		c-0.364-0.196-0.588-0.392-0.98-0.812L146.876,9.701z"/>
	<path d="M163.857,19.417c1.513-0.448,2.479-1.022,3.276-1.946c0.826-0.938,1.246-2.086,1.246-3.374
		c0-1.358-0.546-2.436-1.582-3.094c-0.616-0.406-1.54-0.644-2.422-0.644c-0.168,0-0.267,0-0.49,0.028
		c0.336,0.49,0.434,0.756,0.434,1.162c0,1.092-0.783,3.136-1.848,4.844c-0.882,1.4-1.568,2.086-2.086,2.086
		c-0.238,0-0.462-0.112-0.616-0.294c-0.126-0.168-0.154-0.224-0.392-0.896c-0.126-0.364-0.21-0.532-0.616-1.316
		c-0.224-0.448-0.322-0.826-0.322-1.274c0-0.882,0.477-1.918,1.261-2.772c1.134-1.204,2.981-1.96,4.815-1.96
		c1.414,0,2.716,0.462,3.612,1.288c0.896,0.826,1.344,1.932,1.344,3.29c0,1.75-1.022,3.304-2.786,4.242
		c-0.812,0.434-1.54,0.658-2.729,0.868L163.857,19.417z M159.252,15.063c0,0.672,0.21,1.358,0.56,1.848
		c0.196,0.252,0.378,0.406,0.532,0.406c0.308,0,0.979-0.756,1.666-1.848c1.036-1.652,1.778-3.458,1.778-4.326
		c0-0.21-0.042-0.35-0.196-0.7C161.155,10.877,159.252,12.907,159.252,15.063z"/>
	<path d="M175.058,20.537c0.813-1.26,1.26-2.436,1.47-3.878c0.196-1.372,0.309-3.248,0.309-5.208c0-1.302-0.015-2.506-0.042-3.178
		c0.49,0.238,0.644,0.322,1.092,0.63h7.476c0.267-0.266,0.364-0.364,0.645-0.63c0.378,0.266,0.49,0.35,0.84,0.63
		c0.098,0.07,0.14,0.126,0.14,0.182c0,0.056-0.14,0.182-0.476,0.42v6.51c0,0.364,0,0.868,0.014,1.498
		c0.015,0.938,0.015,1.078,0.015,1.708c-0.028,0.546-0.112,0.714-0.406,0.868c-0.294,0.14-0.645,0.238-1.204,0.336
		c-0.028-0.21-0.042-0.238-0.154-0.378c-0.363-0.462-0.546-0.532-1.596-0.658v-0.224c0.266,0.014,0.966,0.042,2.1,0.084
		c0.028,0,0.057,0,0.07,0s0.028,0,0.028,0c0.126,0,0.182-0.056,0.182-0.196V9.225h-7.798c-0.014,2.128-0.028,3.374-0.042,3.752
		c-0.084,2.842-0.336,4.214-0.994,5.558c-0.406,0.812-0.784,1.358-1.498,2.114L175.058,20.537z M183.178,11.143
		c0.308-0.364,0.406-0.476,0.7-0.826c0.336,0.322,0.658,0.644,0.994,0.966c0.014,0.042,0.042,0.098,0.042,0.112
		c0,0.028-0.057,0.07-0.112,0.07h-2.856v1.778h1.555c0.279-0.364,0.378-0.476,0.672-0.854c0.518,0.434,0.658,0.574,1.134,0.98
		c0.042,0.056,0.07,0.084,0.07,0.112c0,0.056-0.057,0.084-0.141,0.084h-6.132c-0.252,0-0.476,0.014-1.021,0.084l-0.126-0.518
		c0.504,0.07,0.882,0.112,1.147,0.112h1.946v-1.778h-1.526c-0.224,0-0.447,0.014-0.924,0.084l-0.14-0.532
		c0.363,0.084,0.77,0.126,1.063,0.126h1.526v-0.7c0-0.28-0.014-0.518-0.042-1.022c1.218,0.154,1.554,0.238,1.554,0.392
		c0,0.112-0.07,0.14-0.616,0.35v0.98H183.178z M180.069,18.801c-0.042,0.182-0.14,0.224-0.531,0.238c-0.057,0-0.084,0-0.099,0
		c-0.027,0-0.056,0-0.056,0c-0.196,0-0.266-0.056-0.266-0.168c0-0.014,0-0.028,0-0.042c0.027-0.7,0.042-1.722,0.042-2.688
		c0-0.35,0-0.35-0.028-1.05c-0.014-0.434-0.014-0.434-0.014-0.742c0.447,0.252,0.588,0.322,1.035,0.588h2.675
		c0.195-0.266,0.252-0.336,0.476-0.588c0.364,0.238,0.476,0.308,0.826,0.588c0.14,0.14,0.168,0.168,0.168,0.196
		s-0.099,0.112-0.42,0.378c-0.015,0.63-0.015,1.078-0.015,1.26c0,0.616,0,0.91,0.042,1.652c-0.014,0.224-0.069,0.238-0.714,0.28
		c-0.153,0-0.224-0.07-0.224-0.224v-0.728h-2.898V18.801z M180.069,17.429h2.898v-2.17h-2.898V17.429z"/>
</g>
<rect x="143.088" y="7.25" fill="none" stroke="#008CD6" stroke-width="0.5" width="28" height="14"/>
<rect x="174.588" y="7.25" fill="none" stroke="#008CD6" stroke-width="0.5" width="14" height="14"/>
<g>
	<line fill="none" stroke="#008CD6" stroke-width="0.5" x1="171.088" y1="7.25" x2="171.088" y2="0.25"/>
	<line fill="none" stroke="#008CD6" stroke-width="0.5" x1="178.088" y1="0.25" x2="178.088" y2="7.25"/>
	<line fill="none" stroke="#000000" stroke-width="0.1768" x1="174.588" y1="7.25" x2="171.088" y2="7.25"/>
	<line fill="none" stroke="#008CD6" stroke-width="0.5" x1="185.088" y1="7.25" x2="185.088" y2="0.25"/>
	<polyline fill="none" stroke="#008CD6" stroke-width="0.5" points="171.088,7.25 171.088,0.25 192.087,0.25 192.087,7.25 	"/>
	<line fill="none" stroke="#000000" stroke-width="0.1768" x1="192.087" y1="7.25" x2="188.587" y2="7.25"/>
</g>
<line fill="none" stroke="#008CD6" stroke-width="0.5" x1="157.088" y1="21.25" x2="157.088" y2="7.25"/>
<line fill="none" stroke="#008CD6" stroke-width="0.5" stroke-dasharray="2" x1="192.107" y1="1" x2="192.107" y2="83"/>
<g>
	<text fill="#008CD6" x="100%" y="90" font-size="8" text-anchor="end" font-family="sans-serif" font-weight="lighter">Line end</text>
</g>
<g>
	<path d="M4.986,23.057c0.329,0.238,0.561,0.315,0.932,0.315c0.321,0,0.84-0.091,1.147-0.21c-0.161-0.301-0.44-0.665-0.602-0.784
		c-0.091-0.07-0.28-0.119-0.539-0.147c0.049-0.119,0.091-0.14,0.28-0.182c0.111-0.028,0.195-0.035,0.321-0.035
		c0.245,0,0.413,0.035,0.477,0.091c0.063,0.056,0.069,0.077,0.084,0.273c0.007,0.14,0.007,0.14,0.287,0.693
		c0.644-0.238,0.812-0.322,1.001-0.518c0.056-0.049,0.119-0.07,0.224-0.07c0.273,0,0.413,0.063,0.413,0.182
		c0,0.098-0.091,0.154-0.455,0.308c-0.112,0.049-0.455,0.168-1.029,0.35c0.07,0.119,0.07,0.119,0.154,0.259
		c0.042,0.07,0.154,0.266,0.343,0.574c0.554-0.217,0.687-0.273,0.868-0.385c-0.146-0.154-0.196-0.196-0.364-0.329l0.05-0.07
		c0.266,0.133,0.447,0.196,0.588,0.196c0,0,0,0,0.126-0.014c0.021-0.007,0.042-0.007,0.056-0.007c0.112,0,0.189,0.07,0.189,0.175
		c0,0.168-0.406,0.385-1.358,0.721c0.217,0.371,0.252,0.434,0.315,0.546c0.16,0.287,0.16,0.287,0.321,0.553
		c0.084,0.133,0.119,0.245,0.119,0.378c0,0.273-0.091,0.455-0.23,0.455c-0.063,0-0.084-0.014-0.196-0.105
		C8.15,25.983,7.5,25.787,6.884,25.787c-0.322,0-0.637,0.07-0.875,0.196c-0.287,0.147-0.42,0.329-0.42,0.567
		c0,0.434,0.462,0.665,1.323,0.665c0.343,0,0.546-0.021,0.882-0.098c0.035-0.007,0.063-0.014,0.084-0.014
		c0.21,0,0.462,0.196,0.462,0.371c0,0.056-0.035,0.105-0.105,0.133c-0.133,0.056-0.56,0.105-0.959,0.105
		c-0.546,0-1.028-0.077-1.344-0.21c-0.427-0.189-0.679-0.518-0.679-0.882c0-0.63,0.742-1.05,1.848-1.05
		c0.413,0,0.805,0.042,1.316,0.154c-0.077-0.28-0.267-0.693-0.525-1.19C7.423,24.695,6.828,24.8,6.4,24.8
		c-0.301,0-0.524-0.063-0.728-0.203c-0.141-0.098-0.217-0.196-0.336-0.42l0.084-0.063c0.224,0.301,0.455,0.413,0.826,0.413
		c0.405,0,0.917-0.091,1.498-0.266c-0.147-0.273-0.329-0.588-0.49-0.84c-0.469,0.147-0.932,0.224-1.302,0.224
		c-0.386,0-0.715-0.168-1.022-0.511L4.986,23.057z"/>
	<path d="M16.957,27.992c0.497-0.308,0.805-0.581,1.112-0.98c0.49-0.651,0.735-1.442,0.735-2.359c0-0.609-0.104-1.183-0.259-1.442
		c-0.126-0.203-0.294-0.308-0.497-0.308c-0.351,0-0.672,0.301-0.924,0.875c-0.203,0.455-0.329,1.029-0.329,1.505
		c0,0.119,0.007,0.196,0.027,0.434c0.008,0.042,0.008,0.098,0.008,0.147c0,0.133-0.063,0.21-0.183,0.21
		c-0.266,0-0.44-0.567-0.44-1.435c0-0.581,0.042-0.945,0.224-1.876c0.056-0.28,0.077-0.413,0.077-0.511
		c0-0.224-0.098-0.357-0.378-0.497c0.056-0.021,0.098-0.035,0.126-0.035c0.146,0,0.371,0.091,0.56,0.231
		c0.196,0.14,0.273,0.252,0.273,0.392c0,0.091-0.014,0.133-0.098,0.266c-0.267,0.441-0.505,1.435-0.505,2.086
		c0,0.063,0,0.133,0.008,0.259h0.014c0.21-0.896,0.469-1.477,0.812-1.834c0.26-0.28,0.539-0.413,0.854-0.413
		c0.672,0,1.147,0.826,1.147,1.995c0,0.91-0.252,1.666-0.763,2.289c-0.413,0.511-0.882,0.84-1.547,1.106L16.957,27.992z"/>
	<path d="M24.104,27.075c0.645-0.161,1.106-0.336,1.547-0.588c0.819-0.462,1.288-1.148,1.288-1.883c0-0.7-0.518-1.176-1.281-1.176
		c-0.818,0-1.89,0.448-2.813,1.169c-0.112,0.091-0.182,0.119-0.266,0.119c-0.329,0-0.841-0.49-0.841-0.805
		c0-0.049,0.015-0.091,0.057-0.175c0.069,0.147,0.111,0.196,0.195,0.259c0.105,0.077,0.189,0.112,0.287,0.112
		c0.183,0,0.448-0.077,0.848-0.252c1.105-0.483,1.834-0.672,2.562-0.672c1.064,0,1.792,0.623,1.792,1.54
		c0,0.868-0.588,1.617-1.609,2.051c-0.532,0.224-1.043,0.343-1.729,0.406L24.104,27.075z"/>
	<path d="M0.766,41.327c0.687-0.686,1.022-1.106,1.47-1.834c0.351-0.588,0.49-0.868,0.672-1.33C4,38.542,4.195,38.625,4.195,38.751
		c0,0.112-0.111,0.154-0.531,0.224c-0.771,0.994-1.597,1.75-2.73,2.534L0.766,41.327z M5.624,31.205v-0.826
		c0-0.406-0.015-0.854-0.057-1.288c1.345,0.126,1.484,0.154,1.484,0.322c0,0.098-0.112,0.168-0.518,0.308v1.484h0.321
		c0.28-0.336,0.364-0.434,0.63-0.756c0.406,0.378,0.532,0.49,0.925,0.868c0.042,0.042,0.056,0.098,0.056,0.126
		c0,0.056-0.042,0.084-0.182,0.084h-1.75v5.908h0.237c0.238-0.378,0.322-0.49,0.603-0.826c0.363,0.392,0.489,0.518,0.854,0.924
		c0.014,0.056,0.028,0.112,0.028,0.126c0,0.07-0.028,0.098-0.154,0.098H1.914c-0.294,0-0.757,0.028-0.994,0.07l-0.07-0.504
		c0.42,0.098,0.616,0.112,1.148,0.112h0.405v-5.908H1.746c-0.673,0.042-0.673,0.042-0.826,0.098l-0.07-0.532
		c0.294,0.084,0.546,0.112,0.896,0.112h0.657v-0.574c0-0.476-0.027-1.134-0.069-1.582c1.357,0.14,1.554,0.182,1.554,0.336
		c0,0.126-0.126,0.196-0.588,0.308v1.512H5.624z M3.3,33.179h2.324v-1.652H3.3V33.179z M3.3,35.181h2.324v-1.68H3.3V35.181z
		 M3.3,37.435h2.324v-1.932H3.3V37.435z M5.036,38.303c1.344,0.49,1.903,0.896,1.903,1.372c0,0.378-0.182,0.756-0.363,0.756
		c-0.141,0-0.183-0.042-0.421-0.518c-0.084-0.168-0.42-0.644-0.657-0.952c-0.154-0.182-0.294-0.322-0.574-0.588L5.036,38.303z
		 M9.432,36.385c-0.126,1.106-0.392,2.058-0.84,2.954c-0.462,0.91-0.896,1.484-1.82,2.352l-0.224-0.154
		c0.952-1.176,1.456-2.142,1.764-3.402c0.28-1.134,0.378-2.646,0.378-5.544c0-2.324,0-2.548-0.084-3.318
		c0.49,0.252,0.645,0.336,1.134,0.658h2.059c0.224-0.28,0.308-0.378,0.532-0.658c0.378,0.252,0.489,0.322,0.84,0.588
		c0.111,0.084,0.153,0.14,0.153,0.21c0,0.126-0.126,0.238-0.462,0.406v7.868l0.015,0.812c0,0.252,0.014,0.56,0.014,0.952
		c-0.014,0.49-0.028,0.532-0.112,0.728c-0.195,0.364-0.447,0.49-1.414,0.644c-0.056-0.308-0.153-0.462-0.35-0.63
		c-0.238-0.196-0.56-0.28-1.288-0.35l0.014-0.238c1.387,0.098,1.387,0.098,1.975,0.098c0.154-0.014,0.21-0.084,0.21-0.266v-3.71
		H9.432z M9.571,33.277c-0.014,1.736-0.014,1.806-0.098,2.786h2.45v-2.786H9.571z M11.924,32.955v-2.702H9.571
		c0.015,0.504,0.015,0.77,0.015,1.008c0,0.112,0,0.756-0.015,1.694H11.924z"/>
	<path d="M18.294,33.081c-0.225,0.434-0.504,0.812-1.246,1.708c0.7,0.14,0.938,0.21,0.938,0.308c0,0.084-0.126,0.154-0.476,0.238
		v3.724c0,0.168,0,0.742,0.014,1.512c0,0.168,0,0.336,0,0.406c0,0.14,0,0.294,0,0.518c-0.014,0.112-0.042,0.14-0.111,0.182
		c-0.084,0.028-0.448,0.07-0.7,0.07c-0.112,0-0.154-0.028-0.183-0.14c0.084-2.268,0.099-2.94,0.099-3.808v-2.52
		c-0.561,0.644-0.966,1.036-1.904,1.848l-0.168-0.196c0.896-1.036,1.386-1.708,1.988-2.674c0.574-0.924,0.812-1.428,1.008-2.114
		c0.826,0.308,0.826,0.308,1.218,0.462c0.112,0.042,0.141,0.056,0.183,0.154h3.01c0-0.056,0-0.602-0.015-1.652h-1.861
		c-0.49,0-0.616,0-0.994,0.056l-0.098-0.49c0.686,0.112,0.714,0.112,1.092,0.112h1.861c-0.014-0.826-0.027-1.078-0.084-1.68
		c1.19,0.07,1.261,0.084,1.414,0.154c0.084,0.028,0.141,0.084,0.141,0.126c0,0.084-0.141,0.168-0.546,0.336v1.064h2.155
		c0.238-0.28,0.309-0.364,0.546-0.63c0.406,0.266,0.532,0.35,0.868,0.616c0.084,0.07,0.126,0.112,0.126,0.168
		c0,0.084-0.069,0.14-0.434,0.322c0,0.266,0,0.546,0,0.882c0,0.028,0,0.266,0,0.616h0.07c0.195-0.392,0.266-0.504,0.531-0.896
		c0.477,0.434,0.603,0.574,1.036,1.022c0.015,0.042,0.042,0.084,0.042,0.084c0,0.056-0.069,0.112-0.14,0.112h-1.54
		c0.014,1.078,0.028,1.876,0.042,2.38c-0.042,0.112-0.07,0.154-0.14,0.168c-0.112,0.042-0.448,0.07-0.715,0.07
		c-0.111,0-0.14-0.028-0.14-0.14v-0.364h-2.296c0,0.798,0,0.798,0.014,1.694h2.227c0.308-0.364,0.392-0.49,0.686-0.868
		c0.546,0.434,0.7,0.56,1.218,1.008c0.028,0.042,0.057,0.084,0.057,0.098c0,0.056-0.057,0.084-0.141,0.084h-4.046
		c0,0.112,0,0.196,0,0.266c0,0.49,0.015,0.854,0.015,1.456h2.8c0.364-0.392,0.462-0.518,0.798-0.952
		c0.56,0.448,0.742,0.588,1.302,1.064c0.028,0.042,0.042,0.084,0.042,0.098c0,0.056-0.069,0.112-0.14,0.112h-4.802
		c0.014,0.826,0.027,1.568,0.042,2.24c0,0.098-0.028,0.14-0.084,0.182c-0.057,0.028-0.435,0.056-0.757,0.056
		c-0.111,0-0.153-0.042-0.21-0.168l0.042-2.31h-2.729c-0.588,0-0.742,0.014-1.218,0.07l-0.112-0.518
		c0.644,0.112,0.784,0.126,1.33,0.126h2.729c0.015-0.91,0.028-1.484,0.028-1.722h-2.282c-0.279,0-0.531,0.014-1.092,0.056
		l-0.126-0.504c0.603,0.084,0.952,0.126,1.218,0.126h2.282v-1.694h-2.114c-0.321,0-0.531,0.014-0.951,0.07l-0.084-0.49
		c0.489,0.084,0.657,0.098,0.966,0.098h2.184c0-0.336,0-0.924-0.014-1.792H18.294z M14.724,32.857
		c0.784-0.7,1.246-1.218,1.918-2.184c0.546-0.756,0.672-0.966,0.868-1.484c1.231,0.392,1.498,0.504,1.498,0.63
		s-0.112,0.168-0.7,0.196c-1.372,1.61-2.156,2.31-3.416,3.066L14.724,32.857z M25.182,31.107h-2.296v1.652h2.296V31.107z
		 M22.886,33.081v1.792h2.296v-1.792H22.886z"/>
	<path d="M32.644,35.545c-0.028,0.126-0.238,1.008-0.63,2.632c-0.196,0.826-0.238,1.05-0.238,1.484c0,0.406-0.014,0.518-0.042,0.602
		c-0.056,0.154-0.182,0.238-0.336,0.238c-0.237,0-0.447-0.196-0.602-0.574c-0.309-0.728-0.49-1.862-0.49-2.982
		c0-0.42,0.042-0.938,0.112-1.498c0.098-0.812,0.098-0.812,0.489-2.646c0.141-0.658,0.196-1.008,0.196-1.302
		c0-0.462-0.111-0.812-0.392-1.316c0.308,0.014,0.56,0.196,0.938,0.686c0.351,0.434,0.519,0.798,0.519,1.106
		c0,0.224-0.015,0.28-0.294,0.84c-0.28,0.588-0.616,1.568-0.756,2.226c-0.126,0.532-0.183,1.134-0.183,1.736
		c0,0.77,0.07,1.26,0.267,1.848c0.237-0.49,0.35-0.77,0.504-1.19l0.741-1.96L32.644,35.545z M34.407,36.245
		c-0.027,0.28-0.042,0.406-0.042,0.588c0,1.54,0.883,2.17,3.053,2.17c0.405,0,0.812-0.028,1.189-0.098
		c0.294-0.042,0.294-0.042,0.742-0.224c0.084-0.028,0.154-0.042,0.21-0.042c0.364,0,0.882,0.49,0.882,0.826
		c0,0.168-0.111,0.28-0.308,0.35c-0.294,0.098-0.966,0.154-1.75,0.154c-1.75,0-2.996-0.294-3.626-0.854
		c-0.504-0.462-0.756-1.05-0.756-1.82c0-0.35,0.042-0.658,0.168-1.106L34.407,36.245z M34.38,31.793
		c0.49,0.294,0.798,0.378,1.302,0.378c0.868,0,2.226-0.308,2.814-0.63c0.182-0.098,0.21-0.112,0.308-0.112
		c0.112,0,0.294,0.07,0.49,0.196c0.294,0.168,0.434,0.336,0.434,0.518c0,0.182-0.098,0.266-0.392,0.322
		c-0.924,0.14-1.442,0.266-1.988,0.49c-0.434,0.182-1.246,0.63-1.806,0.994l-0.141-0.14c0.63-0.532,1.106-0.924,1.33-1.092
		c-0.294,0.014-0.447,0.028-0.574,0.028c-0.783,0-1.302-0.21-1.903-0.784L34.38,31.793z"/>
	<path d="M46.686,35.545c-0.252,0.882-0.644,2.408-0.812,3.094c-0.141,0.616-0.183,0.84-0.183,1.19
		c-0.014,0.448-0.027,0.504-0.098,0.616c-0.07,0.098-0.154,0.154-0.266,0.154c-0.238,0-0.435-0.196-0.603-0.63
		c-0.28-0.714-0.448-1.778-0.448-2.814c0-1.288,0.154-2.464,0.63-4.662c0.183-0.868,0.211-1.022,0.211-1.26
		c0-0.42-0.112-0.756-0.406-1.232c0.322,0.014,0.588,0.196,0.979,0.7c0.322,0.406,0.504,0.798,0.504,1.064
		c0,0.154,0,0.154-0.224,0.616c-0.672,1.4-1.064,3.066-1.064,4.564c0,0.714,0.057,1.162,0.225,1.736l0.588-1.4l0.756-1.806
		L46.686,35.545z M48.086,33.011c0.672,0.434,1.105,0.574,1.806,0.574c0.49,0,1.022-0.07,1.596-0.196c0-0.266,0-0.49,0-0.616
		c0-1.568-0.014-1.75-0.195-1.946c-0.168-0.182-0.477-0.28-0.924-0.322c0.195-0.182,0.308-0.224,0.672-0.224
		c0.308,0,0.686,0.056,0.951,0.126c0.406,0.126,0.616,0.294,0.616,0.504c0,0.098,0,0.112-0.126,0.434
		c-0.153,0.406-0.237,0.91-0.294,1.876c0.645-0.182,1.05-0.364,1.288-0.574c0.14-0.14,0.182-0.154,0.308-0.154
		c0.169,0,0.49,0.084,0.658,0.182c0.112,0.056,0.183,0.154,0.183,0.252c0,0.308-1.022,0.728-2.479,1.008
		c0,1.862,0.042,2.632,0.183,3.808c1.624,0.434,2.31,0.98,2.31,1.792c0,0.294-0.126,0.518-0.28,0.518c-0.111,0-0.21-0.07-0.489-0.35
		c-0.616-0.63-0.967-0.882-1.513-1.12c0.015,0.126,0.015,0.238,0.015,0.336c0,1.008-0.841,1.61-2.24,1.61
		c-1.218,0-2.072-0.588-2.072-1.428c0-0.966,1.036-1.582,2.632-1.582c0.267,0,0.462,0.014,0.854,0.042c0-0.126,0-0.21,0-0.238
		l-0.028-1.498l-0.014-1.792c-0.42,0.084-0.826,0.112-1.232,0.112c-1.021,0-1.609-0.252-2.31-0.98L48.086,33.011z M50.228,38.121
		c-1.105,0-1.792,0.364-1.792,0.98c0,0.49,0.546,0.826,1.372,0.826c0.771,0,1.316-0.224,1.54-0.658
		c0.14-0.252,0.182-0.462,0.182-0.98C51.138,38.177,50.746,38.121,50.228,38.121z"/>
	<path d="M59.51,35.377c0,0.532-0.42,0.952-0.952,0.952c-0.518,0-0.952-0.434-0.952-0.952s0.435-0.952,0.952-0.952
		C59.09,34.425,59.51,34.845,59.51,35.377z M64.172,35.377c0,0.532-0.42,0.952-0.952,0.952c-0.518,0-0.952-0.434-0.952-0.952
		s0.435-0.952,0.952-0.952C63.752,34.425,64.172,34.845,64.172,35.377z M68.848,35.377c0,0.532-0.42,0.952-0.952,0.952
		c-0.518,0-0.952-0.434-0.952-0.952s0.435-0.952,0.952-0.952C68.428,34.425,68.848,34.845,68.848,35.377z"/>
	<path d="M73.51,35.377c0,0.532-0.42,0.952-0.952,0.952c-0.518,0-0.952-0.434-0.952-0.952s0.435-0.952,0.952-0.952
		C73.09,34.425,73.51,34.845,73.51,35.377z M78.172,35.377c0,0.532-0.42,0.952-0.952,0.952c-0.518,0-0.952-0.434-0.952-0.952
		s0.435-0.952,0.952-0.952C77.752,34.425,78.172,34.845,78.172,35.377z M82.848,35.377c0,0.532-0.42,0.952-0.952,0.952
		c-0.518,0-0.952-0.434-0.952-0.952s0.435-0.952,0.952-0.952C82.428,34.425,82.848,34.845,82.848,35.377z"/>
</g>
<g>
	<path d="M177.843,58.777c-0.672,0.91-1.589,1.449-2.457,1.449c-0.532,0-0.945-0.217-1.162-0.595
		c-0.14-0.245-0.196-0.588-0.196-1.183c0-0.385,0.021-1.05,0.057-1.687c0.042-0.756,0.049-0.952,0.049-1.204
		c0-0.602-0.07-0.721-0.567-0.931c0.077-0.056,0.119-0.07,0.196-0.07c0.161,0,0.413,0.063,0.63,0.161
		c0.266,0.126,0.406,0.266,0.406,0.413c0,0.049-0.007,0.091-0.063,0.252c-0.133,0.42-0.363,2.541-0.363,3.36
		c0,0.427,0.084,0.679,0.279,0.84c0.154,0.119,0.378,0.189,0.623,0.189c0.477,0,1.064-0.168,1.597-0.448
		c0.321-0.168,0.524-0.315,0.889-0.623L177.843,58.777z"/>
	<path d="M181.686,60.394c0.546-0.434,0.756-0.686,1.029-1.246c-0.322-0.098-0.574-0.266-0.813-0.539
		c-0.308-0.371-0.476-0.924-0.476-1.582c0-0.049,0-0.133,0.007-0.259c-0.56,0.623-0.917,1.386-0.917,1.946c0,0.049,0,0.091,0,0.126
		c0.007,0.049,0.007,0.091,0.007,0.112c0,0.112-0.077,0.196-0.175,0.196c-0.238,0-0.413-0.588-0.413-1.414
		c0-0.357,0.021-0.672,0.084-1.176c0.035-0.322,0.042-0.42,0.042-0.553c0-0.231-0.098-0.462-0.266-0.637
		c0.146,0,0.23,0.042,0.406,0.182c0.224,0.196,0.378,0.427,0.378,0.581c0,0.07-0.008,0.098-0.084,0.259
		c-0.154,0.336-0.267,0.903-0.267,1.365c0,0.126,0.007,0.203,0.035,0.371c0.413-0.819,0.651-1.162,1.183-1.673
		c0.092-0.714,0.231-1.113,0.497-1.442c0.154-0.196,0.364-0.301,0.588-0.301c0.196,0,0.421,0.098,0.561,0.245
		c0.161,0.168,0.238,0.308,0.35,0.63c0.042,0,0.084,0,0.099,0c0.392,0,0.763,0.119,1.092,0.35c0.448,0.308,0.693,0.805,0.693,1.372
		c0,1.085-0.875,1.925-2.01,1.925c-0.049,0-0.111,0-0.217-0.007c-0.427,0.651-0.777,0.98-1.351,1.253L181.686,60.394z
		 M181.644,56.53c-0.007,0.168-0.014,0.266-0.014,0.343c0,0.651,0.203,1.232,0.546,1.547c0.21,0.196,0.392,0.301,0.679,0.385
		c0.189-0.609,0.28-1.288,0.28-2.1c0-0.399-0.014-0.623-0.07-0.91C182.47,55.921,182.078,56.124,181.644,56.53z M183.037,55.627
		c-0.126-0.532-0.294-0.756-0.567-0.756c-0.392,0-0.679,0.49-0.805,1.393C182.112,55.921,182.512,55.732,183.037,55.627z
		 M183.618,56.929c0,0.756-0.112,1.358-0.351,1.932c0.924,0,1.582-0.693,1.582-1.659c0-0.553-0.21-1.001-0.588-1.246
		c-0.231-0.147-0.434-0.21-0.777-0.217C183.583,56.229,183.618,56.53,183.618,56.929z"/>
	<path d="M189.001,60.513c0.413-0.336,0.686-0.623,0.924-1.008c0.364-0.595,0.595-1.407,0.595-2.128c0-0.693-0.252-1.12-0.665-1.12
		c-0.371,0-0.86,0.301-1.344,0.826c-0.133,0.133-0.175,0.161-0.287,0.161c-0.146,0-0.314-0.112-0.462-0.315
		c-0.119-0.161-0.189-0.343-0.189-0.469c0-0.091,0.028-0.154,0.112-0.259c0.063,0.308,0.203,0.483,0.385,0.483
		c0.099,0,0.28-0.077,0.645-0.273c0.595-0.322,0.826-0.399,1.183-0.399c0.322,0,0.665,0.182,0.868,0.469
		c0.168,0.245,0.266,0.609,0.266,1.029c0,0.826-0.314,1.645-0.867,2.261c-0.344,0.378-0.7,0.644-1.1,0.819L189.001,60.513z
		 M188.615,54.15c0.344,0.287,0.819,0.448,1.31,0.448h0.161c0.14,0,0.237,0.049,0.378,0.168c0.098,0.084,0.146,0.168,0.146,0.238
		c0,0.098-0.098,0.154-0.287,0.154c-0.294,0.007-0.294,0.007-1.742,0.427l-0.035-0.098c0.524-0.238,1.008-0.455,1.183-0.518
		c-0.574-0.119-0.917-0.336-1.183-0.763L188.615,54.15z"/>
	<path d="M119.26,67.877c0,0.532-0.42,0.952-0.952,0.952c-0.518,0-0.952-0.434-0.952-0.952s0.435-0.952,0.952-0.952
		C118.84,66.925,119.26,67.345,119.26,67.877z M123.922,67.877c0,0.532-0.42,0.952-0.952,0.952c-0.518,0-0.952-0.434-0.952-0.952
		s0.435-0.952,0.952-0.952C123.502,66.925,123.922,67.345,123.922,67.877z M128.598,67.877c0,0.532-0.42,0.952-0.952,0.952
		c-0.518,0-0.952-0.434-0.952-0.952s0.435-0.952,0.952-0.952C128.178,66.925,128.598,67.345,128.598,67.877z"/>
	<path d="M133.26,67.877c0,0.532-0.42,0.952-0.952,0.952c-0.518,0-0.952-0.434-0.952-0.952s0.435-0.952,0.952-0.952
		C132.84,66.925,133.26,67.345,133.26,67.877z M137.922,67.877c0,0.532-0.42,0.952-0.952,0.952c-0.518,0-0.952-0.434-0.952-0.952
		s0.435-0.952,0.952-0.952C137.502,66.925,137.922,67.345,137.922,67.877z M142.598,67.877c0,0.532-0.42,0.952-0.952,0.952
		c-0.518,0-0.952-0.434-0.952-0.952s0.435-0.952,0.952-0.952C142.178,66.925,142.598,67.345,142.598,67.877z"/>
	<path d="M147.441,68.731c-0.027,0.308-0.042,0.434-0.042,0.63c0,1.666,1.051,2.45,3.305,2.45c1.105,0,2.268-0.196,3.094-0.504
		c0.084-0.042,0.168-0.056,0.238-0.056c0.21,0,0.531,0.126,0.77,0.28c0.196,0.154,0.308,0.322,0.308,0.49
		c0,0.21-0.153,0.364-0.447,0.434c-0.645,0.168-2.017,0.28-3.263,0.28c-1.567,0-2.562-0.196-3.262-0.672
		c-0.7-0.448-1.162-1.33-1.162-2.212c0-0.336,0.07-0.714,0.225-1.176L147.441,68.731z M147.876,63.201
		c0.714,0.476,1.204,0.616,2.142,0.616c0.924,0,2.101-0.168,2.912-0.42c0.098-0.028,0.21-0.056,0.252-0.056
		c0.364,0,0.84,0.42,0.84,0.728c0,0.238-0.084,0.28-1.021,0.49c-0.546,0.112-0.672,0.168-2.044,0.686
		c-0.336,0.126-0.336,0.126-1.148,0.476c-0.28,0.112-0.28,0.126-0.546,0.224l-0.098-0.21c0.434-0.252,0.657-0.392,1.021-0.588
		c0.952-0.518,0.952-0.518,1.176-0.658c-0.308,0.028-0.798,0.042-1.05,0.042c-0.518,0-1.162-0.154-1.596-0.378
		c-0.364-0.196-0.588-0.392-0.98-0.812L147.876,63.201z"/>
	<path d="M164.857,72.917c1.513-0.448,2.479-1.022,3.276-1.946c0.826-0.938,1.246-2.086,1.246-3.374
		c0-1.358-0.546-2.436-1.582-3.094c-0.616-0.406-1.54-0.644-2.422-0.644c-0.168,0-0.267,0-0.49,0.028
		c0.336,0.49,0.434,0.756,0.434,1.162c0,1.092-0.783,3.136-1.848,4.844c-0.882,1.4-1.568,2.086-2.086,2.086
		c-0.238,0-0.462-0.112-0.616-0.294c-0.126-0.168-0.154-0.224-0.392-0.896c-0.126-0.364-0.21-0.532-0.616-1.316
		c-0.224-0.448-0.322-0.826-0.322-1.274c0-0.882,0.477-1.918,1.261-2.772c1.134-1.204,2.981-1.96,4.815-1.96
		c1.414,0,2.716,0.462,3.612,1.288c0.896,0.826,1.344,1.932,1.344,3.29c0,1.75-1.022,3.304-2.786,4.242
		c-0.812,0.434-1.54,0.658-2.729,0.868L164.857,72.917z M160.252,68.563c0,0.672,0.21,1.358,0.56,1.848
		c0.196,0.252,0.378,0.406,0.532,0.406c0.308,0,0.979-0.756,1.666-1.848c1.036-1.652,1.778-3.458,1.778-4.326
		c0-0.21-0.042-0.35-0.196-0.7C162.155,64.377,160.252,66.407,160.252,68.563z"/>
	<path d="M176.058,74.037c0.813-1.26,1.26-2.436,1.47-3.878c0.196-1.372,0.309-3.248,0.309-5.208c0-1.302-0.015-2.506-0.042-3.178
		c0.49,0.238,0.644,0.322,1.092,0.63h7.476c0.267-0.266,0.364-0.364,0.645-0.63c0.378,0.266,0.49,0.35,0.84,0.63
		c0.098,0.07,0.14,0.126,0.14,0.182c0,0.056-0.14,0.182-0.476,0.42v6.51c0,0.364,0,0.868,0.014,1.498
		c0.015,0.938,0.015,1.078,0.015,1.708c-0.028,0.546-0.112,0.714-0.406,0.868c-0.294,0.14-0.645,0.238-1.204,0.336
		c-0.028-0.21-0.042-0.238-0.154-0.378c-0.363-0.462-0.546-0.532-1.596-0.658v-0.224c0.266,0.014,0.966,0.042,2.1,0.084
		c0.028,0,0.057,0,0.07,0s0.028,0,0.028,0c0.126,0,0.182-0.056,0.182-0.196v-9.828h-7.798c-0.014,2.128-0.028,3.374-0.042,3.752
		c-0.084,2.842-0.336,4.214-0.994,5.558c-0.406,0.812-0.784,1.358-1.498,2.114L176.058,74.037z M184.178,64.643
		c0.308-0.364,0.406-0.476,0.7-0.826c0.336,0.322,0.658,0.644,0.994,0.966c0.014,0.042,0.042,0.098,0.042,0.112
		c0,0.028-0.057,0.07-0.112,0.07h-2.856v1.778h1.555c0.279-0.364,0.378-0.476,0.672-0.854c0.518,0.434,0.658,0.574,1.134,0.98
		c0.042,0.056,0.07,0.084,0.07,0.112c0,0.056-0.057,0.084-0.141,0.084h-6.132c-0.252,0-0.476,0.014-1.021,0.084l-0.126-0.518
		c0.504,0.07,0.882,0.112,1.147,0.112h1.946v-1.778h-1.526c-0.224,0-0.447,0.014-0.924,0.084l-0.14-0.532
		c0.363,0.084,0.77,0.126,1.063,0.126h1.526v-0.7c0-0.28-0.014-0.518-0.042-1.022c1.218,0.154,1.554,0.238,1.554,0.392
		c0,0.112-0.07,0.14-0.616,0.35v0.98H184.178z M181.069,72.301c-0.042,0.182-0.14,0.224-0.531,0.238c-0.057,0-0.084,0-0.099,0
		c-0.027,0-0.056,0-0.056,0c-0.196,0-0.266-0.056-0.266-0.168c0-0.014,0-0.028,0-0.042c0.027-0.7,0.042-1.722,0.042-2.688
		c0-0.35,0-0.35-0.028-1.05c-0.014-0.434-0.014-0.434-0.014-0.742c0.447,0.252,0.588,0.322,1.035,0.588h2.675
		c0.195-0.266,0.252-0.336,0.476-0.588c0.364,0.238,0.476,0.308,0.826,0.588c0.14,0.14,0.168,0.168,0.168,0.196
		s-0.099,0.112-0.42,0.378c-0.015,0.63-0.015,1.078-0.015,1.26c0,0.616,0,0.91,0.042,1.652c-0.014,0.224-0.069,0.238-0.714,0.28
		c-0.153,0-0.224-0.07-0.224-0.224v-0.728h-2.898V72.301z M181.069,70.929h2.898v-2.17h-2.898V70.929z"/>
</g>
<g>
	<path d="M5.986,76.557c0.329,0.238,0.561,0.315,0.932,0.315c0.321,0,0.84-0.091,1.147-0.21c-0.161-0.301-0.44-0.665-0.602-0.784
		c-0.091-0.07-0.28-0.119-0.539-0.147c0.049-0.119,0.091-0.14,0.28-0.182c0.111-0.028,0.195-0.035,0.321-0.035
		c0.245,0,0.413,0.035,0.477,0.091c0.063,0.056,0.069,0.077,0.084,0.273c0.007,0.14,0.007,0.14,0.287,0.693
		c0.644-0.238,0.812-0.322,1.001-0.518c0.056-0.049,0.119-0.07,0.224-0.07c0.273,0,0.413,0.063,0.413,0.182
		c0,0.098-0.091,0.154-0.455,0.308c-0.112,0.049-0.455,0.168-1.029,0.35c0.07,0.119,0.07,0.119,0.154,0.259
		c0.042,0.07,0.154,0.266,0.343,0.574c0.554-0.217,0.687-0.273,0.868-0.385c-0.146-0.154-0.196-0.196-0.364-0.329l0.05-0.07
		c0.266,0.133,0.447,0.196,0.588,0.196c0,0,0,0,0.126-0.014c0.021-0.007,0.042-0.007,0.056-0.007c0.112,0,0.189,0.07,0.189,0.175
		c0,0.168-0.406,0.385-1.358,0.721c0.217,0.371,0.252,0.434,0.315,0.546c0.16,0.287,0.16,0.287,0.321,0.553
		c0.084,0.133,0.119,0.245,0.119,0.378c0,0.273-0.091,0.455-0.23,0.455c-0.063,0-0.084-0.014-0.196-0.105
		C9.15,79.483,8.5,79.287,7.884,79.287c-0.322,0-0.637,0.07-0.875,0.196c-0.287,0.147-0.42,0.329-0.42,0.567
		c0,0.434,0.462,0.665,1.323,0.665c0.343,0,0.546-0.021,0.882-0.098c0.035-0.007,0.063-0.014,0.084-0.014
		c0.21,0,0.462,0.196,0.462,0.371c0,0.056-0.035,0.105-0.105,0.133c-0.133,0.056-0.56,0.105-0.959,0.105
		c-0.546,0-1.028-0.077-1.344-0.21c-0.427-0.189-0.679-0.518-0.679-0.882c0-0.63,0.742-1.05,1.848-1.05
		c0.413,0,0.805,0.042,1.316,0.154c-0.077-0.28-0.267-0.693-0.525-1.19C8.423,78.195,7.828,78.3,7.4,78.3
		c-0.301,0-0.524-0.063-0.728-0.203c-0.141-0.098-0.217-0.196-0.336-0.42l0.084-0.063c0.224,0.301,0.455,0.413,0.826,0.413
		c0.405,0,0.917-0.091,1.498-0.266c-0.147-0.273-0.329-0.588-0.49-0.84c-0.469,0.147-0.932,0.224-1.302,0.224
		c-0.386,0-0.715-0.168-1.022-0.511L5.986,76.557z"/>
	<path d="M17.957,81.492c0.497-0.308,0.805-0.581,1.112-0.98c0.49-0.651,0.735-1.442,0.735-2.359c0-0.609-0.104-1.183-0.259-1.442
		c-0.126-0.203-0.294-0.308-0.497-0.308c-0.351,0-0.672,0.301-0.924,0.875c-0.203,0.455-0.329,1.029-0.329,1.505
		c0,0.119,0.007,0.196,0.027,0.434c0.008,0.042,0.008,0.098,0.008,0.147c0,0.133-0.063,0.21-0.183,0.21
		c-0.266,0-0.44-0.567-0.44-1.435c0-0.581,0.042-0.945,0.224-1.876c0.056-0.28,0.077-0.413,0.077-0.511
		c0-0.224-0.098-0.357-0.378-0.497c0.056-0.021,0.098-0.035,0.126-0.035c0.146,0,0.371,0.091,0.56,0.231
		c0.196,0.14,0.273,0.252,0.273,0.392c0,0.091-0.014,0.133-0.098,0.266c-0.267,0.441-0.505,1.435-0.505,2.086
		c0,0.063,0,0.133,0.008,0.259h0.014c0.21-0.896,0.469-1.477,0.812-1.834c0.26-0.28,0.539-0.413,0.854-0.413
		c0.672,0,1.147,0.826,1.147,1.995c0,0.91-0.252,1.666-0.763,2.289c-0.413,0.511-0.882,0.84-1.547,1.106L17.957,81.492z"/>
	<path d="M25.104,80.575c0.645-0.161,1.106-0.336,1.547-0.588c0.819-0.462,1.288-1.148,1.288-1.883c0-0.7-0.518-1.176-1.281-1.176
		c-0.818,0-1.89,0.448-2.813,1.169c-0.112,0.091-0.182,0.119-0.266,0.119c-0.329,0-0.841-0.49-0.841-0.805
		c0-0.049,0.015-0.091,0.057-0.175c0.069,0.147,0.111,0.196,0.195,0.259c0.105,0.077,0.189,0.112,0.287,0.112
		c0.183,0,0.448-0.077,0.848-0.252c1.105-0.483,1.834-0.672,2.562-0.672c1.064,0,1.792,0.623,1.792,1.54
		c0,0.868-0.588,1.617-1.609,2.051c-0.532,0.224-1.043,0.343-1.729,0.406L25.104,80.575z"/>
	<path d="M1.766,94.827c0.687-0.686,1.022-1.106,1.47-1.834c0.351-0.588,0.49-0.868,0.672-1.33C5,92.042,5.195,92.125,5.195,92.251
		c0,0.112-0.111,0.154-0.531,0.224c-0.771,0.994-1.597,1.75-2.73,2.534L1.766,94.827z M6.624,84.705v-0.826
		c0-0.406-0.015-0.854-0.057-1.288c1.345,0.126,1.484,0.154,1.484,0.322c0,0.098-0.112,0.168-0.518,0.308v1.484h0.321
		c0.28-0.336,0.364-0.434,0.63-0.756c0.406,0.378,0.532,0.49,0.925,0.868c0.042,0.042,0.056,0.098,0.056,0.126
		c0,0.056-0.042,0.084-0.182,0.084h-1.75v5.908h0.237c0.238-0.378,0.322-0.49,0.603-0.826c0.363,0.392,0.489,0.518,0.854,0.924
		c0.014,0.056,0.028,0.112,0.028,0.126c0,0.07-0.028,0.098-0.154,0.098H2.914c-0.294,0-0.757,0.028-0.994,0.07l-0.07-0.504
		c0.42,0.098,0.616,0.112,1.148,0.112h0.405v-5.908H2.746c-0.673,0.042-0.673,0.042-0.826,0.098l-0.07-0.532
		c0.294,0.084,0.546,0.112,0.896,0.112h0.657v-0.574c0-0.476-0.027-1.134-0.069-1.582c1.357,0.14,1.554,0.182,1.554,0.336
		c0,0.126-0.126,0.196-0.588,0.308v1.512H6.624z M4.3,86.679h2.324v-1.652H4.3V86.679z M4.3,88.681h2.324v-1.68H4.3V88.681z
		 M4.3,90.935h2.324v-1.932H4.3V90.935z M6.036,91.803c1.344,0.49,1.903,0.896,1.903,1.372c0,0.378-0.182,0.756-0.363,0.756
		c-0.141,0-0.183-0.042-0.421-0.518c-0.084-0.168-0.42-0.644-0.657-0.952c-0.154-0.182-0.294-0.322-0.574-0.588L6.036,91.803z
		 M10.432,89.885c-0.126,1.106-0.392,2.058-0.84,2.954c-0.462,0.91-0.896,1.484-1.82,2.352l-0.224-0.154
		c0.952-1.176,1.456-2.142,1.764-3.402c0.28-1.134,0.378-2.646,0.378-5.544c0-2.324,0-2.548-0.084-3.318
		c0.49,0.252,0.645,0.336,1.134,0.658h2.059c0.224-0.28,0.308-0.378,0.532-0.658c0.378,0.252,0.489,0.322,0.84,0.588
		c0.111,0.084,0.153,0.14,0.153,0.21c0,0.126-0.126,0.238-0.462,0.406v7.868l0.015,0.812c0,0.252,0.014,0.56,0.014,0.952
		c-0.014,0.49-0.028,0.532-0.112,0.728c-0.195,0.364-0.447,0.49-1.414,0.644c-0.056-0.308-0.153-0.462-0.35-0.63
		c-0.238-0.196-0.56-0.28-1.288-0.35l0.014-0.238c1.387,0.098,1.387,0.098,1.975,0.098c0.154-0.014,0.21-0.084,0.21-0.266v-3.71
		H10.432z M10.571,86.777c-0.014,1.736-0.014,1.806-0.098,2.786h2.45v-2.786H10.571z M12.924,86.455v-2.702h-2.353
		c0.015,0.504,0.015,0.77,0.015,1.008c0,0.112,0,0.756-0.015,1.694H12.924z"/>
	<path d="M19.294,86.581c-0.225,0.434-0.504,0.812-1.246,1.708c0.7,0.14,0.938,0.21,0.938,0.308c0,0.084-0.126,0.154-0.476,0.238
		v3.724c0,0.168,0,0.742,0.014,1.512c0,0.168,0,0.336,0,0.406c0,0.14,0,0.294,0,0.518c-0.014,0.112-0.042,0.14-0.111,0.182
		c-0.084,0.028-0.448,0.07-0.7,0.07c-0.112,0-0.154-0.028-0.183-0.14c0.084-2.268,0.099-2.94,0.099-3.808v-2.52
		c-0.561,0.644-0.966,1.036-1.904,1.848l-0.168-0.196c0.896-1.036,1.386-1.708,1.988-2.674c0.574-0.924,0.812-1.428,1.008-2.114
		c0.826,0.308,0.826,0.308,1.218,0.462c0.112,0.042,0.141,0.056,0.183,0.154h3.01c0-0.056,0-0.602-0.015-1.652h-1.861
		c-0.49,0-0.616,0-0.994,0.056l-0.098-0.49c0.686,0.112,0.714,0.112,1.092,0.112h1.861c-0.014-0.826-0.027-1.078-0.084-1.68
		c1.19,0.07,1.261,0.084,1.414,0.154c0.084,0.028,0.141,0.084,0.141,0.126c0,0.084-0.141,0.168-0.546,0.336v1.064h2.155
		c0.238-0.28,0.309-0.364,0.546-0.63c0.406,0.266,0.532,0.35,0.868,0.616c0.084,0.07,0.126,0.112,0.126,0.168
		c0,0.084-0.069,0.14-0.434,0.322c0,0.266,0,0.546,0,0.882c0,0.028,0,0.266,0,0.616h0.07c0.195-0.392,0.266-0.504,0.531-0.896
		c0.477,0.434,0.603,0.574,1.036,1.022c0.015,0.042,0.042,0.084,0.042,0.084c0,0.056-0.069,0.112-0.14,0.112h-1.54
		c0.014,1.078,0.028,1.876,0.042,2.38c-0.042,0.112-0.07,0.154-0.14,0.168c-0.112,0.042-0.448,0.07-0.715,0.07
		c-0.111,0-0.14-0.028-0.14-0.14v-0.364h-2.296c0,0.798,0,0.798,0.014,1.694h2.227c0.308-0.364,0.392-0.49,0.686-0.868
		c0.546,0.434,0.7,0.56,1.218,1.008c0.028,0.042,0.057,0.084,0.057,0.098c0,0.056-0.057,0.084-0.141,0.084h-4.046
		c0,0.112,0,0.196,0,0.266c0,0.49,0.015,0.854,0.015,1.456h2.8c0.364-0.392,0.462-0.518,0.798-0.952
		c0.56,0.448,0.742,0.588,1.302,1.064c0.028,0.042,0.042,0.084,0.042,0.098c0,0.056-0.069,0.112-0.14,0.112h-4.802
		c0.014,0.826,0.027,1.568,0.042,2.24c0,0.098-0.028,0.14-0.084,0.182c-0.057,0.028-0.435,0.056-0.757,0.056
		c-0.111,0-0.153-0.042-0.21-0.168l0.042-2.31h-2.729c-0.588,0-0.742,0.014-1.218,0.07l-0.112-0.518
		c0.644,0.112,0.784,0.126,1.33,0.126h2.729c0.015-0.91,0.028-1.484,0.028-1.722h-2.282c-0.279,0-0.531,0.014-1.092,0.056
		l-0.126-0.504c0.603,0.084,0.952,0.126,1.218,0.126h2.282v-1.694h-2.114c-0.321,0-0.531,0.014-0.951,0.07l-0.084-0.49
		c0.489,0.084,0.657,0.098,0.966,0.098h2.184c0-0.336,0-0.924-0.014-1.792H19.294z M15.724,86.357
		c0.784-0.7,1.246-1.218,1.918-2.184c0.546-0.756,0.672-0.966,0.868-1.484c1.231,0.392,1.498,0.504,1.498,0.63
		s-0.112,0.168-0.7,0.196c-1.372,1.61-2.156,2.31-3.416,3.066L15.724,86.357z M26.182,84.607h-2.296v1.652h2.296V84.607z
		 M23.886,86.581v1.792h2.296v-1.792H23.886z"/>
	<path d="M33.644,89.045c-0.028,0.126-0.238,1.008-0.63,2.632c-0.196,0.826-0.238,1.05-0.238,1.484c0,0.406-0.014,0.518-0.042,0.602
		c-0.056,0.154-0.182,0.238-0.336,0.238c-0.237,0-0.447-0.196-0.602-0.574c-0.309-0.728-0.49-1.862-0.49-2.982
		c0-0.42,0.042-0.938,0.112-1.498c0.098-0.812,0.098-0.812,0.489-2.646c0.141-0.658,0.196-1.008,0.196-1.302
		c0-0.462-0.111-0.812-0.392-1.316c0.308,0.014,0.56,0.196,0.938,0.686c0.351,0.434,0.519,0.798,0.519,1.106
		c0,0.224-0.015,0.28-0.294,0.84c-0.28,0.588-0.616,1.568-0.756,2.226c-0.126,0.532-0.183,1.134-0.183,1.736
		c0,0.77,0.07,1.26,0.267,1.848c0.237-0.49,0.35-0.77,0.504-1.19l0.741-1.96L33.644,89.045z M35.407,89.745
		c-0.027,0.28-0.042,0.406-0.042,0.588c0,1.54,0.883,2.17,3.053,2.17c0.405,0,0.812-0.028,1.189-0.098
		c0.294-0.042,0.294-0.042,0.742-0.224c0.084-0.028,0.154-0.042,0.21-0.042c0.364,0,0.882,0.49,0.882,0.826
		c0,0.168-0.111,0.28-0.308,0.35c-0.294,0.098-0.966,0.154-1.75,0.154c-1.75,0-2.996-0.294-3.626-0.854
		c-0.504-0.462-0.756-1.05-0.756-1.82c0-0.35,0.042-0.658,0.168-1.106L35.407,89.745z M35.38,85.293
		c0.49,0.294,0.798,0.378,1.302,0.378c0.868,0,2.226-0.308,2.814-0.63c0.182-0.098,0.21-0.112,0.308-0.112
		c0.112,0,0.294,0.07,0.49,0.196c0.294,0.168,0.434,0.336,0.434,0.518c0,0.182-0.098,0.266-0.392,0.322
		c-0.924,0.14-1.442,0.266-1.988,0.49c-0.434,0.182-1.246,0.63-1.806,0.994l-0.141-0.14c0.63-0.532,1.106-0.924,1.33-1.092
		c-0.294,0.014-0.447,0.028-0.574,0.028c-0.783,0-1.302-0.21-1.903-0.784L35.38,85.293z"/>
	<path d="M47.686,89.045c-0.252,0.882-0.644,2.408-0.812,3.094c-0.141,0.616-0.183,0.84-0.183,1.19
		c-0.014,0.448-0.027,0.504-0.098,0.616c-0.07,0.098-0.154,0.154-0.266,0.154c-0.238,0-0.435-0.196-0.603-0.63
		c-0.28-0.714-0.448-1.778-0.448-2.814c0-1.288,0.154-2.464,0.63-4.662c0.183-0.868,0.211-1.022,0.211-1.26
		c0-0.42-0.112-0.756-0.406-1.232c0.322,0.014,0.588,0.196,0.979,0.7c0.322,0.406,0.504,0.798,0.504,1.064
		c0,0.154,0,0.154-0.224,0.616c-0.672,1.4-1.064,3.066-1.064,4.564c0,0.714,0.057,1.162,0.225,1.736l0.588-1.4l0.756-1.806
		L47.686,89.045z M49.086,86.511c0.672,0.434,1.105,0.574,1.806,0.574c0.49,0,1.022-0.07,1.596-0.196c0-0.266,0-0.49,0-0.616
		c0-1.568-0.014-1.75-0.195-1.946c-0.168-0.182-0.477-0.28-0.924-0.322c0.195-0.182,0.308-0.224,0.672-0.224
		c0.308,0,0.686,0.056,0.951,0.126c0.406,0.126,0.616,0.294,0.616,0.504c0,0.098,0,0.112-0.126,0.434
		c-0.153,0.406-0.237,0.91-0.294,1.876c0.645-0.182,1.05-0.364,1.288-0.574c0.14-0.14,0.182-0.154,0.308-0.154
		c0.169,0,0.49,0.084,0.658,0.182c0.112,0.056,0.183,0.154,0.183,0.252c0,0.308-1.022,0.728-2.479,1.008
		c0,1.862,0.042,2.632,0.183,3.808c1.624,0.434,2.31,0.98,2.31,1.792c0,0.294-0.126,0.518-0.28,0.518c-0.111,0-0.21-0.07-0.489-0.35
		c-0.616-0.63-0.967-0.882-1.513-1.12c0.015,0.126,0.015,0.238,0.015,0.336c0,1.008-0.841,1.61-2.24,1.61
		c-1.218,0-2.072-0.588-2.072-1.428c0-0.966,1.036-1.582,2.632-1.582c0.267,0,0.462,0.014,0.854,0.042c0-0.126,0-0.21,0-0.238
		l-0.028-1.498l-0.014-1.792c-0.42,0.084-0.826,0.112-1.232,0.112c-1.021,0-1.609-0.252-2.31-0.98L49.086,86.511z M51.228,91.621
		c-1.105,0-1.792,0.364-1.792,0.98c0,0.49,0.546,0.826,1.372,0.826c0.771,0,1.316-0.224,1.54-0.658
		c0.14-0.252,0.182-0.462,0.182-0.98C52.138,91.677,51.746,91.621,51.228,91.621z"/>
	<path d="M60.51,88.877c0,0.532-0.42,0.952-0.952,0.952c-0.518,0-0.952-0.434-0.952-0.952s0.435-0.952,0.952-0.952
		C60.09,87.925,60.51,88.345,60.51,88.877z M65.172,88.877c0,0.532-0.42,0.952-0.952,0.952c-0.518,0-0.952-0.434-0.952-0.952
		s0.435-0.952,0.952-0.952C64.752,87.925,65.172,88.345,65.172,88.877z M69.848,88.877c0,0.532-0.42,0.952-0.952,0.952
		c-0.518,0-0.952-0.434-0.952-0.952s0.435-0.952,0.952-0.952C69.428,87.925,69.848,88.345,69.848,88.877z"/>
	<path d="M74.51,88.877c0,0.532-0.42,0.952-0.952,0.952c-0.518,0-0.952-0.434-0.952-0.952s0.435-0.952,0.952-0.952
		C74.09,87.925,74.51,88.345,74.51,88.877z M79.172,88.877c0,0.532-0.42,0.952-0.952,0.952c-0.518,0-0.952-0.434-0.952-0.952
		s0.435-0.952,0.952-0.952C78.752,87.925,79.172,88.345,79.172,88.877z M83.848,88.877c0,0.532-0.42,0.952-0.952,0.952
		c-0.518,0-0.952-0.434-0.952-0.952s0.435-0.952,0.952-0.952C83.428,87.925,83.848,88.345,83.848,88.877z"/>
</g>
<rect x="0.25" y="28.25" fill="none" stroke="#008CD6" stroke-width="0.5" width="56" height="14"/>
<polyline fill="none" stroke="#008CD6" stroke-width="0.5" points="10.833,28.25 10.833,21.25 3.833,21.25 3.833,28.25 "/>
<polyline fill="none" stroke="#008CD6" stroke-width="0.5" points="28.25,28.25 28.25,21.25 14.25,21.25 14.25,28.25 "/>
<line fill="none" stroke="#008CD6" stroke-width="0.5" x1="21.25" y1="21.25" x2="21.25" y2="28.25"/>
<line fill="none" stroke="#008CD6" stroke-width="0.5" stroke-dasharray="2" x1="0.646" y1="14.642" x2="0.646" y2="95.5"/>
<g>
	<text fill="#008CD6" x="0" y="13" font-size="8" font-family="sans-serif" font-weight="lighter">Line start</text>
</g>
<line fill="none" stroke="#008CD6" stroke-width="0.5" x1="14.25" y1="42.25" x2="14.25" y2="28.25"/>
<line fill="none" stroke="#008CD6" stroke-width="0.5" x1="28.25" y1="42.25" x2="28.25" y2="28.25"/>
<line fill="none" stroke="#008CD6" stroke-width="0.5" x1="42.25" y1="42.25" x2="42.25" y2="28.25"/>
</svg>
