<?xml version="1.0" encoding="utf-8"?>
<!-- Generator: Adobe Illustrator 12.0.0, SVG Export Plug-In . SVG Version: 6.00 Build 51448)  -->
<!DOCTYPE svg PUBLIC "-//W3C//DTD SVG 1.1//EN" "http://www.w3.org/Graphics/SVG/1.1/DTD/svg11.dtd" [
	<!ENTITY ns_svg "http://www.w3.org/2000/svg">
	<!ENTITY ns_xlink "http://www.w3.org/1999/xlink">
]>
<svg  version="1.1" id="レイヤー_1" xmlns="&ns_svg;" xmlns:xlink="&ns_xlink;" width="200.535"
	 viewBox="0 0 133.69 143.414" overflow="visible" enable-background="new 0 0 133.69 143.414" xml:space="preserve">
<g>
	<path d="M41.379,103.01c0.518-0.427,0.959-1.043,1.267-1.764c0.231-0.532,0.42-1.218,0.42-1.526c0-0.189-0.133-0.329-0.412-0.448
		c0.042-0.049,0.091-0.07,0.16-0.07c0.092,0,0.336,0.091,0.539,0.203c0.183,0.098,0.252,0.154,0.302,0.245
		c0.321-0.196,0.951-0.693,1.253-1.001c0.16-0.154,0.217-0.231,0.217-0.28c0-0.084-0.084-0.105-0.413-0.105
		c-0.462,0-1.659,0.189-2.415,0.385c-0.266,0.07-0.511,0.154-0.714,0.245c-0.042,0.021-0.112,0.035-0.161,0.035
		c-0.154,0-0.406-0.21-0.56-0.469c-0.077-0.133-0.134-0.294-0.134-0.378c0-0.049,0.015-0.098,0.05-0.161
		c0.126,0.287,0.35,0.42,0.692,0.42c0.252,0,0.378-0.014,1.688-0.182c0.063-0.007,0.217-0.028,0.482-0.056
		c1.085-0.126,1.142-0.14,1.288-0.21c0.042-0.014,0.056-0.021,0.091-0.021c0.077,0,0.203,0.07,0.371,0.203
		c0.301,0.231,0.504,0.469,0.504,0.588c0,0.105-0.042,0.133-0.252,0.189c-0.111,0.035-0.188,0.063-0.343,0.147
		c-0.581,0.329-0.896,0.49-1.652,0.847c-0.042,0.119-0.049,0.133-0.104,0.315c-0.315,0.959-0.588,1.505-1.008,2.002
		c-0.344,0.399-0.693,0.707-1.085,0.938L41.379,103.01z"/>
	<path d="M47.924,100.462c0.518-0.434,0.98-0.98,1.47-1.715c0.287-0.434,0.462-0.791,0.462-0.945c0-0.091-0.027-0.147-0.133-0.238
		c-0.091-0.077-0.091-0.077-0.168-0.126c-0.077-0.035-0.077-0.035-0.126-0.063c0.063-0.035,0.091-0.042,0.133-0.042
		c0.154,0,0.386,0.077,0.574,0.189c0.224,0.126,0.329,0.245,0.329,0.357c0,0.084-0.007,0.091-0.378,0.637
		c0.091,0.021,0.133,0.028,0.182,0.028c0.141,0,0.483-0.056,0.84-0.14c0.287-0.07,0.406-0.112,0.554-0.189
		c0.056-0.035,0.077-0.042,0.119-0.042c0.168,0,0.566,0.364,0.566,0.518c0,0.063-0.021,0.098-0.104,0.175
		c-0.119,0.105-0.154,0.161-0.336,0.497c-0.616,1.155-1.211,1.918-2.065,2.632c-0.602,0.511-1.127,0.84-1.736,1.092l-0.049-0.098
		c0.561-0.343,0.98-0.686,1.547-1.253c0.848-0.84,1.505-1.792,1.911-2.772c0.07-0.154,0.112-0.301,0.112-0.357
		c0-0.028-0.021-0.049-0.063-0.049c-0.104,0-0.546,0.112-0.889,0.224c-0.126,0.042-0.168,0.049-0.23,0.049
		c-0.147,0-0.295-0.07-0.435-0.203c-0.539,0.77-1.253,1.449-2.016,1.918L47.924,100.462z"/>
	<path d="M54.595,99.23c0.567,0.112,0.994,0.259,1.226,0.413c0.188,0.119,0.266,0.259,0.266,0.462c0,0.182-0.091,0.336-0.196,0.336
		c-0.069,0-0.111-0.028-0.217-0.161c-0.35-0.441-0.665-0.707-1.12-0.959L54.595,99.23z M60.013,99.062
		c-0.378,0.539-0.734,0.938-1.483,1.638c-0.581,0.546-1.345,1.085-2.43,1.729c-0.188,0.112-0.237,0.147-0.336,0.238
		c-0.056,0.049-0.104,0.07-0.161,0.07c-0.14,0-0.294-0.133-0.497-0.413c-0.133-0.203-0.217-0.413-0.217-0.56
		c0-0.07,0.015-0.112,0.057-0.168c0.153,0.301,0.321,0.441,0.531,0.441c0.189,0,0.707-0.238,1.372-0.637
		c1.085-0.637,2.282-1.582,3.066-2.415L60.013,99.062z M55.365,97.984c1.12,0.266,1.477,0.483,1.477,0.896
		c0,0.196-0.084,0.35-0.188,0.35c-0.077,0-0.077,0-0.379-0.371c-0.266-0.315-0.588-0.581-0.959-0.777L55.365,97.984z"/>
	<path d="M63.016,98.446c0.364,0,1.204-0.056,1.933-0.133c0.371-0.042,0.482-0.063,0.566-0.133c0.077-0.056,0.119-0.077,0.168-0.077
		c0.077,0,0.259,0.126,0.455,0.322c0.105,0.105,0.154,0.182,0.154,0.245c0,0.049-0.014,0.077-0.091,0.175
		c-0.057,0.077-0.077,0.154-0.183,0.847c-0.111,0.686-0.111,0.686-0.23,1.414c-0.042,0.231-0.07,0.399-0.084,0.511
		c0.259,0.168,0.343,0.259,0.343,0.392c0,0.063-0.056,0.105-0.154,0.105c-0.056,0-0.084,0-0.272-0.028
		c-0.091-0.014-0.364-0.021-0.638-0.021c-0.531,0-1.092,0.07-1.7,0.217c-0.183,0.042-0.238,0.063-0.357,0.112
		c-0.042,0.021-0.077,0.028-0.119,0.028c-0.153,0-0.294-0.098-0.448-0.315c-0.133-0.182-0.202-0.343-0.202-0.455
		c0-0.021,0.007-0.042,0.034-0.098c0.168,0.245,0.364,0.357,0.616,0.357c0.119,0,0.294-0.014,0.603-0.056
		c0.623-0.077,1.085-0.119,1.848-0.168c0.063-0.385,0.147-1.071,0.196-1.526c-0.896,0.049-1.981,0.196-2.422,0.336
		c-0.063,0.021-0.112,0.028-0.154,0.028c-0.084,0-0.182-0.049-0.259-0.126c-0.147-0.147-0.273-0.406-0.273-0.553
		c0-0.042,0.007-0.063,0.028-0.119c0.217,0.273,0.336,0.343,0.608,0.343c0.063,0,0.063,0,1.533-0.14
		c0.175-0.021,0.399-0.028,0.974-0.056c0.076-0.714,0.098-0.931,0.104-1.302c-0.483,0-0.952,0.049-1.918,0.182
		c-0.322,0.042-0.406,0.056-0.672,0.119c-0.07,0.021-0.119,0.028-0.154,0.028c-0.077,0-0.161-0.042-0.23-0.112
		c-0.176-0.189-0.309-0.441-0.309-0.602c0-0.042,0.007-0.077,0.042-0.14C62.505,98.334,62.694,98.446,63.016,98.446z"/>
	<path d="M68.973,98.201c0.672,0.168,1.078,0.329,1.352,0.525c0.161,0.112,0.237,0.266,0.237,0.476c0,0.231-0.076,0.392-0.195,0.392
		c-0.077,0-0.112-0.035-0.302-0.28c-0.343-0.455-0.595-0.686-1.141-1.029L68.973,98.201z M73.95,98.6
		c-0.351,0.658-0.777,1.211-1.471,1.883c-0.644,0.623-1.077,0.973-1.967,1.596c-0.329,0.231-0.364,0.259-0.413,0.322
		c-0.111,0.133-0.153,0.168-0.245,0.168c-0.286,0-0.818-0.672-0.818-1.029c0-0.042,0.007-0.07,0.035-0.14
		c0.14,0.21,0.153,0.224,0.252,0.308c0.104,0.098,0.202,0.147,0.279,0.147c0.119,0,0.336-0.091,0.68-0.294
		c0.783-0.455,1.057-0.651,1.673-1.155c0.86-0.7,1.281-1.127,1.883-1.869L73.95,98.6z"/>
	<path d="M76.393,103.038c1.1-0.931,1.708-1.645,2.317-2.681c0.448-0.777,0.833-1.631,0.833-1.869c0-0.07-0.035-0.091-0.14-0.091
		c-0.134,0-0.791,0.119-1.296,0.238c-0.531,0.126-0.979,0.266-1.28,0.399c-0.112,0.049-0.189,0.07-0.259,0.07
		c-0.147,0-0.329-0.14-0.505-0.378c-0.118-0.161-0.182-0.322-0.182-0.441c0-0.042,0.007-0.077,0.049-0.14
		c0.112,0.259,0.351,0.406,0.651,0.406c0.238,0,0.763-0.077,1.995-0.287c0.616-0.105,0.665-0.119,0.812-0.196
		c0.084-0.049,0.084-0.049,0.141-0.049c0.104,0,0.301,0.126,0.511,0.322c0.146,0.14,0.217,0.252,0.217,0.343
		c0,0.056-0.021,0.098-0.098,0.182c-0.092,0.091-0.119,0.14-0.245,0.385c-0.567,1.141-1.274,2.128-2.017,2.828
		c-0.44,0.413-0.847,0.707-1.441,1.043L76.393,103.038z M81.559,97.753c0,0.392-0.314,0.707-0.7,0.707
		c-0.385,0-0.699-0.315-0.699-0.707c0-0.385,0.314-0.7,0.699-0.7C81.244,97.053,81.559,97.368,81.559,97.753z M80.369,97.753
		c0,0.273,0.217,0.497,0.489,0.497c0.273,0,0.49-0.224,0.49-0.497c0-0.273-0.217-0.49-0.49-0.49
		C80.586,97.263,80.369,97.48,80.369,97.753z"/>
	<path d="M82.861,98.418c0.202,0,0.378,0.07,0.791,0.315c0.252-0.007,1.099-0.084,2.184-0.196c0.609-0.07,0.686-0.084,0.812-0.14
		c0.063-0.035,0.084-0.042,0.119-0.042c0.084,0,0.21,0.084,0.364,0.238c0.161,0.161,0.231,0.266,0.231,0.35
		c0,0.049-0.015,0.077-0.057,0.133c-0.069,0.091-0.098,0.161-0.168,0.385c-0.07,0.231-0.104,0.385-0.294,1.183
		c-0.126,0.546-0.126,0.546-0.175,0.721c0.238,0.105,0.35,0.224,0.35,0.357c0,0.084-0.056,0.147-0.133,0.147
		c-0.049,0-0.049,0-0.343-0.049c-0.175-0.021-0.595-0.042-0.994-0.042c-0.546,0-1.001,0.028-1.61,0.105
		c0.008,0.175,0.008,0.182,0.008,0.259c0,0.189-0.035,0.252-0.154,0.252c-0.112,0-0.21-0.098-0.315-0.315
		c-0.063-0.126-0.098-0.245-0.098-0.322c0-0.035,0-0.049,0.028-0.14c0.014-0.063,0.021-0.273,0.021-0.56
		c0-0.819-0.104-1.778-0.224-2.093c-0.091-0.238-0.231-0.385-0.483-0.504C82.784,98.425,82.805,98.418,82.861,98.418z
		 M83.918,101.547c0.525-0.021,1.911-0.119,2.31-0.161c0.161-0.721,0.364-1.932,0.435-2.583c-0.091-0.007-0.126-0.007-0.189-0.007
		c-0.14,0-0.504,0.028-1.379,0.091c-0.756,0.063-0.994,0.091-1.357,0.147C83.771,99.748,83.854,100.917,83.918,101.547z"/>
	<path d="M89.84,100.595c0.504-0.42,0.973-0.966,1.47-1.708c0.287-0.427,0.462-0.791,0.462-0.945c0-0.091-0.027-0.147-0.133-0.238
		c-0.084-0.084-0.084-0.084-0.168-0.126c-0.077-0.042-0.077-0.042-0.126-0.07c0.063-0.028,0.091-0.035,0.133-0.035
		c0.147,0,0.386,0.077,0.574,0.189c0.224,0.126,0.329,0.245,0.329,0.357c0,0.084-0.007,0.091-0.378,0.63
		c0.091,0.028,0.133,0.035,0.188,0.035c0.134,0,0.47-0.056,0.833-0.147c0.295-0.07,0.406-0.105,0.554-0.189
		c0.056-0.035,0.077-0.042,0.119-0.042c0.168,0,0.566,0.364,0.566,0.518c0,0.056-0.027,0.098-0.104,0.175
		c-0.119,0.112-0.154,0.161-0.336,0.497c-0.616,1.162-1.211,1.918-2.065,2.639c-0.602,0.504-1.127,0.84-1.736,1.092l-0.049-0.098
		c0.561-0.35,0.98-0.686,1.547-1.253c0.848-0.847,1.505-1.792,1.911-2.772c0.07-0.154,0.112-0.301,0.112-0.357
		c0-0.028-0.021-0.049-0.063-0.049c-0.104,0-0.539,0.105-0.889,0.224c-0.126,0.042-0.168,0.049-0.231,0.049
		c-0.146,0-0.294-0.07-0.434-0.203c-0.539,0.77-1.246,1.442-2.016,1.918L89.84,100.595z M93.704,97.326
		c0.392,0.147,0.644,0.28,0.882,0.462c0.161,0.126,0.238,0.266,0.238,0.441c0,0.21-0.063,0.336-0.168,0.336
		c-0.07,0-0.099-0.028-0.21-0.224c-0.189-0.343-0.441-0.637-0.791-0.938L93.704,97.326z M94.32,96.92
		c0.42,0.105,0.707,0.231,0.938,0.392c0.14,0.098,0.203,0.224,0.203,0.399c0,0.196-0.049,0.301-0.147,0.301
		c-0.069,0-0.098-0.028-0.21-0.21c-0.203-0.308-0.434-0.532-0.833-0.805L94.32,96.92z"/>
	<path d="M97.883,103.031c0.693-0.532,1.134-0.966,1.596-1.561c0.567-0.721,0.987-1.484,1.177-2.135
		c-0.68,0.049-1.31,0.147-2.037,0.322c-0.441,0.105-0.581,0.147-0.729,0.217c-0.111,0.056-0.14,0.063-0.21,0.063
		c-0.245,0-0.644-0.504-0.644-0.812c0-0.049,0.007-0.07,0.042-0.119c0.161,0.28,0.35,0.406,0.608,0.406
		c0.273,0,1.456-0.147,2.366-0.301c0.378-0.063,0.435-0.077,0.574-0.161c0.049-0.028,0.084-0.042,0.112-0.042
		c0.063,0,0.168,0.07,0.328,0.21c0.196,0.182,0.28,0.294,0.28,0.385c0,0.056-0.035,0.112-0.104,0.175
		c-0.099,0.07-0.141,0.133-0.26,0.364c-0.756,1.428-1.883,2.562-3.037,3.073L97.883,103.031z M97.792,97.613
		c0.238,0.273,0.448,0.378,0.749,0.378c0.469,0,1.315-0.182,1.582-0.336c0.056-0.028,0.091-0.042,0.146-0.042
		c0.196,0,0.546,0.245,0.546,0.385c0,0.084-0.063,0.126-0.266,0.154c-0.833,0.126-1.407,0.182-1.785,0.182
		c-0.524,0-0.734-0.133-1.07-0.658L97.792,97.613z"/>
	<path d="M106.969,99.839c1.057,0.882,1.638,1.61,1.638,2.065c0,0.28-0.153,0.567-0.301,0.567c-0.056,0-0.104-0.035-0.133-0.105
		c-0.021-0.049-0.021-0.049-0.105-0.336c-0.063-0.189-0.091-0.273-0.168-0.441c-0.553,0.14-1.567,0.357-2.61,0.546
		c-0.603,0.119-0.756,0.154-0.875,0.231c-0.063,0.042-0.112,0.056-0.161,0.056c-0.112,0-0.21-0.07-0.322-0.224
		c-0.195-0.273-0.308-0.518-0.308-0.693c0-0.063,0.007-0.105,0.049-0.189c0.175,0.371,0.315,0.476,0.637,0.476
		c0.028,0,0.07,0,0.175-0.014c0.196-0.392,0.603-1.33,0.896-2.086c0.336-0.868,0.483-1.344,0.483-1.54
		c0-0.182-0.134-0.329-0.413-0.448c0.069-0.042,0.111-0.056,0.188-0.056c0.161,0,0.399,0.091,0.609,0.231
		c0.217,0.14,0.329,0.273,0.329,0.378c0,0.07-0.007,0.084-0.105,0.21c-0.063,0.077-0.182,0.301-0.322,0.581
		c-0.496,1.008-1.057,2.065-1.441,2.723c0.917-0.063,2.31-0.231,3.115-0.364c-0.105-0.231-0.203-0.413-0.42-0.763
		c-0.112-0.182-0.154-0.238-0.525-0.735L106.969,99.839z"/>
	<path d="M44.645,110.654c-0.938,0.924-1.288,1.19-2.156,1.722l-0.126-0.182c0.882-0.756,1.47-1.442,2.338-2.716
		c0.616-0.882,0.91-1.428,1.204-2.156c0.308,0.126,0.532,0.224,0.672,0.28c0.603,0.238,0.729,0.308,0.729,0.42
		c0,0.126-0.183,0.196-0.532,0.196c-0.014,0-0.056,0-0.098-0.014c-0.616,0.868-0.967,1.316-1.555,1.96
		c0.756,0.168,0.924,0.224,0.924,0.35c0,0.098-0.056,0.126-0.447,0.252v2.394c0,0.742,0,0.742,0.014,2.576c0,0.182,0,0.364,0,0.448
		c0,0.154,0,0.322,0,0.574c-0.014,0.112-0.042,0.126-0.168,0.154c-0.196,0.028-0.42,0.056-0.574,0.056
		c-0.237,0-0.308-0.028-0.308-0.126c0-0.014,0-0.042,0-0.07c0.027-0.364,0.056-1.498,0.084-3.402V110.654z M42.656,108.26
		c0.729-0.658,1.33-1.33,2.059-2.324c0.392-0.518,0.644-0.924,1.021-1.61c0.756,0.322,1.148,0.518,1.274,0.616
		c0.014,0.014,0.042,0.056,0.069,0.14c0,0.084-0.14,0.154-0.294,0.154c-0.084,0-0.195-0.014-0.321-0.014
		c-1.177,1.414-2.269,2.38-3.668,3.206L42.656,108.26z M48.158,109.268c-0.392,0-0.658,0.028-1.231,0.098l-0.112-0.56
		c0.602,0.126,0.798,0.14,1.344,0.14h5.208c0.364-0.448,0.477-0.574,0.84-0.994c0.561,0.462,0.714,0.616,1.232,1.12
		c0.042,0.056,0.056,0.084,0.056,0.098c0,0.056-0.069,0.098-0.126,0.098h-2.8v2.8c0,1.26,0,1.96,0.028,3.724
		c0,0.056,0,0.112,0,0.126c0,0.308-0.126,0.49-0.448,0.686c-0.294,0.168-0.616,0.266-1.302,0.392
		c-0.028-0.448-0.141-0.616-0.477-0.77c-0.14-0.056-0.364-0.112-0.77-0.168l-0.938-0.14v-0.238c1.078,0.07,1.498,0.098,2.66,0.126
		c0.196-0.014,0.238-0.042,0.238-0.196v-6.342H48.158z M47.431,105.292c0.489,0.098,0.868,0.14,1.399,0.14h3.683
		c0.321-0.42,0.42-0.546,0.756-0.938c0.56,0.42,0.728,0.56,1.288,1.05c0.027,0.042,0.042,0.07,0.042,0.098
		c0,0.056-0.084,0.112-0.168,0.112H48.83c-0.504,0-0.756,0.014-1.302,0.098L47.431,105.292z"/>
	<path d="M60.744,112.67c0.028-0.826,0.057-2.044,0.057-3.08c0-0.392,0-0.392-0.057-1.638c0.448,0.238,0.588,0.308,1.022,0.546
		h1.582v-1.12h-2.254c-0.28,0-0.504,0.014-0.967,0.07l-0.098-0.49c0.322,0.056,0.813,0.098,1.064,0.098h2.254v-1.148
		c-1.036,0.154-1.891,0.238-3.024,0.308l-0.027-0.196c1.008-0.154,2.197-0.42,3.43-0.77c1.162-0.322,1.764-0.56,2.31-0.868
		c0.351,0.182,0.714,0.392,0.938,0.518c0.279,0.168,0.294,0.182,0.294,0.252s-0.099,0.126-0.252,0.126
		c-0.07,0-0.21-0.014-0.588-0.042c-0.826,0.224-1.372,0.35-2.254,0.518v1.302h1.651c0.267-0.322,0.351-0.406,0.645-0.714
		c0.476,0.364,0.63,0.476,1.078,0.84c0.042,0.042,0.069,0.084,0.069,0.112c0,0.056-0.069,0.084-0.182,0.084h-3.262v1.12h1.638
		c0.21-0.238,0.28-0.308,0.49-0.546c0.294,0.224,0.392,0.308,0.686,0.546c0.112,0.098,0.154,0.14,0.154,0.182
		c0,0.07-0.015,0.084-0.364,0.336c-0.014,1.54-0.014,1.54-0.014,1.96c0,0.364,0.014,0.756,0.027,1.484
		c0,0.196-0.153,0.266-0.602,0.266c-0.168,0-0.266-0.056-0.266-0.168c0-0.014,0-0.028,0-0.042v-0.168h-1.75v1.386h1.344
		c0.294-0.308,0.392-0.406,0.658-0.7c0.447,0.35,0.588,0.462,1.021,0.812c0.042,0.056,0.056,0.084,0.056,0.112
		c0,0.056-0.056,0.098-0.126,0.098h-2.953v1.12c1.035-0.112,1.596-0.182,2.701-0.336l0.028,0.168
		c-1.694,0.448-2.38,0.602-3.164,0.77c-2.45,0.49-2.45,0.49-2.954,0.602c-0.098,0.378-0.153,0.504-0.252,0.504
		c-0.14,0-0.252-0.308-0.518-1.386c0.896-0.028,1.903-0.098,3.332-0.238v-1.204H61.08c-0.294,0-0.462,0.014-0.798,0.07l-0.098-0.476
		c0.336,0.056,0.574,0.084,0.966,0.084h2.198v-1.386h-1.681v0.266c0,0.126-0.027,0.168-0.14,0.196
		c-0.07,0.028-0.364,0.056-0.532,0.056c-0.195,0-0.252-0.042-0.252-0.168V112.67z M63.349,108.82h-1.681v1.414h1.681V108.82z
		 M63.349,110.556h-1.681v1.47h1.681V110.556z M65.925,108.82h-1.75v1.414h1.75V108.82z M65.925,110.556h-1.75v1.47h1.75V110.556z
		 M71.385,108.078c0.224-0.252,0.294-0.322,0.518-0.574c0.364,0.238,0.462,0.322,0.784,0.574c0.111,0.098,0.14,0.14,0.14,0.21
		c0,0.07-0.098,0.154-0.42,0.434c-0.126,3.416-0.322,5.544-0.616,6.65c-0.182,0.686-0.336,0.952-0.714,1.176
		c-0.308,0.196-0.588,0.294-1.204,0.392c-0.195-0.504-0.21-0.546-0.405-0.644c-0.253-0.14-0.589-0.238-1.33-0.378v-0.196
		c0.756,0.056,1.75,0.112,2.016,0.112c0.406,0,0.588-0.098,0.672-0.364c0.364-1.078,0.588-3.542,0.658-7.07h-1.596
		c-0.141,2.268-0.448,3.906-0.98,5.096c-0.49,1.12-1.288,2.072-2.338,2.8c-0.518,0.378-0.882,0.56-1.694,0.868l-0.111-0.168
		c1.189-0.658,1.876-1.232,2.548-2.128c1.063-1.456,1.512-3.164,1.693-6.468h-0.741c-0.252,0-0.462,0.014-0.896,0.084l-0.14-0.504
		c0.476,0.07,0.798,0.098,1.134,0.098h0.658c0.042-0.756,0.056-1.358,0.056-1.918c0-0.686-0.014-0.938-0.056-1.54
		c1.063,0.07,1.54,0.154,1.54,0.294c0,0.014,0,0.014,0,0.014c-0.015,0.126-0.084,0.168-0.574,0.392
		c-0.028,1.344-0.028,1.666-0.084,2.758H71.385z"/>
	<path d="M77.586,106.917c0.379,0.07,0.826,0.112,1.219,0.112h3.023c0.336-0.378,0.448-0.504,0.784-0.868
		c0.518,0.42,0.672,0.56,1.148,0.994c0.042,0.042,0.056,0.084,0.056,0.098c0,0.042-0.056,0.098-0.098,0.098h-4.984
		c-0.49,0-0.672,0.014-1.064,0.07L77.586,106.917z M78.175,108.792c0.447,0.084,0.728,0.112,1.092,0.112h1.806
		c0.309-0.336,0.393-0.448,0.7-0.77c0.476,0.35,0.616,0.476,1.05,0.882c0.042,0.042,0.056,0.098,0.056,0.126
		c0,0.042-0.056,0.084-0.111,0.084h-3.5c-0.42,0-0.603,0.014-1.008,0.042L78.175,108.792z M78.217,105.012
		c0.308,0.056,0.756,0.098,1.05,0.098h1.932c0.336-0.378,0.435-0.49,0.784-0.826c0.49,0.392,0.644,0.518,1.134,0.91
		c0.056,0.07,0.084,0.112,0.084,0.14c0,0.056-0.056,0.098-0.14,0.098h-3.794c-0.42,0-0.603,0.014-0.966,0.056L78.217,105.012z
		 M78.217,110.71c0.363,0.084,0.588,0.098,1.05,0.098h1.834c0.308-0.364,0.406-0.476,0.714-0.84
		c0.448,0.392,0.588,0.518,1.008,0.924c0.056,0.07,0.084,0.112,0.084,0.14c0,0.056-0.056,0.098-0.112,0.098h-3.527
		c-0.322,0-0.546,0.014-0.98,0.056L78.217,110.71z M79.252,116.688c0,0.224-0.126,0.266-0.728,0.266
		c-0.168,0-0.224-0.042-0.238-0.182c0.028-0.7,0.057-2.422,0.057-3.71c0-0.406-0.015-0.588-0.057-1.064
		c0.477,0.294,0.616,0.392,1.078,0.728h2.002c0.196-0.224,0.406-0.448,0.603-0.672l0.84,0.672c0.014,0.042,0.027,0.07,0.027,0.084
		c0.015,0.042,0.028,0.07,0.028,0.098c0,0.084-0.154,0.252-0.434,0.448c0,0.168,0,0.28,0,0.392c0,1.036,0.014,2.338,0.042,2.772
		c-0.015,0.126-0.042,0.182-0.154,0.21c-0.112,0.028-0.406,0.056-0.574,0.056c-0.153,0-0.224-0.056-0.237-0.182v-0.602h-2.255
		V116.688z M79.252,115.68h2.255v-2.632h-2.255V115.68z M88.353,109.226c0.364-0.476,0.49-0.616,0.91-1.064
		c0.546,0.448,0.714,0.588,1.218,1.064c0.056,0.07,0.084,0.14,0.084,0.182c0,0.07-0.084,0.126-0.168,0.126h-3.458
		c0,3.906,0,4.438,0.084,7.154c-0.014,0.112-0.042,0.168-0.126,0.196c-0.098,0.042-0.448,0.084-0.714,0.084
		c-0.196,0-0.267-0.042-0.267-0.196c0.042-1.652,0.07-3.794,0.07-6.328c0-0.112,0-0.518-0.014-0.91H84.25
		c-0.518,0-0.699,0.014-1.134,0.07l-0.084-0.504c0.378,0.084,0.798,0.126,1.218,0.126h1.723c-0.015-3.948-0.015-4.102-0.112-4.704
		c0.322,0.028,0.574,0.042,0.728,0.056c0.742,0.056,0.967,0.112,0.967,0.252c0,0.126-0.07,0.168-0.616,0.364
		c0,1.652,0,1.652,0,4.032H88.353z"/>
	<path d="M98.895,114.014v0.798c-0.014,0.112-0.042,0.154-0.141,0.168c-0.14,0.028-0.392,0.056-0.588,0.056
		c-0.195,0-0.252-0.042-0.252-0.182c0,0,0-0.028,0-0.042c0.042-1.666,0.042-1.666,0.042-6.286c0-0.602-0.014-0.812-0.042-1.344
		c0.49,0.238,0.645,0.322,1.106,0.588h1.75v-2.31h-4.032c-0.686,0-1.063,0.014-1.596,0.084l-0.07-0.532
		c0.588,0.112,0.784,0.126,1.666,0.126h8.61c0.392-0.49,0.504-0.63,0.91-1.106c0.615,0.49,0.798,0.658,1.386,1.204
		c0.042,0.042,0.069,0.098,0.069,0.126c0,0.056-0.069,0.098-0.182,0.098h-5.838v2.31h1.904c0.21-0.252,0.279-0.336,0.489-0.588
		c0.364,0.266,0.477,0.35,0.784,0.588c0.084,0.056,0.126,0.112,0.126,0.154c0,0.098-0.069,0.154-0.378,0.35
		c0,4.452,0,4.452,0.028,6.356c0,0.098-0.028,0.126-0.098,0.154c-0.084,0.042-0.393,0.084-0.645,0.084
		c-0.14,0-0.196-0.042-0.196-0.154v-0.7H98.895z M95.45,110.654c0-0.826,0-0.938,0-1.274c0-0.14,0-0.252,0-0.294
		c0-0.7-0.027-1.316-0.056-1.722c1.218,0.182,1.483,0.252,1.483,0.392c0,0.098-0.111,0.182-0.434,0.336v7.812h9.744v-7.476
		c0-0.294-0.014-0.546-0.042-1.134c1.498,0.224,1.554,0.238,1.554,0.378c0,0.112-0.098,0.182-0.504,0.378v4.858
		c0,1.862,0,2.324,0.056,3.822c0,0.014,0,0.028,0,0.042c0,0.084-0.027,0.126-0.098,0.168c-0.084,0.042-0.448,0.084-0.728,0.084
		c-0.168,0-0.238-0.056-0.238-0.21v-0.588h-9.744v0.588c0,0.014,0,0.028,0,0.028c0,0.154-0.224,0.224-0.728,0.224
		c-0.252,0-0.294-0.028-0.309-0.182c0.042-2.646,0.042-2.674,0.042-4.97V110.654z M100.771,108.092h-1.876v2.52h1.876V108.092z
		 M100.771,110.92h-1.876v2.8h1.876V110.92z M103.71,108.092h-2.016v2.52h2.016V108.092z M103.71,110.92h-2.016v2.8h2.016V110.92z"
		/>
</g>
<g>
	<path d="M41.379,129.26c0.518-0.427,0.959-1.043,1.267-1.764c0.231-0.532,0.42-1.218,0.42-1.526c0-0.189-0.133-0.329-0.412-0.448
		c0.042-0.049,0.091-0.07,0.16-0.07c0.092,0,0.336,0.091,0.539,0.203c0.183,0.098,0.252,0.154,0.302,0.245
		c0.321-0.196,0.951-0.693,1.253-1.001c0.16-0.154,0.217-0.231,0.217-0.28c0-0.084-0.084-0.105-0.413-0.105
		c-0.462,0-1.659,0.189-2.415,0.385c-0.266,0.07-0.511,0.154-0.714,0.245c-0.042,0.021-0.112,0.035-0.161,0.035
		c-0.154,0-0.406-0.21-0.56-0.469c-0.077-0.133-0.134-0.294-0.134-0.378c0-0.049,0.015-0.098,0.05-0.161
		c0.126,0.287,0.35,0.42,0.692,0.42c0.252,0,0.378-0.014,1.688-0.182c0.063-0.007,0.217-0.028,0.482-0.056
		c1.085-0.126,1.142-0.14,1.288-0.21c0.042-0.014,0.056-0.021,0.091-0.021c0.077,0,0.203,0.07,0.371,0.203
		c0.301,0.231,0.504,0.469,0.504,0.588c0,0.105-0.042,0.133-0.252,0.189c-0.111,0.035-0.188,0.063-0.343,0.147
		c-0.581,0.329-0.896,0.49-1.652,0.847c-0.042,0.119-0.049,0.133-0.104,0.315c-0.315,0.959-0.588,1.505-1.008,2.002
		c-0.344,0.399-0.693,0.707-1.085,0.938L41.379,129.26z"/>
	<path d="M47.924,126.712c0.518-0.434,0.98-0.98,1.47-1.715c0.287-0.434,0.462-0.791,0.462-0.945c0-0.091-0.027-0.147-0.133-0.238
		c-0.091-0.077-0.091-0.077-0.168-0.126c-0.077-0.035-0.077-0.035-0.126-0.063c0.063-0.035,0.091-0.042,0.133-0.042
		c0.154,0,0.386,0.077,0.574,0.189c0.224,0.126,0.329,0.245,0.329,0.357c0,0.084-0.007,0.091-0.378,0.637
		c0.091,0.021,0.133,0.028,0.182,0.028c0.141,0,0.483-0.056,0.84-0.14c0.287-0.07,0.406-0.112,0.554-0.189
		c0.056-0.035,0.077-0.042,0.119-0.042c0.168,0,0.566,0.364,0.566,0.518c0,0.063-0.021,0.098-0.104,0.175
		c-0.119,0.105-0.154,0.161-0.336,0.497c-0.616,1.155-1.211,1.918-2.065,2.632c-0.602,0.511-1.127,0.84-1.736,1.092l-0.049-0.098
		c0.561-0.343,0.98-0.686,1.547-1.253c0.848-0.84,1.505-1.792,1.911-2.772c0.07-0.154,0.112-0.301,0.112-0.357
		c0-0.028-0.021-0.049-0.063-0.049c-0.104,0-0.546,0.112-0.889,0.224c-0.126,0.042-0.168,0.049-0.23,0.049
		c-0.147,0-0.295-0.07-0.435-0.203c-0.539,0.77-1.253,1.449-2.016,1.918L47.924,126.712z"/>
	<path d="M54.595,125.48c0.567,0.112,0.994,0.259,1.226,0.413c0.188,0.119,0.266,0.259,0.266,0.462c0,0.182-0.091,0.336-0.196,0.336
		c-0.069,0-0.111-0.028-0.217-0.161c-0.35-0.441-0.665-0.707-1.12-0.959L54.595,125.48z M60.013,125.312
		c-0.378,0.539-0.734,0.938-1.483,1.638c-0.581,0.546-1.345,1.085-2.43,1.729c-0.188,0.112-0.237,0.147-0.336,0.238
		c-0.056,0.049-0.104,0.07-0.161,0.07c-0.14,0-0.294-0.133-0.497-0.413c-0.133-0.203-0.217-0.413-0.217-0.56
		c0-0.07,0.015-0.112,0.057-0.168c0.153,0.301,0.321,0.441,0.531,0.441c0.189,0,0.707-0.238,1.372-0.637
		c1.085-0.637,2.282-1.582,3.066-2.415L60.013,125.312z M55.365,124.234c1.12,0.266,1.477,0.483,1.477,0.896
		c0,0.196-0.084,0.35-0.188,0.35c-0.077,0-0.077,0-0.379-0.371c-0.266-0.315-0.588-0.581-0.959-0.777L55.365,124.234z"/>
	<path d="M63.016,124.696c0.364,0,1.204-0.056,1.933-0.133c0.371-0.042,0.482-0.063,0.566-0.133
		c0.077-0.056,0.119-0.077,0.168-0.077c0.077,0,0.259,0.126,0.455,0.322c0.105,0.105,0.154,0.182,0.154,0.245
		c0,0.049-0.014,0.077-0.091,0.175c-0.057,0.077-0.077,0.154-0.183,0.847c-0.111,0.686-0.111,0.686-0.23,1.414
		c-0.042,0.231-0.07,0.399-0.084,0.511c0.259,0.168,0.343,0.259,0.343,0.392c0,0.063-0.056,0.105-0.154,0.105
		c-0.056,0-0.084,0-0.272-0.028c-0.091-0.014-0.364-0.021-0.638-0.021c-0.531,0-1.092,0.07-1.7,0.217
		c-0.183,0.042-0.238,0.063-0.357,0.112c-0.042,0.021-0.077,0.028-0.119,0.028c-0.153,0-0.294-0.098-0.448-0.315
		c-0.133-0.182-0.202-0.343-0.202-0.455c0-0.021,0.007-0.042,0.034-0.098c0.168,0.245,0.364,0.357,0.616,0.357
		c0.119,0,0.294-0.014,0.603-0.056c0.623-0.077,1.085-0.119,1.848-0.168c0.063-0.385,0.147-1.071,0.196-1.526
		c-0.896,0.049-1.981,0.196-2.422,0.336c-0.063,0.021-0.112,0.028-0.154,0.028c-0.084,0-0.182-0.049-0.259-0.126
		c-0.147-0.147-0.273-0.406-0.273-0.553c0-0.042,0.007-0.063,0.028-0.119c0.217,0.273,0.336,0.343,0.608,0.343
		c0.063,0,0.063,0,1.533-0.14c0.175-0.021,0.399-0.028,0.974-0.056c0.076-0.714,0.098-0.931,0.104-1.302
		c-0.483,0-0.952,0.049-1.918,0.182c-0.322,0.042-0.406,0.056-0.672,0.119c-0.07,0.021-0.119,0.028-0.154,0.028
		c-0.077,0-0.161-0.042-0.23-0.112c-0.176-0.189-0.309-0.441-0.309-0.602c0-0.042,0.007-0.077,0.042-0.14
		C62.505,124.584,62.694,124.696,63.016,124.696z"/>
	<path d="M68.973,124.451c0.672,0.168,1.078,0.329,1.352,0.525c0.161,0.112,0.237,0.266,0.237,0.476
		c0,0.231-0.076,0.392-0.195,0.392c-0.077,0-0.112-0.035-0.302-0.28c-0.343-0.455-0.595-0.686-1.141-1.029L68.973,124.451z
		 M73.95,124.85c-0.351,0.658-0.777,1.211-1.471,1.883c-0.644,0.623-1.077,0.973-1.967,1.596c-0.329,0.231-0.364,0.259-0.413,0.322
		c-0.111,0.133-0.153,0.168-0.245,0.168c-0.286,0-0.818-0.672-0.818-1.029c0-0.042,0.007-0.07,0.035-0.14
		c0.14,0.21,0.153,0.224,0.252,0.308c0.104,0.098,0.202,0.147,0.279,0.147c0.119,0,0.336-0.091,0.68-0.294
		c0.783-0.455,1.057-0.651,1.673-1.155c0.86-0.7,1.281-1.127,1.883-1.869L73.95,124.85z"/>
	<path d="M76.393,129.288c1.1-0.931,1.708-1.645,2.317-2.681c0.448-0.777,0.833-1.631,0.833-1.869c0-0.07-0.035-0.091-0.14-0.091
		c-0.134,0-0.791,0.119-1.296,0.238c-0.531,0.126-0.979,0.266-1.28,0.399c-0.112,0.049-0.189,0.07-0.259,0.07
		c-0.147,0-0.329-0.14-0.505-0.378c-0.118-0.161-0.182-0.322-0.182-0.441c0-0.042,0.007-0.077,0.049-0.14
		c0.112,0.259,0.351,0.406,0.651,0.406c0.238,0,0.763-0.077,1.995-0.287c0.616-0.105,0.665-0.119,0.812-0.196
		c0.084-0.049,0.084-0.049,0.141-0.049c0.104,0,0.301,0.126,0.511,0.322c0.146,0.14,0.217,0.252,0.217,0.343
		c0,0.056-0.021,0.098-0.098,0.182c-0.092,0.091-0.119,0.14-0.245,0.385c-0.567,1.141-1.274,2.128-2.017,2.828
		c-0.44,0.413-0.847,0.707-1.441,1.043L76.393,129.288z M81.559,124.003c0,0.392-0.314,0.707-0.7,0.707
		c-0.385,0-0.699-0.315-0.699-0.707c0-0.385,0.314-0.7,0.699-0.7C81.244,123.303,81.559,123.618,81.559,124.003z M80.369,124.003
		c0,0.273,0.217,0.497,0.489,0.497c0.273,0,0.49-0.224,0.49-0.497c0-0.273-0.217-0.49-0.49-0.49
		C80.586,123.513,80.369,123.73,80.369,124.003z"/>
	<path d="M82.861,124.668c0.202,0,0.378,0.07,0.791,0.315c0.252-0.007,1.099-0.084,2.184-0.196c0.609-0.07,0.686-0.084,0.812-0.14
		c0.063-0.035,0.084-0.042,0.119-0.042c0.084,0,0.21,0.084,0.364,0.238c0.161,0.161,0.231,0.266,0.231,0.35
		c0,0.049-0.015,0.077-0.057,0.133c-0.069,0.091-0.098,0.161-0.168,0.385c-0.07,0.231-0.104,0.385-0.294,1.183
		c-0.126,0.546-0.126,0.546-0.175,0.721c0.238,0.105,0.35,0.224,0.35,0.357c0,0.084-0.056,0.147-0.133,0.147
		c-0.049,0-0.049,0-0.343-0.049c-0.175-0.021-0.595-0.042-0.994-0.042c-0.546,0-1.001,0.028-1.61,0.105
		c0.008,0.175,0.008,0.182,0.008,0.259c0,0.189-0.035,0.252-0.154,0.252c-0.112,0-0.21-0.098-0.315-0.315
		c-0.063-0.126-0.098-0.245-0.098-0.322c0-0.035,0-0.049,0.028-0.14c0.014-0.063,0.021-0.273,0.021-0.56
		c0-0.819-0.104-1.778-0.224-2.093c-0.091-0.238-0.231-0.385-0.483-0.504C82.784,124.675,82.805,124.668,82.861,124.668z
		 M83.918,127.797c0.525-0.021,1.911-0.119,2.31-0.161c0.161-0.721,0.364-1.932,0.435-2.583c-0.091-0.007-0.126-0.007-0.189-0.007
		c-0.14,0-0.504,0.028-1.379,0.091c-0.756,0.063-0.994,0.091-1.357,0.147C83.771,125.998,83.854,127.167,83.918,127.797z"/>
	<path d="M89.84,126.845c0.504-0.42,0.973-0.966,1.47-1.708c0.287-0.427,0.462-0.791,0.462-0.945c0-0.091-0.027-0.147-0.133-0.238
		c-0.084-0.084-0.084-0.084-0.168-0.126c-0.077-0.042-0.077-0.042-0.126-0.07c0.063-0.028,0.091-0.035,0.133-0.035
		c0.147,0,0.386,0.077,0.574,0.189c0.224,0.126,0.329,0.245,0.329,0.357c0,0.084-0.007,0.091-0.378,0.63
		c0.091,0.028,0.133,0.035,0.188,0.035c0.134,0,0.47-0.056,0.833-0.147c0.295-0.07,0.406-0.105,0.554-0.189
		c0.056-0.035,0.077-0.042,0.119-0.042c0.168,0,0.566,0.364,0.566,0.518c0,0.056-0.027,0.098-0.104,0.175
		c-0.119,0.112-0.154,0.161-0.336,0.497c-0.616,1.162-1.211,1.918-2.065,2.639c-0.602,0.504-1.127,0.84-1.736,1.092l-0.049-0.098
		c0.561-0.35,0.98-0.686,1.547-1.253c0.848-0.847,1.505-1.792,1.911-2.772c0.07-0.154,0.112-0.301,0.112-0.357
		c0-0.028-0.021-0.049-0.063-0.049c-0.104,0-0.539,0.105-0.889,0.224c-0.126,0.042-0.168,0.049-0.231,0.049
		c-0.146,0-0.294-0.07-0.434-0.203c-0.539,0.77-1.246,1.442-2.016,1.918L89.84,126.845z M93.704,123.576
		c0.392,0.147,0.644,0.28,0.882,0.462c0.161,0.126,0.238,0.266,0.238,0.441c0,0.21-0.063,0.336-0.168,0.336
		c-0.07,0-0.099-0.028-0.21-0.224c-0.189-0.343-0.441-0.637-0.791-0.938L93.704,123.576z M94.32,123.17
		c0.42,0.105,0.707,0.231,0.938,0.392c0.14,0.098,0.203,0.224,0.203,0.399c0,0.196-0.049,0.301-0.147,0.301
		c-0.069,0-0.098-0.028-0.21-0.21c-0.203-0.308-0.434-0.532-0.833-0.805L94.32,123.17z"/>
	<path d="M97.883,129.281c0.693-0.532,1.134-0.966,1.596-1.561c0.567-0.721,0.987-1.484,1.177-2.135
		c-0.68,0.049-1.31,0.147-2.037,0.322c-0.441,0.105-0.581,0.147-0.729,0.217c-0.111,0.056-0.14,0.063-0.21,0.063
		c-0.245,0-0.644-0.504-0.644-0.812c0-0.049,0.007-0.07,0.042-0.119c0.161,0.28,0.35,0.406,0.608,0.406
		c0.273,0,1.456-0.147,2.366-0.301c0.378-0.063,0.435-0.077,0.574-0.161c0.049-0.028,0.084-0.042,0.112-0.042
		c0.063,0,0.168,0.07,0.328,0.21c0.196,0.182,0.28,0.294,0.28,0.385c0,0.056-0.035,0.112-0.104,0.175
		c-0.099,0.07-0.141,0.133-0.26,0.364c-0.756,1.428-1.883,2.562-3.037,3.073L97.883,129.281z M97.792,123.863
		c0.238,0.273,0.448,0.378,0.749,0.378c0.469,0,1.315-0.182,1.582-0.336c0.056-0.028,0.091-0.042,0.146-0.042
		c0.196,0,0.546,0.245,0.546,0.385c0,0.084-0.063,0.126-0.266,0.154c-0.833,0.126-1.407,0.182-1.785,0.182
		c-0.524,0-0.734-0.133-1.07-0.658L97.792,123.863z"/>
	<path d="M106.969,126.089c1.057,0.882,1.638,1.61,1.638,2.065c0,0.28-0.153,0.567-0.301,0.567c-0.056,0-0.104-0.035-0.133-0.105
		c-0.021-0.049-0.021-0.049-0.105-0.336c-0.063-0.189-0.091-0.273-0.168-0.441c-0.553,0.14-1.567,0.357-2.61,0.546
		c-0.603,0.119-0.756,0.154-0.875,0.231c-0.063,0.042-0.112,0.056-0.161,0.056c-0.112,0-0.21-0.07-0.322-0.224
		c-0.195-0.273-0.308-0.518-0.308-0.693c0-0.063,0.007-0.105,0.049-0.189c0.175,0.371,0.315,0.476,0.637,0.476
		c0.028,0,0.07,0,0.175-0.014c0.196-0.392,0.603-1.33,0.896-2.086c0.336-0.868,0.483-1.344,0.483-1.54
		c0-0.182-0.134-0.329-0.413-0.448c0.069-0.042,0.111-0.056,0.188-0.056c0.161,0,0.399,0.091,0.609,0.231
		c0.217,0.14,0.329,0.273,0.329,0.378c0,0.07-0.007,0.084-0.105,0.21c-0.063,0.077-0.182,0.301-0.322,0.581
		c-0.496,1.008-1.057,2.065-1.441,2.723c0.917-0.063,2.31-0.231,3.115-0.364c-0.105-0.231-0.203-0.413-0.42-0.763
		c-0.112-0.182-0.154-0.238-0.525-0.735L106.969,126.089z"/>
	<path d="M44.645,136.904c-0.938,0.924-1.288,1.19-2.156,1.722l-0.126-0.182c0.882-0.756,1.47-1.442,2.338-2.716
		c0.616-0.882,0.91-1.428,1.204-2.156c0.308,0.126,0.532,0.224,0.672,0.28c0.603,0.238,0.729,0.308,0.729,0.42
		c0,0.126-0.183,0.196-0.532,0.196c-0.014,0-0.056,0-0.098-0.014c-0.616,0.868-0.967,1.316-1.555,1.96
		c0.756,0.168,0.924,0.224,0.924,0.35c0,0.098-0.056,0.126-0.447,0.252v2.394c0,0.742,0,0.742,0.014,2.576c0,0.182,0,0.364,0,0.448
		c0,0.154,0,0.322,0,0.574c-0.014,0.112-0.042,0.126-0.168,0.154c-0.196,0.028-0.42,0.056-0.574,0.056
		c-0.237,0-0.308-0.028-0.308-0.126c0-0.014,0-0.042,0-0.07c0.027-0.364,0.056-1.498,0.084-3.402V136.904z M42.656,134.51
		c0.729-0.658,1.33-1.33,2.059-2.324c0.392-0.518,0.644-0.924,1.021-1.61c0.756,0.322,1.148,0.518,1.274,0.616
		c0.014,0.014,0.042,0.056,0.069,0.14c0,0.084-0.14,0.154-0.294,0.154c-0.084,0-0.195-0.014-0.321-0.014
		c-1.177,1.414-2.269,2.38-3.668,3.206L42.656,134.51z M48.158,135.518c-0.392,0-0.658,0.028-1.231,0.098l-0.112-0.56
		c0.602,0.126,0.798,0.14,1.344,0.14h5.208c0.364-0.448,0.477-0.574,0.84-0.994c0.561,0.462,0.714,0.616,1.232,1.12
		c0.042,0.056,0.056,0.084,0.056,0.098c0,0.056-0.069,0.098-0.126,0.098h-2.8v2.8c0,1.26,0,1.96,0.028,3.724
		c0,0.056,0,0.112,0,0.126c0,0.308-0.126,0.49-0.448,0.686c-0.294,0.168-0.616,0.266-1.302,0.392
		c-0.028-0.448-0.141-0.616-0.477-0.77c-0.14-0.056-0.364-0.112-0.77-0.168l-0.938-0.14v-0.238c1.078,0.07,1.498,0.098,2.66,0.126
		c0.196-0.014,0.238-0.042,0.238-0.196v-6.342H48.158z M47.431,131.542c0.489,0.098,0.868,0.14,1.399,0.14h3.683
		c0.321-0.42,0.42-0.546,0.756-0.938c0.56,0.42,0.728,0.56,1.288,1.05c0.027,0.042,0.042,0.07,0.042,0.098
		c0,0.056-0.084,0.112-0.168,0.112H48.83c-0.504,0-0.756,0.014-1.302,0.098L47.431,131.542z"/>
	<path d="M60.744,138.92c0.028-0.826,0.057-2.044,0.057-3.08c0-0.392,0-0.392-0.057-1.638c0.448,0.238,0.588,0.308,1.022,0.546
		h1.582v-1.12h-2.254c-0.28,0-0.504,0.014-0.967,0.07l-0.098-0.49c0.322,0.056,0.813,0.098,1.064,0.098h2.254v-1.148
		c-1.036,0.154-1.891,0.238-3.024,0.308l-0.027-0.196c1.008-0.154,2.197-0.42,3.43-0.77c1.162-0.322,1.764-0.56,2.31-0.868
		c0.351,0.182,0.714,0.392,0.938,0.518c0.279,0.168,0.294,0.182,0.294,0.252s-0.099,0.126-0.252,0.126
		c-0.07,0-0.21-0.014-0.588-0.042c-0.826,0.224-1.372,0.35-2.254,0.518v1.302h1.651c0.267-0.322,0.351-0.406,0.645-0.714
		c0.476,0.364,0.63,0.476,1.078,0.84c0.042,0.042,0.069,0.084,0.069,0.112c0,0.056-0.069,0.084-0.182,0.084h-3.262v1.12h1.638
		c0.21-0.238,0.28-0.308,0.49-0.546c0.294,0.224,0.392,0.308,0.686,0.546c0.112,0.098,0.154,0.14,0.154,0.182
		c0,0.07-0.015,0.084-0.364,0.336c-0.014,1.54-0.014,1.54-0.014,1.96c0,0.364,0.014,0.756,0.027,1.484
		c0,0.196-0.153,0.266-0.602,0.266c-0.168,0-0.266-0.056-0.266-0.168c0-0.014,0-0.028,0-0.042v-0.168h-1.75v1.386h1.344
		c0.294-0.308,0.392-0.406,0.658-0.7c0.447,0.35,0.588,0.462,1.021,0.812c0.042,0.056,0.056,0.084,0.056,0.112
		c0,0.056-0.056,0.098-0.126,0.098h-2.953v1.12c1.035-0.112,1.596-0.182,2.701-0.336l0.028,0.168
		c-1.694,0.448-2.38,0.602-3.164,0.77c-2.45,0.49-2.45,0.49-2.954,0.602c-0.098,0.378-0.153,0.504-0.252,0.504
		c-0.14,0-0.252-0.308-0.518-1.386c0.896-0.028,1.903-0.098,3.332-0.238v-1.204H61.08c-0.294,0-0.462,0.014-0.798,0.07l-0.098-0.476
		c0.336,0.056,0.574,0.084,0.966,0.084h2.198v-1.386h-1.681v0.266c0,0.126-0.027,0.168-0.14,0.196
		c-0.07,0.028-0.364,0.056-0.532,0.056c-0.195,0-0.252-0.042-0.252-0.168V138.92z M63.349,135.07h-1.681v1.414h1.681V135.07z
		 M63.349,136.806h-1.681v1.47h1.681V136.806z M65.925,135.07h-1.75v1.414h1.75V135.07z M65.925,136.806h-1.75v1.47h1.75V136.806z
		 M71.385,134.328c0.224-0.252,0.294-0.322,0.518-0.574c0.364,0.238,0.462,0.322,0.784,0.574c0.111,0.098,0.14,0.14,0.14,0.21
		c0,0.07-0.098,0.154-0.42,0.434c-0.126,3.416-0.322,5.544-0.616,6.65c-0.182,0.686-0.336,0.952-0.714,1.176
		c-0.308,0.196-0.588,0.294-1.204,0.392c-0.195-0.504-0.21-0.546-0.405-0.644c-0.253-0.14-0.589-0.238-1.33-0.378v-0.196
		c0.756,0.056,1.75,0.112,2.016,0.112c0.406,0,0.588-0.098,0.672-0.364c0.364-1.078,0.588-3.542,0.658-7.07h-1.596
		c-0.141,2.268-0.448,3.906-0.98,5.096c-0.49,1.12-1.288,2.072-2.338,2.8c-0.518,0.378-0.882,0.56-1.694,0.868l-0.111-0.168
		c1.189-0.658,1.876-1.232,2.548-2.128c1.063-1.456,1.512-3.164,1.693-6.468h-0.741c-0.252,0-0.462,0.014-0.896,0.084l-0.14-0.504
		c0.476,0.07,0.798,0.098,1.134,0.098h0.658c0.042-0.756,0.056-1.358,0.056-1.918c0-0.686-0.014-0.938-0.056-1.54
		c1.063,0.07,1.54,0.154,1.54,0.294c0,0.014,0,0.014,0,0.014c-0.015,0.126-0.084,0.168-0.574,0.392
		c-0.028,1.344-0.028,1.666-0.084,2.758H71.385z"/>
	<path d="M77.586,133.167c0.379,0.07,0.826,0.112,1.219,0.112h3.023c0.336-0.378,0.448-0.504,0.784-0.868
		c0.518,0.42,0.672,0.56,1.148,0.994c0.042,0.042,0.056,0.084,0.056,0.098c0,0.042-0.056,0.098-0.098,0.098h-4.984
		c-0.49,0-0.672,0.014-1.064,0.07L77.586,133.167z M78.175,135.042c0.447,0.084,0.728,0.112,1.092,0.112h1.806
		c0.309-0.336,0.393-0.448,0.7-0.77c0.476,0.35,0.616,0.476,1.05,0.882c0.042,0.042,0.056,0.098,0.056,0.126
		c0,0.042-0.056,0.084-0.111,0.084h-3.5c-0.42,0-0.603,0.014-1.008,0.042L78.175,135.042z M78.217,131.262
		c0.308,0.056,0.756,0.098,1.05,0.098h1.932c0.336-0.378,0.435-0.49,0.784-0.826c0.49,0.392,0.644,0.518,1.134,0.91
		c0.056,0.07,0.084,0.112,0.084,0.14c0,0.056-0.056,0.098-0.14,0.098h-3.794c-0.42,0-0.603,0.014-0.966,0.056L78.217,131.262z
		 M78.217,136.96c0.363,0.084,0.588,0.098,1.05,0.098h1.834c0.308-0.364,0.406-0.476,0.714-0.84
		c0.448,0.392,0.588,0.518,1.008,0.924c0.056,0.07,0.084,0.112,0.084,0.14c0,0.056-0.056,0.098-0.112,0.098h-3.527
		c-0.322,0-0.546,0.014-0.98,0.056L78.217,136.96z M79.252,142.938c0,0.224-0.126,0.266-0.728,0.266
		c-0.168,0-0.224-0.042-0.238-0.182c0.028-0.7,0.057-2.422,0.057-3.71c0-0.406-0.015-0.588-0.057-1.064
		c0.477,0.294,0.616,0.392,1.078,0.728h2.002c0.196-0.224,0.406-0.448,0.603-0.672l0.84,0.672c0.014,0.042,0.027,0.07,0.027,0.084
		c0.015,0.042,0.028,0.07,0.028,0.098c0,0.084-0.154,0.252-0.434,0.448c0,0.168,0,0.28,0,0.392c0,1.036,0.014,2.338,0.042,2.772
		c-0.015,0.126-0.042,0.182-0.154,0.21c-0.112,0.028-0.406,0.056-0.574,0.056c-0.153,0-0.224-0.056-0.237-0.182v-0.602h-2.255
		V142.938z M79.252,141.93h2.255v-2.632h-2.255V141.93z M88.353,135.476c0.364-0.476,0.49-0.616,0.91-1.064
		c0.546,0.448,0.714,0.588,1.218,1.064c0.056,0.07,0.084,0.14,0.084,0.182c0,0.07-0.084,0.126-0.168,0.126h-3.458
		c0,3.906,0,4.438,0.084,7.154c-0.014,0.112-0.042,0.168-0.126,0.196c-0.098,0.042-0.448,0.084-0.714,0.084
		c-0.196,0-0.267-0.042-0.267-0.196c0.042-1.652,0.07-3.794,0.07-6.328c0-0.112,0-0.518-0.014-0.91H84.25
		c-0.518,0-0.699,0.014-1.134,0.07l-0.084-0.504c0.378,0.084,0.798,0.126,1.218,0.126h1.723c-0.015-3.948-0.015-4.102-0.112-4.704
		c0.322,0.028,0.574,0.042,0.728,0.056c0.742,0.056,0.967,0.112,0.967,0.252c0,0.126-0.07,0.168-0.616,0.364
		c0,1.652,0,1.652,0,4.032H88.353z"/>
	<path d="M98.895,140.264v0.798c-0.014,0.112-0.042,0.154-0.141,0.168c-0.14,0.028-0.392,0.056-0.588,0.056
		c-0.195,0-0.252-0.042-0.252-0.182c0,0,0-0.028,0-0.042c0.042-1.666,0.042-1.666,0.042-6.286c0-0.602-0.014-0.812-0.042-1.344
		c0.49,0.238,0.645,0.322,1.106,0.588h1.75v-2.31h-4.032c-0.686,0-1.063,0.014-1.596,0.084l-0.07-0.532
		c0.588,0.112,0.784,0.126,1.666,0.126h8.61c0.392-0.49,0.504-0.63,0.91-1.106c0.615,0.49,0.798,0.658,1.386,1.204
		c0.042,0.042,0.069,0.098,0.069,0.126c0,0.056-0.069,0.098-0.182,0.098h-5.838v2.31h1.904c0.21-0.252,0.279-0.336,0.489-0.588
		c0.364,0.266,0.477,0.35,0.784,0.588c0.084,0.056,0.126,0.112,0.126,0.154c0,0.098-0.069,0.154-0.378,0.35
		c0,4.452,0,4.452,0.028,6.356c0,0.098-0.028,0.126-0.098,0.154c-0.084,0.042-0.393,0.084-0.645,0.084
		c-0.14,0-0.196-0.042-0.196-0.154v-0.7H98.895z M95.45,136.904c0-0.826,0-0.938,0-1.274c0-0.14,0-0.252,0-0.294
		c0-0.7-0.027-1.316-0.056-1.722c1.218,0.182,1.483,0.252,1.483,0.392c0,0.098-0.111,0.182-0.434,0.336v7.812h9.744v-7.476
		c0-0.294-0.014-0.546-0.042-1.134c1.498,0.224,1.554,0.238,1.554,0.378c0,0.112-0.098,0.182-0.504,0.378v4.858
		c0,1.862,0,2.324,0.056,3.822c0,0.014,0,0.028,0,0.042c0,0.084-0.027,0.126-0.098,0.168c-0.084,0.042-0.448,0.084-0.728,0.084
		c-0.168,0-0.238-0.056-0.238-0.21v-0.588h-9.744v0.588c0,0.014,0,0.028,0,0.028c0,0.154-0.224,0.224-0.728,0.224
		c-0.252,0-0.294-0.028-0.309-0.182c0.042-2.646,0.042-2.674,0.042-4.97V136.904z M100.771,134.342h-1.876v2.52h1.876V134.342z
		 M100.771,137.17h-1.876v2.8h1.876V137.17z M103.71,134.342h-2.016v2.52h2.016V134.342z M103.71,137.17h-2.016v2.8h2.016V137.17z"
		/>
</g>
<rect x="41.133" y="103.683" fill="none" stroke="#008CD6" stroke-width="0.5" width="14" height="14"/>
<rect x="58.633" y="103.683" fill="none" stroke="#008CD6" stroke-width="0.5" width="14" height="14"/>
<rect x="76.133" y="103.683" fill="none" stroke="#008CD6" stroke-width="0.5" width="14" height="14"/>
<rect x="93.633" y="103.683" fill="none" stroke="#008CD6" stroke-width="0.5" width="14" height="14"/>
<rect x="39.383" y="96.683" fill="none" stroke="#008CD6" stroke-width="0.5" width="70" height="7"/>
<line fill="none" stroke="#008CD6" stroke-width="0.5" x1="46.383" y1="103.683" x2="46.383" y2="96.683"/>
<line fill="none" stroke="#008CD6" stroke-width="0.5" x1="53.383" y1="103.683" x2="53.383" y2="96.683"/>
<line fill="none" stroke="#008CD6" stroke-width="0.5" x1="60.383" y1="103.683" x2="60.383" y2="96.683"/>
<line fill="none" stroke="#008CD6" stroke-width="0.5" x1="67.383" y1="103.683" x2="67.383" y2="96.683"/>
<line fill="none" stroke="#008CD6" stroke-width="0.5" x1="74.383" y1="103.683" x2="74.383" y2="96.683"/>
<line fill="none" stroke="#008CD6" stroke-width="0.5" x1="81.383" y1="103.683" x2="81.383" y2="96.683"/>
<line fill="none" stroke="#008CD6" stroke-width="0.5" x1="88.383" y1="103.683" x2="88.383" y2="96.683"/>
<line fill="none" stroke="#008CD6" stroke-width="0.5" x1="95.383" y1="103.683" x2="95.383" y2="96.683"/>
<line fill="none" stroke="#008CD6" stroke-width="0.5" x1="102.383" y1="103.683" x2="102.383" y2="96.683"/>
<g>
	<path d="M47.586,3.129c0.518-0.434,0.98-0.98,1.47-1.715c0.287-0.434,0.462-0.791,0.462-0.945c0-0.091-0.027-0.147-0.133-0.238
		c-0.091-0.077-0.091-0.077-0.168-0.126C49.14,0.07,49.14,0.07,49.091,0.042C49.154,0.007,49.182,0,49.224,0
		c0.154,0,0.386,0.077,0.574,0.189c0.224,0.126,0.329,0.245,0.329,0.357c0,0.084-0.007,0.091-0.378,0.637
		c0.091,0.021,0.133,0.028,0.182,0.028c0.141,0,0.483-0.056,0.84-0.14c0.287-0.07,0.406-0.112,0.554-0.189
		c0.056-0.035,0.077-0.042,0.119-0.042c0.168,0,0.566,0.364,0.566,0.518c0,0.063-0.021,0.098-0.104,0.175
		c-0.119,0.105-0.154,0.161-0.336,0.497c-0.616,1.155-1.211,1.918-2.065,2.632c-0.602,0.511-1.127,0.84-1.736,1.092l-0.049-0.098
		c0.561-0.343,0.98-0.686,1.547-1.253c0.848-0.84,1.505-1.792,1.911-2.772c0.07-0.154,0.112-0.301,0.112-0.357
		c0-0.028-0.021-0.049-0.063-0.049c-0.104,0-0.546,0.112-0.889,0.224c-0.126,0.042-0.168,0.049-0.23,0.049
		c-0.147,0-0.295-0.07-0.435-0.203c-0.539,0.77-1.253,1.449-2.016,1.918L47.586,3.129z"/>
	<path d="M55.545,5.698c0.693-0.532,1.134-0.966,1.596-1.561c0.567-0.721,0.987-1.484,1.177-2.135
		c-0.68,0.049-1.31,0.147-2.037,0.322c-0.441,0.105-0.581,0.147-0.729,0.217c-0.111,0.056-0.14,0.063-0.21,0.063
		c-0.245,0-0.644-0.504-0.644-0.812c0-0.049,0.007-0.07,0.042-0.119c0.161,0.28,0.35,0.406,0.608,0.406
		c0.273,0,1.456-0.147,2.366-0.301c0.378-0.063,0.435-0.077,0.574-0.161c0.049-0.028,0.084-0.042,0.112-0.042
		c0.063,0,0.168,0.07,0.328,0.21c0.196,0.182,0.28,0.294,0.28,0.385c0,0.056-0.035,0.112-0.104,0.175
		c-0.099,0.07-0.141,0.133-0.26,0.364c-0.756,1.428-1.883,2.562-3.037,3.073L55.545,5.698z M55.454,0.28
		c0.238,0.273,0.448,0.378,0.749,0.378c0.469,0,1.315-0.182,1.582-0.336c0.056-0.028,0.091-0.042,0.146-0.042
		c0.196,0,0.546,0.245,0.546,0.385c0,0.084-0.063,0.126-0.266,0.154c-0.833,0.126-1.407,0.182-1.785,0.182
		c-0.524,0-0.734-0.133-1.07-0.658L55.454,0.28z"/>
	<path d="M61.054,3.892c0.875-0.469,1.813-1.176,2.632-1.988c0.693-0.679,1.142-1.246,1.142-1.449c0-0.133-0.112-0.245-0.393-0.399
		c0.077-0.028,0.092-0.028,0.141-0.028c0.203,0,0.378,0.063,0.602,0.21c0.238,0.161,0.364,0.322,0.364,0.455
		c0,0.063-0.007,0.077-0.28,0.308c-0.069,0.056-0.069,0.056-0.566,0.532c-0.49,0.469-0.532,0.504-0.833,0.756
		c0.272,0.203,0.392,0.308,0.427,0.392c0.028,0.07,0.042,0.399,0.049,1.029c0.007,0.49,0.021,0.938,0.035,1.337
		c0,0.154,0.007,0.357,0.007,0.399c0,0.245-0.049,0.35-0.161,0.35c-0.161,0-0.476-0.385-0.476-0.588c0-0.049,0-0.049,0.042-0.182
		c0.063-0.175,0.126-1.043,0.126-1.722c0-0.343-0.015-0.553-0.042-0.665c-0.021-0.07-0.049-0.105-0.154-0.217
		c-0.49,0.392-0.994,0.749-1.344,0.959c-0.393,0.231-0.896,0.476-1.26,0.609L61.054,3.892z"/>
	<path d="M69.041,5.677C69.559,5.25,70,4.634,70.308,3.913c0.231-0.532,0.42-1.218,0.42-1.526c0-0.189-0.133-0.329-0.412-0.448
		c0.042-0.049,0.091-0.07,0.16-0.07c0.092,0,0.336,0.091,0.539,0.203c0.183,0.098,0.252,0.154,0.302,0.245
		c0.321-0.196,0.951-0.693,1.253-1.001c0.16-0.154,0.217-0.231,0.217-0.28c0-0.084-0.084-0.105-0.413-0.105
		c-0.462,0-1.659,0.189-2.415,0.385c-0.266,0.07-0.511,0.154-0.714,0.245c-0.042,0.021-0.112,0.035-0.161,0.035
		c-0.154,0-0.406-0.21-0.56-0.469c-0.077-0.133-0.134-0.294-0.134-0.378c0-0.049,0.015-0.098,0.05-0.161
		c0.126,0.287,0.35,0.42,0.692,0.42c0.252,0,0.378-0.014,1.688-0.182c0.063-0.007,0.217-0.028,0.482-0.056
		c1.085-0.126,1.142-0.14,1.288-0.21c0.042-0.014,0.056-0.021,0.091-0.021c0.077,0,0.203,0.07,0.371,0.203
		c0.301,0.231,0.504,0.469,0.504,0.588c0,0.105-0.042,0.133-0.252,0.189c-0.111,0.035-0.188,0.063-0.343,0.147
		c-0.581,0.329-0.896,0.49-1.652,0.847c-0.042,0.119-0.049,0.133-0.104,0.315c-0.315,0.959-0.588,1.505-1.008,2.002
		c-0.344,0.399-0.693,0.707-1.085,0.938L69.041,5.677z"/>
	<path d="M75.635,0.868c0.672,0.168,1.078,0.329,1.352,0.525c0.161,0.112,0.237,0.266,0.237,0.476c0,0.231-0.076,0.392-0.195,0.392
		c-0.077,0-0.112-0.035-0.302-0.28c-0.343-0.455-0.595-0.686-1.141-1.029L75.635,0.868z M80.612,1.267
		c-0.351,0.658-0.777,1.211-1.471,1.883c-0.644,0.623-1.077,0.973-1.967,1.596c-0.329,0.231-0.364,0.259-0.413,0.322
		c-0.111,0.133-0.153,0.168-0.245,0.168c-0.286,0-0.818-0.672-0.818-1.029c0-0.042,0.007-0.07,0.035-0.14
		c0.14,0.21,0.153,0.224,0.252,0.308c0.104,0.098,0.202,0.147,0.279,0.147c0.119,0,0.336-0.091,0.68-0.294
		c0.783-0.455,1.057-0.651,1.673-1.155c0.86-0.7,1.281-1.127,1.883-1.869L80.612,1.267z"/>
	<path d="M83.741,0.014c0.146,0,0.301,0.035,0.518,0.119c0.294,0.112,0.462,0.252,0.462,0.385c0,0.049,0,0.049-0.042,0.154
		c-0.084,0.189-0.126,0.714-0.126,1.526c0.525,0.049,1.218,0.217,1.631,0.392c0.315,0.147,0.435,0.287,0.435,0.539
		c0,0.203-0.063,0.322-0.168,0.322c-0.07,0-0.077,0-0.259-0.168c-0.463-0.427-1.001-0.721-1.646-0.91
		c0.007,0.441,0.007,0.658,0.007,0.868c0,0.182,0,0.266,0,0.42c0,0.315,0,0.42,0,0.602c0,0.21,0,0.21,0.015,0.798
		c0.007,0.147,0.007,0.266,0.007,0.371c0,0.133-0.007,0.196-0.035,0.238c-0.021,0.035-0.077,0.063-0.126,0.063
		c-0.168,0-0.448-0.378-0.448-0.609c0-0.07,0.007-0.112,0.035-0.196c0.105-0.336,0.147-1.246,0.147-3.031
		c0-0.504-0.021-1.015-0.05-1.204c-0.042-0.315-0.195-0.49-0.531-0.623C83.65,0.021,83.678,0.014,83.741,0.014z"/>
	<path d="M52.073,11.375c-0.028,1.736-0.126,2.94-0.309,3.962c-0.168,0.98-0.462,2.044-0.812,2.926
		c-0.154,0.406-0.294,0.686-0.63,1.274l-0.21-0.084c0.489-1.232,0.728-2.296,0.91-4.06c0.14-1.33,0.182-2.52,0.182-5.656
		c0-0.406,0-0.588-0.028-1.078c0.477,0.266,0.63,0.35,1.12,0.644h3.304c0.21-0.252,0.28-0.322,0.504-0.546
		c0.351,0.238,0.448,0.322,0.729,0.546c0.07,0.07,0.098,0.126,0.098,0.168c0,0.098-0.098,0.182-0.378,0.322v0.602
		c0,0.126,0,0.224,0,0.252c0,0.182,0,0.406,0.015,0.854c-0.028,0.182-0.141,0.21-0.673,0.21c-0.14,0-0.182-0.028-0.195-0.14v-0.196
		H52.073z M50.589,7.708c0.477,0.098,0.756,0.14,1.036,0.14h3.668c0.294-0.378,0.378-0.49,0.686-0.826
		c0.477,0.378,0.616,0.504,1.078,0.938c0.028,0.028,0.057,0.084,0.057,0.098c0,0.042-0.057,0.112-0.084,0.112h-5.404
		c-0.294,0-0.686,0.042-0.966,0.098L50.589,7.708z M55.727,18.445c0.225-0.28,0.294-0.364,0.532-0.63
		c0.336,0.322,0.448,0.42,0.756,0.756c0.028,0.042,0.042,0.07,0.042,0.098c0,0.042-0.069,0.098-0.14,0.098h-3.682v0.686
		c-0.028,0.168-0.099,0.196-0.435,0.196c-0.056,0-0.111,0-0.14,0c-0.014,0-0.028,0-0.042,0c-0.126,0-0.183-0.042-0.183-0.168
		c0.042-1.694,0.07-2.674,0.07-2.94v-2.072c-0.168,0.21-0.252,0.308-0.546,0.616l-0.126-0.154c0.588-0.896,1.092-2.016,1.4-3.164
		c0.951,0.308,1.12,0.378,1.12,0.49c0,0.098-0.057,0.126-0.519,0.21c-0.28,0.448-0.336,0.546-0.574,0.924h1.078
		c0.351-0.56,0.504-0.91,0.687-1.554c0.924,0.308,1.05,0.364,1.05,0.476c0,0.098-0.154,0.154-0.504,0.182
		c-0.658,0.616-0.742,0.7-0.994,0.896h1.12c0.21-0.28,0.279-0.364,0.504-0.616c0.378,0.308,0.476,0.406,0.798,0.728
		c0.028,0.056,0.056,0.098,0.056,0.126c0,0.056-0.056,0.084-0.14,0.084h-1.708v1.218h0.476c0.225-0.294,0.294-0.378,0.532-0.644
		c0.322,0.35,0.435,0.448,0.742,0.784c0.028,0.042,0.042,0.07,0.042,0.098c0,0.042-0.07,0.084-0.168,0.084h-1.624v1.344h0.476
		c0.238-0.252,0.309-0.322,0.519-0.588c0.336,0.308,0.434,0.406,0.742,0.728c0.042,0.042,0.056,0.084,0.056,0.112
		c0,0.042-0.056,0.07-0.154,0.07h-1.638v1.526H55.727z M55.699,9.625h-3.612c0,0.798,0,1.036,0,1.428h3.612V9.625z M54.453,14.931
		v-1.218h-1.218v1.218H54.453z M54.453,16.597v-1.344h-1.218v1.344H54.453z M54.453,16.919h-1.218v1.526h1.218V16.919z
		 M55.699,19.649c0.84-0.434,1.428-0.84,2.113-1.47c0.267-0.252,0.309-0.294,0.868-0.952c0.238,0.098,0.435,0.168,0.561,0.224
		c0.56,0.21,0.686,0.28,0.686,0.364c0,0.112-0.126,0.14-0.616,0.154c-1.764,1.232-2.071,1.4-3.514,1.862L55.699,19.649z
		 M60.655,8.169c-0.561,1.106-0.588,1.176-1.036,1.834h1.861c0.238-0.28,0.309-0.364,0.561-0.63c0.35,0.28,0.462,0.364,0.784,0.63
		c0.111,0.07,0.153,0.14,0.153,0.196c0,0.084,0,0.084-0.434,0.322c0,0.462,0,0.742,0,1.036c0,0.28,0.028,4.158,0.042,5.208
		c-0.028,0.196-0.112,0.224-0.616,0.224c-0.237,0-0.279-0.028-0.308-0.154v-0.35h-3.234v0.434c-0.042,0.126-0.126,0.154-0.489,0.154
		c-0.085,0-0.141,0.014-0.183,0.014c-0.014,0-0.028,0-0.028,0c-0.14,0-0.195-0.042-0.21-0.182l0.015-1.162l0.014-2.352
		c0-2.982,0-3.248-0.042-3.948c0.42,0.238,0.546,0.308,0.924,0.56h0.84c0.028-0.21,0.042-0.308,0.07-0.434
		c0.182-0.91,0.182-0.91,0.224-1.4h-1.371c-0.252,0-0.561,0.042-0.813,0.098l-0.084-0.56c0.28,0.098,0.588,0.14,0.896,0.14h3.205
		c0.295-0.42,0.393-0.532,0.729-0.896c0.56,0.406,0.728,0.532,1.274,0.994c0.042,0.056,0.069,0.084,0.069,0.112
		c0,0.056-0.069,0.112-0.154,0.112H60.655z M61.663,10.325h-3.234v1.596h3.234V10.325z M58.429,12.243v1.736h3.234v-1.736H58.429z
		 M58.429,14.301v1.862h3.234v-1.862H58.429z M60.459,17.101c1.19,0.462,2.016,0.84,2.422,1.134c0.21,0.168,0.378,0.462,0.378,0.686
		c0,0.42-0.154,0.812-0.308,0.812c-0.112,0-0.141-0.042-0.435-0.448c-0.084-0.112-0.741-0.84-0.909-1.008
		c-0.084-0.084-0.49-0.42-1.232-1.022L60.459,17.101z"/>
	<path d="M79.709,10.619c0.224-0.28,0.294-0.364,0.532-0.63c0.447,0.35,0.588,0.462,1.021,0.854
		c0.126,0.098,0.183,0.168,0.183,0.238c0,0.098-0.168,0.14-0.841,0.168c-0.714,0.868-1.203,1.33-2.086,1.988
		c0.742,0.378,1.372,0.616,2.198,0.854c1.232,0.35,2.156,0.49,3.5,0.56v0.21c-0.574,0.112-0.728,0.252-1.078,0.952
		c-0.882-0.21-1.26-0.336-2.226-0.686c0.308,0.308,0.322,0.308,0.588,0.56c0.084,0.098,0.126,0.154,0.126,0.21
		c0,0.014-0.028,0.056-0.042,0.07c-0.028,0.014-0.084,0.056-0.154,0.084c-0.027,0.014-0.084,0.042-0.14,0.07
		c0,0.644,0,0.644,0.014,1.834c0.015,0.77,0.015,0.77,0.028,1.498c0,0.028,0.014,0.07,0.014,0.084c0,0.098-0.042,0.154-0.14,0.182
		c-0.14,0.042-0.378,0.07-0.574,0.07c-0.21,0-0.252-0.042-0.252-0.238c0,0,0-0.014,0-0.028v-0.56h-5.278v0.49
		c0,0.238-0.126,0.308-0.56,0.308c-0.308,0-0.406-0.056-0.406-0.238v-0.028c0.015-0.49,0.015-0.49,0.015-1.204
		c0.014-0.378,0.014-0.378,0.027-1.274v-1.484c-1.036,0.378-1.567,0.546-2.618,0.742l-0.084-0.196
		c2.129-0.714,4.173-1.722,5.811-2.87c-0.588-0.476-1.274-1.134-1.694-1.652c-0.336,0.35-0.714,0.686-1.147,1.036
		c-0.98,0.784-1.624,1.176-2.479,1.498l-0.098-0.154c1.315-1.008,1.932-1.54,2.618-2.324c0.783-0.854,1.231-1.526,1.512-2.226
		c1.372,0.28,1.484,0.308,1.484,0.434c0,0.14-0.196,0.224-0.729,0.308c-0.168,0.238-0.238,0.336-0.35,0.49H79.709z M77.301,8.841
		V7.875c0-0.322-0.014-0.518-0.042-0.924c1.134,0.112,1.316,0.14,1.456,0.182c0.112,0.042,0.182,0.098,0.182,0.182
		c0,0.154-0.182,0.252-0.602,0.336v1.19h3.92c0.28-0.322,0.364-0.434,0.645-0.77l1.273,0.924c0.084,0.07,0.126,0.126,0.126,0.182
		c0,0.042-0.07,0.098-0.126,0.112c0,0-0.28,0.056-0.84,0.14c-0.868,0.994-0.91,1.036-1.358,1.372l-0.14-0.084
		c0.266-0.672,0.336-0.91,0.49-1.554h-8.918c-0.084,0.7-0.21,1.19-0.42,1.568c-0.183,0.322-0.616,0.658-0.854,0.658
		c-0.084,0-0.237-0.112-0.308-0.238c-0.07-0.098-0.112-0.364-0.112-0.588c0-0.182,0-0.196,0.336-0.42
		c0.196-0.14,0.504-0.504,0.658-0.784c0.266-0.504,0.392-0.882,0.476-1.484h0.252c0.015,0.224,0.028,0.378,0.028,0.504
		s-0.014,0.252-0.028,0.462H77.301z M80.269,15.575c0.238-0.21,0.238-0.21,0.561-0.476c-1.358-0.518-2.059-0.868-2.926-1.442
		c-0.938,0.616-1.849,1.078-3.108,1.624c0.126,0.098,0.168,0.14,0.308,0.294H80.269z M75.103,18.641h5.278v-2.744h-5.278V18.641z
		 M76.139,10.941c-0.14,0.168-0.182,0.224-0.321,0.378c0.35,0.448,1.063,0.994,1.96,1.512c0.756-0.602,1.203-1.05,1.861-1.89H76.139
		z"/>
</g>
<g>
	<path d="M47.586,29.379c0.518-0.434,0.98-0.98,1.47-1.715c0.287-0.434,0.462-0.791,0.462-0.945c0-0.091-0.027-0.147-0.133-0.238
		c-0.091-0.077-0.091-0.077-0.168-0.126c-0.077-0.035-0.077-0.035-0.126-0.063c0.063-0.035,0.091-0.042,0.133-0.042
		c0.154,0,0.386,0.077,0.574,0.189c0.224,0.126,0.329,0.245,0.329,0.357c0,0.084-0.007,0.091-0.378,0.637
		c0.091,0.021,0.133,0.028,0.182,0.028c0.141,0,0.483-0.056,0.84-0.14c0.287-0.07,0.406-0.112,0.554-0.189
		c0.056-0.035,0.077-0.042,0.119-0.042c0.168,0,0.566,0.364,0.566,0.518c0,0.063-0.021,0.098-0.104,0.175
		c-0.119,0.105-0.154,0.161-0.336,0.497c-0.616,1.155-1.211,1.918-2.065,2.632c-0.602,0.511-1.127,0.84-1.736,1.092l-0.049-0.098
		c0.561-0.343,0.98-0.686,1.547-1.253c0.848-0.84,1.505-1.792,1.911-2.772c0.07-0.154,0.112-0.301,0.112-0.357
		c0-0.028-0.021-0.049-0.063-0.049c-0.104,0-0.546,0.112-0.889,0.224c-0.126,0.042-0.168,0.049-0.23,0.049
		c-0.147,0-0.295-0.07-0.435-0.203c-0.539,0.77-1.253,1.449-2.016,1.918L47.586,29.379z"/>
	<path d="M55.545,31.948c0.693-0.532,1.134-0.966,1.596-1.561c0.567-0.721,0.987-1.484,1.177-2.135
		c-0.68,0.049-1.31,0.147-2.037,0.322c-0.441,0.105-0.581,0.147-0.729,0.217c-0.111,0.056-0.14,0.063-0.21,0.063
		c-0.245,0-0.644-0.504-0.644-0.812c0-0.049,0.007-0.07,0.042-0.119c0.161,0.28,0.35,0.406,0.608,0.406
		c0.273,0,1.456-0.147,2.366-0.301c0.378-0.063,0.435-0.077,0.574-0.161c0.049-0.028,0.084-0.042,0.112-0.042
		c0.063,0,0.168,0.07,0.328,0.21c0.196,0.182,0.28,0.294,0.28,0.385c0,0.056-0.035,0.112-0.104,0.175
		c-0.099,0.07-0.141,0.133-0.26,0.364c-0.756,1.428-1.883,2.562-3.037,3.073L55.545,31.948z M55.454,26.53
		c0.238,0.273,0.448,0.378,0.749,0.378c0.469,0,1.315-0.182,1.582-0.336c0.056-0.028,0.091-0.042,0.146-0.042
		c0.196,0,0.546,0.245,0.546,0.385c0,0.084-0.063,0.126-0.266,0.154c-0.833,0.126-1.407,0.182-1.785,0.182
		c-0.524,0-0.734-0.133-1.07-0.658L55.454,26.53z"/>
	<path d="M61.054,30.142c0.875-0.469,1.813-1.176,2.632-1.988c0.693-0.679,1.142-1.246,1.142-1.449c0-0.133-0.112-0.245-0.393-0.399
		c0.077-0.028,0.092-0.028,0.141-0.028c0.203,0,0.378,0.063,0.602,0.21c0.238,0.161,0.364,0.322,0.364,0.455
		c0,0.063-0.007,0.077-0.28,0.308c-0.069,0.056-0.069,0.056-0.566,0.532c-0.49,0.469-0.532,0.504-0.833,0.756
		c0.272,0.203,0.392,0.308,0.427,0.392c0.028,0.07,0.042,0.399,0.049,1.029c0.007,0.49,0.021,0.938,0.035,1.337
		c0,0.154,0.007,0.357,0.007,0.399c0,0.245-0.049,0.35-0.161,0.35c-0.161,0-0.476-0.385-0.476-0.588c0-0.049,0-0.049,0.042-0.182
		c0.063-0.175,0.126-1.043,0.126-1.722c0-0.343-0.015-0.553-0.042-0.665c-0.021-0.07-0.049-0.105-0.154-0.217
		c-0.49,0.392-0.994,0.749-1.344,0.959c-0.393,0.231-0.896,0.476-1.26,0.609L61.054,30.142z"/>
	<path d="M69.041,31.927c0.518-0.427,0.959-1.043,1.267-1.764c0.231-0.532,0.42-1.218,0.42-1.526c0-0.189-0.133-0.329-0.412-0.448
		c0.042-0.049,0.091-0.07,0.16-0.07c0.092,0,0.336,0.091,0.539,0.203c0.183,0.098,0.252,0.154,0.302,0.245
		c0.321-0.196,0.951-0.693,1.253-1.001c0.16-0.154,0.217-0.231,0.217-0.28c0-0.084-0.084-0.105-0.413-0.105
		c-0.462,0-1.659,0.189-2.415,0.385c-0.266,0.07-0.511,0.154-0.714,0.245c-0.042,0.021-0.112,0.035-0.161,0.035
		c-0.154,0-0.406-0.21-0.56-0.469c-0.077-0.133-0.134-0.294-0.134-0.378c0-0.049,0.015-0.098,0.05-0.161
		c0.126,0.287,0.35,0.42,0.692,0.42c0.252,0,0.378-0.014,1.688-0.182c0.063-0.007,0.217-0.028,0.482-0.056
		c1.085-0.126,1.142-0.14,1.288-0.21c0.042-0.014,0.056-0.021,0.091-0.021c0.077,0,0.203,0.07,0.371,0.203
		c0.301,0.231,0.504,0.469,0.504,0.588c0,0.105-0.042,0.133-0.252,0.189c-0.111,0.035-0.188,0.063-0.343,0.147
		c-0.581,0.329-0.896,0.49-1.652,0.847c-0.042,0.119-0.049,0.133-0.104,0.315c-0.315,0.959-0.588,1.505-1.008,2.002
		c-0.344,0.399-0.693,0.707-1.085,0.938L69.041,31.927z"/>
	<path d="M75.635,27.118c0.672,0.168,1.078,0.329,1.352,0.525c0.161,0.112,0.237,0.266,0.237,0.476c0,0.231-0.076,0.392-0.195,0.392
		c-0.077,0-0.112-0.035-0.302-0.28c-0.343-0.455-0.595-0.686-1.141-1.029L75.635,27.118z M80.612,27.517
		c-0.351,0.658-0.777,1.211-1.471,1.883c-0.644,0.623-1.077,0.973-1.967,1.596c-0.329,0.231-0.364,0.259-0.413,0.322
		c-0.111,0.133-0.153,0.168-0.245,0.168c-0.286,0-0.818-0.672-0.818-1.029c0-0.042,0.007-0.07,0.035-0.14
		c0.14,0.21,0.153,0.224,0.252,0.308c0.104,0.098,0.202,0.147,0.279,0.147c0.119,0,0.336-0.091,0.68-0.294
		c0.783-0.455,1.057-0.651,1.673-1.155c0.86-0.7,1.281-1.127,1.883-1.869L80.612,27.517z"/>
	<path d="M83.741,26.264c0.146,0,0.301,0.035,0.518,0.119c0.294,0.112,0.462,0.252,0.462,0.385c0,0.049,0,0.049-0.042,0.154
		c-0.084,0.189-0.126,0.714-0.126,1.526c0.525,0.049,1.218,0.217,1.631,0.392c0.315,0.147,0.435,0.287,0.435,0.539
		c0,0.203-0.063,0.322-0.168,0.322c-0.07,0-0.077,0-0.259-0.168c-0.463-0.427-1.001-0.721-1.646-0.91
		c0.007,0.441,0.007,0.658,0.007,0.868c0,0.182,0,0.266,0,0.42c0,0.315,0,0.42,0,0.602c0,0.21,0,0.21,0.015,0.798
		c0.007,0.147,0.007,0.266,0.007,0.371c0,0.133-0.007,0.196-0.035,0.238c-0.021,0.035-0.077,0.063-0.126,0.063
		c-0.168,0-0.448-0.378-0.448-0.609c0-0.07,0.007-0.112,0.035-0.196c0.105-0.336,0.147-1.246,0.147-3.031
		c0-0.504-0.021-1.015-0.05-1.204c-0.042-0.315-0.195-0.49-0.531-0.623C83.65,26.271,83.678,26.264,83.741,26.264z"/>
	<path d="M52.073,37.625c-0.028,1.736-0.126,2.94-0.309,3.962c-0.168,0.98-0.462,2.044-0.812,2.926
		c-0.154,0.406-0.294,0.686-0.63,1.274l-0.21-0.084c0.489-1.232,0.728-2.296,0.91-4.06c0.14-1.33,0.182-2.52,0.182-5.656
		c0-0.406,0-0.588-0.028-1.078c0.477,0.266,0.63,0.35,1.12,0.644h3.304c0.21-0.252,0.28-0.322,0.504-0.546
		c0.351,0.238,0.448,0.322,0.729,0.546c0.07,0.07,0.098,0.126,0.098,0.168c0,0.098-0.098,0.182-0.378,0.322v0.602
		c0,0.126,0,0.224,0,0.252c0,0.182,0,0.406,0.015,0.854c-0.028,0.182-0.141,0.21-0.673,0.21c-0.14,0-0.182-0.028-0.195-0.14v-0.196
		H52.073z M50.589,33.958c0.477,0.098,0.756,0.14,1.036,0.14h3.668c0.294-0.378,0.378-0.49,0.686-0.826
		c0.477,0.378,0.616,0.504,1.078,0.938c0.028,0.028,0.057,0.084,0.057,0.098c0,0.042-0.057,0.112-0.084,0.112h-5.404
		c-0.294,0-0.686,0.042-0.966,0.098L50.589,33.958z M55.727,44.695c0.225-0.28,0.294-0.364,0.532-0.63
		c0.336,0.322,0.448,0.42,0.756,0.756c0.028,0.042,0.042,0.07,0.042,0.098c0,0.042-0.069,0.098-0.14,0.098h-3.682v0.686
		c-0.028,0.168-0.099,0.196-0.435,0.196c-0.056,0-0.111,0-0.14,0c-0.014,0-0.028,0-0.042,0c-0.126,0-0.183-0.042-0.183-0.168
		c0.042-1.694,0.07-2.674,0.07-2.94v-2.072c-0.168,0.21-0.252,0.308-0.546,0.616l-0.126-0.154c0.588-0.896,1.092-2.016,1.4-3.164
		c0.951,0.308,1.12,0.378,1.12,0.49c0,0.098-0.057,0.126-0.519,0.21c-0.28,0.448-0.336,0.546-0.574,0.924h1.078
		c0.351-0.56,0.504-0.91,0.687-1.554c0.924,0.308,1.05,0.364,1.05,0.476c0,0.098-0.154,0.154-0.504,0.182
		c-0.658,0.616-0.742,0.7-0.994,0.896h1.12c0.21-0.28,0.279-0.364,0.504-0.616c0.378,0.308,0.476,0.406,0.798,0.728
		c0.028,0.056,0.056,0.098,0.056,0.126c0,0.056-0.056,0.084-0.14,0.084h-1.708v1.218h0.476c0.225-0.294,0.294-0.378,0.532-0.644
		c0.322,0.35,0.435,0.448,0.742,0.784c0.028,0.042,0.042,0.07,0.042,0.098c0,0.042-0.07,0.084-0.168,0.084h-1.624v1.344h0.476
		c0.238-0.252,0.309-0.322,0.519-0.588c0.336,0.308,0.434,0.406,0.742,0.728c0.042,0.042,0.056,0.084,0.056,0.112
		c0,0.042-0.056,0.07-0.154,0.07h-1.638v1.526H55.727z M55.699,35.875h-3.612c0,0.798,0,1.036,0,1.428h3.612V35.875z M54.453,41.181
		v-1.218h-1.218v1.218H54.453z M54.453,42.847v-1.344h-1.218v1.344H54.453z M54.453,43.169h-1.218v1.526h1.218V43.169z
		 M55.699,45.899c0.84-0.434,1.428-0.84,2.113-1.47c0.267-0.252,0.309-0.294,0.868-0.952c0.238,0.098,0.435,0.168,0.561,0.224
		c0.56,0.21,0.686,0.28,0.686,0.364c0,0.112-0.126,0.14-0.616,0.154c-1.764,1.232-2.071,1.4-3.514,1.862L55.699,45.899z
		 M60.655,34.419c-0.561,1.106-0.588,1.176-1.036,1.834h1.861c0.238-0.28,0.309-0.364,0.561-0.63c0.35,0.28,0.462,0.364,0.784,0.63
		c0.111,0.07,0.153,0.14,0.153,0.196c0,0.084,0,0.084-0.434,0.322c0,0.462,0,0.742,0,1.036c0,0.28,0.028,4.158,0.042,5.208
		c-0.028,0.196-0.112,0.224-0.616,0.224c-0.237,0-0.279-0.028-0.308-0.154v-0.35h-3.234v0.434c-0.042,0.126-0.126,0.154-0.489,0.154
		c-0.085,0-0.141,0.014-0.183,0.014c-0.014,0-0.028,0-0.028,0c-0.14,0-0.195-0.042-0.21-0.182l0.015-1.162l0.014-2.352
		c0-2.982,0-3.248-0.042-3.948c0.42,0.238,0.546,0.308,0.924,0.56h0.84c0.028-0.21,0.042-0.308,0.07-0.434
		c0.182-0.91,0.182-0.91,0.224-1.4h-1.371c-0.252,0-0.561,0.042-0.813,0.098l-0.084-0.56c0.28,0.098,0.588,0.14,0.896,0.14h3.205
		c0.295-0.42,0.393-0.532,0.729-0.896c0.56,0.406,0.728,0.532,1.274,0.994c0.042,0.056,0.069,0.084,0.069,0.112
		c0,0.056-0.069,0.112-0.154,0.112H60.655z M61.663,36.575h-3.234v1.596h3.234V36.575z M58.429,38.493v1.736h3.234v-1.736H58.429z
		 M58.429,40.551v1.862h3.234v-1.862H58.429z M60.459,43.351c1.19,0.462,2.016,0.84,2.422,1.134c0.21,0.168,0.378,0.462,0.378,0.686
		c0,0.42-0.154,0.812-0.308,0.812c-0.112,0-0.141-0.042-0.435-0.448c-0.084-0.112-0.741-0.84-0.909-1.008
		c-0.084-0.084-0.49-0.42-1.232-1.022L60.459,43.351z"/>
	<path d="M79.709,36.869c0.224-0.28,0.294-0.364,0.532-0.63c0.447,0.35,0.588,0.462,1.021,0.854
		c0.126,0.098,0.183,0.168,0.183,0.238c0,0.098-0.168,0.14-0.841,0.168c-0.714,0.868-1.203,1.33-2.086,1.988
		c0.742,0.378,1.372,0.616,2.198,0.854c1.232,0.35,2.156,0.49,3.5,0.56v0.21c-0.574,0.112-0.728,0.252-1.078,0.952
		c-0.882-0.21-1.26-0.336-2.226-0.686c0.308,0.308,0.322,0.308,0.588,0.56c0.084,0.098,0.126,0.154,0.126,0.21
		c0,0.014-0.028,0.056-0.042,0.07c-0.028,0.014-0.084,0.056-0.154,0.084c-0.027,0.014-0.084,0.042-0.14,0.07
		c0,0.644,0,0.644,0.014,1.834c0.015,0.77,0.015,0.77,0.028,1.498c0,0.028,0.014,0.07,0.014,0.084c0,0.098-0.042,0.154-0.14,0.182
		c-0.14,0.042-0.378,0.07-0.574,0.07c-0.21,0-0.252-0.042-0.252-0.238c0,0,0-0.014,0-0.028v-0.56h-5.278v0.49
		c0,0.238-0.126,0.308-0.56,0.308c-0.308,0-0.406-0.056-0.406-0.238v-0.028c0.015-0.49,0.015-0.49,0.015-1.204
		c0.014-0.378,0.014-0.378,0.027-1.274v-1.484c-1.036,0.378-1.567,0.546-2.618,0.742l-0.084-0.196
		c2.129-0.714,4.173-1.722,5.811-2.87c-0.588-0.476-1.274-1.134-1.694-1.652c-0.336,0.35-0.714,0.686-1.147,1.036
		c-0.98,0.784-1.624,1.176-2.479,1.498l-0.098-0.154c1.315-1.008,1.932-1.54,2.618-2.324c0.783-0.854,1.231-1.526,1.512-2.226
		c1.372,0.28,1.484,0.308,1.484,0.434c0,0.14-0.196,0.224-0.729,0.308c-0.168,0.238-0.238,0.336-0.35,0.49H79.709z M77.301,35.091
		v-0.966c0-0.322-0.014-0.518-0.042-0.924c1.134,0.112,1.316,0.14,1.456,0.182c0.112,0.042,0.182,0.098,0.182,0.182
		c0,0.154-0.182,0.252-0.602,0.336v1.19h3.92c0.28-0.322,0.364-0.434,0.645-0.77l1.273,0.924c0.084,0.07,0.126,0.126,0.126,0.182
		c0,0.042-0.07,0.098-0.126,0.112c0,0-0.28,0.056-0.84,0.14c-0.868,0.994-0.91,1.036-1.358,1.372l-0.14-0.084
		c0.266-0.672,0.336-0.91,0.49-1.554h-8.918c-0.084,0.7-0.21,1.19-0.42,1.568c-0.183,0.322-0.616,0.658-0.854,0.658
		c-0.084,0-0.237-0.112-0.308-0.238c-0.07-0.098-0.112-0.364-0.112-0.588c0-0.182,0-0.196,0.336-0.42
		c0.196-0.14,0.504-0.504,0.658-0.784c0.266-0.504,0.392-0.882,0.476-1.484h0.252c0.015,0.224,0.028,0.378,0.028,0.504
		s-0.014,0.252-0.028,0.462H77.301z M80.269,41.825c0.238-0.21,0.238-0.21,0.561-0.476c-1.358-0.518-2.059-0.868-2.926-1.442
		c-0.938,0.616-1.849,1.078-3.108,1.624c0.126,0.098,0.168,0.14,0.308,0.294H80.269z M75.103,44.891h5.278v-2.744h-5.278V44.891z
		 M76.139,37.191c-0.14,0.168-0.182,0.224-0.321,0.378c0.35,0.448,1.063,0.994,1.96,1.512c0.756-0.602,1.203-1.05,1.861-1.89H76.139
		z"/>
</g>
<rect x="49.537" y="32.6" fill="none" stroke="#008CD6" stroke-width="0.5" width="14" height="14"/>
<rect x="70.537" y="32.6" fill="none" stroke="#008CD6" stroke-width="0.5" width="14" height="14"/>
<rect x="46.037" y="25.6" fill="none" stroke="#008CD6" stroke-width="0.5" width="42" height="7"/>
<line fill="none" stroke="#008CD6" stroke-width="0.5" x1="53.037" y1="32.6" x2="53.037" y2="25.6"/>
<line fill="none" stroke="#008CD6" stroke-width="0.5" x1="60.037" y1="32.6" x2="60.037" y2="25.6"/>
<line fill="none" stroke="#008CD6" stroke-width="0.5" x1="67.037" y1="32.6" x2="67.037" y2="25.6"/>
<line fill="none" stroke="#008CD6" stroke-width="0.5" x1="74.037" y1="32.6" x2="74.037" y2="25.6"/>
<line fill="none" stroke="#008CD6" stroke-width="0.5" x1="81.037" y1="32.6" x2="81.037" y2="25.6"/>
<g>
	<text fill="#008CD6" x="0" y="57" font-size="8" font-family="sans-serif" font-weight="lighter">1/4 size of base</text>
</g>
<g>
	<text fill="#008CD6" x="100%" y="57" font-size="8" text-anchor="end" font-family="sans-serif" font-weight="lighter">1/4 size of base</text>
</g>
<line fill="none" stroke="#008CD6" stroke-width="0.5" x1="86.878" y1="49.1" x2="86.878" y2="36.682"/>
<polyline fill="none" stroke="#008CD6" stroke-width="0.5" points="84.889,40.126 86.878,36.682 88.867,40.126 "/>
<line fill="none" stroke="#008CD6" stroke-width="0.5" x1="66.878" y1="70.6" x2="66.878" y2="36.682"/>
<polyline fill="none" stroke="#008CD6" stroke-width="0.5" points="64.889,40.126 66.878,36.682 68.867,40.126 "/>
<line fill="none" stroke="#008CD6" stroke-width="0.5" x1="47.128" y1="49.1" x2="47.128" y2="36.682"/>
<polyline fill="none" stroke="#008CD6" stroke-width="0.5" points="45.139,40.126 47.128,36.682 49.117,40.126 "/>
<g>
	<text fill="#008CD6" x="50%" y="77" font-size="8" text-anchor="middle" font-family="sans-serif" font-weight="lighter">1/2 size of base</text>
</g>
</svg>
