<?xml version="1.0" encoding="utf-8"?>
<!-- Generator: Adobe Illustrator 12.0.0, SVG Export Plug-In . SVG Version: 6.00 Build 51448)  -->
<!DOCTYPE svg PUBLIC "-//W3C//DTD SVG 1.1//EN" "http://www.w3.org/Graphics/SVG/1.1/DTD/svg11.dtd" [
	<!ENTITY ns_svg "http://www.w3.org/2000/svg">
	<!ENTITY ns_xlink "http://www.w3.org/1999/xlink">
]>
<svg  version="1.1" id="レイヤー_1" xmlns="&ns_svg;" xmlns:xlink="&ns_xlink;" width="26.1255"
	 viewBox="0 0 17.417 19.6" overflow="visible" enable-background="new 0 0 17.417 19.6" xml:space="preserve">
<g>
	<path d="M0.028,4.025h0.217C0.272,4.354,0.322,4.522,0.44,4.676c0.183,0.252,0.441,0.378,0.764,0.378
		c0.476,0,0.763-0.245,0.763-0.658c0-0.161-0.063-0.315-0.168-0.406C1.673,3.885,1.652,3.878,1.015,3.598
		C0.259,3.269,0.028,3.017,0.028,2.541c0-0.245,0.069-0.483,0.188-0.644c0.189-0.252,0.519-0.399,0.868-0.399
		c0.182,0,0.272,0.014,0.651,0.084c0.056,0.007,0.104,0.014,0.146,0.014c0.084,0,0.196-0.014,0.336-0.049L2.184,2.653h-0.23
		C1.938,2.03,1.631,1.659,1.12,1.659c-0.435,0-0.714,0.245-0.714,0.623c0,0.161,0.063,0.287,0.188,0.378
		c0.133,0.098,0.267,0.168,0.729,0.364C1.792,3.22,1.967,3.325,2.128,3.5c0.146,0.161,0.231,0.392,0.231,0.665
		c0,0.644-0.428,1.057-1.086,1.057c-0.195,0-0.286-0.014-0.699-0.084c-0.099-0.014-0.183-0.021-0.26-0.021
		C0.238,5.117,0.14,5.124,0,5.145L0.028,4.025z"/>
	<path d="M4.116,1.519C4.095,1.925,4.074,2.534,4.074,2.828v1.428c0,0.651,0.035,0.707,0.504,0.721v0.154H2.982V4.977
		C3.465,4.963,3.5,4.907,3.5,4.256V2.387c0-0.35-0.028-0.511-0.104-0.574C3.339,1.764,3.228,1.75,2.982,1.75V1.596L4.116,1.519z
		 M3.767,0.035c0.217,0,0.392,0.175,0.392,0.392c0,0.224-0.175,0.399-0.392,0.399c-0.225,0-0.399-0.175-0.399-0.399
		C3.367,0.21,3.542,0.035,3.767,0.035z"/>
	<path d="M5.068,4.977c0.462-0.014,0.497-0.07,0.497-0.721V0.847c0-0.343-0.028-0.511-0.104-0.574
		C5.411,0.231,5.307,0.217,5.068,0.21V0.056L6.188,0C6.16,0.469,6.146,1.029,6.146,1.4v2.856c0,0.651,0.035,0.707,0.504,0.721v0.154
		H5.068V4.977z"/>
	<path d="M9.766,2.401C9.814,2.268,9.85,2.107,9.85,2.03c0-0.182-0.161-0.266-0.539-0.28V1.596h1.436V1.75
		c-0.371,0.014-0.539,0.175-0.735,0.7L9.003,5.159H8.604L7.498,2.254C7.351,1.848,7.246,1.757,6.945,1.75V1.596H8.52V1.75
		C8.198,1.757,8.058,1.834,8.058,1.988c0,0.063,0.042,0.231,0.099,0.371l0.818,2.24L9.766,2.401z"/>
	<path d="M11.782,3.157c0.007,0.483,0.049,0.763,0.16,1.05c0.203,0.518,0.546,0.77,1.051,0.77c0.497,0,0.875-0.259,1.154-0.791
		l0.161,0.091c-0.314,0.644-0.791,0.945-1.477,0.945c-1.001,0-1.688-0.742-1.688-1.813c0-1.134,0.672-1.911,1.659-1.911
		c0.637,0,1.12,0.322,1.337,0.889c0.07,0.189,0.098,0.357,0.112,0.77H11.782z M13.644,2.968c-0.007-0.371-0.042-0.574-0.133-0.777
		c-0.154-0.343-0.392-0.518-0.721-0.518c-0.336,0-0.616,0.189-0.806,0.546c-0.104,0.203-0.146,0.385-0.188,0.749H13.644z"/>
	<path d="M15.842,1.519c0.014,0.35,0.021,0.441,0.021,0.588c0,0.049,0,0.126,0,0.224c0.23-0.532,0.608-0.833,1.021-0.833
		c0.301,0,0.532,0.189,0.532,0.434c0,0.175-0.147,0.287-0.371,0.287c-0.154,0-0.217-0.042-0.259-0.175
		c-0.042-0.154-0.084-0.196-0.196-0.196c-0.182,0-0.378,0.154-0.525,0.42c-0.126,0.231-0.188,0.518-0.188,0.889v1.099
		c0,0.658,0.035,0.707,0.504,0.721v0.154h-1.603V4.977c0.469-0.014,0.511-0.07,0.511-0.721V2.38c0-0.525-0.084-0.63-0.483-0.63
		V1.596L15.842,1.519z"/>
	<path d="M5.487,12.978h0.882c0.238-0.294,0.448-0.546,0.63-0.756c0.462,0.364,0.603,0.49,1.051,0.896
		c0.042,0.042,0.056,0.084,0.056,0.098c0,0.056-0.056,0.084-0.126,0.084H5.487v4.102c0.798-0.168,1.26-0.28,2.38-0.574l0.07,0.182
		c-1.386,0.658-1.456,0.686-4.9,1.778c-0.056,0.42-0.111,0.56-0.252,0.56c-0.056,0-0.111-0.042-0.153-0.126
		c-0.015-0.028-0.141-0.462-0.379-1.288c0.561-0.042,0.561-0.042,2.381-0.364V13.3H3.205c-0.42,0-0.615,0.014-0.938,0.07
		l-0.084-0.504c0.392,0.084,0.672,0.112,1.008,0.112h1.442V11.13H4.241c-0.266,0-0.518,0.014-0.77,0.042l-0.057-0.378
		c-0.546,0.588-0.741,0.798-1.344,1.288L1.89,11.928c0.77-0.896,1.26-1.61,1.848-2.716C4.241,8.26,4.55,7.532,4.731,6.888
		c1.372,0.252,1.498,0.28,1.498,0.406c0,0.112-0.14,0.168-0.603,0.28L5.558,7.742C6.3,8.05,6.762,8.302,7.321,8.666
		C7.882,9.03,7.966,9.156,7.966,9.59c0,0.364-0.126,0.658-0.28,0.658c-0.084,0-0.168-0.07-0.294-0.266
		C6.93,9.31,6.481,8.82,5.459,7.938C4.857,9.03,4.396,9.66,3.485,10.71c0.364,0.084,0.49,0.098,0.756,0.098h1.75
		c0.238-0.336,0.309-0.434,0.561-0.728c0.476,0.378,0.615,0.49,1.05,0.896c0.014,0.028,0.027,0.07,0.027,0.084
		c0,0.056-0.042,0.07-0.153,0.07H5.487V12.978z M2.771,13.986c0.364,0.392,0.518,0.588,0.812,0.98
		c0.351,0.49,0.477,0.742,0.477,1.022c0,0.196-0.112,0.56-0.238,0.77c-0.098,0.168-0.21,0.252-0.308,0.252
		c-0.154,0-0.196-0.098-0.267-0.686c-0.084-0.602-0.294-1.358-0.63-2.254L2.771,13.986z M5.991,16.884
		c0.364-1.26,0.588-2.198,0.687-2.926c1.246,0.42,1.288,0.434,1.288,0.56S7.812,14.7,7.405,14.742
		c-0.49,0.994-0.686,1.358-1.231,2.254L5.991,16.884z M10.989,13.034c0.168,0.966,0.35,1.512,0.784,2.338
		c1.147-0.938,1.61-1.4,2.058-2.002c0.896,0.546,1.092,0.7,1.092,0.812c0,0.084-0.111,0.14-0.252,0.14
		c-0.084,0-0.21-0.014-0.336-0.028c-1.218,0.714-1.554,0.896-2.436,1.288c0.28,0.476,0.546,0.826,0.924,1.204
		c0.729,0.728,1.372,1.12,2.395,1.47v0.168c-0.631,0.154-0.757,0.252-1.177,0.91c-1.036-0.812-1.567-1.372-2.113-2.282
		c-0.673-1.12-1.078-2.394-1.261-4.018H9.379v4.732c0.603-0.126,1.036-0.238,2.198-0.574l0.07,0.224
		c-1.19,0.588-1.568,0.742-3.78,1.624c-0.042,0.42-0.084,0.56-0.21,0.56c-0.056,0-0.112-0.056-0.168-0.154
		c-0.014-0.028-0.154-0.434-0.42-1.232c0.434-0.056,0.518-0.07,1.092-0.196c0.099-0.014,0.099-0.014,0.351-0.07V9.086
		c0-0.686-0.015-1.106-0.028-1.946c0.448,0.238,0.574,0.322,0.979,0.616h3.374c0.225-0.266,0.294-0.336,0.519-0.588
		c0.392,0.252,0.504,0.336,0.826,0.588c0.111,0.098,0.153,0.154,0.153,0.21c0,0.098-0.098,0.168-0.56,0.392
		c0,3.108,0,3.108,0.056,4.676c0,0.014,0,0.028,0,0.042c0,0.07-0.027,0.126-0.084,0.168c-0.111,0.07-0.476,0.154-0.7,0.154
		c-0.126,0-0.182-0.042-0.182-0.168v-0.196H10.989z M12.865,8.078H9.379v2.128h3.486V8.078z M12.865,10.528H9.379v2.184h3.486
		V10.528z"/>
</g>
</svg>
