<?xml version="1.0" encoding="utf-8"?>
<!-- Generator: Adobe Illustrator 12.0.0, SVG Export Plug-In . SVG Version: 6.00 Build 51448)  -->
<!DOCTYPE svg PUBLIC "-//W3C//DTD SVG 1.1//EN" "http://www.w3.org/Graphics/SVG/1.1/DTD/svg11.dtd" [
	<!ENTITY ns_svg "http://www.w3.org/2000/svg">
	<!ENTITY ns_xlink "http://www.w3.org/1999/xlink">
]>
<svg  version="1.1" id="レイヤー_1" xmlns="&ns_svg;" xmlns:xlink="&ns_xlink;" width="137.25"
	 viewBox="0 0 91.5 46.926" overflow="visible" enable-background="new 0 0 91.5 46.926" xml:space="preserve">
<g>
	<path d="M15.334,1.581C15.551,1.84,15.67,1.91,15.929,1.91c0.42,0,0.945-0.182,1.33-0.455c0.028-0.021,0.063-0.035,0.098-0.035
		c0.141,0,0.393,0.21,0.393,0.336c0,0.063-0.028,0.084-0.231,0.189c-0.287,0.14-0.63,0.434-0.889,0.763
		c-0.504,0.623-0.771,1.316-0.771,1.995c0,0.945,0.525,1.533,1.358,1.533c0.637,0,1.197-0.35,1.519-0.945
		c0.231-0.441,0.351-1.029,0.351-1.771c0-0.735-0.07-1.316-0.231-1.897c-0.021-0.07-0.035-0.147-0.035-0.168
		c0-0.07,0.057-0.126,0.134-0.126h0.007c0.104,0.007,0.252,0.084,0.336,0.175c0.084,0.077,0.098,0.112,0.104,0.259
		c0.028,0.322,0.273,1.043,0.561,1.61c0.196,0.399,0.364,0.651,0.56,0.847c0.133,0.133,0.203,0.343,0.203,0.581
		c0,0.161-0.063,0.273-0.161,0.273c-0.161,0-0.35-0.245-0.63-0.812c-0.287-0.588-0.476-1.099-0.749-2.009L19.163,2.26
		c0.14,0.994,0.161,1.246,0.161,1.757c0,0.931-0.203,1.603-0.623,2.079c-0.336,0.385-0.841,0.602-1.372,0.602
		c-1.043,0-1.729-0.784-1.729-1.981c0-0.441,0.099-0.938,0.28-1.379c0.168-0.42,0.357-0.735,0.714-1.19
		c-0.238,0.042-0.399,0.063-0.539,0.063c-0.392,0-0.637-0.168-0.819-0.56L15.334,1.581z"/>
	<path d="M24.266,6.075c0.645-0.161,1.106-0.336,1.547-0.588c0.819-0.462,1.288-1.148,1.288-1.883c0-0.7-0.518-1.176-1.281-1.176
		c-0.818,0-1.89,0.448-2.813,1.169c-0.112,0.091-0.182,0.119-0.266,0.119c-0.329,0-0.841-0.49-0.841-0.805
		c0-0.049,0.015-0.091,0.057-0.175c0.069,0.147,0.111,0.196,0.195,0.259c0.105,0.077,0.189,0.112,0.287,0.112
		c0.183,0,0.448-0.077,0.848-0.252c1.105-0.483,1.834-0.672,2.562-0.672c1.064,0,1.792,0.623,1.792,1.54
		c0,0.868-0.588,1.617-1.609,2.051c-0.532,0.224-1.043,0.343-1.729,0.406L24.266,6.075z"/>
	<path d="M33.989,5.361c-0.673,0.91-1.59,1.449-2.457,1.449c-0.532,0-0.945-0.217-1.162-0.595c-0.141-0.245-0.196-0.588-0.196-1.183
		c0-0.385,0.021-1.05,0.056-1.687c0.042-0.756,0.05-0.952,0.05-1.204c0-0.602-0.07-0.721-0.567-0.931
		c0.077-0.056,0.119-0.07,0.196-0.07c0.16,0,0.413,0.063,0.63,0.161c0.266,0.126,0.405,0.266,0.405,0.413
		c0,0.049-0.007,0.091-0.063,0.252c-0.133,0.42-0.364,2.541-0.364,3.36c0,0.427,0.084,0.679,0.28,0.84
		c0.154,0.119,0.378,0.189,0.623,0.189c0.476,0,1.063-0.168,1.596-0.448c0.322-0.168,0.525-0.315,0.89-0.623L33.989,5.361z
		 M32.281,1.742c0.378,0.133,0.672,0.308,0.902,0.525c0.119,0.119,0.175,0.238,0.175,0.399c0,0.182-0.076,0.308-0.182,0.308
		c-0.056,0-0.077-0.021-0.196-0.238c-0.23-0.392-0.447-0.665-0.756-0.924L32.281,1.742z M32.903,1.252
		c0.441,0.147,0.7,0.273,0.938,0.469c0.126,0.105,0.168,0.189,0.168,0.35c0,0.203-0.063,0.336-0.161,0.336
		c-0.063,0-0.091-0.035-0.182-0.196c-0.189-0.322-0.441-0.595-0.813-0.882L32.903,1.252z"/>
	<path d="M50.159,2.603c0.279,0.252,0.524,0.357,0.833,0.357c0.195,0,0.378-0.021,0.699-0.091c0.008-0.203,0.008-0.518,0.008-0.644
		c0-0.735-0.084-0.882-0.567-0.966c0.098-0.077,0.154-0.098,0.301-0.098c0.238,0,0.532,0.07,0.722,0.175
		c0.091,0.049,0.153,0.147,0.153,0.224c0,0.042,0,0.042-0.077,0.182c-0.111,0.203-0.182,0.532-0.217,1.043
		c0.371-0.126,0.539-0.217,0.763-0.406c0.057-0.042,0.126-0.07,0.168-0.07c0.063,0,0.183,0.028,0.267,0.063
		c0.07,0.028,0.119,0.091,0.119,0.154c0,0.098-0.063,0.154-0.315,0.273c-0.314,0.147-0.644,0.259-1.021,0.343
		c-0.008,0.098-0.008,0.098-0.021,0.35c-0.007,0.189-0.021,0.497-0.028,0.917c0.784-0.28,1.288-0.385,1.855-0.385
		c0.959,0,1.561,0.455,1.561,1.197c0,0.686-0.524,1.218-1.196,1.218c-0.645,0-1.106-0.427-1.352-1.239l0.105-0.035
		c0.168,0.322,0.272,0.469,0.42,0.609c0.196,0.182,0.413,0.266,0.665,0.266c0.511,0,0.875-0.399,0.875-0.959
		c0-0.539-0.364-0.833-1.036-0.833c-0.553,0-1.218,0.175-1.897,0.504c0,0.742,0,0.742,0.008,0.952
		c0.007,0.133,0.007,0.21,0.007,0.266c0,0.168-0.028,0.301-0.091,0.413c-0.084,0.161-0.218,0.259-0.336,0.259
		c-0.099,0-0.099,0-0.525-0.378c-0.147-0.119-0.35-0.259-0.469-0.315c-0.154-0.07-0.231-0.175-0.231-0.294
		c0-0.112,0.07-0.252,0.21-0.392c0.259-0.266,0.497-0.42,1.113-0.721c0.007-0.098,0.007-0.203,0.014-0.336
		c0.015-0.315,0.015-0.315,0.035-1.008c-0.217,0.035-0.378,0.049-0.546,0.049c-0.448,0-0.749-0.161-1.043-0.574L50.159,2.603z
		 M50.929,5.438c-0.14,0.147-0.21,0.259-0.21,0.336c0,0.07,0.091,0.147,0.28,0.217c0.153,0.063,0.343,0.112,0.434,0.112
		c0.084,0,0.119-0.049,0.126-0.175c0.035-0.63,0.049-0.973,0.049-1.015C51.279,5.116,51.104,5.249,50.929,5.438z M54.051,1.896
		c0.427,0.021,0.742,0.098,1.029,0.252c0.308,0.168,0.489,0.399,0.489,0.616c0,0.126-0.084,0.203-0.21,0.203
		c-0.014,0-0.049,0-0.104-0.014c-0.098-0.014-0.126-0.014-0.147-0.014c-0.104,0-0.272,0.035-0.86,0.189l-0.042-0.07
		c0.42-0.217,0.665-0.364,0.763-0.448c-0.112-0.196-0.224-0.308-0.441-0.434c-0.14-0.077-0.252-0.119-0.482-0.182L54.051,1.896z"/>
	<path d="M57.159,2.603c0.279,0.252,0.524,0.357,0.833,0.357c0.195,0,0.378-0.021,0.699-0.091c0.008-0.203,0.008-0.518,0.008-0.644
		c0-0.735-0.084-0.882-0.567-0.966c0.098-0.077,0.154-0.098,0.301-0.098c0.238,0,0.532,0.07,0.722,0.175
		c0.091,0.049,0.153,0.147,0.153,0.224c0,0.042,0,0.042-0.077,0.182c-0.111,0.203-0.182,0.532-0.217,1.043
		c0.371-0.126,0.539-0.217,0.763-0.406c0.057-0.042,0.126-0.07,0.168-0.07c0.063,0,0.183,0.028,0.267,0.063
		c0.07,0.028,0.119,0.091,0.119,0.154c0,0.098-0.063,0.154-0.315,0.273c-0.314,0.147-0.644,0.259-1.021,0.343
		c-0.008,0.098-0.008,0.098-0.021,0.35c-0.007,0.189-0.021,0.497-0.028,0.917c0.784-0.28,1.288-0.385,1.855-0.385
		c0.959,0,1.561,0.455,1.561,1.197c0,0.686-0.524,1.218-1.196,1.218c-0.645,0-1.106-0.427-1.352-1.239l0.105-0.035
		c0.168,0.322,0.272,0.469,0.42,0.609c0.196,0.182,0.413,0.266,0.665,0.266c0.511,0,0.875-0.399,0.875-0.959
		c0-0.539-0.364-0.833-1.036-0.833c-0.553,0-1.218,0.175-1.897,0.504c0,0.742,0,0.742,0.008,0.952
		c0.007,0.133,0.007,0.21,0.007,0.266c0,0.168-0.028,0.301-0.091,0.413c-0.084,0.161-0.218,0.259-0.336,0.259
		c-0.099,0-0.099,0-0.525-0.378c-0.147-0.119-0.35-0.259-0.469-0.315c-0.154-0.07-0.231-0.175-0.231-0.294
		c0-0.112,0.07-0.252,0.21-0.392c0.259-0.266,0.497-0.42,1.113-0.721c0.007-0.098,0.007-0.203,0.014-0.336
		c0.015-0.315,0.015-0.315,0.035-1.008c-0.217,0.035-0.378,0.049-0.546,0.049c-0.448,0-0.749-0.161-1.043-0.574L57.159,2.603z
		 M57.929,5.438c-0.14,0.147-0.21,0.259-0.21,0.336c0,0.07,0.091,0.147,0.28,0.217c0.153,0.063,0.343,0.112,0.434,0.112
		c0.084,0,0.119-0.049,0.126-0.175c0.035-0.63,0.049-0.973,0.049-1.015C58.279,5.116,58.104,5.249,57.929,5.438z M61.051,1.896
		c0.427,0.021,0.742,0.098,1.029,0.252c0.308,0.168,0.489,0.399,0.489,0.616c0,0.126-0.084,0.203-0.21,0.203
		c-0.014,0-0.049,0-0.104-0.014c-0.098-0.014-0.126-0.014-0.147-0.014c-0.104,0-0.272,0.035-0.86,0.189l-0.042-0.07
		c0.42-0.217,0.665-0.364,0.763-0.448c-0.112-0.196-0.224-0.308-0.441-0.434c-0.14-0.077-0.252-0.119-0.482-0.182L61.051,1.896z"/>
	<path d="M65.587,3.1c-0.49,0.168-0.729,0.259-0.91,0.364c-0.104,0.063-0.146,0.077-0.203,0.077c-0.077,0-0.217-0.091-0.308-0.21
		c-0.126-0.161-0.231-0.406-0.231-0.532c0-0.035,0.015-0.084,0.042-0.154c0.147,0.294,0.273,0.385,0.532,0.385
		c0.154,0,0.637-0.098,1.19-0.245c0.16-0.406,0.286-0.903,0.286-1.148c0-0.217-0.133-0.336-0.538-0.469
		c0.084-0.056,0.126-0.07,0.21-0.07c0.104,0,0.279,0.035,0.469,0.091c0.314,0.091,0.49,0.217,0.49,0.364
		c0,0.056-0.015,0.084-0.099,0.203c-0.098,0.147-0.245,0.462-0.448,0.952c0.309-0.07,0.441-0.084,0.609-0.084
		c0.603,0,0.889,0.357,0.889,1.092c0,0.896-0.356,2.058-0.763,2.513c-0.175,0.189-0.448,0.315-0.672,0.315
		c-0.119,0-0.175-0.049-0.189-0.161c-0.021-0.196-0.034-0.21-0.776-0.819l0.063-0.091c0.539,0.308,0.938,0.483,1.085,0.483
		c0.161,0,0.273-0.147,0.455-0.588c0.245-0.574,0.413-1.351,0.413-1.883c0-0.469-0.126-0.637-0.497-0.637
		c-0.21,0-0.336,0.028-0.734,0.147c-0.099,0.238-0.099,0.238-0.406,0.952c-0.028,0.07-0.168,0.399-0.413,0.98
		c-0.28,0.658-0.511,1.162-0.623,1.358c-0.049,0.091-0.104,0.133-0.168,0.133c-0.126,0-0.203-0.182-0.203-0.483
		c0-0.182,0.021-0.231,0.161-0.392c0.14-0.154,0.315-0.448,0.518-0.826c0.267-0.518,0.267-0.518,0.561-1.162L65.587,3.1z
		 M68.316,2.652c0.547,0.161,0.974,0.441,1.281,0.84c0.267,0.343,0.399,0.679,0.399,0.994c0,0.238-0.105,0.378-0.28,0.378
		c-0.056,0-0.091-0.007-0.161-0.049c-0.112-0.063-0.154-0.07-0.287-0.07c-0.245,0-0.279,0-0.875,0.063L68.366,4.71
		c0.707-0.217,0.854-0.266,1.07-0.357c-0.027-0.238-0.091-0.434-0.217-0.672c-0.224-0.427-0.497-0.693-0.959-0.931L68.316,2.652z"/>
	<path d="M73.56,6.782c0.512-0.413,0.742-0.644,0.994-0.994s0.42-0.679,0.623-1.211c-0.609-0.322-1.211-0.476-2.009-0.511
		c-0.427,0.777-0.609,1.071-0.847,1.386c-0.26,0.322-0.477,0.483-0.673,0.483c-0.294,0-0.539-0.336-0.539-0.742
		c0-0.357,0.176-0.714,0.477-0.966c0.308-0.259,0.77-0.42,1.33-0.462c0.098-0.168,0.111-0.217,0.497-1.099
		c0.224-0.532,0.252-0.609,0.363-0.987c-0.168,0.042-0.65,0.196-1.008,0.322c-0.111,0.035-0.168,0.049-0.23,0.049
		c-0.217,0-0.441-0.343-0.441-0.679c0-0.07,0.014-0.105,0.077-0.161c0.14,0.322,0.266,0.427,0.525,0.427
		c0.182,0,0.398-0.035,0.741-0.119c0.183-0.049,0.21-0.063,0.309-0.147c0.042-0.049,0.084-0.063,0.146-0.063
		c0.154,0,0.504,0.371,0.504,0.546c0,0.056-0.027,0.105-0.104,0.161c-0.161,0.133-0.224,0.231-0.707,1.19
		c-0.189,0.378-0.217,0.434-0.287,0.567c0.707,0.035,1.316,0.154,2.009,0.399c0.119-0.364,0.231-0.903,0.231-1.127
		c0-0.189-0.099-0.315-0.364-0.483c0.049-0.035,0.077-0.042,0.126-0.042c0.119,0,0.28,0.056,0.49,0.161
		c0.224,0.112,0.329,0.224,0.329,0.35c0,0.07-0.007,0.105-0.063,0.245c-0.021,0.049-0.063,0.196-0.168,0.525
		c-0.035,0.126-0.063,0.21-0.161,0.532c0.84,0.42,1.064,0.623,1.064,0.994c0,0.14-0.07,0.252-0.161,0.252
		c-0.063,0-0.112-0.035-0.238-0.147c-0.224-0.224-0.455-0.406-0.833-0.658c-0.308,0.672-0.524,1.008-0.896,1.365
		c-0.315,0.301-0.603,0.504-1.05,0.721L73.56,6.782z M71.411,5.025c0,0.259,0.146,0.504,0.301,0.504c0.23,0,0.525-0.406,1.063-1.47
		C71.88,4.157,71.411,4.486,71.411,5.025z"/>
	<path d="M7.27,19.417c1.513-0.448,2.479-1.022,3.276-1.946c0.826-0.938,1.246-2.086,1.246-3.374c0-1.358-0.546-2.436-1.582-3.094
		c-0.616-0.406-1.54-0.644-2.422-0.644c-0.168,0-0.267,0-0.49,0.028c0.336,0.49,0.434,0.756,0.434,1.162
		c0,1.092-0.783,3.136-1.848,4.844c-0.882,1.4-1.568,2.086-2.086,2.086c-0.238,0-0.462-0.112-0.616-0.294
		c-0.126-0.168-0.154-0.224-0.392-0.896c-0.126-0.364-0.21-0.532-0.616-1.316c-0.224-0.448-0.322-0.826-0.322-1.274
		c0-0.882,0.477-1.918,1.261-2.772c1.134-1.204,2.981-1.96,4.815-1.96c1.414,0,2.716,0.462,3.612,1.288
		c0.896,0.826,1.344,1.932,1.344,3.29c0,1.75-1.022,3.304-2.786,4.242c-0.812,0.434-1.54,0.658-2.729,0.868L7.27,19.417z
		 M2.664,15.063c0,0.672,0.21,1.358,0.56,1.848c0.196,0.252,0.378,0.406,0.532,0.406c0.308,0,0.979-0.756,1.666-1.848
		C6.458,13.817,7.2,12.011,7.2,11.143c0-0.21-0.042-0.35-0.196-0.7C4.567,10.877,2.664,12.907,2.664,15.063z"/>
	<path d="M25.302,13.383h2.688c0.308-0.406,0.405-0.518,0.741-0.882c0.532,0.42,0.7,0.56,1.219,1.036
		c0.027,0.028,0.056,0.07,0.056,0.098c0,0.042-0.07,0.07-0.168,0.07h-4.536v2.562h3.906c0.363-0.434,0.476-0.56,0.854-0.952
		c0.546,0.462,0.7,0.616,1.218,1.106c0.028,0.028,0.042,0.07,0.042,0.084c0,0.042-0.069,0.084-0.14,0.084h-5.88v0.742
		c0,1.666,0.014,2.688,0.028,3.066c-0.028,0.112-0.057,0.14-0.168,0.168c-0.084,0.028-0.532,0.07-0.687,0.07
		c-0.153,0-0.21-0.042-0.21-0.168c0.028-0.994,0.042-2.016,0.042-3.136v-0.742h-4.2c-0.476,0-1.05,0.028-1.414,0.07l-0.098-0.532
		c0.588,0.098,1.064,0.14,1.61,0.14h4.102v-2.562H21.27c-0.294,0-0.798,0.028-1.26,0.084l-0.084-0.518
		c0.532,0.084,0.91,0.112,1.4,0.112h2.981v-2.31H20.64c-0.322,0-0.77,0.028-1.26,0.098l-0.07-0.574
		c0.42,0.084,1.008,0.154,1.33,0.154h2.17c-0.153-0.14-0.153-0.154-0.294-0.56c-0.112-0.378-0.378-0.882-0.644-1.316
		c-0.154-0.224-0.294-0.378-0.603-0.686l0.126-0.168c0.672,0.336,1.064,0.602,1.568,1.05c0.392,0.364,0.56,0.616,0.56,0.868
		c0,0.266-0.153,0.574-0.392,0.812h2.604c0.841-1.316,1.051-1.736,1.387-2.73c1.273,0.392,1.554,0.504,1.554,0.658
		c0,0.154-0.14,0.196-0.686,0.196c-0.868,0.966-1.106,1.204-1.891,1.876h2.688c0.321-0.434,0.42-0.56,0.77-0.966
		c0.561,0.448,0.729,0.588,1.232,1.078c0.027,0.042,0.056,0.084,0.056,0.112c0,0.056-0.084,0.098-0.196,0.098h-5.348V13.383z"/>
	<path d="M40.324,8.624c0.42,0,1.077,0.126,1.414,0.266c0.279,0.112,0.392,0.252,0.392,0.448c0,0.014,0,0.028,0,0.028
		c0,0.112-0.014,0.112-0.112,0.364c-0.168,0.476-0.308,1.68-0.308,2.842c0,0.826,0.112,1.036,0.546,1.036
		c0.294,0,0.602-0.112,1.876-0.714c0.252-0.126,0.406-0.168,0.574-0.168c0.336,0,0.672,0.294,0.672,0.588
		c0,0.182-0.098,0.336-0.294,0.42c-0.099,0.042-0.294,0.112-0.938,0.294c-1.693,0.476-2.618,0.896-3.5,1.568
		c-0.756,0.588-1.092,1.134-1.092,1.792c0,1.008,0.798,1.526,2.353,1.526c0.867,0,2.239-0.168,3.247-0.406
		c0.141-0.028,0.196-0.042,0.28-0.042c0.364,0,0.756,0.35,0.756,0.686c0,0.252-0.153,0.378-0.602,0.462s-1.848,0.182-2.688,0.182
		c-1.021,0-1.792-0.112-2.38-0.322c-0.938-0.35-1.525-1.148-1.525-2.072c0-0.812,0.447-1.582,1.372-2.352
		c0.42-0.364,0.882-0.672,1.708-1.12c-0.309,0-0.435-0.042-0.673-0.21c-0.21-0.154-0.336-0.462-0.405-1.064
		c-0.042-0.336-0.057-0.644-0.099-1.694c-0.042-1.19-0.056-1.4-0.168-1.61c-0.153-0.266-0.42-0.406-1.008-0.504
		C39.932,8.666,40.044,8.624,40.324,8.624z"/>
	<path d="M57.109,19.249c0.154,0,0.28,0.014,0.364,0.014c0.742,0.042,0.742,0.042,1.4,0.042c0.434,0,0.546-0.042,0.644-0.238
		c0.252-0.532,0.42-1.974,0.42-3.598c0-0.588-0.027-1.148-0.084-1.638c-0.308,0.476-0.434,0.644-0.77,1.05
		c-0.771,0.91-1.316,1.414-2.227,2.086l-0.153-0.14c0.77-0.798,1.315-1.498,2.212-2.884c0.28-0.434,0.406-0.658,0.742-1.33
		c-0.141-0.574-0.252-0.91-0.477-1.456c-0.56,0.518-0.63,0.56-2.324,1.68l-0.126-0.168c1.078-0.882,1.555-1.33,2.198-2.1
		c-0.35-0.714-0.644-1.162-1.218-1.932l0.154-0.154c0.63,0.602,0.993,1.05,1.399,1.666c0.784-1.008,1.218-1.68,1.414-2.184
		c0.238,0.112,0.435,0.196,0.546,0.238c0.672,0.294,0.798,0.364,0.798,0.462c0,0.098-0.111,0.14-0.336,0.14
		c-0.014,0-0.195-0.014-0.321-0.014c-0.673,0.84-1.162,1.386-1.75,1.96c0.812,1.54,1.203,3.248,1.203,5.348
		c0,1.218-0.111,2.31-0.308,3.024c-0.126,0.42-0.364,0.812-0.644,1.008c-0.238,0.168-0.49,0.266-1.078,0.378
		c-0.042-0.364-0.112-0.532-0.322-0.686c-0.21-0.168-0.49-0.238-1.372-0.35L57.109,19.249z M65.062,14.503
		c0.448,1.246,0.645,1.666,1.106,2.324c1.036-0.756,1.54-1.218,1.974-1.82c0.378,0.252,0.378,0.252,1.036,0.658
		c0.126,0.084,0.196,0.154,0.196,0.196c0,0.07-0.084,0.126-0.168,0.126c-0.015,0-0.015,0-0.028,0
		c-0.098-0.014-0.252-0.028-0.532-0.042c-0.882,0.476-0.882,0.476-2.323,1.092c0.42,0.518,0.756,0.826,1.357,1.232
		c0.49,0.35,1.106,0.672,1.526,0.826c0.252,0.098,0.434,0.14,0.896,0.21v0.21c-0.546,0.168-0.686,0.294-0.952,0.868
		c-1.008-0.546-1.567-0.966-2.268-1.722c-0.84-0.896-1.456-1.96-1.848-3.206c-0.084-0.252-0.126-0.42-0.267-0.952h-1.68v4.41
		c1.386-0.308,2.1-0.49,2.842-0.728l0.084,0.21c-0.882,0.448-2.618,1.204-4.144,1.806c-0.015,0.098-0.028,0.196-0.042,0.252
		c-0.028,0.21-0.099,0.322-0.168,0.322c-0.015,0-0.015,0-0.015,0c-0.069-0.014-0.14-0.084-0.195-0.21
		c-0.028-0.07-0.084-0.238-0.154-0.504c-0.084-0.308-0.154-0.574-0.224-0.812c0.504-0.07,0.714-0.098,1.105-0.168v-8.274
		c-0.014-0.28-0.014-0.532-0.014-0.784c-0.015-0.364-0.015-0.378-0.028-0.672c0.49,0.238,0.63,0.322,1.064,0.63h1.498V8.567
		c0-0.056,0-0.182-0.015-0.364c-0.014-0.084-0.014-0.21-0.027-0.378c1.497,0.168,1.666,0.196,1.666,0.35
		c0,0.126-0.085,0.168-0.658,0.322v1.484h1.764c0.238-0.266,0.308-0.35,0.546-0.602c0.336,0.266,0.448,0.336,0.784,0.588
		c0.112,0.07,0.154,0.14,0.154,0.21c0,0.112-0.084,0.182-0.462,0.378c-0.015,0.42-0.015,0.714-0.015,0.952
		c0,1.204,0.028,2.562,0.057,3.164c-0.028,0.112-0.057,0.168-0.141,0.182c-0.153,0.042-0.42,0.084-0.602,0.084
		c-0.141,0-0.196-0.042-0.225-0.182v-0.252H65.062z M67.525,12.025v-1.722h-4.438v1.722H67.525z M63.088,12.347v1.834h4.438v-1.834
		H63.088z"/>
	<path d="M80.378,10.416c0.336,0.504,0.56,0.742,0.966,1.008c0.49,0.308,0.91,0.462,1.638,0.602
		c0.393-1.946,0.435-2.156,0.435-2.492c0-0.476-0.196-0.77-0.756-1.162c0.111-0.042,0.153-0.056,0.237-0.056
		c0.252,0,0.616,0.154,1.036,0.434c0.448,0.308,0.729,0.7,0.729,1.008c0,0.126-0.042,0.238-0.183,0.406
		c-0.237,0.336-0.392,0.714-0.77,1.946c0.294,0.084,0.42,0.154,0.56,0.308c0.112,0.126,0.196,0.322,0.196,0.462
		c0,0.182-0.168,0.294-0.448,0.294c-0.14,0-0.321-0.028-0.546-0.07c-0.28,0.938-0.448,1.764-0.56,2.59
		c0.336,0.07,0.573,0.098,0.714,0.098c0.042,0,0.07,0,0.112-0.014c0.084-0.014,0.14-0.014,0.153-0.014
		c0.364,0,0.84,0.434,0.84,0.756c0,0.196-0.182,0.322-0.476,0.322c-0.392,0-0.98-0.098-1.484-0.252
		c-0.027,0.336-0.042,0.504-0.042,0.686c0,1.428,0.798,2.226,2.212,2.226c0.952,0,1.778-0.364,2.212-0.952
		c0.309-0.42,0.463-0.896,0.463-1.428c0-1.162-0.784-2.478-2.114-3.5l0.154-0.182c2.071,1.274,2.953,2.436,2.953,3.864
		c0,1.694-1.456,2.982-3.401,2.982c-0.729,0-1.428-0.21-1.904-0.574c-0.728-0.546-1.078-1.386-1.078-2.604
		c0-0.168,0.015-0.35,0.028-0.7c-0.546-0.252-0.826-0.42-1.12-0.714c-0.378-0.392-0.616-0.91-0.616-1.386
		c0-0.322,0.154-0.672,0.435-0.966c0.336-0.336,0.686-0.532,1.357-0.742c-0.56-0.21-0.952-0.462-1.357-0.868
		c-0.294-0.308-0.462-0.588-0.729-1.232L80.378,10.416z M81.204,13.537c-0.21,0.224-0.309,0.434-0.309,0.7
		c0,0.588,0.477,1.022,1.442,1.316c0.07-0.7,0.196-1.498,0.42-2.548C81.946,13.047,81.54,13.201,81.204,13.537z"/>
</g>
<g>
	<path d="M15.334,27.731c0.217,0.259,0.336,0.329,0.595,0.329c0.42,0,0.945-0.182,1.33-0.455c0.028-0.021,0.063-0.035,0.098-0.035
		c0.141,0,0.393,0.21,0.393,0.336c0,0.063-0.028,0.084-0.231,0.189c-0.287,0.14-0.63,0.434-0.889,0.763
		c-0.504,0.623-0.771,1.316-0.771,1.995c0,0.945,0.525,1.533,1.358,1.533c0.637,0,1.197-0.35,1.519-0.945
		c0.231-0.441,0.351-1.029,0.351-1.771c0-0.735-0.07-1.316-0.231-1.897c-0.021-0.07-0.035-0.147-0.035-0.168
		c0-0.07,0.057-0.126,0.134-0.126h0.007c0.104,0.007,0.252,0.084,0.336,0.175c0.084,0.077,0.098,0.112,0.104,0.259
		c0.028,0.322,0.273,1.043,0.561,1.61c0.196,0.399,0.364,0.651,0.56,0.847c0.133,0.133,0.203,0.343,0.203,0.581
		c0,0.161-0.063,0.273-0.161,0.273c-0.161,0-0.35-0.245-0.63-0.812c-0.287-0.588-0.476-1.099-0.749-2.009l-0.021,0.007
		c0.14,0.994,0.161,1.246,0.161,1.757c0,0.931-0.203,1.603-0.623,2.079c-0.336,0.385-0.841,0.602-1.372,0.602
		c-1.043,0-1.729-0.784-1.729-1.981c0-0.441,0.099-0.938,0.28-1.379c0.168-0.42,0.357-0.735,0.714-1.19
		c-0.238,0.042-0.399,0.063-0.539,0.063c-0.392,0-0.637-0.168-0.819-0.56L15.334,27.731z"/>
	<path d="M24.266,32.226c0.645-0.161,1.106-0.336,1.547-0.588c0.819-0.462,1.288-1.148,1.288-1.883c0-0.7-0.518-1.176-1.281-1.176
		c-0.818,0-1.89,0.448-2.813,1.169c-0.112,0.091-0.182,0.119-0.266,0.119c-0.329,0-0.841-0.49-0.841-0.805
		c0-0.049,0.015-0.091,0.057-0.175c0.069,0.147,0.111,0.196,0.195,0.259c0.105,0.077,0.189,0.112,0.287,0.112
		c0.183,0,0.448-0.077,0.848-0.252c1.105-0.483,1.834-0.672,2.562-0.672c1.064,0,1.792,0.623,1.792,1.54
		c0,0.868-0.588,1.617-1.609,2.051c-0.532,0.224-1.043,0.343-1.729,0.406L24.266,32.226z"/>
	<path d="M33.989,31.512c-0.673,0.91-1.59,1.449-2.457,1.449c-0.532,0-0.945-0.217-1.162-0.595
		c-0.141-0.245-0.196-0.588-0.196-1.183c0-0.385,0.021-1.05,0.056-1.687c0.042-0.756,0.05-0.952,0.05-1.204
		c0-0.602-0.07-0.721-0.567-0.931c0.077-0.056,0.119-0.07,0.196-0.07c0.16,0,0.413,0.063,0.63,0.161
		c0.266,0.126,0.405,0.266,0.405,0.413c0,0.049-0.007,0.091-0.063,0.252c-0.133,0.42-0.364,2.541-0.364,3.36
		c0,0.427,0.084,0.679,0.28,0.84c0.154,0.119,0.378,0.189,0.623,0.189c0.476,0,1.063-0.168,1.596-0.448
		c0.322-0.168,0.525-0.315,0.89-0.623L33.989,31.512z M32.281,27.893c0.378,0.133,0.672,0.308,0.902,0.525
		c0.119,0.119,0.175,0.238,0.175,0.399c0,0.182-0.076,0.308-0.182,0.308c-0.056,0-0.077-0.021-0.196-0.238
		c-0.23-0.392-0.447-0.665-0.756-0.924L32.281,27.893z M32.903,27.402c0.441,0.147,0.7,0.273,0.938,0.469
		c0.126,0.105,0.168,0.189,0.168,0.35c0,0.203-0.063,0.336-0.161,0.336c-0.063,0-0.091-0.035-0.182-0.196
		c-0.189-0.322-0.441-0.595-0.813-0.882L32.903,27.402z"/>
	<path d="M50.159,28.753c0.279,0.252,0.524,0.357,0.833,0.357c0.195,0,0.378-0.021,0.699-0.091c0.008-0.203,0.008-0.518,0.008-0.644
		c0-0.735-0.084-0.882-0.567-0.966c0.098-0.077,0.154-0.098,0.301-0.098c0.238,0,0.532,0.07,0.722,0.175
		c0.091,0.049,0.153,0.147,0.153,0.224c0,0.042,0,0.042-0.077,0.182c-0.111,0.203-0.182,0.532-0.217,1.043
		c0.371-0.126,0.539-0.217,0.763-0.406c0.057-0.042,0.126-0.07,0.168-0.07c0.063,0,0.183,0.028,0.267,0.063
		c0.07,0.028,0.119,0.091,0.119,0.154c0,0.098-0.063,0.154-0.315,0.273c-0.314,0.147-0.644,0.259-1.021,0.343
		c-0.008,0.098-0.008,0.098-0.021,0.35c-0.007,0.189-0.021,0.497-0.028,0.917c0.784-0.28,1.288-0.385,1.855-0.385
		c0.959,0,1.561,0.455,1.561,1.197c0,0.686-0.524,1.218-1.196,1.218c-0.645,0-1.106-0.427-1.352-1.239l0.105-0.035
		c0.168,0.322,0.272,0.469,0.42,0.609c0.196,0.182,0.413,0.266,0.665,0.266c0.511,0,0.875-0.399,0.875-0.959
		c0-0.539-0.364-0.833-1.036-0.833c-0.553,0-1.218,0.175-1.897,0.504c0,0.742,0,0.742,0.008,0.952
		c0.007,0.133,0.007,0.21,0.007,0.266c0,0.168-0.028,0.301-0.091,0.413c-0.084,0.161-0.218,0.259-0.336,0.259
		c-0.099,0-0.099,0-0.525-0.378c-0.147-0.119-0.35-0.259-0.469-0.315c-0.154-0.07-0.231-0.175-0.231-0.294
		c0-0.112,0.07-0.252,0.21-0.392c0.259-0.266,0.497-0.42,1.113-0.721c0.007-0.098,0.007-0.203,0.014-0.336
		c0.015-0.315,0.015-0.315,0.035-1.008c-0.217,0.035-0.378,0.049-0.546,0.049c-0.448,0-0.749-0.161-1.043-0.574L50.159,28.753z
		 M50.929,31.588c-0.14,0.147-0.21,0.259-0.21,0.336c0,0.07,0.091,0.147,0.28,0.217c0.153,0.063,0.343,0.112,0.434,0.112
		c0.084,0,0.119-0.049,0.126-0.175c0.035-0.63,0.049-0.973,0.049-1.015C51.279,31.267,51.104,31.399,50.929,31.588z M54.051,28.046
		c0.427,0.021,0.742,0.098,1.029,0.252c0.308,0.168,0.489,0.399,0.489,0.616c0,0.126-0.084,0.203-0.21,0.203
		c-0.014,0-0.049,0-0.104-0.014c-0.098-0.014-0.126-0.014-0.147-0.014c-0.104,0-0.272,0.035-0.86,0.189l-0.042-0.07
		c0.42-0.217,0.665-0.364,0.763-0.448c-0.112-0.196-0.224-0.308-0.441-0.434c-0.14-0.077-0.252-0.119-0.482-0.182L54.051,28.046z"/>
	<path d="M57.159,28.753c0.279,0.252,0.524,0.357,0.833,0.357c0.195,0,0.378-0.021,0.699-0.091c0.008-0.203,0.008-0.518,0.008-0.644
		c0-0.735-0.084-0.882-0.567-0.966c0.098-0.077,0.154-0.098,0.301-0.098c0.238,0,0.532,0.07,0.722,0.175
		c0.091,0.049,0.153,0.147,0.153,0.224c0,0.042,0,0.042-0.077,0.182c-0.111,0.203-0.182,0.532-0.217,1.043
		c0.371-0.126,0.539-0.217,0.763-0.406c0.057-0.042,0.126-0.07,0.168-0.07c0.063,0,0.183,0.028,0.267,0.063
		c0.07,0.028,0.119,0.091,0.119,0.154c0,0.098-0.063,0.154-0.315,0.273c-0.314,0.147-0.644,0.259-1.021,0.343
		c-0.008,0.098-0.008,0.098-0.021,0.35c-0.007,0.189-0.021,0.497-0.028,0.917c0.784-0.28,1.288-0.385,1.855-0.385
		c0.959,0,1.561,0.455,1.561,1.197c0,0.686-0.524,1.218-1.196,1.218c-0.645,0-1.106-0.427-1.352-1.239l0.105-0.035
		c0.168,0.322,0.272,0.469,0.42,0.609c0.196,0.182,0.413,0.266,0.665,0.266c0.511,0,0.875-0.399,0.875-0.959
		c0-0.539-0.364-0.833-1.036-0.833c-0.553,0-1.218,0.175-1.897,0.504c0,0.742,0,0.742,0.008,0.952
		c0.007,0.133,0.007,0.21,0.007,0.266c0,0.168-0.028,0.301-0.091,0.413c-0.084,0.161-0.218,0.259-0.336,0.259
		c-0.099,0-0.099,0-0.525-0.378c-0.147-0.119-0.35-0.259-0.469-0.315c-0.154-0.07-0.231-0.175-0.231-0.294
		c0-0.112,0.07-0.252,0.21-0.392c0.259-0.266,0.497-0.42,1.113-0.721c0.007-0.098,0.007-0.203,0.014-0.336
		c0.015-0.315,0.015-0.315,0.035-1.008c-0.217,0.035-0.378,0.049-0.546,0.049c-0.448,0-0.749-0.161-1.043-0.574L57.159,28.753z
		 M57.929,31.588c-0.14,0.147-0.21,0.259-0.21,0.336c0,0.07,0.091,0.147,0.28,0.217c0.153,0.063,0.343,0.112,0.434,0.112
		c0.084,0,0.119-0.049,0.126-0.175c0.035-0.63,0.049-0.973,0.049-1.015C58.279,31.267,58.104,31.399,57.929,31.588z M61.051,28.046
		c0.427,0.021,0.742,0.098,1.029,0.252c0.308,0.168,0.489,0.399,0.489,0.616c0,0.126-0.084,0.203-0.21,0.203
		c-0.014,0-0.049,0-0.104-0.014c-0.098-0.014-0.126-0.014-0.147-0.014c-0.104,0-0.272,0.035-0.86,0.189l-0.042-0.07
		c0.42-0.217,0.665-0.364,0.763-0.448c-0.112-0.196-0.224-0.308-0.441-0.434c-0.14-0.077-0.252-0.119-0.482-0.182L61.051,28.046z"/>
	<path d="M65.587,29.25c-0.49,0.168-0.729,0.259-0.91,0.364c-0.104,0.063-0.146,0.077-0.203,0.077c-0.077,0-0.217-0.091-0.308-0.21
		c-0.126-0.161-0.231-0.406-0.231-0.532c0-0.035,0.015-0.084,0.042-0.154c0.147,0.294,0.273,0.385,0.532,0.385
		c0.154,0,0.637-0.098,1.19-0.245c0.16-0.406,0.286-0.903,0.286-1.148c0-0.217-0.133-0.336-0.538-0.469
		c0.084-0.056,0.126-0.07,0.21-0.07c0.104,0,0.279,0.035,0.469,0.091c0.314,0.091,0.49,0.217,0.49,0.364
		c0,0.056-0.015,0.084-0.099,0.203c-0.098,0.147-0.245,0.462-0.448,0.952c0.309-0.07,0.441-0.084,0.609-0.084
		c0.603,0,0.889,0.357,0.889,1.092c0,0.896-0.356,2.058-0.763,2.513c-0.175,0.189-0.448,0.315-0.672,0.315
		c-0.119,0-0.175-0.049-0.189-0.161c-0.021-0.196-0.034-0.21-0.776-0.819l0.063-0.091c0.539,0.308,0.938,0.483,1.085,0.483
		c0.161,0,0.273-0.147,0.455-0.588c0.245-0.574,0.413-1.351,0.413-1.883c0-0.469-0.126-0.637-0.497-0.637
		c-0.21,0-0.336,0.028-0.734,0.147c-0.099,0.238-0.099,0.238-0.406,0.952c-0.028,0.07-0.168,0.399-0.413,0.98
		c-0.28,0.658-0.511,1.162-0.623,1.358c-0.049,0.091-0.104,0.133-0.168,0.133c-0.126,0-0.203-0.182-0.203-0.483
		c0-0.182,0.021-0.231,0.161-0.392c0.14-0.154,0.315-0.448,0.518-0.826c0.267-0.518,0.267-0.518,0.561-1.162L65.587,29.25z
		 M68.316,28.803c0.547,0.161,0.974,0.441,1.281,0.84c0.267,0.343,0.399,0.679,0.399,0.994c0,0.238-0.105,0.378-0.28,0.378
		c-0.056,0-0.091-0.007-0.161-0.049c-0.112-0.063-0.154-0.07-0.287-0.07c-0.245,0-0.279,0-0.875,0.063l-0.027-0.098
		c0.707-0.217,0.854-0.266,1.07-0.357c-0.027-0.238-0.091-0.434-0.217-0.672c-0.224-0.427-0.497-0.693-0.959-0.931L68.316,28.803z"
		/>
	<path d="M73.56,32.933c0.512-0.413,0.742-0.644,0.994-0.994s0.42-0.679,0.623-1.211c-0.609-0.322-1.211-0.476-2.009-0.511
		c-0.427,0.777-0.609,1.071-0.847,1.386c-0.26,0.322-0.477,0.483-0.673,0.483c-0.294,0-0.539-0.336-0.539-0.742
		c0-0.357,0.176-0.714,0.477-0.966c0.308-0.259,0.77-0.42,1.33-0.462c0.098-0.168,0.111-0.217,0.497-1.099
		c0.224-0.532,0.252-0.609,0.363-0.987c-0.168,0.042-0.65,0.196-1.008,0.322c-0.111,0.035-0.168,0.049-0.23,0.049
		c-0.217,0-0.441-0.343-0.441-0.679c0-0.07,0.014-0.105,0.077-0.161c0.14,0.322,0.266,0.427,0.525,0.427
		c0.182,0,0.398-0.035,0.741-0.119c0.183-0.049,0.21-0.063,0.309-0.147c0.042-0.049,0.084-0.063,0.146-0.063
		c0.154,0,0.504,0.371,0.504,0.546c0,0.056-0.027,0.105-0.104,0.161c-0.161,0.133-0.224,0.231-0.707,1.19
		c-0.189,0.378-0.217,0.434-0.287,0.567c0.707,0.035,1.316,0.154,2.009,0.399c0.119-0.364,0.231-0.903,0.231-1.127
		c0-0.189-0.099-0.315-0.364-0.483c0.049-0.035,0.077-0.042,0.126-0.042c0.119,0,0.28,0.056,0.49,0.161
		c0.224,0.112,0.329,0.224,0.329,0.35c0,0.07-0.007,0.105-0.063,0.245c-0.021,0.049-0.063,0.196-0.168,0.525
		c-0.035,0.126-0.063,0.21-0.161,0.532c0.84,0.42,1.064,0.623,1.064,0.994c0,0.14-0.07,0.252-0.161,0.252
		c-0.063,0-0.112-0.035-0.238-0.147c-0.224-0.224-0.455-0.406-0.833-0.658c-0.308,0.672-0.524,1.008-0.896,1.365
		c-0.315,0.301-0.603,0.504-1.05,0.721L73.56,32.933z M71.411,31.175c0,0.259,0.146,0.504,0.301,0.504
		c0.23,0,0.525-0.406,1.063-1.47C71.88,30.308,71.411,30.637,71.411,31.175z"/>
	<path d="M7.27,45.568c1.513-0.448,2.479-1.022,3.276-1.946c0.826-0.938,1.246-2.086,1.246-3.374c0-1.358-0.546-2.436-1.582-3.094
		c-0.616-0.406-1.54-0.644-2.422-0.644c-0.168,0-0.267,0-0.49,0.028c0.336,0.49,0.434,0.756,0.434,1.162
		c0,1.092-0.783,3.136-1.848,4.844c-0.882,1.4-1.568,2.086-2.086,2.086c-0.238,0-0.462-0.112-0.616-0.294
		c-0.126-0.168-0.154-0.224-0.392-0.896c-0.126-0.364-0.21-0.532-0.616-1.316c-0.224-0.448-0.322-0.826-0.322-1.274
		c0-0.882,0.477-1.918,1.261-2.772c1.134-1.204,2.981-1.96,4.815-1.96c1.414,0,2.716,0.462,3.612,1.288
		c0.896,0.826,1.344,1.932,1.344,3.29c0,1.75-1.022,3.304-2.786,4.242c-0.812,0.434-1.54,0.658-2.729,0.868L7.27,45.568z
		 M2.664,41.214c0,0.672,0.21,1.358,0.56,1.848c0.196,0.252,0.378,0.406,0.532,0.406c0.308,0,0.979-0.756,1.666-1.848
		C6.458,39.968,7.2,38.162,7.2,37.293c0-0.21-0.042-0.35-0.196-0.7C4.567,37.028,2.664,39.058,2.664,41.214z"/>
	<path d="M25.302,39.534h2.688c0.308-0.406,0.405-0.518,0.741-0.882c0.532,0.42,0.7,0.56,1.219,1.036
		c0.027,0.028,0.056,0.07,0.056,0.098c0,0.042-0.07,0.07-0.168,0.07h-4.536v2.562h3.906c0.363-0.434,0.476-0.56,0.854-0.952
		c0.546,0.462,0.7,0.616,1.218,1.106c0.028,0.028,0.042,0.07,0.042,0.084c0,0.042-0.069,0.084-0.14,0.084h-5.88v0.742
		c0,1.666,0.014,2.688,0.028,3.066c-0.028,0.112-0.057,0.14-0.168,0.168c-0.084,0.028-0.532,0.07-0.687,0.07
		c-0.153,0-0.21-0.042-0.21-0.168c0.028-0.994,0.042-2.016,0.042-3.136V42.74h-4.2c-0.476,0-1.05,0.028-1.414,0.07l-0.098-0.532
		c0.588,0.098,1.064,0.14,1.61,0.14h4.102v-2.562H21.27c-0.294,0-0.798,0.028-1.26,0.084l-0.084-0.518
		c0.532,0.084,0.91,0.112,1.4,0.112h2.981v-2.31H20.64c-0.322,0-0.77,0.028-1.26,0.098l-0.07-0.574
		c0.42,0.084,1.008,0.154,1.33,0.154h2.17c-0.153-0.14-0.153-0.154-0.294-0.56c-0.112-0.378-0.378-0.882-0.644-1.316
		c-0.154-0.224-0.294-0.378-0.603-0.686l0.126-0.168c0.672,0.336,1.064,0.602,1.568,1.05c0.392,0.364,0.56,0.616,0.56,0.868
		c0,0.266-0.153,0.574-0.392,0.812h2.604c0.841-1.316,1.051-1.736,1.387-2.73c1.273,0.392,1.554,0.504,1.554,0.658
		c0,0.154-0.14,0.196-0.686,0.196c-0.868,0.966-1.106,1.204-1.891,1.876h2.688c0.321-0.434,0.42-0.56,0.77-0.966
		c0.561,0.448,0.729,0.588,1.232,1.078c0.027,0.042,0.056,0.084,0.056,0.112c0,0.056-0.084,0.098-0.196,0.098h-5.348V39.534z"/>
	<path d="M40.324,34.774c0.42,0,1.077,0.126,1.414,0.266c0.279,0.112,0.392,0.252,0.392,0.448c0,0.014,0,0.028,0,0.028
		c0,0.112-0.014,0.112-0.112,0.364c-0.168,0.476-0.308,1.68-0.308,2.842c0,0.826,0.112,1.036,0.546,1.036
		c0.294,0,0.602-0.112,1.876-0.714c0.252-0.126,0.406-0.168,0.574-0.168c0.336,0,0.672,0.294,0.672,0.588
		c0,0.182-0.098,0.336-0.294,0.42c-0.099,0.042-0.294,0.112-0.938,0.294c-1.693,0.476-2.618,0.896-3.5,1.568
		c-0.756,0.588-1.092,1.134-1.092,1.792c0,1.008,0.798,1.526,2.353,1.526c0.867,0,2.239-0.168,3.247-0.406
		c0.141-0.028,0.196-0.042,0.28-0.042c0.364,0,0.756,0.35,0.756,0.686c0,0.252-0.153,0.378-0.602,0.462s-1.848,0.182-2.688,0.182
		c-1.021,0-1.792-0.112-2.38-0.322c-0.938-0.35-1.525-1.148-1.525-2.072c0-0.812,0.447-1.582,1.372-2.352
		c0.42-0.364,0.882-0.672,1.708-1.12c-0.309,0-0.435-0.042-0.673-0.21c-0.21-0.154-0.336-0.462-0.405-1.064
		c-0.042-0.336-0.057-0.644-0.099-1.694c-0.042-1.19-0.056-1.4-0.168-1.61c-0.153-0.266-0.42-0.406-1.008-0.504
		C39.932,34.816,40.044,34.774,40.324,34.774z"/>
	<path d="M57.109,45.399c0.154,0,0.28,0.014,0.364,0.014c0.742,0.042,0.742,0.042,1.4,0.042c0.434,0,0.546-0.042,0.644-0.238
		c0.252-0.532,0.42-1.974,0.42-3.598c0-0.588-0.027-1.148-0.084-1.638c-0.308,0.476-0.434,0.644-0.77,1.05
		c-0.771,0.91-1.316,1.414-2.227,2.086l-0.153-0.14c0.77-0.798,1.315-1.498,2.212-2.884c0.28-0.434,0.406-0.658,0.742-1.33
		c-0.141-0.574-0.252-0.91-0.477-1.456c-0.56,0.518-0.63,0.56-2.324,1.68l-0.126-0.168c1.078-0.882,1.555-1.33,2.198-2.1
		c-0.35-0.714-0.644-1.162-1.218-1.932l0.154-0.154c0.63,0.602,0.993,1.05,1.399,1.666c0.784-1.008,1.218-1.68,1.414-2.184
		c0.238,0.112,0.435,0.196,0.546,0.238c0.672,0.294,0.798,0.364,0.798,0.462c0,0.098-0.111,0.14-0.336,0.14
		c-0.014,0-0.195-0.014-0.321-0.014c-0.673,0.84-1.162,1.386-1.75,1.96c0.812,1.54,1.203,3.248,1.203,5.348
		c0,1.218-0.111,2.31-0.308,3.024c-0.126,0.42-0.364,0.812-0.644,1.008c-0.238,0.168-0.49,0.266-1.078,0.378
		c-0.042-0.364-0.112-0.532-0.322-0.686c-0.21-0.168-0.49-0.238-1.372-0.35L57.109,45.399z M65.062,40.654
		c0.448,1.246,0.645,1.666,1.106,2.324c1.036-0.756,1.54-1.218,1.974-1.82c0.378,0.252,0.378,0.252,1.036,0.658
		c0.126,0.084,0.196,0.154,0.196,0.196c0,0.07-0.084,0.126-0.168,0.126c-0.015,0-0.015,0-0.028,0
		c-0.098-0.014-0.252-0.028-0.532-0.042c-0.882,0.476-0.882,0.476-2.323,1.092c0.42,0.518,0.756,0.826,1.357,1.232
		c0.49,0.35,1.106,0.672,1.526,0.826c0.252,0.098,0.434,0.14,0.896,0.21v0.21c-0.546,0.168-0.686,0.294-0.952,0.868
		c-1.008-0.546-1.567-0.966-2.268-1.722c-0.84-0.896-1.456-1.96-1.848-3.206c-0.084-0.252-0.126-0.42-0.267-0.952h-1.68v4.41
		c1.386-0.308,2.1-0.49,2.842-0.728l0.084,0.21c-0.882,0.448-2.618,1.204-4.144,1.806c-0.015,0.098-0.028,0.196-0.042,0.252
		c-0.028,0.21-0.099,0.322-0.168,0.322c-0.015,0-0.015,0-0.015,0c-0.069-0.014-0.14-0.084-0.195-0.21
		c-0.028-0.07-0.084-0.238-0.154-0.504c-0.084-0.308-0.154-0.574-0.224-0.812c0.504-0.07,0.714-0.098,1.105-0.168v-8.274
		c-0.014-0.28-0.014-0.532-0.014-0.784c-0.015-0.364-0.015-0.378-0.028-0.672c0.49,0.238,0.63,0.322,1.064,0.63h1.498v-1.414
		c0-0.056,0-0.182-0.015-0.364c-0.014-0.084-0.014-0.21-0.027-0.378c1.497,0.168,1.666,0.196,1.666,0.35
		c0,0.126-0.085,0.168-0.658,0.322v1.484h1.764c0.238-0.266,0.308-0.35,0.546-0.602c0.336,0.266,0.448,0.336,0.784,0.588
		c0.112,0.07,0.154,0.14,0.154,0.21c0,0.112-0.084,0.182-0.462,0.378c-0.015,0.42-0.015,0.714-0.015,0.952
		c0,1.204,0.028,2.562,0.057,3.164c-0.028,0.112-0.057,0.168-0.141,0.182c-0.153,0.042-0.42,0.084-0.602,0.084
		c-0.141,0-0.196-0.042-0.225-0.182v-0.252H65.062z M67.525,38.176v-1.722h-4.438v1.722H67.525z M63.088,38.498v1.834h4.438v-1.834
		H63.088z"/>
	<path d="M80.378,36.566c0.336,0.504,0.56,0.742,0.966,1.008c0.49,0.308,0.91,0.462,1.638,0.602
		c0.393-1.946,0.435-2.156,0.435-2.492c0-0.476-0.196-0.77-0.756-1.162c0.111-0.042,0.153-0.056,0.237-0.056
		c0.252,0,0.616,0.154,1.036,0.434c0.448,0.308,0.729,0.7,0.729,1.008c0,0.126-0.042,0.238-0.183,0.406
		c-0.237,0.336-0.392,0.714-0.77,1.946c0.294,0.084,0.42,0.154,0.56,0.308c0.112,0.126,0.196,0.322,0.196,0.462
		c0,0.182-0.168,0.294-0.448,0.294c-0.14,0-0.321-0.028-0.546-0.07c-0.28,0.938-0.448,1.764-0.56,2.59
		c0.336,0.07,0.573,0.098,0.714,0.098c0.042,0,0.07,0,0.112-0.014c0.084-0.014,0.14-0.014,0.153-0.014
		c0.364,0,0.84,0.434,0.84,0.756c0,0.196-0.182,0.322-0.476,0.322c-0.392,0-0.98-0.098-1.484-0.252
		c-0.027,0.336-0.042,0.504-0.042,0.686c0,1.428,0.798,2.226,2.212,2.226c0.952,0,1.778-0.364,2.212-0.952
		c0.309-0.42,0.463-0.896,0.463-1.428c0-1.162-0.784-2.478-2.114-3.5l0.154-0.182c2.071,1.274,2.953,2.436,2.953,3.864
		c0,1.694-1.456,2.982-3.401,2.982c-0.729,0-1.428-0.21-1.904-0.574c-0.728-0.546-1.078-1.386-1.078-2.604
		c0-0.168,0.015-0.35,0.028-0.7c-0.546-0.252-0.826-0.42-1.12-0.714c-0.378-0.392-0.616-0.91-0.616-1.386
		c0-0.322,0.154-0.672,0.435-0.966c0.336-0.336,0.686-0.532,1.357-0.742c-0.56-0.21-0.952-0.462-1.357-0.868
		c-0.294-0.308-0.462-0.588-0.729-1.232L80.378,36.566z M81.204,39.688c-0.21,0.224-0.309,0.434-0.309,0.7
		c0,0.588,0.477,1.022,1.442,1.316c0.07-0.7,0.196-1.498,0.42-2.548C81.946,39.198,81.54,39.352,81.204,39.688z"/>
</g>
<rect x="0.25" y="7.25" fill="none" stroke="#008CD6" stroke-width="0.5" width="14" height="14"/>
<rect x="17.75" y="7.25" fill="none" stroke="#008CD6" stroke-width="0.5" width="14" height="14"/>
<rect x="35.25" y="7.25" fill="none" stroke="#008CD6" stroke-width="0.5" width="14" height="14"/>
<rect x="56.25" y="7.25" fill="none" stroke="#008CD6" stroke-width="0.5" width="14" height="14"/>
<rect x="77.25" y="7.25" fill="none" stroke="#008CD6" stroke-width="0.5" width="14" height="14"/>
<g>
	<line fill="none" stroke="#008CD6" stroke-width="0.5" x1="14.25" y1="7.25" x2="14.25" y2="0.25"/>
	<line fill="none" stroke="#008CD6" stroke-width="0.5" x1="21.25" y1="0.25" x2="21.25" y2="7.25"/>
	<line fill="none" stroke="#000000" stroke-width="0.1768" x1="17.75" y1="7.25" x2="14.25" y2="7.25"/>
	<line fill="none" stroke="#008CD6" stroke-width="0.5" x1="28.25" y1="7.25" x2="28.25" y2="0.25"/>
	<polyline fill="none" stroke="#008CD6" stroke-width="0.5" points="14.25,7.25 14.25,0.25 35.249,0.25 35.249,7.25 	"/>
	<line fill="none" stroke="#000000" stroke-width="0.1768" x1="35.249" y1="7.25" x2="31.749" y2="7.25"/>
</g>
<g>
	<line fill="none" stroke="#008CD6" stroke-width="0.5" x1="49.25" y1="7.25" x2="49.25" y2="0.25"/>
	<line fill="none" stroke="#008CD6" stroke-width="0.5" x1="63.25" y1="7.25" x2="63.25" y2="0.25"/>
	<polyline fill="none" stroke="#000000" stroke-width="0.2887" points="56.25,0.25 56.25,7.25 49.25,7.25 49.25,0.25 77.25,0.25 
		77.25,7.25 70.25,7.25 70.25,0.25 	"/>
</g>
</svg>
