<?xml version="1.0" encoding="utf-8"?>
<!-- Generator: Adobe Illustrator 12.0.0, SVG Export Plug-In . SVG Version: 6.00 Build 51448)  -->
<!DOCTYPE svg PUBLIC "-//W3C//DTD SVG 1.1//EN" "http://www.w3.org/Graphics/SVG/1.1/DTD/svg11.dtd" [
	<!ENTITY ns_svg "http://www.w3.org/2000/svg">
	<!ENTITY ns_xlink "http://www.w3.org/1999/xlink">
]>
<svg  version="1.1" id="レイヤー_1" xmlns="&ns_svg;" xmlns:xlink="&ns_xlink;" width="124.521"
	 viewBox="0 0 83.014 109.387" overflow="visible" enable-background="new 0 0 83.014 109.387" xml:space="preserve">
<g>
	<path d="M3.27,20.008c0.645-0.161,1.106-0.336,1.547-0.588c0.819-0.462,1.288-1.148,1.288-1.883c0-0.7-0.518-1.176-1.281-1.176
		c-0.818,0-1.89,0.448-2.813,1.169c-0.112,0.091-0.182,0.119-0.266,0.119c-0.329,0-0.841-0.49-0.841-0.805
		c0-0.049,0.015-0.091,0.057-0.175c0.069,0.147,0.111,0.196,0.195,0.259c0.105,0.077,0.189,0.112,0.287,0.112
		c0.183,0,0.448-0.077,0.848-0.252c1.105-0.483,1.834-0.672,2.562-0.672c1.064,0,1.792,0.623,1.792,1.54
		c0,0.868-0.588,1.617-1.609,2.051c-0.532,0.224-1.043,0.343-1.729,0.406L3.27,20.008z"/>
	<path d="M9.374,17.95c-0.399,1.393-0.512,1.904-0.512,2.331c-0.007,0.196-0.056,0.287-0.168,0.287
		c-0.118,0-0.224-0.091-0.286-0.245c-0.154-0.364-0.253-0.973-0.253-1.589c0-0.28,0.021-0.616,0.063-0.91
		c0.049-0.406,0.049-0.406,0.294-1.442c0.07-0.308,0.105-0.532,0.105-0.672c0-0.168-0.07-0.343-0.21-0.546
		c0.153,0.007,0.244,0.07,0.412,0.273c0.196,0.231,0.315,0.483,0.315,0.672c0,0.098-0.014,0.14-0.105,0.308
		c-0.35,0.658-0.56,1.491-0.56,2.254c0,0.35,0.028,0.56,0.119,0.938l0.665-1.715L9.374,17.95z M10.192,15.738
		c0.238,0.098,0.435,0.133,0.749,0.133c0.554,0,1.162-0.133,1.562-0.343c0.049-0.028,0.104-0.049,0.126-0.049
		c0.168,0,0.392,0.14,0.392,0.245c0,0.07-0.069,0.133-0.23,0.182c-0.231,0.077-0.512,0.14-0.819,0.182
		c0.21,0.168,0.273,0.245,0.273,0.343c0,0.028-0.008,0.063-0.015,0.112c-0.021,0.126-0.027,0.224-0.042,0.84
		c0.267-0.098,0.364-0.154,0.567-0.336c0.027-0.021,0.07-0.049,0.091-0.049c0.028,0,0.119,0.028,0.168,0.049
		c0.091,0.056,0.147,0.119,0.147,0.182s-0.05,0.14-0.134,0.196c-0.217,0.147-0.504,0.259-0.84,0.343
		c0.015,0.448,0.035,0.84,0.084,1.372c0.861,0.252,1.218,0.525,1.218,0.931c0,0.133-0.063,0.231-0.153,0.231
		c-0.057,0-0.105-0.028-0.183-0.105c-0.35-0.371-0.489-0.469-0.86-0.63c0,0.287-0.021,0.378-0.084,0.518
		c-0.141,0.273-0.512,0.427-1.029,0.427c-0.644,0-1.071-0.273-1.071-0.686c0-0.476,0.532-0.798,1.316-0.798
		c0.133,0,0.245,0.007,0.441,0.035v-0.784c0-0.021,0-0.266,0-0.455c-0.225,0.021-0.344,0.028-0.497,0.028
		c-0.386,0-0.665-0.077-0.854-0.238c-0.161-0.133-0.23-0.273-0.259-0.532l0.098-0.021c0.063,0.217,0.141,0.315,0.301,0.399
		c0.112,0.056,0.344,0.091,0.561,0.091c0.203,0,0.44-0.028,0.651-0.07c0-0.14,0.007-0.861,0.007-0.938
		c0-0.238-0.021-0.315-0.105-0.434c-0.217,0.014-0.322,0.021-0.469,0.021c-0.469,0-0.84-0.098-1.162-0.294L10.192,15.738z
		 M11.18,19.329c-0.532,0-0.896,0.203-0.896,0.49c0,0.238,0.266,0.385,0.686,0.385c0.371,0,0.644-0.098,0.77-0.273
		c0.057-0.077,0.092-0.182,0.105-0.308c0.007-0.042,0.014-0.168,0.014-0.203v-0.007C11.648,19.357,11.425,19.329,11.18,19.329z
		 M12.733,14.786c0.267,0.126,0.477,0.259,0.687,0.427c0.195,0.154,0.287,0.308,0.287,0.476c0,0.175-0.084,0.336-0.183,0.336
		c-0.042,0-0.077-0.028-0.119-0.07c-0.014-0.021-0.014-0.021-0.146-0.315c-0.119-0.252-0.336-0.539-0.588-0.777L12.733,14.786z
		 M13.343,14.52c0.266,0.098,0.469,0.21,0.686,0.357c0.225,0.161,0.309,0.28,0.309,0.448c0,0.196-0.07,0.336-0.175,0.336
		c-0.063,0-0.112-0.049-0.168-0.161c-0.176-0.385-0.399-0.672-0.707-0.91L13.343,14.52z"/>
	<path d="M17.563,20.715c0.512-0.413,0.742-0.644,0.994-0.994s0.42-0.679,0.623-1.211c-0.609-0.322-1.211-0.476-2.009-0.511
		c-0.427,0.777-0.609,1.071-0.847,1.386c-0.26,0.322-0.477,0.483-0.673,0.483c-0.294,0-0.539-0.336-0.539-0.742
		c0-0.357,0.176-0.714,0.477-0.966c0.308-0.259,0.77-0.42,1.33-0.462c0.098-0.168,0.111-0.217,0.497-1.099
		c0.224-0.532,0.252-0.609,0.363-0.987c-0.168,0.042-0.65,0.196-1.008,0.322c-0.111,0.035-0.168,0.049-0.23,0.049
		c-0.217,0-0.441-0.343-0.441-0.679c0-0.07,0.014-0.105,0.077-0.161c0.14,0.322,0.266,0.427,0.525,0.427
		c0.182,0,0.398-0.035,0.741-0.119c0.183-0.049,0.21-0.063,0.309-0.147c0.042-0.049,0.084-0.063,0.146-0.063
		c0.154,0,0.504,0.371,0.504,0.546c0,0.056-0.027,0.105-0.104,0.161c-0.161,0.133-0.224,0.231-0.707,1.19
		c-0.189,0.378-0.217,0.434-0.287,0.567c0.707,0.035,1.316,0.154,2.009,0.399c0.119-0.364,0.231-0.903,0.231-1.127
		c0-0.189-0.099-0.315-0.364-0.483c0.049-0.035,0.077-0.042,0.126-0.042c0.119,0,0.28,0.056,0.49,0.161
		c0.224,0.112,0.329,0.224,0.329,0.35c0,0.07-0.007,0.105-0.063,0.245c-0.021,0.049-0.063,0.196-0.168,0.525
		c-0.035,0.126-0.063,0.21-0.161,0.532c0.84,0.42,1.064,0.623,1.064,0.994c0,0.14-0.07,0.252-0.161,0.252
		c-0.063,0-0.112-0.035-0.238-0.147c-0.224-0.224-0.455-0.406-0.833-0.658c-0.308,0.672-0.524,1.008-0.896,1.365
		c-0.315,0.301-0.603,0.504-1.05,0.721L17.563,20.715z M15.415,18.958c0,0.259,0.146,0.504,0.301,0.504
		c0.23,0,0.525-0.406,1.063-1.47C15.884,18.09,15.415,18.419,15.415,18.958z"/>
	<path d="M10.368,25.93v-1.008H7.483c-0.518,0-0.63,0.014-0.979,0.084l-0.126-0.518c0.504,0.112,0.56,0.112,1.105,0.112h6.44
		c0.35-0.35,0.448-0.448,0.756-0.798c0.476,0.364,0.616,0.476,1.05,0.84c0.099,0.084,0.126,0.14,0.126,0.182
		c0,0.07-0.056,0.098-0.153,0.098H11.25v1.008h4.508c0.308-0.252,0.392-0.336,0.672-0.602c0.42,0.35,0.546,0.448,0.952,0.784
		c0.14,0.112,0.168,0.154,0.168,0.196c0,0.14-0.225,0.196-0.84,0.196c-0.406,0.448-0.561,0.588-1.064,0.98l-0.098-0.112
		c0.042-0.182,0.042-0.182,0.168-0.532c0.098-0.266,0.098-0.266,0.154-0.588h-4.62v0.77c0,1.568,0,1.568,0.014,2.212
		c0,0.028,0,0.042,0,0.056c0,0.07-0.028,0.098-0.098,0.126c-0.154,0.042-0.462,0.084-0.63,0.084c-0.126,0-0.183-0.042-0.183-0.126
		c0.015-0.756,0.015-0.756,0.015-2.268v-0.854H6.069c-0.042,0.784-0.098,1.078-0.279,1.498c-0.183,0.434-0.546,0.812-0.784,0.812
		c-0.183,0-0.364-0.364-0.364-0.7c0-0.196,0.07-0.28,0.378-0.504c0.294-0.21,0.435-0.42,0.588-0.84
		c0.141-0.364,0.183-0.616,0.21-1.12h0.28c0,0.28,0,0.308-0.014,0.532H10.368z M12.328,23.061c0.014-0.14,0.014-0.21,0.014-0.266
		c0-0.546-0.014-0.77-0.028-0.966c1.19,0.098,1.19,0.098,1.302,0.14c0.042,0.028,0.084,0.07,0.084,0.112
		c0,0.098-0.14,0.182-0.531,0.294c0,0.35,0,0.406,0,0.686h1.693c0.393-0.42,0.519-0.546,0.883-0.924
		c0.588,0.42,0.756,0.546,1.329,0.994c0.07,0.07,0.099,0.126,0.099,0.154c0,0.056-0.057,0.098-0.141,0.098h-3.863
		c0,0.238,0,0.336,0.014,0.616c0,0.14-0.07,0.154-0.56,0.154c-0.267,0-0.309-0.014-0.309-0.14c0.015-0.308,0.015-0.434,0.015-0.63
		H9.332c0,0.224,0,0.322,0.014,0.616c0,0.098-0.028,0.14-0.112,0.154c-0.056,0.014-0.405,0.042-0.518,0.042
		c-0.182,0-0.238-0.042-0.238-0.182c0.015-0.322,0.015-0.406,0.015-0.63H5.817c-0.489,0-0.644,0.014-0.924,0.07l-0.111-0.504
		c0.476,0.098,0.588,0.112,1.035,0.112h2.675c0-0.798-0.015-0.966-0.042-1.288c1.26,0.112,1.399,0.14,1.399,0.308
		c0,0.112-0.126,0.182-0.518,0.266c0,0.336,0,0.336,0,0.714H12.328z M8.618,28.563c0.252-0.238,0.336-0.308,0.573-0.546
		c0.364,0.28,0.477,0.364,0.813,0.658c0.042,0.042,0.084,0.098,0.084,0.126c0,0.042-0.057,0.084-0.112,0.084h-2.87
		c-0.476,0-0.532,0-0.798,0.07l-0.14-0.476c0.448,0.084,0.518,0.084,0.938,0.084H8.618z M14.357,30.032
		c0.238-0.28,0.309-0.364,0.532-0.616c0.392,0.224,0.504,0.294,0.868,0.518c0.126,0.084,0.168,0.14,0.168,0.21
		c0,0.112-0.042,0.154-0.532,0.448c-0.014,0.686-0.014,1.19-0.014,1.54c0,0.826,0.014,1.316,0.042,2.31l0.014,0.028
		c0,0.056-0.014,0.07-0.042,0.084c-0.098,0.042-0.392,0.084-0.63,0.084s-0.294-0.028-0.294-0.14V33.98H7.302v0.518
		c0,0.182-0.07,0.21-0.518,0.21c-0.393,0-0.448-0.014-0.448-0.126c0.056-1.148,0.069-1.596,0.069-3.164c0-0.924,0-0.938-0.056-1.946
		c0.477,0.224,0.63,0.294,1.134,0.56H14.357z M8.632,27.232c0.252-0.238,0.336-0.322,0.56-0.532
		c0.393,0.294,0.504,0.392,0.868,0.686c0.042,0.056,0.056,0.084,0.056,0.112c0,0.042-0.042,0.056-0.14,0.056H7.218
		c-0.35,0-0.42,0.014-0.714,0.084L6.35,27.134c0.351,0.084,0.477,0.098,0.868,0.098H8.632z M10.368,31.74v-1.386H7.302v1.386H10.368
		z M7.302,33.658h3.066v-1.596H7.302V33.658z M14.47,30.354h-3.22v1.386h3.22V30.354z M11.25,32.063v1.596h3.22v-1.596H11.25z
		 M14.483,26.645c0.393,0.322,0.504,0.42,0.868,0.742c0.042,0.042,0.056,0.07,0.056,0.084c0,0.042-0.069,0.084-0.14,0.084h-2.813
		c-0.351,0-0.448,0.014-0.7,0.07l-0.126-0.49c0.434,0.084,0.49,0.098,0.826,0.098h1.456L14.483,26.645z M14.134,28.563
		c0.238-0.294,0.308-0.378,0.546-0.616c0.434,0.308,0.56,0.42,0.966,0.756c0.042,0.042,0.057,0.084,0.057,0.112
		c0,0.042-0.057,0.07-0.112,0.07h-2.996c-0.42,0-0.476,0-0.84,0.07l-0.126-0.504c0.504,0.112,0.546,0.112,0.966,0.112H14.134z"/>
	<path d="M25.81,28.479c-0.028,0.126-0.238,1.008-0.63,2.632c-0.196,0.826-0.238,1.05-0.238,1.484c0,0.406-0.014,0.518-0.042,0.602
		c-0.056,0.154-0.182,0.238-0.336,0.238c-0.237,0-0.447-0.196-0.602-0.574c-0.309-0.728-0.49-1.862-0.49-2.982
		c0-0.42,0.042-0.938,0.112-1.498c0.098-0.812,0.098-0.812,0.489-2.646c0.141-0.658,0.196-1.008,0.196-1.302
		c0-0.462-0.111-0.812-0.392-1.316c0.308,0.014,0.56,0.196,0.938,0.686c0.351,0.434,0.519,0.798,0.519,1.106
		c0,0.224-0.015,0.28-0.294,0.84c-0.28,0.588-0.616,1.568-0.756,2.226c-0.126,0.532-0.183,1.134-0.183,1.736
		c0,0.77,0.07,1.26,0.267,1.848c0.237-0.49,0.35-0.77,0.504-1.19l0.741-1.96L25.81,28.479z M27.573,29.178
		c-0.027,0.28-0.042,0.406-0.042,0.588c0,1.54,0.883,2.17,3.053,2.17c0.405,0,0.812-0.028,1.189-0.098
		c0.294-0.042,0.294-0.042,0.742-0.224c0.084-0.028,0.154-0.042,0.21-0.042c0.364,0,0.882,0.49,0.882,0.826
		c0,0.168-0.111,0.28-0.308,0.35c-0.294,0.098-0.966,0.154-1.75,0.154c-1.75,0-2.996-0.294-3.626-0.854
		c-0.504-0.462-0.756-1.05-0.756-1.82c0-0.35,0.042-0.658,0.168-1.106L27.573,29.178z M27.546,24.727
		c0.49,0.294,0.798,0.378,1.302,0.378c0.868,0,2.226-0.308,2.814-0.63c0.182-0.098,0.21-0.112,0.308-0.112
		c0.112,0,0.294,0.07,0.49,0.196c0.294,0.168,0.434,0.336,0.434,0.518c0,0.182-0.098,0.266-0.392,0.322
		c-0.924,0.14-1.442,0.266-1.988,0.49c-0.434,0.182-1.246,0.63-1.806,0.994l-0.141-0.14c0.63-0.532,1.106-0.924,1.33-1.092
		c-0.294,0.014-0.447,0.028-0.574,0.028c-0.783,0-1.302-0.21-1.903-0.784L27.546,24.727z"/>
	<path d="M39.852,28.479c-0.252,0.882-0.644,2.408-0.812,3.094c-0.141,0.616-0.183,0.84-0.183,1.19
		c-0.014,0.448-0.027,0.504-0.098,0.616c-0.07,0.098-0.154,0.154-0.266,0.154c-0.238,0-0.435-0.196-0.603-0.63
		c-0.28-0.714-0.448-1.778-0.448-2.814c0-1.288,0.154-2.464,0.63-4.662c0.183-0.868,0.211-1.022,0.211-1.26
		c0-0.42-0.112-0.756-0.406-1.232c0.322,0.014,0.588,0.196,0.979,0.7c0.322,0.406,0.504,0.798,0.504,1.064
		c0,0.154,0,0.154-0.224,0.616c-0.672,1.4-1.064,3.066-1.064,4.564c0,0.714,0.057,1.162,0.225,1.736l0.588-1.4l0.756-1.806
		L39.852,28.479z M41.252,25.944c0.672,0.434,1.105,0.574,1.806,0.574c0.49,0,1.022-0.07,1.596-0.196c0-0.266,0-0.49,0-0.616
		c0-1.568-0.014-1.75-0.195-1.946c-0.168-0.182-0.477-0.28-0.924-0.322c0.195-0.182,0.308-0.224,0.672-0.224
		c0.308,0,0.686,0.056,0.951,0.126c0.406,0.126,0.616,0.294,0.616,0.504c0,0.098,0,0.112-0.126,0.434
		c-0.153,0.406-0.237,0.91-0.294,1.876c0.645-0.182,1.05-0.364,1.288-0.574c0.14-0.14,0.182-0.154,0.308-0.154
		c0.169,0,0.49,0.084,0.658,0.182c0.112,0.056,0.183,0.154,0.183,0.252c0,0.308-1.022,0.728-2.479,1.008
		c0,1.862,0.042,2.632,0.183,3.808c1.624,0.434,2.31,0.98,2.31,1.792c0,0.294-0.126,0.518-0.28,0.518c-0.111,0-0.21-0.07-0.489-0.35
		c-0.616-0.63-0.967-0.882-1.513-1.12c0.015,0.126,0.015,0.238,0.015,0.336c0,1.008-0.841,1.61-2.24,1.61
		c-1.218,0-2.072-0.588-2.072-1.428c0-0.966,1.036-1.582,2.632-1.582c0.267,0,0.462,0.014,0.854,0.042c0-0.126,0-0.21,0-0.238
		l-0.028-1.498l-0.014-1.792c-0.42,0.084-0.826,0.112-1.232,0.112c-1.021,0-1.609-0.252-2.31-0.98L41.252,25.944z M43.394,31.054
		c-1.105,0-1.792,0.364-1.792,0.98c0,0.49,0.546,0.826,1.372,0.826c0.771,0,1.316-0.224,1.54-0.658
		c0.14-0.252,0.182-0.462,0.182-0.98C44.304,31.11,43.912,31.054,43.394,31.054z"/>
	<path d="M52.676,28.311c0,0.532-0.42,0.952-0.952,0.952c-0.518,0-0.952-0.434-0.952-0.952s0.435-0.952,0.952-0.952
		C52.256,27.358,52.676,27.778,52.676,28.311z M57.338,28.311c0,0.532-0.42,0.952-0.952,0.952c-0.518,0-0.952-0.434-0.952-0.952
		s0.435-0.952,0.952-0.952C56.918,27.358,57.338,27.778,57.338,28.311z M62.014,28.311c0,0.532-0.42,0.952-0.952,0.952
		c-0.518,0-0.952-0.434-0.952-0.952s0.435-0.952,0.952-0.952C61.594,27.358,62.014,27.778,62.014,28.311z"/>
	<path d="M66.676,28.311c0,0.532-0.42,0.952-0.952,0.952c-0.518,0-0.952-0.434-0.952-0.952s0.435-0.952,0.952-0.952
		C66.256,27.358,66.676,27.778,66.676,28.311z M71.338,28.311c0,0.532-0.42,0.952-0.952,0.952c-0.518,0-0.952-0.434-0.952-0.952
		s0.435-0.952,0.952-0.952C70.918,27.358,71.338,27.778,71.338,28.311z M76.014,28.311c0,0.532-0.42,0.952-0.952,0.952
		c-0.518,0-0.952-0.434-0.952-0.952s0.435-0.952,0.952-0.952C75.594,27.358,76.014,27.778,76.014,28.311z"/>
	<path d="M10.731,44.592c0.351-0.434,0.448-0.56,0.798-0.938c0.574,0.462,0.757,0.616,1.33,1.092
		c0.028,0.042,0.042,0.084,0.042,0.098c0,0.056-0.042,0.07-0.14,0.07H7.218c-0.168,0.588-0.308,0.98-0.546,1.526h3.598
		c0.322-0.392,0.42-0.518,0.742-0.896c0.56,0.448,0.728,0.588,1.288,1.05c0.028,0.042,0.056,0.07,0.056,0.098
		s-0.069,0.07-0.126,0.07H8.548c0.434,0.854,0.588,1.092,1.021,1.61h2.114c0.364-0.434,0.477-0.574,0.813-0.966
		c0.588,0.462,0.756,0.616,1.315,1.106c0.028,0.042,0.057,0.084,0.057,0.112c0,0.042-0.057,0.07-0.127,0.07H9.863
		c0.351,0.364,0.603,0.588,1.009,0.868c1.077,0.784,1.848,1.134,3.206,1.442l-0.015,0.266c-0.574,0.07-0.686,0.14-1.12,0.798
		c-1.189-0.644-1.861-1.19-2.842-2.296c-0.322-0.364-0.574-0.672-0.854-1.078H5.426c-0.28,0.406-0.546,0.742-0.91,1.148
		c0.322,0.182,0.392,0.224,0.771,0.448h4.172c0.153-0.182,0.153-0.182,0.308-0.364c0.364,0.294,0.476,0.378,0.826,0.686
		c0.042,0.042,0.07,0.084,0.07,0.112c0,0.056-0.028,0.084-0.196,0.238c0,1.792,0.042,3.444,0.112,4.508
		c0,0.112-0.028,0.14-0.112,0.168c-0.112,0.042-0.477,0.07-0.742,0.07c-0.126,0-0.168-0.028-0.168-0.154v-0.518H5.174v0.434
		c-0.014,0.112-0.042,0.168-0.126,0.196c-0.084,0.028-0.462,0.07-0.687,0.07c-0.126,0-0.168-0.042-0.168-0.14
		c0.057-2.254,0.07-3.122,0.07-3.878c0-0.532,0-0.532-0.028-1.554c-1.077,1.12-1.876,1.708-3.374,2.464L0.75,52.432
		c1.609-1.162,2.729-2.268,3.752-3.738H2.107c-0.546,0-0.741,0.014-1.078,0.07L0.945,48.26c0.49,0.098,0.645,0.112,1.4,0.112h2.366
		c0.364-0.56,0.588-0.994,0.868-1.61H3.368c-0.393,0-0.561,0.014-0.938,0.056l-0.084-0.476c0.42,0.084,0.616,0.098,1.218,0.098H5.72
		c0.21-0.532,0.322-0.868,0.49-1.526H3.073c-0.336,0-0.714,0.028-1.105,0.07L1.87,44.466c0.518,0.112,0.741,0.126,1.372,0.126h3.052
		c0.168-0.714,0.21-1.064,0.252-1.736c1.554,0.266,1.651,0.28,1.651,0.434c0,0.126-0.084,0.168-0.657,0.322
		c-0.112,0.476-0.168,0.7-0.238,0.98H10.731z M9.556,50.612H5.174v1.764h4.382V50.612z M5.174,52.698v2.016h4.382v-2.016H5.174z
		 M6.531,46.762c-0.294,0.63-0.518,1.036-0.882,1.61h3.374c-0.308-0.504-0.434-0.756-0.77-1.61H6.531z"/>
	<path d="M18.81,49.479c-0.028,0.126-0.238,1.008-0.63,2.632c-0.196,0.826-0.238,1.05-0.238,1.484c0,0.406-0.014,0.518-0.042,0.602
		c-0.056,0.154-0.182,0.238-0.336,0.238c-0.237,0-0.447-0.196-0.602-0.574c-0.309-0.728-0.49-1.862-0.49-2.982
		c0-0.42,0.042-0.938,0.112-1.498c0.098-0.812,0.098-0.812,0.489-2.646c0.141-0.658,0.196-1.008,0.196-1.302
		c0-0.462-0.111-0.812-0.392-1.316c0.308,0.014,0.56,0.196,0.938,0.686c0.351,0.434,0.519,0.798,0.519,1.106
		c0,0.224-0.015,0.28-0.294,0.84c-0.28,0.588-0.616,1.568-0.756,2.226c-0.126,0.532-0.183,1.134-0.183,1.736
		c0,0.77,0.07,1.26,0.267,1.848c0.237-0.49,0.35-0.77,0.504-1.19l0.741-1.96L18.81,49.479z M20.573,50.178
		c-0.027,0.28-0.042,0.406-0.042,0.588c0,1.54,0.883,2.17,3.053,2.17c0.405,0,0.812-0.028,1.189-0.098
		c0.294-0.042,0.294-0.042,0.742-0.224c0.084-0.028,0.154-0.042,0.21-0.042c0.364,0,0.882,0.49,0.882,0.826
		c0,0.168-0.111,0.28-0.308,0.35c-0.294,0.098-0.966,0.154-1.75,0.154c-1.75,0-2.996-0.294-3.626-0.854
		c-0.504-0.462-0.756-1.05-0.756-1.82c0-0.35,0.042-0.658,0.168-1.106L20.573,50.178z M20.546,45.727
		c0.49,0.294,0.798,0.378,1.302,0.378c0.868,0,2.226-0.308,2.814-0.63c0.182-0.098,0.21-0.112,0.308-0.112
		c0.112,0,0.294,0.07,0.49,0.196c0.294,0.168,0.434,0.336,0.434,0.518c0,0.182-0.098,0.266-0.392,0.322
		c-0.924,0.14-1.442,0.266-1.988,0.49c-0.434,0.182-1.246,0.63-1.806,0.994l-0.141-0.14c0.63-0.532,1.106-0.924,1.33-1.092
		c-0.294,0.014-0.447,0.028-0.574,0.028c-0.783,0-1.302-0.21-1.903-0.784L20.546,45.727z"/>
	<path d="M30.178,45.824c0.672,0.63,1.064,0.812,1.764,0.812c0.364,0,0.742-0.056,1.274-0.168c0.35-0.91,0.504-1.498,0.504-1.988
		c0-0.462-0.224-0.742-0.896-1.078c0.154-0.084,0.225-0.098,0.337-0.098c0.279,0,0.714,0.126,1.119,0.322
		c0.477,0.238,0.658,0.392,0.658,0.588c0,0.112-0.027,0.196-0.14,0.364c-0.056,0.112-0.351,0.686-0.854,1.722
		c1.036-0.364,1.162-0.434,1.555-0.77c0.111-0.098,0.153-0.112,0.294-0.112c0.546,0,0.952,0.182,0.952,0.42
		c0,0.364-0.868,0.714-3.095,1.232c-0.126,0.28-0.363,0.854-0.742,1.694c-0.42,0.966-1.497,3.318-1.623,3.556
		c-0.211,0.378-0.337,0.504-0.505,0.504c-0.237,0-0.434-0.434-0.434-0.994c0-0.28,0.028-0.364,0.154-0.504
		c0.308-0.336,0.476-0.546,0.672-0.84c0.686-1.022,1.189-1.974,1.75-3.29c-0.309,0.042-0.435,0.056-0.658,0.056
		c-0.504,0-0.882-0.084-1.232-0.294c-0.42-0.238-0.741-0.574-1.021-1.022L30.178,45.824z M37.584,46.608
		c0.966,0.084,1.75,0.336,2.394,0.77c0.546,0.35,0.882,0.77,0.882,1.092c0,0.238-0.14,0.406-0.363,0.406
		c-0.112,0-0.196-0.028-0.322-0.112c-0.393-0.238-0.658-0.294-1.372-0.294c-1.12,0-1.47,0.308-1.47,1.274
		c0,0.378,0.069,0.98,0.279,2.408c0.854,0.252,1.582,0.588,1.988,0.91c0.378,0.294,0.561,0.658,0.561,1.106
		c0,0.28-0.112,0.476-0.28,0.476c-0.141,0-0.196-0.042-0.49-0.364c-0.504-0.546-0.966-0.882-1.694-1.232c0,0.112,0,0.21,0,0.266
		c0,0.56-0.111,0.882-0.392,1.19c-0.378,0.378-1.036,0.602-1.82,0.602c-1.26,0-2.128-0.602-2.128-1.484
		c0-0.98,1.064-1.666,2.618-1.666c0.322,0,0.477,0.014,0.84,0.07c-0.042-1.106-0.042-1.218-0.042-1.386
		c0-1.148,0.112-1.582,0.49-2.002c0.28-0.294,0.672-0.49,1.33-0.658c0.21-0.056,0.238-0.07,0.756-0.182
		c-0.378-0.406-0.812-0.63-1.806-0.966L37.584,46.608z M36.828,52.74c-0.435-0.126-0.757-0.168-1.204-0.168
		c-1.19,0-1.918,0.406-1.918,1.064c0,0.518,0.531,0.826,1.399,0.826c1.134,0,1.723-0.462,1.723-1.344V52.74z"/>
	<path d="M46.292,48.205c0.014-0.224,0.014-0.224,0.027-0.588c0.028-0.28,0.028-0.28,0.042-0.49c-0.42,0.28-1.161,0.784-1.414,0.966
		c-0.266,0.182-0.35,0.224-0.476,0.224c-0.364,0-1.036-0.826-1.036-1.274c0-0.028,0.015-0.14,0.042-0.238
		c0.309,0.448,0.616,0.672,0.91,0.672c0.28,0,1.19-0.378,2.016-0.84c0.07-0.588,0.099-0.98,0.099-1.484
		c0-0.812-0.126-1.05-0.798-1.554c0.084-0.056,0.111-0.07,0.182-0.07c0.224,0,0.532,0.14,0.896,0.378
		c0.448,0.308,0.729,0.658,0.729,0.924c0,0.154,0,0.154-0.14,0.574c-0.099,0.266-0.196,0.714-0.252,1.106
		c0.308,0.322,0.405,0.434,0.405,0.546c0,0.084-0.014,0.112-0.195,0.406c-0.168,0.308-0.309,0.574-0.448,0.91
		c-0.028,0.238-0.028,0.294-0.028,0.518c1.372-1.302,1.834-1.708,2.437-2.142c0.979-0.7,1.638-0.994,2.254-0.994
		c0.434,0,0.826,0.182,1.105,0.504c0.267,0.308,0.378,0.686,0.378,1.232c0,0.532-0.014,0.63-0.279,2.072
		c-0.168,0.91-0.252,1.722-0.252,2.296c0,0.56,0.098,0.854,0.35,1.036c0.196,0.14,0.448,0.21,0.714,0.21
		c0.7,0,1.68-0.364,2.604-0.994l0.111,0.168c-1.008,1.036-2.1,1.61-3.094,1.61c-1.064,0-1.638-0.686-1.638-1.96
		c0-0.504,0.126-1.4,0.35-2.492c0.322-1.498,0.35-1.694,0.35-2.212c0-0.686-0.308-1.078-0.854-1.078c-0.602,0-1.33,0.42-2.45,1.414
		c-0.728,0.644-1.386,1.33-2.128,2.212c-0.014,0.336-0.014,0.518-0.014,0.728c0,0.756,0.042,1.428,0.14,2.506
		c0.042,0.336,0.042,0.448,0.042,0.658c0,0.798-0.266,1.456-0.602,1.456c-0.154,0-0.267-0.112-0.336-0.378
		c-0.042-0.14-0.196-0.574-0.238-0.672c-0.154-0.28-0.602-0.854-1.232-1.526c-0.279,0.672-0.336,0.756-0.476,0.756
		c-0.126,0-0.238-0.112-0.322-0.322c-0.084-0.224-0.153-0.56-0.153-0.77c0-0.168,0.014-0.196,0.237-0.42
		c0.225-0.21,0.448-0.518,0.91-1.246L46.292,48.205z M45.438,50.822c-0.321,0.616-0.476,0.924-0.742,1.484
		c0.826,0.686,1.078,0.882,1.484,1.134c0.028-0.532,0.028-0.532,0.042-2.618c0-0.686,0.014-1.008,0.056-1.582
		C46.082,49.646,46.067,49.646,45.438,50.822z"/>
	<path d="M59.676,49.311c0,0.532-0.42,0.952-0.952,0.952c-0.518,0-0.952-0.434-0.952-0.952s0.435-0.952,0.952-0.952
		C59.256,48.358,59.676,48.778,59.676,49.311z M64.338,49.311c0,0.532-0.42,0.952-0.952,0.952c-0.518,0-0.952-0.434-0.952-0.952
		s0.435-0.952,0.952-0.952C63.918,48.358,64.338,48.778,64.338,49.311z M69.014,49.311c0,0.532-0.42,0.952-0.952,0.952
		c-0.518,0-0.952-0.434-0.952-0.952s0.435-0.952,0.952-0.952C68.594,48.358,69.014,48.778,69.014,49.311z"/>
	<path d="M73.676,49.311c0,0.532-0.42,0.952-0.952,0.952c-0.518,0-0.952-0.434-0.952-0.952s0.435-0.952,0.952-0.952
		C73.256,48.358,73.676,48.778,73.676,49.311z M78.338,49.311c0,0.532-0.42,0.952-0.952,0.952c-0.518,0-0.952-0.434-0.952-0.952
		s0.435-0.952,0.952-0.952C77.918,48.358,78.338,48.778,78.338,49.311z M83.014,49.311c0,0.532-0.42,0.952-0.952,0.952
		c-0.518,0-0.952-0.434-0.952-0.952s0.435-0.952,0.952-0.952C82.594,48.358,83.014,48.778,83.014,49.311z"/>
</g>
<g>
	<path d="M2.52,73.659c0.645-0.161,1.106-0.336,1.547-0.588c0.819-0.462,1.288-1.148,1.288-1.883c0-0.7-0.518-1.176-1.281-1.176
		c-0.818,0-1.89,0.448-2.813,1.169C1.147,71.271,1.078,71.3,0.994,71.3c-0.329,0-0.841-0.49-0.841-0.805
		c0-0.049,0.015-0.091,0.057-0.175c0.069,0.147,0.111,0.196,0.195,0.259c0.105,0.077,0.189,0.112,0.287,0.112
		c0.183,0,0.448-0.077,0.848-0.252c1.105-0.483,1.834-0.672,2.562-0.672c1.064,0,1.792,0.623,1.792,1.54
		c0,0.868-0.588,1.617-1.609,2.051c-0.532,0.224-1.043,0.343-1.729,0.406L2.52,73.659z"/>
	<path d="M8.624,71.601c-0.399,1.393-0.512,1.904-0.512,2.331c-0.007,0.196-0.056,0.287-0.168,0.287
		c-0.118,0-0.224-0.091-0.286-0.245C7.504,73.609,7.405,73,7.405,72.385c0-0.28,0.021-0.616,0.063-0.91
		c0.049-0.406,0.049-0.406,0.294-1.442c0.07-0.308,0.105-0.532,0.105-0.672c0-0.168-0.07-0.343-0.21-0.546
		c0.153,0.007,0.244,0.07,0.412,0.273c0.196,0.231,0.315,0.483,0.315,0.672c0,0.098-0.014,0.14-0.105,0.308
		c-0.35,0.658-0.56,1.491-0.56,2.254c0,0.35,0.028,0.56,0.119,0.938l0.665-1.715L8.624,71.601z M9.442,69.389
		c0.238,0.098,0.435,0.133,0.749,0.133c0.554,0,1.162-0.133,1.562-0.343c0.049-0.028,0.104-0.049,0.126-0.049
		c0.168,0,0.392,0.14,0.392,0.245c0,0.07-0.069,0.133-0.23,0.182c-0.231,0.077-0.512,0.14-0.819,0.182
		c0.21,0.168,0.273,0.245,0.273,0.343c0,0.028-0.008,0.063-0.015,0.112c-0.021,0.126-0.027,0.224-0.042,0.84
		c0.267-0.098,0.364-0.154,0.567-0.336c0.027-0.021,0.07-0.049,0.091-0.049c0.028,0,0.119,0.028,0.168,0.049
		c0.091,0.056,0.147,0.119,0.147,0.182s-0.05,0.14-0.134,0.196c-0.217,0.147-0.504,0.259-0.84,0.343
		c0.015,0.448,0.035,0.84,0.084,1.372c0.861,0.252,1.218,0.525,1.218,0.931c0,0.133-0.063,0.231-0.153,0.231
		c-0.057,0-0.105-0.028-0.183-0.105c-0.35-0.371-0.489-0.469-0.86-0.63c0,0.287-0.021,0.378-0.084,0.518
		c-0.141,0.273-0.512,0.427-1.029,0.427c-0.644,0-1.071-0.273-1.071-0.686c0-0.476,0.532-0.798,1.316-0.798
		c0.133,0,0.245,0.007,0.441,0.035V71.93c0-0.021,0-0.266,0-0.455c-0.225,0.021-0.344,0.028-0.497,0.028
		c-0.386,0-0.665-0.077-0.854-0.238c-0.161-0.133-0.23-0.273-0.259-0.532l0.098-0.021c0.063,0.217,0.141,0.315,0.301,0.399
		c0.112,0.056,0.344,0.091,0.561,0.091c0.203,0,0.44-0.028,0.651-0.07c0-0.14,0.007-0.861,0.007-0.938
		c0-0.238-0.021-0.315-0.105-0.434c-0.217,0.014-0.322,0.021-0.469,0.021c-0.469,0-0.84-0.098-1.162-0.294L9.442,69.389z
		 M10.43,72.979c-0.532,0-0.896,0.203-0.896,0.49c0,0.238,0.266,0.385,0.686,0.385c0.371,0,0.644-0.098,0.77-0.273
		c0.057-0.077,0.092-0.182,0.105-0.308c0.007-0.042,0.014-0.168,0.014-0.203v-0.007C10.898,73.008,10.675,72.979,10.43,72.979z
		 M11.983,68.437c0.267,0.126,0.477,0.259,0.687,0.427c0.195,0.154,0.287,0.308,0.287,0.476c0,0.175-0.084,0.336-0.183,0.336
		c-0.042,0-0.077-0.028-0.119-0.07c-0.014-0.021-0.014-0.021-0.146-0.315c-0.119-0.252-0.336-0.539-0.588-0.777L11.983,68.437z
		 M12.593,68.17c0.266,0.098,0.469,0.21,0.686,0.357c0.225,0.161,0.309,0.28,0.309,0.448c0,0.196-0.07,0.336-0.175,0.336
		c-0.063,0-0.112-0.049-0.168-0.161c-0.176-0.385-0.399-0.672-0.707-0.91L12.593,68.17z"/>
	<path d="M16.813,74.366c0.512-0.413,0.742-0.644,0.994-0.994s0.42-0.679,0.623-1.211c-0.609-0.322-1.211-0.476-2.009-0.511
		c-0.427,0.777-0.609,1.071-0.847,1.386c-0.26,0.322-0.477,0.483-0.673,0.483c-0.294,0-0.539-0.336-0.539-0.742
		c0-0.357,0.176-0.714,0.477-0.966c0.308-0.259,0.77-0.42,1.33-0.462c0.098-0.168,0.111-0.217,0.497-1.099
		c0.224-0.532,0.252-0.609,0.363-0.987c-0.168,0.042-0.65,0.196-1.008,0.322c-0.111,0.035-0.168,0.049-0.23,0.049
		c-0.217,0-0.441-0.343-0.441-0.679c0-0.07,0.014-0.105,0.077-0.161c0.14,0.322,0.266,0.427,0.525,0.427
		c0.182,0,0.398-0.035,0.741-0.119c0.183-0.049,0.21-0.063,0.309-0.147c0.042-0.049,0.084-0.063,0.146-0.063
		c0.154,0,0.504,0.371,0.504,0.546c0,0.056-0.027,0.105-0.104,0.161c-0.161,0.133-0.224,0.231-0.707,1.19
		c-0.189,0.378-0.217,0.434-0.287,0.567c0.707,0.035,1.316,0.154,2.009,0.399c0.119-0.364,0.231-0.903,0.231-1.127
		c0-0.189-0.099-0.315-0.364-0.483c0.049-0.035,0.077-0.042,0.126-0.042c0.119,0,0.28,0.056,0.49,0.161
		c0.224,0.112,0.329,0.224,0.329,0.35c0,0.07-0.007,0.105-0.063,0.245c-0.021,0.049-0.063,0.196-0.168,0.525
		c-0.035,0.126-0.063,0.21-0.161,0.532c0.84,0.42,1.064,0.623,1.064,0.994c0,0.14-0.07,0.252-0.161,0.252
		c-0.063,0-0.112-0.035-0.238-0.147c-0.224-0.224-0.455-0.406-0.833-0.658c-0.308,0.672-0.524,1.008-0.896,1.365
		c-0.315,0.301-0.603,0.504-1.05,0.721L16.813,74.366z M14.665,72.608c0,0.259,0.146,0.504,0.301,0.504
		c0.23,0,0.525-0.406,1.063-1.47C15.134,71.741,14.665,72.07,14.665,72.608z"/>
	<path d="M10.493,79.581v-1.008H7.608c-0.518,0-0.63,0.014-0.979,0.084l-0.126-0.518c0.504,0.112,0.56,0.112,1.105,0.112h6.44
		c0.35-0.35,0.448-0.448,0.756-0.798c0.476,0.364,0.616,0.476,1.05,0.84c0.099,0.084,0.126,0.14,0.126,0.182
		c0,0.07-0.056,0.098-0.153,0.098h-4.452v1.008h4.508c0.308-0.252,0.392-0.336,0.672-0.602c0.42,0.35,0.546,0.448,0.952,0.784
		c0.14,0.112,0.168,0.154,0.168,0.196c0,0.14-0.225,0.196-0.84,0.196c-0.406,0.448-0.561,0.588-1.064,0.98l-0.098-0.112
		c0.042-0.182,0.042-0.182,0.168-0.532c0.098-0.266,0.098-0.266,0.154-0.588h-4.62v0.77c0,1.568,0,1.568,0.014,2.212
		c0,0.028,0,0.042,0,0.056c0,0.07-0.028,0.098-0.098,0.126c-0.154,0.042-0.462,0.084-0.63,0.084c-0.126,0-0.183-0.042-0.183-0.126
		c0.015-0.756,0.015-0.756,0.015-2.268v-0.854H6.194c-0.042,0.784-0.098,1.078-0.279,1.498c-0.183,0.434-0.546,0.812-0.784,0.812
		c-0.183,0-0.364-0.364-0.364-0.7c0-0.196,0.07-0.28,0.378-0.504c0.294-0.21,0.435-0.42,0.588-0.84
		c0.141-0.364,0.183-0.616,0.21-1.12h0.28c0,0.28,0,0.308-0.014,0.532H10.493z M12.453,76.711c0.014-0.14,0.014-0.21,0.014-0.266
		c0-0.546-0.014-0.77-0.028-0.966c1.19,0.098,1.19,0.098,1.302,0.14c0.042,0.028,0.084,0.07,0.084,0.112
		c0,0.098-0.14,0.182-0.531,0.294c0,0.35,0,0.406,0,0.686h1.693c0.393-0.42,0.519-0.546,0.883-0.924
		c0.588,0.42,0.756,0.546,1.329,0.994c0.07,0.07,0.099,0.126,0.099,0.154c0,0.056-0.057,0.098-0.141,0.098h-3.863
		c0,0.238,0,0.336,0.014,0.616c0,0.14-0.07,0.154-0.56,0.154c-0.267,0-0.309-0.014-0.309-0.14c0.015-0.308,0.015-0.434,0.015-0.63
		H9.457c0,0.224,0,0.322,0.014,0.616c0,0.098-0.028,0.14-0.112,0.154c-0.056,0.014-0.405,0.042-0.518,0.042
		c-0.182,0-0.238-0.042-0.238-0.182c0.015-0.322,0.015-0.406,0.015-0.63H5.942c-0.489,0-0.644,0.014-0.924,0.07l-0.111-0.504
		c0.476,0.098,0.588,0.112,1.035,0.112h2.675c0-0.798-0.015-0.966-0.042-1.288c1.26,0.112,1.399,0.14,1.399,0.308
		c0,0.112-0.126,0.182-0.518,0.266c0,0.336,0,0.336,0,0.714H12.453z M8.743,82.213c0.252-0.238,0.336-0.308,0.573-0.546
		c0.364,0.28,0.477,0.364,0.813,0.658c0.042,0.042,0.084,0.098,0.084,0.126c0,0.042-0.057,0.084-0.112,0.084H7.23
		c-0.476,0-0.532,0-0.798,0.07l-0.14-0.476c0.448,0.084,0.518,0.084,0.938,0.084H8.743z M14.482,83.683
		c0.238-0.28,0.309-0.364,0.532-0.616c0.392,0.224,0.504,0.294,0.868,0.518c0.126,0.084,0.168,0.14,0.168,0.21
		c0,0.112-0.042,0.154-0.532,0.448c-0.014,0.686-0.014,1.19-0.014,1.54c0,0.826,0.014,1.316,0.042,2.31l0.014,0.028
		c0,0.056-0.014,0.07-0.042,0.084c-0.098,0.042-0.392,0.084-0.63,0.084s-0.294-0.028-0.294-0.14v-0.518H7.427v0.518
		c0,0.182-0.07,0.21-0.518,0.21c-0.393,0-0.448-0.014-0.448-0.126c0.056-1.148,0.069-1.596,0.069-3.164c0-0.924,0-0.938-0.056-1.946
		c0.477,0.224,0.63,0.294,1.134,0.56H14.482z M8.757,80.883c0.252-0.238,0.336-0.322,0.56-0.532
		c0.393,0.294,0.504,0.392,0.868,0.686c0.042,0.056,0.056,0.084,0.056,0.112c0,0.042-0.042,0.056-0.14,0.056H7.343
		c-0.35,0-0.42,0.014-0.714,0.084l-0.154-0.504c0.351,0.084,0.477,0.098,0.868,0.098H8.757z M10.493,85.391v-1.386H7.427v1.386
		H10.493z M7.427,87.309h3.066v-1.596H7.427V87.309z M14.595,84.005h-3.22v1.386h3.22V84.005z M11.375,85.713v1.596h3.22v-1.596
		H11.375z M14.608,80.295c0.393,0.322,0.504,0.42,0.868,0.742c0.042,0.042,0.056,0.07,0.056,0.084c0,0.042-0.069,0.084-0.14,0.084
		h-2.813c-0.351,0-0.448,0.014-0.7,0.07l-0.126-0.49c0.434,0.084,0.49,0.098,0.826,0.098h1.456L14.608,80.295z M14.259,82.213
		c0.238-0.294,0.308-0.378,0.546-0.616c0.434,0.308,0.56,0.42,0.966,0.756c0.042,0.042,0.057,0.084,0.057,0.112
		c0,0.042-0.057,0.07-0.112,0.07h-2.996c-0.42,0-0.476,0-0.84,0.07l-0.126-0.504c0.504,0.112,0.546,0.112,0.966,0.112H14.259z"/>
	<path d="M25.935,82.129c-0.028,0.126-0.238,1.008-0.63,2.632c-0.196,0.826-0.238,1.05-0.238,1.484c0,0.406-0.014,0.518-0.042,0.602
		c-0.056,0.154-0.182,0.238-0.336,0.238c-0.237,0-0.447-0.196-0.602-0.574c-0.309-0.728-0.49-1.862-0.49-2.982
		c0-0.42,0.042-0.938,0.112-1.498c0.098-0.812,0.098-0.812,0.489-2.646c0.141-0.658,0.196-1.008,0.196-1.302
		c0-0.462-0.111-0.812-0.392-1.316c0.308,0.014,0.56,0.196,0.938,0.686c0.351,0.434,0.519,0.798,0.519,1.106
		c0,0.224-0.015,0.28-0.294,0.84c-0.28,0.588-0.616,1.568-0.756,2.226c-0.126,0.532-0.183,1.134-0.183,1.736
		c0,0.77,0.07,1.26,0.267,1.848c0.237-0.49,0.35-0.77,0.504-1.19l0.741-1.96L25.935,82.129z M27.698,82.829
		c-0.027,0.28-0.042,0.406-0.042,0.588c0,1.54,0.883,2.17,3.053,2.17c0.405,0,0.812-0.028,1.189-0.098
		c0.294-0.042,0.294-0.042,0.742-0.224c0.084-0.028,0.154-0.042,0.21-0.042c0.364,0,0.882,0.49,0.882,0.826
		c0,0.168-0.111,0.28-0.308,0.35c-0.294,0.098-0.966,0.154-1.75,0.154c-1.75,0-2.996-0.294-3.626-0.854
		c-0.504-0.462-0.756-1.05-0.756-1.82c0-0.35,0.042-0.658,0.168-1.106L27.698,82.829z M27.671,78.377
		c0.49,0.294,0.798,0.378,1.302,0.378c0.868,0,2.226-0.308,2.814-0.63c0.182-0.098,0.21-0.112,0.308-0.112
		c0.112,0,0.294,0.07,0.49,0.196c0.294,0.168,0.434,0.336,0.434,0.518c0,0.182-0.098,0.266-0.392,0.322
		c-0.924,0.14-1.442,0.266-1.988,0.49c-0.434,0.182-1.246,0.63-1.806,0.994l-0.141-0.14c0.63-0.532,1.106-0.924,1.33-1.092
		c-0.294,0.014-0.447,0.028-0.574,0.028c-0.783,0-1.302-0.21-1.903-0.784L27.671,78.377z"/>
	<path d="M39.977,82.129c-0.252,0.882-0.644,2.408-0.812,3.094c-0.141,0.616-0.183,0.84-0.183,1.19
		c-0.014,0.448-0.027,0.504-0.098,0.616c-0.07,0.098-0.154,0.154-0.266,0.154c-0.238,0-0.435-0.196-0.603-0.63
		c-0.28-0.714-0.448-1.778-0.448-2.814c0-1.288,0.154-2.464,0.63-4.662c0.183-0.868,0.211-1.022,0.211-1.26
		c0-0.42-0.112-0.756-0.406-1.232c0.322,0.014,0.588,0.196,0.979,0.7c0.322,0.406,0.504,0.798,0.504,1.064
		c0,0.154,0,0.154-0.224,0.616c-0.672,1.4-1.064,3.066-1.064,4.564c0,0.714,0.057,1.162,0.225,1.736l0.588-1.4l0.756-1.806
		L39.977,82.129z M41.377,79.595c0.672,0.434,1.105,0.574,1.806,0.574c0.49,0,1.022-0.07,1.596-0.196c0-0.266,0-0.49,0-0.616
		c0-1.568-0.014-1.75-0.195-1.946c-0.168-0.182-0.477-0.28-0.924-0.322c0.195-0.182,0.308-0.224,0.672-0.224
		c0.308,0,0.686,0.056,0.951,0.126c0.406,0.126,0.616,0.294,0.616,0.504c0,0.098,0,0.112-0.126,0.434
		c-0.153,0.406-0.237,0.91-0.294,1.876c0.645-0.182,1.05-0.364,1.288-0.574c0.14-0.14,0.182-0.154,0.308-0.154
		c0.169,0,0.49,0.084,0.658,0.182c0.112,0.056,0.183,0.154,0.183,0.252c0,0.308-1.022,0.728-2.479,1.008
		c0,1.862,0.042,2.632,0.183,3.808c1.624,0.434,2.31,0.98,2.31,1.792c0,0.294-0.126,0.518-0.28,0.518c-0.111,0-0.21-0.07-0.489-0.35
		c-0.616-0.63-0.967-0.882-1.513-1.12c0.015,0.126,0.015,0.238,0.015,0.336c0,1.008-0.841,1.61-2.24,1.61
		c-1.218,0-2.072-0.588-2.072-1.428c0-0.966,1.036-1.582,2.632-1.582c0.267,0,0.462,0.014,0.854,0.042c0-0.126,0-0.21,0-0.238
		l-0.028-1.498l-0.014-1.792c-0.42,0.084-0.826,0.112-1.232,0.112c-1.021,0-1.609-0.252-2.31-0.98L41.377,79.595z M43.519,84.705
		c-1.105,0-1.792,0.364-1.792,0.98c0,0.49,0.546,0.826,1.372,0.826c0.771,0,1.316-0.224,1.54-0.658
		c0.14-0.252,0.182-0.462,0.182-0.98C44.429,84.761,44.037,84.705,43.519,84.705z"/>
	<path d="M52.801,81.961c0,0.532-0.42,0.952-0.952,0.952c-0.518,0-0.952-0.434-0.952-0.952s0.435-0.952,0.952-0.952
		C52.381,81.009,52.801,81.429,52.801,81.961z M57.463,81.961c0,0.532-0.42,0.952-0.952,0.952c-0.518,0-0.952-0.434-0.952-0.952
		s0.435-0.952,0.952-0.952C57.043,81.009,57.463,81.429,57.463,81.961z M62.139,81.961c0,0.532-0.42,0.952-0.952,0.952
		c-0.518,0-0.952-0.434-0.952-0.952s0.435-0.952,0.952-0.952C61.719,81.009,62.139,81.429,62.139,81.961z"/>
	<path d="M66.801,81.961c0,0.532-0.42,0.952-0.952,0.952c-0.518,0-0.952-0.434-0.952-0.952s0.435-0.952,0.952-0.952
		C66.381,81.009,66.801,81.429,66.801,81.961z M71.463,81.961c0,0.532-0.42,0.952-0.952,0.952c-0.518,0-0.952-0.434-0.952-0.952
		s0.435-0.952,0.952-0.952C71.043,81.009,71.463,81.429,71.463,81.961z M76.139,81.961c0,0.532-0.42,0.952-0.952,0.952
		c-0.518,0-0.952-0.434-0.952-0.952s0.435-0.952,0.952-0.952C75.719,81.009,76.139,81.429,76.139,81.961z"/>
	<path d="M9.981,98.243c0.351-0.434,0.448-0.56,0.798-0.938c0.574,0.462,0.757,0.616,1.33,1.092
		c0.028,0.042,0.042,0.084,0.042,0.098c0,0.056-0.042,0.07-0.14,0.07H6.468c-0.168,0.588-0.308,0.98-0.546,1.526H9.52
		c0.322-0.392,0.42-0.518,0.742-0.896c0.56,0.448,0.728,0.588,1.288,1.05c0.028,0.042,0.056,0.07,0.056,0.098
		s-0.069,0.07-0.126,0.07H7.798c0.434,0.854,0.588,1.092,1.021,1.61h2.114c0.364-0.434,0.477-0.574,0.813-0.966
		c0.588,0.462,0.756,0.616,1.315,1.106c0.028,0.042,0.057,0.084,0.057,0.112c0,0.042-0.057,0.07-0.127,0.07H9.113
		c0.351,0.364,0.603,0.588,1.009,0.868c1.077,0.784,1.848,1.134,3.206,1.442l-0.015,0.266c-0.574,0.07-0.686,0.14-1.12,0.798
		c-1.189-0.644-1.861-1.19-2.842-2.296c-0.322-0.364-0.574-0.672-0.854-1.078H4.676c-0.28,0.406-0.546,0.742-0.91,1.148
		c0.322,0.182,0.392,0.224,0.771,0.448h4.172c0.153-0.182,0.153-0.182,0.308-0.364c0.364,0.294,0.476,0.378,0.826,0.686
		c0.042,0.042,0.07,0.084,0.07,0.112c0,0.056-0.028,0.084-0.196,0.238c0,1.792,0.042,3.444,0.112,4.508
		c0,0.112-0.028,0.14-0.112,0.168c-0.112,0.042-0.477,0.07-0.742,0.07c-0.126,0-0.168-0.028-0.168-0.154v-0.518H4.424v0.434
		c-0.014,0.112-0.042,0.168-0.126,0.196c-0.084,0.028-0.462,0.07-0.687,0.07c-0.126,0-0.168-0.042-0.168-0.14
		c0.057-2.254,0.07-3.122,0.07-3.878c0-0.532,0-0.532-0.028-1.554c-1.077,1.12-1.876,1.708-3.374,2.464L0,106.083
		c1.609-1.162,2.729-2.268,3.752-3.738H1.357c-0.546,0-0.741,0.014-1.078,0.07l-0.084-0.504c0.49,0.098,0.645,0.112,1.4,0.112h2.366
		c0.364-0.56,0.588-0.994,0.868-1.61H2.618c-0.393,0-0.561,0.014-0.938,0.056l-0.084-0.476c0.42,0.084,0.616,0.098,1.218,0.098H4.97
		c0.21-0.532,0.322-0.868,0.49-1.526H2.323c-0.336,0-0.714,0.028-1.105,0.07L1.12,98.117c0.518,0.112,0.741,0.126,1.372,0.126h3.052
		c0.168-0.714,0.21-1.064,0.252-1.736c1.554,0.266,1.651,0.28,1.651,0.434c0,0.126-0.084,0.168-0.657,0.322
		c-0.112,0.476-0.168,0.7-0.238,0.98H9.981z M8.806,104.263H4.424v1.764h4.382V104.263z M4.424,106.349v2.016h4.382v-2.016H4.424z
		 M5.781,100.413c-0.294,0.63-0.518,1.036-0.882,1.61h3.374c-0.308-0.504-0.434-0.756-0.77-1.61H5.781z"/>
	<path d="M18.06,103.129c-0.028,0.126-0.238,1.008-0.63,2.632c-0.196,0.826-0.238,1.05-0.238,1.484c0,0.406-0.014,0.518-0.042,0.602
		c-0.056,0.154-0.182,0.238-0.336,0.238c-0.237,0-0.447-0.196-0.602-0.574c-0.309-0.728-0.49-1.862-0.49-2.982
		c0-0.42,0.042-0.938,0.112-1.498c0.098-0.812,0.098-0.812,0.489-2.646c0.141-0.658,0.196-1.008,0.196-1.302
		c0-0.462-0.111-0.812-0.392-1.316c0.308,0.014,0.56,0.196,0.938,0.686c0.351,0.434,0.519,0.798,0.519,1.106
		c0,0.224-0.015,0.28-0.294,0.84c-0.28,0.588-0.616,1.568-0.756,2.226c-0.126,0.532-0.183,1.134-0.183,1.736
		c0,0.77,0.07,1.26,0.267,1.848c0.237-0.49,0.35-0.77,0.504-1.19l0.741-1.96L18.06,103.129z M19.823,103.829
		c-0.027,0.28-0.042,0.406-0.042,0.588c0,1.54,0.883,2.17,3.053,2.17c0.405,0,0.812-0.028,1.189-0.098
		c0.294-0.042,0.294-0.042,0.742-0.224c0.084-0.028,0.154-0.042,0.21-0.042c0.364,0,0.882,0.49,0.882,0.826
		c0,0.168-0.111,0.28-0.308,0.35c-0.294,0.098-0.966,0.154-1.75,0.154c-1.75,0-2.996-0.294-3.626-0.854
		c-0.504-0.462-0.756-1.05-0.756-1.82c0-0.35,0.042-0.658,0.168-1.106L19.823,103.829z M19.796,99.377
		c0.49,0.294,0.798,0.378,1.302,0.378c0.868,0,2.226-0.308,2.814-0.63c0.182-0.098,0.21-0.112,0.308-0.112
		c0.112,0,0.294,0.07,0.49,0.196c0.294,0.168,0.434,0.336,0.434,0.518c0,0.182-0.098,0.266-0.392,0.322
		c-0.924,0.14-1.442,0.266-1.988,0.49c-0.434,0.182-1.246,0.63-1.806,0.994l-0.141-0.14c0.63-0.532,1.106-0.924,1.33-1.092
		c-0.294,0.014-0.447,0.028-0.574,0.028c-0.783,0-1.302-0.21-1.903-0.784L19.796,99.377z"/>
	<path d="M29.428,99.475c0.672,0.63,1.064,0.812,1.764,0.812c0.364,0,0.742-0.056,1.274-0.168c0.35-0.91,0.504-1.498,0.504-1.988
		c0-0.462-0.224-0.742-0.896-1.078c0.154-0.084,0.225-0.098,0.337-0.098c0.279,0,0.714,0.126,1.119,0.322
		c0.477,0.238,0.658,0.392,0.658,0.588c0,0.112-0.027,0.196-0.14,0.364c-0.056,0.112-0.351,0.686-0.854,1.722
		c1.036-0.364,1.162-0.434,1.555-0.77c0.111-0.098,0.153-0.112,0.294-0.112c0.546,0,0.952,0.182,0.952,0.42
		c0,0.364-0.868,0.714-3.095,1.232c-0.126,0.28-0.363,0.854-0.742,1.694c-0.42,0.966-1.497,3.318-1.623,3.556
		c-0.211,0.378-0.337,0.504-0.505,0.504c-0.237,0-0.434-0.434-0.434-0.994c0-0.28,0.028-0.364,0.154-0.504
		c0.308-0.336,0.476-0.546,0.672-0.84c0.686-1.022,1.189-1.974,1.75-3.29c-0.309,0.042-0.435,0.056-0.658,0.056
		c-0.504,0-0.882-0.084-1.232-0.294c-0.42-0.238-0.741-0.574-1.021-1.022L29.428,99.475z M36.834,100.259
		c0.966,0.084,1.75,0.336,2.394,0.77c0.546,0.35,0.882,0.77,0.882,1.092c0,0.238-0.14,0.406-0.363,0.406
		c-0.112,0-0.196-0.028-0.322-0.112c-0.393-0.238-0.658-0.294-1.372-0.294c-1.12,0-1.47,0.308-1.47,1.274
		c0,0.378,0.069,0.98,0.279,2.408c0.854,0.252,1.582,0.588,1.988,0.91c0.378,0.294,0.561,0.658,0.561,1.106
		c0,0.28-0.112,0.476-0.28,0.476c-0.141,0-0.196-0.042-0.49-0.364c-0.504-0.546-0.966-0.882-1.694-1.232c0,0.112,0,0.21,0,0.266
		c0,0.56-0.111,0.882-0.392,1.19c-0.378,0.378-1.036,0.602-1.82,0.602c-1.26,0-2.128-0.602-2.128-1.484
		c0-0.98,1.064-1.666,2.618-1.666c0.322,0,0.477,0.014,0.84,0.07c-0.042-1.106-0.042-1.218-0.042-1.386
		c0-1.148,0.112-1.582,0.49-2.002c0.28-0.294,0.672-0.49,1.33-0.658c0.21-0.056,0.238-0.07,0.756-0.182
		c-0.378-0.406-0.812-0.63-1.806-0.966L36.834,100.259z M36.078,106.391c-0.435-0.126-0.757-0.168-1.204-0.168
		c-1.19,0-1.918,0.406-1.918,1.064c0,0.518,0.531,0.826,1.399,0.826c1.134,0,1.723-0.462,1.723-1.344V106.391z"/>
	<path d="M45.542,101.855c0.014-0.224,0.014-0.224,0.027-0.588c0.028-0.28,0.028-0.28,0.042-0.49
		c-0.42,0.28-1.161,0.784-1.414,0.966c-0.266,0.182-0.35,0.224-0.476,0.224c-0.364,0-1.036-0.826-1.036-1.274
		c0-0.028,0.015-0.14,0.042-0.238c0.309,0.448,0.616,0.672,0.91,0.672c0.28,0,1.19-0.378,2.016-0.84
		c0.07-0.588,0.099-0.98,0.099-1.484c0-0.812-0.126-1.05-0.798-1.554c0.084-0.056,0.111-0.07,0.182-0.07
		c0.224,0,0.532,0.14,0.896,0.378c0.448,0.308,0.729,0.658,0.729,0.924c0,0.154,0,0.154-0.14,0.574
		c-0.099,0.266-0.196,0.714-0.252,1.106c0.308,0.322,0.405,0.434,0.405,0.546c0,0.084-0.014,0.112-0.195,0.406
		c-0.168,0.308-0.309,0.574-0.448,0.91c-0.028,0.238-0.028,0.294-0.028,0.518c1.372-1.302,1.834-1.708,2.437-2.142
		c0.979-0.7,1.638-0.994,2.254-0.994c0.434,0,0.826,0.182,1.105,0.504c0.267,0.308,0.378,0.686,0.378,1.232
		c0,0.532-0.014,0.63-0.279,2.072c-0.168,0.91-0.252,1.722-0.252,2.296c0,0.56,0.098,0.854,0.35,1.036
		c0.196,0.14,0.448,0.21,0.714,0.21c0.7,0,1.68-0.364,2.604-0.994l0.111,0.168c-1.008,1.036-2.1,1.61-3.094,1.61
		c-1.064,0-1.638-0.686-1.638-1.96c0-0.504,0.126-1.4,0.35-2.492c0.322-1.498,0.35-1.694,0.35-2.212
		c0-0.686-0.308-1.078-0.854-1.078c-0.602,0-1.33,0.42-2.45,1.414c-0.728,0.644-1.386,1.33-2.128,2.212
		c-0.014,0.336-0.014,0.518-0.014,0.728c0,0.756,0.042,1.428,0.14,2.506c0.042,0.336,0.042,0.448,0.042,0.658
		c0,0.798-0.266,1.456-0.602,1.456c-0.154,0-0.267-0.112-0.336-0.378c-0.042-0.14-0.196-0.574-0.238-0.672
		c-0.154-0.28-0.602-0.854-1.232-1.526c-0.279,0.672-0.336,0.756-0.476,0.756c-0.126,0-0.238-0.112-0.322-0.322
		c-0.084-0.224-0.153-0.56-0.153-0.77c0-0.168,0.014-0.196,0.237-0.42c0.225-0.21,0.448-0.518,0.91-1.246L45.542,101.855z
		 M44.688,104.473c-0.321,0.616-0.476,0.924-0.742,1.484c0.826,0.686,1.078,0.882,1.484,1.134c0.028-0.532,0.028-0.532,0.042-2.618
		c0-0.686,0.014-1.008,0.056-1.582C45.332,103.297,45.317,103.297,44.688,104.473z"/>
	<path d="M58.926,102.961c0,0.532-0.42,0.952-0.952,0.952c-0.518,0-0.952-0.434-0.952-0.952s0.435-0.952,0.952-0.952
		C58.506,102.009,58.926,102.429,58.926,102.961z M63.588,102.961c0,0.532-0.42,0.952-0.952,0.952c-0.518,0-0.952-0.434-0.952-0.952
		s0.435-0.952,0.952-0.952C63.168,102.009,63.588,102.429,63.588,102.961z M68.264,102.961c0,0.532-0.42,0.952-0.952,0.952
		c-0.518,0-0.952-0.434-0.952-0.952s0.435-0.952,0.952-0.952C67.844,102.009,68.264,102.429,68.264,102.961z"/>
	<path d="M72.926,102.961c0,0.532-0.42,0.952-0.952,0.952c-0.518,0-0.952-0.434-0.952-0.952s0.435-0.952,0.952-0.952
		C72.506,102.009,72.926,102.429,72.926,102.961z M77.588,102.961c0,0.532-0.42,0.952-0.952,0.952c-0.518,0-0.952-0.434-0.952-0.952
		s0.435-0.952,0.952-0.952C77.168,102.009,77.588,102.429,77.588,102.961z M82.264,102.961c0,0.532-0.42,0.952-0.952,0.952
		c-0.518,0-0.952-0.434-0.952-0.952s0.435-0.952,0.952-0.952C81.844,102.009,82.264,102.429,82.264,102.961z"/>
</g>
<rect x="3.42" y="21.183" fill="none" stroke="#008CD6" stroke-width="0.5" width="14" height="14"/>
<rect x="35.254" y="21.183" fill="none" stroke="#008CD6" stroke-width="0.5" width="42" height="14"/>
<g>
	<line fill="none" stroke="#008CD6" stroke-width="0.5" x1="0.317" y1="21.183" x2="0.317" y2="14.183"/>
	<line fill="none" stroke="#008CD6" stroke-width="0.5" x1="7.317" y1="14.183" x2="7.317" y2="21.183"/>
	<line fill="none" stroke="#000000" stroke-width="0.1768" x1="3.817" y1="21.183" x2="0.317" y2="21.183"/>
	<line fill="none" stroke="#008CD6" stroke-width="0.5" x1="14.317" y1="21.183" x2="14.317" y2="14.183"/>
	<polyline fill="none" stroke="#008CD6" stroke-width="0.5" points="0.317,21.183 0.317,14.183 21.316,14.183 21.316,21.183 	"/>
	<line fill="none" stroke="#000000" stroke-width="0.1768" x1="21.316" y1="21.183" x2="17.816" y2="21.183"/>
</g>
<line fill="none" stroke="#008CD6" stroke-width="0.5" x1="49.254" y1="35.183" x2="49.254" y2="21.183"/>
<line fill="none" stroke="#008CD6" stroke-width="0.5" x1="63.254" y1="35.183" x2="63.254" y2="21.183"/>
<g>
	<rect x="0.317" y="42.688" fill="none" stroke="#008CD6" stroke-width="0.5" width="56" height="14"/>
	<line fill="none" stroke="#008CD6" stroke-width="0.5" x1="14.317" y1="56.688" x2="14.317" y2="42.688"/>
	<line fill="none" stroke="#008CD6" stroke-width="0.5" x1="28.317" y1="56.688" x2="28.317" y2="42.688"/>
	<line fill="none" stroke="#008CD6" stroke-width="0.5" x1="42.317" y1="56.688" x2="42.317" y2="42.688"/>
</g>
<line fill="none" stroke="#008CD6" stroke-width="0.5" stroke-dasharray="2" x1="0.317" y1="7.575" x2="0.317" y2="57.183"/>
<g>
	<text fill="#008CD6" x="0" y="6" font-size="8" font-family="sans-serif" font-weight="lighter">Line start</text>
</g>
</svg>
