<?xml version="1.0" encoding="utf-8"?>
<!-- Generator: Adobe Illustrator 12.0.0, SVG Export Plug-In . SVG Version: 6.00 Build 51448)  -->
<!DOCTYPE svg PUBLIC "-//W3C//DTD SVG 1.1//EN" "http://www.w3.org/Graphics/SVG/1.1/DTD/svg11.dtd" [
	<!ENTITY ns_svg "http://www.w3.org/2000/svg">
	<!ENTITY ns_xlink "http://www.w3.org/1999/xlink">
]>
<svg  version="1.1" id="レイヤー_1" xmlns="&ns_svg;" xmlns:xlink="&ns_xlink;" width="63.75"
	 viewBox="0 0 42.5 46.688" overflow="visible" enable-background="new 0 0 42.5 46.688" xml:space="preserve">
<g>
	<path d="M2.218,2.077c0.28,0.238,0.294,0.245,0.42,0.294c0.105,0.035,0.26,0.056,0.413,0.056c0.329,0,1.092-0.112,1.547-0.224
		c0.309-0.077,0.561-0.175,0.735-0.28C5.382,1.895,5.41,1.88,5.438,1.88C5.501,1.88,5.655,1.937,5.76,2
		C5.9,2.077,5.97,2.161,5.97,2.245c0,0.091-0.111,0.147-0.434,0.21c-0.392,0.077-1.148,0.182-1.61,0.231
		c0.344,0.203,0.47,0.322,0.47,0.455c0,0.042-0.008,0.084-0.05,0.315C4.29,3.764,4.234,4.345,4.199,4.946
		c0.356-0.021,0.818-0.042,1.105-0.049C5.977,4.883,6.02,4.876,6.243,4.807c0.014-0.007,0.028-0.007,0.056-0.007
		c0.099,0,0.225,0.049,0.399,0.161C6.859,5.065,6.971,5.199,6.971,5.29c0,0.084-0.069,0.147-0.168,0.147
		c-0.042,0-0.056,0-0.504-0.084c-0.378-0.07-1.043-0.126-1.498-0.126c-0.574,0-1.196,0.07-1.764,0.196
		c-0.413,0.091-0.553,0.14-0.903,0.294C2.064,5.751,1.987,5.772,1.931,5.772c-0.195,0-0.447-0.189-0.615-0.462
		C1.217,5.164,1.168,5.03,1.168,4.946c0-0.035,0.007-0.049,0.035-0.084c0.188,0.259,0.392,0.378,0.658,0.378
		c0.217,0,0.371-0.021,1.357-0.175c0.092-0.014,0.168-0.028,0.574-0.077c0.021-0.49,0.035-0.917,0.035-1.358
		c0-0.609-0.035-0.77-0.217-0.896C3.395,2.742,3.282,2.749,3.156,2.749c-0.462,0-0.679-0.126-1.029-0.602L2.218,2.077z"/>
	<path d="M9.47,2.371c0.119,0.084,0.218,0.112,0.399,0.112c0.14,0,0.28-0.007,0.49-0.035c1.911-0.224,1.911-0.224,2.071-0.294
		c0.063-0.028,0.105-0.042,0.134-0.042c0.069,0,0.23,0.098,0.405,0.259c0.168,0.147,0.252,0.259,0.252,0.336
		c0,0.049-0.021,0.077-0.069,0.126c-0.126,0.126-0.154,0.238-0.504,2.093c0.027,0.021,0.049,0.042,0.063,0.049
		c0.189,0.161,0.245,0.238,0.245,0.336c0,0.07-0.056,0.112-0.154,0.112c-0.042,0-0.042,0-0.182-0.021
		c-0.182-0.035-0.392-0.049-0.616-0.049c-0.812,0-1.854,0.168-2.254,0.357C9.708,5.73,9.646,5.745,9.61,5.745
		c-0.231,0-0.651-0.532-0.651-0.819c0-0.035,0.007-0.063,0.035-0.126c0.224,0.308,0.398,0.427,0.651,0.427
		c0.069,0,0.237-0.014,0.363-0.028c0.231-0.021,0.561-0.056,0.994-0.098c0.609-0.063,0.616-0.063,1.197-0.098
		c0.07-0.336,0.112-0.623,0.188-1.281c0.035-0.287,0.099-0.966,0.099-1.057c0-0.098-0.049-0.126-0.196-0.126
		c-0.119,0-0.651,0.049-0.938,0.084c-0.505,0.07-0.945,0.168-1.442,0.329C9.869,2.965,9.827,2.973,9.778,2.973
		c-0.141,0-0.294-0.126-0.462-0.378C9.211,2.434,9.141,2.266,9.141,2.167c0-0.028,0.008-0.063,0.035-0.119
		C9.267,2.195,9.351,2.287,9.47,2.371z"/>
	<path d="M15.462,2.797c0.567,0.112,0.994,0.259,1.226,0.413c0.188,0.119,0.266,0.259,0.266,0.462c0,0.182-0.091,0.336-0.196,0.336
		c-0.069,0-0.111-0.028-0.217-0.161c-0.35-0.441-0.665-0.707-1.12-0.959L15.462,2.797z M20.88,2.629
		c-0.378,0.539-0.734,0.938-1.483,1.638c-0.581,0.546-1.345,1.085-2.43,1.729c-0.188,0.112-0.237,0.147-0.336,0.238
		c-0.056,0.049-0.104,0.07-0.161,0.07c-0.14,0-0.294-0.133-0.497-0.413c-0.133-0.203-0.217-0.413-0.217-0.56
		c0-0.07,0.015-0.112,0.057-0.168c0.153,0.301,0.321,0.441,0.531,0.441c0.189,0,0.707-0.238,1.372-0.637
		c1.085-0.637,2.282-1.582,3.066-2.415L20.88,2.629z M16.232,1.552c1.12,0.266,1.477,0.483,1.477,0.896
		c0,0.196-0.084,0.35-0.188,0.35c-0.077,0-0.077,0-0.379-0.371c-0.266-0.315-0.588-0.581-0.959-0.777L16.232,1.552z"/>
	<path d="M22.273,6.192c0.672-0.42,1.364-0.987,1.883-1.533c0.42-0.441,0.924-1.099,1.337-1.743
		c0.224-0.343,0.343-0.574,0.476-0.903c-0.336,0.021-0.707,0.098-1.477,0.308c-0.336,0.091-0.364,0.098-0.588,0.189
		c-0.035,0.014-0.077,0.021-0.119,0.021c-0.154,0-0.301-0.126-0.455-0.399c-0.098-0.161-0.147-0.308-0.147-0.42
		c0-0.042,0.015-0.077,0.05-0.14c0.203,0.364,0.35,0.469,0.657,0.469c0.231,0,0.938-0.091,1.471-0.196
		c0.405-0.077,0.531-0.119,0.657-0.196c0.077-0.049,0.112-0.063,0.161-0.063c0.147,0,0.546,0.357,0.546,0.49
		c0,0.049-0.027,0.091-0.091,0.133c-0.146,0.098-0.146,0.098-0.398,0.476c-0.336,0.504-0.336,0.504-0.882,1.218
		c0.986,0.518,1.539,0.875,1.813,1.183c0.189,0.203,0.266,0.406,0.266,0.693c0,0.224-0.069,0.364-0.188,0.364
		c-0.049,0-0.105-0.035-0.161-0.112c-0.028-0.035-0.028-0.035-0.168-0.28c-0.35-0.588-0.952-1.211-1.666-1.715
		c-0.567,0.686-1.022,1.113-1.694,1.575c-0.44,0.308-0.741,0.476-1.225,0.686L22.273,6.192z"/>
	<path d="M30.673,6.668c0.462-0.518,0.756-1.001,1.008-1.652c0.196-0.511,0.336-1.099,0.336-1.428c0-0.168-0.042-0.245-0.175-0.343
		c-0.455,0.049-1.225,0.266-1.554,0.441c-0.119,0.056-0.147,0.07-0.224,0.07c-0.147,0-0.357-0.147-0.547-0.399
		c-0.069-0.091-0.14-0.245-0.14-0.308c0-0.035,0.007-0.056,0.028-0.133c0.168,0.238,0.336,0.336,0.588,0.336
		c0.188,0,0.23-0.007,1.197-0.175c0.427-0.07,1.218-0.168,2.155-0.259c0.141-0.014,0.399-0.07,0.546-0.119
		c0.112-0.035,0.112-0.035,0.176-0.035c0.098,0,0.23,0.035,0.371,0.105c0.188,0.091,0.328,0.224,0.328,0.322
		c0,0.084-0.076,0.14-0.195,0.14c-0.057,0-0.077,0-0.175-0.021c-0.28-0.056-0.742-0.091-1.127-0.091
		c-0.428,0-0.799,0.021-1.148,0.07c0.322,0.182,0.455,0.322,0.455,0.483c0,0.266-0.196,0.868-0.441,1.372
		c-0.385,0.791-0.734,1.218-1.386,1.708L30.673,6.668z M30.54,1.265c0.294,0.28,0.511,0.378,0.833,0.378
		c0.469,0,1.092-0.147,1.477-0.343c0.077-0.042,0.141-0.056,0.211-0.056c0.182,0,0.476,0.231,0.476,0.371
		c0,0.084-0.084,0.126-0.364,0.189c-0.455,0.091-1.231,0.182-1.596,0.182c-0.525,0-0.798-0.154-1.134-0.651L30.54,1.265z"/>
	<path d="M39.836,3.407c1.057,0.882,1.638,1.61,1.638,2.065c0,0.28-0.153,0.567-0.301,0.567c-0.056,0-0.104-0.035-0.133-0.105
		c-0.021-0.049-0.021-0.049-0.105-0.336c-0.063-0.189-0.091-0.273-0.168-0.441c-0.553,0.14-1.567,0.357-2.61,0.546
		c-0.603,0.119-0.756,0.154-0.875,0.231c-0.063,0.042-0.112,0.056-0.161,0.056c-0.112,0-0.21-0.07-0.322-0.224
		c-0.195-0.273-0.308-0.518-0.308-0.693c0-0.063,0.007-0.105,0.049-0.189c0.175,0.371,0.315,0.476,0.637,0.476
		c0.028,0,0.07,0,0.175-0.014c0.196-0.392,0.603-1.33,0.896-2.086c0.336-0.868,0.483-1.344,0.483-1.54
		c0-0.182-0.134-0.329-0.413-0.448c0.069-0.042,0.111-0.056,0.188-0.056c0.161,0,0.399,0.091,0.609,0.231
		c0.217,0.14,0.329,0.273,0.329,0.378c0,0.07-0.007,0.084-0.105,0.21c-0.063,0.077-0.182,0.301-0.322,0.581
		c-0.496,1.008-1.057,2.065-1.441,2.723c0.917-0.063,2.31-0.231,3.115-0.364c-0.105-0.231-0.203-0.413-0.42-0.763
		c-0.112-0.182-0.154-0.238-0.525-0.735L39.836,3.407z"/>
	<path d="M7.076,11.492V9.49c0-0.546-0.028-0.994-0.084-1.414C8.252,8.174,8.63,8.244,8.63,8.397c0,0.112-0.112,0.182-0.574,0.406
		v2.688h2.675c0.321-0.462,0.42-0.602,0.77-1.05c0.644,0.49,0.84,0.644,1.442,1.176c0.042,0.056,0.069,0.084,0.069,0.112
		c0,0.056-0.056,0.084-0.168,0.084H8.056v3.29h2.408c0.309-0.448,0.406-0.588,0.756-1.036c0.603,0.476,0.784,0.63,1.387,1.148
		c0.042,0.042,0.069,0.084,0.069,0.112c0,0.056-0.069,0.098-0.195,0.098H8.056v3.948h3.332c0.406-0.462,0.519-0.602,0.882-1.092
		c0.673,0.504,0.883,0.672,1.555,1.218c0.042,0.028,0.069,0.084,0.069,0.098c0,0.056-0.084,0.098-0.168,0.098H2.82
		c-0.561,0-0.882,0.028-1.358,0.098l-0.14-0.546c0.532,0.098,0.84,0.126,1.483,0.126h4.271v-3.948H4.094
		c-0.42,0-0.826,0.028-1.12,0.084l-0.111-0.518c0.602,0.098,0.826,0.112,1.231,0.112h2.982v-3.29H3.982
		c-0.742,1.26-1.358,2.058-2.353,3.052l-0.168-0.14c0.896-1.232,1.442-2.282,2.044-3.864C3.842,9.979,3.982,9.49,4.094,8.874
		c1.33,0.42,1.597,0.532,1.597,0.672c0,0.126-0.154,0.182-0.63,0.224c-0.351,0.756-0.519,1.078-0.883,1.722H7.076z"/>
	<path d="M19.662,8.706c1.288,0.672,1.89,1.162,1.89,1.568c0,0.378-0.195,0.756-0.378,0.756c-0.084,0-0.14-0.056-0.21-0.21
		c-0.069-0.14-0.182-0.35-0.406-0.686c-1.722,0.308-2.226,0.378-4.535,0.63c-0.112,0.364-0.141,0.406-0.225,0.406
		c-0.056,0-0.111-0.056-0.14-0.154c-0.014-0.028-0.07-0.378-0.196-1.05c0.322,0.056,0.435,0.056,0.771,0.056c0.084,0,0.14,0,0.378,0
		c0.546-0.854,0.798-1.372,0.994-2.058c0.518,0.126,1.119,0.28,1.287,0.35c0.07,0.028,0.112,0.084,0.112,0.126
		c0,0.126-0.126,0.168-0.63,0.224c-0.168,0.168-0.294,0.294-0.378,0.378c-0.644,0.672-0.7,0.728-1.022,0.966
		c0.154,0,1.303-0.028,3.444-0.084c-0.28-0.42-0.462-0.616-0.896-1.064L19.662,8.706z M17.521,17.288
		c-0.099,0.966-0.337,1.722-0.729,2.324c-0.28,0.434-0.658,0.742-0.91,0.742c-0.111,0-0.195-0.056-0.266-0.168
		c-0.084-0.154-0.154-0.378-0.154-0.56c0-0.294,0.084-0.406,0.378-0.546c0.267-0.112,0.658-0.448,0.91-0.742
		c0.266-0.308,0.392-0.532,0.546-1.05H17.521z M17.128,14.501v2.044c-0.014,0.126-0.098,0.154-0.546,0.154
		c-0.28,0-0.322-0.028-0.322-0.182c0.042-1.092,0.042-1.442,0.042-2.688c0-1.344-0.014-2.324-0.042-2.828
		c0.462,0.196,0.603,0.266,1.036,0.49h2.464c0.225-0.224,0.294-0.294,0.504-0.504c0.294,0.224,0.393,0.28,0.645,0.504
		c0.14,0.14,0.168,0.182,0.168,0.238c0,0.07-0.098,0.14-0.406,0.266v3.808c0,0.588-0.224,0.784-1.162,0.994
		c-0.084-0.602-0.168-0.672-1.483-0.966l0.014-0.168c0.896,0.098,1.078,0.112,1.666,0.14c0.14,0,0.154-0.014,0.154-0.14v-1.162
		H17.128z M19.858,12.808v-0.994h-2.73v0.994H19.858z M17.128,13.13v1.05h2.73v-1.05H17.128z M18.766,18.03
		c0-0.238,0-0.294-0.027-0.896c1.315,0.168,1.47,0.21,1.47,0.35c0,0.112-0.126,0.196-0.56,0.322v1.4c0,0.196,0.014,0.224,0.084,0.28
		c0.153,0.07,0.308,0.084,2.016,0.084c1.82,0,1.946-0.014,2.128-0.196c0.098-0.112,0.294-0.602,0.616-1.568l0.168,0.014
		l-0.042,1.204c-0.014,0.042-0.014,0.084-0.014,0.098c0,0.168,0,0.168,0.308,0.322c0.196,0.112,0.252,0.182,0.252,0.35
		c0,0.434-0.518,0.532-2.716,0.532c-0.168,0-0.435,0-0.742,0c-0.686-0.014-1.078-0.014-1.344-0.014h-0.351
		c-1.021,0-1.204-0.112-1.246-0.686c0-0.308,0-0.308,0-0.812V18.03z M20.754,16.938c1.12,0.294,1.582,0.448,1.806,0.63
		c0.169,0.126,0.267,0.378,0.267,0.644c0,0.28-0.154,0.56-0.309,0.56c-0.069,0-0.126-0.042-0.237-0.238
		c-0.141-0.21-0.448-0.574-0.672-0.784c-0.252-0.224-0.462-0.364-0.925-0.63L20.754,16.938z M22.952,10.26
		c1.26-0.504,2.338-1.134,3.023-1.764c0.238,0.14,0.421,0.238,0.547,0.308c0.462,0.252,0.644,0.392,0.644,0.49
		c0,0.084-0.098,0.14-0.238,0.14c-0.069,0-0.224-0.014-0.504-0.042c-1.414,0.574-1.89,0.728-3.472,1.148v0.63
		c0,0.196,0.014,0.238,0.084,0.28c0.098,0.042,0.574,0.07,1.554,0.07c0.015,0,0.042,0,0.099,0c0.573,0,0.896-0.014,1.063-0.014
		h0.154c0.574,0,0.588-0.014,1.078-1.596l0.153,0.014v1.05c0,0.35,0.015,0.364,0.168,0.462c0.183,0.098,0.252,0.182,0.252,0.308
		c0,0.14-0.111,0.294-0.279,0.35c-0.267,0.112-0.742,0.14-2.702,0.14c-1.526,0-1.946-0.028-2.17-0.112
		c-0.21-0.084-0.294-0.266-0.309-0.658c0.015-1.022,0.015-1.036,0.015-1.246V9.056c0-0.336-0.015-0.56-0.042-0.994
		c0.321,0.042,0.546,0.07,0.714,0.084c0.546,0.056,0.756,0.14,0.756,0.266c0,0.112-0.126,0.168-0.588,0.308V10.26z M22.952,14.6
		c0.742-0.252,0.868-0.308,1.246-0.476c0.658-0.308,1.204-0.658,1.693-1.064c0.364,0.196,0.799,0.448,0.994,0.588
		c0.084,0.056,0.112,0.098,0.112,0.154c0,0.07-0.126,0.126-0.308,0.126c-0.099,0-0.21,0-0.351-0.014
		c-1.246,0.49-2.03,0.714-3.388,0.966v0.784c0,0.196,0.014,0.28,0.07,0.308c0.084,0.056,0.588,0.084,1.441,0.084
		c0.938,0,1.582-0.014,1.722-0.042c0.154-0.028,0.238-0.126,0.379-0.406c0.098-0.21,0.111-0.238,0.476-1.386l0.168,0.028
		l-0.07,1.176c0,0.098-0.014,0.154-0.014,0.196c0,0.014,0,0.028,0,0.028c0,0.14,0.042,0.196,0.224,0.28
		c0.168,0.084,0.238,0.182,0.238,0.322c0,0.196-0.168,0.35-0.476,0.434c-0.225,0.07-1.009,0.098-2.885,0.098
		c-1.26,0-1.596-0.028-1.819-0.168c-0.225-0.126-0.294-0.322-0.309-0.784c0.015-0.798,0.015-0.854,0.015-1.106v-1.05
		c0-0.518,0-0.658-0.042-1.064c0.279,0.042,0.504,0.07,0.644,0.084c0.574,0.084,0.742,0.154,0.742,0.266
		c0,0.126-0.14,0.21-0.504,0.308V14.6z M25.402,17.372c1.609,0.896,1.693,0.952,2.029,1.288c0.196,0.182,0.294,0.406,0.294,0.63
		c0,0.21-0.126,0.574-0.266,0.756c-0.07,0.098-0.154,0.154-0.238,0.154c-0.126,0-0.168-0.056-0.363-0.476
		c-0.393-0.826-0.841-1.414-1.639-2.198L25.402,17.372z"/>
	<path d="M29.364,19.751c1.12-1.008,1.946-1.862,2.548-2.604c0.42-0.546,0.686-0.924,0.798-1.176
		c0.266,0.098,0.477,0.182,0.603,0.238c0.756,0.308,0.825,0.336,0.825,0.462c0,0.098-0.126,0.168-0.336,0.168c0,0-0.042,0-0.069,0
		c-0.084-0.014-0.196-0.014-0.364-0.014c-0.267,0.364-0.658,0.77-1.428,1.414c-0.868,0.728-1.471,1.134-2.464,1.68L29.364,19.751z
		 M29.924,9.77c2.269-0.252,3.57-0.49,6.021-1.106c1.693-0.42,2.436-0.658,2.968-0.98c0.224,0.168,0.392,0.308,0.504,0.392
		c0.518,0.392,0.672,0.56,0.672,0.686c0,0.056-0.07,0.112-0.14,0.112c-0.07,0-0.28-0.056-0.63-0.168
		c-1.19,0.336-2.03,0.518-3.836,0.798c0.63,0.266,0.854,0.392,0.854,0.518c0,0,0,0,0,0.014c-0.014,0.07-0.14,0.14-0.294,0.14
		c-0.07,0-0.168-0.014-0.35-0.042c-1.232,1.134-1.261,1.162-2.017,1.694c0.519,0.322,0.742,0.602,0.742,0.924
		c0,0.448-0.154,0.868-0.336,0.868c-0.098,0-0.14-0.042-0.378-0.406c-0.504-0.77-1.204-1.47-2.184-2.198l0.126-0.14
		c0.644,0.224,1.119,0.434,1.75,0.784c0.546-0.574,0.924-1.092,1.512-2.072c-2.227,0.308-3.29,0.406-4.956,0.42L29.924,9.77z
		 M35.063,15.174c-0.784,0.07-1.498,0.14-1.891,0.168c-1.456,0.14-1.722,0.168-2.408,0.21c-0.042,0.084-0.056,0.154-0.069,0.196
		c-0.112,0.35-0.154,0.434-0.28,0.434c-0.168,0-0.224-0.168-0.462-1.652c0.448,0.028,0.7,0.042,1.134,0.042
		c0.238,0,0.771-0.014,1.582-0.028c0.308-0.014,0.826-0.028,1.456-0.042c1.19-1.05,1.498-1.358,2.436-2.38
		c0.967-1.036,1.177-1.302,1.666-2.016c1.162,0.77,1.303,0.868,1.303,0.994c0,0.07-0.099,0.14-0.21,0.14
		c-0.057,0-0.364-0.042-0.561-0.07c-1.134,1.134-2.296,2.086-4.032,3.318c1.933-0.042,2.534-0.07,4.929-0.252
		c-0.393-0.476-0.645-0.714-1.261-1.218l0.154-0.154c1.218,0.672,1.722,1.022,2.548,1.722c0.406,0.35,0.49,0.518,0.49,0.952
		c0,0.462-0.168,0.826-0.378,0.826c-0.112,0-0.196-0.084-0.378-0.392c-0.364-0.63-0.602-0.994-0.924-1.414
		c-0.168,0.028-0.322,0.056-0.406,0.07c-0.56,0.098-0.56,0.098-1.316,0.182c-1.035,0.126-1.75,0.21-2.142,0.252v3.052
		c0,0.546,0.014,1.442,0.042,2.086c-0.028,0.182-0.154,0.238-0.588,0.238c-0.042,0-0.042,0-0.14,0c-0.21,0-0.294-0.042-0.336-0.21
		c0.014-0.35,0.014-0.728,0.027-1.148c0.015-0.826,0.015-0.868,0.015-1.036V15.174z M37.302,16.056
		c0.896,0.392,2.24,1.232,2.996,1.89c0.294,0.252,0.393,0.462,0.393,0.896c0,0.448-0.168,0.826-0.364,0.826
		c-0.098,0-0.168-0.056-0.267-0.21c-0.644-1.008-1.777-2.296-2.869-3.262L37.302,16.056z"/>
</g>
<g>
	<path d="M2.218,28.327c0.28,0.238,0.294,0.245,0.42,0.294c0.105,0.035,0.26,0.056,0.413,0.056c0.329,0,1.092-0.112,1.547-0.224
		c0.309-0.077,0.561-0.175,0.735-0.28c0.049-0.028,0.077-0.042,0.105-0.042c0.063,0,0.217,0.056,0.321,0.119
		c0.141,0.077,0.21,0.161,0.21,0.245c0,0.091-0.111,0.147-0.434,0.21c-0.392,0.077-1.148,0.182-1.61,0.231
		c0.344,0.203,0.47,0.322,0.47,0.455c0,0.042-0.008,0.084-0.05,0.315c-0.056,0.308-0.111,0.889-0.146,1.491
		c0.356-0.021,0.818-0.042,1.105-0.049c0.672-0.014,0.715-0.021,0.938-0.091c0.014-0.007,0.028-0.007,0.056-0.007
		c0.099,0,0.225,0.049,0.399,0.161c0.161,0.105,0.272,0.238,0.272,0.329c0,0.084-0.069,0.147-0.168,0.147
		c-0.042,0-0.056,0-0.504-0.084c-0.378-0.07-1.043-0.126-1.498-0.126c-0.574,0-1.196,0.07-1.764,0.196
		c-0.413,0.091-0.553,0.14-0.903,0.294c-0.069,0.035-0.146,0.056-0.203,0.056c-0.195,0-0.447-0.189-0.615-0.462
		c-0.099-0.147-0.147-0.28-0.147-0.364c0-0.035,0.007-0.049,0.035-0.084c0.188,0.259,0.392,0.378,0.658,0.378
		c0.217,0,0.371-0.021,1.357-0.175c0.092-0.014,0.168-0.028,0.574-0.077c0.021-0.49,0.035-0.917,0.035-1.358
		c0-0.609-0.035-0.77-0.217-0.896c-0.217,0.007-0.329,0.014-0.455,0.014c-0.462,0-0.679-0.126-1.029-0.602L2.218,28.327z"/>
	<path d="M9.47,28.621c0.119,0.084,0.218,0.112,0.399,0.112c0.14,0,0.28-0.007,0.49-0.035c1.911-0.224,1.911-0.224,2.071-0.294
		c0.063-0.028,0.105-0.042,0.134-0.042c0.069,0,0.23,0.098,0.405,0.259c0.168,0.147,0.252,0.259,0.252,0.336
		c0,0.049-0.021,0.077-0.069,0.126c-0.126,0.126-0.154,0.238-0.504,2.093c0.027,0.021,0.049,0.042,0.063,0.049
		c0.189,0.161,0.245,0.238,0.245,0.336c0,0.07-0.056,0.112-0.154,0.112c-0.042,0-0.042,0-0.182-0.021
		c-0.182-0.035-0.392-0.049-0.616-0.049c-0.812,0-1.854,0.168-2.254,0.357c-0.042,0.021-0.104,0.035-0.14,0.035
		c-0.231,0-0.651-0.532-0.651-0.819c0-0.035,0.007-0.063,0.035-0.126c0.224,0.308,0.398,0.427,0.651,0.427
		c0.069,0,0.237-0.014,0.363-0.028c0.231-0.021,0.561-0.056,0.994-0.098c0.609-0.063,0.616-0.063,1.197-0.098
		c0.07-0.336,0.112-0.623,0.188-1.281c0.035-0.287,0.099-0.966,0.099-1.057c0-0.098-0.049-0.126-0.196-0.126
		c-0.119,0-0.651,0.049-0.938,0.084c-0.505,0.07-0.945,0.168-1.442,0.329c-0.042,0.014-0.084,0.021-0.133,0.021
		c-0.141,0-0.294-0.126-0.462-0.378c-0.105-0.161-0.176-0.329-0.176-0.427c0-0.028,0.008-0.063,0.035-0.119
		C9.267,28.445,9.351,28.537,9.47,28.621z"/>
	<path d="M15.462,29.047c0.567,0.112,0.994,0.259,1.226,0.413c0.188,0.119,0.266,0.259,0.266,0.462c0,0.182-0.091,0.336-0.196,0.336
		c-0.069,0-0.111-0.028-0.217-0.161c-0.35-0.441-0.665-0.707-1.12-0.959L15.462,29.047z M20.88,28.879
		c-0.378,0.539-0.734,0.938-1.483,1.638c-0.581,0.546-1.345,1.085-2.43,1.729c-0.188,0.112-0.237,0.147-0.336,0.238
		c-0.056,0.049-0.104,0.07-0.161,0.07c-0.14,0-0.294-0.133-0.497-0.413c-0.133-0.203-0.217-0.413-0.217-0.56
		c0-0.07,0.015-0.112,0.057-0.168c0.153,0.301,0.321,0.441,0.531,0.441c0.189,0,0.707-0.238,1.372-0.637
		c1.085-0.637,2.282-1.582,3.066-2.415L20.88,28.879z M16.232,27.802c1.12,0.266,1.477,0.483,1.477,0.896
		c0,0.196-0.084,0.35-0.188,0.35c-0.077,0-0.077,0-0.379-0.371c-0.266-0.315-0.588-0.581-0.959-0.777L16.232,27.802z"/>
	<path d="M22.273,32.442c0.672-0.42,1.364-0.987,1.883-1.533c0.42-0.441,0.924-1.099,1.337-1.743
		c0.224-0.343,0.343-0.574,0.476-0.903c-0.336,0.021-0.707,0.098-1.477,0.308c-0.336,0.091-0.364,0.098-0.588,0.189
		c-0.035,0.014-0.077,0.021-0.119,0.021c-0.154,0-0.301-0.126-0.455-0.399c-0.098-0.161-0.147-0.308-0.147-0.42
		c0-0.042,0.015-0.077,0.05-0.14c0.203,0.364,0.35,0.469,0.657,0.469c0.231,0,0.938-0.091,1.471-0.196
		c0.405-0.077,0.531-0.119,0.657-0.196c0.077-0.049,0.112-0.063,0.161-0.063c0.147,0,0.546,0.357,0.546,0.49
		c0,0.049-0.027,0.091-0.091,0.133c-0.146,0.098-0.146,0.098-0.398,0.476c-0.336,0.504-0.336,0.504-0.882,1.218
		c0.986,0.518,1.539,0.875,1.813,1.183c0.189,0.203,0.266,0.406,0.266,0.693c0,0.224-0.069,0.364-0.188,0.364
		c-0.049,0-0.105-0.035-0.161-0.112c-0.028-0.035-0.028-0.035-0.168-0.28c-0.35-0.588-0.952-1.211-1.666-1.715
		c-0.567,0.686-1.022,1.113-1.694,1.575c-0.44,0.308-0.741,0.476-1.225,0.686L22.273,32.442z"/>
	<path d="M30.673,32.918c0.462-0.518,0.756-1.001,1.008-1.652c0.196-0.511,0.336-1.099,0.336-1.428c0-0.168-0.042-0.245-0.175-0.343
		c-0.455,0.049-1.225,0.266-1.554,0.441c-0.119,0.056-0.147,0.07-0.224,0.07c-0.147,0-0.357-0.147-0.547-0.399
		c-0.069-0.091-0.14-0.245-0.14-0.308c0-0.035,0.007-0.056,0.028-0.133c0.168,0.238,0.336,0.336,0.588,0.336
		c0.188,0,0.23-0.007,1.197-0.175c0.427-0.07,1.218-0.168,2.155-0.259c0.141-0.014,0.399-0.07,0.546-0.119
		c0.112-0.035,0.112-0.035,0.176-0.035c0.098,0,0.23,0.035,0.371,0.105c0.188,0.091,0.328,0.224,0.328,0.322
		c0,0.084-0.076,0.14-0.195,0.14c-0.057,0-0.077,0-0.175-0.021c-0.28-0.056-0.742-0.091-1.127-0.091
		c-0.428,0-0.799,0.021-1.148,0.07c0.322,0.182,0.455,0.322,0.455,0.483c0,0.266-0.196,0.868-0.441,1.372
		c-0.385,0.791-0.734,1.218-1.386,1.708L30.673,32.918z M30.54,27.515c0.294,0.28,0.511,0.378,0.833,0.378
		c0.469,0,1.092-0.147,1.477-0.343c0.077-0.042,0.141-0.056,0.211-0.056c0.182,0,0.476,0.231,0.476,0.371
		c0,0.084-0.084,0.126-0.364,0.189c-0.455,0.091-1.231,0.182-1.596,0.182c-0.525,0-0.798-0.154-1.134-0.651L30.54,27.515z"/>
	<path d="M39.836,29.657c1.057,0.882,1.638,1.61,1.638,2.065c0,0.28-0.153,0.567-0.301,0.567c-0.056,0-0.104-0.035-0.133-0.105
		c-0.021-0.049-0.021-0.049-0.105-0.336c-0.063-0.189-0.091-0.273-0.168-0.441c-0.553,0.14-1.567,0.357-2.61,0.546
		c-0.603,0.119-0.756,0.154-0.875,0.231c-0.063,0.042-0.112,0.056-0.161,0.056c-0.112,0-0.21-0.07-0.322-0.224
		c-0.195-0.273-0.308-0.518-0.308-0.693c0-0.063,0.007-0.105,0.049-0.189c0.175,0.371,0.315,0.476,0.637,0.476
		c0.028,0,0.07,0,0.175-0.014c0.196-0.392,0.603-1.33,0.896-2.086c0.336-0.868,0.483-1.344,0.483-1.54
		c0-0.182-0.134-0.329-0.413-0.448c0.069-0.042,0.111-0.056,0.188-0.056c0.161,0,0.399,0.091,0.609,0.231
		c0.217,0.14,0.329,0.273,0.329,0.378c0,0.07-0.007,0.084-0.105,0.21c-0.063,0.077-0.182,0.301-0.322,0.581
		c-0.496,1.008-1.057,2.065-1.441,2.723c0.917-0.063,2.31-0.231,3.115-0.364c-0.105-0.231-0.203-0.413-0.42-0.763
		c-0.112-0.182-0.154-0.238-0.525-0.735L39.836,29.657z"/>
	<path d="M7.076,37.742V35.74c0-0.546-0.028-0.994-0.084-1.414c1.26,0.098,1.638,0.168,1.638,0.322c0,0.112-0.112,0.182-0.574,0.406
		v2.688h2.675c0.321-0.462,0.42-0.602,0.77-1.05c0.644,0.49,0.84,0.644,1.442,1.176c0.042,0.056,0.069,0.084,0.069,0.112
		c0,0.056-0.056,0.084-0.168,0.084H8.056v3.29h2.408c0.309-0.448,0.406-0.588,0.756-1.036c0.603,0.476,0.784,0.63,1.387,1.148
		c0.042,0.042,0.069,0.084,0.069,0.112c0,0.056-0.069,0.098-0.195,0.098H8.056v3.948h3.332c0.406-0.462,0.519-0.602,0.882-1.092
		c0.673,0.504,0.883,0.672,1.555,1.218c0.042,0.028,0.069,0.084,0.069,0.098c0,0.056-0.084,0.098-0.168,0.098H2.82
		c-0.561,0-0.882,0.028-1.358,0.098l-0.14-0.546c0.532,0.098,0.84,0.126,1.483,0.126h4.271v-3.948H4.094
		c-0.42,0-0.826,0.028-1.12,0.084l-0.111-0.518c0.602,0.098,0.826,0.112,1.231,0.112h2.982v-3.29H3.982
		c-0.742,1.26-1.358,2.058-2.353,3.052l-0.168-0.14c0.896-1.232,1.442-2.282,2.044-3.864c0.336-0.882,0.477-1.372,0.588-1.988
		c1.33,0.42,1.597,0.532,1.597,0.672c0,0.126-0.154,0.182-0.63,0.224c-0.351,0.756-0.519,1.078-0.883,1.722H7.076z"/>
	<path d="M19.662,34.956c1.288,0.672,1.89,1.162,1.89,1.568c0,0.378-0.195,0.756-0.378,0.756c-0.084,0-0.14-0.056-0.21-0.21
		c-0.069-0.14-0.182-0.35-0.406-0.686c-1.722,0.308-2.226,0.378-4.535,0.63c-0.112,0.364-0.141,0.406-0.225,0.406
		c-0.056,0-0.111-0.056-0.14-0.154c-0.014-0.028-0.07-0.378-0.196-1.05c0.322,0.056,0.435,0.056,0.771,0.056c0.084,0,0.14,0,0.378,0
		c0.546-0.854,0.798-1.372,0.994-2.058c0.518,0.126,1.119,0.28,1.287,0.35c0.07,0.028,0.112,0.084,0.112,0.126
		c0,0.126-0.126,0.168-0.63,0.224c-0.168,0.168-0.294,0.294-0.378,0.378c-0.644,0.672-0.7,0.728-1.022,0.966
		c0.154,0,1.303-0.028,3.444-0.084c-0.28-0.42-0.462-0.616-0.896-1.064L19.662,34.956z M17.521,43.538
		c-0.099,0.966-0.337,1.722-0.729,2.324c-0.28,0.434-0.658,0.742-0.91,0.742c-0.111,0-0.195-0.056-0.266-0.168
		c-0.084-0.154-0.154-0.378-0.154-0.56c0-0.294,0.084-0.406,0.378-0.546c0.267-0.112,0.658-0.448,0.91-0.742
		c0.266-0.308,0.392-0.532,0.546-1.05H17.521z M17.128,40.751v2.044c-0.014,0.126-0.098,0.154-0.546,0.154
		c-0.28,0-0.322-0.028-0.322-0.182c0.042-1.092,0.042-1.442,0.042-2.688c0-1.344-0.014-2.324-0.042-2.828
		c0.462,0.196,0.603,0.266,1.036,0.49h2.464c0.225-0.224,0.294-0.294,0.504-0.504c0.294,0.224,0.393,0.28,0.645,0.504
		c0.14,0.14,0.168,0.182,0.168,0.238c0,0.07-0.098,0.14-0.406,0.266v3.808c0,0.588-0.224,0.784-1.162,0.994
		c-0.084-0.602-0.168-0.672-1.483-0.966l0.014-0.168c0.896,0.098,1.078,0.112,1.666,0.14c0.14,0,0.154-0.014,0.154-0.14v-1.162
		H17.128z M19.858,39.058v-0.994h-2.73v0.994H19.858z M17.128,39.38v1.05h2.73v-1.05H17.128z M18.766,44.28
		c0-0.238,0-0.294-0.027-0.896c1.315,0.168,1.47,0.21,1.47,0.35c0,0.112-0.126,0.196-0.56,0.322v1.4c0,0.196,0.014,0.224,0.084,0.28
		c0.153,0.07,0.308,0.084,2.016,0.084c1.82,0,1.946-0.014,2.128-0.196c0.098-0.112,0.294-0.602,0.616-1.568l0.168,0.014
		l-0.042,1.204c-0.014,0.042-0.014,0.084-0.014,0.098c0,0.168,0,0.168,0.308,0.322c0.196,0.112,0.252,0.182,0.252,0.35
		c0,0.434-0.518,0.532-2.716,0.532c-0.168,0-0.435,0-0.742,0c-0.686-0.014-1.078-0.014-1.344-0.014h-0.351
		c-1.021,0-1.204-0.112-1.246-0.686c0-0.308,0-0.308,0-0.812V44.28z M20.754,43.188c1.12,0.294,1.582,0.448,1.806,0.63
		c0.169,0.126,0.267,0.378,0.267,0.644c0,0.28-0.154,0.56-0.309,0.56c-0.069,0-0.126-0.042-0.237-0.238
		c-0.141-0.21-0.448-0.574-0.672-0.784c-0.252-0.224-0.462-0.364-0.925-0.63L20.754,43.188z M22.952,36.51
		c1.26-0.504,2.338-1.134,3.023-1.764c0.238,0.14,0.421,0.238,0.547,0.308c0.462,0.252,0.644,0.392,0.644,0.49
		c0,0.084-0.098,0.14-0.238,0.14c-0.069,0-0.224-0.014-0.504-0.042c-1.414,0.574-1.89,0.728-3.472,1.148v0.63
		c0,0.196,0.014,0.238,0.084,0.28c0.098,0.042,0.574,0.07,1.554,0.07c0.015,0,0.042,0,0.099,0c0.573,0,0.896-0.014,1.063-0.014
		h0.154c0.574,0,0.588-0.014,1.078-1.596l0.153,0.014v1.05c0,0.35,0.015,0.364,0.168,0.462c0.183,0.098,0.252,0.182,0.252,0.308
		c0,0.14-0.111,0.294-0.279,0.35c-0.267,0.112-0.742,0.14-2.702,0.14c-1.526,0-1.946-0.028-2.17-0.112
		c-0.21-0.084-0.294-0.266-0.309-0.658c0.015-1.022,0.015-1.036,0.015-1.246v-1.162c0-0.336-0.015-0.56-0.042-0.994
		c0.321,0.042,0.546,0.07,0.714,0.084c0.546,0.056,0.756,0.14,0.756,0.266c0,0.112-0.126,0.168-0.588,0.308V36.51z M22.952,40.85
		c0.742-0.252,0.868-0.308,1.246-0.476c0.658-0.308,1.204-0.658,1.693-1.064c0.364,0.196,0.799,0.448,0.994,0.588
		c0.084,0.056,0.112,0.098,0.112,0.154c0,0.07-0.126,0.126-0.308,0.126c-0.099,0-0.21,0-0.351-0.014
		c-1.246,0.49-2.03,0.714-3.388,0.966v0.784c0,0.196,0.014,0.28,0.07,0.308c0.084,0.056,0.588,0.084,1.441,0.084
		c0.938,0,1.582-0.014,1.722-0.042c0.154-0.028,0.238-0.126,0.379-0.406c0.098-0.21,0.111-0.238,0.476-1.386l0.168,0.028
		l-0.07,1.176c0,0.098-0.014,0.154-0.014,0.196c0,0.014,0,0.028,0,0.028c0,0.14,0.042,0.196,0.224,0.28
		c0.168,0.084,0.238,0.182,0.238,0.322c0,0.196-0.168,0.35-0.476,0.434c-0.225,0.07-1.009,0.098-2.885,0.098
		c-1.26,0-1.596-0.028-1.819-0.168c-0.225-0.126-0.294-0.322-0.309-0.784c0.015-0.798,0.015-0.854,0.015-1.106v-1.05
		c0-0.518,0-0.658-0.042-1.064c0.279,0.042,0.504,0.07,0.644,0.084c0.574,0.084,0.742,0.154,0.742,0.266
		c0,0.126-0.14,0.21-0.504,0.308V40.85z M25.402,43.622c1.609,0.896,1.693,0.952,2.029,1.288c0.196,0.182,0.294,0.406,0.294,0.63
		c0,0.21-0.126,0.574-0.266,0.756c-0.07,0.098-0.154,0.154-0.238,0.154c-0.126,0-0.168-0.056-0.363-0.476
		c-0.393-0.826-0.841-1.414-1.639-2.198L25.402,43.622z"/>
	<path d="M29.364,46.001c1.12-1.008,1.946-1.862,2.548-2.604c0.42-0.546,0.686-0.924,0.798-1.176
		c0.266,0.098,0.477,0.182,0.603,0.238c0.756,0.308,0.825,0.336,0.825,0.462c0,0.098-0.126,0.168-0.336,0.168c0,0-0.042,0-0.069,0
		c-0.084-0.014-0.196-0.014-0.364-0.014c-0.267,0.364-0.658,0.77-1.428,1.414c-0.868,0.728-1.471,1.134-2.464,1.68L29.364,46.001z
		 M29.924,36.02c2.269-0.252,3.57-0.49,6.021-1.106c1.693-0.42,2.436-0.658,2.968-0.98c0.224,0.168,0.392,0.308,0.504,0.392
		c0.518,0.392,0.672,0.56,0.672,0.686c0,0.056-0.07,0.112-0.14,0.112c-0.07,0-0.28-0.056-0.63-0.168
		c-1.19,0.336-2.03,0.518-3.836,0.798c0.63,0.266,0.854,0.392,0.854,0.518c0,0,0,0,0,0.014c-0.014,0.07-0.14,0.14-0.294,0.14
		c-0.07,0-0.168-0.014-0.35-0.042c-1.232,1.134-1.261,1.162-2.017,1.694c0.519,0.322,0.742,0.602,0.742,0.924
		c0,0.448-0.154,0.868-0.336,0.868c-0.098,0-0.14-0.042-0.378-0.406c-0.504-0.77-1.204-1.47-2.184-2.198l0.126-0.14
		c0.644,0.224,1.119,0.434,1.75,0.784c0.546-0.574,0.924-1.092,1.512-2.072c-2.227,0.308-3.29,0.406-4.956,0.42L29.924,36.02z
		 M35.063,41.424c-0.784,0.07-1.498,0.14-1.891,0.168c-1.456,0.14-1.722,0.168-2.408,0.21c-0.042,0.084-0.056,0.154-0.069,0.196
		c-0.112,0.35-0.154,0.434-0.28,0.434c-0.168,0-0.224-0.168-0.462-1.652c0.448,0.028,0.7,0.042,1.134,0.042
		c0.238,0,0.771-0.014,1.582-0.028c0.308-0.014,0.826-0.028,1.456-0.042c1.19-1.05,1.498-1.358,2.436-2.38
		c0.967-1.036,1.177-1.302,1.666-2.016c1.162,0.77,1.303,0.868,1.303,0.994c0,0.07-0.099,0.14-0.21,0.14
		c-0.057,0-0.364-0.042-0.561-0.07c-1.134,1.134-2.296,2.086-4.032,3.318c1.933-0.042,2.534-0.07,4.929-0.252
		c-0.393-0.476-0.645-0.714-1.261-1.218l0.154-0.154c1.218,0.672,1.722,1.022,2.548,1.722c0.406,0.35,0.49,0.518,0.49,0.952
		c0,0.462-0.168,0.826-0.378,0.826c-0.112,0-0.196-0.084-0.378-0.392c-0.364-0.63-0.602-0.994-0.924-1.414
		c-0.168,0.028-0.322,0.056-0.406,0.07c-0.56,0.098-0.56,0.098-1.316,0.182c-1.035,0.126-1.75,0.21-2.142,0.252v3.052
		c0,0.546,0.014,1.442,0.042,2.086c-0.028,0.182-0.154,0.238-0.588,0.238c-0.042,0-0.042,0-0.14,0c-0.21,0-0.294-0.042-0.336-0.21
		c0.014-0.35,0.014-0.728,0.027-1.148c0.015-0.826,0.015-0.868,0.015-1.036V41.424z M37.302,42.306
		c0.896,0.392,2.24,1.232,2.996,1.89c0.294,0.252,0.393,0.462,0.393,0.896c0,0.448-0.168,0.826-0.364,0.826
		c-0.098,0-0.168-0.056-0.267-0.21c-0.644-1.008-1.777-2.296-2.869-3.262L37.302,42.306z"/>
</g>
<rect x="0.25" y="7.25" fill="none" stroke="#008CD6" stroke-width="0.5" width="42" height="14"/>
<line fill="none" stroke="#008CD6" stroke-width="0.5" x1="14.25" y1="21.25" x2="14.25" y2="7.25"/>
<line fill="none" stroke="#008CD6" stroke-width="0.5" x1="28.25" y1="21.25" x2="28.25" y2="7.25"/>
<g>
	<polyline fill="none" stroke="#008CD6" stroke-width="0.5" points="0.25,7.25 0.25,0.25 42.25,0.25 42.25,7.25 	"/>
	<line fill="none" stroke="#008CD6" stroke-width="0.5" x1="7.25" y1="7.25" x2="7.25" y2="0.25"/>
	<line fill="none" stroke="#008CD6" stroke-width="0.5" x1="14.25" y1="7.25" x2="14.25" y2="0.25"/>
	<line fill="none" stroke="#008CD6" stroke-width="0.5" x1="21.25" y1="7.25" x2="21.25" y2="0.25"/>
	<line fill="none" stroke="#008CD6" stroke-width="0.5" x1="28.25" y1="7.25" x2="28.25" y2="0.25"/>
	<line fill="none" stroke="#008CD6" stroke-width="0.5" x1="35.25" y1="7.25" x2="35.25" y2="0.25"/>
</g>
</svg>
